999
dxflib 3.17.0.0
  0
SECTION
  2
HEADER
  9
$ACADVER
  1
AC1015
  9
$HANDSEED
  5
FFFF
  9
$DIMADEC
 70
0
  9
$DIMASZ
 40
2.5
  9
$DIMAUNIT
 70
0
  9
$DIMAZIN
 70
2
  9
$DIMDEC
 70
4
  9
$DIMDSEP
 70
46
  9
$DIMEXE
 40
1.25
  9
$DIMEXO
 40
0.625
  9
$DIMGAP
 40
0.625
  9
$DIMLUNIT
 70
2
  9
$DIMSCALE
 40
1.0
  9
$DIMTSZ
 40
0.0
  9
$DIMTXT
 40
2.5
  9
$DIMZIN
 70
8
  9
$DWGCODEPAGE
  3
ANSI_1252
  9
$INSUNITS
 70
4
  9
$LTSCALE
 40
1.0
  9
$MAXACTVP
 70
32
  9
$MEASUREMENT
 70
1
  9
$PDMODE
 70
0
  9
$PDSIZE
 40
0
  0
ENDSEC
  0
SECTION
  2
TABLES
  0
TABLE
  2
VPORT
  5
8
100
AcDbSymbolTable
 70
1
  0
VPORT
  5
30
100
AcDbSymbolTableRecord
100
AcDbViewportTableRecord
  2
*Active
 70
0
 10
0.0
 20
0.0
 11
1.0
 21
1.0
 12
286.30555555555549
 22
148.5
 13
0.0
 23
0.0
 14
10.0
 24
10.0
 15
10.0
 25
10.0
 16
0.0
 26
0.0
 36
1.0
 17
0.0
 27
0.0
 37
0.0
 40
297.0
 41
1.92798353909465
 42
50.0
 43
0.0
 44
0.0
 50
0.0
 51
0.0
 71
0
 72
100
 73
1
 74
3
 75
1
 76
1
 77
0
 78
0
281
0
 65
1
110
0.0
120
0.0
130
0.0
111
1.0
121
0.0
131
0.0
112
0.0
122
1.0
132
0.0
 79
0
146
0.0
  0
ENDTAB
  0
TABLE
  2
LTYPE
  5
5
100
AcDbSymbolTable
 70
41
  0
LTYPE
  5
16
100
AcDbSymbolTableRecord
100
AcDbLinetypeTableRecord
  2
Continuous
 70
0
  3
Solid line
 72
65
 73
0
 40
0.0
  0
LTYPE
  5
31
100
AcDbSymbolTableRecord
100
AcDbLinetypeTableRecord
  2
ACAD_ISO10W100
 70
0
  3
ISO dash dot __ . __ . __ . __ . __ . __ . __ . 
 72
65
 73
4
 40
18.0
 49
12.0
 74
0
 49
-2.9500000000000002
 74
0
 49
0.1
 74
0
 49
-2.9500000000000002
 74
0
  0
LTYPE
  5
32
100
AcDbSymbolTableRecord
100
AcDbLinetypeTableRecord
  2
DASHDOTX2
 70
0
  3
Dash dot (2x) ____  .  ____  .  ____  .  ___
 72
65
 73
4
 40
50.799999999999997
 49
25.399999999999999
 74
0
 49
-12.649999999999999
 74
0
 49
0.1
 74
0
 49
-12.649999999999999
 74
0
  0
LTYPE
  5
33
100
AcDbSymbolTableRecord
100
AcDbLinetypeTableRecord
  2
DOT
 70
0
  3
Dot . . . . . . . . . . . . . . . . . . . . . . . .
 72
65
 73
2
 40
6.3499999999999996
 49
0.1
 74
0
 49
-6.25
 74
0
  0
LTYPE
  5
34
100
AcDbSymbolTableRecord
100
AcDbLinetypeTableRecord
  2
ACAD_ISO05W100
 70
0
  3
ISO long-dash double-dot ____ .. ____ .. ____ . 
 72
65
 73
6
 40
33.000000000000007
 49
24.0
 74
0
 49
-2.9500000000000002
 74
0
 49
0.1
 74
0
 49
-2.9000000000000004
 74
0
 49
0.1
 74
0
 49
-2.9500000000000002
 74
0
  0
LTYPE
  5
35
100
AcDbSymbolTableRecord
100
AcDbLinetypeTableRecord
  2
HIDDENX2
 70
0
  3
Hidden (2x) ____ ____ ____ ____ ____ ____ ____ 
 72
65
 73
2
 40
19.049999999999997
 49
12.699999999999999
 74
0
 49
-6.3499999999999996
 74
0
  0
LTYPE
  5
36
100
AcDbSymbolTableRecord
100
AcDbLinetypeTableRecord
  2
ACAD_ISO09W100
 70
0
  3
ISO long-dash double-short-dash ____ __ __ ____
 72
65
 73
6
 40
45.0
 49
24.0
 74
0
 49
-3.0
 74
0
 49
6.0
 74
0
 49
-3.0
 74
0
 49
6.0
 74
0
 49
-3.0
 74
0
  0
LTYPE
  5
37
100
AcDbSymbolTableRecord
100
AcDbLinetypeTableRecord
  2
DASHED
 70
0
  3
Dashed __ __ __ __ __ __ __ __ __ __ __ __ __ _
 72
65
 73
2
 40
19.049999999999997
 49
12.699999999999999
 74
0
 49
-6.3499999999999996
 74
0
  0
LTYPE
  5
38
100
AcDbSymbolTableRecord
100
AcDbLinetypeTableRecord
  2
BORDERX2
 70
0
  3
Border (2x) ____  ____  .  ____  ____  .  ___
 72
65
 73
6
 40
88.899999999999977
 49
25.399999999999999
 74
0
 49
-12.699999999999999
 74
0
 49
25.399999999999999
 74
0
 49
-12.649999999999999
 74
0
 49
0.1
 74
0
 49
-12.649999999999999
 74
0
  0
LTYPE
  5
39
100
AcDbSymbolTableRecord
100
AcDbLinetypeTableRecord
  2
CENTER2
 70
0
  3
Center (.5x) ___ _ ___ _ ___ _ ___ _ ___ _ ___
 72
65
 73
4
 40
28.575000000000003
 49
19.050000000000001
 74
0
 49
-3.1749999999999998
 74
0
 49
3.1749999999999998
 74
0
 49
-3.1749999999999998
 74
0
  0
LTYPE
  5
3A
100
AcDbSymbolTableRecord
100
AcDbLinetypeTableRecord
  2
ACAD_ISO11W100
 70
0
  3
ISO double-dash dot __ __ . __ __ . __ __ . __ _
 72
65
 73
6
 40
33.0
 49
12.0
 74
0
 49
-3.0
 74
0
 49
12.0
 74
0
 49
-2.9500000000000002
 74
0
 49
0.1
 74
0
 49
-2.9500000000000002
 74
0
  0
LTYPE
  5
3B
100
AcDbSymbolTableRecord
100
AcDbLinetypeTableRecord
  2
ACAD_ISO13W100
 70
0
  3
ISO double-dash double-dot __ __ . . __ __ . . _
 72
65
 73
8
 40
36.000000000000007
 49
12.0
 74
0
 49
-3.0
 74
0
 49
12.0
 74
0
 49
-2.9500000000000002
 74
0
 49
0.1
 74
0
 49
-2.9000000000000004
 74
0
 49
0.1
 74
0
 49
-2.9500000000000002
 74
0
  0
LTYPE
  5
3C
100
AcDbSymbolTableRecord
100
AcDbLinetypeTableRecord
  2
ACAD_ISO12W100
 70
0
  3
ISO dash double-dot __ . . __ . . __ . . __ . . 
 72
65
 73
6
 40
21.0
 49
12.0
 74
0
 49
-2.9500000000000002
 74
0
 49
0.1
 74
0
 49
-2.9000000000000004
 74
0
 49
0.1
 74
0
 49
-2.9500000000000002
 74
0
  0
LTYPE
  5
3D
100
AcDbSymbolTableRecord
100
AcDbLinetypeTableRecord
  2
ACAD_ISO07W100
 70
0
  3
ISO dot . . . . . . . . . . . . . . . . . . . . 
 72
65
 73
2
 40
3.0
 49
0.1
 74
0
 49
-2.8999999999999999
 74
0
  0
LTYPE
  5
3E
100
AcDbSymbolTableRecord
100
AcDbLinetypeTableRecord
  2
ACAD_ISO15W100
 70
0
  3
ISO double-dash triple-dot __ __ . . . __ __ . .
 72
65
 73
10
 40
39.000000000000007
 49
12.0
 74
0
 49
-3.0
 74
0
 49
12.0
 74
0
 49
-2.9500000000000002
 74
0
 49
0.1
 74
0
 49
-2.9000000000000004
 74
0
 49
0.1
 74
0
 49
-2.9000000000000004
 74
0
 49
0.1
 74
0
 49
-2.9500000000000002
 74
0
  0
LTYPE
  5
15
100
AcDbSymbolTableRecord
100
AcDbLinetypeTableRecord
  2
BYLAYER
 70
0
  3

 72
65
 73
0
 40
0.0
  0
LTYPE
  5
3F
100
AcDbSymbolTableRecord
100
AcDbLinetypeTableRecord
  2
ACAD_ISO14W100
 70
0
  3
ISO dash triple-dot __ . . . __ . . . __ . . . _
 72
65
 73
8
 40
24.000000000000004
 49
12.0
 74
0
 49
-2.9500000000000002
 74
0
 49
0.1
 74
0
 49
-2.9000000000000004
 74
0
 49
0.1
 74
0
 49
-2.9000000000000004
 74
0
 49
0.1
 74
0
 49
-2.9500000000000002
 74
0
  0
LTYPE
  5
40
100
AcDbSymbolTableRecord
100
AcDbLinetypeTableRecord
  2
DIVIDE
 70
0
  3
Divide ____ . . ____ . . ____ . . ____ . . ____
 72
65
 73
6
 40
31.750000000000004
 49
12.699999999999999
 74
0
 49
-6.2999999999999998
 74
0
 49
0.1
 74
0
 49
-6.25
 74
0
 49
0.1
 74
0
 49
-6.2999999999999998
 74
0
  0
LTYPE
  5
41
100
AcDbSymbolTableRecord
100
AcDbLinetypeTableRecord
  2
DOT2
 70
0
  3
Dot (.5x) ........................................
 72
65
 73
2
 40
3.1749999999999998
 49
0.1
 74
0
 49
-3.0749999999999997
 74
0
  0
LTYPE
  5
42
100
AcDbSymbolTableRecord
100
AcDbLinetypeTableRecord
  2
DASHED2
 70
0
  3
Dashed (.5x) _ _ _ _ _ _ _ _ _ _ _ _ _ _ _ _ _ 
 72
65
 73
2
 40
9.5249999999999986
 49
6.3499999999999996
 74
0
 49
-3.1749999999999998
 74
0
  0
LTYPE
  5
43
100
AcDbSymbolTableRecord
100
AcDbLinetypeTableRecord
  2
HIDDEN
 70
0
  3
Hidden __ __ __ __ __ __ __ __ __ __ __ __ __ __
 72
65
 73
2
 40
9.5249999999999986
 49
6.3499999999999996
 74
0
 49
-3.1749999999999998
 74
0
  0
LTYPE
  5
44
100
AcDbSymbolTableRecord
100
AcDbLinetypeTableRecord
  2
ACAD_ISO08W100
 70
0
  3
ISO long-dash short-dash ____ __ ____ __ ____ _
 72
65
 73
4
 40
36.0
 49
24.0
 74
0
 49
-3.0
 74
0
 49
6.0
 74
0
 49
-3.0
 74
0
  0
LTYPE
  5
45
100
AcDbSymbolTableRecord
100
AcDbLinetypeTableRecord
  2
CENTERX2
 70
0
  3
Center (2x) ________  __  ________  __  _____
 72
65
 73
4
 40
101.60000000000001
 49
63.5
 74
0
 49
-12.699999999999999
 74
0
 49
12.699999999999999
 74
0
 49
-12.699999999999999
 74
0
  0
LTYPE
  5
14
100
AcDbSymbolTableRecord
100
AcDbLinetypeTableRecord
  2
BYBLOCK
 70
0
  3

 72
65
 73
0
 40
0.0
  0
LTYPE
  5
46
100
AcDbSymbolTableRecord
100
AcDbLinetypeTableRecord
  2
ACAD_ISO06W100
 70
0
  3
ISO long-dash triple-dot ____ ... ____ ... ____
 72
65
 73
8
 40
36.000000000000007
 49
24.0
 74
0
 49
-2.9500000000000002
 74
0
 49
0.1
 74
0
 49
-2.9000000000000004
 74
0
 49
0.1
 74
0
 49
-2.9000000000000004
 74
0
 49
0.1
 74
0
 49
-2.9500000000000002
 74
0
  0
LTYPE
  5
47
100
AcDbSymbolTableRecord
100
AcDbLinetypeTableRecord
  2
BORDER
 70
0
  3
Border __ __ . __ __ . __ __ . __ __ . __ __ .
 72
65
 73
6
 40
44.449999999999996
 49
12.699999999999999
 74
0
 49
-6.3499999999999996
 74
0
 49
12.699999999999999
 74
0
 49
-6.2999999999999998
 74
0
 49
0.1
 74
0
 49
-6.2999999999999998
 74
0
  0
LTYPE
  5
48
100
AcDbSymbolTableRecord
100
AcDbLinetypeTableRecord
  2
ACAD_ISO04W100
 70
0
  3
ISO long-dash dot ____ . ____ . ____ . ____ . _
 72
65
 73
4
 40
30.0
 49
24.0
 74
0
 49
-2.9500000000000002
 74
0
 49
0.1
 74
0
 49
-2.9500000000000002
 74
0
  0
LTYPE
  5
49
100
AcDbSymbolTableRecord
100
AcDbLinetypeTableRecord
  2
CENTER
 70
0
  3
Center ____ _ ____ _ ____ _ ____ _ ____ _ ____
 72
65
 73
4
 40
50.800000000000004
 49
31.75
 74
0
 49
-6.3499999999999996
 74
0
 49
6.3499999999999996
 74
0
 49
-6.3499999999999996
 74
0
  0
LTYPE
  5
4A
100
AcDbSymbolTableRecord
100
AcDbLinetypeTableRecord
  2
DOTX2
 70
0
  3
Dot (2x) .  .  .  .  .  .  .  .  .  .  .  .  .  .
 72
65
 73
2
 40
12.699999999999999
 49
0.1
 74
0
 49
-12.6
 74
0
  0
LTYPE
  5
4B
100
AcDbSymbolTableRecord
100
AcDbLinetypeTableRecord
  2
PHANTOMX2
 70
0
  3
Phantom (2x) ____________    ____    ____   _
 72
65
 73
6
 40
127.00000000000001
 49
63.5
 74
0
 49
-12.699999999999999
 74
0
 49
12.699999999999999
 74
0
 49
-12.699999999999999
 74
0
 49
12.699999999999999
 74
0
 49
-12.699999999999999
 74
0
  0
LTYPE
  5
4C
100
AcDbSymbolTableRecord
100
AcDbLinetypeTableRecord
  2
ACAD_ISO03W100
 70
0
  3
ISO dash space __    __    __    __    __    __
 72
65
 73
2
 40
30.0
 49
12.0
 74
0
 49
-18.0
 74
0
  0
LTYPE
  5
4D
100
AcDbSymbolTableRecord
100
AcDbLinetypeTableRecord
  2
HIDDEN2
 70
0
  3
Hidden (.5x) _ _ _ _ _ _ _ _ _ _ _ _ _ _ _ _ _ 
 72
65
 73
2
 40
4.7624999999999993
 49
3.1749999999999998
 74
0
 49
-1.5874999999999999
 74
0
  0
LTYPE
  5
4E
100
AcDbSymbolTableRecord
100
AcDbLinetypeTableRecord
  2
ACAD_ISO02W100
 70
0
  3
ISO dash __ __ __ __ __ __ __ __ __ __ __ __ __
 72
65
 73
2
 40
15.0
 49
12.0
 74
0
 49
-3.0
 74
0
  0
LTYPE
  5
4F
100
AcDbSymbolTableRecord
100
AcDbLinetypeTableRecord
  2
DIVIDEX2
 70
0
  3
Divide (2x) ________  .  .  ________  .  .  _
 72
65
 73
6
 40
63.5
 49
25.399999999999999
 74
0
 49
-12.649999999999999
 74
0
 49
0.1
 74
0
 49
-12.599999999999998
 74
0
 49
0.1
 74
0
 49
-12.649999999999999
 74
0
  0
LTYPE
  5
50
100
AcDbSymbolTableRecord
100
AcDbLinetypeTableRecord
  2
DASHDOT
 70
0
  3
Dash dot __ . __ . __ . __ . __ . __ . __ . __
 72
65
 73
4
 40
25.400000000000002
 49
12.699999999999999
 74
0
 49
-6.2999999999999998
 74
0
 49
0.1
 74
0
 49
-6.2999999999999998
 74
0
  0
LTYPE
  5
51
100
AcDbSymbolTableRecord
100
AcDbLinetypeTableRecord
  2
BORDER2
 70
0
  3
Border (.5x) __.__.__.__.__.__.__.__.__.__.__.
 72
65
 73
6
 40
22.225000000000001
 49
6.3499999999999996
 74
0
 49
-3.1749999999999998
 74
0
 49
6.3499999999999996
 74
0
 49
-3.125
 74
0
 49
0.1
 74
0
 49
-3.125
 74
0
  0
LTYPE
  5
52
100
AcDbSymbolTableRecord
100
AcDbLinetypeTableRecord
  2
DIVIDE2
 70
0
  3
Divide (.5x) __..__..__..__..__..__..__..__.._
 72
65
 73
6
 40
15.874999999999998
 49
6.3499999999999996
 74
0
 49
-3.125
 74
0
 49
0.1
 74
0
 49
-3.0750000000000002
 74
0
 49
0.1
 74
0
 49
-3.125
 74
0
  0
LTYPE
  5
53
100
AcDbSymbolTableRecord
100
AcDbLinetypeTableRecord
  2
PHANTOM2
 70
0
  3
Phantom (.5x) ___ _ _ ___ _ _ ___ _ _ ___ _ _
 72
65
 73
6
 40
31.750000000000004
 49
15.875
 74
0
 49
-3.1749999999999998
 74
0
 49
3.1749999999999998
 74
0
 49
-3.1749999999999998
 74
0
 49
3.1749999999999998
 74
0
 49
-3.1749999999999998
 74
0
  0
LTYPE
  5
54
100
AcDbSymbolTableRecord
100
AcDbLinetypeTableRecord
  2
DASHEDX2
 70
0
  3
Dashed (2x) ____  ____  ____  ____  ____  ___
 72
65
 73
2
 40
38.099999999999994
 49
25.399999999999999
 74
0
 49
-12.699999999999999
 74
0
  0
LTYPE
  5
55
100
AcDbSymbolTableRecord
100
AcDbLinetypeTableRecord
  2
PHANTOM
 70
0
  3
Phantom ______  __  __  ______  __  __  ______ 
 72
65
 73
6
 40
63.500000000000007
 49
31.75
 74
0
 49
-6.3499999999999996
 74
0
 49
6.3499999999999996
 74
0
 49
-6.3499999999999996
 74
0
 49
6.3499999999999996
 74
0
 49
-6.3499999999999996
 74
0
  0
LTYPE
  5
56
100
AcDbSymbolTableRecord
100
AcDbLinetypeTableRecord
  2
DASHDOT2
 70
0
  3
Dash dot (.5x) _._._._._._._._._._._._._._._.
 72
65
 73
4
 40
12.699999999999999
 49
6.3499999999999996
 74
0
 49
-3.125
 74
0
 49
0.1
 74
0
 49
-3.125
 74
0
  0
ENDTAB
  0
TABLE
  2
LAYER
  5
2
100
AcDbSymbolTable
 70
2
  0
LAYER
  5
57
100
AcDbSymbolTableRecord
100
AcDbLayerTableRecord
  2
koty
 70
0
 62
5
420
255
  6
Continuous
370
25
390
F
  0
LAYER
  5
10
100
AcDbSymbolTableRecord
100
AcDbLayerTableRecord
  2
0
 70
0
 62
7
420
0
  6
Continuous
370
25
390
F
  0
ENDTAB
  0
TABLE
  2
STYLE
  5
3
100
AcDbSymbolTable
 70
1
  0
STYLE
  5
58
100
AcDbSymbolTableRecord
100
AcDbTextStyleTableRecord
  2
Standard
 70
0
 40
0.0
 41
1.0
 50
0.0
 71
0
 42
2.5
  3

  4

1001
ACAD
1000
txt
1071
0
  0
ENDTAB
  0
TABLE
  2
VIEW
  5
6
100
AcDbSymbolTable
 70
0
  0
ENDTAB
  0
TABLE
  2
UCS
  5
7
100
AcDbSymbolTable
 70
0
  0
ENDTAB
  0
TABLE
  2
APPID
  5
9
100
AcDbSymbolTable
 70
1
  0
APPID
  5
12
100
AcDbSymbolTableRecord
100
AcDbRegAppTableRecord
  2
ACAD
 70
0
  0
APPID
  5
59
100
AcDbSymbolTableRecord
100
AcDbRegAppTableRecord
  2
QCAD
 70
0
  0
ENDTAB
  0
TABLE
  2
DIMSTYLE
  5
A
100
AcDbSymbolTable
 70
1
100
AcDbDimStyleTable
 71
0
  0
DIMSTYLE
105
27
100
AcDbSymbolTableRecord
100
AcDbDimStyleTableRecord
  2
Standard
 41
2.5
 42
0.625
 43
3.75
 44
1.25
 70
0
 73
0
 74
0
 77
1
 78
8
140
2.5
141
2.5
143
0.03937007874016
147
0.625
171
3
172
1
271
2
272
2
274
3
278
44
283
0
284
8
340
58
  0
ENDTAB
  0
TABLE
  2
BLOCK_RECORD
  5
1
100
AcDbSymbolTable
 70
1
  0
BLOCK_RECORD
  5
1F
100
AcDbSymbolTableRecord
100
AcDbBlockTableRecord
  2
*Model_Space
340
22
  0
BLOCK_RECORD
  5
1B
100
AcDbSymbolTableRecord
100
AcDbBlockTableRecord
  2
*Paper_Space
340
1E
  0
BLOCK_RECORD
  5
23
100
AcDbSymbolTableRecord
100
AcDbBlockTableRecord
  2
*Paper_Space0
340
26
  0
ENDTAB
  0
ENDSEC
  0
SECTION
  2
BLOCKS
  0
BLOCK
  5
20
100
AcDbEntity
  8
0
100
AcDbBlockBegin
  2
*Model_Space
 70
0
 10
0.0
 20
0.0
 30
0.0
  3
*Model_Space
  1

  0
ENDBLK
  5
21
100
AcDbEntity
  8
0
100
AcDbBlockEnd
  0
BLOCK
  5
1C
100
AcDbEntity
 67
1
  8
0
100
AcDbBlockBegin
  2
*Paper_Space
 70
0
 10
0.0
 20
0.0
 30
0.0
  3
*Paper_Space
  1

  0
ENDBLK
  5
1D
100
AcDbEntity
 67
1
  8
0
100
AcDbBlockEnd
  0
BLOCK
  5
24
100
AcDbEntity
  8
0
100
AcDbBlockBegin
  2
*Paper_Space0
 70
0
 10
0.0
 20
0.0
 30
0.0
  3
*Paper_Space0
  1

  0
ENDBLK
  5
25
100
AcDbEntity
  8
0
100
AcDbBlockEnd
  0
ENDSEC
  0
SECTION
  2
ENTITIES
  0
LINE
  5
5A
100
AcDbEntity
  8
0
 62
256
370
-1
 48
1.0
  6
BYLAYER
100
AcDbLine
 10
0.0
 20
0.0
 30
0.0
 11
-62.999999999999993
 21
0.0
 31
0.0
  0
LINE
  5
5B
100
AcDbEntity
  8
0
 62
256
370
-1
 48
1.0
  6
BYLAYER
100
AcDbLine
 10
0.0
 20
0.0
 30
0.0
 11
62.999999999999993
 21
0.0
 31
0.0
  0
LINE
  5
5C
100
AcDbEntity
  8
0
 62
256
370
-1
 48
1.0
  6
BYLAYER
100
AcDbLine
 10
-55.699999999999996
 20
40.699999999999996
 30
0.0
 11
-64.500000000000213
 21
49.500000000000213
 31
0.0
  0
LINE
  5
5D
100
AcDbEntity
  8
0
 62
256
370
-1
 48
1.0
  6
BYLAYER
100
AcDbLine
 10
55.699999999999996
 20
40.699999999999974
 30
0.0
 11
64.500000000000227
 21
49.500000000000192
 31
0.0
  0
LINE
  5
5E
100
AcDbEntity
  8
0
 62
256
370
-1
 48
1.0
  6
BYLAYER
100
AcDbLine
 10
-65.999999999999972
 20
50.0
 30
0.0
 11
-128.0
 21
50.0
 31
0.0
  0
LINE
  5
5F
100
AcDbEntity
  8
0
 62
256
370
-1
 48
1.0
  6
BYLAYER
100
AcDbLine
 10
65.999999999999972
 20
49.999999999999993
 30
0.0
 11
128.00000000000003
 21
49.999999999999943
 31
0.0
  0
LINE
  5
60
100
AcDbEntity
  8
0
 62
256
370
-1
 48
1.0
  6
BYLAYER
100
AcDbLine
 10
-130.0
 20
52.0
 30
0.0
 11
-130.0
 21
198.0
 31
0.0
  0
LINE
  5
61
100
AcDbEntity
  8
0
 62
256
370
-1
 48
1.0
  6
BYLAYER
100
AcDbLine
 10
130.0
 20
52.0
 30
0.0
 11
130.00000000000003
 21
197.99999999999997
 31
0.0
  0
LINE
  5
62
100
AcDbEntity
  8
0
 62
256
370
-1
 48
1.0
  6
BYLAYER
100
AcDbLine
 10
109.30000000000001
 20
200.39999999999995
 30
0.0
 11
55.366818734198311
 21
229.80473650449682
 31
0.0
  0
LINE
  5
63
100
AcDbEntity
  8
0
 62
256
370
-1
 48
1.0
  6
BYLAYER
100
AcDbLine
 10
-109.3
 20
200.39999999999998
 30
0.0
 11
-55.36681873419829
 21
229.80473650449684
 31
0.0
  0
LINE
  5
64
100
AcDbEntity
  8
0
 62
256
370
-1
 48
1.0
  6
BYLAYER
100
AcDbLine
 10
54.400000000000048
 20
229.99999999999994
 30
0.0
 11
0.0
 21
230.0
 31
0.0
  0
LINE
  5
65
100
AcDbEntity
  8
0
 62
256
370
-1
 48
1.0
  6
BYLAYER
100
AcDbLine
 10
-54.399999999999999
 20
229.99999999999997
 30
0.0
 11
0.0
 21
230.0
 31
0.0
  0
CIRCLE
  5
66
100
AcDbEntity
  8
0
 62
256
370
-1
 48
1.0
  6
BYLAYER
100
AcDbCircle
 10
55.0
 20
4.9999999999999893
 30
0.0
 40
2.0
  0
CIRCLE
  5
67
100
AcDbEntity
  8
0
 62
256
370
-1
 48
1.0
  6
BYLAYER
100
AcDbCircle
 10
-55.0
 20
5.0
 30
0.0
 40
2.0
  0
CIRCLE
  5
68
100
AcDbEntity
  8
0
 62
256
370
-1
 48
1.0
  6
BYLAYER
100
AcDbCircle
 10
125.00000000000001
 20
54.999999999999979
 30
0.0
 40
2.0
  0
CIRCLE
  5
69
100
AcDbEntity
  8
0
 62
256
370
-1
 48
1.0
  6
BYLAYER
100
AcDbCircle
 10
-125.0
 20
54.999999999999993
 30
0.0
 40
2.0
  0
CIRCLE
  5
6A
100
AcDbEntity
  8
0
 62
256
370
-1
 48
1.0
  6
BYLAYER
100
AcDbCircle
 10
-50.0
 20
225.0
 30
0.0
 40
2.0
  0
CIRCLE
  5
6B
100
AcDbEntity
  8
0
 62
256
370
-1
 48
1.0
  6
BYLAYER
100
AcDbCircle
 10
50.000000000000007
 20
225.0
 30
0.0
 40
2.0
  0
CIRCLE
  5
6C
100
AcDbEntity
  8
0
 62
256
370
-1
 48
1.0
  6
BYLAYER
100
AcDbCircle
 10
125.00000000000001
 20
194.99999999999997
 30
0.0
 40
2.0
  0
CIRCLE
  5
6D
100
AcDbEntity
  8
0
 62
256
370
-1
 48
1.0
  6
BYLAYER
100
AcDbCircle
 10
-125.0
 20
195.0
 30
0.0
 40
2.0
  0
LINE
  5
6E
100
AcDbEntity
  8
0
 62
256
370
-1
 48
1.0
  6
BYLAYER
100
AcDbLine
 10
-65.0
 20
1.9999999999999996
 30
0.0
 11
-65.0
 21
9.0000000000000426
 31
0.0
  0
LINE
  5
6F
100
AcDbEntity
  8
0
 62
256
370
-1
 48
1.0
  6
BYLAYER
100
AcDbLine
 10
65.0
 20
1.999999999999909
 30
0.0
 11
65.0
 21
9.0000000000000249
 31
0.0
  0
LINE
  5
70
100
AcDbEntity
  8
0
 62
256
370
-1
 48
1.0
  6
BYLAYER
100
AcDbLine
 10
-64.000000000000043
 20
10.999999999999954
 30
0.0
 11
-55.699999999999982
 21
19.300000000000018
 31
0.0
  0
LINE
  5
71
100
AcDbEntity
  8
0
 62
256
370
-1
 48
1.0
  6
BYLAYER
100
AcDbLine
 10
64.000000000000043
 20
10.999999999999931
 30
0.0
 11
55.699999999999982
 21
19.300000000000011
 31
0.0
  0
LINE
  5
72
100
AcDbEntity
  8
0
 62
256
370
-1
 48
1.0
  6
BYLAYER
100
AcDbLine
 10
55.0
 20
21.000000000000071
 30
0.0
 11
55.000000000000014
 21
39.000000000000249
 31
0.0
  0
LINE
  5
73
100
AcDbEntity
  8
0
 62
256
370
-1
 48
1.0
  6
BYLAYER
100
AcDbLine
 10
-55.0
 20
21.000000000000068
 30
0.0
 11
-55.0
 21
39.000000000000263
 31
0.0
  0
LINE
  5
74
100
AcDbEntity
  8
0
 62
256
370
-1
 48
1.0
  6
BYLAYER
100
AcDbLine
 10
-128.0
 20
200.0
 30
0.0
 11
-110.9999999999997
 21
200.0
 31
0.0
  0
LINE
  5
75
100
AcDbEntity
  8
0
 62
256
370
-1
 48
1.0
  6
BYLAYER
100
AcDbLine
 10
127.99999999999999
 20
200.0
 30
0.0
 11
110.99999999999967
 21
200.00000000000003
 31
0.0
  0
CIRCLE
  5
76
100
AcDbEntity
  8
0
 62
256
370
-1
 48
1.0
  6
BYLAYER
100
AcDbCircle
 10
125.00000000000001
 20
125.00000000000001
 30
0.0
 40
2.0
  0
CIRCLE
  5
77
100
AcDbEntity
  8
0
 62
256
370
-1
 48
1.0
  6
BYLAYER
100
AcDbCircle
 10
-125.0
 20
125.0
 30
0.0
 40
2.0
  0
ARC
  5
78
100
AcDbEntity
  8
0
 62
256
370
-1
 48
1.0
  6
BYLAYER
100
AcDbCircle
 10
128.00000000000003
 20
197.99999999999997
 30
0.0
 40
2.0
100
AcDbArc
 50
0.0
 51
90.0
  0
ARC
  5
79
100
AcDbEntity
  8
0
 62
256
370
-1
 48
1.0
  6
BYLAYER
100
AcDbCircle
 10
-128.0
 20
198.0
 30
0.0
 40
2.0
100
AcDbArc
 50
90.0
 51
180.0
  0
ARC
  5
7A
100
AcDbEntity
  8
0
 62
256
370
-1
 48
1.0
  6
BYLAYER
100
AcDbCircle
 10
128.0
 20
51.999999999999957
 30
0.0
 40
2.0
100
AcDbArc
 50
270.0
 51
0.0
  0
ARC
  5
7B
100
AcDbEntity
  8
0
 62
256
370
-1
 48
1.0
  6
BYLAYER
100
AcDbCircle
 10
-128.0
 20
52.0
 30
0.0
 40
2.0
100
AcDbArc
 50
180.0
 51
270.0
  0
ARC
  5
7C
100
AcDbEntity
  8
0
 62
256
370
-1
 48
1.0
  6
BYLAYER
100
AcDbCircle
 10
62.999999999999993
 20
1.9999999999999927
 30
0.0
 40
2.0000000000000071
100
AcDbArc
 50
270.0
 51
0.0
  0
ARC
  5
7D
100
AcDbEntity
  8
0
 62
256
370
-1
 48
1.0
  6
BYLAYER
100
AcDbCircle
 10
-62.999999999999993
 20
1.9999999999999998
 30
0.0
 40
2.0000000000000071
100
AcDbArc
 50
180.0
 51
270.0
  0
ARC
  5
7E
100
AcDbEntity
  8
0
 62
256
370
-1
 48
1.0
  6
BYLAYER
100
AcDbCircle
 10
62.085786437626901
 20
8.7928932188134628
 30
0.0
 40
2.921563606347255
100
AcDbArc
 50
4.0650511770782618
 51
49.065051177078146
  0
ARC
  5
7F
100
AcDbEntity
  8
0
 62
256
370
-1
 48
1.0
  6
BYLAYER
100
AcDbCircle
 10
-62.085786437626901
 20
8.7928932188134414
 30
0.0
 40
2.921563606347255
100
AcDbArc
 50
130.93494882292185
 51
175.93494882292174
  0
ARC
  5
80
100
AcDbEntity
  8
0
 62
256
370
-1
 48
1.0
  6
BYLAYER
100
AcDbCircle
 10
57.258558044001269
 20
20.93587684164757
 30
0.0
 40
2.2594681271396384
100
AcDbArc
 50
178.37374129986691
 51
226.38652880405124
  0
ARC
  5
81
100
AcDbEntity
  8
0
 62
256
370
-1
 48
1.0
  6
BYLAYER
100
AcDbCircle
 10
-57.258558044001262
 20
20.935876841647577
 30
0.0
 40
2.2594681271396384
100
AcDbArc
 50
313.61347119594876
 51
1.6262587001331055
  0
ARC
  5
82
100
AcDbEntity
  8
0
 62
256
370
-1
 48
1.0
  6
BYLAYER
100
AcDbCircle
 10
57.402081528017135
 20
39.005025253169386
 30
0.0
 40
2.4020867845293372
100
AcDbArc
 50
135.11986494804037
 51
180.11986494803992
  0
ARC
  5
83
100
AcDbEntity
  8
0
 62
256
370
-1
 48
1.0
  6
BYLAYER
100
AcDbCircle
 10
-57.402081528017121
 20
39.005025253169414
 30
0.0
 40
2.4020867845293372
100
AcDbArc
 50
359.88013505196011
 51
44.880135051959641
  0
ARC
  5
84
100
AcDbEntity
  8
0
 62
256
370
-1
 48
1.0
  6
BYLAYER
100
AcDbCircle
 10
65.900238469663165
 20
47.808589302872072
 30
0.0
 40
2.1936802881053259
100
AcDbArc
 50
87.393473091879869
 51
138.29961420564956
  0
ARC
  5
85
100
AcDbEntity
  8
0
 62
256
370
-1
 48
1.0
  6
BYLAYER
100
AcDbCircle
 10
-65.900238469663179
 20
47.808589302872065
 30
0.0
 40
2.1936802881053259
100
AcDbArc
 50
41.700385794350467
 51
92.606526908120145
  0
ARC
  5
86
100
AcDbEntity
  8
0
 62
256
370
-1
 48
1.0
  6
BYLAYER
100
AcDbCircle
 10
110.76851697401807
 20
202.82869713957672
 30
0.0
 40
2.8381529026406338
100
AcDbArc
 50
238.84065360767406
 51
274.67830656195264
  0
ARC
  5
87
100
AcDbEntity
  8
0
 62
256
370
-1
 48
1.0
  6
BYLAYER
100
AcDbCircle
 10
-110.76851697401803
 20
202.82869713957675
 30
0.0
 40
2.8381529026406338
100
AcDbArc
 50
265.32169343804736
 51
301.15934639232597
  0
ARC
  5
88
100
AcDbEntity
  8
0
 62
256
370
-1
 48
1.0
  6
BYLAYER
100
AcDbCircle
 10
-54.122855908386931
 20
226.13659866819165
 30
0.0
 40
3.8733291492118571
100
AcDbArc
 50
94.103128561033245
 51
108.73316056912074
  0
ARC
  5
89
100
AcDbEntity
  8
0
 62
256
370
-1
 48
1.0
  6
BYLAYER
100
AcDbCircle
 10
54.122855908386938
 20
226.13659866819162
 30
0.0
 40
3.8733291492118571
100
AcDbArc
 50
71.266839430879259
 51
85.89687143896677
  0
DIMENSION
  5
8A
100
AcDbEntity
  8
koty
 62
256
370
-1
 48
1.0
  6
BYLAYER
100
AcDbDimension
 10
-54.122855908386931
 20
226.13659866819165
 30
0.0
 11
-53.806061810604163
 21
233.44198641086456
 31
0.0
 70
4
 71
8
 72
2
 41
1.0
 42
0.0
  1
4
  3
Standard
100
AcDbRadialDimension
 15
-54.95292164215568
 25
229.9199397281223
 35
0.0
 40
0.0
1001
ACAD
1000
DSTYLE
1002
{
1070
144
1040
1.0
1070
40
1040
1.0
1002
}
  0
DIMENSION
  5
8B
100
AcDbEntity
  8
koty
 62
256
370
-1
 48
1.0
  6
BYLAYER
100
AcDbDimension
 10
-110.76851697401803
 20
202.82869713957675
 30
0.0
 11
-107.4144462477319
 21
197.63238749202071
 31
0.0
 70
4
 71
8
 72
2
 41
1.0
 42
0.0
  1
3
  3
Standard
100
AcDbRadialDimension
 15
-110.02470119825473
 25
200.08974661236871
 35
0.0
 40
0.0
1001
ACAD
1000
DSTYLE
1002
{
1070
144
1040
1.0
1070
40
1040
1.0
1002
}
  0
DIMENSION
  5
8C
100
AcDbEntity
  8
koty
 62
256
370
-1
 48
1.0
  6
BYLAYER
100
AcDbDimension
 10
-128.0
 20
198.0
 30
0.0
 11
-129.45715453573317
 21
203.19143213711794
 31
0.0
 70
4
 71
8
 72
2
 41
1.0
 42
0.0
  1

  3
Standard
100
AcDbRadialDimension
 15
-129.1763433953501
 25
199.61747216860638
 35
0.0
 40
0.0
1001
ACAD
1000
DSTYLE
1002
{
1070
144
1040
1.0
1070
40
1040
1.0
1002
}
  0
DIMENSION
  5
8D
100
AcDbEntity
  8
koty
 62
256
370
-1
 48
1.0
  6
BYLAYER
100
AcDbDimension
 10
-128.0
 20
52.0
 30
0.0
 11
-132.67690269754883
 21
49.316560391406377
 31
0.0
 70
4
 71
8
 72
2
 41
1.0
 42
0.0
  1

  3
Standard
100
AcDbRadialDimension
 15
-129.28036879932895
 25
50.463557440805246
 35
0.0
 40
0.0
1001
ACAD
1000
DSTYLE
1002
{
1070
144
1040
1.0
1070
40
1040
1.0
1002
}
  0
DIMENSION
  5
8E
100
AcDbEntity
  8
koty
 62
256
370
-1
 48
1.0
  6
BYLAYER
100
AcDbDimension
 10
-65.900238469663179
 20
47.808589302872065
 30
0.0
 11
-64.892876128344938
 21
53.290862832683217
 31
0.0
 70
4
 71
8
 72
2
 41
1.0
 42
0.0
  1
2
  3
Standard
100
AcDbRadialDimension
 15
-64.801132325076964
 25
49.707062081016304
 35
0.0
 40
0.0
1001
ACAD
1000
DSTYLE
1002
{
1070
144
1040
1.0
1070
40
1040
1.0
1002
}
  0
DIMENSION
  5
8F
100
AcDbEntity
  8
koty
 62
256
370
-1
 48
1.0
  6
BYLAYER
100
AcDbDimension
 10
-57.402081528017121
 20
39.005025253169414
 30
0.0
 11
-52.676271883549511
 21
42.316853768739655
 31
0.0
 70
4
 71
8
 72
2
 41
1.0
 42
0.0
  1
3
  3
Standard
100
AcDbRadialDimension
 15
-55.093767715438602
 25
39.669636615598407
 35
0.0
 40
0.0
1001
ACAD
1000
DSTYLE
1002
{
1070
144
1040
1.0
1070
40
1040
1.0
1002
}
  0
DIMENSION
  5
90
100
AcDbEntity
  8
koty
 62
256
370
-1
 48
1.0
  6
BYLAYER
100
AcDbDimension
 10
-57.258558044001262
 20
20.935876841647577
 30
0.0
 11
-51.657692724828571
 21
20.307060951184116
 31
0.0
 70
4
 71
8
 72
2
 41
1.0
 42
0.0
  1
2
  3
Standard
100
AcDbRadialDimension
 15
-55.22495774286876
 25
19.951160622225096
 35
0.0
 40
0.0
1001
ACAD
1000
DSTYLE
1002
{
1070
144
1040
1.0
1070
40
1040
1.0
1002
}
  0
DIMENSION
  5
91
100
AcDbEntity
  8
koty
 62
256
370
-1
 48
1.0
  6
BYLAYER
100
AcDbDimension
 10
-62.085786437626901
 20
8.7928932188134414
 30
0.0
 11
-66.505598967824611
 21
13.232131404977038
 31
0.0
 70
4
 71
8
 72
2
 41
1.0
 42
0.0
  1
3
  3
Standard
100
AcDbRadialDimension
 15
-64.672302412840565
 25
10.151373625700966
 35
0.0
 40
0.0
1001
ACAD
1000
DSTYLE
1002
{
1070
144
1040
1.0
1070
40
1040
1.0
1002
}
  0
DIMENSION
  5
92
100
AcDbEntity
  8
koty
 62
256
370
-1
 48
1.0
  6
BYLAYER
100
AcDbDimension
 10
-62.999999999999993
 20
1.9999999999999998
 30
0.0
 11
-67.622309535897486
 21
-0.7764224335752143
 31
0.0
 70
4
 71
8
 72
2
 41
1.0
 42
0.0
  1

  3
Standard
100
AcDbRadialDimension
 15
-64.249390095108851
 25
0.4382623811139346
 35
0.0
 40
0.0
1001
ACAD
1000
DSTYLE
1002
{
1070
144
1040
1.0
1070
40
1040
1.0
1002
}
  0
DIMENSION
  5
93
100
AcDbEntity
  8
koty
 62
256
370
-1
 48
1.0
  6
BYLAYER
100
AcDbDimension
 10
-150.0
 20
200.0
 30
0.0
 11
-151.875
 21
125.0
 31
0.0
 70
1
 71
8
 72
2
 41
1.0
 42
0.0
  1

  3
Standard
100
AcDbAlignedDimension
 13
-131.0
 23
200.0
 33
0.0
 14
-131.0
 24
50.0
 34
0.0
1001
ACAD
1000
DSTYLE
1002
{
1070
144
1040
1.0
1070
40
1040
1.0
1002
}
  0
DIMENSION
  5
94
100
AcDbEntity
  8
koty
 62
256
370
-1
 48
1.0
  6
BYLAYER
100
AcDbDimension
 10
-130.0
 20
-20.0
 30
0.0
 11
0.0000000000000001
 21
-18.125
 31
0.0
 70
1
 71
8
 72
2
 41
1.0
 42
0.0
  1

  3
Standard
100
AcDbAlignedDimension
 13
-130.0
 23
47.0
 33
0.0
 14
130.0
 24
47.0
 34
0.0
1001
ACAD
1000
DSTYLE
1002
{
1070
144
1040
1.0
1070
40
1040
1.0
1002
}
  0
DIMENSION
  5
95
100
AcDbEntity
  8
koty
 62
256
370
-1
 48
1.0
  6
BYLAYER
100
AcDbDimension
 10
-55.0
 20
-9.9999999999999893
 30
0.0
 11
0.0000000000000006
 21
-8.1249999999999947
 31
0.0
 70
1
 71
8
 72
2
 41
1.0
 42
0.0
  1

  3
Standard
100
AcDbAlignedDimension
 13
-55.0
 23
5.0
 33
0.0
 14
55.0
 24
4.9999999999999893
 34
0.0
1001
ACAD
1000
DSTYLE
1002
{
1070
144
1040
1.0
1070
40
1040
1.0
1002
}
  0
DIMENSION
  5
96
100
AcDbEntity
  8
koty
 62
256
370
-1
 48
1.0
  6
BYLAYER
100
AcDbDimension
 10
-140.85339156853257
 20
54.999999999999993
 30
0.0
 11
-142.72839156853257
 21
90.0
 31
0.0
 70
1
 71
8
 72
2
 41
1.0
 42
0.0
  1

  3
Standard
100
AcDbAlignedDimension
 13
-125.0
 23
54.999999999999993
 33
0.0
 14
-125.0
 24
125.0
 34
0.0
1001
ACAD
1000
DSTYLE
1002
{
1070
144
1040
1.0
1070
40
1040
1.0
1002
}
  0
DIMENSION
  5
97
100
AcDbEntity
  8
koty
 62
256
370
-1
 48
1.0
  6
BYLAYER
100
AcDbDimension
 10
-140.85339156853257
 20
195.0
 30
0.0
 11
-142.72839156853257
 21
160.0
 31
0.0
 70
1
 71
8
 72
2
 41
1.0
 42
0.0
  1

  3
Standard
100
AcDbAlignedDimension
 13
-125.0
 23
195.0
 33
0.0
 14
-125.0
 24
125.0
 34
0.0
1001
ACAD
1000
DSTYLE
1002
{
1070
144
1040
1.0
1070
40
1040
1.0
1002
}
  0
DIMENSION
  5
98
100
AcDbEntity
  8
koty
 62
256
370
-1
 48
1.0
  6
BYLAYER
100
AcDbDimension
 10
-50.0
 20
253.08861559287985
 30
0.0
 11
0.0000000000000037
 21
254.96361559287985
 31
0.0
 70
1
 71
8
 72
2
 41
1.0
 42
0.0
  1

  3
Standard
100
AcDbAlignedDimension
 13
-50.0
 23
225.0
 33
0.0
 14
50.000000000000007
 24
225.0
 34
0.0
1001
ACAD
1000
DSTYLE
1002
{
1070
144
1040
1.0
1070
40
1040
1.0
1002
}
  0
DIMENSION
  5
99
100
AcDbEntity
  8
koty
 62
256
370
-1
 48
1.0
  6
BYLAYER
100
AcDbDimension
 10
-141.0
 20
195.0
 30
0.0
 11
-142.875
 21
197.5
 31
0.0
 70
1
 71
8
 72
2
 41
1.0
 42
0.0
  1

  3
Standard
100
AcDbAlignedDimension
 13
-130.0
 23
195.0
 33
0.0
 14
-130.0
 24
200.0
 34
0.0
1001
ACAD
1000
DSTYLE
1002
{
1070
144
1040
1.0
1070
40
1040
1.0
1002
}
  0
DIMENSION
  5
9A
100
AcDbEntity
  8
koty
 62
256
370
-1
 48
1.0
  6
BYLAYER
100
AcDbDimension
 10
-141.0
 20
54.999999999999993
 30
0.0
 11
-142.875
 21
52.5
 31
0.0
 70
1
 71
8
 72
2
 41
1.0
 42
0.0
  1

  3
Standard
100
AcDbAlignedDimension
 13
-125.0
 23
54.999999999999993
 33
0.0
 14
-125.0
 24
50.0
 34
0.0
1001
ACAD
1000
DSTYLE
1002
{
1070
144
1040
1.0
1070
40
1040
1.0
1002
}
  0
DIMENSION
  5
9B
100
AcDbEntity
  8
koty
 62
256
370
-1
 48
1.0
  6
BYLAYER
100
AcDbDimension
 10
-130.0
 20
39.101854350763823
 30
0.0
 11
-127.5
 21
40.97685435076383
 31
0.0
 70
1
 71
8
 72
2
 41
1.0
 42
0.0
  1

  3
Standard
100
AcDbAlignedDimension
 13
-130.0
 23
54.999999999999986
 33
0.0
 14
-125.0
 24
54.999999999999993
 34
0.0
1001
ACAD
1000
DSTYLE
1002
{
1070
144
1040
1.0
1070
40
1040
1.0
1002
}
  0
DIMENSION
  5
9C
100
AcDbEntity
  8
koty
 62
256
370
-1
 48
1.0
  6
BYLAYER
100
AcDbDimension
 10
-42.0
 20
225.0
 30
0.0
 11
-43.875
 21
227.5
 31
0.0
 70
1
 71
8
 72
2
 41
1.0
 42
0.0
  1

  3
Standard
100
AcDbAlignedDimension
 13
-50.0
 23
225.0
 33
0.0
 14
-50.0
 24
229.99999999999997
 34
0.0
1001
ACAD
1000
DSTYLE
1002
{
1070
144
1040
1.0
1070
40
1040
1.0
1002
}
  0
ENDSEC
  0
SECTION
  2
OBJECTS
  0
DICTIONARY
  5
C
100
AcDbDictionary
280
0
281
1
  3
ACAD_GROUP
350
D
  3
ACAD_LAYOUT
350
1A
  3
ACAD_MLINESTYLE
350
17
  3
ACAD_PLOTSETTINGS
350
19
  3
ACAD_PLOTSTYLENAME
350
E
  3
AcDbVariableDictionary
350
9D
  3
QCAD_OBJECTS
350
9E
  0
DICTIONARY
  5
D
100
AcDbDictionary
280
0
281
1
  0
ACDBDICTIONARYWDFLT
  5
E
100
AcDbDictionary
281
1
  3
Normal
350
F
100
AcDbDictionaryWithDefault
340
F
  0
ACDBPLACEHOLDER
  5
F
  0
DICTIONARY
  5
17
100
AcDbDictionary
280
0
281
1
  3
Standard
350
18
  0
MLINESTYLE
  5
18
100
AcDbMlineStyle
  2
STANDARD
 70
0
  3

 62
256
 51
90.0
 52
90.0
 71
2
 49
0.5
 62
256
  6
BYLAYER
 49
-0.5
 62
256
  6
BYLAYER
  0
DICTIONARY
  5
19
100
AcDbDictionary
280
0
281
1
  0
DICTIONARY
  5
1A
100
AcDbDictionary
281
1
  3
Layout1
350
1E
  3
Layout2
350
26
  3
Model
350
22
  0
LAYOUT
  5
1E
100
AcDbPlotSettings
  1

  2
none_device
  4

  6

 40
0.0
 41
0.0
 42
0.0
 43
0.0
 44
0.0
 45
0.0
 46
0.0
 47
0.0
 48
0.0
 49
0.0
140
0.0
141
0.0
142
1.0
143
1.0
 70
688
 72
0
 73
0
 74
5
  7

 75
16
147
1.0
148
0.0
149
0.0
100
AcDbLayout
  1
Layout1
 70
1
 71
1
 10
0.0
 20
0.0
 11
420.0
 21
297.0
 12
0.0
 22
0.0
 32
0.0
 14
100000000000000000000.0
 24
100000000000000000000.0
 34
100000000000000000000.0
 15
-100000000000000000000.0
 25
-100000000000000000000.0
 35
-100000000000000000000.0
146
0.0
 13
0.0
 23
0.0
 33
0.0
 16
1.0
 26
0.0
 36
0.0
 17
0.0
 27
1.0
 37
0.0
 76
0
330
1B
  0
LAYOUT
  5
22
100
AcDbPlotSettings
  1

  2
none_device
  4

  6

 40
0.0
 41
0.0
 42
0.0
 43
0.0
 44
0.0
 45
0.0
 46
0.0
 47
0.0
 48
0.0
 49
0.0
140
0.0
141
0.0
142
1.0
143
1.0
 70
1712
 72
0
 73
0
 74
0
  7

 75
0
147
1.0
148
0.0
149
0.0
100
AcDbLayout
  1
Model
 70
1
 71
0
 10
0.0
 20
0.0
 11
12.0
 21
9.0
 12
0.0
 22
0.0
 32
0.0
 14
0.0
 24
0.0
 34
0.0
 15
0.0
 25
0.0
 35
0.0
146
0.0
 13
0.0
 23
0.0
 33
0.0
 16
1.0
 26
0.0
 36
0.0
 17
0.0
 27
1.0
 37
0.0
 76
0
330
1F
  0
LAYOUT
  5
26
100
AcDbPlotSettings
  1

  2
none_device
  4

  6

 40
0.0
 41
0.0
 42
0.0
 43
0.0
 44
0.0
 45
0.0
 46
0.0
 47
0.0
 48
0.0
 49
0.0
140
0.0
141
0.0
142
1.0
143
1.0
 70
688
 72
0
 73
0
 74
5
  7

 75
16
147
1.0
148
0.0
149
0.0
100
AcDbLayout
  1
Layout2
 70
1
 71
2
 10
0.0
 20
0.0
 11
12.0
 21
9.0
 12
0.0
 22
0.0
 32
0.0
 14
0.0
 24
0.0
 34
0.0
 15
0.0
 25
0.0
 35
0.0
146
0.0
 13
0.0
 23
0.0
 33
0.0
 16
1.0
 26
0.0
 36
0.0
 17
0.0
 27
1.0
 37
0.0
 76
0
330
23
  0
DICTIONARY
  5
9D
100
AcDbDictionary
281
1
  3
DIMASSOC
350
A0
  3
HIDETEXT
350
9F
  0
DICTIONARYVAR
  5
9F
100
DictionaryVariables
280
0
  1
2
  0
DICTIONARYVAR
  5
A0
100
DictionaryVariables
280
0
  1
1
  0
DICTIONARY
  5
9E
100
AcDbDictionary
281
1
  3
ColorSettings/BackgroundColor
350
A1
  3
ColorSettings/ColorMode
350
A2
  3
Grid/DisplayGrid00
350
A3
  3
Grid/DisplayGrid01
350
A4
  3
Grid/DisplayGrid02
350
A5
  3
Grid/DisplayGrid03
350
A6
  3
Grid/GridSpacingX00
350
A7
  3
Grid/GridSpacingX01
350
A8
  3
Grid/GridSpacingX02
350
A9
  3
Grid/GridSpacingX03
350
AA
  3
Grid/GridSpacingY00
350
AB
  3
Grid/GridSpacingY01
350
AC
  3
Grid/GridSpacingY02
350
AD
  3
Grid/GridSpacingY03
350
AE
  3
Grid/IsometricGrid00
350
AF
  3
Grid/IsometricGrid01
350
B0
  3
Grid/IsometricGrid02
350
B1
  3
Grid/IsometricGrid03
350
B2
  3
Grid/IsometricProjection00
350
B3
  3
Grid/IsometricProjection01
350
B4
  3
Grid/IsometricProjection02
350
B5
  3
Grid/IsometricProjection03
350
B6
  3
Grid/MetaGridSpacingX00
350
B7
  3
Grid/MetaGridSpacingX01
350
B8
  3
Grid/MetaGridSpacingX02
350
B9
  3
Grid/MetaGridSpacingX03
350
BA
  3
Grid/MetaGridSpacingY00
350
BB
  3
Grid/MetaGridSpacingY01
350
BC
  3
Grid/MetaGridSpacingY02
350
BD
  3
Grid/MetaGridSpacingY03
350
BE
  3
MultiPageSettings/Columns
350
BF
  3
MultiPageSettings/GlueMarginsBottom
350
C0
  3
MultiPageSettings/GlueMarginsLeft
350
C1
  3
MultiPageSettings/GlueMarginsRight
350
C2
  3
MultiPageSettings/GlueMarginsTop
350
C3
  3
MultiPageSettings/PrintCropMarks
350
C4
  3
MultiPageSettings/Rows
350
C5
  3
PageSettings/OffsetX
350
C6
  3
PageSettings/OffsetY
350
C7
  3
PageSettings/PageOrientation
350
C8
  3
PageSettings/PaperHeight
350
C9
  3
PageSettings/PaperWidth
350
CA
  3
PageSettings/Scale
350
CB
  3
PageSettings/ShowPaperBorders
350
CC
  3
QCADVersion
350
CD
  3
UnitSettings/PaperUnit
350
CE
  3
ViewportCenter
350
CF
  3
ViewportHeight
350
D0
  3
ViewportWidth
350
D1
  0
XRECORD
  5
A1
330
9E
100
AcDbXrecord
280
1
1000
White
  0
XRECORD
  5
A2
330
9E
100
AcDbXrecord
280
1
1000
FullColor
  0
XRECORD
  5
A3
330
9E
100
AcDbXrecord
280
1
290
1
  0
XRECORD
  5
A4
330
9E
100
AcDbXrecord
280
1
290
1
  0
XRECORD
  5
A5
330
9E
100
AcDbXrecord
280
1
290
1
  0
XRECORD
  5
A6
330
9E
100
AcDbXrecord
280
1
290
1
  0
XRECORD
  5
A7
330
9E
100
AcDbXrecord
280
1
1000
auto
  0
XRECORD
  5
A8
330
9E
100
AcDbXrecord
280
1
1000
auto
  0
XRECORD
  5
A9
330
9E
100
AcDbXrecord
280
1
1000
auto
  0
XRECORD
  5
AA
330
9E
100
AcDbXrecord
280
1
1000
auto
  0
XRECORD
  5
AB
330
9E
100
AcDbXrecord
280
1
1000
auto
  0
XRECORD
  5
AC
330
9E
100
AcDbXrecord
280
1
1000
auto
  0
XRECORD
  5
AD
330
9E
100
AcDbXrecord
280
1
1000
auto
  0
XRECORD
  5
AE
330
9E
100
AcDbXrecord
280
1
1000
auto
  0
XRECORD
  5
AF
330
9E
100
AcDbXrecord
280
1
290
0
  0
XRECORD
  5
B0
330
9E
100
AcDbXrecord
280
1
290
0
  0
XRECORD
  5
B1
330
9E
100
AcDbXrecord
280
1
290
0
  0
XRECORD
  5
B2
330
9E
100
AcDbXrecord
280
1
290
0
  0
XRECORD
  5
B3
330
9E
100
AcDbXrecord
280
1
 90
65537
  0
XRECORD
  5
B4
330
9E
100
AcDbXrecord
280
1
 90
65537
  0
XRECORD
  5
B5
330
9E
100
AcDbXrecord
280
1
 90
65537
  0
XRECORD
  5
B6
330
9E
100
AcDbXrecord
280
1
 90
65537
  0
XRECORD
  5
B7
330
9E
100
AcDbXrecord
280
1
1000
auto
  0
XRECORD
  5
B8
330
9E
100
AcDbXrecord
280
1
1000
auto
  0
XRECORD
  5
B9
330
9E
100
AcDbXrecord
280
1
1000
auto
  0
XRECORD
  5
BA
330
9E
100
AcDbXrecord
280
1
1000
auto
  0
XRECORD
  5
BB
330
9E
100
AcDbXrecord
280
1
1000
auto
  0
XRECORD
  5
BC
330
9E
100
AcDbXrecord
280
1
1000
auto
  0
XRECORD
  5
BD
330
9E
100
AcDbXrecord
280
1
1000
auto
  0
XRECORD
  5
BE
330
9E
100
AcDbXrecord
280
1
1000
auto
  0
XRECORD
  5
BF
330
9E
100
AcDbXrecord
280
1
 90
1
  0
XRECORD
  5
C0
330
9E
100
AcDbXrecord
280
1
 40
10.0
  0
XRECORD
  5
C1
330
9E
100
AcDbXrecord
280
1
 40
10.0
  0
XRECORD
  5
C2
330
9E
100
AcDbXrecord
280
1
 40
10.0
  0
XRECORD
  5
C3
330
9E
100
AcDbXrecord
280
1
 40
10.0
  0
XRECORD
  5
C4
330
9E
100
AcDbXrecord
280
1
290
0
  0
XRECORD
  5
C5
330
9E
100
AcDbXrecord
280
1
 90
1
  0
XRECORD
  5
C6
330
9E
100
AcDbXrecord
280
1
 40
-234.63315990712564
  0
XRECORD
  5
C7
330
9E
100
AcDbXrecord
280
1
 40
-40.8322726498238
  0
XRECORD
  5
C8
330
9E
100
AcDbXrecord
280
1
1000
Landscape
  0
XRECORD
  5
C9
330
9E
100
AcDbXrecord
280
1
 40
297.0
  0
XRECORD
  5
CA
330
9E
100
AcDbXrecord
280
1
 40
210.0
  0
XRECORD
  5
CB
330
9E
100
AcDbXrecord
280
1
1000
1:1.5
  0
XRECORD
  5
CC
330
9E
100
AcDbXrecord
280
1
290
1
  0
XRECORD
  5
CD
330
9E
100
AcDbXrecord
280
1
1000
3.18.0
  0
XRECORD
  5
CE
330
9E
100
AcDbXrecord
280
1
 90
4
  0
XRECORD
  5
D0
330
9E
100
AcDbXrecord
280
1
 40
290.7151893565914
  0
XRECORD
  5
D1
330
9E
100
AcDbXrecord
280
1
 40
469.61684434526308
  0
ENDSEC
  0
EOF
