999
dxflib 3.17.0.0
  0
SECTION
  2
HEADER
  9
$ACADVER
  1
AC1015
  9
$HANDSEED
  5
FFFF
  9
$ANGBASE
 50
0.0
  9
$ANGDIR
 70
0
  9
$ATTMODE
 70
1
  9
$AUNITS
 70
0
  9
$AUPREC
 70
0
  9
$CECOLOR
 62
178
  9
$CELTSCALE
 40
1.0
  9
$CHAMFERA
 40
0.0
  9
$CHAMFERB
 40
0.0
  9
$CHAMFERC
 40
0.0
  9
$CHAMFERD
 40
0.0
  9
$CMLJUST
 70
0
  9
$CMLSCALE
 40
1.0
  9
$DIMADEC
 70
0
  9
$DIMALT
 70
0
  9
$DIMALTD
 70
2
  9
$DIMALTF
 40
25.399999999999999
  9
$DIMALTRND
 40
0.0
  9
$DIMALTTD
 70
2
  9
$DIMALTTZ
 70
0
  9
$DIMALTU
 70
2
  9
$DIMALTZ
 70
0
  9
$DIMAPOST
  1

  9
$DIMASZ
 40
0.18
  9
$DIMATFIT
 70
3
  9
$DIMAUNIT
 70
0
  9
$DIMAZIN
 70
0
  9
$DIMBLK
  1

  9
$DIMBLK1
  1

  9
$DIMBLK2
  1

  9
$DIMCEN
 40
0.09
  9
$DIMCLRD
 70
178
  9
$DIMCLRE
 70
178
  9
$DIMCLRT
 70
178
  9
$DIMDEC
 70
4
  9
$DIMDLE
 40
0.0
  9
$DIMDLI
 40
0.38
  9
$DIMDSEP
 70
46
  9
$DIMEXE
 40
0.18
  9
$DIMEXO
 40
0.0625
  9
$DIMFRAC
 70
0
  9
$DIMGAP
 40
0.09
  9
$DIMJUST
 70
0
  9
$DIMLDRBLK
  1

  9
$DIMLFAC
 40
1.0
  9
$DIMLIM
 70
0
  9
$DIMLUNIT
 70
2
  9
$DIMLWD
 70
-2
  9
$DIMLWE
 70
-2
  9
$DIMPOST
  1

  9
$DIMRND
 40
0.0
  9
$DIMSAH
 70
0
  9
$DIMSCALE
 40
1.0
  9
$DIMSD1
 70
0
  9
$DIMSD2
 70
0
  9
$DIMSE1
 70
0
  9
$DIMSE2
 70
0
  9
$DIMSOXD
 70
0
  9
$DIMTAD
 70
0
  9
$DIMTDEC
 70
4
  9
$DIMTFAC
 40
1.0
  9
$DIMTIH
 70
1
  9
$DIMTIX
 70
0
  9
$DIMTM
 40
0.0
  9
$DIMTOFL
 70
0
  9
$DIMTOH
 70
1
  9
$DIMTOL
 70
0
  9
$DIMTOLJ
 70
1
  9
$DIMTP
 40
0.0
  9
$DIMTSZ
 40
0.0
  9
$DIMTVP
 40
0.0
  9
$DIMTXSTY
  7
Standard
  9
$DIMTXT
 40
0.18
  9
$DIMTZIN
 70
0
  9
$DIMUPT
 70
0
  9
$DIMZIN
 70
0
  9
$DISPSILH
 70
0
  9
$DWGCODEPAGE
  3
ANSI_1252
  9
$ELEVATION
 40
0.0
  9
$EXTMAX
 10
416.24141557201631
 20
392.00648625111609
 30
0.0
  9
$EXTMIN
 10
-43.456684956049699
 20
-37.0
 30
0.0
  9
$FILLETRAD
 40
0.5
  9
$FILLMODE
 70
1
  9
$INSBASE
 10
0.0
 20
0.0
 30
0.0
  9
$INSUNITS
 70
4
  9
$LIMCHECK
 70
0
  9
$LIMMAX
 10
12.0
 20
9.0
  9
$LIMMIN
 10
0.0
 20
0.0
  9
$LTSCALE
 40
1.0
  9
$LUNITS
 70
2
  9
$LUPREC
 70
3
  9
$MAXACTVP
 70
2
  9
$MEASUREMENT
 70
0
  9
$MIRRTEXT
 70
1
  9
$ORTHOMODE
 70
0
  9
$PDMODE
 70
0
  9
$PDSIZE
 40
0
  9
$PELEVATION
 40
0.0
  9
$PEXTMAX
 10
0.0
 20
0.0
 30
0.0
  9
$PEXTMIN
 10
0.0
 20
0.0
 30
0.0
  9
$PINSBASE
 10
0.0
 20
0.0
 30
0.0
  9
$PLIMCHECK
 70
0
  9
$PLIMMAX
 10
10.75
 20
8.25
  9
$PLIMMIN
 10
-0.25
 20
-0.25
  9
$PLINEGEN
 70
0
  9
$PLINEWID
 40
0.0
  9
$PROXYGRAPHICS
 70
1
  9
$PSLTSCALE
 70
1
  9
$PUCSNAME
  2

  9
$PUCSORG
 10
0.0
 20
0.0
 30
0.0
  9
$PUCSXDIR
 10
1.0
 20
0.0
 30
0.0
  9
$PUCSYDIR
 10
0.0
 20
1.0
 30
0.0
  9
$QTEXTMODE
 70
0
  9
$REGENMODE
 70
1
  9
$SHADEDGE
 70
3
  9
$SHADEDIF
 70
70
  9
$SKETCHINC
 40
0.1
  9
$SKPOLY
 70
0
  9
$SPLFRAME
 70
0
  9
$SPLINESEGS
 70
8
  9
$SPLINETYPE
 70
6
  9
$SURFTAB1
 70
6
  9
$SURFTAB2
 70
6
  9
$SURFTYPE
 70
6
  9
$SURFU
 70
6
  9
$SURFV
 70
6
  9
$TEXTSIZE
 40
0.2
  9
$TEXTSTYLE
  7
Standard
  9
$THICKNESS
 40
0.0
  9
$TILEMODE
 70
1
  9
$TRACEWID
 40
0.05
  9
$TREEDEPTH
 70
3020
  9
$UCSNAME
  2

  9
$UCSORG
 10
0.0
 20
0.0
 30
0.0
  9
$UCSXDIR
 10
1.0
 20
0.0
 30
0.0
  9
$UCSYDIR
 10
0.0
 20
1.0
 30
0.0
  9
$UNITMODE
 70
0
  9
$USERI1
 70
0
  9
$USERI2
 70
0
  9
$USERI3
 70
0
  9
$USERI4
 70
0
  9
$USERI5
 70
0
  9
$USERR1
 40
0.0
  9
$USERR2
 40
0.0
  9
$USERR3
 40
0.0
  9
$USERR4
 40
0.0
  9
$USERR5
 40
0.0
  9
$USRTIMER
 70
1
  9
$VISRETAIN
 70
1
  0
ENDSEC
  0
SECTION
  2
TABLES
  0
TABLE
  2
VPORT
  5
8
100
AcDbSymbolTable
 70
1
  0
VPORT
  5
30
100
AcDbSymbolTableRecord
100
AcDbViewportTableRecord
  2
*Active
 70
0
 10
0.0
 20
0.0
 11
1.0
 21
1.0
 12
286.30555555555549
 22
148.5
 13
0.0
 23
0.0
 14
10.0
 24
10.0
 15
10.0
 25
10.0
 16
0.0
 26
0.0
 36
1.0
 17
0.0
 27
0.0
 37
0.0
 40
297.0
 41
1.92798353909465
 42
50.0
 43
0.0
 44
0.0
 50
0.0
 51
0.0
 71
0
 72
100
 73
1
 74
3
 75
1
 76
1
 77
0
 78
0
281
0
 65
1
110
0.0
120
0.0
130
0.0
111
1.0
121
0.0
131
0.0
112
0.0
122
1.0
132
0.0
 79
0
146
0.0
  0
ENDTAB
  0
TABLE
  2
LTYPE
  5
5
100
AcDbSymbolTable
 70
50
  0
LTYPE
  5
16
100
AcDbSymbolTableRecord
100
AcDbLinetypeTableRecord
  2
Continuous
 70
0
  3
Solid line
 72
65
 73
0
 40
0.0
  0
LTYPE
  5
31
100
AcDbSymbolTableRecord
100
AcDbLinetypeTableRecord
  2
DASHDOT
 70
0
  3
Dash dot __ . __ . __ . __ . __ . __ . __ . __
 72
65
 73
4
 40
25.400000000000002
 49
12.699999999999999
 74
0
 49
-6.2999999999999998
 74
0
 49
0.1
 74
0
 49
-6.2999999999999998
 74
0
  0
LTYPE
  5
32
100
AcDbSymbolTableRecord
100
AcDbLinetypeTableRecord
  2
DRAINAGE2
 70
0
  3
Drainage reversed----<----<----<----
 72
65
 73
1
 40
5.0800000000000001
 49
5.0800000000000001
 74
0
  0
LTYPE
  5
33
100
AcDbSymbolTableRecord
100
AcDbLinetypeTableRecord
  2
DIVIDE
 70
0
  3
Divide ____ . . ____ . . ____ . . ____ . . ____
 72
65
 73
6
 40
31.750000000000004
 49
12.699999999999999
 74
0
 49
-6.2999999999999998
 74
0
 49
0.1
 74
0
 49
-6.25
 74
0
 49
0.1
 74
0
 49
-6.2999999999999998
 74
0
  0
LTYPE
  5
34
100
AcDbSymbolTableRecord
100
AcDbLinetypeTableRecord
  2
ACAD_ISO06W100
 70
0
  3
ISO long-dash triple-dot ____ ... ____ ... ____
 72
65
 73
8
 40
36.000000000000007
 49
24.0
 74
0
 49
-2.9500000000000002
 74
0
 49
0.1
 74
0
 49
-2.9000000000000004
 74
0
 49
0.1
 74
0
 49
-2.9000000000000004
 74
0
 49
0.1
 74
0
 49
-2.9500000000000002
 74
0
  0
LTYPE
  5
35
100
AcDbSymbolTableRecord
100
AcDbLinetypeTableRecord
  2
GAS_LINE
 70
0
  3
Gas line ----GAS----GAS----GAS----GAS----GAS----GAS--
 72
65
 73
2
 40
17.780000000000001
 49
12.699999999999999
 74
0
 49
-5.0800000000000001
 74
0
  0
LTYPE
  5
36
100
AcDbSymbolTableRecord
100
AcDbLinetypeTableRecord
  2
DASHEDX2
 70
0
  3
Dashed (2x) ____  ____  ____  ____  ____  ___
 72
65
 73
2
 40
38.099999999999994
 49
25.399999999999999
 74
0
 49
-12.699999999999999
 74
0
  0
LTYPE
  5
37
100
AcDbSymbolTableRecord
100
AcDbLinetypeTableRecord
  2
DOT
 70
0
  3
Dot . . . . . . . . . . . . . . . . . . . . . . . .
 72
65
 73
2
 40
6.3499999999999996
 49
0.1
 74
0
 49
-6.25
 74
0
  0
LTYPE
  5
38
100
AcDbSymbolTableRecord
100
AcDbLinetypeTableRecord
  2
ACAD_ISO05W100
 70
0
  3
ISO long-dash double-dot ____ .. ____ .. ____ . 
 72
65
 73
6
 40
33.000000000000007
 49
24.0
 74
0
 49
-2.9500000000000002
 74
0
 49
0.1
 74
0
 49
-2.9000000000000004
 74
0
 49
0.1
 74
0
 49
-2.9500000000000002
 74
0
  0
LTYPE
  5
39
100
AcDbSymbolTableRecord
100
AcDbLinetypeTableRecord
  2
HIDDENX2
 70
0
  3
Hidden (2x) ____ ____ ____ ____ ____ ____ ____ 
 72
65
 73
2
 40
19.049999999999997
 49
12.699999999999999
 74
0
 49
-6.3499999999999996
 74
0
  0
LTYPE
  5
3A
100
AcDbSymbolTableRecord
100
AcDbLinetypeTableRecord
  2
DOT2
 70
0
  3
Dot (.5x) ........................................
 72
65
 73
2
 40
3.1749999999999998
 49
0.1
 74
0
 49
-3.0749999999999997
 74
0
  0
LTYPE
  5
3B
100
AcDbSymbolTableRecord
100
AcDbLinetypeTableRecord
  2
HOT_WATER_SUPPLY
 70
0
  3
Hot water supply ---- HW ---- HW ---- HW ----
 72
65
 73
2
 40
17.780000000000001
 49
12.699999999999999
 74
0
 49
-5.0800000000000001
 74
0
  0
LTYPE
  5
3C
100
AcDbSymbolTableRecord
100
AcDbLinetypeTableRecord
  2
ACAD_ISO07W100
 70
0
  3
ISO dot . . . . . . . . . . . . . . . . . . . . 
 72
65
 73
2
 40
3.0
 49
0.1
 74
0
 49
-2.8999999999999999
 74
0
  0
LTYPE
  5
3D
100
AcDbSymbolTableRecord
100
AcDbLinetypeTableRecord
  2
FENCELINE2
 70
0
  3
Fenceline square ----[]-----[]----[]-----[]----[]---
 72
65
 73
2
 40
8.8900000000000006
 49
6.3499999999999996
 74
0
 49
-2.54
 74
0
  0
LTYPE
  5
3E
100
AcDbSymbolTableRecord
100
AcDbLinetypeTableRecord
  2
ACAD_ISO03W100
 70
0
  3
ISO dash space __    __    __    __    __    __
 72
65
 73
2
 40
30.0
 49
12.0
 74
0
 49
-18.0
 74
0
  0
LTYPE
  5
3F
100
AcDbSymbolTableRecord
100
AcDbLinetypeTableRecord
  2
ACAD_ISO14W100
 70
0
  3
ISO dash triple-dot __ . . . __ . . . __ . . . _
 72
65
 73
8
 40
24.000000000000004
 49
12.0
 74
0
 49
-2.9500000000000002
 74
0
 49
0.1
 74
0
 49
-2.9000000000000004
 74
0
 49
0.1
 74
0
 49
-2.9000000000000004
 74
0
 49
0.1
 74
0
 49
-2.9500000000000002
 74
0
  0
LTYPE
  5
40
100
AcDbSymbolTableRecord
100
AcDbLinetypeTableRecord
  2
ACAD_ISO10W100
 70
0
  3
ISO dash dot __ . __ . __ . __ . __ . __ . __ . 
 72
65
 73
4
 40
18.0
 49
12.0
 74
0
 49
-2.9500000000000002
 74
0
 49
0.1
 74
0
 49
-2.9500000000000002
 74
0
  0
LTYPE
  5
41
100
AcDbSymbolTableRecord
100
AcDbLinetypeTableRecord
  2
DASHED
 70
0
  3
Dashed __ __ __ __ __ __ __ __ __ __ __ __ __ _
 72
65
 73
2
 40
19.049999999999997
 49
12.699999999999999
 74
0
 49
-6.3499999999999996
 74
0
  0
LTYPE
  5
42
100
AcDbSymbolTableRecord
100
AcDbLinetypeTableRecord
  2
HIDDEN2
 70
0
  3
Hidden (.5x) _ _ _ _ _ _ _ _ _ _ _ _ _ _ _ _ _ 
 72
65
 73
2
 40
4.7624999999999993
 49
3.1749999999999998
 74
0
 49
-1.5874999999999999
 74
0
  0
LTYPE
  5
43
100
AcDbSymbolTableRecord
100
AcDbLinetypeTableRecord
  2
BORDERX2
 70
0
  3
Border (2x) ____  ____  .  ____  ____  .  ___
 72
65
 73
6
 40
88.899999999999977
 49
25.399999999999999
 74
0
 49
-12.699999999999999
 74
0
 49
25.399999999999999
 74
0
 49
-12.649999999999999
 74
0
 49
0.1
 74
0
 49
-12.649999999999999
 74
0
  0
LTYPE
  5
44
100
AcDbSymbolTableRecord
100
AcDbLinetypeTableRecord
  2
ACAD_ISO08W100
 70
0
  3
ISO long-dash short-dash ____ __ ____ __ ____ _
 72
65
 73
4
 40
36.0
 49
24.0
 74
0
 49
-3.0
 74
0
 49
6.0
 74
0
 49
-3.0
 74
0
  0
LTYPE
  5
45
100
AcDbSymbolTableRecord
100
AcDbLinetypeTableRecord
  2
ACAD_ISO12W100
 70
0
  3
ISO dash double-dot __ . . __ . . __ . . __ . . 
 72
65
 73
6
 40
21.0
 49
12.0
 74
0
 49
-2.9500000000000002
 74
0
 49
0.1
 74
0
 49
-2.9000000000000004
 74
0
 49
0.1
 74
0
 49
-2.9500000000000002
 74
0
  0
LTYPE
  5
46
100
AcDbSymbolTableRecord
100
AcDbLinetypeTableRecord
  2
DOTX2
 70
0
  3
Dot (2x) .  .  .  .  .  .  .  .  .  .  .  .  .  .
 72
65
 73
2
 40
12.699999999999999
 49
0.1
 74
0
 49
-12.6
 74
0
  0
LTYPE
  5
47
100
AcDbSymbolTableRecord
100
AcDbLinetypeTableRecord
  2
CENTER
 70
0
  3
Center ____ _ ____ _ ____ _ ____ _ ____ _ ____
 72
65
 73
4
 40
50.800000000000004
 49
31.75
 74
0
 49
-6.3499999999999996
 74
0
 49
6.3499999999999996
 74
0
 49
-6.3499999999999996
 74
0
  0
LTYPE
  5
48
100
AcDbSymbolTableRecord
100
AcDbLinetypeTableRecord
  2
PHANTOM2
 70
0
  3
Phantom (.5x) ___ _ _ ___ _ _ ___ _ _ ___ _ _
 72
65
 73
6
 40
31.750000000000004
 49
15.875
 74
0
 49
-3.1749999999999998
 74
0
 49
3.1749999999999998
 74
0
 49
-3.1749999999999998
 74
0
 49
3.1749999999999998
 74
0
 49
-3.1749999999999998
 74
0
  0
LTYPE
  5
49
100
AcDbSymbolTableRecord
100
AcDbLinetypeTableRecord
  2
DIVIDE2
 70
0
  3
Divide (.5x) __..__..__..__..__..__..__..__.._
 72
65
 73
6
 40
15.874999999999998
 49
6.3499999999999996
 74
0
 49
-3.125
 74
0
 49
0.1
 74
0
 49
-3.0750000000000002
 74
0
 49
0.1
 74
0
 49
-3.125
 74
0
  0
LTYPE
  5
4A
100
AcDbSymbolTableRecord
100
AcDbLinetypeTableRecord
  2
ACAD_ISO15W100
 70
0
  3
ISO double-dash triple-dot __ __ . . . __ __ . .
 72
65
 73
10
 40
39.000000000000007
 49
12.0
 74
0
 49
-3.0
 74
0
 49
12.0
 74
0
 49
-2.9500000000000002
 74
0
 49
0.1
 74
0
 49
-2.9000000000000004
 74
0
 49
0.1
 74
0
 49
-2.9000000000000004
 74
0
 49
0.1
 74
0
 49
-2.9500000000000002
 74
0
  0
LTYPE
  5
4B
100
AcDbSymbolTableRecord
100
AcDbLinetypeTableRecord
  2
PHANTOM
 70
0
  3
Phantom ______  __  __  ______  __  __  ______ 
 72
65
 73
6
 40
63.500000000000007
 49
31.75
 74
0
 49
-6.3499999999999996
 74
0
 49
6.3499999999999996
 74
0
 49
-6.3499999999999996
 74
0
 49
6.3499999999999996
 74
0
 49
-6.3499999999999996
 74
0
  0
LTYPE
  5
4C
100
AcDbSymbolTableRecord
100
AcDbLinetypeTableRecord
  2
BORDER2
 70
0
  3
Border (.5x) __.__.__.__.__.__.__.__.__.__.__.
 72
65
 73
6
 40
22.225000000000001
 49
6.3499999999999996
 74
0
 49
-3.1749999999999998
 74
0
 49
6.3499999999999996
 74
0
 49
-3.125
 74
0
 49
0.1
 74
0
 49
-3.125
 74
0
  0
LTYPE
  5
4D
100
AcDbSymbolTableRecord
100
AcDbLinetypeTableRecord
  2
ACAD_ISO04W100
 70
0
  3
ISO long-dash dot ____ . ____ . ____ . ____ . _
 72
65
 73
4
 40
30.0
 49
24.0
 74
0
 49
-2.9500000000000002
 74
0
 49
0.1
 74
0
 49
-2.9500000000000002
 74
0
  0
LTYPE
  5
4E
100
AcDbSymbolTableRecord
100
AcDbLinetypeTableRecord
  2
ACAD_ISO13W100
 70
0
  3
ISO double-dash double-dot __ __ . . __ __ . . _
 72
65
 73
8
 40
36.000000000000007
 49
12.0
 74
0
 49
-3.0
 74
0
 49
12.0
 74
0
 49
-2.9500000000000002
 74
0
 49
0.1
 74
0
 49
-2.9000000000000004
 74
0
 49
0.1
 74
0
 49
-2.9500000000000002
 74
0
  0
LTYPE
  5
4F
100
AcDbSymbolTableRecord
100
AcDbLinetypeTableRecord
  2
DRAINAGE
 70
0
  3
Drainage ---->---->---->----
 72
65
 73
1
 40
5.0800000000000001
 49
5.0800000000000001
 74
0
  0
LTYPE
  5
50
100
AcDbSymbolTableRecord
100
AcDbLinetypeTableRecord
  2
DASHED2
 70
0
  3
Dashed (.5x) _ _ _ _ _ _ _ _ _ _ _ _ _ _ _ _ _ 
 72
65
 73
2
 40
9.5249999999999986
 49
6.3499999999999996
 74
0
 49
-3.1749999999999998
 74
0
  0
LTYPE
  5
14
100
AcDbSymbolTableRecord
100
AcDbLinetypeTableRecord
  2
ByBlock
 70
0
  3

 72
65
 73
0
 40
0.0
  0
LTYPE
  5
51
100
AcDbSymbolTableRecord
100
AcDbLinetypeTableRecord
  2
DASHDOT2
 70
0
  3
Dash dot (.5x) _._._._._._._._._._._._._._._.
 72
65
 73
4
 40
12.699999999999999
 49
6.3499999999999996
 74
0
 49
-3.125
 74
0
 49
0.1
 74
0
 49
-3.125
 74
0
  0
LTYPE
  5
15
100
AcDbSymbolTableRecord
100
AcDbLinetypeTableRecord
  2
ByLayer
 70
0
  3

 72
65
 73
0
 40
0.0
  0
LTYPE
  5
52
100
AcDbSymbolTableRecord
100
AcDbLinetypeTableRecord
  2
BORDER
 70
0
  3
Border __ __ . __ __ . __ __ . __ __ . __ __ .
 72
65
 73
6
 40
44.449999999999996
 49
12.699999999999999
 74
0
 49
-6.3499999999999996
 74
0
 49
12.699999999999999
 74
0
 49
-6.2999999999999998
 74
0
 49
0.1
 74
0
 49
-6.2999999999999998
 74
0
  0
LTYPE
  5
53
100
AcDbSymbolTableRecord
100
AcDbLinetypeTableRecord
  2
ACAD_ISO02W100
 70
0
  3
ISO dash __ __ __ __ __ __ __ __ __ __ __ __ __
 72
65
 73
2
 40
15.0
 49
12.0
 74
0
 49
-3.0
 74
0
  0
LTYPE
  5
54
100
AcDbSymbolTableRecord
100
AcDbLinetypeTableRecord
  2
TRACKS
 70
0
  3
Tracks -|-|-|-|-|-|-|-|-|-|-|-|-|-|-|-|-|-|-|-|-|-|-|-|-
 72
65
 73
1
 40
3.8100000000000001
 49
3.8100000000000001
 74
0
  0
LTYPE
  5
55
100
AcDbSymbolTableRecord
100
AcDbLinetypeTableRecord
  2
ACAD_ISO09W100
 70
0
  3
ISO long-dash double-short-dash ____ __ __ ____
 72
65
 73
6
 40
45.0
 49
24.0
 74
0
 49
-3.0
 74
0
 49
6.0
 74
0
 49
-3.0
 74
0
 49
6.0
 74
0
 49
-3.0
 74
0
  0
LTYPE
  5
56
100
AcDbSymbolTableRecord
100
AcDbLinetypeTableRecord
  2
PHANTOMX2
 70
0
  3
Phantom (2x) ____________    ____    ____   _
 72
65
 73
6
 40
127.00000000000001
 49
63.5
 74
0
 49
-12.699999999999999
 74
0
 49
12.699999999999999
 74
0
 49
-12.699999999999999
 74
0
 49
12.699999999999999
 74
0
 49
-12.699999999999999
 74
0
  0
LTYPE
  5
57
100
AcDbSymbolTableRecord
100
AcDbLinetypeTableRecord
  2
CENTER2
 70
0
  3
Center (.5x) ___ _ ___ _ ___ _ ___ _ ___ _ ___
 72
65
 73
4
 40
28.575000000000003
 49
19.050000000000001
 74
0
 49
-3.1749999999999998
 74
0
 49
3.1749999999999998
 74
0
 49
-3.1749999999999998
 74
0
  0
LTYPE
  5
58
100
AcDbSymbolTableRecord
100
AcDbLinetypeTableRecord
  2
ZIGZAG
 70
0
  3
Zig zag /\/\/\/\/\/\/\/\/\/\/\/\/\/\/\/\/\/\/\/\/\/\/\/
 72
65
 73
2
 40
5.0825399999999998
 49
0.00254
 74
0
 49
-5.0800000000000001
 74
0
  0
LTYPE
  5
59
100
AcDbSymbolTableRecord
100
AcDbLinetypeTableRecord
  2
DIVIDEX2
 70
0
  3
Divide (2x) ________  .  .  ________  .  .  _
 72
65
 73
6
 40
63.5
 49
25.399999999999999
 74
0
 49
-12.649999999999999
 74
0
 49
0.1
 74
0
 49
-12.599999999999998
 74
0
 49
0.1
 74
0
 49
-12.649999999999999
 74
0
  0
LTYPE
  5
5A
100
AcDbSymbolTableRecord
100
AcDbLinetypeTableRecord
  2
BATTING
 70
0
  3
Batting SSSSSSSSSSSSSSSSSSSSSSSSSSSSSSSSSSSSSSSSSSSSSSS
 72
65
 73
2
 40
2.5425400000000002
 49
0.00254
 74
0
 49
-2.54
 74
0
  0
LTYPE
  5
5B
100
AcDbSymbolTableRecord
100
AcDbLinetypeTableRecord
  2
ACAD_ISO11W100
 70
0
  3
ISO double-dash dot __ __ . __ __ . __ __ . __ _
 72
65
 73
6
 40
33.0
 49
12.0
 74
0
 49
-3.0
 74
0
 49
12.0
 74
0
 49
-2.9500000000000002
 74
0
 49
0.1
 74
0
 49
-2.9500000000000002
 74
0
  0
LTYPE
  5
5C
100
AcDbSymbolTableRecord
100
AcDbLinetypeTableRecord
  2
DASHDOTX2
 70
0
  3
Dash dot (2x) ____  .  ____  .  ____  .  ___
 72
65
 73
4
 40
50.799999999999997
 49
25.399999999999999
 74
0
 49
-12.649999999999999
 74
0
 49
0.1
 74
0
 49
-12.649999999999999
 74
0
  0
LTYPE
  5
5D
100
AcDbSymbolTableRecord
100
AcDbLinetypeTableRecord
  2
HIDDEN
 70
0
  3
Hidden __ __ __ __ __ __ __ __ __ __ __ __ __ __
 72
65
 73
2
 40
9.5249999999999986
 49
6.3499999999999996
 74
0
 49
-3.1749999999999998
 74
0
  0
LTYPE
  5
5E
100
AcDbSymbolTableRecord
100
AcDbLinetypeTableRecord
  2
FENCELINE1
 70
0
  3
Fenceline circle ----0-----0----0-----0----0-----0--
 72
65
 73
2
 40
8.8900000000000006
 49
6.3499999999999996
 74
0
 49
-2.54
 74
0
  0
LTYPE
  5
5F
100
AcDbSymbolTableRecord
100
AcDbLinetypeTableRecord
  2
CENTERX2
 70
0
  3
Center (2x) ________  __  ________  __  _____
 72
65
 73
4
 40
101.60000000000001
 49
63.5
 74
0
 49
-12.699999999999999
 74
0
 49
12.699999999999999
 74
0
 49
-12.699999999999999
 74
0
  0
ENDTAB
  0
TABLE
  2
LAYER
  5
2
100
AcDbSymbolTable
 70
5
  0
LAYER
  5
60
100
AcDbSymbolTableRecord
100
AcDbLayerTableRecord
  2
M3
 70
0
 62
3
420
65280
  6
Continuous
370
25
390
F
  0
LAYER
  5
61
100
AcDbSymbolTableRecord
100
AcDbLayerTableRecord
  2
znaceniB
 70
1
 62
5
420
255
  6
Continuous
370
25
390
F
  0
LAYER
  5
10
100
AcDbSymbolTableRecord
100
AcDbLayerTableRecord
  2
0
 70
0
 62
7
420
16777215
  6
Continuous
370
-3
390
F
  0
LAYER
  5
62
100
AcDbSymbolTableRecord
100
AcDbLayerTableRecord
  2
diry a zavity
 70
0
 62
5
420
255
  6
Continuous
370
25
390
F
  0
LAYER
  5
63
100
AcDbSymbolTableRecord
100
AcDbLayerTableRecord
  2
znaceniA
 70
1
 62
6
420
16711935
  6
Continuous
370
0
390
F
  0
ENDTAB
  0
TABLE
  2
STYLE
  5
3
100
AcDbSymbolTable
 70
14
  0
STYLE
  5
64
100
AcDbSymbolTableRecord
100
AcDbTextStyleTableRecord
  2
Standard
 70
0
 40
0.0
 41
1.0
 50
0.0
 71
0
 42
2.5
  3

  4

1001
ACAD
1000
txt
1071
0
  0
STYLE
  5
65
100
AcDbSymbolTableRecord
100
AcDbTextStyleTableRecord
  2
textstyle0
 70
0
 40
0.0
 41
1.0
 50
0.0
 71
0
 42
5.0
  3

  4

1001
ACAD
1000
standard
1071
0
  0
STYLE
  5
66
100
AcDbSymbolTableRecord
100
AcDbTextStyleTableRecord
  2
textstyle1
 70
0
 40
0.0
 41
1.0
 50
0.0
 71
0
 42
5.0
  3

  4

1001
ACAD
1000
standard
1071
0
  0
STYLE
  5
67
100
AcDbSymbolTableRecord
100
AcDbTextStyleTableRecord
  2
textstyle2
 70
0
 40
0.0
 41
1.0
 50
0.0
 71
0
 42
5.0
  3

  4

1001
ACAD
1000
standard
1071
0
  0
STYLE
  5
68
100
AcDbSymbolTableRecord
100
AcDbTextStyleTableRecord
  2
textstyle3
 70
0
 40
0.0
 41
1.0
 50
0.0
 71
0
 42
5.0
  3

  4

1001
ACAD
1000
standard
1071
0
  0
STYLE
  5
69
100
AcDbSymbolTableRecord
100
AcDbTextStyleTableRecord
  2
textstyle4
 70
0
 40
0.0
 41
1.0
 50
0.0
 71
0
 42
5.0
  3

  4

1001
ACAD
1000
standard
1071
0
  0
STYLE
  5
6A
100
AcDbSymbolTableRecord
100
AcDbTextStyleTableRecord
  2
textstyle5
 70
0
 40
0.0
 41
1.0
 50
0.0
 71
0
 42
0.18
  3

  4

1001
ACAD
1000
standard
1071
0
  0
STYLE
  5
6B
100
AcDbSymbolTableRecord
100
AcDbTextStyleTableRecord
  2
textstyle6
 70
0
 40
0.0
 41
1.0
 50
0.0
 71
0
 42
0.18
  3

  4

1001
ACAD
1000
standard
1071
0
  0
STYLE
  5
6C
100
AcDbSymbolTableRecord
100
AcDbTextStyleTableRecord
  2
textstyle7
 70
0
 40
0.0
 41
1.0
 50
0.0
 71
0
 42
0.18
  3

  4

1001
ACAD
1000
standard
1071
0
  0
STYLE
  5
6D
100
AcDbSymbolTableRecord
100
AcDbTextStyleTableRecord
  2
textstyle8
 70
0
 40
0.0
 41
1.0
 50
0.0
 71
0
 42
0.18
  3

  4

1001
ACAD
1000
standard
1071
0
  0
STYLE
  5
6E
100
AcDbSymbolTableRecord
100
AcDbTextStyleTableRecord
  2
textstyle9
 70
0
 40
0.0
 41
1.0
 50
0.0
 71
0
 42
5.0
  3

  4

1001
ACAD
1000
standard
1071
0
  0
STYLE
  5
6F
100
AcDbSymbolTableRecord
100
AcDbTextStyleTableRecord
  2
textstyle10
 70
0
 40
0.0
 41
1.0
 50
0.0
 71
0
 42
5.0
  3

  4

1001
ACAD
1000
standard
1071
0
  0
STYLE
  5
70
100
AcDbSymbolTableRecord
100
AcDbTextStyleTableRecord
  2
textstyle11
 70
0
 40
0.0
 41
1.0
 50
0.0
 71
0
 42
5.0
  3

  4

1001
ACAD
1000
standard
1071
0
  0
STYLE
  5
71
100
AcDbSymbolTableRecord
100
AcDbTextStyleTableRecord
  2
textstyle12
 70
0
 40
0.0
 41
1.0
 50
0.0
 71
0
 42
5.0
  3

  4

1001
ACAD
1000
standard
1071
0
  0
ENDTAB
  0
TABLE
  2
VIEW
  5
6
100
AcDbSymbolTable
 70
0
  0
ENDTAB
  0
TABLE
  2
UCS
  5
7
100
AcDbSymbolTable
 70
0
  0
ENDTAB
  0
TABLE
  2
APPID
  5
9
100
AcDbSymbolTable
 70
1
  0
APPID
  5
12
100
AcDbSymbolTableRecord
100
AcDbRegAppTableRecord
  2
ACAD
 70
0
  0
APPID
  5
72
100
AcDbSymbolTableRecord
100
AcDbRegAppTableRecord
  2
QCAD
 70
0
  0
ENDTAB
  0
TABLE
  2
DIMSTYLE
  5
A
100
AcDbSymbolTable
 70
1
100
AcDbDimStyleTable
 71
0
  0
DIMSTYLE
105
27
100
AcDbSymbolTableRecord
100
AcDbDimStyleTableRecord
  2
Standard
 41
0.18
 42
0.0625
 43
3.75
 44
0.18
 70
0
 73
0
 74
0
 77
1
 78
8
140
0.18
141
2.5
143
0.03937007874016
147
0.09
171
3
172
1
271
2
272
2
274
3
278
44
283
0
284
8
340
64
  0
ENDTAB
  0
TABLE
  2
BLOCK_RECORD
  5
1
100
AcDbSymbolTable
 70
1
  0
BLOCK_RECORD
  5
1F
100
AcDbSymbolTableRecord
100
AcDbBlockTableRecord
  2
*Model_Space
340
22
  0
BLOCK_RECORD
  5
1B
100
AcDbSymbolTableRecord
100
AcDbBlockTableRecord
  2
*Paper_Space
340
1E
  0
BLOCK_RECORD
  5
23
100
AcDbSymbolTableRecord
100
AcDbBlockTableRecord
  2
*Paper_Space0
340
26
  0
ENDTAB
  0
ENDSEC
  0
SECTION
  2
BLOCKS
  0
BLOCK
  5
20
100
AcDbEntity
  8
0
100
AcDbBlockBegin
  2
*Model_Space
 70
0
 10
0.0
 20
0.0
 30
0.0
  3
*Model_Space
  1

  0
ENDBLK
  5
21
100
AcDbEntity
  8
0
100
AcDbBlockEnd
  0
BLOCK
  5
1C
100
AcDbEntity
 67
1
  8
0
100
AcDbBlockBegin
  2
*Paper_Space
 70
0
 10
0.0
 20
0.0
 30
0.0
  3
*Paper_Space
  1

  0
ENDBLK
  5
1D
100
AcDbEntity
 67
1
  8
0
100
AcDbBlockEnd
  0
BLOCK
  5
24
100
AcDbEntity
  8
0
100
AcDbBlockBegin
  2
*Paper_Space0
 70
0
 10
0.0
 20
0.0
 30
0.0
  3
*Paper_Space0
  1

  0
ENDBLK
  5
25
100
AcDbEntity
  8
0
100
AcDbBlockEnd
  0
ENDSEC
  0
SECTION
  2
ENTITIES
  0
LINE
  5
73
100
AcDbEntity
  8
0
 62
256
370
-1
 48
1.0
  6
ByLayer
100
AcDbLine
 10
161.99999999999989
 20
177.0229678199708
 30
0.0
 11
141.97703218002911
 21
157.0
 31
0.0
  0
LINE
  5
74
100
AcDbEntity
  8
0
 62
256
370
-1
 48
1.0
  6
ByLayer
100
AcDbLine
 10
141.97703218002911
 20
157.0
 30
0.0
 11
124.99997000689319
 21
157.0
 31
0.0
  0
LINE
  5
75
100
AcDbEntity
  8
0
 62
256
370
-1
 48
1.0
  6
ByLayer
100
AcDbLine
 10
124.99997000689319
 20
157.0
 30
0.0
 11
101.4999999999999
 21
180.5
 31
0.0
  0
LINE
  5
76
100
AcDbEntity
  8
0
 62
256
370
-1
 48
1.0
  6
ByLayer
100
AcDbLine
 10
101.4999999999999
 20
189.5
 30
0.0
 11
124.99997000689319
 21
213.0
 31
0.0
  0
LINE
  5
77
100
AcDbEntity
  8
0
 62
256
370
-1
 48
1.0
  6
ByLayer
100
AcDbLine
 10
124.99997000689319
 20
213.0
 30
0.0
 11
141.97703218002911
 21
213.0
 31
0.0
  0
LINE
  5
78
100
AcDbEntity
  8
0
 62
256
370
-1
 48
1.0
  6
ByLayer
100
AcDbLine
 10
141.97703218002911
 20
213.0
 30
0.0
 11
161.99999999999989
 21
192.97703218002931
 31
0.0
  0
LINE
  5
79
100
AcDbEntity
  8
0
 62
256
370
-1
 48
1.0
  6
ByLayer
100
AcDbLine
 10
251.49999999999989
 20
210.01470900000001
 30
0.0
 11
240.98528999999979
 21
220.529449
 31
0.0
  0
LINE
  5
7A
100
AcDbEntity
  8
0
 62
256
370
-1
 48
1.0
  6
ByLayer
100
AcDbLine
 10
240.98528999999979
 20
220.529449
 30
0.0
 11
224.0147089999999
 21
220.529449
 31
0.0
  0
LINE
  5
7B
100
AcDbEntity
  8
0
 62
256
370
-1
 48
1.0
  6
ByLayer
100
AcDbLine
 10
224.0147089999999
 20
220.529449
 30
0.0
 11
196.99999999999989
 21
193.51473999999999
 31
0.0
  0
LINE
  5
7C
100
AcDbEntity
  8
0
 62
256
370
-1
 48
1.0
  6
ByLayer
100
AcDbLine
 10
196.99999999999989
 20
176.48526000000001
 30
0.0
 11
224.0147089999999
 21
149.470551
 31
0.0
  0
LINE
  5
7D
100
AcDbEntity
  8
0
 62
256
370
-1
 48
1.0
  6
ByLayer
100
AcDbLine
 10
224.0147089999999
 20
149.470551
 30
0.0
 11
240.98528999999979
 21
149.470551
 31
0.0
  0
LINE
  5
7E
100
AcDbEntity
  8
0
 62
256
370
-1
 48
1.0
  6
ByLayer
100
AcDbLine
 10
240.98528999999979
 20
149.470551
 30
0.0
 11
251.49999999999989
 21
159.9852909999999
 31
0.0
  0
LINE
  5
7F
100
AcDbEntity
  8
0
 62
256
370
-1
 48
1.0
  6
ByLayer
100
AcDbLine
 10
184.40011600000011
 20
296.0
 30
0.0
 11
225.400116
 21
255.0
 31
0.0
  0
LINE
  5
80
100
AcDbEntity
  8
0
 62
256
370
-1
 48
1.0
  6
ByLayer
100
AcDbLine
 10
225.400116
 20
255.0
 30
0.0
 11
241.51471862576139
 21
255.0
 31
0.0
  0
LINE
  5
81
100
AcDbEntity
  8
0
 62
256
370
-1
 48
1.0
  6
ByLayer
100
AcDbLine
 10
241.51471862576139
 20
255.0
 30
0.0
 11
282.51471862576142
 21
296.0
 31
0.0
  0
LINE
  5
82
100
AcDbEntity
  8
0
 62
256
370
-1
 48
1.0
  6
ByLayer
100
AcDbLine
 10
282.51471862576142
 20
296.0
 30
0.0
 11
287.48516977682891
 21
296.0
 31
0.0
  0
LINE
  5
83
100
AcDbEntity
  8
0
 62
256
370
-1
 48
1.0
  6
ByLayer
100
AcDbLine
 10
287.48516977682891
 20
296.0
 30
0.0
 11
290.99999999999977
 21
292.48516977682908
 31
0.0
  0
LINE
  5
84
100
AcDbEntity
  8
0
 62
256
370
-1
 48
1.0
  6
ByLayer
100
AcDbLine
 10
290.99999999999977
 20
292.48516977682908
 30
0.0
 11
291.0
 21
287.51471862576108
 31
0.0
  0
LINE
  5
85
100
AcDbEntity
  8
0
 62
256
370
-1
 48
1.0
  6
ByLayer
100
AcDbLine
 10
291.0
 20
287.51471862576108
 30
0.0
 11
252.99999999999989
 21
249.51471862576139
 31
0.0
  0
LINE
  5
86
100
AcDbEntity
  8
0
 62
256
370
-1
 48
1.0
  6
ByLayer
100
AcDbLine
 10
252.99999999999989
 20
249.51471862576139
 30
0.0
 11
252.99999999999989
 21
226.66696100000021
 31
0.0
  0
LINE
  5
87
100
AcDbEntity
  8
0
 62
256
370
-1
 48
1.0
  6
ByLayer
100
AcDbLine
 10
252.99999999999989
 20
226.66696100000021
 30
0.0
 11
291.0
 21
188.66696099999999
 31
0.0
  0
LINE
  5
88
100
AcDbEntity
  8
0
 62
256
370
-1
 48
1.0
  6
ByLayer
100
AcDbLine
 10
291.0
 20
188.66696099999999
 30
0.0
 11
291.0
 21
181.33303900000001
 31
0.0
  0
LINE
  5
89
100
AcDbEntity
  8
0
 62
256
370
-1
 48
1.0
  6
ByLayer
100
AcDbLine
 10
291.0
 20
181.33303900000001
 30
0.0
 11
252.99999999999989
 21
143.33303899999979
 31
0.0
  0
LINE
  5
8A
100
AcDbEntity
  8
0
 62
256
370
-1
 48
1.0
  6
ByLayer
100
AcDbLine
 10
252.99999999999989
 20
143.33303899999979
 30
0.0
 11
252.99999999999989
 21
120.4852813742385
 31
0.0
  0
LINE
  5
8B
100
AcDbEntity
  8
0
 62
256
370
-1
 48
1.0
  6
ByLayer
100
AcDbLine
 10
252.99999999999989
 20
120.4852813742385
 30
0.0
 11
291.0
 21
82.48528137423861
 31
0.0
  0
LINE
  5
8C
100
AcDbEntity
  8
0
 62
256
370
-1
 48
1.0
  6
ByLayer
100
AcDbLine
 10
291.0
 20
82.48528137423861
 30
0.0
 11
290.99999999999977
 21
77.514830223170804
 31
0.0
  0
LINE
  5
8D
100
AcDbEntity
  8
0
 62
256
370
-1
 48
1.0
  6
ByLayer
100
AcDbLine
 10
290.99999999999977
 20
77.514830223170804
 30
0.0
 11
287.48516977682891
 21
74.000000000000028
 31
0.0
  0
LINE
  5
8E
100
AcDbEntity
  8
0
 62
256
370
-1
 48
1.0
  6
ByLayer
100
AcDbLine
 10
287.48516977682891
 20
74.000000000000028
 30
0.0
 11
282.51471862576142
 21
74.000000000000014
 31
0.0
  0
LINE
  5
8F
100
AcDbEntity
  8
0
 62
256
370
-1
 48
1.0
  6
ByLayer
100
AcDbLine
 10
282.51471862576142
 20
74.000000000000014
 30
0.0
 11
241.51471862576139
 21
115.0
 31
0.0
  0
LINE
  5
90
100
AcDbEntity
  8
0
 62
256
370
-1
 48
1.0
  6
ByLayer
100
AcDbLine
 10
241.51471862576139
 20
115.0
 30
0.0
 11
225.400116
 21
115.0
 31
0.0
  0
LINE
  5
91
100
AcDbEntity
  8
0
 62
256
370
-1
 48
1.0
  6
ByLayer
100
AcDbLine
 10
225.400116
 20
115.0
 30
0.0
 11
184.40011600000011
 21
74.000000000000028
 31
0.0
  0
LINE
  5
92
100
AcDbEntity
  8
0
 62
256
370
-1
 48
1.0
  6
ByLayer
100
AcDbLine
 10
184.40011600000011
 20
74.000000000000028
 30
0.0
 11
175.59988399999989
 21
74.000000000000043
 31
0.0
  0
LINE
  5
93
100
AcDbEntity
  8
0
 62
256
370
-1
 48
1.0
  6
ByLayer
100
AcDbLine
 10
175.59988399999989
 20
74.000000000000043
 30
0.0
 11
134.59988399999969
 21
115.0
 31
0.0
  0
LINE
  5
94
100
AcDbEntity
  8
0
 62
256
370
-1
 48
1.0
  6
ByLayer
100
AcDbLine
 10
134.59988399999969
 20
115.0
 30
0.0
 11
113.4852813742385
 21
115.0000000000001
 31
0.0
  0
LINE
  5
95
100
AcDbEntity
  8
0
 62
256
370
-1
 48
1.0
  6
ByLayer
100
AcDbLine
 10
113.4852813742385
 20
115.0000000000001
 30
0.0
 11
72.48528137423844
 21
74.0
 31
0.0
  0
LINE
  5
96
100
AcDbEntity
  8
0
 62
256
370
-1
 48
1.0
  6
ByLayer
100
AcDbLine
 10
72.48528137423844
 20
74.0
 30
0.0
 11
67.514830223170748
 21
74.000000000000014
 31
0.0
  0
LINE
  5
97
100
AcDbEntity
  8
0
 62
256
370
-1
 48
1.0
  6
ByLayer
100
AcDbLine
 10
67.514830223170748
 20
74.000000000000014
 30
0.0
 11
63.999999999999972
 21
77.514830223170804
 31
0.0
  0
LINE
  5
98
100
AcDbEntity
  8
0
 62
256
370
-1
 48
1.0
  6
ByLayer
100
AcDbLine
 10
63.999999999999972
 20
77.514830223170804
 30
0.0
 11
63.999999999999773
 21
82.485281374238582
 31
0.0
  0
LINE
  5
99
100
AcDbEntity
  8
0
 62
256
370
-1
 48
1.0
  6
ByLayer
100
AcDbLine
 10
63.999999999999773
 20
82.485281374238582
 30
0.0
 11
90.999999999999829
 21
109.4852813742386
 31
0.0
  0
LINE
  5
9A
100
AcDbEntity
  8
0
 62
256
370
-1
 48
1.0
  6
ByLayer
100
AcDbLine
 10
90.999999999999829
 20
109.4852813742386
 30
0.0
 11
90.999999999999886
 21
123.0
 31
0.0
  0
LINE
  5
9B
100
AcDbEntity
  8
0
 62
256
370
-1
 48
1.0
  6
ByLayer
100
AcDbLine
 10
90.999999999999886
 20
123.0
 30
0.0
 11
81.499999999999858
 21
132.5000000000004
 31
0.0
  0
LINE
  5
9C
100
AcDbEntity
  8
0
 62
256
370
-1
 48
1.0
  6
ByLayer
100
AcDbLine
 10
81.499999999999858
 20
132.5000000000004
 30
0.0
 11
81.499999999999915
 21
163.760895
 31
0.0
  0
LINE
  5
9D
100
AcDbEntity
  8
0
 62
256
370
-1
 48
1.0
  6
ByLayer
100
AcDbLine
 10
81.499999999999915
 20
163.760895
 30
0.0
 11
63.999999999996447
 21
181.26089500000339
 31
0.0
  0
LINE
  5
9E
100
AcDbEntity
  8
0
 62
256
370
-1
 48
1.0
  6
ByLayer
100
AcDbLine
 10
63.999999999996447
 20
188.7391049999965
 30
0.0
 11
81.499999999999915
 21
206.239105
 31
0.0
  0
LINE
  5
9F
100
AcDbEntity
  8
0
 62
256
370
-1
 48
1.0
  6
ByLayer
100
AcDbLine
 10
81.499999999999915
 20
206.239105
 30
0.0
 11
81.499999999999858
 21
237.5
 31
0.0
  0
LINE
  5
A0
100
AcDbEntity
  8
0
 62
256
370
-1
 48
1.0
  6
ByLayer
100
AcDbLine
 10
81.499999999999858
 20
237.5
 30
0.0
 11
90.999999999999886
 21
247.00000000000011
 31
0.0
  0
LINE
  5
A1
100
AcDbEntity
  8
0
 62
256
370
-1
 48
1.0
  6
ByLayer
100
AcDbLine
 10
90.999999999999886
 20
247.00000000000011
 30
0.0
 11
90.999999999999829
 21
260.51471862576142
 31
0.0
  0
LINE
  5
A2
100
AcDbEntity
  8
0
 62
256
370
-1
 48
1.0
  6
ByLayer
100
AcDbLine
 10
90.999999999999829
 20
260.51471862576142
 30
0.0
 11
63.999999999999773
 21
287.51471862576142
 31
0.0
  0
LINE
  5
A3
100
AcDbEntity
  8
0
 62
256
370
-1
 48
1.0
  6
ByLayer
100
AcDbLine
 10
63.999999999999773
 20
287.51471862576142
 30
0.0
 11
63.999999999999851
 21
292.48516977682908
 31
0.0
  0
LINE
  5
A4
100
AcDbEntity
  8
0
 62
256
370
-1
 48
1.0
  6
ByLayer
100
AcDbLine
 10
63.999999999999851
 20
292.48516977682908
 30
0.0
 11
67.514830223170748
 21
296.0
 31
0.0
  0
LINE
  5
A5
100
AcDbEntity
  8
0
 62
256
370
-1
 48
1.0
  6
ByLayer
100
AcDbLine
 10
67.514830223170748
 20
296.0
 30
0.0
 11
72.48528137423844
 21
296.0
 31
0.0
  0
LINE
  5
A6
100
AcDbEntity
  8
0
 62
256
370
-1
 48
1.0
  6
ByLayer
100
AcDbLine
 10
72.48528137423844
 20
296.0
 30
0.0
 11
113.4852813742385
 21
255.0
 31
0.0
  0
LINE
  5
A7
100
AcDbEntity
  8
0
 62
256
370
-1
 48
1.0
  6
ByLayer
100
AcDbLine
 10
113.4852813742385
 20
255.0
 30
0.0
 11
134.59988399999969
 21
255.0
 31
0.0
  0
LINE
  5
A8
100
AcDbEntity
  8
0
 62
256
370
-1
 48
1.0
  6
ByLayer
100
AcDbLine
 10
134.59988399999969
 20
255.0
 30
0.0
 11
175.59988399999989
 21
295.99999999999989
 31
0.0
  0
LINE
  5
A9
100
AcDbEntity
  8
0
 62
256
370
-1
 48
1.0
  6
ByLayer
100
AcDbLine
 10
175.59988399999989
 20
295.99999999999989
 30
0.0
 11
184.40011600000011
 21
296.0
 31
0.0
  0
LINE
  5
AA
100
AcDbEntity
  8
0
 62
256
370
-1
 48
1.0
  6
ByLayer
100
AcDbLine
 10
142.99999999999989
 20
246.41577099999989
 30
0.0
 11
142.99999999999989
 21
229.56631400000001
 31
0.0
  0
LINE
  5
AB
100
AcDbEntity
  8
0
 62
256
370
-1
 48
1.0
  6
ByLayer
100
AcDbLine
 10
142.99999999999989
 20
229.56631400000001
 30
0.0
 11
159.56631399999969
 21
213.0
 31
0.0
  0
LINE
  5
AC
100
AcDbEntity
  8
0
 62
256
370
-1
 48
1.0
  6
ByLayer
100
AcDbLine
 10
159.56631399999969
 20
213.0
 30
0.0
 11
199.51473999999979
 21
213.0
 31
0.0
  0
LINE
  5
AD
100
AcDbEntity
  8
0
 62
256
370
-1
 48
1.0
  6
ByLayer
100
AcDbLine
 10
199.51473999999979
 20
213.0
 30
0.0
 11
215.99999999999989
 21
229.48526000000001
 31
0.0
  0
LINE
  5
AE
100
AcDbEntity
  8
0
 62
256
370
-1
 48
1.0
  6
ByLayer
100
AcDbLine
 10
215.99999999999989
 20
229.48526000000001
 30
0.0
 11
215.99999999999969
 21
247.42958011577031
 31
0.0
  0
LINE
  5
AF
100
AcDbEntity
  8
0
 62
256
370
-1
 48
1.0
  6
ByLayer
100
AcDbLine
 10
215.99999999999989
 20
247.42958011577039
 30
0.0
 11
183.68261699999999
 21
279.74696311577009
 31
0.0
  0
LINE
  5
B0
100
AcDbEntity
  8
0
 62
256
370
-1
 48
1.0
  6
ByLayer
100
AcDbLine
 10
183.68261699999999
 20
279.74696311577009
 30
0.0
 11
176.31738299999969
 21
279.73315399999979
 31
0.0
  0
LINE
  5
B1
100
AcDbEntity
  8
0
 62
256
370
-1
 48
1.0
  6
ByLayer
100
AcDbLine
 10
176.31738299999969
 20
279.73315399999979
 30
0.0
 11
142.99999999999989
 21
246.41577099999989
 31
0.0
  0
LINE
  5
B2
100
AcDbEntity
  8
0
 62
256
370
-1
 48
1.0
  6
ByLayer
100
AcDbLine
 10
142.99999999999989
 20
123.58422900000009
 30
0.0
 11
142.99999999999989
 21
140.43368599999999
 31
0.0
  0
LINE
  5
B3
100
AcDbEntity
  8
0
 62
256
370
-1
 48
1.0
  6
ByLayer
100
AcDbLine
 10
142.99999999999989
 20
140.43368599999999
 30
0.0
 11
159.56631399999969
 21
157.0
 31
0.0
  0
LINE
  5
B4
100
AcDbEntity
  8
0
 62
256
370
-1
 48
1.0
  6
ByLayer
100
AcDbLine
 10
159.56631399999969
 20
157.0
 30
0.0
 11
199.51473999999979
 21
157.0
 31
0.0
  0
LINE
  5
B5
100
AcDbEntity
  8
0
 62
256
370
-1
 48
1.0
  6
ByLayer
100
AcDbLine
 10
199.51473999999979
 20
157.0
 30
0.0
 11
215.99999999999989
 21
140.51473999999999
 31
0.0
  0
LINE
  5
B6
100
AcDbEntity
  8
0
 62
256
370
-1
 48
1.0
  6
ByLayer
100
AcDbLine
 10
215.99999999999989
 20
140.51473999999999
 30
0.0
 11
215.99999999999969
 21
122.57041988422969
 31
0.0
  0
LINE
  5
B7
100
AcDbEntity
  8
0
 62
256
370
-1
 48
1.0
  6
ByLayer
100
AcDbLine
 10
215.99999999999989
 20
122.57041988422959
 30
0.0
 11
183.68261699999999
 21
90.253036884229886
 31
0.0
  0
LINE
  5
B8
100
AcDbEntity
  8
0
 62
256
370
-1
 48
1.0
  6
ByLayer
100
AcDbLine
 10
183.68261699999999
 20
90.253036884229886
 30
0.0
 11
176.31738299999969
 21
90.2668460000002
 31
0.0
  0
LINE
  5
B9
100
AcDbEntity
  8
0
 62
256
370
-1
 48
1.0
  6
ByLayer
100
AcDbLine
 10
176.31738299999969
 20
90.2668460000002
 30
0.0
 11
142.99999999999989
 21
123.58422900000009
 31
0.0
  0
LINE
  5
BA
100
AcDbEntity
  8
0
 62
256
370
-1
 48
1.0
  6
ByLayer
100
AcDbLine
 10
101.5000000130898
 20
226.75
 30
0.0
 11
101.5000000130898
 21
213.25
 31
0.0
  0
LINE
  5
BB
100
AcDbEntity
  8
0
 62
256
370
-1
 48
1.0
  6
ByLayer
100
AcDbLine
 10
271.50000001308979
 20
191.75
 30
0.0
 11
271.50000001308979
 21
178.25
 31
0.0
  0
LINE
  5
BC
100
AcDbEntity
  8
0
 62
256
370
-1
 48
1.0
  6
ByLayer
100
AcDbLine
 10
101.5000000130898
 20
156.75
 30
0.0
 11
101.5000000130898
 21
143.25
 31
0.0
  0
LINE
  5
BD
100
AcDbEntity
  8
0
 62
256
370
-1
 48
1.0
  6
ByLayer
100
AcDbLine
 10
91.49999998690987
 20
226.75
 30
0.0
 11
91.499999986909884
 21
213.25
 31
0.0
  0
LINE
  5
BE
100
AcDbEntity
  8
0
 62
256
370
-1
 48
1.0
  6
ByLayer
100
AcDbLine
 10
261.49999998690993
 20
191.75
 30
0.0
 11
261.49999998690993
 21
178.25
 31
0.0
  0
LINE
  5
BF
100
AcDbEntity
  8
0
 62
256
370
-1
 48
1.0
  6
ByLayer
100
AcDbLine
 10
91.49999998690987
 20
156.75
 30
0.0
 11
91.499999986909884
 21
143.25
 31
0.0
  0
ARC
  5
C0
100
AcDbEntity
  8
0
 62
256
370
-1
 48
1.0
  6
ByLayer
100
AcDbCircle
 10
102.09999999999989
 20
209.75
 30
0.0
 40
3.0
100
AcDbArc
 50
270.00000299999982
 51
89.999996999999951
  0
ARC
  5
C1
100
AcDbEntity
  8
0
 62
256
370
-1
 48
1.0
  6
ByLayer
100
AcDbCircle
 10
272.09999999999991
 20
174.75
 30
0.0
 40
3.0
100
AcDbArc
 50
270.00000299999982
 51
89.999996999999951
  0
ARC
  5
C2
100
AcDbEntity
  8
0
 62
256
370
-1
 48
1.0
  6
ByLayer
100
AcDbCircle
 10
102.09999999999989
 20
139.75
 30
0.0
 40
3.0
100
AcDbArc
 50
270.00000299999982
 51
89.999996999999951
  0
ARC
  5
C3
100
AcDbEntity
  8
0
 62
256
370
-1
 48
1.0
  6
ByLayer
100
AcDbCircle
 10
90.899999999999864
 20
139.75
 30
0.0
 40
3.0
100
AcDbArc
 50
90.000003000000063
 51
269.99999700000018
  0
ARC
  5
C4
100
AcDbEntity
  8
0
 62
256
370
-1
 48
1.0
  6
ByLayer
100
AcDbCircle
 10
90.899999999999864
 20
209.75
 30
0.0
 40
3.0
100
AcDbArc
 50
90.000003000000063
 51
269.99999700000018
  0
ARC
  5
C5
100
AcDbEntity
  8
0
 62
256
370
-1
 48
1.0
  6
ByLayer
100
AcDbCircle
 10
260.89999999999992
 20
174.75
 30
0.0
 40
3.0
100
AcDbArc
 50
90.000003000000063
 51
269.99999700000018
  0
ARC
  5
C6
100
AcDbEntity
  8
0
 62
256
370
-1
 48
1.0
  6
ByLayer
100
AcDbCircle
 10
102.09999999999989
 20
160.25
 30
0.0
 40
3.0
100
AcDbArc
 50
270.00000299999982
 51
89.999996999999951
  0
ARC
  5
C7
100
AcDbEntity
  8
0
 62
256
370
-1
 48
1.0
  6
ByLayer
100
AcDbCircle
 10
102.09999999999989
 20
230.25
 30
0.0
 40
3.0
100
AcDbArc
 50
270.00000299999982
 51
89.999996999999951
  0
ARC
  5
C8
100
AcDbEntity
  8
0
 62
256
370
-1
 48
1.0
  6
ByLayer
100
AcDbCircle
 10
272.09999999999991
 20
195.25
 30
0.0
 40
3.0
100
AcDbArc
 50
270.00000299999982
 51
89.999996999999951
  0
ARC
  5
C9
100
AcDbEntity
  8
0
 62
256
370
-1
 48
1.0
  6
ByLayer
100
AcDbCircle
 10
90.899999999999849
 20
160.25
 30
0.0
 40
3.0
100
AcDbArc
 50
90.000003000000063
 51
269.99999700000018
  0
ARC
  5
CA
100
AcDbEntity
  8
0
 62
256
370
-1
 48
1.0
  6
ByLayer
100
AcDbCircle
 10
260.89999999999992
 20
195.25
 30
0.0
 40
3.0
100
AcDbArc
 50
90.000003000000063
 51
269.99999700000018
  0
ARC
  5
CB
100
AcDbEntity
  8
0
 62
256
370
-1
 48
1.0
  6
ByLayer
100
AcDbCircle
 10
90.899999999999849
 20
230.25
 30
0.0
 40
3.0
100
AcDbArc
 50
90.000003000000063
 51
269.99999700000018
  0
CIRCLE
  5
CC
100
AcDbEntity
  8
0
 62
256
370
-1
 48
1.0
  6
ByLayer
100
AcDbCircle
 10
318.59999999999991
 20
4.9000000000000057
 30
0.0
 40
2.5499999999999998
  0
CIRCLE
  5
CD
100
AcDbEntity
  8
0
 62
256
370
-1
 48
1.0
  6
ByLayer
100
AcDbCircle
 10
318.59999999999991
 20
28.100000000000001
 30
0.0
 40
2.5499999999999998
  0
CIRCLE
  5
CE
100
AcDbEntity
  8
0
 62
256
370
-1
 48
1.0
  6
ByLayer
100
AcDbCircle
 10
295.39999999999992
 20
28.100000000000001
 30
0.0
 40
2.5499999999999998
  0
CIRCLE
  5
CF
100
AcDbEntity
  8
0
 62
256
370
-1
 48
1.0
  6
ByLayer
100
AcDbCircle
 10
295.39999999999992
 20
4.9000000000000057
 30
0.0
 40
2.5499999999999998
  0
CIRCLE
  5
D0
100
AcDbEntity
  8
0
 62
256
370
-1
 48
1.0
  6
ByLayer
100
AcDbCircle
 10
281.59999999999991
 20
4.9000000000000057
 30
0.0
 40
2.5499999999999998
  0
CIRCLE
  5
D1
100
AcDbEntity
  8
0
 62
256
370
-1
 48
1.0
  6
ByLayer
100
AcDbCircle
 10
258.39999999999992
 20
4.9000000000000057
 30
0.0
 40
2.5499999999999998
  0
CIRCLE
  5
D2
100
AcDbEntity
  8
0
 62
256
370
-1
 48
1.0
  6
ByLayer
100
AcDbCircle
 10
258.39999999999992
 20
28.100000000000001
 30
0.0
 40
2.5499999999999998
  0
CIRCLE
  5
D3
100
AcDbEntity
  8
0
 62
256
370
-1
 48
1.0
  6
ByLayer
100
AcDbCircle
 10
281.59999999999991
 20
28.100000000000001
 30
0.0
 40
2.5499999999999998
  0
CIRCLE
  5
D4
100
AcDbEntity
  8
0
 62
256
370
-1
 48
1.0
  6
ByLayer
100
AcDbCircle
 10
111.59999999999989
 20
4.9000000000000057
 30
0.0
 40
2.5499999999999998
  0
CIRCLE
  5
D5
100
AcDbEntity
  8
0
 62
256
370
-1
 48
1.0
  6
ByLayer
100
AcDbCircle
 10
111.59999999999989
 20
28.100000000000001
 30
0.0
 40
2.5499999999999998
  0
CIRCLE
  5
D6
100
AcDbEntity
  8
0
 62
256
370
-1
 48
1.0
  6
ByLayer
100
AcDbCircle
 10
88.399999999999864
 20
28.100000000000001
 30
0.0
 40
2.5499999999999998
  0
CIRCLE
  5
D7
100
AcDbEntity
  8
0
 62
256
370
-1
 48
1.0
  6
ByLayer
100
AcDbCircle
 10
88.399999999999864
 20
4.9000000000000057
 30
0.0
 40
2.5499999999999998
  0
CIRCLE
  5
D8
100
AcDbEntity
  8
0
 62
256
370
-1
 48
1.0
  6
ByLayer
100
AcDbCircle
 10
74.599999999999852
 20
4.9000000000000057
 30
0.0
 40
2.5499999999999998
  0
CIRCLE
  5
D9
100
AcDbEntity
  8
0
 62
256
370
-1
 48
1.0
  6
ByLayer
100
AcDbCircle
 10
74.599999999999852
 20
28.100000000000001
 30
0.0
 40
2.5499999999999998
  0
CIRCLE
  5
DA
100
AcDbEntity
  8
0
 62
256
370
-1
 48
1.0
  6
ByLayer
100
AcDbCircle
 10
51.399999999999856
 20
28.100000000000001
 30
0.0
 40
2.5499999999999998
  0
CIRCLE
  5
DB
100
AcDbEntity
  8
0
 62
256
370
-1
 48
1.0
  6
ByLayer
100
AcDbCircle
 10
51.399999999999856
 20
4.9000000000000057
 30
0.0
 40
2.5499999999999998
  0
LINE
  5
DC
100
AcDbEntity
  8
diry a zavity
 62
256
370
-1
 48
1.0
  6
ByLayer
100
AcDbLine
 10
344.99999999999989
 20
92.999999999999872
 30
0.0
 11
335.36440149381639
 21
88.833305722547038
 31
0.0
  0
LINE
  5
DD
100
AcDbEntity
  8
diry a zavity
 62
256
370
-1
 48
1.0
  6
ByLayer
100
AcDbLine
 10
344.99999999999989
 20
212.99999999999989
 30
0.0
 11
344.99999999999989
 21
92.999999999999872
 31
0.0
  0
LINE
  5
DE
100
AcDbEntity
  8
diry a zavity
 62
256
370
-1
 48
1.0
  6
ByLayer
100
AcDbLine
 10
344.99999999999989
 20
212.99999999999989
 30
0.0
 11
335.16385278102041
 21
206.19463444305649
 31
0.0
  0
LINE
  5
DF
100
AcDbEntity
  8
diry a zavity
 62
256
370
-1
 48
1.0
  6
ByLayer
100
AcDbLine
 10
414.99999999999989
 20
212.99999999999989
 30
0.0
 11
344.99999999999989
 21
212.99999999999989
 31
0.0
  0
MTEXT
  5
E0
100
AcDbEntity
  8
diry a zavity
 62
256
370
-1
 48
1.0
  6
ByLayer
100
AcDbMText
 10
388.50045171659451
 20
219.5470644577189
 30
0.0
 40
5.0
 41
27.74096385542169
 71
1
 72
1
  1
\fHelvetica;4.2 mm
  7
textstyle0
 50
0.0
 73
1
 44
0.9638554216867471
  0
MTEXT
  5
E1
100
AcDbEntity
  8
diry a zavity
 62
256
370
-1
 48
1.0
  6
ByLayer
100
AcDbMText
 10
19.780055187955629
 20
-30.477113708760498
 30
0.0
 40
5.0
 41
27.680722891566269
 71
1
 72
1
  1
\fHelvetica;5.1 mm
  7
textstyle1
 50
0.0
 73
1
 44
0.9638554216867471
  0
LWPOLYLINE
  5
E2
100
AcDbEntity
  8
diry a zavity
 62
256
370
-1
 48
1.0
  6
ByLayer
100
AcDbPolyline
 90
3
 70
128
 10
330.99999999999989
 20
7.0
 10
324.99999999999989
 20
-15.00000000000011
 10
342.99999999999989
 20
7.0
  0
LWPOLYLINE
  5
E3
100
AcDbEntity
  8
diry a zavity
 62
256
370
-1
 48
1.0
  6
ByLayer
100
AcDbPolyline
 90
2
 70
128
 10
229.99999999999989
 20
4.0
 10
219.99999999999989
 20
-15.0
  0
LWPOLYLINE
  5
E4
100
AcDbEntity
  8
diry a zavity
 62
256
370
-1
 48
1.0
  6
ByLayer
100
AcDbPolyline
 90
2
 70
128
 10
229.99999999999989
 20
13.0
 10
219.99999999999989
 20
-15.0
  0
LWPOLYLINE
  5
E5
100
AcDbEntity
  8
diry a zavity
 62
256
370
-1
 48
1.0
  6
ByLayer
100
AcDbPolyline
 90
2
 70
128
 10
152.99999999999989
 20
4.0
 10
144.99999999999989
 20
-15.0
  0
LWPOLYLINE
  5
E6
100
AcDbEntity
  8
diry a zavity
 62
256
370
-1
 48
1.0
  6
ByLayer
100
AcDbPolyline
 90
2
 70
128
 10
152.99999999999989
 20
13.0
 10
144.99999999999989
 20
-15.0
  0
LWPOLYLINE
  5
E7
100
AcDbEntity
  8
diry a zavity
 62
256
370
-1
 48
1.0
  6
ByLayer
100
AcDbPolyline
 90
2
 70
128
 10
119.9999999999999
 20
4.0
 10
109.9999999999999
 20
-15.0
  0
LWPOLYLINE
  5
E8
100
AcDbEntity
  8
diry a zavity
 62
256
370
-1
 48
1.0
  6
ByLayer
100
AcDbPolyline
 90
2
 70
128
 10
119.9999999999999
 20
13.0
 10
109.9999999999999
 20
-15.0
  0
LINE
  5
E9
100
AcDbEntity
  8
diry a zavity
 62
256
370
-1
 48
1.0
  6
ByLayer
100
AcDbLine
 10
304.99999999999989
 20
-37.0
 30
0.0
 11
14.99999999999975
 21
-37.0
 31
0.0
  0
LINE
  5
EA
100
AcDbEntity
  8
diry a zavity
 62
256
370
-1
 48
1.0
  6
ByLayer
100
AcDbLine
 10
304.99999999999989
 20
12.999999999999989
 30
0.0
 11
316.2373082452649
 21
6.3071914127463486
 31
0.0
  0
LINE
  5
EB
100
AcDbEntity
  8
diry a zavity
 62
256
370
-1
 48
1.0
  6
ByLayer
100
AcDbLine
 10
304.99999999999989
 20
12.999999999999989
 30
0.0
 11
297.50180157964672
 21
6.6733950828267874
 31
0.0
  0
LINE
  5
EC
100
AcDbEntity
  8
diry a zavity
 62
256
370
-1
 48
1.0
  6
ByLayer
100
AcDbLine
 10
315.85389063990391
 20
28.24623057953924
 30
0.0
 11
304.99999999999989
 21
12.999999999999989
 31
0.0
  0
LINE
  5
ED
100
AcDbEntity
  8
diry a zavity
 62
256
370
-1
 48
1.0
  6
ByLayer
100
AcDbLine
 10
304.99999999999989
 20
12.999999999999989
 30
0.0
 11
297.91988467246108
 21
29.201218069909189
 31
0.0
  0
LINE
  5
EE
100
AcDbEntity
  8
diry a zavity
 62
256
370
-1
 48
1.0
  6
ByLayer
100
AcDbLine
 10
304.99999999999989
 20
12.999999999999989
 30
0.0
 11
304.99999999999989
 21
-37.0
 31
0.0
  0
LINE
  5
EF
100
AcDbEntity
  8
diry a zavity
 62
256
370
-1
 48
1.0
  6
ByLayer
100
AcDbLine
 10
264.99999999999972
 20
12.999999999999989
 30
0.0
 11
264.99999999999989
 21
-37.0
 31
0.0
  0
LINE
  5
F0
100
AcDbEntity
  8
diry a zavity
 62
256
370
-1
 48
1.0
  6
ByLayer
100
AcDbLine
 10
264.99999999999989
 20
12.999999999999989
 30
0.0
 11
260.13710061569589
 21
7.0318962101723486
 31
0.0
  0
LINE
  5
F1
100
AcDbEntity
  8
diry a zavity
 62
256
370
-1
 48
1.0
  6
ByLayer
100
AcDbLine
 10
264.99999999999989
 20
12.999999999999989
 30
0.0
 11
279.12852988053731
 21
6.1059583113039793
 31
0.0
  0
LINE
  5
F2
100
AcDbEntity
  8
diry a zavity
 62
256
370
-1
 48
1.0
  6
ByLayer
100
AcDbLine
 10
264.99999999999989
 20
12.999999999999989
 30
0.0
 11
279.56571940100309
 21
26.249539937057289
 31
0.0
  0
LINE
  5
F3
100
AcDbEntity
  8
diry a zavity
 62
256
370
-1
 48
1.0
  6
ByLayer
100
AcDbLine
 10
264.99999999999989
 20
12.999999999999989
 30
0.0
 11
259.47834377168181
 21
25.60604535144277
 31
0.0
  0
LINE
  5
F4
100
AcDbEntity
  8
diry a zavity
 62
256
370
-1
 48
1.0
  6
ByLayer
100
AcDbLine
 10
105.0000000000009
 20
12.99999999999879
 30
0.0
 11
110.498623683866
 21
25.580184488844552
 31
0.0
  0
LINE
  5
F5
100
AcDbEntity
  8
diry a zavity
 62
256
370
-1
 48
1.0
  6
ByLayer
100
AcDbLine
 10
104.9999999999998
 20
13.000000000000099
 30
0.0
 11
90.434280598996423
 21
26.249539937057289
 31
0.0
  0
LINE
  5
F6
100
AcDbEntity
  8
diry a zavity
 62
256
370
-1
 48
1.0
  6
ByLayer
100
AcDbLine
 10
114.28304852133211
 20
4.296882571818557
 30
0.0
 11
104.9999999999998
 21
13.000000000000099
 31
0.0
  0
LINE
  5
F7
100
AcDbEntity
  8
diry a zavity
 62
256
370
-1
 48
1.0
  6
ByLayer
100
AcDbLine
 10
104.9999999999998
 20
12.999999999999989
 30
0.0
 11
104.9999999999998
 21
-37.0
 31
0.0
  0
LINE
  5
F8
100
AcDbEntity
  8
diry a zavity
 62
256
370
-1
 48
1.0
  6
ByLayer
100
AcDbLine
 10
88.230526555914338
 20
7.6447729872885901
 30
0.0
 11
104.9999999999998
 21
12.999999999999989
 31
0.0
  0
LINE
  5
F9
100
AcDbEntity
  8
diry a zavity
 62
256
370
-1
 48
1.0
  6
ByLayer
100
AcDbLine
 10
64.999999999999744
 20
12.999999999999989
 30
0.0
 11
72.498198420353077
 21
6.6733950828267874
 31
0.0
  0
LINE
  5
FA
100
AcDbEntity
  8
diry a zavity
 62
256
370
-1
 48
1.0
  6
ByLayer
100
AcDbLine
 10
64.999999999999744
 20
12.999999999999989
 30
0.0
 11
73.124586989394601
 21
25.779298285402248
 31
0.0
  0
LINE
  5
FB
100
AcDbEntity
  8
diry a zavity
 62
256
370
-1
 48
1.0
  6
ByLayer
100
AcDbLine
 10
54.063562860395308
 20
5.5840562028967469
 30
0.0
 11
64.999999999999744
 21
12.999999999999989
 31
0.0
  0
LINE
  5
FC
100
AcDbEntity
  8
diry a zavity
 62
256
370
-1
 48
1.0
  6
ByLayer
100
AcDbLine
 10
64.999999999999744
 20
12.999999999999989
 30
0.0
 11
64.999999999999744
 21
-37.0
 31
0.0
  0
LINE
  5
FD
100
AcDbEntity
  8
diry a zavity
 62
256
370
-1
 48
1.0
  6
ByLayer
100
AcDbLine
 10
52.832312681360783
 20
25.752452261866772
 30
0.0
 11
64.999999999999744
 21
12.999999999999989
 31
0.0
  0
SPLINE
  5
FE
100
AcDbEntity
  8
diry a zavity
 62
256
370
-1
 48
1.0
  6
ByLayer
100
AcDbSpline
 70
8
 71
2
 72
6
 73
3
 74
0
 40
0.0
 40
0.0
 40
0.0
 40
13.1529464379659
 40
13.1529464379659
 40
13.1529464379659
 10
39.999999999999858
 20
-4.0
 30
0.0
 10
39.999999999999858
 20
1.5
 30
0.0
 10
39.999999999999858
 20
7.0
 30
0.0
  0
SPLINE
  5
FF
100
AcDbEntity
  8
diry a zavity
 62
256
370
-1
 48
1.0
  6
ByLayer
100
AcDbSpline
 70
8
 71
2
 72
8
 73
5
 74
0
 40
0.0
 40
0.0
 40
0.0
 40
11.0
 40
11.0
 40
30.104973174542799
 40
30.104973174542799
 40
30.104973174542799
 10
39.999999999999858
 20
-15.0
 30
0.0
 10
39.999999999999858
 20
-9.5
 30
0.0
 10
39.999999999999858
 20
-4.0
 30
0.0
 10
32.999999999999858
 20
1.5
 30
0.0
 10
25.999999999999861
 20
7.0
 30
0.0
  0
CIRCLE
  5
100
100
AcDbEntity
  8
M3
 62
256
370
-1
 48
1.0
  6
ByLayer
100
AcDbCircle
 10
359.99999999999989
 20
39.799999999999997
 30
0.0
 40
1.5
  0
CIRCLE
  5
101
100
AcDbEntity
  8
M3
 62
256
370
-1
 48
1.0
  6
ByLayer
100
AcDbCircle
 10
9.9999999999998579
 20
39.799999999999997
 30
0.0
 40
1.5
  0
CIRCLE
  5
102
100
AcDbEntity
  8
M3
 62
256
370
-1
 48
1.0
  6
ByLayer
100
AcDbCircle
 10
339.99999999999989
 20
359.80000000000001
 30
0.0
 40
1.5
  0
CIRCLE
  5
103
100
AcDbEntity
  8
M3
 62
256
370
-1
 48
1.0
  6
ByLayer
100
AcDbCircle
 10
29.99999999999989
 20
39.799999999999997
 30
0.0
 40
1.5
  0
CIRCLE
  5
104
100
AcDbEntity
  8
M3
 62
256
370
-1
 48
1.0
  6
ByLayer
100
AcDbCircle
 10
42.899999999999856
 20
67.799999999999997
 30
0.0
 40
1.5
  0
CIRCLE
  5
105
100
AcDbEntity
  8
M3
 62
256
370
-1
 48
1.0
  6
ByLayer
100
AcDbCircle
 10
339.99999999999989
 20
39.799999999999997
 30
0.0
 40
1.5
  0
CIRCLE
  5
106
100
AcDbEntity
  8
M3
 62
256
370
-1
 48
1.0
  6
ByLayer
100
AcDbCircle
 10
9.9999999999998579
 20
359.80000000000001
 30
0.0
 40
1.5
  0
CIRCLE
  5
107
100
AcDbEntity
  8
M3
 62
256
370
-1
 48
1.0
  6
ByLayer
100
AcDbCircle
 10
349.99999999999989
 20
19.800000000000001
 30
0.0
 40
1.5
  0
CIRCLE
  5
108
100
AcDbEntity
  8
M3
 62
256
370
-1
 48
1.0
  6
ByLayer
100
AcDbCircle
 10
46.999999999999893
 20
99.799999999999997
 30
0.0
 40
1.5
  0
CIRCLE
  5
109
100
AcDbEntity
  8
M3
 62
256
370
-1
 48
1.0
  6
ByLayer
100
AcDbCircle
 10
3.6999999999998612
 20
181.09999999999999
 30
0.0
 40
1.5
  0
CIRCLE
  5
10A
100
AcDbEntity
  8
M3
 62
256
370
-1
 48
1.0
  6
ByLayer
100
AcDbCircle
 10
19.999999999999861
 20
19.800000000000001
 30
0.0
 40
1.5
  0
CIRCLE
  5
10B
100
AcDbEntity
  8
M3
 62
256
370
-1
 48
1.0
  6
ByLayer
100
AcDbCircle
 10
4.8999999999998636
 20
67.799999999999997
 30
0.0
 40
1.5
  0
CIRCLE
  5
10C
100
AcDbEntity
  8
M3
 62
256
370
-1
 48
1.0
  6
ByLayer
100
AcDbCircle
 10
359.99999999999989
 20
359.80000000000001
 30
0.0
 40
1.5
  0
CIRCLE
  5
10D
100
AcDbEntity
  8
M3
 62
256
370
-1
 48
1.0
  6
ByLayer
100
AcDbCircle
 10
42.899999999999856
 20
161.80000000000001
 30
0.0
 40
1.5
  0
CIRCLE
  5
10E
100
AcDbEntity
  8
M3
 62
256
370
-1
 48
1.0
  6
ByLayer
100
AcDbCircle
 10
3.6999999999998612
 20
99.799999999999997
 30
0.0
 40
1.5
  0
CIRCLE
  5
10F
100
AcDbEntity
  8
M3
 62
256
370
-1
 48
1.0
  6
ByLayer
100
AcDbCircle
 10
29.99999999999989
 20
359.80000000000001
 30
0.0
 40
1.5
  0
CIRCLE
  5
110
100
AcDbEntity
  8
M3
 62
256
370
-1
 48
1.0
  6
ByLayer
100
AcDbCircle
 10
46.999999999999893
 20
174.69999999999999
 30
0.0
 40
1.5
  0
CIRCLE
  5
111
100
AcDbEntity
  8
M3
 62
256
370
-1
 48
1.0
  6
ByLayer
100
AcDbCircle
 10
4.8999999999998636
 20
161.80000000000001
 30
0.0
 40
1.5
  0
CIRCLE
  5
112
100
AcDbEntity
  8
M3
 62
256
370
-1
 48
1.0
  6
ByLayer
100
AcDbCircle
 10
46.499999999999893
 20
269.30000000000001
 30
0.0
 40
1.5
  0
CIRCLE
  5
113
100
AcDbEntity
  8
M3
 62
256
370
-1
 48
1.0
  6
ByLayer
100
AcDbCircle
 10
14.99999999999986
 20
247.80000000000001
 30
0.0
 40
1.5
  0
CIRCLE
  5
114
100
AcDbEntity
  8
M3
 62
256
370
-1
 48
1.0
  6
ByLayer
100
AcDbCircle
 10
3.4999999999998579
 20
269.30000000000001
 30
0.0
 40
1.5
  0
CIRCLE
  5
115
100
AcDbEntity
  8
M3
 62
256
370
-1
 48
1.0
  6
ByLayer
100
AcDbCircle
 10
14.99999999999986
 20
290.80000000000001
 30
0.0
 40
1.5
  0
MTEXT
  5
116
100
AcDbEntity
  8
diry a zavity
 62
3
420
65280
370
-1
 48
1.0
  6
ByLayer
100
AcDbMText
 10
387.04748925413986
 20
391.74969016676346
 30
0.0
 40
5.0
 41
30.391566265060241
 71
1
 72
1
  1
\fHelvetica;M3
  7
textstyle2
 50
0.0
 73
1
 44
0.9638554216867471
  0
CIRCLE
  5
117
100
AcDbEntity
  8
M3
 62
256
370
-1
 48
1.0
  6
ByLayer
100
AcDbCircle
 10
179.99999999999989
 20
80.0
 30
0.0
 40
1.5
  0
CIRCLE
  5
118
100
AcDbEntity
  8
M3
 62
256
370
-1
 48
1.0
  6
ByLayer
100
AcDbCircle
 10
179.99999999999989
 20
290.0
 30
0.0
 40
1.5
  0
CIRCLE
  5
119
100
AcDbEntity
  8
M3
 62
256
370
-1
 48
1.0
  6
ByLayer
100
AcDbCircle
 10
284.99999999999989
 20
80.0
 30
0.0
 40
1.5
  0
CIRCLE
  5
11A
100
AcDbEntity
  8
M3
 62
256
370
-1
 48
1.0
  6
ByLayer
100
AcDbCircle
 10
69.999999999999858
 20
290.0
 30
0.0
 40
1.5
  0
CIRCLE
  5
11B
100
AcDbEntity
  8
M3
 62
256
370
-1
 48
1.0
  6
ByLayer
100
AcDbCircle
 10
284.99999999999989
 20
290.0
 30
0.0
 40
1.5
  0
CIRCLE
  5
11C
100
AcDbEntity
  8
M3
 62
256
370
-1
 48
1.0
  6
ByLayer
100
AcDbCircle
 10
69.999999999999858
 20
184.99999999999989
 30
0.0
 40
1.5
  0
CIRCLE
  5
11D
100
AcDbEntity
  8
M3
 62
256
370
-1
 48
1.0
  6
ByLayer
100
AcDbCircle
 10
179.99999999999989
 20
185.0
 30
0.0
 40
1.5
  0
CIRCLE
  5
11E
100
AcDbEntity
  8
M3
 62
256
370
-1
 48
1.0
  6
ByLayer
100
AcDbCircle
 10
284.99999999999989
 20
185.0
 30
0.0
 40
1.5
  0
CIRCLE
  5
11F
100
AcDbEntity
  8
0
 62
256
370
-1
 48
1.0
  6
ByLayer
100
AcDbCircle
 10
256.49999999999989
 20
185.0
 30
0.0
 40
1.6000000000000001
  0
CIRCLE
  5
120
100
AcDbEntity
  8
0
 62
256
370
-1
 48
1.0
  6
ByLayer
100
AcDbCircle
 10
276.49999999999989
 20
185.0
 30
0.0
 40
1.6000000000000001
  0
CIRCLE
  5
121
100
AcDbEntity
  8
0
 62
256
370
-1
 48
1.0
  6
ByLayer
100
AcDbCircle
 10
106.4999999999999
 20
220.0
 30
0.0
 40
1.6000000000000001
  0
CIRCLE
  5
122
100
AcDbEntity
  8
0
 62
256
370
-1
 48
1.0
  6
ByLayer
100
AcDbCircle
 10
106.4999999999999
 20
150.0
 30
0.0
 40
1.6000000000000001
  0
CIRCLE
  5
123
100
AcDbEntity
  8
0
 62
256
370
-1
 48
1.0
  6
ByLayer
100
AcDbCircle
 10
86.499999999999858
 20
220.0
 30
0.0
 40
1.6000000000000001
  0
CIRCLE
  5
124
100
AcDbEntity
  8
0
 62
256
370
-1
 48
1.0
  6
ByLayer
100
AcDbCircle
 10
86.499999999999858
 20
150.0
 30
0.0
 40
1.6000000000000001
  0
CIRCLE
  5
125
100
AcDbEntity
  8
M3
 62
256
370
-1
 48
1.0
  6
ByLayer
100
AcDbCircle
 10
69.999999999999858
 20
80.0
 30
0.0
 40
1.5
  0
CIRCLE
  5
126
100
AcDbEntity
  8
M3
 62
256
370
-1
 48
1.0
  6
ByLayer
100
AcDbCircle
 10
181.49999999999989
 20
165.5
 30
0.0
 40
1.5
  0
CIRCLE
  5
127
100
AcDbEntity
  8
M3
 62
256
370
-1
 48
1.0
  6
ByLayer
100
AcDbCircle
 10
181.49999999999989
 20
204.5
 30
0.0
 40
1.5
  0
CIRCLE
  5
128
100
AcDbEntity
  8
0
 62
256
370
-1
 48
1.0
  6
ByLayer
100
AcDbCircle
 10
39.999999999999858
 20
7.0
 30
0.0
 40
1.6000000000000001
  0
CIRCLE
  5
129
100
AcDbEntity
  8
0
 62
256
370
-1
 48
1.0
  6
ByLayer
100
AcDbCircle
 10
330.99999999999989
 20
7.0
 30
0.0
 40
1.6000000000000001
  0
CIRCLE
  5
12A
100
AcDbEntity
  8
0
 62
256
370
-1
 48
1.0
  6
ByLayer
100
AcDbCircle
 10
342.99999999999989
 20
7.0
 30
0.0
 40
1.6000000000000001
  0
SPLINE
  5
12B
100
AcDbEntity
  8
0
 62
256
370
-1
 48
1.0
  6
ByLayer
100
AcDbSpline
 70
8
 71
2
 72
44
 73
41
 74
0
 40
0.0
 40
0.0
 40
0.0
 40
360.19174199999998
 40
360.19174199999998
 40
367.12855286628172
 40
367.12855286628172
 40
387.12855286628172
 40
387.12855286628172
 40
395.61383424052019
 40
395.61383424052019
 40
401.61383424052019
 40
401.61383424052019
 40
407.27068849001262
 40
407.27068849001262
 40
482.27068849001262
 40
482.27068849001262
 40
487.92754273950499
 40
487.92754273950499
 40
501.92754273950499
 40
501.92754273950499
 40
507.58439698899741
 40
507.58439698899741
 40
698.58439698899736
 40
698.58439698899736
 40
704.24125123848978
 40
704.24125123848978
 40
710.24125123848978
 40
710.24125123848978
 40
718.72653261272831
 40
718.72653261272831
 40
738.72653261272831
 40
738.72653261272831
 40
745.79760042459384
 40
745.79760042459384
 40
1105.7976004245941
 40
1105.7976004245941
 40
1112.8686682364589
 40
1112.8686682364589
 40
1472.8686682364589
 40
1472.8686682364589
 40
1479.9397360483249
 40
1479.9397360483249
 40
1479.9397360483249
 10
-0.0000000000001421
 20
365.0
 30
0.0
 10
-0.0000000000001421
 20
185.0
 30
0.0
 10
-0.0000000000001421
 20
5.0
 30
0.0
 10
2.4999999999998579
 20
2.5
 30
0.0
 10
4.9999999999998579
 20
0.0
 30
0.0
 10
14.99999999999986
 20
0.0
 30
0.0
 10
24.99999999999989
 20
0.0
 30
0.0
 10
26.999999999999861
 20
2.0
 30
0.0
 10
28.999999999999861
 20
4.0
 30
0.0
 10
32.999999999999858
 20
4.0
 30
0.0
 10
36.999999999999893
 20
4.0
 30
0.0
 10
38.999999999999893
 20
2.0
 30
0.0
 10
40.999999999999893
 20
0.0
 30
0.0
 10
81.499999999999872
 20
0.0
 30
0.0
 10
121.9999999999999
 20
0.0
 30
0.0
 10
124.4999999999999
 20
2.5
 30
0.0
 10
126.9999999999999
 20
5.0
 30
0.0
 10
136.49999999999989
 20
5.0
 30
0.0
 10
145.99999999999989
 20
5.0
 30
0.0
 10
148.49999999999989
 20
2.5
 30
0.0
 10
150.99999999999989
 20
0.0
 30
0.0
 10
239.99999999999989
 20
0.0
 30
0.0
 10
328.99999999999989
 20
0.0
 30
0.0
 10
330.99999999999989
 20
2.0
 30
0.0
 10
332.99999999999989
 20
4.0
 30
0.0
 10
336.99999999999989
 20
4.0
 30
0.0
 10
340.99999999999989
 20
4.0
 30
0.0
 10
342.99999999999989
 20
2.0
 30
0.0
 10
344.99999999999989
 20
0.0
 30
0.0
 10
354.99999999999989
 20
0.0
 30
0.0
 10
364.99999999999989
 20
0.0
 30
0.0
 10
367.49999999999989
 20
2.5
 30
0.0
 10
369.99999999999989
 20
5.0
 30
0.0
 10
369.99999999999989
 20
185.0
 30
0.0
 10
369.99999999999989
 20
365.0
 30
0.0
 10
367.49999999999989
 20
367.5
 30
0.0
 10
364.99999999999989
 20
370.0
 30
0.0
 10
184.99999999999989
 20
370.0
 30
0.0
 10
4.9999999999998579
 20
370.0
 30
0.0
 10
2.4999999999998579
 20
367.5
 30
0.0
 10
-0.0000000000001421
 20
365.0
 30
0.0
  0
CIRCLE
  5
12C
100
AcDbEntity
  8
0
 62
256
370
-1
 48
1.0
  6
ByLayer
100
AcDbCircle
 10
119.9999999999999
 20
13.0
 30
0.0
 40
1.6000000000000001
  0
CIRCLE
  5
12D
100
AcDbEntity
  8
0
 62
256
370
-1
 48
1.0
  6
ByLayer
100
AcDbCircle
 10
119.9999999999999
 20
4.0
 30
0.0
 40
1.6000000000000001
  0
LWPOLYLINE
  5
12E
100
AcDbEntity
  8
0
 62
256
370
-1
 48
1.0
  6
ByLayer
100
AcDbPolyline
 90
14
 70
128
 10
93.67922899999985
 20
358.41073599999987
 10
93.67922899999985
 20
347.82620200000008
 10
93.940581999999893
 20
345.73544299999992
 10
94.463255999999888
 20
344.23269599999992
 10
95.18197599999985
 20
343.18734699999987
 10
96.184630999999854
 20
341.96475199999998
 10
97.810515999999893
 20
341.43292200000008
 10
99.624846999999875
 20
341.09655700000008
 10
101.9769889999999
 20
341.35787900000003
 10
104.0024099999999
 20
342.40329000000008
 10
105.1131279999999
 20
344.23269599999992
 10
105.57049499999989
 20
346.71548400000012
 10
105.57049499999989
 20
349.19827299999997
 10
105.57049499999989
 20
358.41073599999987
  0
LWPOLYLINE
  5
12F
100
AcDbEntity
  8
0
 62
256
370
-1
 48
1.0
  6
ByLayer
100
AcDbPolyline
 90
5
 70
128
 10
79.893217999999877
 20
349.32894900000008
 10
80.089232999999865
 20
349.32894900000008
 10
81.00393599999984
 20
348.80627399999992
 10
82.049315999999862
 20
347.43420400000002
 10
86.492217999999866
 20
341.09655700000008
  0
LWPOLYLINE
  5
130
100
AcDbEntity
  8
0
 62
256
370
-1
 48
1.0
  6
ByLayer
100
AcDbPolyline
 90
14
 70
128
 10
73.55557199999987
 20
341.16189600000013
 10
73.555571999999842
 20
358.41073599999987
 10
80.61190699999986
 20
358.41073599999987
 10
82.768034999999827
 20
357.75735500000008
 10
83.81341499999985
 20
356.77731299999988
 10
84.532103999999833
 20
355.47061100000008
 10
84.858793999999875
 20
353.70651199999998
 10
84.532103999999833
 20
352.00775099999998
 10
83.682737999999858
 20
350.57034299999998
 10
82.506681999999842
 20
349.85165400000011
 10
81.330625999999825
 20
349.52496300000013
 10
79.893217999999877
 20
349.32894900000008
 10
78.129118999999832
 20
349.32894900000008
 10
73.555571999999856
 20
349.32894900000008
  0
LWPOLYLINE
  5
131
100
AcDbEntity
  8
0
 62
256
370
-1
 48
1.0
  6
ByLayer
100
AcDbPolyline
 90
22
 70
128
 10
113.0896599999998
 20
345.44424400000003
 10
114.2003779999999
 20
343.48416099999997
 10
116.6178279999999
 20
341.85073799999998
 10
118.9699399999998
 20
341.19735700000001
 10
122.4327999999999
 20
341.72006199999998
 10
124.0661919999999
 20
343.026794
 10
125.2422479999998
 20
345.11758400000008
 10
125.2422479999998
 20
346.35897799999998
 10
124.9155879999999
 20
347.469696
 10
123.73950099999981
 20
348.77639799999997
 10
122.5634759999998
 20
349.29910300000012
 10
116.7485039999999
 20
351.06320199999988
 10
115.04974299999991
 20
352.17392000000012
 10
114.0043639999999
 20
353.41531400000008
 10
113.8737179999999
 20
354.59136899999999
 10
114.1350399999999
 20
356.35543799999988
 10
115.3764339999999
 20
357.66220099999998
 10
117.4672239999999
 20
358.44622800000002
 10
120.0806879999998
 20
358.57687399999998
 10
122.8247979999999
 20
357.85818499999988
 10
123.93551599999989
 20
356.81280500000003
 10
124.3928829999999
 20
355.57141100000001
  0
LWPOLYLINE
  5
132
100
AcDbEntity
  8
0
 62
256
370
-1
 48
1.0
  6
ByLayer
100
AcDbPolyline
 90
4
 70
128
 10
130.99542199999979
 20
341.03121900000008
 10
137.98644999999979
 20
358.54141199999992
 10
139.0971669999999
 20
358.54141199999992
 10
145.9574889999999
 20
341.03121900000008
  0
LINE
  5
133
100
AcDbEntity
  8
0
 62
256
370
-1
 48
1.0
  6
ByLayer
100
AcDbLine
 10
143.93432599999991
 20
346.19509900000003
 30
0.0
 11
133.08029099999979
 21
346.19265700000011
 31
0.0
  0
LWPOLYLINE
  5
134
100
AcDbEntity
  8
0
 62
256
370
-1
 48
1.0
  6
ByLayer
100
AcDbPolyline
 90
14
 70
128
 10
54.999999999999893
 20
341.16189600000013
 10
54.999999999999858
 20
358.41073599999987
 10
62.056334999999883
 20
358.41073599999987
 10
64.212462999999843
 20
357.75735500000008
 10
65.257842999999866
 20
356.77731299999988
 10
65.97653199999985
 20
355.47061100000008
 10
66.303221999999892
 20
353.70651199999998
 10
65.97653199999985
 20
352.00775099999998
 10
65.127165999999875
 20
350.57034299999998
 10
63.951109999999858
 20
349.85165400000011
 10
62.775053999999841
 20
349.52496300000013
 10
61.337645999999893
 20
349.32894900000008
 10
59.573546999999849
 20
349.32894900000008
 10
54.999999999999872
 20
349.32894900000008
  0
LEADER
  5
135
100
AcDbEntity
  8
diry a zavity
 62
3
420
65280
370
-1
 48
1.0
  6
ByLayer
100
AcDbLeader
  3
Standard
 71
1
 72
0
 73
3
 74
0
 75
0
 40
1.0
 41
10.0
 76
3
 10
359.99999999999989
 20
360.0
 10
374.99999999999989
 20
384.99999999999989
 10
394.99999999999989
 20
384.99999999999989
  0
MTEXT
  5
136
100
AcDbEntity
  8
diry a zavity
 62
3
420
65280
370
-1
 48
1.0
  6
ByLayer
100
AcDbMText
 10
395.0899999999998
 20
384.99999999999989
 30
0.0
 40
0.18
 41
0.18
 71
1
 72
1
  1

  7
textstyle7
 50
0.0
 73
1
 44
0.963855421686747
  0
LEADER
  5
137
100
AcDbEntity
  8
diry a zavity
 62
3
420
65280
370
-1
 48
1.0
  6
ByLayer
100
AcDbLeader
  3
Standard
 71
1
 72
0
 73
3
 74
0
 75
0
 40
1.0
 41
10.0
 76
3
 10
29.958248324811251
 20
359.68691197366218
 10
44.958248324811251
 20
384.68691197366212
 10
64.958248324811251
 20
384.68691197366212
  0
MTEXT
  5
138
100
AcDbEntity
  8
diry a zavity
 62
3
420
65280
370
-1
 48
1.0
  6
ByLayer
100
AcDbMText
 10
65.048248324811311
 20
384.68691197366212
 30
0.0
 40
0.18
 41
0.18
 71
1
 72
1
  1

  7
textstyle8
 50
0.0
 73
1
 44
0.963855421686747
  0
MTEXT
  5
139
100
AcDbEntity
  8
diry a zavity
 62
256
370
-1
 48
1.0
  6
ByLayer
100
AcDbMText
 10
4.2092837329063952
 20
-7.3166594146476616
 30
0.0
 40
5.0
 41
27.74096385542169
 71
1
 72
1
  1
\ftextstyle2;3.2 mm
  7
textstyle9
 50
0.0
 73
1
 44
0.9638554216867471
  0
MTEXT
  5
13A
100
AcDbEntity
  8
diry a zavity
 62
256
370
-1
 48
1.0
  6
ByLayer
100
AcDbMText
 10
376.40207153941782
 20
61.588433696215233
 30
0.0
 40
5.0
 41
30.391566265060241
 71
1
 72
1
  1
\ftextstyle3;M3 zavit
  7
textstyle10
 50
0.0
 73
1
 44
0.9638554216867471
  0
MTEXT
  5
13B
100
AcDbEntity
  8
diry a zavity
 62
3
420
65280
370
-1
 48
1.0
  6
ByLayer
100
AcDbMText
 10
-35.0
 20
92.0
 30
0.0
 40
5.0
 41
30.391566265060241
 71
1
 72
1
  1
\ftextstyle4;M3
  7
textstyle11
 50
0.0
 73
1
 44
0.9638554216867471
  0
MTEXT
  5
13C
100
AcDbEntity
  8
diry a zavity
 62
3
420
65280
370
-1
 48
1.0
  6
ByLayer
100
AcDbMText
 10
57.0
 20
391.0
 30
0.0
 40
5.0
 41
30.391566265060241
 71
1
 72
1
  1
\ftextstyle5;M3
  7
textstyle12
 50
0.0
 73
1
 44
0.9638554216867471
  0
LINE
  5
13D
100
AcDbEntity
  8
diry a zavity
 62
3
420
65280
370
-1
 48
1.0
  6
ByLayer
100
AcDbLine
 10
374.99999999999989
 20
384.99999999999989
 30
0.0
 11
354.99999999999989
 21
384.99999999999989
 31
0.0
  0
LINE
  5
13E
100
AcDbEntity
  8
diry a zavity
 62
3
420
65280
370
-1
 48
1.0
  6
ByLayer
100
AcDbLine
 10
44.958248324811251
 20
384.68691197366212
 30
0.0
 11
24.958248324811251
 21
384.68691197366212
 31
0.0
  0
LINE
  5
13F
100
AcDbEntity
  8
diry a zavity
 62
3
420
65280
370
-1
 48
1.0
  6
ByLayer
100
AcDbLine
 10
354.99999999999989
 20
384.99999999999989
 30
0.0
 11
339.99999999999989
 21
360.0
 31
0.0
  0
LINE
  5
140
100
AcDbEntity
  8
diry a zavity
 62
3
420
65280
370
-1
 48
1.0
  6
ByLayer
100
AcDbLine
 10
24.958248324811251
 20
384.68691197366212
 30
0.0
 11
9.958248324811251
 21
359.68691197366218
 31
0.0
  0
LINE
  5
141
100
AcDbEntity
  8
diry a zavity
 62
3
420
65280
370
-1
 48
1.0
  6
ByLayer
100
AcDbLine
 10
16.46727976894099
 20
291.29430952906517
 30
0.0
 11
9.958248324811251
 21
359.68691197366218
 31
0.0
  0
LINE
  5
142
100
AcDbEntity
  8
diry a zavity
 62
3
420
65280
370
-1
 48
1.0
  6
ByLayer
100
AcDbLine
 10
3.6070990842243589
 20
270.961505129118
 30
0.0
 11
10.07104837453878
 21
358.50168356864299
 31
0.0
  0
LINE
  5
143
100
AcDbEntity
  8
diry a zavity
 62
3
420
65280
370
-1
 48
1.0
  6
ByLayer
100
AcDbLine
 10
14.907323248618329
 20
249.44647729712111
 30
0.0
 11
4.9999999999997442
 21
294.99999999999989
 31
0.0
  0
LINE
  5
144
100
AcDbEntity
  8
diry a zavity
 62
3
420
65280
370
-1
 48
1.0
  6
ByLayer
100
AcDbLine
 10
45.579483972002521
 20
268.28099806015922
 30
0.0
 11
29.958248324811251
 21
359.68691197366218
 31
0.0
  0
LINE
  5
145
100
AcDbEntity
  8
diry a zavity
 62
3
420
65280
370
-1
 48
1.0
  6
ByLayer
100
AcDbLine
 10
3.9580939160922242
 20
182.764060323492
 30
0.0
 11
14.723831510793479
 21
246.46892121153689
 31
0.0
  0
LINE
  5
146
100
AcDbEntity
  8
diry a zavity
 62
3
420
65280
370
-1
 48
1.0
  6
ByLayer
100
AcDbLine
 10
5.1238612540525708
 20
163.45540285595001
 30
0.0
 11
3.856107195327326
 21
179.78450037806979
 31
0.0
  0
LINE
  5
147
100
AcDbEntity
  8
diry a zavity
 62
3
420
65280
370
-1
 48
1.0
  6
ByLayer
100
AcDbLine
 10
3.7421828877504311
 20
101.499998411666
 30
0.0
 11
4.9215491103514921
 21
160.46563335624541
 31
0.0
  0
LINE
  5
148
100
AcDbEntity
  8
diry a zavity
 62
3
420
65280
370
-1
 48
1.0
  6
ByLayer
100
AcDbLine
 10
45.581469055867807
 20
174.44238338775219
 30
0.0
 11
45.57948397200218
 21
268.28099806015939
 31
0.0
  0
LINE
  5
149
100
AcDbEntity
  8
diry a zavity
 62
3
420
65280
370
-1
 48
1.0
  6
ByLayer
100
AcDbLine
 10
41.45267447783803
 20
162.02354628617169
 30
0.0
 11
45.581469055867807
 21
174.44238338775219
 31
0.0
  0
LINE
  5
14A
100
AcDbEntity
  8
diry a zavity
 62
3
420
65280
370
-1
 48
1.0
  6
ByLayer
100
AcDbLine
 10
46.971422056716932
 20
101.49972774234431
 30
0.0
 11
43.051047898637172
 21
160.4686373682712
 31
0.0
  0
LEADER
  5
14B
100
AcDbEntity
  8
diry a zavity
 62
3
420
65280
370
-1
 48
1.0
  6
ByLayer
100
AcDbLeader
  3
Standard
 71
1
 72
0
 73
3
 74
0
 75
0
 40
1.0
 41
10.0
 76
3
 10
3.5387845492290069
 20
68.584120878437872
 10
-15.000000000000259
 20
84.999999999999872
 10
-35.000000000000242
 20
84.999999999999872
  0
MTEXT
  5
14C
100
AcDbEntity
  8
diry a zavity
 62
3
420
65280
370
-1
 48
1.0
  6
ByLayer
100
AcDbMText
 10
-35.090000000000238
 20
84.999999999999901
 30
0.0
 40
0.18
 41
0.18
 71
3
 72
1
  1

  7
textstyle5
 50
0.0
 73
1
 44
0.963855421686747
  0
LINE
  5
14D
100
AcDbEntity
  8
diry a zavity
 62
3
420
65280
370
-1
 48
1.0
  6
ByLayer
100
AcDbLine
 10
4.2814298350598108
 20
66.632756617493769
 30
0.0
 11
9.6850982515430601
 21
41.466573178814599
 31
0.0
  0
LINE
  5
14E
100
AcDbEntity
  8
diry a zavity
 62
3
420
65280
370
-1
 48
1.0
  6
ByLayer
100
AcDbLine
 10
11.49999999999975
 20
39.999999999999773
 30
0.0
 11
19.413289039482471
 21
21.38049637768745
 31
0.0
  0
LINE
  5
14F
100
AcDbEntity
  8
diry a zavity
 62
3
420
65280
370
-1
 48
1.0
  6
ByLayer
100
AcDbLine
 10
29.25859164224946
 20
38.696039246350381
 30
0.0
 11
4.2814298350598108
 21
66.632756617493769
 31
0.0
  0
LINE
  5
150
100
AcDbEntity
  8
diry a zavity
 62
3
420
65280
370
-1
 48
1.0
  6
ByLayer
100
AcDbLine
 10
41.452434305388209
 20
67.913673902320369
 30
0.0
 11
4.2814298350598108
 21
66.632756617493669
 31
0.0
  0
LEADER
  5
151
100
AcDbEntity
  8
diry a zavity
 62
256
370
-1
 48
1.0
  6
ByLayer
100
AcDbLeader
  3
Standard
 71
1
 72
0
 73
3
 74
0
 75
0
 40
1.0
 41
10.0
 76
3
 10
360.10570104555569
 20
41.496271128160338
 10
374.99999999999989
 20
54.999999999999872
 10
394.99999999999989
 20
54.999999999999872
  0
MTEXT
  5
152
100
AcDbEntity
  8
diry a zavity
 62
256
370
-1
 48
1.0
  6
ByLayer
100
AcDbMText
 10
395.0899999999998
 20
54.999999999999503
 30
0.0
 40
0.18
 41
0.18
 71
1
 72
1
  1

  7
textstyle6
 50
0.0
 73
1
 44
0.963855421686747
  0
LINE
  5
153
100
AcDbEntity
  8
diry a zavity
 62
256
370
-1
 48
1.0
  6
ByLayer
100
AcDbLine
 10
358.49999999999989
 20
39.999999999999773
 30
0.0
 11
341.49999999999989
 21
39.999999999999773
 31
0.0
  0
LINE
  5
154
100
AcDbEntity
  8
diry a zavity
 62
256
370
-1
 48
1.0
  6
ByLayer
100
AcDbLine
 10
349.41328903948249
 20
21.38049637768745
 30
0.0
 11
358.49999999999989
 21
39.999999999999773
 31
0.0
  0
LINE
  5
155
100
AcDbEntity
  8
diry a zavity
 62
256
370
-1
 48
1.0
  6
ByLayer
100
AcDbLine
 10
324.99999999999989
 20
-15.00000000000011
 30
0.0
 11
4.9999999999997442
 21
-15.00000000000011
 31
0.0
  0
LINE
  5
156
100
AcDbEntity
  8
diry a zavity
 62
3
420
65280
370
-1
 48
1.0
  6
ByLayer
100
AcDbLine
 10
181.4999999999998
 20
73.308257999999867
 30
0.0
 11
111.4999999999998
 21
73.308257999999867
 31
0.0
  0
LINE
  5
157
100
AcDbEntity
  8
diry a zavity
 62
3
420
65280
370
-1
 48
1.0
  6
ByLayer
100
AcDbLine
 10
111.4999999999998
 20
73.308257999999867
 30
0.0
 11
111.4999999999998
 21
153.30825799999991
 31
0.0
  0
LINE
  5
158
100
AcDbEntity
  8
diry a zavity
 62
3
420
65280
370
-1
 48
1.0
  6
ByLayer
100
AcDbLine
 10
111.4999999999998
 20
153.30825799999991
 30
0.0
 11
111.4999999999998
 21
213.30825799999991
 31
0.0
  0
LINE
  5
159
100
AcDbEntity
  8
diry a zavity
 62
3
420
65280
370
-1
 48
1.0
  6
ByLayer
100
AcDbLine
 10
181.4999999999998
 20
73.308257999999867
 30
0.0
 11
241.49999999999989
 21
73.308257999999867
 31
0.0
  0
LINE
  5
15A
100
AcDbEntity
  8
diry a zavity
 62
3
420
65280
370
-1
 48
1.0
  6
ByLayer
100
AcDbLine
 10
241.49999999999989
 20
73.308257999999867
 30
0.0
 11
241.49999999999989
 21
173.30825799999991
 31
0.0
  0
LINE
  5
15B
100
AcDbEntity
  8
diry a zavity
 62
3
420
65280
370
-1
 48
1.0
  6
ByLayer
100
AcDbLine
 10
111.4999999999998
 20
213.30825799999991
 30
0.0
 11
111.4999999999998
 21
283.30825799999991
 31
0.0
  0
LINE
  5
15C
100
AcDbEntity
  8
diry a zavity
 62
3
420
65280
370
-1
 48
1.0
  6
ByLayer
100
AcDbLine
 10
241.49999999999989
 20
173.30825799999991
 30
0.0
 11
241.49999999999989
 21
283.30825799999991
 31
0.0
  0
LINE
  5
15D
100
AcDbEntity
  8
diry a zavity
 62
3
420
65280
370
-1
 48
1.0
  6
ByLayer
100
AcDbLine
 10
111.4999999999998
 20
283.30825799999991
 30
0.0
 11
69.999999999999716
 21
289.8082579999998
 31
0.0
  0
LINE
  5
15E
100
AcDbEntity
  8
diry a zavity
 62
3
420
65280
370
-1
 48
1.0
  6
ByLayer
100
AcDbLine
 10
111.4999999999998
 20
283.30825799999991
 30
0.0
 11
179.9999999999998
 21
289.8082579999998
 31
0.0
  0
LINE
  5
15F
100
AcDbEntity
  8
diry a zavity
 62
3
420
65280
370
-1
 48
1.0
  6
ByLayer
100
AcDbLine
 10
284.99999999999989
 20
289.8082579999998
 30
0.0
 11
241.49999999999989
 21
283.30825799999991
 31
0.0
  0
MTEXT
  5
160
100
AcDbEntity
  8
diry a zavity
 62
256
370
-1
 48
1.0
  6
ByLayer
100
AcDbMText
 10
131.4999999999998
 20
183.30825799999971
 30
0.0
 40
5.0
 41
27.74096385542169
 71
1
 72
1
  1
\ftextstyle1;3.2 mm
  7
textstyle4
 50
0.0
 73
1
 44
0.9638554216867471
  0
LINE
  5
161
100
AcDbEntity
  8
diry a zavity
 62
3
420
65280
370
-1
 48
1.0
  6
ByLayer
100
AcDbLine
 10
68.499999999999716
 20
184.8082579999998
 30
0.0
 11
111.4999999999998
 21
183.30825799999991
 31
0.0
  0
LINE
  5
162
100
AcDbEntity
  8
diry a zavity
 62
3
420
65280
370
-1
 48
1.0
  6
ByLayer
100
AcDbLine
 10
69.999999999999716
 20
79.808257999999768
 30
0.0
 11
111.4999999999998
 21
73.308257999999867
 31
0.0
  0
LINE
  5
163
100
AcDbEntity
  8
diry a zavity
 62
3
420
65280
370
-1
 48
1.0
  6
ByLayer
100
AcDbLine
 10
241.49999999999989
 20
73.308257999999867
 30
0.0
 11
286.49999999999989
 21
79.808257999999768
 31
0.0
  0
LINE
  5
164
100
AcDbEntity
  8
diry a zavity
 62
3
420
65280
370
-1
 48
1.0
  6
ByLayer
100
AcDbLine
 10
284.99999999999989
 20
183.3082579999998
 30
0.0
 11
241.49999999999989
 21
283.30825799999991
 31
0.0
  0
LINE
  5
165
100
AcDbEntity
  8
diry a zavity
 62
3
420
65280
370
-1
 48
1.0
  6
ByLayer
100
AcDbLine
 10
179.9999999999998
 20
78.308257999999768
 30
0.0
 11
111.4999999999998
 21
73.308257999999867
 31
0.0
  0
LINE
  5
166
100
AcDbEntity
  8
diry a zavity
 62
256
370
-1
 48
1.0
  6
ByLayer
100
AcDbLine
 10
86.499999999999716
 20
219.30825799999971
 30
0.0
 11
131.49999999999969
 21
193.30825799999991
 31
0.0
  0
LINE
  5
167
100
AcDbEntity
  8
diry a zavity
 62
256
370
-1
 48
1.0
  6
ByLayer
100
AcDbLine
 10
131.49999999999969
 20
193.30825799999991
 30
0.0
 11
106.4999999999998
 21
219.30825799999971
 31
0.0
  0
LINE
  5
168
100
AcDbEntity
  8
diry a zavity
 62
256
370
-1
 48
1.0
  6
ByLayer
100
AcDbLine
 10
131.49999999999969
 20
193.30825799999991
 30
0.0
 11
86.499999999999716
 21
149.3082579999998
 31
0.0
  0
LINE
  5
169
100
AcDbEntity
  8
diry a zavity
 62
256
370
-1
 48
1.0
  6
ByLayer
100
AcDbLine
 10
106.4999999999998
 20
149.3082579999998
 30
0.0
 11
131.49999999999969
 21
193.30825799999991
 31
0.0
  0
LINE
  5
16A
100
AcDbEntity
  8
diry a zavity
 62
256
370
-1
 48
1.0
  6
ByLayer
100
AcDbLine
 10
131.49999999999969
 20
193.30825799999991
 30
0.0
 11
231.49999999999989
 21
193.30825799999991
 31
0.0
  0
LINE
  5
16B
100
AcDbEntity
  8
diry a zavity
 62
256
370
-1
 48
1.0
  6
ByLayer
100
AcDbLine
 10
231.49999999999989
 20
193.30825799999991
 30
0.0
 11
256.49999999999989
 21
184.30825799999971
 31
0.0
  0
LINE
  5
16C
100
AcDbEntity
  8
diry a zavity
 62
256
370
-1
 48
1.0
  6
ByLayer
100
AcDbLine
 10
276.49999999999989
 20
184.30825799999971
 30
0.0
 11
231.49999999999989
 21
193.30825799999991
 31
0.0
  0
LINE
  5
16D
100
AcDbEntity
  8
diry a zavity
 62
3
420
65280
370
-1
 48
1.0
  6
ByLayer
100
AcDbLine
 10
181.4999999999998
 20
203.80825799999971
 30
0.0
 11
241.49999999999989
 21
166.7111323738155
 31
0.0
  0
LINE
  5
16E
100
AcDbEntity
  8
diry a zavity
 62
3
420
65280
370
-1
 48
1.0
  6
ByLayer
100
AcDbLine
 10
241.49999999999989
 20
166.7111323738155
 30
0.0
 11
179.9999999999998
 21
184.8082579999998
 31
0.0
  0
LINE
  5
16F
100
AcDbEntity
  8
diry a zavity
 62
3
420
65280
370
-1
 48
1.0
  6
ByLayer
100
AcDbLine
 10
181.4999999999998
 20
164.8082579999998
 30
0.0
 11
241.49999999999989
 21
166.7111323738155
 31
0.0
  0
MTEXT
  5
170
100
AcDbEntity
  8
diry a zavity
 62
3
420
65280
370
-1
 48
1.0
  6
ByLayer
100
AcDbMText
 10
164.99999999999969
 20
64.999999999997812
 30
0.0
 40
5.0
 41
30.391566265060241
 71
1
 72
1
  1
\fHelvetica;M3
  7
textstyle3
 50
0.0
 73
1
 44
0.9638554216867471
  0
CIRCLE
  5
171
100
AcDbEntity
  8
0
 62
256
370
-1
 48
1.0
  6
ByLayer
100
AcDbCircle
 10
229.99999999999989
 20
13.0
 30
0.0
 40
1.6000000000000001
  0
CIRCLE
  5
172
100
AcDbEntity
  8
0
 62
256
370
-1
 48
1.0
  6
ByLayer
100
AcDbCircle
 10
229.99999999999989
 20
4.0
 30
0.0
 40
1.6000000000000001
  0
CIRCLE
  5
173
100
AcDbEntity
  8
0
 62
256
370
-1
 48
1.0
  6
ByLayer
100
AcDbCircle
 10
333.39999999999992
 20
205.0
 30
0.0
 40
2.1000000000000001
  0
CIRCLE
  5
174
100
AcDbEntity
  8
0
 62
256
370
-1
 48
1.0
  6
ByLayer
100
AcDbCircle
 10
333.39999999999992
 20
88.0
 30
0.0
 40
2.1000000000000001
  0
SPLINE
  5
175
100
AcDbEntity
  8
0
 62
256
370
-1
 48
1.0
  6
ByLayer
100
AcDbSpline
 70
8
 71
2
 72
60
 73
57
 74
0
 40
0.0
 40
0.0
 40
0.0
 40
7.0710678118654764
 40
7.0710678118654764
 40
51.571067811865483
 40
51.571067811865483
 40
55.071067811865483
 40
55.071067811865483
 40
83.355339059327378
 40
83.355339059327378
 40
93.355339059327378
 40
93.355339059327378
 40
121.63961030678929
 40
121.63961030678929
 40
125.13961030678929
 40
125.13961030678929
 40
169.63961030678931
 40
169.63961030678931
 40
176.71067811865481
 40
176.71067811865481
 40
178.71067811865481
 40
178.71067811865481
 40
188.71067811865481
 40
188.71067811865481
 40
190.71067811865481
 40
190.71067811865481
 40
197.7817459305202
 40
197.7817459305202
 40
202.7817459305202
 40
202.7817459305202
 40
216.92388155425121
 40
216.92388155425121
 40
234.92388155425121
 40
234.92388155425121
 40
241.99494936611671
 40
241.99494936611671
 40
513.49494936611666
 40
513.49494936611666
 40
520.56601717798208
 40
520.56601717798208
 40
780.56601717798208
 40
780.56601717798208
 40
787.63708498984761
 40
787.63708498984761
 40
1059.1370849898481
 40
1059.1370849898481
 40
1066.2081528017129
 40
1066.2081528017129
 40
1084.2081528017129
 40
1084.2081528017129
 40
1098.350288425444
 40
1098.350288425444
 40
1103.350288425444
 40
1103.350288425444
 40
1110.42135623731
 40
1110.42135623731
 40
1117.04635623731
 40
1117.04635623731
 40
1117.04635623731
 10
106.9999999999999
 20
31.5
 30
0.0
 10
109.4999999999999
 20
34.0
 30
0.0
 10
111.9999999999999
 20
36.5
 30
0.0
 10
134.24999999999989
 20
36.5
 30
0.0
 10
156.49999999999989
 20
36.5
 30
0.0
 10
158.24999999999989
 20
36.5
 30
0.0
 10
159.99999999999989
 20
36.5
 30
0.0
 10
169.99999999999989
 20
26.5
 30
0.0
 10
179.99999999999989
 20
16.5
 30
0.0
 10
184.99999999999989
 20
16.5
 30
0.0
 10
189.99999999999989
 20
16.5
 30
0.0
 10
199.99999999999989
 20
26.5
 30
0.0
 10
209.99999999999989
 20
36.5
 30
0.0
 10
211.74999999999989
 20
36.5
 30
0.0
 10
213.49999999999989
 20
36.5
 30
0.0
 10
235.74999999999989
 20
36.5
 30
0.0
 10
257.99999999999989
 20
36.5
 30
0.0
 10
260.49999999999989
 20
34.0
 30
0.0
 10
262.99999999999989
 20
31.5
 30
0.0
 10
263.99999999999989
 20
31.5
 30
0.0
 10
264.99999999999989
 20
31.5
 30
0.0
 10
269.99999999999989
 20
31.5
 30
0.0
 10
274.99999999999989
 20
31.5
 30
0.0
 10
275.99999999999989
 20
31.5
 30
0.0
 10
276.99999999999989
 20
31.5
 30
0.0
 10
279.49999999999989
 20
34.0
 30
0.0
 10
281.99999999999989
 20
36.5
 30
0.0
 10
284.49999999999989
 20
36.5
 30
0.0
 10
286.99999999999989
 20
36.5
 30
0.0
 10
291.99999999999989
 20
41.5
 30
0.0
 10
296.99999999999989
 20
46.5
 30
0.0
 10
305.99999999999989
 20
46.5
 30
0.0
 10
314.99999999999989
 20
46.5
 30
0.0
 10
317.49999999999989
 20
49.0
 30
0.0
 10
319.99999999999989
 20
51.5
 30
0.0
 10
319.99999999999989
 20
188.25
 30
0.0
 10
319.99999999999989
 20
325.0
 30
0.0
 10
317.49999999999989
 20
327.5
 30
0.0
 10
314.99999999999989
 20
330.0
 30
0.0
 10
184.99999999999989
 20
330.0
 30
0.0
 10
54.999999999999893
 20
330.0
 30
0.0
 10
52.499999999999893
 20
327.5
 30
0.0
 10
49.999999999999893
 20
325.0
 30
0.0
 10
49.999999999999893
 20
188.25
 30
0.0
 10
49.999999999999893
 20
51.5
 30
0.0
 10
52.499999999999893
 20
49.0
 30
0.0
 10
54.999999999999893
 20
46.5
 30
0.0
 10
63.999999999999893
 20
46.5
 30
0.0
 10
72.999999999999886
 20
46.5
 30
0.0
 10
77.999999999999886
 20
41.5
 30
0.0
 10
82.999999999999886
 20
36.5
 30
0.0
 10
85.499999999999886
 20
36.5
 30
0.0
 10
87.999999999999886
 20
36.5
 30
0.0
 10
90.499999999999886
 20
34.0
 30
0.0
 10
92.999999999999886
 20
31.5
 30
0.0
 10
99.999999999999858
 20
31.5
 30
0.0
 10
106.9999999999999
 20
31.5
 30
0.0
  0
CIRCLE
  5
176
100
AcDbEntity
  8
0
 62
256
370
-1
 48
1.0
  6
ByLayer
100
AcDbCircle
 10
25.999999999999861
 20
7.0
 30
0.0
 40
1.6000000000000001
  0
CIRCLE
  5
177
100
AcDbEntity
  8
0
 62
256
370
-1
 48
1.0
  6
ByLayer
100
AcDbCircle
 10
152.99999999999989
 20
13.0
 30
0.0
 40
1.6000000000000001
  0
CIRCLE
  5
178
100
AcDbEntity
  8
0
 62
256
370
-1
 48
1.0
  6
ByLayer
100
AcDbCircle
 10
152.99999999999989
 20
4.0
 30
0.0
 40
1.6000000000000001
  0
LINE
  5
179
100
AcDbEntity
  8
0
 62
256
370
-1
 48
1.0
  6
ByLayer
100
AcDbLine
 10
251.49999999999989
 20
210.01470900000001
 30
0.0
 11
251.49999999999989
 21
159.9852909999999
 31
0.0
  0
LINE
  5
17A
100
AcDbEntity
  8
0
 62
256
370
-1
 48
1.0
  6
ByLayer
100
AcDbLine
 10
196.99999999999989
 20
193.51473999999999
 30
0.0
 11
196.99999999999989
 21
176.48526000000001
 31
0.0
  0
LINE
  5
17B
100
AcDbEntity
  8
0
 62
256
370
-1
 48
1.0
  6
ByLayer
100
AcDbLine
 10
63.999999999996447
 20
188.7391049999965
 30
0.0
 11
63.999999999996447
 21
181.26089500000339
 31
0.0
  0
LINE
  5
17C
100
AcDbEntity
  8
0
 62
256
370
-1
 48
1.0
  6
ByLayer
100
AcDbLine
 10
101.4999999999999
 20
189.5
 30
0.0
 11
101.4999999999999
 21
180.5
 31
0.0
  0
LINE
  5
17D
100
AcDbEntity
  8
0
 62
256
370
-1
 48
1.0
  6
ByLayer
100
AcDbLine
 10
161.99999999999989
 20
192.97703218002931
 30
0.0
 11
161.99999999999989
 21
177.0229678199708
 31
0.0
  0
CIRCLE
  5
17E
100
AcDbEntity
  8
znaceniB
 62
256
370
-1
 48
1.0
  6
ByLayer
100
AcDbCircle
 10
119.9999999999999
 20
20.0
 30
0.0
 40
1.6000000000000001
  0
CIRCLE
  5
17F
100
AcDbEntity
  8
znaceniB
 62
256
370
-1
 48
1.0
  6
ByLayer
100
AcDbCircle
 10
99.999999999999858
 20
240.0
 30
0.0
 40
1.6000000000000001
  0
CIRCLE
  5
180
100
AcDbEntity
  8
znaceniA
 62
256
370
-1
 48
1.0
  6
ByLayer
100
AcDbCircle
 10
99.999999999999858
 20
250.0
 30
0.0
 40
1.6000000000000001
  0
CIRCLE
  5
181
100
AcDbEntity
  8
znaceniA
 62
256
370
-1
 48
1.0
  6
ByLayer
100
AcDbCircle
 10
119.9999999999999
 20
30.0
 30
0.0
 40
1.6000000000000001
  0
LINE
  5
182
100
AcDbEntity
  8
0
 62
256
370
-1
 48
1.0
  6
ByLayer
100
AcDbLine
 10
102.10000015707951
 20
142.75
 30
0.0
 11
102.0000000130898
 21
142.75
 31
0.0
  0
LINE
  5
183
100
AcDbEntity
  8
0
 62
256
370
-1
 48
1.0
  6
ByLayer
100
AcDbLine
 10
272.10000015707948
 20
177.75
 30
0.0
 11
272.00000001308979
 21
177.75
 31
0.0
  0
LINE
  5
184
100
AcDbEntity
  8
0
 62
256
370
-1
 48
1.0
  6
ByLayer
100
AcDbLine
 10
102.10000015707951
 20
212.75
 30
0.0
 11
102.0000000130898
 21
212.75
 31
0.0
  0
LINE
  5
185
100
AcDbEntity
  8
0
 62
256
370
-1
 48
1.0
  6
ByLayer
100
AcDbLine
 10
90.899999842920209
 20
142.75
 30
0.0
 11
90.999999986909884
 21
142.75
 31
0.0
  0
LINE
  5
186
100
AcDbEntity
  8
0
 62
256
370
-1
 48
1.0
  6
ByLayer
100
AcDbLine
 10
260.89999984292018
 20
177.75
 30
0.0
 11
260.99999998690993
 21
177.75
 31
0.0
  0
LINE
  5
187
100
AcDbEntity
  8
0
 62
256
370
-1
 48
1.0
  6
ByLayer
100
AcDbLine
 10
90.899999842920209
 20
212.75
 30
0.0
 11
90.999999986909884
 21
212.75
 31
0.0
  0
LINE
  5
188
100
AcDbEntity
  8
0
 62
256
370
-1
 48
1.0
  6
ByLayer
100
AcDbLine
 10
102.0000000130898
 20
142.75
 30
0.0
 11
101.5000000130898
 21
143.25
 31
0.0
  0
LINE
  5
189
100
AcDbEntity
  8
0
 62
256
370
-1
 48
1.0
  6
ByLayer
100
AcDbLine
 10
272.00000001308979
 20
177.75
 30
0.0
 11
271.50000001308979
 21
178.25
 31
0.0
  0
LINE
  5
18A
100
AcDbEntity
  8
0
 62
256
370
-1
 48
1.0
  6
ByLayer
100
AcDbLine
 10
102.0000000130898
 20
212.75
 30
0.0
 11
101.5000000130898
 21
213.25
 31
0.0
  0
LINE
  5
18B
100
AcDbEntity
  8
0
 62
256
370
-1
 48
1.0
  6
ByLayer
100
AcDbLine
 10
90.999999986909884
 20
142.75
 30
0.0
 11
91.499999986909884
 21
143.25
 31
0.0
  0
LINE
  5
18C
100
AcDbEntity
  8
0
 62
256
370
-1
 48
1.0
  6
ByLayer
100
AcDbLine
 10
260.99999998690993
 20
177.75
 30
0.0
 11
261.49999998690993
 21
178.25
 31
0.0
  0
LINE
  5
18D
100
AcDbEntity
  8
0
 62
256
370
-1
 48
1.0
  6
ByLayer
100
AcDbLine
 10
90.999999986909884
 20
212.75
 30
0.0
 11
91.499999986909884
 21
213.25
 31
0.0
  0
LINE
  5
18E
100
AcDbEntity
  8
0
 62
256
370
-1
 48
1.0
  6
ByLayer
100
AcDbLine
 10
102.10000015707951
 20
157.25
 30
0.0
 11
102.0000000130898
 21
157.25
 31
0.0
  0
LINE
  5
18F
100
AcDbEntity
  8
0
 62
256
370
-1
 48
1.0
  6
ByLayer
100
AcDbLine
 10
272.10000015707948
 20
192.25
 30
0.0
 11
272.00000001308979
 21
192.25
 31
0.0
  0
LINE
  5
190
100
AcDbEntity
  8
0
 62
256
370
-1
 48
1.0
  6
ByLayer
100
AcDbLine
 10
102.10000015707951
 20
227.25
 30
0.0
 11
102.0000000130898
 21
227.25
 31
0.0
  0
LINE
  5
191
100
AcDbEntity
  8
0
 62
256
370
-1
 48
1.0
  6
ByLayer
100
AcDbLine
 10
90.899999842920238
 20
157.25
 30
0.0
 11
90.99999998690987
 21
157.25
 31
0.0
  0
LINE
  5
192
100
AcDbEntity
  8
0
 62
256
370
-1
 48
1.0
  6
ByLayer
100
AcDbLine
 10
260.89999984292018
 20
192.25
 30
0.0
 11
260.99999998690993
 21
192.25
 31
0.0
  0
LINE
  5
193
100
AcDbEntity
  8
0
 62
256
370
-1
 48
1.0
  6
ByLayer
100
AcDbLine
 10
90.899999842920238
 20
227.25
 30
0.0
 11
90.99999998690987
 21
227.25
 31
0.0
  0
LINE
  5
194
100
AcDbEntity
  8
0
 62
256
370
-1
 48
1.0
  6
ByLayer
100
AcDbLine
 10
101.5000000130898
 20
156.75
 30
0.0
 11
102.0000000130898
 21
157.25
 31
0.0
  0
LINE
  5
195
100
AcDbEntity
  8
0
 62
256
370
-1
 48
1.0
  6
ByLayer
100
AcDbLine
 10
271.50000001308979
 20
191.75
 30
0.0
 11
272.00000001308979
 21
192.25
 31
0.0
  0
LINE
  5
196
100
AcDbEntity
  8
0
 62
256
370
-1
 48
1.0
  6
ByLayer
100
AcDbLine
 10
101.5000000130898
 20
226.75
 30
0.0
 11
102.0000000130898
 21
227.25
 31
0.0
  0
LINE
  5
197
100
AcDbEntity
  8
0
 62
256
370
-1
 48
1.0
  6
ByLayer
100
AcDbLine
 10
91.49999998690987
 20
156.75
 30
0.0
 11
90.99999998690987
 21
157.25
 31
0.0
  0
LINE
  5
198
100
AcDbEntity
  8
0
 62
256
370
-1
 48
1.0
  6
ByLayer
100
AcDbLine
 10
261.49999998690993
 20
191.75
 30
0.0
 11
260.99999998690993
 21
192.25
 31
0.0
  0
LINE
  5
199
100
AcDbEntity
  8
0
 62
256
370
-1
 48
1.0
  6
ByLayer
100
AcDbLine
 10
91.49999998690987
 20
226.75
 30
0.0
 11
90.99999998690987
 21
227.25
 31
0.0
  0
LINE
  5
19A
100
AcDbEntity
  8
0
 62
256
370
-1
 48
1.0
  6
ByLayer
100
AcDbLine
 10
90.899999842920209
 20
163.25
 30
0.0
 11
102.10000015707951
 21
163.25
 31
0.0
  0
LINE
  5
19B
100
AcDbEntity
  8
0
 62
256
370
-1
 48
1.0
  6
ByLayer
100
AcDbLine
 10
260.89999984292018
 20
198.25
 30
0.0
 11
272.10000015707948
 21
198.25
 31
0.0
  0
LINE
  5
19C
100
AcDbEntity
  8
0
 62
256
370
-1
 48
1.0
  6
ByLayer
100
AcDbLine
 10
90.899999842920209
 20
233.25
 30
0.0
 11
102.10000015707951
 21
233.25
 31
0.0
  0
LINE
  5
19D
100
AcDbEntity
  8
0
 62
256
370
-1
 48
1.0
  6
ByLayer
100
AcDbLine
 10
90.899999842920238
 20
136.75
 30
0.0
 11
102.10000015707951
 21
136.75
 31
0.0
  0
LINE
  5
19E
100
AcDbEntity
  8
0
 62
256
370
-1
 48
1.0
  6
ByLayer
100
AcDbLine
 10
260.89999984292018
 20
171.75
 30
0.0
 11
272.10000015707948
 21
171.75
 31
0.0
  0
LINE
  5
19F
100
AcDbEntity
  8
0
 62
256
370
-1
 48
1.0
  6
ByLayer
100
AcDbLine
 10
90.899999842920238
 20
206.75
 30
0.0
 11
102.10000015707951
 21
206.75
 31
0.0
  0
ENDSEC
  0
SECTION
  2
OBJECTS
  0
DICTIONARY
  5
C
100
AcDbDictionary
280
0
281
1
  3
ACAD_GROUP
350
D
  3
ACAD_LAYOUT
350
1A
  3
ACAD_MLINESTYLE
350
17
  3
ACAD_PLOTSETTINGS
350
19
  3
ACAD_PLOTSTYLENAME
350
E
  3
AcDbVariableDictionary
350
1A0
  3
QCAD_OBJECTS
350
1A1
  0
DICTIONARY
  5
D
100
AcDbDictionary
280
0
281
1
  0
ACDBDICTIONARYWDFLT
  5
E
100
AcDbDictionary
281
1
  3
Normal
350
F
100
AcDbDictionaryWithDefault
340
F
  0
ACDBPLACEHOLDER
  5
F
  0
DICTIONARY
  5
17
100
AcDbDictionary
280
0
281
1
  3
Standard
350
18
  0
MLINESTYLE
  5
18
100
AcDbMlineStyle
  2
STANDARD
 70
0
  3

 62
256
 51
90.0
 52
90.0
 71
2
 49
0.5
 62
256
  6
BYLAYER
 49
-0.5
 62
256
  6
BYLAYER
  0
DICTIONARY
  5
19
100
AcDbDictionary
280
0
281
1
  0
DICTIONARY
  5
1A
100
AcDbDictionary
281
1
  3
Layout1
350
1E
  3
Layout2
350
26
  3
Model
350
22
  0
LAYOUT
  5
1E
100
AcDbPlotSettings
  1

  2
none_device
  4

  6

 40
0.0
 41
0.0
 42
0.0
 43
0.0
 44
0.0
 45
0.0
 46
0.0
 47
0.0
 48
0.0
 49
0.0
140
0.0
141
0.0
142
1.0
143
1.0
 70
688
 72
0
 73
0
 74
5
  7

 75
16
147
1.0
148
0.0
149
0.0
100
AcDbLayout
  1
Layout1
 70
1
 71
1
 10
0.0
 20
0.0
 11
420.0
 21
297.0
 12
0.0
 22
0.0
 32
0.0
 14
100000000000000000000.0
 24
100000000000000000000.0
 34
100000000000000000000.0
 15
-100000000000000000000.0
 25
-100000000000000000000.0
 35
-100000000000000000000.0
146
0.0
 13
0.0
 23
0.0
 33
0.0
 16
1.0
 26
0.0
 36
0.0
 17
0.0
 27
1.0
 37
0.0
 76
0
330
1B
  0
LAYOUT
  5
22
100
AcDbPlotSettings
  1

  2
none_device
  4

  6

 40
0.0
 41
0.0
 42
0.0
 43
0.0
 44
0.0
 45
0.0
 46
0.0
 47
0.0
 48
0.0
 49
0.0
140
0.0
141
0.0
142
1.0
143
1.0
 70
1712
 72
0
 73
0
 74
0
  7

 75
0
147
1.0
148
0.0
149
0.0
100
AcDbLayout
  1
Model
 70
1
 71
0
 10
0.0
 20
0.0
 11
12.0
 21
9.0
 12
0.0
 22
0.0
 32
0.0
 14
0.0
 24
0.0
 34
0.0
 15
0.0
 25
0.0
 35
0.0
146
0.0
 13
0.0
 23
0.0
 33
0.0
 16
1.0
 26
0.0
 36
0.0
 17
0.0
 27
1.0
 37
0.0
 76
0
330
1F
  0
LAYOUT
  5
26
100
AcDbPlotSettings
  1

  2
none_device
  4

  6

 40
0.0
 41
0.0
 42
0.0
 43
0.0
 44
0.0
 45
0.0
 46
0.0
 47
0.0
 48
0.0
 49
0.0
140
0.0
141
0.0
142
1.0
143
1.0
 70
688
 72
0
 73
0
 74
5
  7

 75
16
147
1.0
148
0.0
149
0.0
100
AcDbLayout
  1
Layout2
 70
1
 71
2
 10
0.0
 20
0.0
 11
12.0
 21
9.0
 12
0.0
 22
0.0
 32
0.0
 14
0.0
 24
0.0
 34
0.0
 15
0.0
 25
0.0
 35
0.0
146
0.0
 13
0.0
 23
0.0
 33
0.0
 16
1.0
 26
0.0
 36
0.0
 17
0.0
 27
1.0
 37
0.0
 76
0
330
23
  0
DICTIONARY
  5
1A0
100
AcDbDictionary
281
1
  3
DIMASSOC
350
1A3
  3
HIDETEXT
350
1A2
  0
DICTIONARYVAR
  5
1A2
100
DictionaryVariables
280
0
  1
2
  0
DICTIONARYVAR
  5
1A3
100
DictionaryVariables
280
0
  1
1
  0
DICTIONARY
  5
1A1
100
AcDbDictionary
281
1
  3
ColorSettings/BackgroundColor
350
1A4
  3
ColorSettings/ColorMode
350
1A5
  3
Grid/DisplayGrid00
350
1A6
  3
Grid/DisplayGrid01
350
1A7
  3
Grid/DisplayGrid02
350
1A8
  3
Grid/DisplayGrid03
350
1A9
  3
Grid/GridSpacingX00
350
1AA
  3
Grid/GridSpacingX01
350
1AB
  3
Grid/GridSpacingX02
350
1AC
  3
Grid/GridSpacingX03
350
1AD
  3
Grid/GridSpacingY00
350
1AE
  3
Grid/GridSpacingY01
350
1AF
  3
Grid/GridSpacingY02
350
1B0
  3
Grid/GridSpacingY03
350
1B1
  3
Grid/IsometricGrid00
350
1B2
  3
Grid/IsometricGrid01
350
1B3
  3
Grid/IsometricGrid02
350
1B4
  3
Grid/IsometricGrid03
350
1B5
  3
Grid/IsometricProjection00
350
1B6
  3
Grid/IsometricProjection01
350
1B7
  3
Grid/IsometricProjection02
350
1B8
  3
Grid/IsometricProjection03
350
1B9
  3
Grid/MetaGridSpacingX00
350
1BA
  3
Grid/MetaGridSpacingX01
350
1BB
  3
Grid/MetaGridSpacingX02
350
1BC
  3
Grid/MetaGridSpacingX03
350
1BD
  3
Grid/MetaGridSpacingY00
350
1BE
  3
Grid/MetaGridSpacingY01
350
1BF
  3
Grid/MetaGridSpacingY02
350
1C0
  3
Grid/MetaGridSpacingY03
350
1C1
  3
MultiPageSettings/Columns
350
1C2
  3
MultiPageSettings/GlueMarginsBottom
350
1C3
  3
MultiPageSettings/GlueMarginsLeft
350
1C4
  3
MultiPageSettings/GlueMarginsRight
350
1C5
  3
MultiPageSettings/GlueMarginsTop
350
1C6
  3
MultiPageSettings/PrintCropMarks
350
1C7
  3
MultiPageSettings/Rows
350
1C8
  3
PageSettings/OffsetX
350
1C9
  3
PageSettings/OffsetY
350
1CA
  3
PageSettings/PageOrientation
350
1CB
  3
PageSettings/PaperHeight
350
1CC
  3
PageSettings/PaperWidth
350
1CD
  3
PageSettings/Scale
350
1CE
  3
PageSettings/ShowPaperBorders
350
1CF
  3
QCADVersion
350
1D0
  3
UnitSettings/PaperUnit
350
1D1
  3
ViewportCenter
350
1D2
  3
ViewportHeight
350
1D3
  3
ViewportWidth
350
1D4
  0
XRECORD
  5
1A4
330
1A1
100
AcDbXrecord
280
1
1000
#ffffff
  0
XRECORD
  5
1A5
330
1A1
100
AcDbXrecord
280
1
1000
FullColor
  0
XRECORD
  5
1A6
330
1A1
100
AcDbXrecord
280
1
290
1
  0
XRECORD
  5
1A7
330
1A1
100
AcDbXrecord
280
1
290
1
  0
XRECORD
  5
1A8
330
1A1
100
AcDbXrecord
280
1
290
1
  0
XRECORD
  5
1A9
330
1A1
100
AcDbXrecord
280
1
290
1
  0
XRECORD
  5
1AA
330
1A1
100
AcDbXrecord
280
1
1000
auto
  0
XRECORD
  5
1AB
330
1A1
100
AcDbXrecord
280
1
1000
auto
  0
XRECORD
  5
1AC
330
1A1
100
AcDbXrecord
280
1
1000
auto
  0
XRECORD
  5
1AD
330
1A1
100
AcDbXrecord
280
1
1000
auto
  0
XRECORD
  5
1AE
330
1A1
100
AcDbXrecord
280
1
1000
auto
  0
XRECORD
  5
1AF
330
1A1
100
AcDbXrecord
280
1
1000
auto
  0
XRECORD
  5
1B0
330
1A1
100
AcDbXrecord
280
1
1000
auto
  0
XRECORD
  5
1B1
330
1A1
100
AcDbXrecord
280
1
1000
auto
  0
XRECORD
  5
1B2
330
1A1
100
AcDbXrecord
280
1
290
0
  0
XRECORD
  5
1B3
330
1A1
100
AcDbXrecord
280
1
290
0
  0
XRECORD
  5
1B4
330
1A1
100
AcDbXrecord
280
1
290
0
  0
XRECORD
  5
1B5
330
1A1
100
AcDbXrecord
280
1
290
0
  0
XRECORD
  5
1B6
330
1A1
100
AcDbXrecord
280
1
 90
4097
  0
XRECORD
  5
1B7
330
1A1
100
AcDbXrecord
280
1
 90
4097
  0
XRECORD
  5
1B8
330
1A1
100
AcDbXrecord
280
1
 90
4097
  0
XRECORD
  5
1B9
330
1A1
100
AcDbXrecord
280
1
 90
4097
  0
XRECORD
  5
1BA
330
1A1
100
AcDbXrecord
280
1
1000
auto
  0
XRECORD
  5
1BB
330
1A1
100
AcDbXrecord
280
1
1000
auto
  0
XRECORD
  5
1BC
330
1A1
100
AcDbXrecord
280
1
1000
auto
  0
XRECORD
  5
1BD
330
1A1
100
AcDbXrecord
280
1
1000
auto
  0
XRECORD
  5
1BE
330
1A1
100
AcDbXrecord
280
1
1000
auto
  0
XRECORD
  5
1BF
330
1A1
100
AcDbXrecord
280
1
1000
auto
  0
XRECORD
  5
1C0
330
1A1
100
AcDbXrecord
280
1
1000
auto
  0
XRECORD
  5
1C1
330
1A1
100
AcDbXrecord
280
1
1000
auto
  0
XRECORD
  5
1C2
330
1A1
100
AcDbXrecord
280
1
 90
1
  0
XRECORD
  5
1C3
330
1A1
100
AcDbXrecord
280
1
 40
10.0
  0
XRECORD
  5
1C4
330
1A1
100
AcDbXrecord
280
1
 40
10.0
  0
XRECORD
  5
1C5
330
1A1
100
AcDbXrecord
280
1
 40
10.0
  0
XRECORD
  5
1C6
330
1A1
100
AcDbXrecord
280
1
 40
10.0
  0
XRECORD
  5
1C7
330
1A1
100
AcDbXrecord
280
1
290
0
  0
XRECORD
  5
1C8
330
1A1
100
AcDbXrecord
280
1
 90
1
  0
XRECORD
  5
1C9
330
1A1
100
AcDbXrecord
280
1
 40
-67.85153088382198
  0
XRECORD
  5
1CA
330
1A1
100
AcDbXrecord
280
1
 40
-181.19240904835499
  0
XRECORD
  5
1CB
330
1A1
100
AcDbXrecord
280
1
1000
Portrait
  0
XRECORD
  5
1CC
330
1A1
100
AcDbXrecord
280
1
 40
297.0
  0
XRECORD
  5
1CD
330
1A1
100
AcDbXrecord
280
1
 40
210.0
  0
XRECORD
  5
1CE
330
1A1
100
AcDbXrecord
280
1
1000
0.41443391760819126
  0
XRECORD
  5
1CF
330
1A1
100
AcDbXrecord
280
1
290
1
  0
XRECORD
  5
1D0
330
1A1
100
AcDbXrecord
280
1
1000
3.18.0
  0
XRECORD
  5
1D1
330
1A1
100
AcDbXrecord
280
1
 90
4
  0
XRECORD
  5
1D3
330
1A1
100
AcDbXrecord
280
1
 40
648.57906139380418
  0
XRECORD
  5
1D4
330
1A1
100
AcDbXrecord
280
1
 40
1296.5491283637646
  0
ENDSEC
  0
EOF
