  0
SECTION
  2
HEADER
  9
$ACADVER
  1
AC1024
  9
$ACADMAINTVER
 70
     6
  9
$DWGCODEPAGE
  3
ASCII
  9
$INSBASE
 10
0.0
 20
0.0
 30
0.0
  9
$EXTMIN
 10
1.000000000000000E+20
 20
1.000000000000000E+20
 30
1.000000000000000E+20
  9
$EXTMAX
 10
-1.000000000000000E+20
 20
-1.000000000000000E+20
 30
-1.000000000000000E+20
  9
$LIMMIN
 10
0.0
 20
0.0
  9
$LIMMAX
 10
12.0
 20
9.0
  9
$ORTHOMODE
 70
     0
  9
$REGENMODE
 70
     1
  9
$FILLMODE
 70
     1
  9
$QTEXTMODE
 70
     0
  9
$MIRRTEXT
 70
     1
  9
$LTSCALE
 40
1.0
  9
$ATTMODE
 70
     1
  9
$TEXTSIZE
 40
0.2
  9
$TRACEWID
 40
0.05
  9
$TEXTSTYLE
  7
Standard
  9
$CLAYER
  8
0
  9
$CELTYPE
  6
ByLayer
  9
$CECOLOR
 62
   178
  9
$CELTSCALE
 40
1.0
  9
$DISPSILH
 70
     0
  9
$DIMSCALE
 40
1.0
  9
$DIMASZ
 40
2.5
  9
$DIMEXO
 40
0.625
  9
$DIMDLI
 40
0.38
  9
$DIMRND
 40
0.0
  9
$DIMDLE
 40
0.0
  9
$DIMEXE
 40
1.25
  9
$DIMTP
 40
0.0
  9
$DIMTM
 40
0.0
  9
$DIMTXT
 40
2.5
  9
$DIMCEN
 40
0.09
  9
$DIMTSZ
 40
0.0
  9
$DIMTOL
 70
     0
  9
$DIMLIM
 70
     0
  9
$DIMTIH
 70
     1
  9
$DIMTOH
 70
     1
  9
$DIMSE1
 70
     0
  9
$DIMSE2
 70
     0
  9
$DIMTAD
 70
     0
  9
$DIMZIN
 70
     8
  9
$DIMBLK
  1

  9
$DIMASO
 70
     1
  9
$DIMSHO
 70
     1
  9
$DIMPOST
  1

  9
$DIMAPOST
  1

  9
$DIMALT
 70
     0
  9
$DIMALTD
 70
     2
  9
$DIMALTF
 40
25.4
  9
$DIMLFAC
 40
1.0
  9
$DIMTOFL
 70
     0
  9
$DIMTVP
 40
0.0
  9
$DIMTIX
 70
     0
  9
$DIMSOXD
 70
     0
  9
$DIMSAH
 70
     0
  9
$DIMBLK1
  1

  9
$DIMBLK2
  1

  9
$DIMSTYLE
  2
Standard
  9
$DIMCLRD
 70
   178
  9
$DIMCLRE
 70
   178
  9
$DIMCLRT
 70
   178
  9
$DIMTFAC
 40
1.0
  9
$DIMGAP
 40
0.625
  9
$DIMJUST
 70
     0
  9
$DIMSD1
 70
     0
  9
$DIMSD2
 70
     0
  9
$DIMTOLJ
 70
     1
  9
$DIMTZIN
 70
     0
  9
$DIMALTZ
 70
     0
  9
$DIMALTTZ
 70
     0
  9
$DIMUPT
 70
     0
  9
$DIMDEC
 70
     4
  9
$DIMTDEC
 70
     4
  9
$DIMALTU
 70
     2
  9
$DIMALTTD
 70
     2
  9
$DIMTXSTY
  7
Standard
  9
$DIMAUNIT
 70
     0
  9
$DIMADEC
 70
     0
  9
$DIMALTRND
 40
0.0
  9
$DIMAZIN
 70
     2
  9
$DIMDSEP
 70
    46
  9
$DIMATFIT
 70
     3
  9
$DIMFRAC
 70
     0
  9
$DIMLDRBLK
  1

  9
$DIMLUNIT
 70
     2
  9
$DIMLWD
 70
    -2
  9
$DIMLWE
 70
    -2
  9
$DIMTMOVE
 70
     0
  9
$DIMFXL
 40
1.0
  9
$DIMFXLON
 70
     0
  9
$DIMJOGANG
 40
0.7853981633974483
  9
$DIMTFILL
 70
     0
  9
$DIMTFILLCLR
 70
     0
  9
$DIMARCSYM
 70
     0
  9
$DIMLTYPE
  6

  9
$DIMLTEX1
  6

  9
$DIMLTEX2
  6

  9
$DIMTXTDIRECTION
 70
     0
  9
$LUNITS
 70
     2
  9
$LUPREC
 70
     4
  9
$SKETCHINC
 40
0.1
  9
$FILLETRAD
 40
0.5
  9
$AUNITS
 70
     0
  9
$AUPREC
 70
     0
  9
$MENU
  1
.
  9
$ELEVATION
 40
0.0
  9
$PELEVATION
 40
0.0
  9
$THICKNESS
 40
0.0
  9
$LIMCHECK
 70
     0
  9
$CHAMFERA
 40
0.5
  9
$CHAMFERB
 40
0.5
  9
$CHAMFERC
 40
1.0
  9
$CHAMFERD
 40
0.0
  9
$SKPOLY
 70
     0
  9
$TDCREATE
 40
2457247.434467581
  9
$TDUCREATE
 40
2457247.392800926
  9
$TDUPDATE
 40
2457247.434479155
  9
$TDUUPDATE
 40
2457247.3928125
  9
$TDINDWG
 40
0.0000000116
  9
$TDUSRTIMER
 40
0.0000000116
  9
$USRTIMER
 70
     1
  9
$ANGBASE
 50
0.0
  9
$ANGDIR
 70
     0
  9
$PDMODE
 70
     0
  9
$PDSIZE
 40
0.0
  9
$PLINEWID
 40
0.0
  9
$SPLFRAME
 70
     0
  9
$SPLINETYPE
 70
     6
  9
$SPLINESEGS
 70
     8
  9
$HANDSEED
  5
31C
  9
$SURFTAB1
 70
     6
  9
$SURFTAB2
 70
     6
  9
$SURFTYPE
 70
     6
  9
$SURFU
 70
     6
  9
$SURFV
 70
     6
  9
$UCSBASE
  2

  9
$UCSNAME
  2

  9
$UCSORG
 10
0.0
 20
0.0
 30
0.0
  9
$UCSXDIR
 10
1.0
 20
0.0
 30
0.0
  9
$UCSYDIR
 10
0.0
 20
1.0
 30
0.0
  9
$UCSORTHOREF
  2

  9
$UCSORTHOVIEW
 70
     0
  9
$UCSORGTOP
 10
0.0
 20
0.0
 30
0.0
  9
$UCSORGBOTTOM
 10
0.0
 20
0.0
 30
0.0
  9
$UCSORGLEFT
 10
0.0
 20
0.0
 30
0.0
  9
$UCSORGRIGHT
 10
0.0
 20
0.0
 30
0.0
  9
$UCSORGFRONT
 10
0.0
 20
0.0
 30
0.0
  9
$UCSORGBACK
 10
0.0
 20
0.0
 30
0.0
  9
$PUCSBASE
  2

  9
$PUCSNAME
  2

  9
$PUCSORG
 10
0.0
 20
0.0
 30
0.0
  9
$PUCSXDIR
 10
1.0
 20
0.0
 30
0.0
  9
$PUCSYDIR
 10
0.0
 20
1.0
 30
0.0
  9
$PUCSORTHOREF
  2

  9
$PUCSORTHOVIEW
 70
     0
  9
$PUCSORGTOP
 10
0.0
 20
0.0
 30
0.0
  9
$PUCSORGBOTTOM
 10
0.0
 20
0.0
 30
0.0
  9
$PUCSORGLEFT
 10
0.0
 20
0.0
 30
0.0
  9
$PUCSORGRIGHT
 10
0.0
 20
0.0
 30
0.0
  9
$PUCSORGFRONT
 10
0.0
 20
0.0
 30
0.0
  9
$PUCSORGBACK
 10
0.0
 20
0.0
 30
0.0
  9
$USERI1
 70
     0
  9
$USERI2
 70
     0
  9
$USERI3
 70
     0
  9
$USERI4
 70
     0
  9
$USERI5
 70
     0
  9
$USERR1
 40
0.0
  9
$USERR2
 40
0.0
  9
$USERR3
 40
0.0
  9
$USERR4
 40
0.0
  9
$USERR5
 40
0.0
  9
$WORLDVIEW
 70
     1
  9
$SHADEDGE
 70
     3
  9
$SHADEDIF
 70
    70
  9
$TILEMODE
 70
     1
  9
$MAXACTVP
 70
    64
  9
$PINSBASE
 10
0.0
 20
0.0
 30
0.0
  9
$PLIMCHECK
 70
     0
  9
$PEXTMIN
 10
1.000000000000000E+20
 20
1.000000000000000E+20
 30
1.000000000000000E+20
  9
$PEXTMAX
 10
-1.000000000000000E+20
 20
-1.000000000000000E+20
 30
-1.000000000000000E+20
  9
$PLIMMIN
 10
0.0
 20
0.0
  9
$PLIMMAX
 10
12.0
 20
9.0
  9
$UNITMODE
 70
     0
  9
$VISRETAIN
 70
     1
  9
$PLINEGEN
 70
     0
  9
$PSLTSCALE
 70
     1
  9
$TREEDEPTH
 70
  3020
  9
$CMLSTYLE
  2
Standard
  9
$CMLJUST
 70
     0
  9
$CMLSCALE
 40
1.0
  9
$PROXYGRAPHICS
 70
     1
  9
$MEASUREMENT
 70
     1
  9
$CELWEIGHT
370
    -1
  9
$ENDCAPS
280
     0
  9
$JOINSTYLE
280
     0
  9
$LWDISPLAY
290
     0
  9
$INSUNITS
 70
     4
  9
$HYPERLINKBASE
  1

  9
$STYLESHEET
  1

  9
$XEDIT
290
     1
  9
$CEPSNTYPE
380
     0
  9
$PSTYLEMODE
290
     1
  9
$FINGERPRINTGUID
  2
{7E7962D8-69ED-E250-8AD1-DB11ED75CF2D}
  9
$VERSIONGUID
  2
{FAEB1C32-E019-11D5-929B-00C0DF256EC4}
  9
$EXTNAMES
290
     1
  9
$PSVPSCALE
 40
0.0
  9
$OLESTARTUP
290
     0
  9
$SORTENTS
280
   127
  9
$INDEXCTL
280
     0
  9
$HIDETEXT
280
     1
  9
$XCLIPFRAME
280
     2
  9
$HALOGAP
280
     0
  9
$OBSCOLOR
 70
   257
  9
$OBSLTYPE
280
     0
  9
$INTERSECTIONDISPLAY
280
     0
  9
$INTERSECTIONCOLOR
 70
   257
  9
$DIMASSOC
280
     2
  9
$PROJECTNAME
  1

  9
$CAMERADISPLAY
290
     0
  9
$LENSLENGTH
 40
50.0
  9
$CAMERAHEIGHT
 40
0.0
  9
$STEPSPERSEC
 40
2.0
  9
$STEPSIZE
 40
6.0
  9
$3DDWFPREC
 40
2.0
  9
$PSOLWIDTH
 40
0.25
  9
$PSOLHEIGHT
 40
4.0
  9
$LOFTANG1
 40
1.570796326794897
  9
$LOFTANG2
 40
1.570796326794897
  9
$LOFTMAG1
 40
0.0
  9
$LOFTMAG2
 40
0.0
  9
$LOFTPARAM
 70
     7
  9
$LOFTNORMALS
280
     1
  9
$LATITUDE
 40
37.795
  9
$LONGITUDE
 40
-122.394
  9
$NORTHDIRECTION
 40
0.0
  9
$TIMEZONE
 70
 -8000
  9
$LIGHTGLYPHDISPLAY
280
     1
  9
$TILEMODELIGHTSYNCH
280
     1
  9
$SOLIDHIST
280
     1
  9
$SHOWHIST
280
     1
  9
$DWFFRAME
280
     2
  9
$DGNFRAME
280
     2
  9
$REALWORLDSCALE
290
     1
  9
$INTERFERECOLOR
 62
   256
  9
$CSHADOW
280
     0
  9
$SHADOWPLANELOCATION
 40
0.0
  0
ENDSEC
  0
SECTION
  2
CLASSES
  0
CLASS
  1
ACDBDICTIONARYWDFLT
  2
AcDbDictionaryWithDefault
  3
ObjectDBX Classes
 90
        0
 91
        4
280
     0
281
     0
  0
CLASS
  1
VISUALSTYLE
  2
AcDbVisualStyle
  3
ObjectDBX Classes
 90
     4095
 91
        4
280
     0
281
     0
  0
CLASS
  1
MATERIAL
  2
AcDbMaterial
  3
ObjectDBX Classes
 90
     1153
 91
        4
280
     0
281
     0
  0
CLASS
  1
IMAGEDEF
  2
AcDbRasterImageDef
  3
ISM
 90
        0
 91
        4
280
     0
281
     0
  0
CLASS
  1
IMAGE
  2
AcDbRasterImage
  3
ISM
 90
      127
 91
        5
280
     0
281
     1
  0
CLASS
  1
IMAGEDEF_REACTOR
  2
AcDbRasterImageDefReactor
  3
ISM
 90
        1
 91
        4
280
     0
281
     0
  0
ENDSEC
  0
SECTION
  2
TABLES
  0
TABLE
  2
VPORT
  5
2AB
330
0
100
AcDbSymbolTable
 70
     1
  0
VPORT
  5
2CB
330
2AB
100
AcDbSymbolTableRecord
100
AcDbViewportTableRecord
  2
*Active
 70
     0
 10
0.0
 20
0.0
 11
1.0
 21
1.0
 12
10.42990654205607
 22
4.5
 13
0.0
 23
0.0
 14
0.5
 24
0.5
 15
0.5
 25
0.5
 16
0.0
 26
0.0
 36
1.0
 17
0.0
 27
0.0
 37
0.0
 40
9.0
 41
1.972972972850329
 42
50.0
 43
0.0
 44
0.0
 50
0.0
 51
0.0
 71
     0
 72
   100
 73
     1
 74
     3
 75
     0
 76
     0
 77
     0
 78
     0
281
     0
 65
     1
110
0.0
120
0.0
130
0.0
111
1.0
121
0.0
131
0.0
112
0.0
122
1.0
132
0.0
 79
     0
146
0.0
 60
     3
 61
     5
292
     1
282
     1
141
0.0
142
0.0
 63
   250
  0
ENDTAB
  0
TABLE
  2
LTYPE
  5
2A8
330
0
100
AcDbSymbolTable
 70
    19
  0
LTYPE
  5
2B6
330
2A8
100
AcDbSymbolTableRecord
100
AcDbLinetypeTableRecord
  2
ByBlock
 70
     0
  3

 72
    65
 73
     0
 40
0.0
  0
LTYPE
  5
2B7
330
2A8
100
AcDbSymbolTableRecord
100
AcDbLinetypeTableRecord
  2
ByLayer
 70
     0
  3

 72
    65
 73
     0
 40
0.0
  0
LTYPE
  5
2B8
330
2A8
100
AcDbSymbolTableRecord
100
AcDbLinetypeTableRecord
  2
Continuous
 70
     0
  3
Solid line
 72
    65
 73
     0
 40
0.0
  0
LTYPE
  5
2F9
330
2A8
100
AcDbSymbolTableRecord
100
AcDbLinetypeTableRecord
  2
BORDER
 70
     0
  3

 72
    65
 73
     6
 40
42.00000000000001
 49
12.0
 74
     0
 49
-6.0
 74
     0
 49
12.0
 74
     0
 49
-5.95
 74
     0
 49
0.1
 74
     0
 49
-5.95
 74
     0
  0
LTYPE
  5
2FA
330
2A8
100
AcDbSymbolTableRecord
100
AcDbLinetypeTableRecord
  2
BORDER2
 70
     0
  3

 72
    65
 73
     6
 40
21.0
 49
6.0
 74
     0
 49
-3.0
 74
     0
 49
6.0
 74
     0
 49
-2.95
 74
     0
 49
0.1
 74
     0
 49
-2.95
 74
     0
  0
LTYPE
  5
2FB
330
2A8
100
AcDbSymbolTableRecord
100
AcDbLinetypeTableRecord
  2
BORDERX2
 70
     0
  3

 72
    65
 73
     6
 40
84.0
 49
24.0
 74
     0
 49
-12.0
 74
     0
 49
24.0
 74
     0
 49
-11.95
 74
     0
 49
0.1
 74
     0
 49
-11.95
 74
     0
  0
LTYPE
  5
2FC
330
2A8
100
AcDbSymbolTableRecord
100
AcDbLinetypeTableRecord
  2
CENTER
 70
     0
  3

 72
    65
 73
     4
 40
50.0
 49
32.0
 74
     0
 49
-6.0
 74
     0
 49
6.0
 74
     0
 49
-6.0
 74
     0
  0
LTYPE
  5
2FD
330
2A8
100
AcDbSymbolTableRecord
100
AcDbLinetypeTableRecord
  2
CENTER2
 70
     0
  3

 72
    65
 73
     4
 40
25.0
 49
16.0
 74
     0
 49
-3.0
 74
     0
 49
3.0
 74
     0
 49
-3.0
 74
     0
  0
LTYPE
  5
2FE
330
2A8
100
AcDbSymbolTableRecord
100
AcDbLinetypeTableRecord
  2
CENTERX2
 70
     0
  3

 72
    65
 73
     4
 40
100.0
 49
64.0
 74
     0
 49
-12.0
 74
     0
 49
12.0
 74
     0
 49
-12.0
 74
     0
  0
LTYPE
  5
2FF
330
2A8
100
AcDbSymbolTableRecord
100
AcDbLinetypeTableRecord
  2
DASHDOT
 70
     0
  3

 72
    65
 73
     4
 40
24.0
 49
12.0
 74
     0
 49
-5.95
 74
     0
 49
0.1
 74
     0
 49
-5.95
 74
     0
  0
LTYPE
  5
300
330
2A8
100
AcDbSymbolTableRecord
100
AcDbLinetypeTableRecord
  2
DASHDOT2
 70
     0
  3

 72
    65
 73
     4
 40
12.0
 49
6.0
 74
     0
 49
-2.95
 74
     0
 49
0.1
 74
     0
 49
-2.95
 74
     0
  0
LTYPE
  5
301
330
2A8
100
AcDbSymbolTableRecord
100
AcDbLinetypeTableRecord
  2
DASHDOTX2
 70
     0
  3

 72
    65
 73
     4
 40
48.0
 49
24.0
 74
     0
 49
-11.95
 74
     0
 49
0.1
 74
     0
 49
-11.95
 74
     0
  0
LTYPE
  5
302
330
2A8
100
AcDbSymbolTableRecord
100
AcDbLinetypeTableRecord
  2
DASHED
 70
     0
  3

 72
    65
 73
     2
 40
18.0
 49
12.0
 74
     0
 49
-6.0
 74
     0
  0
LTYPE
  5
303
330
2A8
100
AcDbSymbolTableRecord
100
AcDbLinetypeTableRecord
  2
DASHED2
 70
     0
  3

 72
    65
 73
     2
 40
9.0
 49
6.0
 74
     0
 49
-3.0
 74
     0
  0
LTYPE
  5
304
330
2A8
100
AcDbSymbolTableRecord
100
AcDbLinetypeTableRecord
  2
DASHEDX2
 70
     0
  3

 72
    65
 73
     2
 40
36.0
 49
24.0
 74
     0
 49
-12.0
 74
     0
  0
LTYPE
  5
305
330
2A8
100
AcDbSymbolTableRecord
100
AcDbLinetypeTableRecord
  2
DIVIDE
 70
     0
  3

 72
    65
 73
     6
 40
29.99999999999999
 49
12.0
 74
     0
 49
-5.9
 74
     0
 49
0.15
 74
     0
 49
-5.9
 74
     0
 49
0.15
 74
     0
 49
-5.9
 74
     0
  0
LTYPE
  5
306
330
2A8
100
AcDbSymbolTableRecord
100
AcDbLinetypeTableRecord
  2
DIVIDE2
 70
     0
  3

 72
    65
 73
     6
 40
15.0
 49
6.0
 74
     0
 49
-2.9
 74
     0
 49
0.15
 74
     0
 49
-2.9
 74
     0
 49
0.15
 74
     0
 49
-2.9
 74
     0
  0
LTYPE
  5
307
330
2A8
100
AcDbSymbolTableRecord
100
AcDbLinetypeTableRecord
  2
DIVIDEX2
 70
     0
  3

 72
    65
 73
     6
 40
59.99999999999999
 49
24.0
 74
     0
 49
-11.9
 74
     0
 49
0.15
 74
     0
 49
-11.9
 74
     0
 49
0.15
 74
     0
 49
-11.9
 74
     0
  0
LTYPE
  5
308
330
2A8
100
AcDbSymbolTableRecord
100
AcDbLinetypeTableRecord
  2
DOT
 70
     0
  3

 72
    65
 73
     2
 40
6.3
 49
0.1
 74
     0
 49
-6.2
 74
     0
  0
LTYPE
  5
309
330
2A8
100
AcDbSymbolTableRecord
100
AcDbLinetypeTableRecord
  2
DOT2
 70
     0
  3

 72
    65
 73
     2
 40
3.2
 49
0.1
 74
     0
 49
-3.1
 74
     0
  0
LTYPE
  5
30A
330
2A8
100
AcDbSymbolTableRecord
100
AcDbLinetypeTableRecord
  2
DOTX2
 70
     0
  3

 72
    65
 73
     2
 40
12.5
 49
0.1
 74
     0
 49
-12.4
 74
     0
  0
ENDTAB
  0
TABLE
  2
LAYER
  5
2A5
330
0
100
AcDbSymbolTable
 70
    13
  0
LAYER
  5
2B3
330
2A5
100
AcDbSymbolTableRecord
100
AcDbLayerTableRecord
  2
0
 70
     1
 62
     7
420
 16777215
  6
Continuous
370
    25
390
2B2
347
2E0
  0
LAYER
  5
30B
330
2A5
100
AcDbSymbolTableRecord
100
AcDbLayerTableRecord
  2
Pins
 70
     1
 62
   178
420
        0
  6
Continuous
370
    25
390
2B2
347
2E0
  0
LAYER
  5
30C
330
2A5
100
AcDbSymbolTableRecord
100
AcDbLayerTableRecord
  2
Ziptie-cutout
 70
     0
 62
   178
420
        0
  6
Continuous
370
    25
390
2B2
347
2E0
  0
LAYER
  5
30D
330
2A5
100
AcDbSymbolTableRecord
100
AcDbLayerTableRecord
  2
guides
 70
     1
 62
     6
420
 16711935
  6
Continuous
370
    25
390
2B2
347
2E0
  0
LAYER
  5
30E
330
2A5
100
AcDbSymbolTableRecord
100
AcDbLayerTableRecord
  2
OLD
 70
     1
 62
   178
420
        0
  6
Continuous
370
    25
390
2B2
347
2E0
  0
LAYER
  5
30F
330
2A5
100
AcDbSymbolTableRecord
100
AcDbLayerTableRecord
  2
pillar
 70
     0
 62
   178
420
        0
  6
Continuous
370
    25
390
2B2
347
2E0
  0
LAYER
  5
310
330
2A5
100
AcDbSymbolTableRecord
100
AcDbLayerTableRecord
  2
Holes-thru
 70
     0
 62
   178
420
        0
  6
Continuous
370
    25
390
2B2
347
2E0
  0
LAYER
  5
311
330
2A5
100
AcDbSymbolTableRecord
100
AcDbLayerTableRecord
  2
FAN
 70
     1
 62
   178
420
        0
  6
Continuous
370
    25
390
2B2
347
2E0
  0
LAYER
  5
312
330
2A5
100
AcDbSymbolTableRecord
100
AcDbLayerTableRecord
  2
holes
 70
     1
 62
   178
420
        0
  6
Continuous
370
    25
390
2B2
347
2E0
  0
LAYER
  5
313
330
2A5
100
AcDbSymbolTableRecord
100
AcDbLayerTableRecord
  2
Funnel
 70
     0
 62
   178
420
        0
  6
Continuous
370
    25
390
2B2
347
2E0
  0
LAYER
  5
314
330
2A5
100
AcDbSymbolTableRecord
100
AcDbLayerTableRecord
  2
Top
 70
     0
 62
   178
420
        0
  6
Continuous
370
    25
390
2B2
347
2E0
  0
LAYER
  5
315
330
2A5
100
AcDbSymbolTableRecord
100
AcDbLayerTableRecord
  2
nozzle
 70
     0
 62
     3
420
    65280
  6
Continuous
370
    25
390
2B2
347
2E0
  0
LAYER
  5
316
330
2A5
100
AcDbSymbolTableRecord
100
AcDbLayerTableRecord
  2
Base
 70
     0
 62
   178
420
        0
  6
Continuous
370
    25
390
2B2
347
2E0
  0
ENDTAB
  0
TABLE
  2
STYLE
  5
2A6
330
0
100
AcDbSymbolTable
 70
     1
  0
STYLE
  5
2B4
330
2A6
100
AcDbSymbolTableRecord
100
AcDbTextStyleTableRecord
  2
Standard
 70
     0
 40
0.0
 41
1.0
 50
0.0
 71
     0
 42
0.2
  3
txt
  4

  0
ENDTAB
  0
TABLE
  2
VIEW
  5
2A9
330
0
100
AcDbSymbolTable
 70
     0
  0
ENDTAB
  0
TABLE
  2
UCS
  5
2AA
330
0
100
AcDbSymbolTable
 70
     0
  0
ENDTAB
  0
TABLE
  2
APPID
  5
2AC
330
0
100
AcDbSymbolTable
 70
     2
  0
APPID
  5
2B5
330
2AC
100
AcDbSymbolTableRecord
100
AcDbRegAppTableRecord
  2
ACAD
 70
     0
  0
APPID
  5
2E1
330
2AC
100
AcDbSymbolTableRecord
100
AcDbRegAppTableRecord
  2
QCAD
 70
     0
  0
ENDTAB
  0
TABLE
  2
DIMSTYLE
  5
2AD
330
0
100
AcDbSymbolTable
 70
     2
100
AcDbDimStyleTable
  0
DIMSTYLE
105
2C9
330
2AD
100
AcDbSymbolTableRecord
100
AcDbDimStyleTableRecord
  2
Standard
 70
     0
178
     0
340
2B4
  0
DIMSTYLE
105
2F8
330
2AD
100
AcDbSymbolTableRecord
100
AcDbDimStyleTableRecord
  2
QCADDimStyle
 70
     0
 41
2.5
 42
0.625
 44
1.25
 73
     0
 77
     1
140
2.5
147
0.625
178
     0
340
2B4
  0
ENDTAB
  0
TABLE
  2
BLOCK_RECORD
  5
2A4
330
0
100
AcDbSymbolTable
 70
     1
  0
BLOCK_RECORD
  5
2C1
330
2A4
100
AcDbSymbolTableRecord
100
AcDbBlockTableRecord
  2
*Model_Space
340
2C4
 70
     0
280
     1
281
     0
  0
BLOCK_RECORD
  5
2BD
330
2A4
100
AcDbSymbolTableRecord
100
AcDbBlockTableRecord
  2
*Paper_Space
340
2C0
 70
     0
280
     1
281
     0
  0
BLOCK_RECORD
  5
2C5
330
2A4
100
AcDbSymbolTableRecord
100
AcDbBlockTableRecord
  2
*Paper_Space0
340
2C8
 70
     0
280
     1
281
     0
  0
ENDTAB
  0
ENDSEC
  0
SECTION
  2
BLOCKS
  0
BLOCK
  5
2C2
330
2C1
100
AcDbEntity
  8
0
100
AcDbBlockBegin
  2
*Model_Space
 70
     0
 10
0.0
 20
0.0
 30
0.0
  3
*Model_Space
  1

  0
ENDBLK
  5
2C3
330
2C1
100
AcDbEntity
  8
0
100
AcDbBlockEnd
  0
BLOCK
  5
2BE
330
2BD
100
AcDbEntity
 67
     1
  8
0
100
AcDbBlockBegin
  2
*Paper_Space
 70
     0
 10
0.0
 20
0.0
 30
0.0
  3
*Paper_Space
  1

  0
ENDBLK
  5
2BF
330
2BD
100
AcDbEntity
 67
     1
  8
0
100
AcDbBlockEnd
  0
BLOCK
  5
2C6
330
2C5
100
AcDbEntity
  8
0
100
AcDbBlockBegin
  2
*Paper_Space0
 70
     0
 10
0.0
 20
0.0
 30
0.0
  3
*Paper_Space0
  1

  0
ENDBLK
  5
2C7
330
2C5
100
AcDbEntity
  8
0
100
AcDbBlockEnd
  0
ENDSEC
  0
SECTION
  2
ENTITIES
  0
IMAGE
  5
1A4
330
2C1
100
AcDbEntity
  8
0
160
               140
310
8C00000001000000840000000600000005000000D2510DAFFE7E4EC0F2BDBE4952FA424000000000000000006C01CDD15B5B46C030FD8062FDA322C0000000000000000074681582972A1F405CE5B3077A84214000000000000000005F8DF6B33FF920C094F64B2470044C400000000000000000D2510DAFFE7E4EC0F2BDBE
310
4952FA42400000000000000000
100
AcDbRasterImage
 90
        0
 10
-60.99214733267185
 20
37.95563623250554
 30
0.0
 11
0.01818816505347241
 21
-0.05282226679325791
 31
0.0
 12
0.05282226679325776
 22
0.01818816505347284
 32
0.0
 13
895.0
 23
994.0
340
318
 70
     3
280
     0
281
    50
282
    50
283
     0
360
319
 71
     1
 91
        2
 14
-0.5
 24
-0.5
 14
894.5
 24
993.5
290
     0
  0
CIRCLE
  5
1A5
330
2C1
100
AcDbEntity
  8
Pins
100
AcDbCircle
 10
13.42293930558328
 20
45.66123045279156
 30
0.0
 40
2.0
  0
CIRCLE
  5
1A6
330
2C1
100
AcDbEntity
  8
Pins
100
AcDbCircle
 10
-29.11232569441671
 20
7.656865637232471
 30
0.0
 40
2.0
  0
LINE
  5
1A7
330
2C1
100
AcDbEntity
  8
OLD
100
AcDbLine
 10
0.0321943327651155
 20
0.6714578274606069
 30
0.0
 11
0.0321943327651368
 21
2.671457827460607
 31
0.0
  0
LINE
  5
1A8
330
2C1
100
AcDbEntity
  8
OLD
100
AcDbLine
 10
0.0321943327651368
 20
2.671457827460607
 30
0.0
 11
-1.967805667234863
 21
4.671457827460607
 31
0.0
  0
ARC
  5
1A9
330
2C1
100
AcDbEntity
  8
OLD
100
AcDbCircle
 10
-10.37270094767008
 20
20.7746221796607
 30
0.0
 40
18.164640564268
100
AcDbArc
 50
235.9725649217567
 51
297.5618843282947
  0
ARC
  5
1AA
330
2C1
100
AcDbEntity
  8
OLD
100
AcDbCircle
 10
-22.5543345601058
 20
3.85179902945216
 30
0.0
 40
2.749398526856232
100
AcDbArc
 50
42.8131854506573
 51
131.0609255374896
  0
LINE
  5
1AB
330
2C1
100
AcDbEntity
  8
OLD
100
AcDbLine
 10
-24.36030771879439
 20
5.924877226138328
 30
0.0
 11
-26.34912060683994
 21
4.484138338883021
 31
0.0
  0
ARC
  5
1AC
330
2C1
100
AcDbEntity
  8
OLD
100
AcDbCircle
 10
-28.42835025073894
 20
7.931878010038808
 30
0.0
 40
4.026177436741916
100
AcDbArc
 50
123.7010780293619
 51
301.092933774844
  0
LINE
  5
1AD
330
2C1
100
AcDbEntity
  8
OLD
100
AcDbLine
 10
-30.66231538820692
 20
11.28143089314236
 30
0.0
 11
-26.1018245309228
 21
14.81034041895742
 31
0.0
  0
LINE
  5
1AE
330
2C1
100
AcDbEntity
  8
OLD
100
AcDbLine
 10
12.42234360732152
 20
49.30202084154297
 30
0.0
 11
6.820868305583282
 21
45.44397044251355
 31
0.0
  0
LINE
  5
1AF
330
2C1
100
AcDbEntity
  8
guides
100
AcDbLine
 10
19.03219433276514
 20
-4.138031844558952
 30
0.0
 11
49.03219433276513
 21
-4.138031844558967
 31
0.0
  0
LINE
  5
1B0
330
2C1
100
AcDbEntity
  8
guides
100
AcDbLine
 10
0.0321943327651155
 20
-4.138031844558967
 30
0.0
 11
0.0321943327651262
 21
-21.13803184455897
 31
0.0
  0
LINE
  5
1B1
330
2C1
100
AcDbEntity
  8
guides
100
AcDbLine
 10
0.0321943327651262
 20
-21.13803184455897
 30
0.0
 11
50.03219433276513
 21
-21.13803184455897
 31
0.0
  0
LINE
  5
1B2
330
2C1
100
AcDbEntity
  8
guides
100
AcDbLine
 10
50.03219433276513
 20
-21.13803184455897
 30
0.0
 11
50.03219433276513
 21
-4.138031844558952
 31
0.0
  0
LINE
  5
1B3
330
2C1
100
AcDbEntity
  8
guides
100
AcDbLine
 10
50.03219433276513
 20
-4.138031844558952
 30
0.0
 11
0.0321943327651155
 21
-4.138031844558967
 31
0.0
  0
LINE
  5
1B4
330
2C1
100
AcDbEntity
  8
nozzle
100
AcDbLine
 10
54.0
 20
-23.86600094462628
 30
0.0
 11
68.0
 21
-23.86600094462628
 31
0.0
  0
LINE
  5
1B5
330
2C1
100
AcDbEntity
  8
nozzle
100
AcDbLine
 10
68.0
 20
-23.86600094462628
 30
0.0
 11
68.0
 21
-19.86600094462628
 31
0.0
  0
LINE
  5
1B6
330
2C1
100
AcDbEntity
  8
nozzle
100
AcDbLine
 10
68.0
 20
-19.86600094462628
 30
0.0
 11
54.0
 21
-19.86600094462628
 31
0.0
  0
LINE
  5
1B7
330
2C1
100
AcDbEntity
  8
nozzle
100
AcDbLine
 10
54.0
 20
-19.86600094462628
 30
0.0
 11
54.0
 21
-23.86600094462628
 31
0.0
  0
LINE
  5
1B8
330
2C1
100
AcDbEntity
  8
nozzle
100
AcDbLine
 10
58.0
 20
-23.86600094462628
 30
0.0
 11
60.0
 21
-25.86600094462628
 31
0.0
  0
LINE
  5
1B9
330
2C1
100
AcDbEntity
  8
nozzle
100
AcDbLine
 10
61.0
 20
-25.86600094462628
 30
0.0
 11
60.0
 21
-25.86600094462628
 31
0.0
  0
LINE
  5
1BA
330
2C1
100
AcDbEntity
  8
nozzle
100
AcDbLine
 10
64.0
 20
-23.86600094462628
 30
0.0
 11
62.0
 21
-25.86600094462628
 31
0.0
  0
LINE
  5
1BB
330
2C1
100
AcDbEntity
  8
nozzle
100
AcDbLine
 10
62.0
 20
-25.86600094462628
 30
0.0
 11
61.0
 21
-25.86600094462628
 31
0.0
  0
LINE
  5
1BC
330
2C1
100
AcDbEntity
  8
nozzle
100
AcDbLine
 10
60.19999999999999
 20
-25.86600094462628
 30
0.0
 11
61.09999999999999
 21
-26.86600094462628
 31
0.0
  0
LINE
  5
1BD
330
2C1
100
AcDbEntity
  8
nozzle
100
AcDbLine
 10
61.09999999999999
 20
-26.86600094462628
 30
0.0
 11
61.80000000000001
 21
-25.86600094462628
 31
0.0
  0
ARC
  5
1BE
330
2C1
100
AcDbEntity
  8
Base
100
AcDbCircle
 10
33.24045641260143
 20
-56.06074989096894
 30
0.0
 40
36.76660474271377
100
AcDbArc
 50
73.58991533481712
 51
88.87980780926948
  0
LINE
  5
1BF
330
2C1
100
AcDbEntity
  8
Base
100
AcDbLine
 10
43.62740101858873
 20
-20.7918598310437
 30
0.0
 11
49.16436363477968
 21
-16.44801503288021
 31
0.0
  0
CIRCLE
  5
1C0
330
2C1
100
AcDbEntity
  8
holes
100
AcDbCircle
 10
13.42293930558328
 20
45.66123045279156
 30
0.0
 40
1.35
  0
CIRCLE
  5
1C1
330
2C1
100
AcDbEntity
  8
holes
100
AcDbCircle
 10
-29.11232569441671
 20
7.656865637232471
 30
0.0
 40
1.35
  0
CIRCLE
  5
1C2
330
2C1
100
AcDbEntity
  8
OLD
100
AcDbCircle
 10
-28.13057261504839
 20
7.796508420271572
 30
0.0
 40
2.081540440789652
  0
CIRCLE
  5
1C3
330
2C1
100
AcDbEntity
  8
OLD
100
AcDbCircle
 10
14.42086830558328
 20
45.84397044251355
 30
0.0
 40
2.183688900295371
  0
ARC
  5
1C4
330
2C1
100
AcDbEntity
  8
OLD
100
AcDbCircle
 10
14.07847376220511
 20
45.8009013449493
 30
0.0
 40
3.873061427261787
100
AcDbArc
 50
359.69387543531
 51
115.3154949929479
  0
LINE
  5
1C6
330
2C1
100
AcDbEntity
  8
OLD
100
AcDbLine
 10
18.1331805616372
 20
38.19606823314427
 30
0.0
 11
17.95147990864994
 21
45.78020813486353
 31
0.0
  0
LINE
  5
1C7
330
2C1
100
AcDbEntity
  8
OLD
100
AcDbLine
 10
18.4446455586959
 20
25.19559700012545
 30
0.0
 11
19.03219433276501
 21
0.6714578274606069
 31
0.0
  0
ARC
  5
1C8
330
2C1
100
AcDbEntity
  8
OLD
100
AcDbCircle
 10
20.44407182098654
 20
25.24349920949473
 30
0.0
 40
2.0
100
AcDbArc
 50
90.00376204281689
 51
181.3724284512753
  0
ARC
  5
1C9
330
2C1
100
AcDbEntity
  8
OLD
100
AcDbCircle
 10
20.13260682392784
 20
38.24397044251356
 30
0.0
 40
2.0
100
AcDbArc
 50
181.3724284512753
 51
270.0
  0
LINE
  5
1CA
330
2C1
100
AcDbEntity
  8
guides
100
AcDbLine
 10
29.02086830558329
 20
-4.156029557486455
 30
0.0
 11
29.02086830558329
 21
-2.256029557486457
 31
0.0
  0
LINE
  5
1CB
330
2C1
100
AcDbEntity
  8
guides
100
AcDbLine
 10
38.02086830558328
 20
-4.138031844558959
 30
0.0
 11
38.02086830558328
 21
-2.256029557486457
 31
0.0
  0
CIRCLE
  5
1CC
330
2C1
100
AcDbEntity
  8
Holes-thru
100
AcDbCircle
 10
23.0
 20
32.02515992445169
 30
0.0
 40
1.6
  0
LINE
  5
1CD
330
2C1
100
AcDbEntity
  8
OLD
100
AcDbLine
 10
20.13260682392784
 20
36.24397044251356
 30
0.0
 11
24.0
 21
36.0
 31
0.0
  0
LINE
  5
1CE
330
2C1
100
AcDbEntity
  8
OLD
100
AcDbLine
 10
24.0
 20
28.0
 30
0.0
 11
20.44394050091912
 21
27.24349920518349
 31
0.0
  0
ARC
  5
1CF
330
2C1
100
AcDbEntity
  8
OLD
100
AcDbCircle
 10
22.83333333333334
 20
32.0
 30
0.0
 40
4.166666666666666
100
AcDbArc
 50
286.2602047083119
 51
73.73979529168807
  0
ARC
  5
1D0
330
2C1
100
AcDbEntity
  8
Base
100
AcDbCircle
 10
16.5519617534829
 20
-52.39211668594493
 30
0.0
 40
48.53397985033846
100
AcDbArc
 50
47.78226365310884
 51
79.73637781953957
  0
ARC
  5
1D1
330
2C1
100
AcDbEntity
  8
OLD
100
AcDbCircle
 10
-27.35333775424154
 20
5.342110330982638
 30
0.0
 40
1.320820963780766
100
AcDbArc
 50
265.5962228327161
 51
319.4904499310809
  0
ARC
  5
1D2
330
2C1
100
AcDbEntity
  8
OLD
100
AcDbCircle
 10
-22.55433456010581
 20
3.851799029452156
 30
0.0
 40
2.749398526856232
100
AcDbArc
 50
42.8131854506573
 51
131.0609255374896
  0
LINE
  5
1D3
330
2C1
100
AcDbEntity
  8
OLD
100
AcDbLine
 10
-24.3603077187944
 20
5.924877226138324
 30
0.0
 11
-26.34912060683995
 21
4.484138338883017
 31
0.0
  0
ARC
  5
1D4
330
2C1
100
AcDbEntity
  8
OLD
100
AcDbCircle
 10
-18.55025808454296
 20
4.699673574172103
 30
0.0
 40
2.233974458263123
100
AcDbArc
 50
152.8144322958693
 51
229.5373756531447
  0
LINE
  5
1D5
330
2C1
100
AcDbEntity
  8
OLD
100
AcDbLine
 10
-8.696661524522911
 20
-1.802423405459753
 30
0.0
 11
-9.0
 21
-1.0
 31
0.0
  0
LINE
  5
1D6
330
2C1
100
AcDbEntity
  8
OLD
100
AcDbLine
 10
-9.0
 20
-1.0
 30
0.0
 11
-10.14844654076929
 21
-1.185606846631268
 31
0.0
  0
LINE
  5
1D7
330
2C1
100
AcDbEntity
  8
OLD
100
AcDbLine
 10
-12.94057672997809
 20
0.0006790812685518
 30
0.0
 11
-11.67353771710473
 21
0.0151586354877873
 31
0.0
  0
LINE
  5
1D8
330
2C1
100
AcDbEntity
  8
OLD
100
AcDbLine
 10
-11.67353771710473
 20
0.0151586354877873
 30
0.0
 11
-11.47191113220425
 21
-0.6233094913858555
 31
0.0
  0
LINE
  5
1D9
330
2C1
100
AcDbEntity
  8
OLD
100
AcDbLine
 10
-6.177122213670174
 20
-2.872894274191694
 30
0.0
 11
-5.2118773526418
 21
-2.633062825357678
 31
0.0
  0
LINE
  5
1DA
330
2C1
100
AcDbEntity
  8
OLD
100
AcDbLine
 10
-5.2118773526418
 20
-2.633062825357678
 30
0.0
 11
-4.897174900335788
 21
-3.416702543637764
 31
0.0
  0
LINE
  5
1DB
330
2C1
100
AcDbEntity
  8
OLD
100
AcDbLine
 10
-14.98655281099592
 20
-4.040715127591239
 30
0.0
 11
-14.70120482316882
 21
-4.904686008699236
 31
0.0
  0
LINE
  5
1DC
330
2C1
100
AcDbEntity
  8
OLD
100
AcDbLine
 10
-14.70120482316882
 20
-4.904686008699236
 30
0.0
 11
-13.35583592792641
 21
-4.830364243968633
 31
0.0
  0
LINE
  5
1DD
330
2C1
100
AcDbEntity
  8
OLD
100
AcDbLine
 10
-11.6073588160774
 20
-5.654791961332061
 30
0.0
 11
-11.44707029208191
 21
-6.633444978339154
 31
0.0
  0
LINE
  5
1DE
330
2C1
100
AcDbEntity
  8
OLD
100
AcDbLine
 10
-11.44707029208191
 20
-6.633444978339154
 30
0.0
 11
-10.23516652739154
 21
-6.285894547397183
 31
0.0
  0
LINE
  5
1DF
330
2C1
100
AcDbEntity
  8
OLD
100
AcDbLine
 10
-7.167706252102988
 20
-7.646978505890186
 30
0.0
 11
-7.048904089909763
 21
-8.46389565207554
 31
0.0
  0
LINE
  5
1E0
330
2C1
100
AcDbEntity
  8
OLD
100
AcDbLine
 10
-7.048904089909763
 20
-8.46389565207554
 30
0.0
 11
-6.373165902360443
 21
-7.988485394030572
 31
0.0
  0
LINE
  5
1E1
330
2C1
100
AcDbEntity
  8
OLD
100
AcDbLine
 10
-28.36609818833314
 20
3.326860073637934
 30
0.0
 11
-14.98655281099592
 21
-4.040715127591234
 31
0.0
  0
LINE
  5
1E2
330
2C1
100
AcDbEntity
  8
OLD
100
AcDbLine
 10
-12.94057672997809
 20
0.0006790812685518
 30
0.0
 11
-20.0
 21
3.0
 31
0.0
  0
LINE
  5
1E3
330
2C1
100
AcDbEntity
  8
OLD
100
AcDbLine
 10
-2.272654784864184
 20
-4.531776365233537
 30
0.0
 11
0.811110979884982
 21
-5.837937863294697
 31
0.0
  0
LINE
  5
1E4
330
2C1
100
AcDbEntity
  8
OLD
100
AcDbLine
 10
-3.056974718709949
 20
-9.365678801802813
 30
0.0
 11
6.868787349086372
 21
-12.88892077795792
 31
0.0
  0
LINE
  5
1E5
330
2C1
100
AcDbEntity
  8
OLD
100
AcDbLine
 10
-13.35583592792641
 20
-4.830364243968633
 30
0.0
 11
-11.6073588160774
 21
-5.654791961332061
 31
0.0
  0
LINE
  5
1E6
330
2C1
100
AcDbEntity
  8
OLD
100
AcDbLine
 10
-10.23516652739154
 20
-6.285894547397183
 30
0.0
 11
-7.167706252102988
 21
-7.646978505890186
 31
0.0
  0
LINE
  5
1E7
330
2C1
100
AcDbEntity
  8
OLD
100
AcDbLine
 10
-6.373165902360443
 20
-7.988485394030572
 30
0.0
 11
-4.398095216045004
 21
-8.818013088840926
 31
0.0
  0
LINE
  5
1E8
330
2C1
100
AcDbEntity
  8
OLD
100
AcDbLine
 10
-3.532424440290555
 20
-3.996540930867566
 30
0.0
 11
-4.897174900335788
 21
-3.416702543637764
 31
0.0
  0
LINE
  5
1E9
330
2C1
100
AcDbEntity
  8
OLD
100
AcDbLine
 10
-6.177122213670174
 20
-2.872894274191694
 30
0.0
 11
-8.696661524522911
 21
-1.802423405459753
 31
0.0
  0
LINE
  5
1EA
330
2C1
100
AcDbEntity
  8
OLD
100
AcDbLine
 10
-10.14844654076929
 20
-1.185606846631268
 30
0.0
 11
-11.47191113220425
 21
-0.6233094913858555
 31
0.0
  0
LINE
  5
1EB
330
2C1
100
AcDbEntity
  8
OLD
100
AcDbLine
 10
-27.45475667187247
 20
4.025188836925635
 30
0.0
 11
-28.36609818833315
 21
3.326860073637933
 31
0.0
  0
LINE
  5
1EC
330
2C1
100
AcDbEntity
  8
OLD
100
AcDbLine
 10
-3.056974718709949
 20
-9.365678801802813
 30
0.0
 11
-3.900151530800505
 21
-9.645647905358608
 31
0.0
  0
LINE
  5
1ED
330
2C1
100
AcDbEntity
  8
OLD
100
AcDbLine
 10
-3.900151530800505
 20
-9.645647905358608
 30
0.0
 11
-4.398095216045004
 21
-8.818013088840926
 31
0.0
  0
LINE
  5
1EE
330
2C1
100
AcDbEntity
  8
OLD
100
AcDbLine
 10
-3.532424440290555
 20
-3.996540930867566
 30
0.0
 11
-2.76930255432684
 21
-3.770749564166153
 31
0.0
  0
LINE
  5
1EF
330
2C1
100
AcDbEntity
  8
OLD
100
AcDbLine
 10
-2.76930255432684
 20
-3.770749564166153
 30
0.0
 11
-2.272654784864184
 21
-4.531776365233537
 31
0.0
  0
LINE
  5
1F0
330
2C1
100
AcDbEntity
  8
OLD
100
AcDbLine
 10
-23.23264254270816
 20
-5.259189536010204
 30
0.0
 11
-23.23264254270816
 21
-5.259189536010204
 31
0.0
  0
ARC
  5
1F1
330
2C1
100
AcDbEntity
  8
OLD
100
AcDbCircle
 10
-9.853706955941124
 20
27.14879067612003
 30
0.0
 40
14.19518670257298
100
AcDbArc
 50
214.6942286566948
 51
51.18039193910564
  0
LINE
  5
1F2
330
2C1
100
AcDbEntity
  8
OLD
100
AcDbLine
 10
-26.1018245309228
 20
14.81034041895742
 30
0.0
 11
-21.52500904909386
 21
19.06893715199762
 31
0.0
  0
LINE
  5
1F3
330
2C1
100
AcDbEntity
  8
OLD
100
AcDbLine
 10
-0.9551634004311111
 20
38.20859393438806
 30
0.0
 11
6.820868305583282
 21
45.44397044251355
 31
0.0
  0
ARC
  5
1F4
330
2C1
100
AcDbEntity
  8
OLD
100
AcDbCircle
 10
30.35498850882025
 20
25.90354680461485
 30
0.0
 40
45.34817731795231
100
AcDbArc
 50
234.4671418215723
 51
274.5586443198248
  0
ARC
  5
1F5
330
2C1
100
AcDbEntity
  8
OLD
100
AcDbCircle
 10
14.47253836605774
 20
-0.9645315032517536
 30
0.0
 40
14.5046436625578
100
AcDbArc
 50
199.6327133980884
 51
223.7790881581519
  0
ARC
  5
1F6
330
2C1
100
AcDbEntity
  8
OLD
100
AcDbCircle
 10
30.35498850881615
 20
25.90354680460855
 30
0.0
 40
45.3481773179448
100
AcDbArc
 50
234.4671418215717
 51
238.8079457835263
  0
LINE
  5
1F7
330
2C1
100
AcDbEntity
  8
nozzle
100
AcDbLine
 10
18.0
 20
30.0
 30
0.0
 11
1.0
 21
30.0
 31
0.0
  0
LINE
  5
1F8
330
2C1
100
AcDbEntity
  8
nozzle
100
AcDbLine
 10
1.0
 20
30.0
 30
0.0
 11
1.0
 21
70.0
 31
0.0
  0
LINE
  5
1F9
330
2C1
100
AcDbEntity
  8
nozzle
100
AcDbLine
 10
1.0
 20
70.0
 30
0.0
 11
21.0
 21
70.0
 31
0.0
  0
LINE
  5
1FA
330
2C1
100
AcDbEntity
  8
nozzle
100
AcDbLine
 10
18.0
 20
70.0
 30
0.0
 11
18.0
 21
30.0
 31
0.0
  0
LINE
  5
1FB
330
2C1
100
AcDbEntity
  8
OLD
100
AcDbLine
 10
116.7272638437404
 20
32.82728970016415
 30
0.0
 11
113.1712043446595
 21
32.07078890534764
 31
0.0
  0
LINE
  5
1FC
330
2C1
100
AcDbEntity
  8
OLD
100
AcDbLine
 10
91.77210044330931
 20
43.03588363455221
 30
0.0
 11
99.5481321493237
 21
50.2712601426777
 31
0.0
  0
LINE
  5
1FD
330
2C1
100
AcDbEntity
  8
OLD
100
AcDbLine
 10
105.1496074510619
 20
54.12931054170712
 30
0.0
 11
99.5481321493237
 21
50.2712601426777
 31
0.0
  0
ARC
  5
1FE
330
2C1
100
AcDbEntity
  8
OLD
100
AcDbCircle
 10
115.5605971770738
 20
36.82728970016415
 30
0.0
 40
4.166666666666666
100
AcDbArc
 50
286.2602047083119
 51
73.73979529168807
  0
CIRCLE
  5
1FF
330
2C1
100
AcDbEntity
  8
FAN
100
AcDbCircle
 10
64.59669122869204
 20
12.62379812043572
 30
0.0
 40
2.081540440789652
  0
CIRCLE
  5
200
330
2C1
100
AcDbEntity
  8
FAN
100
AcDbCircle
 10
107.1481321493237
 20
50.6712601426777
 30
0.0
 40
2.183688900295371
  0
ARC
  5
201
330
2C1
100
AcDbEntity
  8
OLD
100
AcDbCircle
 10
106.8057376059455
 20
50.62819104511345
 30
0.0
 40
3.873061427261787
100
AcDbArc
 50
359.69387543531
 51
115.3154949929479
  0
LINE
  5
202
330
2C1
100
AcDbEntity
  8
OLD
100
AcDbLine
 10
110.8604444053776
 20
43.02335793330842
 30
0.0
 11
110.6787437523904
 21
50.60749783502768
 31
0.0
  0
LINE
  5
203
330
2C1
100
AcDbEntity
  8
OLD
100
AcDbLine
 10
111.1719094024363
 20
30.0228867002896
 30
0.0
 11
111.7594581765054
 21
5.498747527624758
 31
0.0
  0
ARC
  5
204
330
2C1
100
AcDbEntity
  8
OLD
100
AcDbCircle
 10
113.171335664727
 20
30.07078890965888
 30
0.0
 40
2.0
100
AcDbArc
 50
90.00376204281689
 51
181.3724284512753
  0
ARC
  5
205
330
2C1
100
AcDbEntity
  8
OLD
100
AcDbCircle
 10
112.8598706676683
 20
43.07126014267771
 30
0.0
 40
2.0
100
AcDbArc
 50
181.3724284512753
 51
270.0
  0
LINE
  5
206
330
2C1
100
AcDbEntity
  8
OLD
100
AcDbLine
 10
92.75945817650555
 20
5.498747527624758
 30
0.0
 11
92.75945817650556
 21
7.498747527624758
 31
0.0
  0
LINE
  5
207
330
2C1
100
AcDbEntity
  8
OLD
100
AcDbLine
 10
92.75945817650556
 20
7.498747527624758
 30
0.0
 11
90.75945817650556
 21
9.498747527624758
 31
0.0
  0
ARC
  5
208
330
2C1
100
AcDbEntity
  8
OLD
100
AcDbCircle
 10
82.35456289607035
 20
25.60191187982485
 30
0.0
 40
18.164640564268
100
AcDbArc
 50
235.9725649217567
 51
297.5618843282947
  0
CIRCLE
  5
209
330
2C1
100
AcDbEntity
  8
Holes-thru
100
AcDbCircle
 10
115.7272638437404
 20
36.85244962461584
 30
0.0
 40
1.6
  0
ARC
  5
20A
330
2C1
100
AcDbEntity
  8
OLD
100
AcDbCircle
 10
70.17292928363463
 20
8.67908872961631
 30
0.0
 40
2.749398526856232
100
AcDbArc
 50
42.8131854506573
 51
131.0609255374896
  0
LINE
  5
20B
330
2C1
100
AcDbEntity
  8
OLD
100
AcDbLine
 10
68.36695612494603
 20
10.75216692630248
 30
0.0
 11
66.37814323690048
 21
9.311428039047172
 31
0.0
  0
ARC
  5
20C
330
2C1
100
AcDbEntity
  8
OLD
100
AcDbCircle
 10
82.8735568877993
 20
31.97608037628418
 30
0.0
 40
14.19518670257298
100
AcDbArc
 50
214.6942286566948
 51
51.18039193910564
  0
ARC
  5
20D
330
2C1
100
AcDbEntity
  8
OLD
100
AcDbCircle
 10
64.29891359300149
 20
12.75916771020296
 30
0.0
 40
4.026177436741916
100
AcDbArc
 50
123.7010780293619
 51
301.092933774844
  0
LINE
  5
20E
330
2C1
100
AcDbEntity
  8
OLD
100
AcDbLine
 10
112.8598706676683
 20
41.07126014267771
 30
0.0
 11
116.7272638437404
 21
40.82728970016415
 31
0.0
  0
LINE
  5
20F
330
2C1
100
AcDbEntity
  8
OLD
100
AcDbLine
 10
66.62543931281762
 20
19.63763011912157
 30
0.0
 11
71.20225479464656
 21
23.89622685216177
 31
0.0
  0
LINE
  5
210
330
2C1
100
AcDbEntity
  8
OLD
100
AcDbLine
 10
62.0649484555335
 20
16.10872059330651
 30
0.0
 11
66.62543931281762
 21
19.63763011912157
 31
0.0
  0
LINE
  5
211
330
2C1
100
AcDbEntity
  8
Base
100
AcDbLine
 10
-24.62042924221902
 20
37.43729084850688
 30
0.0
 11
-19.78799413940428
 21
46.8958802403961
 31
0.0
  0
LINE
  5
212
330
2C1
100
AcDbEntity
  8
Base
100
AcDbLine
 10
-15.84386008328003
 20
53.15048485523771
 30
0.0
 11
-19.78799413940428
 21
46.8958802403961
 31
0.0
  0
CIRCLE
  5
213
330
2C1
100
AcDbEntity
  8
FAN
100
AcDbCircle
 10
-39.75541490166165
 20
-0.4352588463354969
 30
0.0
 40
2.081540440789652
  0
CIRCLE
  5
214
330
2C1
100
AcDbEntity
  8
FAN
100
AcDbCircle
 10
-12.78313827876165
 20
49.87111037798555
 30
0.0
 40
2.183688900295371
  0
ARC
  5
215
330
2C1
100
AcDbEntity
  8
Base
100
AcDbCircle
 10
-13.09015340564963
 20
50.42693857273821
 30
0.0
 40
3.873061427261787
100
AcDbArc
 50
19.69387543530997
 51
135.3154949929479
  0
LINE
  5
216
330
2C1
100
AcDbEntity
  8
Base
100
AcDbLine
 10
-6.678969235905512
 20
43.95411867723418
 30
0.0
 11
-9.443640614897575
 21
51.73213943322846
 31
0.0
  0
LINE
  5
217
330
2C1
100
AcDbEntity
  8
Base
100
AcDbLine
 10
-6.678969235905512
 20
43.95411867723418
 30
0.0
 11
-0.2655589404089147
 21
27.56581479786341
 31
0.0
  0
LINE
  5
218
330
2C1
100
AcDbEntity
  8
Base
100
AcDbLine
 10
-10.85415979493216
 20
2.50161727681234
 30
0.0
 11
-11.53820008158348
 21
4.381002518384157
 31
0.0
  0
LINE
  5
219
330
2C1
100
AcDbEntity
  8
Base
100
AcDbLine
 10
-11.53820008158348
 20
4.381002518384157
 30
0.0
 11
-14.10162560980663
 21
5.576347473304647
 31
0.0
  0
ARC
  5
21A
330
2C1
100
AcDbEntity
  8
Base
100
AcDbCircle
 10
-27.50725026304619
 20
17.83372869791808
 30
0.0
 40
18.164640564268
100
AcDbArc
 50
255.9725649217567
 51
317.5618843282946
  0
ARC
  5
21B
330
2C1
100
AcDbEntity
  8
Base
100
AcDbCircle
 10
-33.16629507846037
 20
-2.234887413263863
 30
0.0
 40
2.749398526856232
100
AcDbArc
 50
62.81318545065731
 51
151.0609255374896
  0
LINE
  5
21C
330
2C1
100
AcDbEntity
  8
Base
100
AcDbLine
 10
-35.57238923097339
 20
-0.9045103281026989
 30
0.0
 11
-36.94850030527977
 21
-2.938576097953089
 31
0.0
  0
ARC
  5
21D
330
2C1
100
AcDbEntity
  8
Base
100
AcDbCircle
 10
-29.19964946152724
 20
24.00099419712322
 30
0.0
 40
14.19518670257298
100
AcDbArc
 50
234.6942286566948
 51
71.18039193910563
  0
ARC
  5
21E
330
2C1
100
AcDbEntity
  8
Base
100
AcDbCircle
 10
-40.08153347504926
 20
-0.4098989913904703
 30
0.0
 40
4.026177436741916
100
AcDbArc
 50
143.7010780293619
 51
321.092933774844
  0
LINE
  5
21F
330
2C1
100
AcDbEntity
  8
Base
100
AcDbLine
 10
-40.24788712302797
 20
6.849460036765976
 30
0.0
 11
-37.40361325305524
 21
12.4165950487771
 31
0.0
  0
LINE
  5
220
330
2C1
100
AcDbEntity
  8
Base
100
AcDbLine
 10
-43.32638858697688
 20
1.97359005929275
 30
0.0
 11
-40.24788712302797
 21
6.849460036765976
 31
0.0
  0
LINE
  5
221
330
2C1
100
AcDbEntity
  8
Base
100
AcDbLine
 10
21.0
 20
35.0
 30
0.0
 11
25.0
 21
35.0
 31
0.0
  0
LINE
  5
222
330
2C1
100
AcDbEntity
  8
Base
100
AcDbLine
 10
27.0
 20
33.0
 30
0.0
 11
27.0
 21
30.0
 31
0.0
  0
ARC
  5
223
330
2C1
100
AcDbEntity
  8
Base
100
AcDbCircle
 10
25.0
 20
33.0
 30
0.0
 40
2.0
100
AcDbArc
 50
0.0
 51
90.0
  0
ARC
  5
224
330
2C1
100
AcDbEntity
  8
Base
100
AcDbCircle
 10
21.0
 20
33.0
 30
0.0
 40
2.0
100
AcDbArc
 50
90.0
 51
180.0
  0
LINE
  5
226
330
2C1
100
AcDbEntity
  8
Base
100
AcDbLine
 10
19.0
 20
33.0
 30
0.0
 11
19.0
 21
28.0
 31
0.0
  0
LINE
  5
230
330
2C1
100
AcDbEntity
  8
Top
100
AcDbLine
 10
-10.85415979493216
 20
2.50161727681234
 30
0.0
 11
7.0
 21
9.0
 31
0.0
  0
ARC
  5
231
330
2C1
100
AcDbEntity
  8
Base
100
AcDbCircle
 10
31.01689423421399
 20
31.60720950985564
 30
0.0
 40
50.99333941553413
100
AcDbArc
 50
214.8041072011198
 51
273.3078330643172
  0
ARC
  5
232
330
2C1
100
AcDbEntity
  8
Top
100
AcDbCircle
 10
33.24045641260142
 20
-56.06074989096894
 30
0.0
 40
36.76660474271377
100
AcDbArc
 50
73.58991533481712
 51
88.87980780926948
  0
LINE
  5
233
330
2C1
100
AcDbEntity
  8
Top
100
AcDbLine
 10
43.6274010185887
 20
-20.7918598310437
 30
0.0
 11
49.16436363477968
 21
-16.44801503288021
 31
0.0
  0
ARC
  5
234
330
2C1
100
AcDbEntity
  8
Top
100
AcDbCircle
 10
31.01689423421398
 20
31.60720950985564
 30
0.0
 40
50.99333941553413
100
AcDbArc
 50
214.8041072011198
 51
273.3078330643172
  0
ARC
  5
235
330
2C1
100
AcDbEntity
  8
Top
100
AcDbCircle
 10
16.55196175348289
 20
-52.39211668594493
 30
0.0
 40
48.53397985033846
100
AcDbArc
 50
47.78226365310884
 51
79.73637781953957
  0
ARC
  5
236
330
2C1
100
AcDbEntity
  8
Top
100
AcDbCircle
 10
36.760721284425
 20
29.76072128442498
 30
0.0
 40
36.28647240527527
100
AcDbArc
 50
214.8991641365265
 51
251.4213430561876
  0
LINE
  5
237
330
2C1
100
AcDbEntity
  8
Funnel
100
AcDbLine
 10
43.6274010185887
 20
-20.7918598310437
 30
0.0
 11
44.80756427951572
 21
-19.86600094462628
 31
0.0
  0
ARC
  5
238
330
2C1
100
AcDbEntity
  8
Funnel
100
AcDbCircle
 10
31.01689423421396
 20
31.60720950985563
 30
0.0
 40
50.99333941553413
100
AcDbArc
 50
214.8041072011198
 51
273.3078330643172
  0
ARC
  5
239
330
2C1
100
AcDbEntity
  8
Funnel
100
AcDbCircle
 10
16.55196175348287
 20
-52.39211668594493
 30
0.0
 40
48.53397985033846
100
AcDbArc
 50
47.78226365310884
 51
79.73637781953957
  0
ARC
  5
23A
330
2C1
100
AcDbEntity
  8
Funnel
100
AcDbCircle
 10
36.76072128442499
 20
29.76072128442498
 30
0.0
 40
36.28647240527527
100
AcDbArc
 50
214.8991641365265
 51
251.4213430561876
  0
LINE
  5
23B
330
2C1
100
AcDbEntity
  8
Funnel
100
AcDbLine
 10
-10.85415979493217
 20
2.50161727681234
 30
0.0
 11
-9.44462086375331
 21
3.014647491800842
 31
0.0
  0
ARC
  5
23C
330
2C1
100
AcDbEntity
  8
Funnel
100
AcDbCircle
 10
33.24045641260139
 20
-56.06074989096894
 30
0.0
 40
36.76660474271377
100
AcDbArc
 50
73.58991533481712
 51
88.87980780926948
  0
LINE
  5
23D
330
2C1
100
AcDbEntity
  8
Funnel
100
AcDbLine
 10
6.999999999999993
 20
8.999999999999993
 30
0.0
 11
5.59046106882113
 21
8.486969785011492
 31
0.0
  0
LINE
  5
23E
330
2C1
100
AcDbEntity
  8
Funnel
100
AcDbLine
 10
49.16436363477967
 20
-16.44801503288022
 30
0.0
 11
47.98420037385265
 21
-17.37387391929764
 31
0.0
  0
ARC
  5
23F
330
2C1
100
AcDbEntity
  8
Funnel
100
AcDbCircle
 10
31.68194696904529
 20
32.62270546975004
 30
0.0
 40
50.67575040323901
100
AcDbArc
 50
215.7510695878646
 51
272.6217868515583
  0
ARC
  5
240
330
2C1
100
AcDbEntity
  8
Funnel
100
AcDbCircle
 10
33.00091121402858
 20
-56.01735420886599
 30
0.0
 40
38.03047987397256
100
AcDbArc
 50
71.91350476259399
 51
88.49462437791004
  0
ARC
  5
241
330
2C1
100
AcDbEntity
  8
Funnel
100
AcDbCircle
 10
35.92947953059512
 20
29.45317788026818
 30
0.0
 40
36.87869199303942
100
AcDbArc
 50
214.6469607959366
 51
253.0626931792315
  0
ARC
  5
242
330
2C1
100
AcDbEntity
  8
Funnel
100
AcDbCircle
 10
17.79669662581928
 20
-48.69227710445355
 30
0.0
 40
43.49859492679634
100
AcDbArc
 50
46.05336979077512
 51
80.21975735302503
  0
LINE
  5
245
330
2C1
100
AcDbEntity
  8
pillar
100
AcDbLine
 10
-35.57238923097339
 20
-0.904510328102702
 30
0.0
 11
-36.94850030527977
 21
-2.938576097953094
 31
0.0
  0
ARC
  5
246
330
2C1
100
AcDbEntity
  8
pillar
100
AcDbCircle
 10
-40.08153347504927
 20
-0.4098989913904318
 30
0.0
 40
4.026177436741959
100
AcDbArc
 50
259.4658784990905
 51
321.0929337748437
  0
LINE
  5
24A
330
2C1
100
AcDbEntity
  8
pillar
100
AcDbLine
 10
25.0
 20
26.53589838486225
 30
0.0
 11
18.4142135623731
 21
26.535898
 31
0.0
  0
CIRCLE
  5
24C
330
2C1
100
AcDbEntity
  8
Holes-thru
100
AcDbCircle
 10
-13.090153
 20
50.42693873871783
 30
0.0
 40
1.6
  0
CIRCLE
  5
24D
330
2C1
100
AcDbEntity
  8
Holes-thru
100
AcDbCircle
 10
-40.08153347504926
 20
-0.4098989913904703
 30
0.0
 40
1.6
  0
LINE
  5
251
330
2C1
100
AcDbEntity
  8
Base
100
AcDbLine
 10
19.0
 20
28.0
 30
0.0
 11
18.4142135623731
 21
26.535898
 31
0.0
  0
LINE
  5
253
330
2C1
100
AcDbEntity
  8
Base
100
AcDbLine
 10
17.50703870814878
 20
25.14218606137958
 30
0.0
 11
18.4142135623731
 21
26.535898
 31
0.0
  0
LINE
  5
259
330
2C1
100
AcDbEntity
  8
pillar
100
AcDbLine
 10
-24.28592641721347
 20
-0.0429947017802021
 30
0.0
 11
-23.67224068395837
 21
-1.824294574741875
 31
0.0
  0
LINE
  5
25C
330
2C1
100
AcDbEntity
  8
pillar
100
AcDbLine
 10
-23.67224068395837
 20
-1.824294574741875
 30
0.0
 11
-20.75351237679543
 21
-2.517854283033639
 31
0.0
  0
LINE
  5
25F
330
2C1
100
AcDbEntity
  8
pillar
100
AcDbLine
 10
-26.23494588756138
 20
-7.551534886872044
 30
0.0
 11
-25.54756202124322
 21
-8.742118667638236
 31
0.0
  0
LINE
  5
260
330
2C1
100
AcDbEntity
  8
pillar
100
AcDbLine
 10
-24.75588945783114
 20
-7.874404859619002
 30
0.0
 11
-25.54756202124322
 21
-8.742118667638236
 31
0.0
  0
LINE
  5
261
330
2C1
100
AcDbEntity
  8
pillar
100
AcDbLine
 10
-21.82540575765548
 20
-8.514113509939857
 30
0.0
 11
-24.75588945783114
 21
-7.874404859619002
 31
0.0
  0
LINE
  5
262
330
2C1
100
AcDbEntity
  8
pillar
100
AcDbLine
 10
-26.23494588756138
 20
-7.551534886872044
 30
0.0
 11
-40.81760347533464
 21
-4.368220063108837
 31
0.0
  0
LINE
  5
263
330
2C1
100
AcDbEntity
  8
pillar
100
AcDbLine
 10
13.12089930847245
 20
-16.14270180279183
 30
0.0
 11
-5.490571985174257
 21
-12.07991886322783
 31
0.0
  0
LINE
  5
265
330
2C1
100
AcDbEntity
  8
pillar
100
AcDbLine
 10
-20.75351237679543
 20
-2.517854283033639
 30
0.0
 11
-19.60814837565693
 21
-1.957657181835504
 31
0.0
  0
LINE
  5
266
330
2C1
100
AcDbEntity
  8
pillar
100
AcDbLine
 10
-19.60814837565693
 20
-1.957657181835504
 30
0.0
 11
-19.28038905961531
 21
-2.867903643789091
 31
0.0
  0
LINE
  5
268
330
2C1
100
AcDbEntity
  8
pillar
100
AcDbLine
 10
-21.82540575765548
 20
-8.514113509939857
 30
0.0
 11
-21.13802189133732
 21
-9.70469729070605
 31
0.0
  0
LINE
  5
269
330
2C1
100
AcDbEntity
  8
pillar
100
AcDbLine
 10
-20.34634932792523
 20
-8.836983482686817
 30
0.0
 11
-21.13802189133732
 21
-9.70469729070605
 31
0.0
  0
LINE
  5
26A
330
2C1
100
AcDbEntity
  8
pillar
100
AcDbLine
 10
-11.37916854481041
 20
-10.79447026741306
 30
0.0
 11
-10.69178467849225
 21
-11.98505404817925
 31
0.0
  0
LINE
  5
26B
330
2C1
100
AcDbEntity
  8
pillar
100
AcDbLine
 10
-9.900112115080162
 20
-11.11734024016002
 30
0.0
 11
-10.69178467849225
 21
-11.98505404817925
 31
0.0
  0
LINE
  5
26C
330
2C1
100
AcDbEntity
  8
pillar
100
AcDbLine
 10
-6.969628414904506
 20
-11.75704889048087
 30
0.0
 11
-9.900112115080162
 21
-11.11734024016002
 31
0.0
  0
LINE
  5
26D
330
2C1
100
AcDbEntity
  8
pillar
100
AcDbLine
 10
-5.957327756284453
 20
-6.033781909475694
 30
0.0
 11
-4.303770281881746
 21
-5.172830224887477
 31
0.0
  0
LINE
  5
26F
330
2C1
100
AcDbEntity
  8
pillar
100
AcDbLine
 10
-6.969628414904506
 20
-11.75704889048087
 30
0.0
 11
-6.282244548586342
 21
-12.94763267124706
 31
0.0
  0
LINE
  5
270
330
2C1
100
AcDbEntity
  8
pillar
100
AcDbLine
 10
-10.34917938062752
 20
-4.99017284042848
 30
0.0
 11
-9.203815379489022
 21
-4.429975739230345
 31
0.0
  0
LINE
  5
271
330
2C1
100
AcDbEntity
  8
pillar
100
AcDbLine
 10
-5.490571985174257
 20
-12.07991886322783
 30
0.0
 11
-6.282244548586342
 21
-12.94763267124706
 31
0.0
  0
LINE
  5
272
330
2C1
100
AcDbEntity
  8
pillar
100
AcDbLine
 10
-9.203815379489022
 20
-4.429975739230345
 30
0.0
 11
-8.876056063447393
 21
-5.340222201183932
 31
0.0
  0
LINE
  5
273
330
2C1
100
AcDbEntity
  8
pillar
100
AcDbLine
 10
-8.876056063447393
 20
-5.340222201183932
 30
0.0
 11
-5.957327756284453
 21
-6.033781909475694
 31
0.0
  0
LINE
  5
275
330
2C1
100
AcDbEntity
  8
pillar
100
AcDbLine
 10
-11.37916854481041
 20
-10.79447026741306
 30
0.0
 11
-20.34634932792523
 21
-8.836983482686817
 31
0.0
  0
LINE
  5
276
330
2C1
100
AcDbEntity
  8
pillar
100
AcDbLine
 10
-19.28038905961531
 20
-2.867903643789091
 30
0.0
 11
-10.34917938062752
 21
-4.99017284042848
 31
0.0
  0
ARC
  5
277
330
2C1
100
AcDbEntity
  8
pillar
100
AcDbCircle
 10
31.01689423421409
 20
31.60720950985583
 30
0.0
 40
50.99333941553434
100
AcDbArc
 50
226.1595535099921
 51
249.4547086760813
  0
ARC
  5
278
330
2C1
100
AcDbEntity
  8
pillar
100
AcDbCircle
 10
-33.16629507846039
 20
-2.234887413263877
 30
0.0
 40
2.749398526856232
100
AcDbArc
 50
62.81318545065731
 51
151.0609255374896
  0
ARC
  5
279
330
2C1
100
AcDbEntity
  8
pillar
100
AcDbCircle
 10
-27.50725026304621
 20
17.83372869791853
 30
0.0
 40
18.16464056426845
100
AcDbArc
 50
255.972564921757
 51
280.2148812999365
  0
LINE
  5
27D
330
2C1
100
AcDbEntity
  8
Ziptie-cutout
100
AcDbLine
 10
-23.67224068395837
 20
-1.824294574741876
 30
0.0
 11
-24.75588945783114
 21
-7.874404859619004
 31
0.0
  0
LINE
  5
27F
330
2C1
100
AcDbEntity
  8
Ziptie-cutout
100
AcDbLine
 10
-21.82540575765548
 20
-8.514113509939861
 30
0.0
 11
-20.75351237679543
 21
-2.517854283033639
 31
0.0
  0
LINE
  5
281
330
2C1
100
AcDbEntity
  8
Ziptie-cutout
100
AcDbLine
 10
-8.876056063447393
 20
-5.340222201183932
 30
0.0
 11
-9.900112115080164
 21
-11.11734024016002
 31
0.0
  0
LINE
  5
283
330
2C1
100
AcDbEntity
  8
Ziptie-cutout
100
AcDbLine
 10
-6.969628414904507
 20
-11.75704889048087
 30
0.0
 11
-5.957327756284454
 21
-6.033781909475694
 31
0.0
  0
LINE
  5
285
330
2C1
100
AcDbEntity
  8
Ziptie-cutout
100
AcDbLine
 10
-23.67224068395837
 20
-1.824294574741877
 30
0.0
 11
-23.54343905514087
 21
-1.365722929891358
 31
0.0
  0
LINE
  5
286
330
2C1
100
AcDbEntity
  8
Ziptie-cutout
100
AcDbLine
 10
-20.75351237679543
 20
-2.517854283033639
 30
0.0
 11
-20.68431799738081
 21
-2.091613768390025
 31
0.0
  0
LINE
  5
287
330
2C1
100
AcDbEntity
  8
Ziptie-cutout
100
AcDbLine
 10
-20.68431799738081
 20
-2.091613768390025
 30
0.0
 11
-23.54343905514087
 21
-1.365722929891358
 31
0.0
  0
LINE
  5
288
330
2C1
100
AcDbEntity
  8
Ziptie-cutout
100
AcDbLine
 10
-24.75588945783114
 20
-7.874404859619003
 30
0.0
 11
-24.76961978517231
 21
-8.259280085992517
 31
0.0
  0
LINE
  5
289
330
2C1
100
AcDbEntity
  8
Ziptie-cutout
100
AcDbLine
 10
-21.82540575765548
 20
-8.514113509939863
 30
0.0
 11
-22.0
 21
-9.0
 31
0.0
  0
LINE
  5
28A
330
2C1
100
AcDbEntity
  8
Ziptie-cutout
100
AcDbLine
 10
-22.0
 20
-9.0
 30
0.0
 11
-24.76961978517231
 21
-8.259280085992517
 31
0.0
  0
LINE
  5
28B
330
2C1
100
AcDbEntity
  8
Ziptie-cutout
100
AcDbLine
 10
-9.900112115080164
 20
-11.11734024016002
 30
0.0
 11
-9.827405554014863
 21
-11.65037187429718
 31
0.0
  0
LINE
  5
28C
330
2C1
100
AcDbEntity
  8
Ziptie-cutout
100
AcDbLine
 10
-6.969628414904508
 20
-11.75704889048087
 30
0.0
 11
-7.296663685099448
 21
-12.1071399189307
 31
0.0
  0
LINE
  5
28D
330
2C1
100
AcDbEntity
  8
Ziptie-cutout
100
AcDbLine
 10
-7.296663685099448
 20
-12.1071399189307
 30
0.0
 11
-9.827405554014863
 21
-11.65037187429718
 31
0.0
  0
LINE
  5
28E
330
2C1
100
AcDbEntity
  8
Ziptie-cutout
100
AcDbLine
 10
-8.876056063447392
 20
-5.340222201183933
 30
0.0
 11
-8.596590973896028
 21
-4.948631619170945
 31
0.0
  0
LINE
  5
28F
330
2C1
100
AcDbEntity
  8
Ziptie-cutout
100
AcDbLine
 10
-5.957327756284454
 20
-6.033781909475693
 30
0.0
 11
-6.063380088523132
 21
-5.556009667710645
 31
0.0
  0
LINE
  5
290
330
2C1
100
AcDbEntity
  8
Ziptie-cutout
100
AcDbLine
 10
-6.063380088523132
 20
-5.556009667710645
 30
0.0
 11
-8.596590973896028
 21
-4.948631619170945
 31
0.0
  0
ARC
  5
296
330
2C1
100
AcDbEntity
  8
pillar
100
AcDbCircle
 10
33.0365581567211
 20
7.202084817019873
 30
0.0
 40
23.72789933730887
100
AcDbArc
 50
130.8805004757604
 51
182.9143174109391
  0
ARC
  5
298
330
2C1
100
AcDbEntity
  8
pillar
100
AcDbCircle
 10
29.79931804937031
 20
7.891544192243029
 30
0.0
 40
13.70218037808593
100
AcDbArc
 50
178.078178995594
 51
235.5862507298754
  0
ARC
  5
29A
330
2C1
100
AcDbEntity
  8
pillar
100
AcDbCircle
 10
41.04948062136071
 20
7.417296655407305
 30
0.0
 40
24.96210648773358
100
AcDbArc
 50
130.0124294236292
 51
177.8562278816489
  0
ARC
  5
29B
330
2C1
100
AcDbEntity
  8
pillar
100
AcDbCircle
 10
36.7607212844251
 20
29.76072128442512
 30
0.0
 40
36.28647240527543
100
AcDbArc
 50
220.9141813471971
 51
246.0926824241772
  0
LINE
  5
29C
330
2C1
100
AcDbEntity
  8
pillar
100
AcDbLine
 10
17.50703870814878
 20
25.14218606137958
 30
0.0
 11
18.4142135623731
 21
26.535898
 31
0.0
  0
ARC
  5
29D
330
2C1
100
AcDbEntity
  8
Base
100
AcDbCircle
 10
29.7993180493703
 20
7.891544192243025
 30
0.0
 40
13.70218037808593
100
AcDbArc
 50
178.078178995594
 51
235.5862507298754
  0
ARC
  5
29E
330
2C1
100
AcDbEntity
  8
Base
100
AcDbCircle
 10
41.04948062136069
 20
7.417296655407302
 30
0.0
 40
24.96210648773358
100
AcDbArc
 50
130.0124294236292
 51
177.8562278816489
  0
ARC
  5
29F
330
2C1
100
AcDbEntity
  8
Base
100
AcDbCircle
 10
22.50215484949553
 20
30.28743103165851
 30
0.0
 40
4.507019813122285
100
AcDbArc
 50
303.6564669116486
 51
356.343533088351
  0
ARC
  5
2A0
330
2C1
100
AcDbEntity
  8
Base
100
AcDbCircle
 10
36.76072128442506
 20
29.76072128442507
 30
0.0
 40
36.28647240527538
100
AcDbArc
 50
246.0926824241772
 51
251.4213430561875
  0
ARC
  5
2A1
330
2C1
100
AcDbEntity
  8
Base
100
AcDbCircle
 10
9.036945733912091
 20
30.55687703021581
 30
0.0
 40
9.771542687496652
100
AcDbArc
 50
197.8243117612151
 51
318.1418791371605
  0
ARC
  5
2A2
330
2C1
100
AcDbEntity
  8
Base
100
AcDbCircle
 10
33.03655815672148
 20
7.202084817019293
 30
0.0
 40
23.72789933730956
100
AcDbArc
 50
130.8805004757602
 51
134.8077691759952
  0
ENDSEC
  0
SECTION
  2
OBJECTS
  0
DICTIONARY
  5
2AF
330
0
100
AcDbDictionary
281
     1
  3
ACAD_GROUP
350
2B0
  3
ACAD_IMAGE_DICT
350
317
  3
ACAD_LAYOUT
350
2BC
  3
ACAD_MATERIAL
350
2DD
  3
ACAD_MLEADERSTYLE
350
31B
  3
ACAD_MLINESTYLE
350
2B9
  3
ACAD_PLOTSETTINGS
350
2BB
  3
ACAD_PLOTSTYLENAME
350
2B1
  3
ACAD_TABLESTYLE
350
31A
  3
ACAD_VISUALSTYLE
350
2CC
  3
QCAD_OBJECTS
350
2E2
  0
IMAGEDEF_REACTOR
  5
319
330
1A4
100
AcDbRasterImageDefReactor
 90
        2
330
1A4
  0
DICTIONARY
  5
2B0
102
{ACAD_REACTORS
330
2AF
102
}
330
2AF
100
AcDbDictionary
281
     1
  0
DICTIONARY
  5
317
102
{ACAD_REACTORS
330
2AF
102
}
330
2AF
100
AcDbDictionary
281
     1
  3
image_37
350
318
  0
DICTIONARY
  5
2BC
102
{ACAD_REACTORS
330
2AF
102
}
330
2AF
100
AcDbDictionary
281
     1
  3
Layout1
350
2C0
  3
Layout2
350
2C8
  3
Model
350
2C4
  0
DICTIONARY
  5
2DD
102
{ACAD_REACTORS
330
2AF
102
}
330
2AF
100
AcDbDictionary
281
     1
  3
ByBlock
350
2DF
  3
ByLayer
350
2DE
  3
Global
350
2E0
  0
DICTIONARY
  5
31B
102
{ACAD_REACTORS
330
2AF
102
}
330
2AF
100
AcDbDictionary
281
     1
  0
DICTIONARY
  5
2B9
102
{ACAD_REACTORS
330
2AF
102
}
330
2AF
100
AcDbDictionary
281
     1
  3
Standard
350
2BA
  0
DICTIONARY
  5
2BB
102
{ACAD_REACTORS
330
2AF
102
}
330
2AF
100
AcDbDictionary
281
     1
  0
ACDBDICTIONARYWDFLT
  5
2B1
102
{ACAD_REACTORS
330
2AF
102
}
330
2AF
100
AcDbDictionary
281
     1
  3
Normal
350
2B2
100
AcDbDictionaryWithDefault
340
2B2
  0
DICTIONARY
  5
31A
102
{ACAD_REACTORS
330
2AF
102
}
330
2AF
100
AcDbDictionary
281
     1
  0
DICTIONARY
  5
2CC
102
{ACAD_REACTORS
330
2AF
102
}
330
2AF
100
AcDbDictionary
281
     1
  3
2dWireframe
350
2D1
  3
3D Hidden
350
2D3
  3
3dWireframe
350
2D2
  3
Basic
350
2D4
  3
Brighten
350
2D8
  3
ColorChange
350
2DC
  3
Conceptual
350
2D6
  3
Dim
350
2D7
  3
Facepattern
350
2DB
  3
Flat
350
2CD
  3
FlatWithEdges
350
2CE
  3
Gouraud
350
2CF
  3
GouraudWithEdges
350
2D0
  3
Linepattern
350
2DA
  3
Realistic
350
2D5
  3
Thicken
350
2D9
  0
DICTIONARY
  5
2E2
102
{ACAD_REACTORS
330
2AF
102
}
330
2AF
100
AcDbDictionary
281
     1
  3
Grid/DisplayGrid
350
2F3
  3
Grid/GridSpacingX
350
2EC
  3
Grid/GridSpacingY
350
2EE
  3
Grid/MetaGridSpacingX
350
2E6
  3
Grid/MetaGridSpacingY
350
2EA
  3
MultiPageSettings/Columns
350
2EB
  3
MultiPageSettings/GlueMarginBottom
350
2E7
  3
MultiPageSettings/GlueMarginsLeft
350
2EF
  3
MultiPageSettings/GlueMarginsRight
350
2E3
  3
MultiPageSettings/GlueMarginsTop
350
2F7
  3
MultiPageSettings/PrintCropMarks
350
2E5
  3
MultiPageSettings/Rows
350
2F0
  3
PageSettings/OffsetX
350
2F5
  3
PageSettings/OffsetY
350
2F6
  3
PageSettings/PageOrientation
350
2E4
  3
PageSettings/PaperHeight
350
2E8
  3
PageSettings/PaperWidth
350
2F1
  3
PageSettings/Scale
350
2E9
  3
PageSettings/ShowBoundingBox
350
2ED
  3
PageSettings/ShowPageBorders
350
2F4
  3
UnitSettings/PaperUnit
350
2F2
  0
IMAGEDEF
  5
318
102
{ACAD_REACTORS
330
317
330
319
102
}
330
317
100
AcDbRasterImageDef
 90
        0
  1
/Volumes/Common/e3d_mount/5015dimscan.tiff
 10
895.0
 20
994.0
 11
0.00111731843575419
 21
0.00111731843575419
280
     1
281
     1
  0
LAYOUT
  5
2C0
102
{ACAD_REACTORS
330
2BC
102
}
330
2BC
100
AcDbPlotSettings
  1

  2
none_device
  4

  6

 40
0.0
 41
0.0
 42
0.0
 43
0.0
 44
0.0
 45
0.0
 46
0.0
 47
0.0
 48
0.0
 49
0.0
140
0.0
141
0.0
142
1.0
143
1.0
 70
   688
 72
     0
 73
     0
 74
     5
  7

 75
    16
 76
     0
 77
     2
 78
   300
147
1.0
148
0.0
149
0.0
100
AcDbLayout
  1
Layout1
 70
     1
 71
     1
 10
0.0
 20
0.0
 11
12.0
 21
9.0
 12
0.0
 22
0.0
 32
0.0
 14
1.000000000000000E+20
 24
1.000000000000000E+20
 34
1.000000000000000E+20
 15
-1.000000000000000E+20
 25
-1.000000000000000E+20
 35
-1.000000000000000E+20
146
0.0
 13
0.0
 23
0.0
 33
0.0
 16
1.0
 26
0.0
 36
0.0
 17
0.0
 27
1.0
 37
0.0
 76
     0
330
2BD
  0
LAYOUT
  5
2C8
102
{ACAD_REACTORS
330
2BC
102
}
330
2BC
100
AcDbPlotSettings
  1

  2
none_device
  4

  6

 40
0.0
 41
0.0
 42
0.0
 43
0.0
 44
0.0
 45
0.0
 46
0.0
 47
0.0
 48
0.0
 49
0.0
140
0.0
141
0.0
142
1.0
143
1.0
 70
   688
 72
     0
 73
     0
 74
     5
  7

 75
    16
 76
     0
 77
     2
 78
   300
147
1.0
148
0.0
149
0.0
100
AcDbLayout
  1
Layout2
 70
     1
 71
     2
 10
0.0
 20
0.0
 11
0.0
 21
0.0
 12
0.0
 22
0.0
 32
0.0
 14
0.0
 24
0.0
 34
0.0
 15
0.0
 25
0.0
 35
0.0
146
0.0
 13
0.0
 23
0.0
 33
0.0
 16
1.0
 26
0.0
 36
0.0
 17
0.0
 27
1.0
 37
0.0
 76
     0
330
2C5
  0
LAYOUT
  5
2C4
102
{ACAD_REACTORS
330
2BC
102
}
330
2BC
100
AcDbPlotSettings
  1

  2
none_device
  4

  6

 40
0.0
 41
0.0
 42
0.0
 43
0.0
 44
0.0
 45
0.0
 46
0.0
 47
0.0
 48
0.0
 49
0.0
140
0.0
141
0.0
142
1.0
143
1.0
 70
  1712
 72
     0
 73
     0
 74
     0
  7

 75
     0
 76
     0
 77
     2
 78
   300
147
1.0
148
0.0
149
0.0
100
AcDbLayout
  1
Model
 70
     1
 71
     0
 10
0.0
 20
0.0
 11
12.0
 21
9.0
 12
0.0
 22
0.0
 32
0.0
 14
1.000000000000000E+20
 24
1.000000000000000E+20
 34
1.000000000000000E+20
 15
-1.000000000000000E+20
 25
-1.000000000000000E+20
 35
-1.000000000000000E+20
146
0.0
 13
0.0
 23
0.0
 33
0.0
 16
1.0
 26
0.0
 36
0.0
 17
0.0
 27
1.0
 37
0.0
 76
     0
330
2C1
331
2CB
  0
MATERIAL
  5
2DF
102
{ACAD_REACTORS
330
2DD
102
}
330
2DD
100
AcDbMaterial
  1
ByBlock
 72
     1
 94
      127
  0
MATERIAL
  5
2DE
102
{ACAD_REACTORS
330
2DD
102
}
330
2DD
100
AcDbMaterial
  1
ByLayer
 72
     1
 94
      127
  0
MATERIAL
  5
2E0
102
{ACAD_REACTORS
330
2DD
102
}
330
2DD
100
AcDbMaterial
  1
Global
 72
     1
 94
      127
  0
MLINESTYLE
  5
2BA
102
{ACAD_REACTORS
330
2B9
102
}
330
2B9
100
AcDbMlineStyle
  2
Standard
 70
     0
  3

 62
   256
 51
90.0
 52
90.0
 71
     2
 49
0.5
 62
   256
  6
BYLAYER
 49
-0.5
 62
   256
  6
BYLAYER
  0
ACDBPLACEHOLDER
  5
2B2
102
{ACAD_REACTORS
330
2B1
102
}
330
2B1
  0
VISUALSTYLE
  5
2D1
102
{ACAD_REACTORS
330
2CC
102
}
330
2CC
100
AcDbVisualStyle
  2
2dWireframe
 70
     4
177
     2
291
     0
 71
     0
176
     1
 72
     2
176
     1
 73
     0
176
     1
 90
        0
176
     1
 40
-0.6
176
     1
 41
-30.0
176
     1
 62
     5
 63
     7
421
 16777215
176
     1
 74
     1
176
     1
 91
        4
176
     1
 64
     7
176
     1
 65
   257
176
     1
 75
     1
176
     1
175
     1
176
     1
 42
1.0
176
     1
 92
        0
176
     1
 66
   257
176
     1
 43
1.0
176
     1
 76
     1
176
     1
 77
     6
176
     1
 78
     2
176
     1
 67
     7
176
     1
 79
     5
176
     1
170
     0
176
     1
171
     0
176
     1
290
     0
176
     1
 93
        1
176
     1
 44
0.0
176
     1
173
     0
176
     1
  0
VISUALSTYLE
  5
2D3
102
{ACAD_REACTORS
330
2CC
102
}
330
2CC
100
AcDbVisualStyle
  2
3D Hidden
 70
     6
177
     2
291
     0
 71
     1
176
     1
 72
     2
176
     1
 73
     2
176
     1
 90
        0
176
     1
 40
-0.6
176
     1
 41
-30.0
176
     1
 62
     5
 63
     7
421
 16777215
176
     1
 74
     2
176
     1
 91
        2
176
     1
 64
     7
176
     1
 65
   257
176
     1
 75
     2
176
     1
175
     1
176
     1
 42
40.0
176
     1
 92
        0
176
     1
 66
   257
176
     1
 43
1.0
176
     1
 76
     1
176
     1
 77
     6
176
     1
 78
     2
176
     1
 67
     7
176
     1
 79
     3
176
     1
170
     0
176
     1
171
     0
176
     1
290
     0
176
     1
 93
        1
176
     1
 44
0.0
176
     1
173
     0
176
     1
  0
VISUALSTYLE
  5
2D2
102
{ACAD_REACTORS
330
2CC
102
}
330
2CC
100
AcDbVisualStyle
  2
3dWireframe
 70
     5
177
     2
291
     0
 71
     0
176
     1
 72
     2
176
     1
 73
     0
176
     1
 90
        0
176
     1
 40
-0.6
176
     1
 41
-30.0
176
     1
 62
     5
 63
     7
421
 16777215
176
     1
 74
     1
176
     1
 91
        4
176
     1
 64
     7
176
     1
 65
   257
176
     1
 75
     1
176
     1
175
     1
176
     1
 42
1.0
176
     1
 92
        0
176
     1
 66
   257
176
     1
 43
1.0
176
     1
 76
     1
176
     1
 77
     6
176
     1
 78
     2
176
     1
 67
     7
176
     1
 79
     5
176
     1
170
     0
176
     1
171
     0
176
     1
290
     0
176
     1
 93
        1
176
     1
 44
0.0
176
     1
173
     0
176
     1
  0
VISUALSTYLE
  5
2D4
102
{ACAD_REACTORS
330
2CC
102
}
330
2CC
100
AcDbVisualStyle
  2
Basic
 70
     7
177
     2
291
     1
 71
     1
176
     1
 72
     0
176
     1
 73
     1
176
     1
 90
        0
176
     1
 40
-0.6
176
     1
 41
-30.0
176
     1
 62
     5
 63
     7
421
 16777215
176
     1
 74
     0
176
     1
 91
        4
176
     1
 64
     7
176
     1
 65
   257
176
     1
 75
     1
176
     1
175
     1
176
     1
 42
1.0
176
     1
 92
        8
176
     1
 66
     7
176
     1
 43
1.0
176
     1
 76
     1
176
     1
 77
     6
176
     1
 78
     2
176
     1
 67
     7
176
     1
 79
     5
176
     1
170
     0
176
     1
171
     0
176
     1
290
     0
176
     1
 93
        1
176
     1
 44
0.0
176
     1
173
     0
176
     1
  0
VISUALSTYLE
  5
2D8
102
{ACAD_REACTORS
330
2CC
102
}
330
2CC
100
AcDbVisualStyle
  2
Brighten
 70
    12
177
     2
291
     1
 71
     2
176
     1
 72
     2
176
     1
 73
     0
176
     1
 90
        0
176
     1
 40
-0.6
176
     1
 41
-30.0
176
     1
 62
     5
 63
     7
421
 16777215
176
     1
 74
     1
176
     1
 91
        4
176
     1
 64
     7
176
     1
 65
   257
176
     1
 75
     1
176
     1
175
     1
176
     1
 42
1.0
176
     1
 92
        8
176
     1
 66
     7
176
     1
 43
1.0
176
     1
 76
     1
176
     1
 77
     6
176
     1
 78
     2
176
     1
 67
     7
176
     1
 79
     5
176
     1
170
     0
176
     1
171
     0
176
     1
290
     0
176
     1
 93
        1
176
     1
 44
50.0
176
     1
173
     0
176
     1
  0
VISUALSTYLE
  5
2DC
102
{ACAD_REACTORS
330
2CC
102
}
330
2CC
100
AcDbVisualStyle
  2
ColorChange
 70
    16
177
     2
291
     1
 71
     2
176
     1
 72
     2
176
     1
 73
     3
176
     1
 90
        0
176
     1
 40
-0.6
176
     1
 41
-30.0
176
     1
 62
     5
 63
     8
421
  8421504
176
     1
 74
     1
176
     1
 91
        4
176
     1
 64
     7
176
     1
 65
   257
176
     1
 75
     1
176
     1
175
     1
176
     1
 42
1.0
176
     1
 92
        8
176
     1
 66
     8
424
  8421504
176
     1
 43
1.0
176
     1
 76
     1
176
     1
 77
     6
176
     1
 78
     2
176
     1
 67
     7
176
     1
 79
     5
176
     1
170
     0
176
     1
171
     0
176
     1
290
     0
176
     1
 93
        1
176
     1
 44
0.0
176
     1
173
     0
176
     1
  0
VISUALSTYLE
  5
2D6
102
{ACAD_REACTORS
330
2CC
102
}
330
2CC
100
AcDbVisualStyle
  2
Conceptual
 70
     9
177
     2
291
     0
 71
     3
176
     1
 72
     2
176
     1
 73
     0
176
     1
 90
        0
176
     1
 40
-0.6
176
     1
 41
-30.0
176
     1
 62
     5
 63
     7
421
 16777215
176
     1
 74
     2
176
     1
 91
        2
176
     1
 64
     7
176
     1
 65
   257
176
     1
 75
     1
176
     1
175
     1
176
     1
 42
40.0
176
     1
 92
        8
176
     1
 66
     7
176
     1
 43
1.0
176
     1
 76
     1
176
     1
 77
     6
176
     1
 78
     2
176
     1
 67
     7
176
     1
 79
     3
176
     1
170
     0
176
     1
171
     0
176
     1
290
     0
176
     1
 93
        1
176
     1
 44
0.0
176
     1
173
     0
176
     1
  0
VISUALSTYLE
  5
2D7
102
{ACAD_REACTORS
330
2CC
102
}
330
2CC
100
AcDbVisualStyle
  2
Dim
 70
    11
177
     2
291
     1
 71
     2
176
     1
 72
     2
176
     1
 73
     0
176
     1
 90
        0
176
     1
 40
-0.6
176
     1
 41
-30.0
176
     1
 62
     5
 63
     7
421
 16777215
176
     1
 74
     1
176
     1
 91
        4
176
     1
 64
     7
176
     1
 65
   257
176
     1
 75
     1
176
     1
175
     1
176
     1
 42
1.0
176
     1
 92
        8
176
     1
 66
     7
176
     1
 43
1.0
176
     1
 76
     1
176
     1
 77
     6
176
     1
 78
     2
176
     1
 67
     7
176
     1
 79
     5
176
     1
170
     0
176
     1
171
     0
176
     1
290
     0
176
     1
 93
        1
176
     1
 44
-50.0
176
     1
173
     0
176
     1
  0
VISUALSTYLE
  5
2DB
102
{ACAD_REACTORS
330
2CC
102
}
330
2CC
100
AcDbVisualStyle
  2
Facepattern
 70
    15
177
     2
291
     1
 71
     2
176
     1
 72
     2
176
     1
 73
     0
176
     1
 90
        0
176
     1
 40
-0.6
176
     1
 41
-30.0
176
     1
 62
     5
 63
     7
421
 16777215
176
     1
 74
     1
176
     1
 91
        4
176
     1
 64
     7
176
     1
 65
   257
176
     1
 75
     1
176
     1
175
     1
176
     1
 42
1.0
176
     1
 92
        8
176
     1
 66
     7
176
     1
 43
1.0
176
     1
 76
     1
176
     1
 77
     6
176
     1
 78
     2
176
     1
 67
     7
176
     1
 79
     5
176
     1
170
     0
176
     1
171
     0
176
     1
290
     0
176
     1
 93
        1
176
     1
 44
0.0
176
     1
173
     0
176
     1
  0
VISUALSTYLE
  5
2CD
102
{ACAD_REACTORS
330
2CC
102
}
330
2CC
100
AcDbVisualStyle
  2
Flat
 70
     0
177
     2
291
     1
 71
     2
176
     1
 72
     1
176
     1
 73
     1
176
     1
 90
        2
176
     1
 40
-0.6
176
     1
 41
30.0
176
     1
 62
     5
 63
     7
421
 16777215
176
     1
 74
     0
176
     1
 91
        4
176
     1
 64
     7
176
     1
 65
   257
176
     1
 75
     1
176
     1
175
     1
176
     1
 42
1.0
176
     1
 92
        8
176
     1
 66
     7
176
     1
 43
1.0
176
     1
 76
     1
176
     1
 77
     6
176
     1
 78
     2
176
     1
 67
     7
176
     1
 79
     5
176
     1
170
     0
176
     1
171
     0
176
     1
290
     0
176
     1
 93
       13
176
     1
 44
0.0
176
     1
173
     0
176
     1
  0
VISUALSTYLE
  5
2CE
102
{ACAD_REACTORS
330
2CC
102
}
330
2CC
100
AcDbVisualStyle
  2
FlatWithEdges
 70
     1
177
     2
291
     1
 71
     2
176
     1
 72
     1
176
     1
 73
     1
176
     1
 90
        2
176
     1
 40
-0.6
176
     1
 41
30.0
176
     1
 62
     5
 63
     7
421
 16777215
176
     1
 74
     1
176
     1
 91
        4
176
     1
 64
     7
176
     1
 65
   257
176
     1
 75
     1
176
     1
175
     1
176
     1
 42
1.0
176
     1
 92
        0
176
     1
 66
   257
176
     1
 43
1.0
176
     1
 76
     1
176
     1
 77
     6
176
     1
 78
     2
176
     1
 67
     7
176
     1
 79
     5
176
     1
170
     0
176
     1
171
     0
176
     1
290
     0
176
     1
 93
       13
176
     1
 44
0.0
176
     1
173
     0
176
     1
  0
VISUALSTYLE
  5
2CF
102
{ACAD_REACTORS
330
2CC
102
}
330
2CC
100
AcDbVisualStyle
  2
Gouraud
 70
     2
177
     2
291
     1
 71
     2
176
     1
 72
     2
176
     1
 73
     1
176
     1
 90
        2
176
     1
 40
-0.6
176
     1
 41
30.0
176
     1
 62
     5
 63
     7
421
 16777215
176
     1
 74
     0
176
     1
 91
        4
176
     1
 64
     7
176
     1
 65
   257
176
     1
 75
     1
176
     1
175
     1
176
     1
 42
1.0
176
     1
 92
        0
176
     1
 66
     7
176
     1
 43
1.0
176
     1
 76
     1
176
     1
 77
     6
176
     1
 78
     2
176
     1
 67
     7
176
     1
 79
     5
176
     1
170
     0
176
     1
171
     0
176
     1
290
     0
176
     1
 93
       13
176
     1
 44
0.0
176
     1
173
     0
176
     1
  0
VISUALSTYLE
  5
2D0
102
{ACAD_REACTORS
330
2CC
102
}
330
2CC
100
AcDbVisualStyle
  2
GouraudWithEdges
 70
     3
177
     2
291
     1
 71
     2
176
     1
 72
     2
176
     1
 73
     1
176
     1
 90
        2
176
     1
 40
-0.6
176
     1
 41
30.0
176
     1
 62
     5
 63
     7
421
 16777215
176
     1
 74
     1
176
     1
 91
        4
176
     1
 64
     7
176
     1
 65
   257
176
     1
 75
     1
176
     1
175
     1
176
     1
 42
1.0
176
     1
 92
        0
176
     1
 66
   257
176
     1
 43
1.0
176
     1
 76
     1
176
     1
 77
     6
176
     1
 78
     2
176
     1
 67
     7
176
     1
 79
     5
176
     1
170
     0
176
     1
171
     0
176
     1
290
     0
176
     1
 93
       13
176
     1
 44
0.0
176
     1
173
     0
176
     1
  0
VISUALSTYLE
  5
2DA
102
{ACAD_REACTORS
330
2CC
102
}
330
2CC
100
AcDbVisualStyle
  2
Linepattern
 70
    14
177
     2
291
     1
 71
     2
176
     1
 72
     2
176
     1
 73
     0
176
     1
 90
        0
176
     1
 40
-0.6
176
     1
 41
-30.0
176
     1
 62
     5
 63
     7
421
 16777215
176
     1
 74
     1
176
     1
 91
        4
176
     1
 64
     7
176
     1
 65
   257
176
     1
 75
     7
176
     1
175
     7
176
     1
 42
1.0
176
     1
 92
        8
176
     1
 66
     7
176
     1
 43
1.0
176
     1
 76
     1
176
     1
 77
     6
176
     1
 78
     2
176
     1
 67
     7
176
     1
 79
     5
176
     1
170
     0
176
     1
171
     0
176
     1
290
     0
176
     1
 93
        1
176
     1
 44
0.0
176
     1
173
     0
176
     1
  0
VISUALSTYLE
  5
2D5
102
{ACAD_REACTORS
330
2CC
102
}
330
2CC
100
AcDbVisualStyle
  2
Realistic
 70
     8
177
     2
291
     0
 71
     2
176
     1
 72
     2
176
     1
 73
     0
176
     1
 90
        0
176
     1
 40
-0.6
176
     1
 41
-30.0
176
     1
 62
     5
 63
     7
421
 16777215
176
     1
 74
     1
176
     1
 91
        0
176
     1
 64
     7
176
     1
 65
   257
176
     1
 75
     1
176
     1
175
     1
176
     1
 42
1.0
176
     1
 92
        8
176
     1
 66
     8
424
  7895160
176
     1
 43
1.0
176
     1
 76
     1
176
     1
 77
     6
176
     1
 78
     2
176
     1
 67
     7
176
     1
 79
     5
176
     1
170
     0
176
     1
171
     0
176
     1
290
     0
176
     1
 93
       13
176
     1
 44
0.0
176
     1
173
     0
176
     1
  0
VISUALSTYLE
  5
2D9
102
{ACAD_REACTORS
330
2CC
102
}
330
2CC
100
AcDbVisualStyle
  2
Thicken
 70
    13
177
     2
291
     1
 71
     2
176
     1
 72
     2
176
     1
 73
     0
176
     1
 90
        0
176
     1
 40
-0.6
176
     1
 41
-30.0
176
     1
 62
     5
 63
     7
421
 16777215
176
     1
 74
     1
176
     1
 91
        4
176
     1
 64
     7
176
     1
 65
   257
176
     1
 75
     1
176
     1
175
     1
176
     1
 42
1.0
176
     1
 92
       12
176
     1
 66
     7
176
     1
 43
1.0
176
     1
 76
     1
176
     1
 77
     6
176
     1
 78
     2
176
     1
 67
     7
176
     1
 79
     5
176
     1
170
     0
176
     1
171
     0
176
     1
290
     0
176
     1
 93
        1
176
     1
 44
0.0
176
     1
173
     0
176
     1
  0
XRECORD
  5
2F3
102
{ACAD_REACTORS
330
2E2
102
}
330
2E2
100
AcDbXrecord
280
     1
290
     1
  0
XRECORD
  5
2EC
102
{ACAD_REACTORS
330
2E2
102
}
330
2E2
100
AcDbXrecord
280
     1
1000
auto
  0
XRECORD
  5
2EE
102
{ACAD_REACTORS
330
2E2
102
}
330
2E2
100
AcDbXrecord
280
     1
1000
auto
  0
XRECORD
  5
2E6
102
{ACAD_REACTORS
330
2E2
102
}
330
2E2
100
AcDbXrecord
280
     1
1000
auto
  0
XRECORD
  5
2EA
102
{ACAD_REACTORS
330
2E2
102
}
330
2E2
100
AcDbXrecord
280
     1
1000
auto
  0
XRECORD
  5
2EB
102
{ACAD_REACTORS
330
2E2
102
}
330
2E2
100
AcDbXrecord
280
     1
 90
        1
  0
XRECORD
  5
2E7
102
{ACAD_REACTORS
330
2E2
102
}
330
2E2
100
AcDbXrecord
280
     1
 40
10.0
  0
XRECORD
  5
2EF
102
{ACAD_REACTORS
330
2E2
102
}
330
2E2
100
AcDbXrecord
280
     1
 40
10.0
  0
XRECORD
  5
2E3
102
{ACAD_REACTORS
330
2E2
102
}
330
2E2
100
AcDbXrecord
280
     1
 40
10.0
  0
XRECORD
  5
2F7
102
{ACAD_REACTORS
330
2E2
102
}
330
2E2
100
AcDbXrecord
280
     1
 40
10.0
  0
XRECORD
  5
2E5
102
{ACAD_REACTORS
330
2E2
102
}
330
2E2
100
AcDbXrecord
280
     1
290
     0
  0
XRECORD
  5
2F0
102
{ACAD_REACTORS
330
2E2
102
}
330
2E2
100
AcDbXrecord
280
     1
 90
        1
  0
XRECORD
  5
2F5
102
{ACAD_REACTORS
330
2E2
102
}
330
2E2
100
AcDbXrecord
280
     1
 40
-102.0926672234293
  0
XRECORD
  5
2F6
102
{ACAD_REACTORS
330
2E2
102
}
330
2E2
100
AcDbXrecord
280
     1
 40
-110.8939498636418
  0
XRECORD
  5
2E4
102
{ACAD_REACTORS
330
2E2
102
}
330
2E2
100
AcDbXrecord
280
     1
1000
Portrait
  0
XRECORD
  5
2E8
102
{ACAD_REACTORS
330
2E2
102
}
330
2E2
100
AcDbXrecord
280
     1
 40
297.0
  0
XRECORD
  5
2F1
102
{ACAD_REACTORS
330
2E2
102
}
330
2E2
100
AcDbXrecord
280
     1
 40
210.0
  0
XRECORD
  5
2E9
102
{ACAD_REACTORS
330
2E2
102
}
330
2E2
100
AcDbXrecord
280
     1
1000
1:1
  0
XRECORD
  5
2ED
102
{ACAD_REACTORS
330
2E2
102
}
330
2E2
100
AcDbXrecord
280
     1
290
     0
  0
XRECORD
  5
2F4
102
{ACAD_REACTORS
330
2E2
102
}
330
2E2
100
AcDbXrecord
280
     1
290
     1
  0
XRECORD
  5
2F2
102
{ACAD_REACTORS
330
2E2
102
}
330
2E2
100
AcDbXrecord
280
     1
 90
        4
  0
ENDSEC
  0
EOF
