solid OpenSCAD_Model
  facet normal -0 0 1
    outer loop
      vertex -17 43 -15.7153
      vertex -12.9672 42.8119 -15.7153
      vertex -12.9061 43 -15.7153
    endloop
  endfacet
  facet normal 0 0 1
    outer loop
      vertex -17 43 -15.7153
      vertex -12.9782 42.7073 -15.7153
      vertex -12.9672 42.8119 -15.7153
    endloop
  endfacet
  facet normal 0 0 1
    outer loop
      vertex -12.9782 42.7073 -15.7153
      vertex -17 43 -15.7153
      vertex -17 42.7073 -15.7153
    endloop
  endfacet
  facet normal 0 0 1
    outer loop
      vertex -7 43 -15.7153
      vertex -10.0218 42.7073 -15.7153
      vertex -7 42.7073 -15.7153
    endloop
  endfacet
  facet normal 0 0 1
    outer loop
      vertex -7 43 -15.7153
      vertex -10.0328 42.8119 -15.7153
      vertex -10.0218 42.7073 -15.7153
    endloop
  endfacet
  facet normal 0 -0 1
    outer loop
      vertex -10.0328 42.8119 -15.7153
      vertex -7 43 -15.7153
      vertex -10.0939 43 -15.7153
    endloop
  endfacet
  facet normal -0 -0.994522 -0.10453
    outer loop
      vertex -13 40.2 -18.5
      vertex -17 40.2 -18.5
      vertex -13 40.2245 -18.7329
    endloop
  endfacet
  facet normal 0 -0.994522 -0.10453
    outer loop
      vertex -10 40.2428 -18.9075
      vertex -7 40.2 -18.5
      vertex -10 40.2 -18.5
    endloop
  endfacet
  facet normal -8.98511e-007 -0.994522 -0.104524
    outer loop
      vertex -7 40.2 -18.5
      vertex -10 40.2428 -18.9075
      vertex -7 40.2612 -19.0822
    endloop
  endfacet
  facet normal 0 0 -1
    outer loop
      vertex -17 43 -21.2847
      vertex -12.9782 42.7073 -21.2847
      vertex -17 42.7073 -21.2847
    endloop
  endfacet
  facet normal 0 0 -1
    outer loop
      vertex -12.9782 42.7073 -21.2847
      vertex -17 43 -21.2847
      vertex -12.9672 42.8119 -21.2847
    endloop
  endfacet
  facet normal 0 0 -1
    outer loop
      vertex -12.9672 42.8119 -21.2847
      vertex -17 43 -21.2847
      vertex -12.9061 43 -21.2847
    endloop
  endfacet
  facet normal 0 0 -1
    outer loop
      vertex -10.0218 42.7073 -21.2847
      vertex -7 43 -21.2847
      vertex -7 42.7073 -21.2847
    endloop
  endfacet
  facet normal 0 0 -1
    outer loop
      vertex -10.0328 42.8119 -21.2847
      vertex -7 43 -21.2847
      vertex -10.0218 42.7073 -21.2847
    endloop
  endfacet
  facet normal -0 0 -1
    outer loop
      vertex -7 43 -21.2847
      vertex -10.0328 42.8119 -21.2847
      vertex -10.0939 43 -21.2847
    endloop
  endfacet
  facet normal 5.49134e-007 -0.994522 0.104524
    outer loop
      vertex -17 40.2 -18.5
      vertex -13 40.2367 -18.1507
      vertex -17 40.2612 -17.9178
    endloop
  endfacet
  facet normal 0 -0.994522 0.10453
    outer loop
      vertex -13 40.2367 -18.1507
      vertex -17 40.2 -18.5
      vertex -13 40.2 -18.5
    endloop
  endfacet
  facet normal 0 -0.994522 0.10453
    outer loop
      vertex -10 40.2184 -18.3254
      vertex -10 40.2 -18.5
      vertex -7 40.2 -18.5
    endloop
  endfacet
  facet normal -1 0 0
    outer loop
      vertex -17 42.1348 -21.163
      vertex -17 43 -21.2847
      vertex -17 42.7073 -21.2847
    endloop
  endfacet
  facet normal -1 0 0
    outer loop
      vertex -17 41.6 -20.9249
      vertex -17 43 -21.2847
      vertex -17 42.1348 -21.163
    endloop
  endfacet
  facet normal -1 0 0
    outer loop
      vertex -17 43 -21.2847
      vertex -17 41.6 -20.9249
      vertex -17 43 -15.7153
    endloop
  endfacet
  facet normal -1 -0 0
    outer loop
      vertex -17 43 -15.7153
      vertex -17 42.1348 -15.837
      vertex -17 42.7073 -15.7153
    endloop
  endfacet
  facet normal -1 0 0
    outer loop
      vertex -17 41.6 -16.0751
      vertex -17 43 -15.7153
      vertex -17 41.6 -20.9249
    endloop
  endfacet
  facet normal -1 0 0
    outer loop
      vertex -17 43 -15.7153
      vertex -17 41.6 -16.0751
      vertex -17 42.1348 -15.837
    endloop
  endfacet
  facet normal -1 0 0
    outer loop
      vertex -17 41.1264 -20.5808
      vertex -17 41.6 -16.0751
      vertex -17 41.6 -20.9249
    endloop
  endfacet
  facet normal -1 0 0
    outer loop
      vertex -17 41.1264 -20.5808
      vertex -17 41.1264 -16.4192
      vertex -17 41.6 -16.0751
    endloop
  endfacet
  facet normal -1 0 0
    outer loop
      vertex -17 40.7348 -20.1458
      vertex -17 41.1264 -16.4192
      vertex -17 41.1264 -20.5808
    endloop
  endfacet
  facet normal -1 0 0
    outer loop
      vertex -17 40.7348 -20.1458
      vertex -17 40.7348 -16.8542
      vertex -17 41.1264 -16.4192
    endloop
  endfacet
  facet normal -1 0 0
    outer loop
      vertex -17 40.4421 -19.6389
      vertex -17 40.7348 -16.8542
      vertex -17 40.7348 -20.1458
    endloop
  endfacet
  facet normal -1 0 0
    outer loop
      vertex -17 40.4421 -19.6389
      vertex -17 40.4421 -17.3611
      vertex -17 40.7348 -16.8542
    endloop
  endfacet
  facet normal -1 0 0
    outer loop
      vertex -17 40.2612 -19.0822
      vertex -17 40.4421 -17.3611
      vertex -17 40.4421 -19.6389
    endloop
  endfacet
  facet normal -1 0 0
    outer loop
      vertex -17 40.2612 -19.0822
      vertex -17 40.2612 -17.9178
      vertex -17 40.4421 -17.3611
    endloop
  endfacet
  facet normal -1 0 -0
    outer loop
      vertex -17 40.2612 -17.9178
      vertex -17 40.2612 -19.0822
      vertex -17 40.2 -18.5
    endloop
  endfacet
  facet normal -1 0 0
    outer loop
      vertex -17 43 -21.2847
      vertex -17 47.5774 -21.3
      vertex -17 43 -21.3
    endloop
  endfacet
  facet normal -1 0 0
    outer loop
      vertex -17 47.5774 -21.3
      vertex -17 43 -21.2847
      vertex -17 47.5774 -15.7
    endloop
  endfacet
  facet normal -1 0 0
    outer loop
      vertex -17 43 -15.7153
      vertex -17 47.5774 -15.7
      vertex -17 43 -21.2847
    endloop
  endfacet
  facet normal -1 -0 0
    outer loop
      vertex -17 47.5774 -15.7
      vertex -17 43 -15.7153
      vertex -17 43 -15.7
    endloop
  endfacet
  facet normal 0 -0.587785 -0.809017
    outer loop
      vertex -17 41.1264 -20.5808
      vertex -13 41.6 -20.9249
      vertex -13 41.1264 -20.5808
    endloop
  endfacet
  facet normal -0 -0.587785 -0.809017
    outer loop
      vertex -13 41.6 -20.9249
      vertex -17 41.1264 -20.5808
      vertex -17 41.6 -20.9249
    endloop
  endfacet
  facet normal 0 -0.587785 -0.809017
    outer loop
      vertex -10 41.1264 -20.5808
      vertex -7 41.6 -20.9249
      vertex -7 41.1264 -20.5808
    endloop
  endfacet
  facet normal -0 -0.587785 -0.809017
    outer loop
      vertex -7 41.6 -20.9249
      vertex -10 41.1264 -20.5808
      vertex -10 41.6 -20.9249
    endloop
  endfacet
  facet normal -0 -0.207913 -0.978147
    outer loop
      vertex -13 42.1348 -21.163
      vertex -17 42.1348 -21.163
      vertex -13 42.5 -21.2406
    endloop
  endfacet
  facet normal -3.57196e-007 -0.207909 -0.978148
    outer loop
      vertex -17 42.7073 -21.2847
      vertex -13 42.5 -21.2406
      vertex -17 42.1348 -21.163
    endloop
  endfacet
  facet normal 0 -0.207903 -0.97815
    outer loop
      vertex -13 42.5 -21.2406
      vertex -17 42.7073 -21.2847
      vertex -12.9782 42.7073 -21.2847
    endloop
  endfacet
  facet normal 0 -0.207913 -0.978147
    outer loop
      vertex -10 42.5 -21.2406
      vertex -7 42.1348 -21.163
      vertex -10 42.1348 -21.163
    endloop
  endfacet
  facet normal 4.76262e-007 -0.207909 -0.978148
    outer loop
      vertex -7 42.1348 -21.163
      vertex -10 42.5 -21.2406
      vertex -7 42.7073 -21.2847
    endloop
  endfacet
  facet normal -0 -0.207903 -0.97815
    outer loop
      vertex -7 42.7073 -21.2847
      vertex -10 42.5 -21.2406
      vertex -10.0218 42.7073 -21.2847
    endloop
  endfacet
  facet normal 0 -0.951057 -0.309016
    outer loop
      vertex -10 40.4421 -19.6389
      vertex -7 40.2612 -19.0822
      vertex -10 40.2612 -19.0822
    endloop
  endfacet
  facet normal 0 -0.951057 -0.309016
    outer loop
      vertex -7 40.2612 -19.0822
      vertex -10 40.4421 -19.6389
      vertex -7 40.4421 -19.6389
    endloop
  endfacet
  facet normal 0 -0.951057 -0.309016
    outer loop
      vertex -17 40.4421 -19.6389
      vertex -13 40.2612 -19.0822
      vertex -17 40.2612 -19.0822
    endloop
  endfacet
  facet normal 0 -0.951057 -0.309016
    outer loop
      vertex -13 40.2612 -19.0822
      vertex -17 40.4421 -19.6389
      vertex -13 40.4421 -19.6389
    endloop
  endfacet
  facet normal 3.99316e-007 -0.994522 -0.104524
    outer loop
      vertex -17 40.2612 -19.0822
      vertex -13 40.2245 -18.7329
      vertex -17 40.2 -18.5
    endloop
  endfacet
  facet normal 0 -0.994523 -0.104519
    outer loop
      vertex -13 40.2245 -18.7329
      vertex -17 40.2612 -19.0822
      vertex -13 40.2612 -19.0822
    endloop
  endfacet
  facet normal -0 -0.994524 -0.104508
    outer loop
      vertex -7 40.2612 -19.0822
      vertex -10 40.2428 -18.9075
      vertex -10 40.2612 -19.0822
    endloop
  endfacet
  facet normal 1 0 0
    outer loop
      vertex -7 42.1348 -15.837
      vertex -7 43 -15.7153
      vertex -7 42.7073 -15.7153
    endloop
  endfacet
  facet normal 1 0 0
    outer loop
      vertex -7 41.6 -16.0751
      vertex -7 43 -15.7153
      vertex -7 42.1348 -15.837
    endloop
  endfacet
  facet normal 1 0 0
    outer loop
      vertex -7 43 -15.7153
      vertex -7 41.6 -16.0751
      vertex -7 43 -21.2847
    endloop
  endfacet
  facet normal 1 0 0
    outer loop
      vertex -7 43 -21.2847
      vertex -7 42.1348 -21.163
      vertex -7 42.7073 -21.2847
    endloop
  endfacet
  facet normal 1 -0 0
    outer loop
      vertex -7 41.6 -20.9249
      vertex -7 43 -21.2847
      vertex -7 41.6 -16.0751
    endloop
  endfacet
  facet normal 1 0 0
    outer loop
      vertex -7 43 -21.2847
      vertex -7 41.6 -20.9249
      vertex -7 42.1348 -21.163
    endloop
  endfacet
  facet normal 1 -0 0
    outer loop
      vertex -7 41.1264 -16.4192
      vertex -7 41.6 -20.9249
      vertex -7 41.6 -16.0751
    endloop
  endfacet
  facet normal 1 0 0
    outer loop
      vertex -7 41.1264 -16.4192
      vertex -7 41.1264 -20.5808
      vertex -7 41.6 -20.9249
    endloop
  endfacet
  facet normal 1 -0 0
    outer loop
      vertex -7 40.7348 -16.8542
      vertex -7 41.1264 -20.5808
      vertex -7 41.1264 -16.4192
    endloop
  endfacet
  facet normal 1 0 0
    outer loop
      vertex -7 40.7348 -16.8542
      vertex -7 40.7348 -20.1458
      vertex -7 41.1264 -20.5808
    endloop
  endfacet
  facet normal 1 -0 0
    outer loop
      vertex -7 40.4421 -17.3611
      vertex -7 40.7348 -20.1458
      vertex -7 40.7348 -16.8542
    endloop
  endfacet
  facet normal 1 0 0
    outer loop
      vertex -7 40.4421 -17.3611
      vertex -7 40.4421 -19.6389
      vertex -7 40.7348 -20.1458
    endloop
  endfacet
  facet normal 1 -0 0
    outer loop
      vertex -7 40.2612 -17.9178
      vertex -7 40.4421 -19.6389
      vertex -7 40.4421 -17.3611
    endloop
  endfacet
  facet normal 1 0 0
    outer loop
      vertex -7 40.2612 -17.9178
      vertex -7 40.2612 -19.0822
      vertex -7 40.4421 -19.6389
    endloop
  endfacet
  facet normal 1 0 -0
    outer loop
      vertex -7 40.2612 -19.0822
      vertex -7 40.2612 -17.9178
      vertex -7 40.2 -18.5
    endloop
  endfacet
  facet normal 1 0 0
    outer loop
      vertex -7 43 -15.7153
      vertex -7 46 -15.7
      vertex -7 43 -15.7
    endloop
  endfacet
  facet normal 1 0 0
    outer loop
      vertex -7 46 -15.7
      vertex -7 43 -15.7153
      vertex -7 46 -21.3
    endloop
  endfacet
  facet normal 1 -0 0
    outer loop
      vertex -7 43 -21.2847
      vertex -7 46 -21.3
      vertex -7 43 -15.7153
    endloop
  endfacet
  facet normal 1 0 0
    outer loop
      vertex -7 46 -21.3
      vertex -7 43 -21.2847
      vertex -7 43 -21.3
    endloop
  endfacet
  facet normal 0 -0.994523 0.104521
    outer loop
      vertex -10 40.2184 -18.3254
      vertex -7 40.2612 -17.9178
      vertex -10 40.2612 -17.9178
    endloop
  endfacet
  facet normal -3.66089e-007 -0.994522 0.104524
    outer loop
      vertex -7 40.2612 -17.9178
      vertex -10 40.2184 -18.3254
      vertex -7 40.2 -18.5
    endloop
  endfacet
  facet normal 0 -0.994523 0.104514
    outer loop
      vertex -13 40.2612 -17.9178
      vertex -17 40.2612 -17.9178
      vertex -13 40.2367 -18.1507
    endloop
  endfacet
  facet normal 0 -0.866024 0.500003
    outer loop
      vertex -10 40.4421 -17.3611
      vertex -7 40.7348 -16.8542
      vertex -10 40.7348 -16.8542
    endloop
  endfacet
  facet normal 0 -0.866024 0.500003
    outer loop
      vertex -7 40.7348 -16.8542
      vertex -10 40.4421 -17.3611
      vertex -7 40.4421 -17.3611
    endloop
  endfacet
  facet normal 0 -0.866024 0.500003
    outer loop
      vertex -17 40.4421 -17.3611
      vertex -13 40.7348 -16.8542
      vertex -17 40.7348 -16.8542
    endloop
  endfacet
  facet normal 0 -0.866024 0.500003
    outer loop
      vertex -13 40.7348 -16.8542
      vertex -17 40.4421 -17.3611
      vertex -13 40.4421 -17.3611
    endloop
  endfacet
  facet normal 0 -0.743145 0.66913
    outer loop
      vertex -10 40.7348 -16.8542
      vertex -7 41.1264 -16.4192
      vertex -10 41.1264 -16.4192
    endloop
  endfacet
  facet normal 0 -0.743145 0.66913
    outer loop
      vertex -7 41.1264 -16.4192
      vertex -10 40.7348 -16.8542
      vertex -7 40.7348 -16.8542
    endloop
  endfacet
  facet normal 0 -0.743145 0.66913
    outer loop
      vertex -17 40.7348 -16.8542
      vertex -13 41.1264 -16.4192
      vertex -17 41.1264 -16.4192
    endloop
  endfacet
  facet normal 0 -0.743145 0.66913
    outer loop
      vertex -13 41.1264 -16.4192
      vertex -17 40.7348 -16.8542
      vertex -13 40.7348 -16.8542
    endloop
  endfacet
  facet normal 0 -0.406739 -0.913544
    outer loop
      vertex -17 41.6 -20.9249
      vertex -13 42.1348 -21.163
      vertex -13 41.6 -20.9249
    endloop
  endfacet
  facet normal -0 -0.406739 -0.913544
    outer loop
      vertex -13 42.1348 -21.163
      vertex -17 41.6 -20.9249
      vertex -17 42.1348 -21.163
    endloop
  endfacet
  facet normal 0 -0.406739 -0.913544
    outer loop
      vertex -10 41.6 -20.9249
      vertex -7 42.1348 -21.163
      vertex -7 41.6 -20.9249
    endloop
  endfacet
  facet normal -0 -0.406739 -0.913544
    outer loop
      vertex -7 42.1348 -21.163
      vertex -10 41.6 -20.9249
      vertex -10 42.1348 -21.163
    endloop
  endfacet
  facet normal 0 -0.743145 -0.66913
    outer loop
      vertex -17 41.1264 -20.5808
      vertex -13 40.7348 -20.1458
      vertex -17 40.7348 -20.1458
    endloop
  endfacet
  facet normal 0 -0.743145 -0.66913
    outer loop
      vertex -13 40.7348 -20.1458
      vertex -17 41.1264 -20.5808
      vertex -13 41.1264 -20.5808
    endloop
  endfacet
  facet normal 0 -0.743145 -0.66913
    outer loop
      vertex -10 41.1264 -20.5808
      vertex -7 40.7348 -20.1458
      vertex -10 40.7348 -20.1458
    endloop
  endfacet
  facet normal 0 -0.743145 -0.66913
    outer loop
      vertex -7 40.7348 -20.1458
      vertex -10 41.1264 -20.5808
      vertex -7 41.1264 -20.5808
    endloop
  endfacet
  facet normal 0 -0.951057 0.309016
    outer loop
      vertex -17 40.2612 -17.9178
      vertex -13 40.4421 -17.3611
      vertex -17 40.4421 -17.3611
    endloop
  endfacet
  facet normal 0 -0.951057 0.309016
    outer loop
      vertex -13 40.4421 -17.3611
      vertex -17 40.2612 -17.9178
      vertex -13 40.2612 -17.9178
    endloop
  endfacet
  facet normal 0 -0.951057 0.309016
    outer loop
      vertex -10 40.2612 -17.9178
      vertex -7 40.4421 -17.3611
      vertex -10 40.4421 -17.3611
    endloop
  endfacet
  facet normal 0 -0.951057 0.309016
    outer loop
      vertex -7 40.4421 -17.3611
      vertex -10 40.2612 -17.9178
      vertex -7 40.2612 -17.9178
    endloop
  endfacet
  facet normal 0 -0.587785 0.809017
    outer loop
      vertex -10 41.6 -16.0751
      vertex -7 41.1264 -16.4192
      vertex -7 41.6 -16.0751
    endloop
  endfacet
  facet normal 0 -0.587785 0.809017
    outer loop
      vertex -7 41.1264 -16.4192
      vertex -10 41.6 -16.0751
      vertex -10 41.1264 -16.4192
    endloop
  endfacet
  facet normal 0 -0.587785 0.809017
    outer loop
      vertex -17 41.6 -16.0751
      vertex -13 41.1264 -16.4192
      vertex -13 41.6 -16.0751
    endloop
  endfacet
  facet normal 0 -0.587785 0.809017
    outer loop
      vertex -13 41.1264 -16.4192
      vertex -17 41.6 -16.0751
      vertex -17 41.1264 -16.4192
    endloop
  endfacet
  facet normal 0 -0.406738 0.913545
    outer loop
      vertex -10 42.1348 -15.837
      vertex -7 41.6 -16.0751
      vertex -7 42.1348 -15.837
    endloop
  endfacet
  facet normal 0 -0.406738 0.913545
    outer loop
      vertex -7 41.6 -16.0751
      vertex -10 42.1348 -15.837
      vertex -10 41.6 -16.0751
    endloop
  endfacet
  facet normal 0 -0.406738 0.913545
    outer loop
      vertex -17 42.1348 -15.837
      vertex -13 41.6 -16.0751
      vertex -13 42.1348 -15.837
    endloop
  endfacet
  facet normal 0 -0.406738 0.913545
    outer loop
      vertex -13 41.6 -16.0751
      vertex -17 42.1348 -15.837
      vertex -17 41.6 -16.0751
    endloop
  endfacet
  facet normal 0 -0.207911 0.978148
    outer loop
      vertex -17 42.7073 -15.7153
      vertex -13 42.5 -15.7594
      vertex -12.9782 42.7073 -15.7153
    endloop
  endfacet
  facet normal 2.47789e-008 -0.207911 0.978148
    outer loop
      vertex -17 42.1348 -15.837
      vertex -13 42.5 -15.7594
      vertex -17 42.7073 -15.7153
    endloop
  endfacet
  facet normal 0 -0.207911 0.978148
    outer loop
      vertex -13 42.5 -15.7594
      vertex -17 42.1348 -15.837
      vertex -13 42.1348 -15.837
    endloop
  endfacet
  facet normal -3.30385e-008 -0.207911 0.978148
    outer loop
      vertex -7 42.7073 -15.7153
      vertex -10 42.5 -15.7594
      vertex -7 42.1348 -15.837
    endloop
  endfacet
  facet normal 0 -0.207911 0.978148
    outer loop
      vertex -10 42.5 -15.7594
      vertex -7 42.7073 -15.7153
      vertex -10.0218 42.7073 -15.7153
    endloop
  endfacet
  facet normal 0 -0.207911 0.978148
    outer loop
      vertex -7 42.1348 -15.837
      vertex -10 42.5 -15.7594
      vertex -10 42.1348 -15.837
    endloop
  endfacet
  facet normal 0 -0.866023 -0.500005
    outer loop
      vertex -17 40.7348 -20.1458
      vertex -13 40.4421 -19.6389
      vertex -17 40.4421 -19.6389
    endloop
  endfacet
  facet normal 0 -0.866023 -0.500005
    outer loop
      vertex -13 40.4421 -19.6389
      vertex -17 40.7348 -20.1458
      vertex -13 40.7348 -20.1458
    endloop
  endfacet
  facet normal 0 -0.866023 -0.500005
    outer loop
      vertex -10 40.7348 -20.1458
      vertex -7 40.4421 -19.6389
      vertex -10 40.4421 -19.6389
    endloop
  endfacet
  facet normal 0 -0.866023 -0.500005
    outer loop
      vertex -7 40.4421 -19.6389
      vertex -10 40.7348 -20.1458
      vertex -7 40.7348 -20.1458
    endloop
  endfacet
  facet normal 0 0 1
    outer loop
      vertex -6.4 50.5 -15.7
      vertex -7 46 -15.7
      vertex -6.4 46 -15.7
    endloop
  endfacet
  facet normal -0 0 1
    outer loop
      vertex -10.2865 43.3817 -15.7
      vertex -7 43 -15.7
      vertex -7 46 -15.7
    endloop
  endfacet
  facet normal -0 0 1
    outer loop
      vertex -11.9378 50.5 -15.7
      vertex -7 46 -15.7
      vertex -6.4 50.5 -15.7
    endloop
  endfacet
  facet normal 0 0 1
    outer loop
      vertex -7 43 -15.7
      vertex -10.1297 43.1101 -15.7
      vertex -10.0939 43 -15.7
    endloop
  endfacet
  facet normal 0 0 1
    outer loop
      vertex -7 43 -15.7
      vertex -10.2865 43.3817 -15.7
      vertex -10.1297 43.1101 -15.7
    endloop
  endfacet
  facet normal 0 0 1
    outer loop
      vertex -7 46 -15.7
      vertex -10.4963 43.6147 -15.7
      vertex -10.2865 43.3817 -15.7
    endloop
  endfacet
  facet normal 0 0 1
    outer loop
      vertex -7 46 -15.7
      vertex -10.75 43.799 -15.7
      vertex -10.4963 43.6147 -15.7
    endloop
  endfacet
  facet normal 0 -0 1
    outer loop
      vertex -11.0365 43.9266 -15.7
      vertex -7 46 -15.7
      vertex -11.9378 50.5 -15.7
    endloop
  endfacet
  facet normal 0 0 1
    outer loop
      vertex -7 46 -15.7
      vertex -11.0365 43.9266 -15.7
      vertex -10.75 43.799 -15.7
    endloop
  endfacet
  facet normal 0 0 1
    outer loop
      vertex -11.0365 43.9266 -15.7
      vertex -11.9378 50.5 -15.7
      vertex -11.3432 43.9918 -15.7
    endloop
  endfacet
  facet normal 0 0 1
    outer loop
      vertex -11.3432 43.9918 -15.7
      vertex -11.9378 50.5 -15.7
      vertex -11.6568 43.9918 -15.7
    endloop
  endfacet
  facet normal 0 0 1
    outer loop
      vertex -11.9378 50.5 -15.7
      vertex -11.9635 43.9266 -15.7
      vertex -11.6568 43.9918 -15.7
    endloop
  endfacet
  facet normal -0 0 1
    outer loop
      vertex -17 47.5774 -15.7
      vertex -11.9635 43.9266 -15.7
      vertex -11.9378 50.5 -15.7
    endloop
  endfacet
  facet normal 0 0 1
    outer loop
      vertex -11.9635 43.9266 -15.7
      vertex -17 47.5774 -15.7
      vertex -12.25 43.799 -15.7
    endloop
  endfacet
  facet normal 0 0 1
    outer loop
      vertex -12.25 43.799 -15.7
      vertex -17 47.5774 -15.7
      vertex -12.5037 43.6147 -15.7
    endloop
  endfacet
  facet normal 0 0 1
    outer loop
      vertex -12.5037 43.6147 -15.7
      vertex -17 47.5774 -15.7
      vertex -12.7135 43.3817 -15.7
    endloop
  endfacet
  facet normal 0 0 1
    outer loop
      vertex -17 43 -15.7
      vertex -12.7135 43.3817 -15.7
      vertex -17 47.5774 -15.7
    endloop
  endfacet
  facet normal 0 0 1
    outer loop
      vertex -12.7135 43.3817 -15.7
      vertex -17 43 -15.7
      vertex -12.8703 43.1101 -15.7
    endloop
  endfacet
  facet normal 0 0 1
    outer loop
      vertex -12.8703 43.1101 -15.7
      vertex -17 43 -15.7
      vertex -12.9061 43 -15.7
    endloop
  endfacet
  facet normal 0 0 -1
    outer loop
      vertex -10.1297 43.1101 -21.3
      vertex -7 43 -21.3
      vertex -10.0939 43 -21.3
    endloop
  endfacet
  facet normal 0 0 -1
    outer loop
      vertex -7 46 -21.3
      vertex -6.4 50.5 -21.3
      vertex -6.4 46 -21.3
    endloop
  endfacet
  facet normal 0 0 -1
    outer loop
      vertex -10.2865 43.3817 -21.3
      vertex -7 43 -21.3
      vertex -10.1297 43.1101 -21.3
    endloop
  endfacet
  facet normal 0 0 -1
    outer loop
      vertex -7 43 -21.3
      vertex -10.2865 43.3817 -21.3
      vertex -7 46 -21.3
    endloop
  endfacet
  facet normal 0 0 -1
    outer loop
      vertex -10.4963 43.6147 -21.3
      vertex -7 46 -21.3
      vertex -10.2865 43.3817 -21.3
    endloop
  endfacet
  facet normal 0 0 -1
    outer loop
      vertex -10.75 43.799 -21.3
      vertex -7 46 -21.3
      vertex -10.4963 43.6147 -21.3
    endloop
  endfacet
  facet normal 0 0 -1
    outer loop
      vertex -11.0365 43.9266 -21.3
      vertex -7 46 -21.3
      vertex -10.75 43.799 -21.3
    endloop
  endfacet
  facet normal -0 0 -1
    outer loop
      vertex -7 46 -21.3
      vertex -11.0365 43.9266 -21.3
      vertex -11.9378 50.5 -21.3
    endloop
  endfacet
  facet normal 0 0 -1
    outer loop
      vertex -11.9378 50.5 -21.3
      vertex -11.0365 43.9266 -21.3
      vertex -11.3432 43.9918 -21.3
    endloop
  endfacet
  facet normal 0 0 -1
    outer loop
      vertex -11.9378 50.5 -21.3
      vertex -11.3432 43.9918 -21.3
      vertex -11.6568 43.9918 -21.3
    endloop
  endfacet
  facet normal 0 0 -1
    outer loop
      vertex -7 46 -21.3
      vertex -11.9378 50.5 -21.3
      vertex -6.4 50.5 -21.3
    endloop
  endfacet
  facet normal 0 0 -1
    outer loop
      vertex -11.9635 43.9266 -21.3
      vertex -11.9378 50.5 -21.3
      vertex -11.6568 43.9918 -21.3
    endloop
  endfacet
  facet normal 0 0 -1
    outer loop
      vertex -17 47.5774 -21.3
      vertex -11.9635 43.9266 -21.3
      vertex -12.25 43.799 -21.3
    endloop
  endfacet
  facet normal 0 0 -1
    outer loop
      vertex -17 47.5774 -21.3
      vertex -12.25 43.799 -21.3
      vertex -12.5037 43.6147 -21.3
    endloop
  endfacet
  facet normal 0 0 -1
    outer loop
      vertex -17 47.5774 -21.3
      vertex -12.5037 43.6147 -21.3
      vertex -12.7135 43.3817 -21.3
    endloop
  endfacet
  facet normal 0 0 -1
    outer loop
      vertex -17 43 -21.3
      vertex -12.7135 43.3817 -21.3
      vertex -12.8703 43.1101 -21.3
    endloop
  endfacet
  facet normal 0 0 -1
    outer loop
      vertex -17 43 -21.3
      vertex -12.8703 43.1101 -21.3
      vertex -12.9061 43 -21.3
    endloop
  endfacet
  facet normal -0 0 -1
    outer loop
      vertex -12.7135 43.3817 -21.3
      vertex -17 43 -21.3
      vertex -17 47.5774 -21.3
    endloop
  endfacet
  facet normal 0 0 -1
    outer loop
      vertex -11.9635 43.9266 -21.3
      vertex -17 47.5774 -21.3
      vertex -11.9378 50.5 -21.3
    endloop
  endfacet
  facet normal 0 -1 0
    outer loop
      vertex -17 43 -15.7153
      vertex -12.9061 43 -15.7
      vertex -17 43 -15.7
    endloop
  endfacet
  facet normal 0 -1 -0
    outer loop
      vertex -12.9061 43 -15.7
      vertex -17 43 -15.7153
      vertex -12.9061 43 -15.7153
    endloop
  endfacet
  facet normal 0 -1 0
    outer loop
      vertex -10.0939 43 -15.7153
      vertex -7 43 -15.7
      vertex -10.0939 43 -15.7
    endloop
  endfacet
  facet normal 0 -1 -0
    outer loop
      vertex -7 43 -15.7
      vertex -10.0939 43 -15.7153
      vertex -7 43 -15.7153
    endloop
  endfacet
  facet normal 0 -1 0
    outer loop
      vertex -17 43 -21.3
      vertex -12.9061 43 -21.2847
      vertex -17 43 -21.2847
    endloop
  endfacet
  facet normal 0 -1 -0
    outer loop
      vertex -12.9061 43 -21.2847
      vertex -17 43 -21.3
      vertex -12.9061 43 -21.3
    endloop
  endfacet
  facet normal 0 -1 0
    outer loop
      vertex -10.0939 43 -21.3
      vertex -7 43 -21.2847
      vertex -10.0939 43 -21.2847
    endloop
  endfacet
  facet normal 0 -1 -0
    outer loop
      vertex -7 43 -21.2847
      vertex -10.0939 43 -21.3
      vertex -7 43 -21.3
    endloop
  endfacet
  facet normal 0 1 -0
    outer loop
      vertex -6.4 50.5 -21.3
      vertex -11.9378 50.5 -15.7
      vertex -6.4 50.5 -15.7
    endloop
  endfacet
  facet normal 0 1 0
    outer loop
      vertex -11.9378 50.5 -15.7
      vertex -6.4 50.5 -21.3
      vertex -11.9378 50.5 -21.3
    endloop
  endfacet
  facet normal 1 -0 0
    outer loop
      vertex -6.4 46 -15.7
      vertex -6.4 50.5 -21.3
      vertex -6.4 50.5 -15.7
    endloop
  endfacet
  facet normal 1 0 0
    outer loop
      vertex -6.4 50.5 -21.3
      vertex -6.4 46 -15.7
      vertex -6.4 46 -21.3
    endloop
  endfacet
  facet normal 0 -1 0
    outer loop
      vertex -7 46 -21.3
      vertex -6.4 46 -15.7
      vertex -7 46 -15.7
    endloop
  endfacet
  facet normal 0 -1 -0
    outer loop
      vertex -6.4 46 -15.7
      vertex -7 46 -21.3
      vertex -6.4 46 -21.3
    endloop
  endfacet
  facet normal -0.994522 -0.104529 -1.99231e-005
    outer loop
      vertex -10 42.5 -21.2406
      vertex -10.0328 42.8119 -21.2847
      vertex -10.0218 42.7073 -21.2847
    endloop
  endfacet
  facet normal -0.994522 -0.104526 0
    outer loop
      vertex -10.0328 42.8119 -21.2847
      vertex -10 42.5 -21.2406
      vertex -10.0328 42.8119 -15.7153
    endloop
  endfacet
  facet normal -0.994522 -0.104526 -0
    outer loop
      vertex -10 42.5 -15.7594
      vertex -10.0328 42.8119 -15.7153
      vertex -10 42.5 -21.2406
    endloop
  endfacet
  facet normal -0.994522 -0.104529 1.99222e-005
    outer loop
      vertex -10.0328 42.8119 -15.7153
      vertex -10 42.5 -15.7594
      vertex -10.0218 42.7073 -15.7153
    endloop
  endfacet
  facet normal 0.994522 -0.104529 -1.6005e-006
    outer loop
      vertex -13 42.5 -15.7594
      vertex -12.9672 42.8119 -15.7153
      vertex -12.9782 42.7073 -15.7153
    endloop
  endfacet
  facet normal 0.994522 -0.104529 0
    outer loop
      vertex -12.9672 42.8119 -15.7153
      vertex -13 42.5 -15.7594
      vertex -12.9672 42.8119 -21.2847
    endloop
  endfacet
  facet normal 0.994522 -0.104529 0
    outer loop
      vertex -13 42.5 -21.2406
      vertex -12.9672 42.8119 -21.2847
      vertex -13 42.5 -15.7594
    endloop
  endfacet
  facet normal 0.994522 -0.104529 1.60057e-006
    outer loop
      vertex -12.9672 42.8119 -21.2847
      vertex -13 42.5 -21.2406
      vertex -12.9782 42.7073 -21.2847
    endloop
  endfacet
  facet normal 0 -1 0
    outer loop
      vertex -11.6568 43.9918 -21.3
      vertex -11.3432 43.9918 -15.7
      vertex -11.6568 43.9918 -15.7
    endloop
  endfacet
  facet normal 0 -1 -0
    outer loop
      vertex -11.3432 43.9918 -15.7
      vertex -11.6568 43.9918 -21.3
      vertex -11.3432 43.9918 -21.3
    endloop
  endfacet
  facet normal -0.587788 -0.809015 0
    outer loop
      vertex -10.75 43.799 -21.3
      vertex -10.4963 43.6147 -15.7
      vertex -10.75 43.799 -15.7
    endloop
  endfacet
  facet normal -0.587788 -0.809015 -0
    outer loop
      vertex -10.4963 43.6147 -15.7
      vertex -10.75 43.799 -21.3
      vertex -10.4963 43.6147 -21.3
    endloop
  endfacet
  facet normal 0.743146 -0.669129 0
    outer loop
      vertex -12.7135 43.3817 -15.7
      vertex -12.5037 43.6147 -21.3
      vertex -12.5037 43.6147 -15.7
    endloop
  endfacet
  facet normal 0.743146 -0.669129 0
    outer loop
      vertex -12.5037 43.6147 -21.3
      vertex -12.7135 43.3817 -15.7
      vertex -12.7135 43.3817 -21.3
    endloop
  endfacet
  facet normal 0.40673 -0.913548 0
    outer loop
      vertex -12.25 43.799 -21.3
      vertex -11.9635 43.9266 -15.7
      vertex -12.25 43.799 -15.7
    endloop
  endfacet
  facet normal 0.40673 -0.913548 0
    outer loop
      vertex -11.9635 43.9266 -15.7
      vertex -12.25 43.799 -21.3
      vertex -11.9635 43.9266 -21.3
    endloop
  endfacet
  facet normal -0.866025 -0.500001 0
    outer loop
      vertex -10.1297 43.1101 -21.3
      vertex -10.2865 43.3817 -15.7
      vertex -10.2865 43.3817 -21.3
    endloop
  endfacet
  facet normal -0.866025 -0.500001 0
    outer loop
      vertex -10.2865 43.3817 -15.7
      vertex -10.1297 43.1101 -21.3
      vertex -10.1297 43.1101 -15.7
    endloop
  endfacet
  facet normal -0.951056 -0.309019 0
    outer loop
      vertex -10.0328 42.8119 -21.2847
      vertex -10.0939 43 -15.7153
      vertex -10.0939 43 -21.2847
    endloop
  endfacet
  facet normal -0.951056 -0.309019 0
    outer loop
      vertex -10.0939 43 -15.7153
      vertex -10.0328 42.8119 -21.2847
      vertex -10.0328 42.8119 -15.7153
    endloop
  endfacet
  facet normal -0.951056 -0.30902 -0
    outer loop
      vertex -10.0939 43 -21.2847
      vertex -10.1297 43.1101 -21.3
      vertex -10.0939 43 -21.3
    endloop
  endfacet
  facet normal -0.951056 -0.30902 0
    outer loop
      vertex -10.1297 43.1101 -21.3
      vertex -10.0939 43 -21.2847
      vertex -10.1297 43.1101 -15.7
    endloop
  endfacet
  facet normal -0.951056 -0.30902 -0
    outer loop
      vertex -10.0939 43 -15.7153
      vertex -10.1297 43.1101 -15.7
      vertex -10.0939 43 -21.2847
    endloop
  endfacet
  facet normal -0.951056 -0.30902 0
    outer loop
      vertex -10.1297 43.1101 -15.7
      vertex -10.0939 43 -15.7153
      vertex -10.0939 43 -15.7
    endloop
  endfacet
  facet normal -0.743146 -0.669129 0
    outer loop
      vertex -10.2865 43.3817 -21.3
      vertex -10.4963 43.6147 -15.7
      vertex -10.4963 43.6147 -21.3
    endloop
  endfacet
  facet normal -0.743146 -0.669129 0
    outer loop
      vertex -10.4963 43.6147 -15.7
      vertex -10.2865 43.3817 -21.3
      vertex -10.2865 43.3817 -15.7
    endloop
  endfacet
  facet normal -0.20792 -0.978146 0
    outer loop
      vertex -11.3432 43.9918 -21.3
      vertex -11.0365 43.9266 -15.7
      vertex -11.3432 43.9918 -15.7
    endloop
  endfacet
  facet normal -0.20792 -0.978146 -0
    outer loop
      vertex -11.0365 43.9266 -15.7
      vertex -11.3432 43.9918 -21.3
      vertex -11.0365 43.9266 -21.3
    endloop
  endfacet
  facet normal -0.406731 -0.913548 0
    outer loop
      vertex -11.0365 43.9266 -21.3
      vertex -10.75 43.799 -15.7
      vertex -11.0365 43.9266 -15.7
    endloop
  endfacet
  facet normal -0.406731 -0.913548 -0
    outer loop
      vertex -10.75 43.799 -15.7
      vertex -11.0365 43.9266 -21.3
      vertex -10.75 43.799 -21.3
    endloop
  endfacet
  facet normal 0.866025 -0.500001 0
    outer loop
      vertex -12.8703 43.1101 -15.7
      vertex -12.7135 43.3817 -21.3
      vertex -12.7135 43.3817 -15.7
    endloop
  endfacet
  facet normal 0.866025 -0.500001 0
    outer loop
      vertex -12.7135 43.3817 -21.3
      vertex -12.8703 43.1101 -15.7
      vertex -12.8703 43.1101 -21.3
    endloop
  endfacet
  facet normal 0.951056 -0.309019 0
    outer loop
      vertex -12.9672 42.8119 -15.7153
      vertex -12.9061 43 -21.2847
      vertex -12.9061 43 -15.7153
    endloop
  endfacet
  facet normal 0.951056 -0.309019 0
    outer loop
      vertex -12.9061 43 -21.2847
      vertex -12.9672 42.8119 -15.7153
      vertex -12.9672 42.8119 -21.2847
    endloop
  endfacet
  facet normal 0.951056 -0.30902 0
    outer loop
      vertex -12.9061 43 -15.7153
      vertex -12.8703 43.1101 -15.7
      vertex -12.9061 43 -15.7
    endloop
  endfacet
  facet normal 0.951056 -0.30902 0
    outer loop
      vertex -12.8703 43.1101 -15.7
      vertex -12.9061 43 -15.7153
      vertex -12.8703 43.1101 -21.3
    endloop
  endfacet
  facet normal 0.951056 -0.30902 0
    outer loop
      vertex -12.9061 43 -21.2847
      vertex -12.8703 43.1101 -21.3
      vertex -12.9061 43 -15.7153
    endloop
  endfacet
  facet normal 0.951056 -0.30902 0
    outer loop
      vertex -12.8703 43.1101 -21.3
      vertex -12.9061 43 -21.2847
      vertex -12.9061 43 -21.3
    endloop
  endfacet
  facet normal 0.587789 -0.809014 0
    outer loop
      vertex -12.5037 43.6147 -21.3
      vertex -12.25 43.799 -15.7
      vertex -12.5037 43.6147 -15.7
    endloop
  endfacet
  facet normal 0.587789 -0.809014 0
    outer loop
      vertex -12.25 43.799 -15.7
      vertex -12.5037 43.6147 -21.3
      vertex -12.25 43.799 -21.3
    endloop
  endfacet
  facet normal 0.20792 -0.978146 0
    outer loop
      vertex -11.9635 43.9266 -21.3
      vertex -11.6568 43.9918 -15.7
      vertex -11.9635 43.9266 -15.7
    endloop
  endfacet
  facet normal 0.20792 -0.978146 0
    outer loop
      vertex -11.6568 43.9918 -15.7
      vertex -11.9635 43.9266 -21.3
      vertex -11.6568 43.9918 -21.3
    endloop
  endfacet
  facet normal 1 0 0
    outer loop
      vertex -13 41.6 -16.0751
      vertex -13 42.5 -15.7594
      vertex -13 42.1348 -15.837
    endloop
  endfacet
  facet normal 1 0 0
    outer loop
      vertex -13 40.2367 -18.1507
      vertex -13 42.5 -15.7594
      vertex -13 41.6 -16.0751
    endloop
  endfacet
  facet normal 1 0 0
    outer loop
      vertex -13 42.5 -15.7594
      vertex -13 40.2367 -18.1507
      vertex -13 42.5 -21.2406
    endloop
  endfacet
  facet normal 1 0 0
    outer loop
      vertex -13 42.5 -21.2406
      vertex -13 41.6 -20.9249
      vertex -13 42.1348 -21.163
    endloop
  endfacet
  facet normal 1 0 0
    outer loop
      vertex -13 40.2367 -18.1507
      vertex -13 41.6 -16.0751
      vertex -13 41.1264 -16.4192
    endloop
  endfacet
  facet normal 1 -0 0
    outer loop
      vertex -13 40.2245 -18.7329
      vertex -13 42.5 -21.2406
      vertex -13 40.2367 -18.1507
    endloop
  endfacet
  facet normal 1 0 0
    outer loop
      vertex -13 40.2367 -18.1507
      vertex -13 41.1264 -16.4192
      vertex -13 40.7348 -16.8542
    endloop
  endfacet
  facet normal 1 0 0
    outer loop
      vertex -13 42.5 -21.2406
      vertex -13 40.2245 -18.7329
      vertex -13 41.6 -20.9249
    endloop
  endfacet
  facet normal 1 0 0
    outer loop
      vertex -13 40.2367 -18.1507
      vertex -13 40.7348 -16.8542
      vertex -13 40.4421 -17.3611
    endloop
  endfacet
  facet normal 1 0 0
    outer loop
      vertex -13 41.6 -20.9249
      vertex -13 40.2245 -18.7329
      vertex -13 41.1264 -20.5808
    endloop
  endfacet
  facet normal 1 0 0
    outer loop
      vertex -13 40.2367 -18.1507
      vertex -13 40.4421 -17.3611
      vertex -13 40.2612 -17.9178
    endloop
  endfacet
  facet normal 1 0 0
    outer loop
      vertex -13 41.1264 -20.5808
      vertex -13 40.2245 -18.7329
      vertex -13 40.7348 -20.1458
    endloop
  endfacet
  facet normal 1 0 0
    outer loop
      vertex -13 40.7348 -20.1458
      vertex -13 40.2245 -18.7329
      vertex -13 40.4421 -19.6389
    endloop
  endfacet
  facet normal 1 0 0
    outer loop
      vertex -13 40.4421 -19.6389
      vertex -13 40.2245 -18.7329
      vertex -13 40.2612 -19.0822
    endloop
  endfacet
  facet normal 1 0 -0
    outer loop
      vertex -13 40.2245 -18.7329
      vertex -13 40.2367 -18.1507
      vertex -13 40.2 -18.5
    endloop
  endfacet
  facet normal -1 0 0
    outer loop
      vertex -10 41.6 -20.9249
      vertex -10 42.5 -21.2406
      vertex -10 42.1348 -21.163
    endloop
  endfacet
  facet normal -1 0 0
    outer loop
      vertex -10 41.1264 -20.5808
      vertex -10 42.5 -21.2406
      vertex -10 41.6 -20.9249
    endloop
  endfacet
  facet normal -1 0 0
    outer loop
      vertex -10 40.2428 -18.9075
      vertex -10 42.5 -21.2406
      vertex -10 41.1264 -20.5808
    endloop
  endfacet
  facet normal -1 0 0
    outer loop
      vertex -10 42.5 -15.7594
      vertex -10 41.6 -16.0751
      vertex -10 42.1348 -15.837
    endloop
  endfacet
  facet normal -1 0 0
    outer loop
      vertex -10 42.5 -21.2406
      vertex -10 40.2428 -18.9075
      vertex -10 42.5 -15.7594
    endloop
  endfacet
  facet normal -1 0 0
    outer loop
      vertex -10 40.2184 -18.3254
      vertex -10 42.5 -15.7594
      vertex -10 40.2428 -18.9075
    endloop
  endfacet
  facet normal -1 0 0
    outer loop
      vertex -10 40.2428 -18.9075
      vertex -10 41.1264 -20.5808
      vertex -10 40.7348 -20.1458
    endloop
  endfacet
  facet normal -1 0 0
    outer loop
      vertex -10 42.5 -15.7594
      vertex -10 41.1264 -16.4192
      vertex -10 41.6 -16.0751
    endloop
  endfacet
  facet normal -1 0 0
    outer loop
      vertex -10 40.2428 -18.9075
      vertex -10 40.7348 -20.1458
      vertex -10 40.4421 -19.6389
    endloop
  endfacet
  facet normal -1 0 0
    outer loop
      vertex -10 42.5 -15.7594
      vertex -10 40.2184 -18.3254
      vertex -10 41.1264 -16.4192
    endloop
  endfacet
  facet normal -1 0 0
    outer loop
      vertex -10 40.2428 -18.9075
      vertex -10 40.4421 -19.6389
      vertex -10 40.2612 -19.0822
    endloop
  endfacet
  facet normal -1 0 0
    outer loop
      vertex -10 41.1264 -16.4192
      vertex -10 40.2184 -18.3254
      vertex -10 40.7348 -16.8542
    endloop
  endfacet
  facet normal -1 0 0
    outer loop
      vertex -10 40.7348 -16.8542
      vertex -10 40.2184 -18.3254
      vertex -10 40.4421 -17.3611
    endloop
  endfacet
  facet normal -1 0 0
    outer loop
      vertex -10 40.4421 -17.3611
      vertex -10 40.2184 -18.3254
      vertex -10 40.2612 -17.9178
    endloop
  endfacet
  facet normal -1 0 -0
    outer loop
      vertex -10 40.2184 -18.3254
      vertex -10 40.2428 -18.9075
      vertex -10 40.2 -18.5
    endloop
  endfacet
  facet normal -0.5 0.866025 0
    outer loop
      vertex -11.9378 50.5 -21.3
      vertex -17 47.5774 -15.7
      vertex -11.9378 50.5 -15.7
    endloop
  endfacet
  facet normal -0.5 0.866025 0
    outer loop
      vertex -17 47.5774 -15.7
      vertex -11.9378 50.5 -21.3
      vertex -17 47.5774 -21.3
    endloop
  endfacet
endsolid OpenSCAD_Model
