solid OpenSCAD_Model
  facet normal 1 0 0
    outer loop
      vertex 1 10 15.5
      vertex 1 8.5 10.5
      vertex 1 10 10.5
    endloop
  endfacet
  facet normal 1 -0 0
    outer loop
      vertex 1 5.5 15.5
      vertex 1 8.5 10.5
      vertex 1 10 15.5
    endloop
  endfacet
  facet normal 1 -0 0
    outer loop
      vertex 1 2.14213 12.1421
      vertex 1 8.5 10.5
      vertex 1 5.5 15.5
    endloop
  endfacet
  facet normal 1 0 0
    outer loop
      vertex 1 2.14213 0
      vertex 1 8.5 10.5
      vertex 1 2.14213 12.1421
    endloop
  endfacet
  facet normal 1 0 0
    outer loop
      vertex 1 8.5 10.5
      vertex 1 2.14213 0
      vertex 1 8.5 0
    endloop
  endfacet
  facet normal 0 0 -1
    outer loop
      vertex 26 5.5 15.5
      vertex 21 9 15.5
      vertex 26 9 15.5
    endloop
  endfacet
  facet normal 0 0 -1
    outer loop
      vertex 1 5.5 15.5
      vertex 21 9 15.5
      vertex 26 5.5 15.5
    endloop
  endfacet
  facet normal 0 0 -1
    outer loop
      vertex 1 10 15.5
      vertex 21 9 15.5
      vertex 1 5.5 15.5
    endloop
  endfacet
  facet normal 0 0 -1
    outer loop
      vertex 21 9 15.5
      vertex 1 10 15.5
      vertex 21 10 15.5
    endloop
  endfacet
  facet normal -1 0 0
    outer loop
      vertex 26 1 11
      vertex 26 9 15.5
      vertex 26 9 0
    endloop
  endfacet
  facet normal -1 0 0
    outer loop
      vertex 26 1 11
      vertex 26 9 0
      vertex 26 1 0
    endloop
  endfacet
  facet normal -1 -0 0
    outer loop
      vertex 26 9 15.5
      vertex 26 1 11
      vertex 26 5.5 15.5
    endloop
  endfacet
  facet normal 0 1 -0
    outer loop
      vertex 26 1 0
      vertex 2.14214 1 11
      vertex 26 1 11
    endloop
  endfacet
  facet normal 0 1 0
    outer loop
      vertex 2.14214 1 11
      vertex 26 1 0
      vertex 2.14214 1 0
    endloop
  endfacet
  facet normal 0 -1 0
    outer loop
      vertex 21 9 0
      vertex 26 9 15.5
      vertex 21 9 15.5
    endloop
  endfacet
  facet normal 0 -1 -0
    outer loop
      vertex 26 9 15.5
      vertex 21 9 0
      vertex 26 9 0
    endloop
  endfacet
  facet normal 0 0.707107 -0.707107
    outer loop
      vertex 2.14214 1 11
      vertex 1 5.5 15.5
      vertex 26 5.5 15.5
    endloop
  endfacet
  facet normal 0 0.707107 -0.707107
    outer loop
      vertex 2.14214 1 11
      vertex 26 5.5 15.5
      vertex 26 1 11
    endloop
  endfacet
  facet normal 1.97814e-07 0.707107 -0.707107
    outer loop
      vertex 1 5.5 15.5
      vertex 2.14214 1 11
      vertex 1 2.14213 12.1421
    endloop
  endfacet
  facet normal 0.707107 0.707107 0
    outer loop
      vertex 1 2.14213 0
      vertex 2.14214 1 11
      vertex 2.14214 1 0
    endloop
  endfacet
  facet normal 0.707107 0.707107 0
    outer loop
      vertex 2.14214 1 11
      vertex 1 2.14213 0
      vertex 1 2.14213 12.1421
    endloop
  endfacet
  facet normal -1 0 0
    outer loop
      vertex 0 8.5 0
      vertex 0 0 0
      vertex 0 8.5 10.5
    endloop
  endfacet
  facet normal -1 0 0
    outer loop
      vertex 0 8.5 10.5
      vertex 0 10 17
      vertex 0 10 10.5
    endloop
  endfacet
  facet normal -1 0 0
    outer loop
      vertex 0 0 17
      vertex 0 8.5 10.5
      vertex 0 0 0
    endloop
  endfacet
  facet normal -1 0 0
    outer loop
      vertex 0 8.5 10.5
      vertex 0 0 17
      vertex 0 10 17
    endloop
  endfacet
  facet normal 0 0 1
    outer loop
      vertex 35 10 17
      vertex 33.1 5 17
      vertex 35 0 17
    endloop
  endfacet
  facet normal 0 0 1
    outer loop
      vertex 35 10 17
      vertex 32.832 6.26088 17
      vertex 33.1 5 17
    endloop
  endfacet
  facet normal 0 0 1
    outer loop
      vertex 35 10 17
      vertex 32.0743 7.30375 17
      vertex 32.832 6.26088 17
    endloop
  endfacet
  facet normal 0 0 1
    outer loop
      vertex 35 10 17
      vertex 30.958 7.94827 17
      vertex 32.0743 7.30375 17
    endloop
  endfacet
  facet normal 0 0 1
    outer loop
      vertex 35 10 17
      vertex 29.676 8.08302 17
      vertex 30.958 7.94827 17
    endloop
  endfacet
  facet normal -0 0 1
    outer loop
      vertex 0 10 17
      vertex 29.676 8.08302 17
      vertex 35 10 17
    endloop
  endfacet
  facet normal 0 0 1
    outer loop
      vertex 26.9677 5.64453 17
      vertex 0 10 17
      vertex 26.9677 4.35547 17
    endloop
  endfacet
  facet normal 0 0 1
    outer loop
      vertex 27.492 6.82213 17
      vertex 0 10 17
      vertex 26.9677 5.64453 17
    endloop
  endfacet
  facet normal 0 0 1
    outer loop
      vertex 28.45 7.68468 17
      vertex 0 10 17
      vertex 27.492 6.82213 17
    endloop
  endfacet
  facet normal 0 0 1
    outer loop
      vertex 29.676 8.08302 17
      vertex 0 10 17
      vertex 28.45 7.68468 17
    endloop
  endfacet
  facet normal -0 0 1
    outer loop
      vertex 32.832 3.73912 17
      vertex 35 0 17
      vertex 33.1 5 17
    endloop
  endfacet
  facet normal -0 0 1
    outer loop
      vertex 32.0743 2.69625 17
      vertex 35 0 17
      vertex 32.832 3.73912 17
    endloop
  endfacet
  facet normal -0 0 1
    outer loop
      vertex 30.958 2.05172 17
      vertex 35 0 17
      vertex 32.0743 2.69625 17
    endloop
  endfacet
  facet normal -0 0 1
    outer loop
      vertex 29.676 1.91698 17
      vertex 35 0 17
      vertex 30.958 2.05172 17
    endloop
  endfacet
  facet normal 0 0 1
    outer loop
      vertex 0 0 17
      vertex 29.676 1.91698 17
      vertex 28.45 2.31532 17
    endloop
  endfacet
  facet normal 0 0 1
    outer loop
      vertex 0 0 17
      vertex 26.9677 4.35547 17
      vertex 0 10 17
    endloop
  endfacet
  facet normal 0 0 1
    outer loop
      vertex 26.9677 4.35547 17
      vertex 0 0 17
      vertex 27.492 3.17787 17
    endloop
  endfacet
  facet normal 0 0 1
    outer loop
      vertex 27.492 3.17787 17
      vertex 0 0 17
      vertex 28.45 2.31532 17
    endloop
  endfacet
  facet normal 0 0 1
    outer loop
      vertex 29.676 1.91698 17
      vertex 0 0 17
      vertex 35 0 17
    endloop
  endfacet
  facet normal 1 -0 0
    outer loop
      vertex 35 0 17
      vertex 35 10 0
      vertex 35 10 17
    endloop
  endfacet
  facet normal 1 0 0
    outer loop
      vertex 35 10 0
      vertex 35 0 17
      vertex 35 0 0
    endloop
  endfacet
  facet normal 0 0 -1
    outer loop
      vertex 35 0 0
      vertex 31.6 5 0
      vertex 35 10 0
    endloop
  endfacet
  facet normal 0 0 -1
    outer loop
      vertex 35 0 0
      vertex 31.4617 4.34922 0
      vertex 31.6 5 0
    endloop
  endfacet
  facet normal 0 0 -1
    outer loop
      vertex 35 0 0
      vertex 31.0706 3.81097 0
      vertex 31.4617 4.34922 0
    endloop
  endfacet
  facet normal 0 0 -1
    outer loop
      vertex 35 0 0
      vertex 30.4944 3.47831 0
      vertex 31.0706 3.81097 0
    endloop
  endfacet
  facet normal 0 0 -1
    outer loop
      vertex 35 0 0
      vertex 29.8328 3.40876 0
      vertex 30.4944 3.47831 0
    endloop
  endfacet
  facet normal 0 0 -1
    outer loop
      vertex 26 1 0
      vertex 29.8328 3.40876 0
      vertex 35 0 0
    endloop
  endfacet
  facet normal -0 0 -1
    outer loop
      vertex 28.435 4.66734 0
      vertex 26 1 0
      vertex 28.435 5.33266 0
    endloop
  endfacet
  facet normal -0 0 -1
    outer loop
      vertex 28.7056 4.05954 0
      vertex 26 1 0
      vertex 28.435 4.66734 0
    endloop
  endfacet
  facet normal -0 0 -1
    outer loop
      vertex 29.2 3.61436 0
      vertex 26 1 0
      vertex 28.7056 4.05954 0
    endloop
  endfacet
  facet normal -0 0 -1
    outer loop
      vertex 29.8328 3.40876 0
      vertex 26 1 0
      vertex 29.2 3.61436 0
    endloop
  endfacet
  facet normal 0 0 -1
    outer loop
      vertex 0 0 0
      vertex 26 1 0
      vertex 35 0 0
    endloop
  endfacet
  facet normal -0 0 -1
    outer loop
      vertex 26 1 0
      vertex 0 0 0
      vertex 2.14214 1 0
    endloop
  endfacet
  facet normal 0 0 -1
    outer loop
      vertex 0 0 0
      vertex 1 2.14213 0
      vertex 2.14214 1 0
    endloop
  endfacet
  facet normal 0 0 -1
    outer loop
      vertex 0 8.5 0
      vertex 1 2.14213 0
      vertex 0 0 0
    endloop
  endfacet
  facet normal 0 0 -1
    outer loop
      vertex 1 2.14213 0
      vertex 0 8.5 0
      vertex 1 8.5 0
    endloop
  endfacet
  facet normal 0 0 -1
    outer loop
      vertex 31.4617 5.65078 0
      vertex 35 10 0
      vertex 31.6 5 0
    endloop
  endfacet
  facet normal 0 0 -1
    outer loop
      vertex 31.0706 6.18903 0
      vertex 35 10 0
      vertex 31.4617 5.65078 0
    endloop
  endfacet
  facet normal 0 0 -1
    outer loop
      vertex 30.4944 6.52169 0
      vertex 35 10 0
      vertex 31.0706 6.18903 0
    endloop
  endfacet
  facet normal 0 0 -1
    outer loop
      vertex 29.8328 6.59123 0
      vertex 35 10 0
      vertex 30.4944 6.52169 0
    endloop
  endfacet
  facet normal 0 0 -1
    outer loop
      vertex 26 9 0
      vertex 29.8328 6.59123 0
      vertex 29.2 6.38564 0
    endloop
  endfacet
  facet normal 0 0 -1
    outer loop
      vertex 26 9 0
      vertex 28.435 5.33266 0
      vertex 26 1 0
    endloop
  endfacet
  facet normal 0 0 -1
    outer loop
      vertex 28.435 5.33266 0
      vertex 26 9 0
      vertex 28.7056 5.94046 0
    endloop
  endfacet
  facet normal 0 0 -1
    outer loop
      vertex 26 9 0
      vertex 29.2 6.38564 0
      vertex 28.7056 5.94046 0
    endloop
  endfacet
  facet normal 0 0 -1
    outer loop
      vertex 29.8328 6.59123 0
      vertex 26 9 0
      vertex 35 10 0
    endloop
  endfacet
  facet normal 0 0 -1
    outer loop
      vertex 21 10 0
      vertex 26 9 0
      vertex 21 9 0
    endloop
  endfacet
  facet normal 0 0 -1
    outer loop
      vertex 26 9 0
      vertex 21 10 0
      vertex 35 10 0
    endloop
  endfacet
  facet normal 0 -1 0
    outer loop
      vertex 0 0 0
      vertex 35 0 17
      vertex 0 0 17
    endloop
  endfacet
  facet normal 0 -1 -0
    outer loop
      vertex 35 0 17
      vertex 0 0 0
      vertex 35 0 0
    endloop
  endfacet
  facet normal 0 1 0
    outer loop
      vertex 35 10 17
      vertex 21 10 15.5
      vertex 0 10 17
    endloop
  endfacet
  facet normal 0 1 -0
    outer loop
      vertex 35 10 0
      vertex 21 10 15.5
      vertex 35 10 17
    endloop
  endfacet
  facet normal 0 1 0
    outer loop
      vertex 21 10 15.5
      vertex 35 10 0
      vertex 21 10 0
    endloop
  endfacet
  facet normal 0 1 -0
    outer loop
      vertex 1 10 15.5
      vertex 0 10 17
      vertex 21 10 15.5
    endloop
  endfacet
  facet normal 0 1 0
    outer loop
      vertex 0 10 10.5
      vertex 1 10 15.5
      vertex 1 10 10.5
    endloop
  endfacet
  facet normal 0 1 0
    outer loop
      vertex 1 10 15.5
      vertex 0 10 10.5
      vertex 0 10 17
    endloop
  endfacet
  facet normal -0.978148 -0.207911 0
    outer loop
      vertex 31.6 5 0
      vertex 31.4617 5.65078 13.3
      vertex 31.4617 5.65078 0
    endloop
  endfacet
  facet normal -0.978148 -0.207911 0
    outer loop
      vertex 31.4617 5.65078 13.3
      vertex 31.6 5 0
      vertex 31.6 5 13.3
    endloop
  endfacet
  facet normal 1 -0 0
    outer loop
      vertex 28.435 4.66734 13.3
      vertex 28.435 5.33266 0
      vertex 28.435 5.33266 13.3
    endloop
  endfacet
  facet normal 1 0 0
    outer loop
      vertex 28.435 5.33266 0
      vertex 28.435 4.66734 13.3
      vertex 28.435 4.66734 0
    endloop
  endfacet
  facet normal -0.104527 -0.994522 0
    outer loop
      vertex 29.8328 6.59123 0
      vertex 30.4944 6.52169 13.3
      vertex 29.8328 6.59123 13.3
    endloop
  endfacet
  facet normal -0.104527 -0.994522 -0
    outer loop
      vertex 30.4944 6.52169 13.3
      vertex 29.8328 6.59123 0
      vertex 30.4944 6.52169 0
    endloop
  endfacet
  facet normal 0.669129 -0.743146 0
    outer loop
      vertex 28.7056 5.94046 0
      vertex 29.2 6.38564 13.3
      vertex 28.7056 5.94046 13.3
    endloop
  endfacet
  facet normal 0.669129 -0.743146 0
    outer loop
      vertex 29.2 6.38564 13.3
      vertex 28.7056 5.94046 0
      vertex 29.2 6.38564 0
    endloop
  endfacet
  facet normal -0.5 0.866025 0
    outer loop
      vertex 31.0706 3.81097 0
      vertex 30.4944 3.47831 13.3
      vertex 31.0706 3.81097 13.3
    endloop
  endfacet
  facet normal -0.5 0.866025 0
    outer loop
      vertex 30.4944 3.47831 13.3
      vertex 31.0706 3.81097 0
      vertex 30.4944 3.47831 0
    endloop
  endfacet
  facet normal -0.104527 0.994522 0
    outer loop
      vertex 30.4944 3.47831 0
      vertex 29.8328 3.40876 13.3
      vertex 30.4944 3.47831 13.3
    endloop
  endfacet
  facet normal -0.104527 0.994522 0
    outer loop
      vertex 29.8328 3.40876 13.3
      vertex 30.4944 3.47831 0
      vertex 29.8328 3.40876 0
    endloop
  endfacet
  facet normal -0.5 -0.866025 0
    outer loop
      vertex 30.4944 6.52169 0
      vertex 31.0706 6.18903 13.3
      vertex 30.4944 6.52169 13.3
    endloop
  endfacet
  facet normal -0.5 -0.866025 -0
    outer loop
      vertex 31.0706 6.18903 13.3
      vertex 30.4944 6.52169 0
      vertex 31.0706 6.18903 0
    endloop
  endfacet
  facet normal -0.809017 -0.587785 0
    outer loop
      vertex 31.4617 5.65078 0
      vertex 31.0706 6.18903 13.3
      vertex 31.0706 6.18903 0
    endloop
  endfacet
  facet normal -0.809017 -0.587785 0
    outer loop
      vertex 31.0706 6.18903 13.3
      vertex 31.4617 5.65078 0
      vertex 31.4617 5.65078 13.3
    endloop
  endfacet
  facet normal 0.309017 -0.951057 0
    outer loop
      vertex 29.2 6.38564 0
      vertex 29.8328 6.59123 13.3
      vertex 29.2 6.38564 13.3
    endloop
  endfacet
  facet normal 0.309017 -0.951057 0
    outer loop
      vertex 29.8328 6.59123 13.3
      vertex 29.2 6.38564 0
      vertex 29.8328 6.59123 0
    endloop
  endfacet
  facet normal 0.913546 -0.406736 0
    outer loop
      vertex 28.435 5.33266 13.3
      vertex 28.7056 5.94046 0
      vertex 28.7056 5.94046 13.3
    endloop
  endfacet
  facet normal 0.913546 -0.406736 0
    outer loop
      vertex 28.7056 5.94046 0
      vertex 28.435 5.33266 13.3
      vertex 28.435 5.33266 0
    endloop
  endfacet
  facet normal 0.913546 0.406736 0
    outer loop
      vertex 28.7056 4.05954 13.3
      vertex 28.435 4.66734 0
      vertex 28.435 4.66734 13.3
    endloop
  endfacet
  facet normal 0.913546 0.406736 0
    outer loop
      vertex 28.435 4.66734 0
      vertex 28.7056 4.05954 13.3
      vertex 28.7056 4.05954 0
    endloop
  endfacet
  facet normal 0.309017 0.951057 -0
    outer loop
      vertex 29.8328 3.40876 0
      vertex 29.2 3.61436 13.3
      vertex 29.8328 3.40876 13.3
    endloop
  endfacet
  facet normal 0.309017 0.951057 0
    outer loop
      vertex 29.2 3.61436 13.3
      vertex 29.8328 3.40876 0
      vertex 29.2 3.61436 0
    endloop
  endfacet
  facet normal 0.669129 0.743146 -0
    outer loop
      vertex 29.2 3.61436 0
      vertex 28.7056 4.05954 13.3
      vertex 29.2 3.61436 13.3
    endloop
  endfacet
  facet normal 0.669129 0.743146 0
    outer loop
      vertex 28.7056 4.05954 13.3
      vertex 29.2 3.61436 0
      vertex 28.7056 4.05954 0
    endloop
  endfacet
  facet normal 0 0 -1
    outer loop
      vertex 31.4617 4.34922 13.3
      vertex 31.4617 5.65078 13.3
      vertex 31.6 5 13.3
    endloop
  endfacet
  facet normal 0 0 -1
    outer loop
      vertex 31.0706 3.81097 13.3
      vertex 31.4617 5.65078 13.3
      vertex 31.4617 4.34922 13.3
    endloop
  endfacet
  facet normal 0 0 -1
    outer loop
      vertex 31.0706 3.81097 13.3
      vertex 31.0706 6.18903 13.3
      vertex 31.4617 5.65078 13.3
    endloop
  endfacet
  facet normal 0 0 -1
    outer loop
      vertex 30.4944 3.47831 13.3
      vertex 31.0706 6.18903 13.3
      vertex 31.0706 3.81097 13.3
    endloop
  endfacet
  facet normal 0 0 -1
    outer loop
      vertex 30.4944 3.47831 13.3
      vertex 30.4944 6.52169 13.3
      vertex 31.0706 6.18903 13.3
    endloop
  endfacet
  facet normal 0 0 -1
    outer loop
      vertex 29.8328 3.40876 13.3
      vertex 30.4944 6.52169 13.3
      vertex 30.4944 3.47831 13.3
    endloop
  endfacet
  facet normal 0 0 -1
    outer loop
      vertex 29.8328 3.40876 13.3
      vertex 29.8328 6.59123 13.3
      vertex 30.4944 6.52169 13.3
    endloop
  endfacet
  facet normal 0 0 -1
    outer loop
      vertex 29.2 3.61436 13.3
      vertex 29.8328 6.59123 13.3
      vertex 29.8328 3.40876 13.3
    endloop
  endfacet
  facet normal 0 0 -1
    outer loop
      vertex 29.2 3.61436 13.3
      vertex 29.2 6.38564 13.3
      vertex 29.8328 6.59123 13.3
    endloop
  endfacet
  facet normal 0 0 -1
    outer loop
      vertex 28.7056 4.05954 13.3
      vertex 29.2 6.38564 13.3
      vertex 29.2 3.61436 13.3
    endloop
  endfacet
  facet normal 0 0 -1
    outer loop
      vertex 28.7056 4.05954 13.3
      vertex 28.7056 5.94046 13.3
      vertex 29.2 6.38564 13.3
    endloop
  endfacet
  facet normal 0 0 -1
    outer loop
      vertex 28.435 4.66734 13.3
      vertex 28.7056 5.94046 13.3
      vertex 28.7056 4.05954 13.3
    endloop
  endfacet
  facet normal 0 0 -1
    outer loop
      vertex 28.7056 5.94046 13.3
      vertex 28.435 4.66734 13.3
      vertex 28.435 5.33266 13.3
    endloop
  endfacet
  facet normal -0.809017 0.587785 0
    outer loop
      vertex 31.0706 3.81097 0
      vertex 31.4617 4.34922 13.3
      vertex 31.4617 4.34922 0
    endloop
  endfacet
  facet normal -0.809017 0.587785 0
    outer loop
      vertex 31.4617 4.34922 13.3
      vertex 31.0706 3.81097 0
      vertex 31.0706 3.81097 13.3
    endloop
  endfacet
  facet normal -0.978148 0.207911 0
    outer loop
      vertex 31.4617 4.34922 0
      vertex 31.6 5 13.3
      vertex 31.6 5 0
    endloop
  endfacet
  facet normal -0.978148 0.207911 0
    outer loop
      vertex 31.6 5 13.3
      vertex 31.4617 4.34922 0
      vertex 31.4617 4.34922 13.3
    endloop
  endfacet
  facet normal -0.978148 -0.207912 0
    outer loop
      vertex 33.1 5 13.5
      vertex 32.832 6.26088 17
      vertex 32.832 6.26088 13.5
    endloop
  endfacet
  facet normal -0.978148 -0.207912 0
    outer loop
      vertex 32.832 6.26088 17
      vertex 33.1 5 13.5
      vertex 33.1 5 17
    endloop
  endfacet
  facet normal 1 -0 0
    outer loop
      vertex 26.9677 4.35547 17
      vertex 26.9677 5.64453 13.5
      vertex 26.9677 5.64453 17
    endloop
  endfacet
  facet normal 1 0 0
    outer loop
      vertex 26.9677 5.64453 13.5
      vertex 26.9677 4.35547 17
      vertex 26.9677 4.35547 13.5
    endloop
  endfacet
  facet normal -0.104528 -0.994522 0
    outer loop
      vertex 29.676 8.08302 13.5
      vertex 30.958 7.94827 17
      vertex 29.676 8.08302 17
    endloop
  endfacet
  facet normal -0.104528 -0.994522 -0
    outer loop
      vertex 30.958 7.94827 17
      vertex 29.676 8.08302 13.5
      vertex 30.958 7.94827 13.5
    endloop
  endfacet
  facet normal -0.500001 -0.866025 0
    outer loop
      vertex 30.958 7.94827 13.5
      vertex 32.0743 7.30375 17
      vertex 30.958 7.94827 17
    endloop
  endfacet
  facet normal -0.500001 -0.866025 -0
    outer loop
      vertex 32.0743 7.30375 17
      vertex 30.958 7.94827 13.5
      vertex 32.0743 7.30375 13.5
    endloop
  endfacet
  facet normal -0.809017 -0.587786 0
    outer loop
      vertex 32.832 6.26088 13.5
      vertex 32.0743 7.30375 17
      vertex 32.0743 7.30375 13.5
    endloop
  endfacet
  facet normal -0.809017 -0.587786 0
    outer loop
      vertex 32.0743 7.30375 17
      vertex 32.832 6.26088 13.5
      vertex 32.832 6.26088 17
    endloop
  endfacet
  facet normal 0.309018 -0.951056 0
    outer loop
      vertex 28.45 7.68468 13.5
      vertex 29.676 8.08302 17
      vertex 28.45 7.68468 17
    endloop
  endfacet
  facet normal 0.309018 -0.951056 0
    outer loop
      vertex 29.676 8.08302 17
      vertex 28.45 7.68468 13.5
      vertex 29.676 8.08302 13.5
    endloop
  endfacet
  facet normal 0.66913 -0.743146 0
    outer loop
      vertex 27.492 6.82213 13.5
      vertex 28.45 7.68468 17
      vertex 27.492 6.82213 17
    endloop
  endfacet
  facet normal 0.66913 -0.743146 0
    outer loop
      vertex 28.45 7.68468 17
      vertex 27.492 6.82213 13.5
      vertex 28.45 7.68468 13.5
    endloop
  endfacet
  facet normal 0.913546 0.406736 0
    outer loop
      vertex 27.492 3.17787 17
      vertex 26.9677 4.35547 13.5
      vertex 26.9677 4.35547 17
    endloop
  endfacet
  facet normal 0.913546 0.406736 0
    outer loop
      vertex 26.9677 4.35547 13.5
      vertex 27.492 3.17787 17
      vertex 27.492 3.17787 13.5
    endloop
  endfacet
  facet normal 0.913546 -0.406736 0
    outer loop
      vertex 26.9677 5.64453 17
      vertex 27.492 6.82213 13.5
      vertex 27.492 6.82213 17
    endloop
  endfacet
  facet normal 0.913546 -0.406736 0
    outer loop
      vertex 27.492 6.82213 13.5
      vertex 26.9677 5.64453 17
      vertex 26.9677 5.64453 13.5
    endloop
  endfacet
  facet normal -0.500001 0.866025 0
    outer loop
      vertex 32.0743 2.69625 13.5
      vertex 30.958 2.05172 17
      vertex 32.0743 2.69625 17
    endloop
  endfacet
  facet normal -0.500001 0.866025 0
    outer loop
      vertex 30.958 2.05172 17
      vertex 32.0743 2.69625 13.5
      vertex 30.958 2.05172 13.5
    endloop
  endfacet
  facet normal -0.809017 0.587786 0
    outer loop
      vertex 32.0743 2.69625 13.5
      vertex 32.832 3.73912 17
      vertex 32.832 3.73912 13.5
    endloop
  endfacet
  facet normal -0.809017 0.587786 0
    outer loop
      vertex 32.832 3.73912 17
      vertex 32.0743 2.69625 13.5
      vertex 32.0743 2.69625 17
    endloop
  endfacet
  facet normal -0.978148 0.207912 0
    outer loop
      vertex 32.832 3.73912 13.5
      vertex 33.1 5 17
      vertex 33.1 5 13.5
    endloop
  endfacet
  facet normal -0.978148 0.207912 0
    outer loop
      vertex 33.1 5 17
      vertex 32.832 3.73912 13.5
      vertex 32.832 3.73912 17
    endloop
  endfacet
  facet normal 0 0 1
    outer loop
      vertex 32.832 6.26088 13.5
      vertex 32.832 3.73912 13.5
      vertex 33.1 5 13.5
    endloop
  endfacet
  facet normal 0 0 1
    outer loop
      vertex 32.0743 7.30375 13.5
      vertex 32.832 3.73912 13.5
      vertex 32.832 6.26088 13.5
    endloop
  endfacet
  facet normal 0 0 1
    outer loop
      vertex 32.0743 7.30375 13.5
      vertex 32.0743 2.69625 13.5
      vertex 32.832 3.73912 13.5
    endloop
  endfacet
  facet normal 0 0 1
    outer loop
      vertex 30.958 7.94827 13.5
      vertex 32.0743 2.69625 13.5
      vertex 32.0743 7.30375 13.5
    endloop
  endfacet
  facet normal 0 0 1
    outer loop
      vertex 30.958 7.94827 13.5
      vertex 30.958 2.05172 13.5
      vertex 32.0743 2.69625 13.5
    endloop
  endfacet
  facet normal 0 0 1
    outer loop
      vertex 29.676 8.08302 13.5
      vertex 30.958 2.05172 13.5
      vertex 30.958 7.94827 13.5
    endloop
  endfacet
  facet normal 0 0 1
    outer loop
      vertex 29.676 8.08302 13.5
      vertex 29.676 1.91698 13.5
      vertex 30.958 2.05172 13.5
    endloop
  endfacet
  facet normal -0 0 1
    outer loop
      vertex 28.45 7.68468 13.5
      vertex 29.676 1.91698 13.5
      vertex 29.676 8.08302 13.5
    endloop
  endfacet
  facet normal 0 0 1
    outer loop
      vertex 28.45 7.68468 13.5
      vertex 28.45 2.31532 13.5
      vertex 29.676 1.91698 13.5
    endloop
  endfacet
  facet normal -0 0 1
    outer loop
      vertex 27.492 6.82213 13.5
      vertex 28.45 2.31532 13.5
      vertex 28.45 7.68468 13.5
    endloop
  endfacet
  facet normal 0 0 1
    outer loop
      vertex 27.492 6.82213 13.5
      vertex 27.492 3.17787 13.5
      vertex 28.45 2.31532 13.5
    endloop
  endfacet
  facet normal -0 0 1
    outer loop
      vertex 26.9677 5.64453 13.5
      vertex 27.492 3.17787 13.5
      vertex 27.492 6.82213 13.5
    endloop
  endfacet
  facet normal 0 0 1
    outer loop
      vertex 27.492 3.17787 13.5
      vertex 26.9677 5.64453 13.5
      vertex 26.9677 4.35547 13.5
    endloop
  endfacet
  facet normal 0.66913 0.743146 -0
    outer loop
      vertex 28.45 2.31532 13.5
      vertex 27.492 3.17787 17
      vertex 28.45 2.31532 17
    endloop
  endfacet
  facet normal 0.66913 0.743146 0
    outer loop
      vertex 27.492 3.17787 17
      vertex 28.45 2.31532 13.5
      vertex 27.492 3.17787 13.5
    endloop
  endfacet
  facet normal -0.104528 0.994522 0
    outer loop
      vertex 30.958 2.05172 13.5
      vertex 29.676 1.91698 17
      vertex 30.958 2.05172 17
    endloop
  endfacet
  facet normal -0.104528 0.994522 0
    outer loop
      vertex 29.676 1.91698 17
      vertex 30.958 2.05172 13.5
      vertex 29.676 1.91698 13.5
    endloop
  endfacet
  facet normal 0.309018 0.951056 -0
    outer loop
      vertex 29.676 1.91698 13.5
      vertex 28.45 2.31532 17
      vertex 29.676 1.91698 17
    endloop
  endfacet
  facet normal 0.309018 0.951056 0
    outer loop
      vertex 28.45 2.31532 17
      vertex 29.676 1.91698 13.5
      vertex 28.45 2.31532 13.5
    endloop
  endfacet
  facet normal -1 0 0
    outer loop
      vertex 21 9 0
      vertex 21 10 15.5
      vertex 21 10 0
    endloop
  endfacet
  facet normal -1 -0 0
    outer loop
      vertex 21 10 15.5
      vertex 21 9 0
      vertex 21 9 15.5
    endloop
  endfacet
  facet normal 0 1 -0
    outer loop
      vertex 1 8.5 0
      vertex 0 8.5 10.5
      vertex 1 8.5 10.5
    endloop
  endfacet
  facet normal 0 1 0
    outer loop
      vertex 0 8.5 10.5
      vertex 1 8.5 0
      vertex 0 8.5 0
    endloop
  endfacet
  facet normal 0 0 -1
    outer loop
      vertex 0 8.5 10.5
      vertex 1 10 10.5
      vertex 1 8.5 10.5
    endloop
  endfacet
  facet normal -0 0 -1
    outer loop
      vertex 1 10 10.5
      vertex 0 8.5 10.5
      vertex 0 10 10.5
    endloop
  endfacet
endsolid OpenSCAD_Model
