solid OpenSCAD_Model
  facet normal -1 0 0
    outer loop
      vertex 0 -3.34315 0
      vertex 0 86 4
      vertex 0 86 0
    endloop
  endfacet
  facet normal -1 0 0
    outer loop
      vertex 0 -4 4
      vertex 0 -3.34315 0
      vertex 0 -4 0.656854
    endloop
  endfacet
  facet normal -1 0 0
    outer loop
      vertex 0 -3.34315 0
      vertex 0 -4 4
      vertex 0 86 4
    endloop
  endfacet
  facet normal -0 0 1
    outer loop
      vertex 25 72 1.5
      vertex 28 70 1.5
      vertex 28 72 1.5
    endloop
  endfacet
  facet normal 0 0 1
    outer loop
      vertex 13 72 1.5
      vertex 25 72 1.5
      vertex 13 76 1.5
    endloop
  endfacet
  facet normal 0 0 1
    outer loop
      vertex 25 72 1.5
      vertex 13 72 1.5
      vertex 28 70 1.5
    endloop
  endfacet
  facet normal 0 0 1
    outer loop
      vertex 10 70 1.5
      vertex 13 72 1.5
      vertex 10 72 1.5
    endloop
  endfacet
  facet normal 0 0 1
    outer loop
      vertex 13 72 1.5
      vertex 10 70 1.5
      vertex 28 70 1.5
    endloop
  endfacet
  facet normal 0 0 1
    outer loop
      vertex 96 86 1.5
      vertex 92 58 1.5
      vertex 96 58 1.5
    endloop
  endfacet
  facet normal -0 0 1
    outer loop
      vertex 90 58 1.5
      vertex 92 55 1.5
      vertex 92 58 1.5
    endloop
  endfacet
  facet normal 0 0 1
    outer loop
      vertex 92 55 1.5
      vertex 90 58 1.5
      vertex 92 43 1.5
    endloop
  endfacet
  facet normal 0 0 1
    outer loop
      vertex 90 40 1.5
      vertex 92 43 1.5
      vertex 90 58 1.5
    endloop
  endfacet
  facet normal 0 0 1
    outer loop
      vertex 96 86 1.5
      vertex 90 58 1.5
      vertex 92 58 1.5
    endloop
  endfacet
  facet normal 0 0 1
    outer loop
      vertex 96 86 1.5
      vertex 80 58 1.5
      vertex 90 58 1.5
    endloop
  endfacet
  facet normal 0 0 1
    outer loop
      vertex 28 60 1.5
      vertex 80 40 1.5
      vertex 80 58 1.5
    endloop
  endfacet
  facet normal -0 0 1
    outer loop
      vertex 28 76 1.5
      vertex 80 58 1.5
      vertex 96 86 1.5
    endloop
  endfacet
  facet normal 0 0 1
    outer loop
      vertex 80 58 1.5
      vertex 28 76 1.5
      vertex 28 72 1.5
    endloop
  endfacet
  facet normal -0 0 1
    outer loop
      vertex 10 86 1.5
      vertex 28 76 1.5
      vertex 96 86 1.5
    endloop
  endfacet
  facet normal 0 0 1
    outer loop
      vertex 25 76 1.5
      vertex 13 76 1.5
      vertex 25 72 1.5
    endloop
  endfacet
  facet normal 0 0 1
    outer loop
      vertex 28 76 1.5
      vertex 10 86 1.5
      vertex 25 76 1.5
    endloop
  endfacet
  facet normal 0 0 1
    outer loop
      vertex 25 76 1.5
      vertex 10 86 1.5
      vertex 13 76 1.5
    endloop
  endfacet
  facet normal 0 0 1
    outer loop
      vertex 13 76 1.5
      vertex 10 86 1.5
      vertex 10 76 1.5
    endloop
  endfacet
  facet normal -0 0 1
    outer loop
      vertex 92 55 1.5
      vertex 96 43 1.5
      vertex 96 55 1.5
    endloop
  endfacet
  facet normal 0 0 1
    outer loop
      vertex 96 43 1.5
      vertex 92 55 1.5
      vertex 92 43 1.5
    endloop
  endfacet
  facet normal -0 0 1
    outer loop
      vertex 92 40 1.5
      vertex 96 0 1.5
      vertex 96 40 1.5
    endloop
  endfacet
  facet normal 0 0 1
    outer loop
      vertex 92 43 1.5
      vertex 90 40 1.5
      vertex 92 40 1.5
    endloop
  endfacet
  facet normal 0 0 1
    outer loop
      vertex 92 40 1.5
      vertex 90 40 1.5
      vertex 96 0 1.5
    endloop
  endfacet
  facet normal -0 0 1
    outer loop
      vertex 80 40 1.5
      vertex 96 0 1.5
      vertex 90 40 1.5
    endloop
  endfacet
  facet normal -0 0 1
    outer loop
      vertex 34 9 1.5
      vertex 96 0 1.5
      vertex 80 40 1.5
    endloop
  endfacet
  facet normal 0 0 1
    outer loop
      vertex 96 0 1.5
      vertex 34 9 1.5
      vertex 34 0 1.5
    endloop
  endfacet
  facet normal 0 0 1
    outer loop
      vertex 80 58 1.5
      vertex 28 72 1.5
      vertex 28 70 1.5
    endloop
  endfacet
  facet normal 0 0 1
    outer loop
      vertex 80 58 1.5
      vertex 28 70 1.5
      vertex 28 60 1.5
    endloop
  endfacet
  facet normal 0 0 1
    outer loop
      vertex 80 40 1.5
      vertex 28 60 1.5
      vertex 34 9 1.5
    endloop
  endfacet
  facet normal 0 0 1
    outer loop
      vertex 28 60 1.5
      vertex 26 9 1.5
      vertex 34 9 1.5
    endloop
  endfacet
  facet normal -0 0 1
    outer loop
      vertex 10 60 1.5
      vertex 26 9 1.5
      vertex 28 60 1.5
    endloop
  endfacet
  facet normal 0 0 1
    outer loop
      vertex 10 0 1.5
      vertex 26 9 1.5
      vertex 10 60 1.5
    endloop
  endfacet
  facet normal 0 0 1
    outer loop
      vertex 26 9 1.5
      vertex 10 0 1.5
      vertex 26 0 1.5
    endloop
  endfacet
  facet normal 1 -0 0
    outer loop
      vertex 106 14.1421 4
      vertex 106 86 0
      vertex 106 86 4
    endloop
  endfacet
  facet normal 1 0 0
    outer loop
      vertex 106 86 0
      vertex 106 14.1421 4
      vertex 106 14.1421 0
    endloop
  endfacet
  facet normal 0 1 0
    outer loop
      vertex 106 86 4
      vertex 96 86 1.5
      vertex 96 86 4
    endloop
  endfacet
  facet normal 0 1 0
    outer loop
      vertex 96 86 1.5
      vertex 106 86 0
      vertex 10 86 1.5
    endloop
  endfacet
  facet normal 0 1 -0
    outer loop
      vertex 106 86 0
      vertex 96 86 1.5
      vertex 106 86 4
    endloop
  endfacet
  facet normal 0 1 -0
    outer loop
      vertex 10 86 1.5
      vertex 0 86 4
      vertex 10 86 4
    endloop
  endfacet
  facet normal 0 1 0
    outer loop
      vertex 10 86 1.5
      vertex 0 86 0
      vertex 0 86 4
    endloop
  endfacet
  facet normal 0 1 0
    outer loop
      vertex 0 86 0
      vertex 10 86 1.5
      vertex 106 86 0
    endloop
  endfacet
  facet normal 0 0 -1
    outer loop
      vertex 28 70 0
      vertex 25 72 0
      vertex 28 72 0
    endloop
  endfacet
  facet normal 0 0 -1
    outer loop
      vertex 25 72 0
      vertex 13 72 0
      vertex 25 76 0
    endloop
  endfacet
  facet normal 0 0 -1
    outer loop
      vertex 28 70 0
      vertex 13 72 0
      vertex 25 72 0
    endloop
  endfacet
  facet normal 0 0 -1
    outer loop
      vertex 10 70 0
      vertex 13 72 0
      vertex 28 70 0
    endloop
  endfacet
  facet normal -0 0 -1
    outer loop
      vertex 13 72 0
      vertex 10 70 0
      vertex 10 72 0
    endloop
  endfacet
  facet normal 0 0 -1
    outer loop
      vertex 26 9 0
      vertex 28 60 0
      vertex 34 9 0
    endloop
  endfacet
  facet normal -0 0 -1
    outer loop
      vertex 28 60 0
      vertex 26 9 0
      vertex 10 60 0
    endloop
  endfacet
  facet normal 0 0 -1
    outer loop
      vertex 92 43 0
      vertex 96 55 0
      vertex 96 43 0
    endloop
  endfacet
  facet normal -0 0 -1
    outer loop
      vertex 96 55 0
      vertex 92 43 0
      vertex 92 55 0
    endloop
  endfacet
  facet normal 0 0 -1
    outer loop
      vertex 108.5 -3.34315 0
      vertex 100.5 0 0
      vertex 108.5 0 0
    endloop
  endfacet
  facet normal 0 0 -1
    outer loop
      vertex 34 9 0
      vertex 100.5 10 0
      vertex 100.5 0 0
    endloop
  endfacet
  facet normal 0 0 -1
    outer loop
      vertex 100.5 10 0
      vertex 96 43 0
      vertex 100.055 78.5501 0
    endloop
  endfacet
  facet normal 0 0 -1
    outer loop
      vertex 96 55 0
      vertex 100.055 78.5501 0
      vertex 96 43 0
    endloop
  endfacet
  facet normal 0 0 -1
    outer loop
      vertex 100.5 10 0
      vertex 96 40 0
      vertex 96 43 0
    endloop
  endfacet
  facet normal 0 0 -1
    outer loop
      vertex 100.5 10 0
      vertex 92 40 0
      vertex 96 40 0
    endloop
  endfacet
  facet normal 0 0 -1
    outer loop
      vertex 90 40 0
      vertex 92 43 0
      vertex 92 40 0
    endloop
  endfacet
  facet normal -0 0 -1
    outer loop
      vertex 92 43 0
      vertex 90 40 0
      vertex 92 55 0
    endloop
  endfacet
  facet normal 0 0 -1
    outer loop
      vertex 90 58 0
      vertex 92 55 0
      vertex 90 40 0
    endloop
  endfacet
  facet normal 0 0 -1
    outer loop
      vertex 100.5 10 0
      vertex 90 40 0
      vertex 92 40 0
    endloop
  endfacet
  facet normal 0 0 -1
    outer loop
      vertex 100.5 10 0
      vertex 80 40 0
      vertex 90 40 0
    endloop
  endfacet
  facet normal -0 0 -1
    outer loop
      vertex 100.5 10 0
      vertex 34 9 0
      vertex 80 40 0
    endloop
  endfacet
  facet normal 0 0 -1
    outer loop
      vertex 34 9 0
      vertex 100.5 0 0
      vertex 34 0 0
    endloop
  endfacet
  facet normal 0 0 -1
    outer loop
      vertex 108.5 -3.34315 0
      vertex 34 0 0
      vertex 100.5 0 0
    endloop
  endfacet
  facet normal 0 0 -1
    outer loop
      vertex 0 -3.34315 0
      vertex 34 0 0
      vertex 108.5 -3.34315 0
    endloop
  endfacet
  facet normal 0 0 -1
    outer loop
      vertex 0 -3.34315 0
      vertex 26 9 0
      vertex 26 0 0
    endloop
  endfacet
  facet normal 0 0 -1
    outer loop
      vertex 3.69806 79.6322 0
      vertex 10 70 0
      vertex 10 60 0
    endloop
  endfacet
  facet normal 0 0 -1
    outer loop
      vertex 10 70 0
      vertex 5.05496 78.5501 0
      vertex 10 72 0
    endloop
  endfacet
  facet normal 0 0 -1
    outer loop
      vertex 10 72 0
      vertex 5.05496 78.5501 0
      vertex 10 76 0
    endloop
  endfacet
  facet normal 0 0 -1
    outer loop
      vertex 10 76 0
      vertex 6.74698 78.9363 0
      vertex 7.5 80.5 0
    endloop
  endfacet
  facet normal 0 0 -1
    outer loop
      vertex 10 76 0
      vertex 5.05496 78.5501 0
      vertex 6.74698 78.9363 0
    endloop
  endfacet
  facet normal 0 0 -1
    outer loop
      vertex 10 70 0
      vertex 3.69806 79.6322 0
      vertex 5.05496 78.5501 0
    endloop
  endfacet
  facet normal -0 0 -1
    outer loop
      vertex 26 9 0
      vertex 0 -3.34315 0
      vertex 10 60 0
    endloop
  endfacet
  facet normal 0 0 -1
    outer loop
      vertex 10 60 0
      vertex 0 86 0
      vertex 3.69806 79.6322 0
    endloop
  endfacet
  facet normal 0 0 -1
    outer loop
      vertex 0 86 0
      vertex 10 60 0
      vertex 0 -3.34315 0
    endloop
  endfacet
  facet normal -0 0 -1
    outer loop
      vertex 34 0 0
      vertex 0 -3.34315 0
      vertex 26 0 0
    endloop
  endfacet
  facet normal 0 0 -1
    outer loop
      vertex 101.747 78.9363 0
      vertex 106 86 0
      vertex 106 14.1421 0
    endloop
  endfacet
  facet normal 0 0 -1
    outer loop
      vertex 100.5 10 0
      vertex 106 14.1421 0
      vertex 101.858 10 0
    endloop
  endfacet
  facet normal 0 0 -1
    outer loop
      vertex 106 86 0
      vertex 101.747 78.9363 0
      vertex 102.5 80.5 0
    endloop
  endfacet
  facet normal -0 0 -1
    outer loop
      vertex 106 14.1421 0
      vertex 100.5 10 0
      vertex 100.055 78.5501 0
    endloop
  endfacet
  facet normal 0 0 -1
    outer loop
      vertex 106 14.1421 0
      vertex 100.055 78.5501 0
      vertex 101.747 78.9363 0
    endloop
  endfacet
  facet normal 0 0 -1
    outer loop
      vertex 101.747 82.0637 0
      vertex 106 86 0
      vertex 102.5 80.5 0
    endloop
  endfacet
  facet normal 0 0 -1
    outer loop
      vertex 100.055 82.4499 0
      vertex 106 86 0
      vertex 101.747 82.0637 0
    endloop
  endfacet
  facet normal 0 0 -1
    outer loop
      vertex 96 58 0
      vertex 100.055 78.5501 0
      vertex 96 55 0
    endloop
  endfacet
  facet normal 0 0 -1
    outer loop
      vertex 92 58 0
      vertex 100.055 78.5501 0
      vertex 96 58 0
    endloop
  endfacet
  facet normal -0 0 -1
    outer loop
      vertex 100.055 78.5501 0
      vertex 92 58 0
      vertex 98.6981 79.6322 0
    endloop
  endfacet
  facet normal 0 0 -1
    outer loop
      vertex 90 58 0
      vertex 98.6981 79.6322 0
      vertex 92 58 0
    endloop
  endfacet
  facet normal 0 0 -1
    outer loop
      vertex 92 55 0
      vertex 90 58 0
      vertex 92 58 0
    endloop
  endfacet
  facet normal 0 0 -1
    outer loop
      vertex 80 58 0
      vertex 98.6981 79.6322 0
      vertex 90 58 0
    endloop
  endfacet
  facet normal -0 0 -1
    outer loop
      vertex 98.6981 79.6322 0
      vertex 80 58 0
      vertex 98.6981 81.3678 0
    endloop
  endfacet
  facet normal 0 0 -1
    outer loop
      vertex 28 60 0
      vertex 80 40 0
      vertex 34 9 0
    endloop
  endfacet
  facet normal 0 0 -1
    outer loop
      vertex 80 40 0
      vertex 28 60 0
      vertex 80 58 0
    endloop
  endfacet
  facet normal 0 0 -1
    outer loop
      vertex 28 70 0
      vertex 80 58 0
      vertex 28 60 0
    endloop
  endfacet
  facet normal 0 0 -1
    outer loop
      vertex 28 72 0
      vertex 80 58 0
      vertex 28 70 0
    endloop
  endfacet
  facet normal 0 0 -1
    outer loop
      vertex 28 76 0
      vertex 80 58 0
      vertex 28 72 0
    endloop
  endfacet
  facet normal 0 0 -1
    outer loop
      vertex 80 58 0
      vertex 28 76 0
      vertex 98.6981 81.3678 0
    endloop
  endfacet
  facet normal -0 0 -1
    outer loop
      vertex 98.6981 81.3678 0
      vertex 28 76 0
      vertex 100.055 82.4499 0
    endloop
  endfacet
  facet normal -0 0 -1
    outer loop
      vertex 100.055 82.4499 0
      vertex 28 76 0
      vertex 106 86 0
    endloop
  endfacet
  facet normal 0 0 -1
    outer loop
      vertex 6.74698 82.0637 0
      vertex 28 76 0
      vertex 25 76 0
    endloop
  endfacet
  facet normal 0 0 -1
    outer loop
      vertex 13 76 0
      vertex 25 76 0
      vertex 13 72 0
    endloop
  endfacet
  facet normal 0 0 -1
    outer loop
      vertex 6.74698 82.0637 0
      vertex 25 76 0
      vertex 13 76 0
    endloop
  endfacet
  facet normal 0 0 -1
    outer loop
      vertex 7.5 80.5 0
      vertex 13 76 0
      vertex 10 76 0
    endloop
  endfacet
  facet normal 0 0 -1
    outer loop
      vertex 6.74698 82.0637 0
      vertex 13 76 0
      vertex 7.5 80.5 0
    endloop
  endfacet
  facet normal 0 0 -1
    outer loop
      vertex 28 76 0
      vertex 6.74698 82.0637 0
      vertex 0 86 0
    endloop
  endfacet
  facet normal 0 0 -1
    outer loop
      vertex 0 86 0
      vertex 6.74698 82.0637 0
      vertex 5.05496 82.4499 0
    endloop
  endfacet
  facet normal 0 0 -1
    outer loop
      vertex 28 76 0
      vertex 0 86 0
      vertex 106 86 0
    endloop
  endfacet
  facet normal 0 0 -1
    outer loop
      vertex 3.69806 81.3678 0
      vertex 0 86 0
      vertex 5.05496 82.4499 0
    endloop
  endfacet
  facet normal 0 0 -1
    outer loop
      vertex 3.69806 79.6322 0
      vertex 0 86 0
      vertex 3.69806 81.3678 0
    endloop
  endfacet
  facet normal 0 1 0
    outer loop
      vertex 105.2 0 4.6
      vertex 104.85 0 4.54457
      vertex 104.5 0 4.6
    endloop
  endfacet
  facet normal 0 1 0
    outer loop
      vertex 104.5 0 4.6
      vertex 108.5 0 6
      vertex 105.2 0 4.6
    endloop
  endfacet
  facet normal 0 1 0
    outer loop
      vertex 108.5 0 6
      vertex 105.694 0 4.52169
      vertex 105.2 0 4.6
    endloop
  endfacet
  facet normal 0 1 0
    outer loop
      vertex 108.5 0 6
      vertex 106.14 0 4.29443
      vertex 105.694 0 4.52169
    endloop
  endfacet
  facet normal 0 1 0
    outer loop
      vertex 108.5 0 6
      vertex 106.494 0 3.94046
      vertex 106.14 0 4.29443
    endloop
  endfacet
  facet normal 0 1 0
    outer loop
      vertex 108.5 0 6
      vertex 106.722 0 3.49443
      vertex 106.494 0 3.94046
    endloop
  endfacet
  facet normal 0 1 0
    outer loop
      vertex 108.5 0 6
      vertex 106.8 0 3
      vertex 106.722 0 3.49443
    endloop
  endfacet
  facet normal 0 1 -0
    outer loop
      vertex 108.5 0 0
      vertex 106.8 0 3
      vertex 108.5 0 6
    endloop
  endfacet
  facet normal 0 1 0
    outer loop
      vertex 105.2 0 1.4
      vertex 108.5 0 0
      vertex 104.5 0 1.4
    endloop
  endfacet
  facet normal 0 1 0
    outer loop
      vertex 105.694 0 1.47831
      vertex 108.5 0 0
      vertex 105.2 0 1.4
    endloop
  endfacet
  facet normal 0 1 0
    outer loop
      vertex 106.14 0 1.70557
      vertex 108.5 0 0
      vertex 105.694 0 1.47831
    endloop
  endfacet
  facet normal 0 1 0
    outer loop
      vertex 106.494 0 2.05954
      vertex 108.5 0 0
      vertex 106.14 0 1.70557
    endloop
  endfacet
  facet normal 0 1 0
    outer loop
      vertex 106.722 0 2.50557
      vertex 108.5 0 0
      vertex 106.494 0 2.05954
    endloop
  endfacet
  facet normal 0 1 0
    outer loop
      vertex 106.8 0 3
      vertex 108.5 0 0
      vertex 106.722 0 2.50557
    endloop
  endfacet
  facet normal 0 1 0
    outer loop
      vertex 108.5 0 6
      vertex 104.5 0 4.6
      vertex 100.5 0 6
    endloop
  endfacet
  facet normal 0 1 -0
    outer loop
      vertex 104.006 0 4.52169
      vertex 100.5 0 6
      vertex 104.5 0 4.6
    endloop
  endfacet
  facet normal 0 1 -0
    outer loop
      vertex 103.56 0 4.29443
      vertex 100.5 0 6
      vertex 104.006 0 4.52169
    endloop
  endfacet
  facet normal 0 1 -0
    outer loop
      vertex 103.206 0 3.94046
      vertex 100.5 0 6
      vertex 103.56 0 4.29443
    endloop
  endfacet
  facet normal 0 1 0
    outer loop
      vertex 100.5 0 6
      vertex 103.206 0 3.94046
      vertex 100.5 0 4
    endloop
  endfacet
  facet normal 0 1 -0
    outer loop
      vertex 102.978 0 3.49443
      vertex 100.5 0 4
      vertex 103.206 0 3.94046
    endloop
  endfacet
  facet normal 0 1 -0
    outer loop
      vertex 102.9 0 3
      vertex 100.5 0 4
      vertex 102.978 0 3.49443
    endloop
  endfacet
  facet normal 0 1 0
    outer loop
      vertex 102.978 0 2.50557
      vertex 100.5 0 4
      vertex 102.9 0 3
    endloop
  endfacet
  facet normal 0 1 0
    outer loop
      vertex 100.5 0 0
      vertex 102.978 0 2.50557
      vertex 103.206 0 2.05954
    endloop
  endfacet
  facet normal 0 1 0
    outer loop
      vertex 100.5 0 0
      vertex 103.206 0 2.05954
      vertex 103.56 0 1.70557
    endloop
  endfacet
  facet normal 0 1 0
    outer loop
      vertex 100.5 0 0
      vertex 104.5 0 1.4
      vertex 108.5 0 0
    endloop
  endfacet
  facet normal 0 1 0
    outer loop
      vertex 102.978 0 2.50557
      vertex 100.5 0 0
      vertex 100.5 0 4
    endloop
  endfacet
  facet normal 0 1 0
    outer loop
      vertex 104.006 0 1.47831
      vertex 100.5 0 0
      vertex 103.56 0 1.70557
    endloop
  endfacet
  facet normal 0 1 0
    outer loop
      vertex 104.5 0 1.4
      vertex 100.5 0 0
      vertex 104.006 0 1.47831
    endloop
  endfacet
  facet normal 0 1 0
    outer loop
      vertex 104.85 0 1.45543
      vertex 105.2 0 1.4
      vertex 104.5 0 1.4
    endloop
  endfacet
  facet normal 0 1 0
    outer loop
      vertex 26 0 0
      vertex 28.3595 0 1.70557
      vertex 28.8056 0 1.47831
    endloop
  endfacet
  facet normal 0 1 0
    outer loop
      vertex 26 0 0
      vertex 28.8056 0 1.47831
      vertex 29.3 0 1.4
    endloop
  endfacet
  facet normal 0 1 0
    outer loop
      vertex 30 0 1.4
      vertex 26 0 0
      vertex 29.3 0 1.4
    endloop
  endfacet
  facet normal 0 1 0
    outer loop
      vertex 28.3595 0 1.70557
      vertex 26 0 0
      vertex 26 0 1.5
    endloop
  endfacet
  facet normal 0 1 0
    outer loop
      vertex 34 0 1.5
      vertex 34 0 4
      vertex 96 0 4
    endloop
  endfacet
  facet normal -0 1 0
    outer loop
      vertex 31.6 0 3
      vertex 34 0 4
      vertex 34 0 1.5
    endloop
  endfacet
  facet normal 0 1 0
    outer loop
      vertex 34 0 4
      vertex 31.5217 0 3.49443
      vertex 31.2944 0 3.94046
    endloop
  endfacet
  facet normal 0 1 0
    outer loop
      vertex 34 0 4
      vertex 31.6 0 3
      vertex 31.5217 0 3.49443
    endloop
  endfacet
  facet normal 0 1 0
    outer loop
      vertex 31.6 0 3
      vertex 34 0 1.5
      vertex 31.5217 0 2.50557
    endloop
  endfacet
  facet normal 0 1 0
    outer loop
      vertex 31.5217 0 2.50557
      vertex 34 0 1.5
      vertex 31.2944 0 2.05954
    endloop
  endfacet
  facet normal 0 1 0
    outer loop
      vertex 34 0 1.5
      vertex 96 0 4
      vertex 96 0 1.5
    endloop
  endfacet
  facet normal 0 1 -0
    outer loop
      vertex 34 0 0
      vertex 31.2944 0 2.05954
      vertex 34 0 1.5
    endloop
  endfacet
  facet normal 0 1 0
    outer loop
      vertex 31.2944 0 2.05954
      vertex 34 0 0
      vertex 30.9405 0 1.70557
    endloop
  endfacet
  facet normal 0 1 0
    outer loop
      vertex 30.9405 0 1.70557
      vertex 34 0 0
      vertex 30.4944 0 1.47831
    endloop
  endfacet
  facet normal 0 1 0
    outer loop
      vertex 26 0 0
      vertex 30 0 1.4
      vertex 34 0 0
    endloop
  endfacet
  facet normal 0 1 0
    outer loop
      vertex 30.4944 0 1.47831
      vertex 34 0 0
      vertex 30 0 1.4
    endloop
  endfacet
  facet normal 0 1 0
    outer loop
      vertex 30 0 4.6
      vertex 29.65 0 4.54457
      vertex 29.3 0 4.6
    endloop
  endfacet
  facet normal 0 1 0
    outer loop
      vertex 34 0 6
      vertex 30 0 4.6
      vertex 26 0 6
    endloop
  endfacet
  facet normal 0 1 0
    outer loop
      vertex 34 0 6
      vertex 30.4944 0 4.52169
      vertex 30 0 4.6
    endloop
  endfacet
  facet normal 0 1 0
    outer loop
      vertex 34 0 6
      vertex 30.9405 0 4.29443
      vertex 30.4944 0 4.52169
    endloop
  endfacet
  facet normal 0 1 0
    outer loop
      vertex 31.2944 0 3.94046
      vertex 34 0 6
      vertex 34 0 4
    endloop
  endfacet
  facet normal 0 1 0
    outer loop
      vertex 34 0 6
      vertex 31.2944 0 3.94046
      vertex 30.9405 0 4.29443
    endloop
  endfacet
  facet normal 0 1 -0
    outer loop
      vertex 29.3 0 4.6
      vertex 26 0 6
      vertex 30 0 4.6
    endloop
  endfacet
  facet normal 0 1 -0
    outer loop
      vertex 28.8056 0 4.52169
      vertex 26 0 6
      vertex 29.3 0 4.6
    endloop
  endfacet
  facet normal 0 1 -0
    outer loop
      vertex 28.3595 0 4.29443
      vertex 26 0 6
      vertex 28.8056 0 4.52169
    endloop
  endfacet
  facet normal 0 1 -0
    outer loop
      vertex 28.0056 0 3.94046
      vertex 26 0 6
      vertex 28.3595 0 4.29443
    endloop
  endfacet
  facet normal 0 1 0
    outer loop
      vertex 26 0 6
      vertex 28.0056 0 3.94046
      vertex 26 0 4
    endloop
  endfacet
  facet normal 0 1 -0
    outer loop
      vertex 27.7783 0 3.49443
      vertex 26 0 4
      vertex 28.0056 0 3.94046
    endloop
  endfacet
  facet normal 0 1 -0
    outer loop
      vertex 27.7 0 3
      vertex 26 0 4
      vertex 27.7783 0 3.49443
    endloop
  endfacet
  facet normal 0 1 0
    outer loop
      vertex 26 0 4
      vertex 27.7 0 3
      vertex 26 0 1.5
    endloop
  endfacet
  facet normal 0 1 0
    outer loop
      vertex 26 0 1.5
      vertex 27.7 0 3
      vertex 27.7783 0 2.50557
    endloop
  endfacet
  facet normal 0 1 0
    outer loop
      vertex 26 0 1.5
      vertex 27.7783 0 2.50557
      vertex 28.0056 0 2.05954
    endloop
  endfacet
  facet normal 0 1 0
    outer loop
      vertex 26 0 1.5
      vertex 28.0056 0 2.05954
      vertex 28.3595 0 1.70557
    endloop
  endfacet
  facet normal 0 1 0
    outer loop
      vertex 26 0 4
      vertex 26 0 1.5
      vertex 10 0 4
    endloop
  endfacet
  facet normal 0 1 0
    outer loop
      vertex 10 0 4
      vertex 26 0 1.5
      vertex 10 0 1.5
    endloop
  endfacet
  facet normal 0 1 0
    outer loop
      vertex 29.65 0 1.45543
      vertex 30 0 1.4
      vertex 29.3 0 1.4
    endloop
  endfacet
  facet normal -0 0 1
    outer loop
      vertex 7.5 80.5 4
      vertex 10 76 4
      vertex 10 86 4
    endloop
  endfacet
  facet normal -0 0 1
    outer loop
      vertex 6.74698 78.9363 4
      vertex 10 76 4
      vertex 7.5 80.5 4
    endloop
  endfacet
  facet normal -0 0 1
    outer loop
      vertex 5.05496 78.5501 4
      vertex 10 76 4
      vertex 6.74698 78.9363 4
    endloop
  endfacet
  facet normal 0 0 1
    outer loop
      vertex 10 76 4
      vertex 5.05496 78.5501 4
      vertex 10 72 4
    endloop
  endfacet
  facet normal 0 0 1
    outer loop
      vertex 10 72 4
      vertex 5.05496 78.5501 4
      vertex 10 70 4
    endloop
  endfacet
  facet normal 0 0 1
    outer loop
      vertex 10 86 4
      vertex 6.74698 82.0637 4
      vertex 7.5 80.5 4
    endloop
  endfacet
  facet normal 0 0 1
    outer loop
      vertex 10 86 4
      vertex 5.05496 82.4499 4
      vertex 6.74698 82.0637 4
    endloop
  endfacet
  facet normal 0 0 1
    outer loop
      vertex 3.69806 81.3678 4
      vertex 0 86 4
      vertex 3.69806 79.6322 4
    endloop
  endfacet
  facet normal 0 0 1
    outer loop
      vertex 5.05496 82.4499 4
      vertex 0 86 4
      vertex 3.69806 81.3678 4
    endloop
  endfacet
  facet normal -0 0 1
    outer loop
      vertex 0 86 4
      vertex 5.05496 82.4499 4
      vertex 10 86 4
    endloop
  endfacet
  facet normal -0 0 1
    outer loop
      vertex 10 0 4
      vertex 26 -4 4
      vertex 26 0 4
    endloop
  endfacet
  facet normal 0 0 1
    outer loop
      vertex 3.69806 79.6322 4
      vertex 10 70 4
      vertex 5.05496 78.5501 4
    endloop
  endfacet
  facet normal 0 0 1
    outer loop
      vertex 10 70 4
      vertex 3.69806 79.6322 4
      vertex 10 60 4
    endloop
  endfacet
  facet normal 0 0 1
    outer loop
      vertex 0 86 4
      vertex 10 60 4
      vertex 3.69806 79.6322 4
    endloop
  endfacet
  facet normal 0 0 1
    outer loop
      vertex 10 60 4
      vertex 0 86 4
      vertex 0 -4 4
    endloop
  endfacet
  facet normal 0 0 1
    outer loop
      vertex 10 0 4
      vertex 0 -4 4
      vertex 26 -4 4
    endloop
  endfacet
  facet normal 0 0 1
    outer loop
      vertex 10 60 4
      vertex 0 -4 4
      vertex 10 0 4
    endloop
  endfacet
  facet normal 0 0 1
    outer loop
      vertex 101.747 78.9363 4
      vertex 106 86 4
      vertex 102.5 80.5 4
    endloop
  endfacet
  facet normal 0 0 1
    outer loop
      vertex 106 86 4
      vertex 101.747 82.0637 4
      vertex 102.5 80.5 4
    endloop
  endfacet
  facet normal 0 0 1
    outer loop
      vertex 106 86 4
      vertex 100.055 82.4499 4
      vertex 101.747 82.0637 4
    endloop
  endfacet
  facet normal 0 0 1
    outer loop
      vertex 98.6981 81.3678 4
      vertex 96 86 4
      vertex 98.6981 79.6322 4
    endloop
  endfacet
  facet normal 0 0 1
    outer loop
      vertex 100.055 82.4499 4
      vertex 96 86 4
      vertex 98.6981 81.3678 4
    endloop
  endfacet
  facet normal -0 0 1
    outer loop
      vertex 96 86 4
      vertex 100.055 82.4499 4
      vertex 106 86 4
    endloop
  endfacet
  facet normal 0 0 1
    outer loop
      vertex 106 86 4
      vertex 96 55 4
      vertex 106 14.1421 4
    endloop
  endfacet
  facet normal 0 0 1
    outer loop
      vertex 106 86 4
      vertex 101.747 78.9363 4
      vertex 96 55 4
    endloop
  endfacet
  facet normal -0 0 1
    outer loop
      vertex 96 40 4
      vertex 106 14.1421 4
      vertex 96 43 4
    endloop
  endfacet
  facet normal 0 0 1
    outer loop
      vertex 96 0 4
      vertex 100.5 0 4
      vertex 100.5 10 4
    endloop
  endfacet
  facet normal 0 0 1
    outer loop
      vertex 96 58 4
      vertex 101.747 78.9363 4
      vertex 100.055 78.5501 4
    endloop
  endfacet
  facet normal 0 -0 1
    outer loop
      vertex 100.5 10 4
      vertex 106 14.1421 4
      vertex 96 40 4
    endloop
  endfacet
  facet normal 0 0 1
    outer loop
      vertex 96 58 4
      vertex 100.055 78.5501 4
      vertex 98.6981 79.6322 4
    endloop
  endfacet
  facet normal 0 0 1
    outer loop
      vertex 96 58 4
      vertex 98.6981 79.6322 4
      vertex 96 86 4
    endloop
  endfacet
  facet normal 0 0 1
    outer loop
      vertex 101.747 78.9363 4
      vertex 96 58 4
      vertex 96 55 4
    endloop
  endfacet
  facet normal 0 0 1
    outer loop
      vertex 106 14.1421 4
      vertex 96 55 4
      vertex 96 43 4
    endloop
  endfacet
  facet normal 0 0 1
    outer loop
      vertex 106 14.1421 4
      vertex 100.5 10 4
      vertex 101.858 10 4
    endloop
  endfacet
  facet normal 0 0 1
    outer loop
      vertex 96 0 4
      vertex 100.5 10 4
      vertex 96 40 4
    endloop
  endfacet
  facet normal 0 0 1
    outer loop
      vertex 100.5 0 4
      vertex 96 0 4
      vertex 100.5 -4 4
    endloop
  endfacet
  facet normal 0 0 1
    outer loop
      vertex 34 -4 4
      vertex 96 0 4
      vertex 34 0 4
    endloop
  endfacet
  facet normal 0 0 1
    outer loop
      vertex 96 0 4
      vertex 34 -4 4
      vertex 100.5 -4 4
    endloop
  endfacet
  facet normal 1 -0 0
    outer loop
      vertex 10 0 4
      vertex 10 60 1.5
      vertex 10 60 4
    endloop
  endfacet
  facet normal 1 0 0
    outer loop
      vertex 10 60 1.5
      vertex 10 0 4
      vertex 10 0 1.5
    endloop
  endfacet
  facet normal 1 -0 0
    outer loop
      vertex 10 76 4
      vertex 10 86 1.5
      vertex 10 86 4
    endloop
  endfacet
  facet normal 1 0 0
    outer loop
      vertex 10 86 1.5
      vertex 10 76 4
      vertex 10 76 1.5
    endloop
  endfacet
  facet normal 1 0 0
    outer loop
      vertex 10 60 1.5
      vertex 10 70 1.5
      vertex 10 70 4
    endloop
  endfacet
  facet normal 1 0 0
    outer loop
      vertex 10 60 1.5
      vertex 10 70 4
      vertex 10 60 4
    endloop
  endfacet
  facet normal 1 0 0
    outer loop
      vertex 10 70 1.5
      vertex 10 60 1.5
      vertex 10 70 0
    endloop
  endfacet
  facet normal 1 0 0
    outer loop
      vertex 10 70 0
      vertex 10 60 1.5
      vertex 10 60 0
    endloop
  endfacet
  facet normal 1 -0 0
    outer loop
      vertex 10 70 4
      vertex 10 72 1.5
      vertex 10 72 4
    endloop
  endfacet
  facet normal 1 0 0
    outer loop
      vertex 10 72 1.5
      vertex 10 70 4
      vertex 10 70 1.5
    endloop
  endfacet
  facet normal 1 0 0
    outer loop
      vertex 10 72 1.5
      vertex 10 76 1.5
      vertex 10 76 4
    endloop
  endfacet
  facet normal 1 0 0
    outer loop
      vertex 10 72 1.5
      vertex 10 76 4
      vertex 10 72 4
    endloop
  endfacet
  facet normal 1 0 0
    outer loop
      vertex 10 76 1.5
      vertex 10 72 1.5
      vertex 10 76 0
    endloop
  endfacet
  facet normal 1 0 0
    outer loop
      vertex 10 76 0
      vertex 10 72 1.5
      vertex 10 72 0
    endloop
  endfacet
  facet normal -1 0 0
    outer loop
      vertex 96 0 1.5
      vertex 96 40 4
      vertex 96 40 1.5
    endloop
  endfacet
  facet normal -1 -0 0
    outer loop
      vertex 96 40 4
      vertex 96 0 1.5
      vertex 96 0 4
    endloop
  endfacet
  facet normal -1 0 0
    outer loop
      vertex 96 58 1.5
      vertex 96 86 4
      vertex 96 86 1.5
    endloop
  endfacet
  facet normal -1 -0 0
    outer loop
      vertex 96 86 4
      vertex 96 58 1.5
      vertex 96 58 4
    endloop
  endfacet
  facet normal -1 0 0
    outer loop
      vertex 96 40 1.5
      vertex 96 43 1.5
      vertex 96 43 0
    endloop
  endfacet
  facet normal -1 0 0
    outer loop
      vertex 96 40 1.5
      vertex 96 43 0
      vertex 96 40 0
    endloop
  endfacet
  facet normal -1 0 0
    outer loop
      vertex 96 43 1.5
      vertex 96 40 1.5
      vertex 96 43 4
    endloop
  endfacet
  facet normal -1 -0 0
    outer loop
      vertex 96 43 4
      vertex 96 40 1.5
      vertex 96 40 4
    endloop
  endfacet
  facet normal -1 0 0
    outer loop
      vertex 96 43 1.5
      vertex 96 55 4
      vertex 96 55 1.5
    endloop
  endfacet
  facet normal -1 -0 0
    outer loop
      vertex 96 55 4
      vertex 96 43 1.5
      vertex 96 43 4
    endloop
  endfacet
  facet normal -1 0 0
    outer loop
      vertex 96 55 1.5
      vertex 96 58 1.5
      vertex 96 58 0
    endloop
  endfacet
  facet normal -1 0 0
    outer loop
      vertex 96 55 1.5
      vertex 96 58 0
      vertex 96 55 0
    endloop
  endfacet
  facet normal -1 0 0
    outer loop
      vertex 96 58 1.5
      vertex 96 55 1.5
      vertex 96 58 4
    endloop
  endfacet
  facet normal -1 -0 0
    outer loop
      vertex 96 58 4
      vertex 96 55 1.5
      vertex 96 55 4
    endloop
  endfacet
  facet normal -0.900968 -0.433885 0
    outer loop
      vertex 7.5 80.5 0
      vertex 6.74698 82.0637 4
      vertex 6.74698 82.0637 0
    endloop
  endfacet
  facet normal -0.900968 -0.433885 0
    outer loop
      vertex 6.74698 82.0637 4
      vertex 7.5 80.5 0
      vertex 7.5 80.5 4
    endloop
  endfacet
  facet normal 1 -0 0
    outer loop
      vertex 3.69806 79.6322 4
      vertex 3.69806 81.3678 0
      vertex 3.69806 81.3678 4
    endloop
  endfacet
  facet normal 1 0 0
    outer loop
      vertex 3.69806 81.3678 0
      vertex 3.69806 79.6322 4
      vertex 3.69806 79.6322 0
    endloop
  endfacet
  facet normal 0.623491 0.78183 -0
    outer loop
      vertex 5.05496 78.5501 0
      vertex 3.69806 79.6322 4
      vertex 5.05496 78.5501 4
    endloop
  endfacet
  facet normal 0.623491 0.78183 0
    outer loop
      vertex 3.69806 79.6322 4
      vertex 5.05496 78.5501 0
      vertex 3.69806 79.6322 0
    endloop
  endfacet
  facet normal 0.623491 -0.78183 0
    outer loop
      vertex 3.69806 81.3678 0
      vertex 5.05496 82.4499 4
      vertex 3.69806 81.3678 4
    endloop
  endfacet
  facet normal 0.623491 -0.78183 0
    outer loop
      vertex 5.05496 82.4499 4
      vertex 3.69806 81.3678 0
      vertex 5.05496 82.4499 0
    endloop
  endfacet
  facet normal -0.222525 -0.974927 0
    outer loop
      vertex 5.05496 82.4499 0
      vertex 6.74698 82.0637 4
      vertex 5.05496 82.4499 4
    endloop
  endfacet
  facet normal -0.222525 -0.974927 -0
    outer loop
      vertex 6.74698 82.0637 4
      vertex 5.05496 82.4499 0
      vertex 6.74698 82.0637 0
    endloop
  endfacet
  facet normal -0.900968 0.433885 0
    outer loop
      vertex 6.74698 78.9363 0
      vertex 7.5 80.5 4
      vertex 7.5 80.5 0
    endloop
  endfacet
  facet normal -0.900968 0.433885 0
    outer loop
      vertex 7.5 80.5 4
      vertex 6.74698 78.9363 0
      vertex 6.74698 78.9363 4
    endloop
  endfacet
  facet normal -0.222525 0.974927 0
    outer loop
      vertex 6.74698 78.9363 0
      vertex 5.05496 78.5501 4
      vertex 6.74698 78.9363 4
    endloop
  endfacet
  facet normal -0.222525 0.974927 0
    outer loop
      vertex 5.05496 78.5501 4
      vertex 6.74698 78.9363 0
      vertex 5.05496 78.5501 0
    endloop
  endfacet
  facet normal -0.900968 -0.433885 0
    outer loop
      vertex 102.5 80.5 0
      vertex 101.747 82.0637 4
      vertex 101.747 82.0637 0
    endloop
  endfacet
  facet normal -0.900968 -0.433885 0
    outer loop
      vertex 101.747 82.0637 4
      vertex 102.5 80.5 0
      vertex 102.5 80.5 4
    endloop
  endfacet
  facet normal 1 -0 0
    outer loop
      vertex 98.6981 79.6322 4
      vertex 98.6981 81.3678 0
      vertex 98.6981 81.3678 4
    endloop
  endfacet
  facet normal 1 0 0
    outer loop
      vertex 98.6981 81.3678 0
      vertex 98.6981 79.6322 4
      vertex 98.6981 79.6322 0
    endloop
  endfacet
  facet normal -0.222524 -0.974927 0
    outer loop
      vertex 100.055 82.4499 0
      vertex 101.747 82.0637 4
      vertex 100.055 82.4499 4
    endloop
  endfacet
  facet normal -0.222524 -0.974927 -0
    outer loop
      vertex 101.747 82.0637 4
      vertex 100.055 82.4499 0
      vertex 101.747 82.0637 0
    endloop
  endfacet
  facet normal 0.623491 -0.78183 0
    outer loop
      vertex 98.6981 81.3678 0
      vertex 100.055 82.4499 4
      vertex 98.6981 81.3678 4
    endloop
  endfacet
  facet normal 0.623491 -0.78183 0
    outer loop
      vertex 100.055 82.4499 4
      vertex 98.6981 81.3678 0
      vertex 100.055 82.4499 0
    endloop
  endfacet
  facet normal -0.900968 0.433885 0
    outer loop
      vertex 101.747 78.9363 0
      vertex 102.5 80.5 4
      vertex 102.5 80.5 0
    endloop
  endfacet
  facet normal -0.900968 0.433885 0
    outer loop
      vertex 102.5 80.5 4
      vertex 101.747 78.9363 0
      vertex 101.747 78.9363 4
    endloop
  endfacet
  facet normal -0.222524 0.974927 0
    outer loop
      vertex 101.747 78.9363 0
      vertex 100.055 78.5501 4
      vertex 101.747 78.9363 4
    endloop
  endfacet
  facet normal -0.222524 0.974927 0
    outer loop
      vertex 100.055 78.5501 4
      vertex 101.747 78.9363 0
      vertex 100.055 78.5501 0
    endloop
  endfacet
  facet normal 0.623491 0.78183 -0
    outer loop
      vertex 100.055 78.5501 0
      vertex 98.6981 79.6322 4
      vertex 100.055 78.5501 4
    endloop
  endfacet
  facet normal 0.623491 0.78183 0
    outer loop
      vertex 98.6981 79.6322 4
      vertex 100.055 78.5501 0
      vertex 98.6981 79.6322 0
    endloop
  endfacet
  facet normal 1 -0 0
    outer loop
      vertex 26 0 1.5
      vertex 26 9 0
      vertex 26 9 1.5
    endloop
  endfacet
  facet normal 1 0 0
    outer loop
      vertex 26 9 0
      vertex 26 0 1.5
      vertex 26 0 0
    endloop
  endfacet
  facet normal -1 0 0
    outer loop
      vertex 34 0 0
      vertex 34 9 1.5
      vertex 34 9 0
    endloop
  endfacet
  facet normal -1 -0 0
    outer loop
      vertex 34 9 1.5
      vertex 34 0 0
      vertex 34 0 1.5
    endloop
  endfacet
  facet normal 0 -1 0
    outer loop
      vertex 26 9 0
      vertex 34 9 1.5
      vertex 26 9 1.5
    endloop
  endfacet
  facet normal 0 -1 -0
    outer loop
      vertex 34 9 1.5
      vertex 26 9 0
      vertex 34 9 0
    endloop
  endfacet
  facet normal 1 -0 0
    outer loop
      vertex 100.5 0 4
      vertex 100.5 10 0
      vertex 100.5 10 4
    endloop
  endfacet
  facet normal 1 0 0
    outer loop
      vertex 100.5 10 0
      vertex 100.5 0 4
      vertex 100.5 0 0
    endloop
  endfacet
  facet normal 0 -1 0
    outer loop
      vertex 100.5 10 0
      vertex 101.858 10 4
      vertex 100.5 10 4
    endloop
  endfacet
  facet normal 0 -1 -0
    outer loop
      vertex 101.858 10 4
      vertex 100.5 10 0
      vertex 101.858 10 0
    endloop
  endfacet
  facet normal 0.707107 -0.707107 0
    outer loop
      vertex 101.858 10 4
      vertex 106 14.1421 0
      vertex 106 14.1421 4
    endloop
  endfacet
  facet normal 0.707107 -0.707107 0
    outer loop
      vertex 106 14.1421 0
      vertex 101.858 10 4
      vertex 101.858 10 0
    endloop
  endfacet
  facet normal 1 -0 0
    outer loop
      vertex 80 40 1.5
      vertex 80 58 0
      vertex 80 58 1.5
    endloop
  endfacet
  facet normal 1 0 0
    outer loop
      vertex 80 58 0
      vertex 80 40 1.5
      vertex 80 40 0
    endloop
  endfacet
  facet normal -1 0 0
    outer loop
      vertex 90 40 0
      vertex 90 58 1.5
      vertex 90 58 0
    endloop
  endfacet
  facet normal -1 -0 0
    outer loop
      vertex 90 58 1.5
      vertex 90 40 0
      vertex 90 40 1.5
    endloop
  endfacet
  facet normal 0 -1 0
    outer loop
      vertex 80 58 0
      vertex 90 58 1.5
      vertex 80 58 1.5
    endloop
  endfacet
  facet normal 0 -1 -0
    outer loop
      vertex 90 58 1.5
      vertex 80 58 0
      vertex 90 58 0
    endloop
  endfacet
  facet normal 0 1 -0
    outer loop
      vertex 90 40 0
      vertex 80 40 1.5
      vertex 90 40 1.5
    endloop
  endfacet
  facet normal 0 1 0
    outer loop
      vertex 80 40 1.5
      vertex 90 40 0
      vertex 80 40 0
    endloop
  endfacet
  facet normal 1 -0 0
    outer loop
      vertex 92 40 1.5
      vertex 92 43 0
      vertex 92 43 1.5
    endloop
  endfacet
  facet normal 1 0 0
    outer loop
      vertex 92 43 0
      vertex 92 40 1.5
      vertex 92 40 0
    endloop
  endfacet
  facet normal 0 1 -0
    outer loop
      vertex 96 40 0
      vertex 92 40 1.5
      vertex 96 40 1.5
    endloop
  endfacet
  facet normal 0 1 0
    outer loop
      vertex 92 40 1.5
      vertex 96 40 0
      vertex 92 40 0
    endloop
  endfacet
  facet normal 0 -1 0
    outer loop
      vertex 92 43 0
      vertex 96 43 1.5
      vertex 92 43 1.5
    endloop
  endfacet
  facet normal 0 -1 -0
    outer loop
      vertex 96 43 1.5
      vertex 92 43 0
      vertex 96 43 0
    endloop
  endfacet
  facet normal 1 -0 0
    outer loop
      vertex 92 55 1.5
      vertex 92 58 0
      vertex 92 58 1.5
    endloop
  endfacet
  facet normal 1 0 0
    outer loop
      vertex 92 58 0
      vertex 92 55 1.5
      vertex 92 55 0
    endloop
  endfacet
  facet normal 0 1 -0
    outer loop
      vertex 96 55 0
      vertex 92 55 1.5
      vertex 96 55 1.5
    endloop
  endfacet
  facet normal 0 1 0
    outer loop
      vertex 92 55 1.5
      vertex 96 55 0
      vertex 92 55 0
    endloop
  endfacet
  facet normal 0 -1 0
    outer loop
      vertex 92 58 0
      vertex 96 58 1.5
      vertex 92 58 1.5
    endloop
  endfacet
  facet normal 0 -1 -0
    outer loop
      vertex 96 58 1.5
      vertex 92 58 0
      vertex 96 58 0
    endloop
  endfacet
  facet normal -1 0 0
    outer loop
      vertex 28 60 0
      vertex 28 70 1.5
      vertex 28 70 0
    endloop
  endfacet
  facet normal -1 -0 0
    outer loop
      vertex 28 70 1.5
      vertex 28 60 0
      vertex 28 60 1.5
    endloop
  endfacet
  facet normal 0 1 -0
    outer loop
      vertex 28 60 0
      vertex 10 60 1.5
      vertex 28 60 1.5
    endloop
  endfacet
  facet normal 0 1 0
    outer loop
      vertex 10 60 1.5
      vertex 28 60 0
      vertex 10 60 0
    endloop
  endfacet
  facet normal 0 -1 0
    outer loop
      vertex 10 70 0
      vertex 28 70 1.5
      vertex 10 70 1.5
    endloop
  endfacet
  facet normal 0 -1 -0
    outer loop
      vertex 28 70 1.5
      vertex 10 70 0
      vertex 28 70 0
    endloop
  endfacet
  facet normal -1 0 0
    outer loop
      vertex 13 72 0
      vertex 13 76 1.5
      vertex 13 76 0
    endloop
  endfacet
  facet normal -1 -0 0
    outer loop
      vertex 13 76 1.5
      vertex 13 72 0
      vertex 13 72 1.5
    endloop
  endfacet
  facet normal 0 -1 0
    outer loop
      vertex 10 76 0
      vertex 13 76 1.5
      vertex 10 76 1.5
    endloop
  endfacet
  facet normal 0 -1 -0
    outer loop
      vertex 13 76 1.5
      vertex 10 76 0
      vertex 13 76 0
    endloop
  endfacet
  facet normal 0 1 -0
    outer loop
      vertex 13 72 0
      vertex 10 72 1.5
      vertex 13 72 1.5
    endloop
  endfacet
  facet normal 0 1 0
    outer loop
      vertex 10 72 1.5
      vertex 13 72 0
      vertex 10 72 0
    endloop
  endfacet
  facet normal 1 -0 0
    outer loop
      vertex 25 72 1.5
      vertex 25 76 0
      vertex 25 76 1.5
    endloop
  endfacet
  facet normal 1 0 0
    outer loop
      vertex 25 76 0
      vertex 25 72 1.5
      vertex 25 72 0
    endloop
  endfacet
  facet normal -1 0 0
    outer loop
      vertex 28 72 0
      vertex 28 76 1.5
      vertex 28 76 0
    endloop
  endfacet
  facet normal -1 -0 0
    outer loop
      vertex 28 76 1.5
      vertex 28 72 0
      vertex 28 72 1.5
    endloop
  endfacet
  facet normal 0 -1 0
    outer loop
      vertex 25 76 0
      vertex 28 76 1.5
      vertex 25 76 1.5
    endloop
  endfacet
  facet normal 0 -1 -0
    outer loop
      vertex 28 76 1.5
      vertex 25 76 0
      vertex 28 76 0
    endloop
  endfacet
  facet normal 0 1 -0
    outer loop
      vertex 28 72 0
      vertex 25 72 1.5
      vertex 28 72 1.5
    endloop
  endfacet
  facet normal 0 1 0
    outer loop
      vertex 25 72 1.5
      vertex 28 72 0
      vertex 25 72 0
    endloop
  endfacet
  facet normal 0 -1 0
    outer loop
      vertex 0 -4 0.656854
      vertex 26 -4 4
      vertex 0 -4 4
    endloop
  endfacet
  facet normal 0 -1 0
    outer loop
      vertex 26 -4 4
      vertex 27.7783 -4 3.49443
      vertex 28.0056 -4 3.94046
    endloop
  endfacet
  facet normal 0 -1 0
    outer loop
      vertex 26 -4 4
      vertex 27.7 -4 3
      vertex 27.7783 -4 3.49443
    endloop
  endfacet
  facet normal -0 -1 0
    outer loop
      vertex 28.0056 -4 2.05954
      vertex 26 -4 4
      vertex 0 -4 0.656854
    endloop
  endfacet
  facet normal 0 -1 0
    outer loop
      vertex 26 -4 4
      vertex 27.7783 -4 2.50557
      vertex 27.7 -4 3
    endloop
  endfacet
  facet normal 0 -1 0
    outer loop
      vertex 26 -4 4
      vertex 28.0056 -4 2.05954
      vertex 27.7783 -4 2.50557
    endloop
  endfacet
  facet normal 0 -1 -0
    outer loop
      vertex 28.0056 -4 2.05954
      vertex 0 -4 0.656854
      vertex 28.3595 -4 1.70557
    endloop
  endfacet
  facet normal 0 -1 -0
    outer loop
      vertex 28.3595 -4 1.70557
      vertex 0 -4 0.656854
      vertex 28.8056 -4 1.47831
    endloop
  endfacet
  facet normal 0 -1 0
    outer loop
      vertex 0 -4 0.656854
      vertex 30 -4 1.4
      vertex 29.3 -4 1.4
    endloop
  endfacet
  facet normal 0 -1 0
    outer loop
      vertex 30 -4 1.4
      vertex 108.5 -4 0.656854
      vertex 104.5 -4 1.4
    endloop
  endfacet
  facet normal 0 -1 -0
    outer loop
      vertex 30 -4 1.4
      vertex 0 -4 0.656854
      vertex 108.5 -4 0.656854
    endloop
  endfacet
  facet normal 0 -1 -0
    outer loop
      vertex 28.8056 -4 1.47831
      vertex 0 -4 0.656854
      vertex 29.3 -4 1.4
    endloop
  endfacet
  facet normal 0 -1 0
    outer loop
      vertex 29.3 -4 4.6
      vertex 29.65 -4 4.54457
      vertex 30 -4 4.6
    endloop
  endfacet
  facet normal 0 -1 0
    outer loop
      vertex 30 -4 4.6
      vertex 26 -4 6
      vertex 29.3 -4 4.6
    endloop
  endfacet
  facet normal 0 -1 0
    outer loop
      vertex 26 -4 6
      vertex 28.8056 -4 4.52169
      vertex 29.3 -4 4.6
    endloop
  endfacet
  facet normal 0 -1 0
    outer loop
      vertex 26 -4 6
      vertex 28.3595 -4 4.29443
      vertex 28.8056 -4 4.52169
    endloop
  endfacet
  facet normal 0 -1 0
    outer loop
      vertex 28.0056 -4 3.94046
      vertex 26 -4 6
      vertex 26 -4 4
    endloop
  endfacet
  facet normal 0 -1 0
    outer loop
      vertex 26 -4 6
      vertex 28.0056 -4 3.94046
      vertex 28.3595 -4 4.29443
    endloop
  endfacet
  facet normal 0 -1 0
    outer loop
      vertex 26 -4 6
      vertex 30 -4 4.6
      vertex 34 -4 6
    endloop
  endfacet
  facet normal 0 -1 0
    outer loop
      vertex 30.4944 -4 4.52169
      vertex 34 -4 6
      vertex 30 -4 4.6
    endloop
  endfacet
  facet normal 0 -1 0
    outer loop
      vertex 30.9405 -4 4.29443
      vertex 34 -4 6
      vertex 30.4944 -4 4.52169
    endloop
  endfacet
  facet normal 0 -1 0
    outer loop
      vertex 31.2944 -4 3.94046
      vertex 34 -4 6
      vertex 30.9405 -4 4.29443
    endloop
  endfacet
  facet normal 0 -1 0
    outer loop
      vertex 31.5217 -4 3.49443
      vertex 34 -4 4
      vertex 31.2944 -4 3.94046
    endloop
  endfacet
  facet normal 0 -1 -0
    outer loop
      vertex 34 -4 6
      vertex 31.2944 -4 3.94046
      vertex 34 -4 4
    endloop
  endfacet
  facet normal 0 -1 0
    outer loop
      vertex 104.5 -4 4.6
      vertex 104.85 -4 4.54457
      vertex 105.2 -4 4.6
    endloop
  endfacet
  facet normal 0 -1 0
    outer loop
      vertex 100.5 -4 6
      vertex 104.5 -4 4.6
      vertex 108.5 -4 6
    endloop
  endfacet
  facet normal 0 -1 0
    outer loop
      vertex 100.5 -4 6
      vertex 104.006 -4 4.52169
      vertex 104.5 -4 4.6
    endloop
  endfacet
  facet normal 0 -1 0
    outer loop
      vertex 100.5 -4 6
      vertex 103.56 -4 4.29443
      vertex 104.006 -4 4.52169
    endloop
  endfacet
  facet normal 0 -1 0
    outer loop
      vertex 103.206 -4 3.94046
      vertex 100.5 -4 6
      vertex 100.5 -4 4
    endloop
  endfacet
  facet normal 0 -1 0
    outer loop
      vertex 100.5 -4 6
      vertex 103.206 -4 3.94046
      vertex 103.56 -4 4.29443
    endloop
  endfacet
  facet normal 0 -1 0
    outer loop
      vertex 31.6 -4 3
      vertex 34 -4 4
      vertex 31.5217 -4 3.49443
    endloop
  endfacet
  facet normal 0 -1 0
    outer loop
      vertex 31.5217 -4 2.50557
      vertex 34 -4 4
      vertex 31.6 -4 3
    endloop
  endfacet
  facet normal 0 -1 0
    outer loop
      vertex 100.5 -4 4
      vertex 102.978 -4 3.49443
      vertex 103.206 -4 3.94046
    endloop
  endfacet
  facet normal 0 -1 0
    outer loop
      vertex 31.2944 -4 2.05954
      vertex 34 -4 4
      vertex 31.5217 -4 2.50557
    endloop
  endfacet
  facet normal 0 -1 0
    outer loop
      vertex 100.5 -4 4
      vertex 102.9 -4 3
      vertex 102.978 -4 3.49443
    endloop
  endfacet
  facet normal 0 -1 0
    outer loop
      vertex 30.9405 -4 1.70557
      vertex 34 -4 4
      vertex 31.2944 -4 2.05954
    endloop
  endfacet
  facet normal 0 -1 0
    outer loop
      vertex 100.5 -4 4
      vertex 102.978 -4 2.50557
      vertex 102.9 -4 3
    endloop
  endfacet
  facet normal 0 -1 -0
    outer loop
      vertex 34 -4 4
      vertex 30.9405 -4 1.70557
      vertex 100.5 -4 4
    endloop
  endfacet
  facet normal 0 -1 0
    outer loop
      vertex 100.5 -4 4
      vertex 103.206 -4 2.05954
      vertex 102.978 -4 2.50557
    endloop
  endfacet
  facet normal 0 -1 0
    outer loop
      vertex 103.56 -4 1.70557
      vertex 100.5 -4 4
      vertex 30.9405 -4 1.70557
    endloop
  endfacet
  facet normal 0 -1 0
    outer loop
      vertex 100.5 -4 4
      vertex 103.56 -4 1.70557
      vertex 103.206 -4 2.05954
    endloop
  endfacet
  facet normal 0 -1 0
    outer loop
      vertex 30.4944 -4 1.47831
      vertex 103.56 -4 1.70557
      vertex 30.9405 -4 1.70557
    endloop
  endfacet
  facet normal 0 -1 0
    outer loop
      vertex 30.4944 -4 1.47831
      vertex 104.006 -4 1.47831
      vertex 103.56 -4 1.70557
    endloop
  endfacet
  facet normal 0 -1 0
    outer loop
      vertex 30 -4 1.4
      vertex 104.006 -4 1.47831
      vertex 30.4944 -4 1.47831
    endloop
  endfacet
  facet normal 0 -1 -0
    outer loop
      vertex 104.006 -4 1.47831
      vertex 30 -4 1.4
      vertex 104.5 -4 1.4
    endloop
  endfacet
  facet normal 0 -1 0
    outer loop
      vertex 105.2 -4 4.6
      vertex 108.5 -4 6
      vertex 104.5 -4 4.6
    endloop
  endfacet
  facet normal 0 -1 0
    outer loop
      vertex 105.694 -4 4.52169
      vertex 108.5 -4 6
      vertex 105.2 -4 4.6
    endloop
  endfacet
  facet normal 0 -1 0
    outer loop
      vertex 106.14 -4 4.29443
      vertex 108.5 -4 6
      vertex 105.694 -4 4.52169
    endloop
  endfacet
  facet normal 0 -1 0
    outer loop
      vertex 106.494 -4 3.94046
      vertex 108.5 -4 6
      vertex 106.14 -4 4.29443
    endloop
  endfacet
  facet normal 0 -1 0
    outer loop
      vertex 106.722 -4 3.49443
      vertex 108.5 -4 6
      vertex 106.494 -4 3.94046
    endloop
  endfacet
  facet normal 0 -1 0
    outer loop
      vertex 106.8 -4 3
      vertex 108.5 -4 6
      vertex 106.722 -4 3.49443
    endloop
  endfacet
  facet normal 0 -1 0
    outer loop
      vertex 108.5 -4 0.656854
      vertex 106.8 -4 3
      vertex 106.722 -4 2.50557
    endloop
  endfacet
  facet normal 0 -1 0
    outer loop
      vertex 106.8 -4 3
      vertex 108.5 -4 0.656854
      vertex 108.5 -4 6
    endloop
  endfacet
  facet normal 0 -1 0
    outer loop
      vertex 106.494 -4 2.05954
      vertex 108.5 -4 0.656854
      vertex 106.722 -4 2.50557
    endloop
  endfacet
  facet normal 0 -1 0
    outer loop
      vertex 106.14 -4 1.70557
      vertex 108.5 -4 0.656854
      vertex 106.494 -4 2.05954
    endloop
  endfacet
  facet normal 0 -1 0
    outer loop
      vertex 105.694 -4 1.47831
      vertex 108.5 -4 0.656854
      vertex 106.14 -4 1.70557
    endloop
  endfacet
  facet normal 0 -1 0
    outer loop
      vertex 105.2 -4 1.4
      vertex 108.5 -4 0.656854
      vertex 105.694 -4 1.47831
    endloop
  endfacet
  facet normal 0 -1 0
    outer loop
      vertex 104.5 -4 1.4
      vertex 108.5 -4 0.656854
      vertex 105.2 -4 1.4
    endloop
  endfacet
  facet normal 0 -1 -0
    outer loop
      vertex 29.65 -4 1.45543
      vertex 29.3 -4 1.4
      vertex 30 -4 1.4
    endloop
  endfacet
  facet normal 0 -1 -0
    outer loop
      vertex 104.85 -4 1.45543
      vertex 104.5 -4 1.4
      vertex 105.2 -4 1.4
    endloop
  endfacet
  facet normal -1 0 0
    outer loop
      vertex 26 -4 4
      vertex 26 0 6
      vertex 26 0 4
    endloop
  endfacet
  facet normal -1 -0 0
    outer loop
      vertex 26 0 6
      vertex 26 -4 4
      vertex 26 -4 6
    endloop
  endfacet
  facet normal -0 0 1
    outer loop
      vertex 26 0 6
      vertex 34 -4 6
      vertex 34 0 6
    endloop
  endfacet
  facet normal 0 0 1
    outer loop
      vertex 34 -4 6
      vertex 26 0 6
      vertex 26 -4 6
    endloop
  endfacet
  facet normal 1 -0 0
    outer loop
      vertex 34 -4 6
      vertex 34 0 4
      vertex 34 0 6
    endloop
  endfacet
  facet normal 1 0 0
    outer loop
      vertex 34 0 4
      vertex 34 -4 6
      vertex 34 -4 4
    endloop
  endfacet
  facet normal -1 0 0
    outer loop
      vertex 100.5 -4 4
      vertex 100.5 0 6
      vertex 100.5 0 4
    endloop
  endfacet
  facet normal -1 -0 0
    outer loop
      vertex 100.5 0 6
      vertex 100.5 -4 4
      vertex 100.5 -4 6
    endloop
  endfacet
  facet normal -0 0 1
    outer loop
      vertex 100.5 0 6
      vertex 108.5 -4 6
      vertex 108.5 0 6
    endloop
  endfacet
  facet normal 0 0 1
    outer loop
      vertex 108.5 -4 6
      vertex 100.5 0 6
      vertex 100.5 -4 6
    endloop
  endfacet
  facet normal 1 -0 0
    outer loop
      vertex 108.5 -4 0.656854
      vertex 108.5 0 0
      vertex 108.5 0 6
    endloop
  endfacet
  facet normal 1 0 0
    outer loop
      vertex 108.5 -4 0.656854
      vertex 108.5 0 6
      vertex 108.5 -4 6
    endloop
  endfacet
  facet normal 1 0 0
    outer loop
      vertex 108.5 0 0
      vertex 108.5 -4 0.656854
      vertex 108.5 -3.34315 0
    endloop
  endfacet
  facet normal -0.987689 0 -0.156432
    outer loop
      vertex 31.6 -4 3
      vertex 31.5217 0 3.49443
      vertex 31.6 0 3
    endloop
  endfacet
  facet normal -0.987689 -0 -0.156432
    outer loop
      vertex 31.5217 0 3.49443
      vertex 31.6 -4 3
      vertex 31.5217 -4 3.49443
    endloop
  endfacet
  facet normal -0.891006 0 -0.453992
    outer loop
      vertex 31.5217 -4 3.49443
      vertex 31.2944 0 3.94046
      vertex 31.5217 0 3.49443
    endloop
  endfacet
  facet normal -0.891006 -0 -0.453992
    outer loop
      vertex 31.2944 0 3.94046
      vertex 31.5217 -4 3.49443
      vertex 31.2944 -4 3.94046
    endloop
  endfacet
  facet normal -0.707108 0 -0.707106
    outer loop
      vertex 31.2944 -4 3.94046
      vertex 30.9405 0 4.29443
      vertex 31.2944 0 3.94046
    endloop
  endfacet
  facet normal -0.707108 -0 -0.707106
    outer loop
      vertex 30.9405 0 4.29443
      vertex 31.2944 -4 3.94046
      vertex 30.9405 -4 4.29443
    endloop
  endfacet
  facet normal -0.45399 0 0.891007
    outer loop
      vertex 30.4944 0 1.47831
      vertex 30.9405 -4 1.70557
      vertex 30.9405 0 1.70557
    endloop
  endfacet
  facet normal -0.45399 0 0.891007
    outer loop
      vertex 30.9405 -4 1.70557
      vertex 30.4944 0 1.47831
      vertex 30.4944 -4 1.47831
    endloop
  endfacet
  facet normal -0.45399 0 -0.891007
    outer loop
      vertex 30.4944 -4 4.52169
      vertex 30.9405 0 4.29443
      vertex 30.9405 -4 4.29443
    endloop
  endfacet
  facet normal -0.45399 0 -0.891007
    outer loop
      vertex 30.9405 0 4.29443
      vertex 30.4944 -4 4.52169
      vertex 30.4944 0 4.52169
    endloop
  endfacet
  facet normal -0.707108 0 0.707106
    outer loop
      vertex 30.9405 -4 1.70557
      vertex 31.2944 0 2.05954
      vertex 30.9405 0 1.70557
    endloop
  endfacet
  facet normal -0.707108 0 0.707106
    outer loop
      vertex 31.2944 0 2.05954
      vertex 30.9405 -4 1.70557
      vertex 31.2944 -4 2.05954
    endloop
  endfacet
  facet normal -0.891006 0 0.453992
    outer loop
      vertex 31.2944 -4 2.05954
      vertex 31.5217 0 2.50557
      vertex 31.2944 0 2.05954
    endloop
  endfacet
  facet normal -0.891006 0 0.453992
    outer loop
      vertex 31.5217 0 2.50557
      vertex 31.2944 -4 2.05954
      vertex 31.5217 -4 2.50557
    endloop
  endfacet
  facet normal -0.987689 0 0.156431
    outer loop
      vertex 31.5217 -4 2.50557
      vertex 31.6 0 3
      vertex 31.5217 0 2.50557
    endloop
  endfacet
  facet normal -0.987689 0 0.156431
    outer loop
      vertex 31.6 0 3
      vertex 31.5217 -4 2.50557
      vertex 31.6 -4 3
    endloop
  endfacet
  facet normal -0.156434 0 -0.987688
    outer loop
      vertex 30 -4 4.6
      vertex 30.4944 0 4.52169
      vertex 30.4944 -4 4.52169
    endloop
  endfacet
  facet normal -0.156434 0 -0.987688
    outer loop
      vertex 30.4944 0 4.52169
      vertex 30 -4 4.6
      vertex 30 0 4.6
    endloop
  endfacet
  facet normal 0.156433 0 -0.987689
    outer loop
      vertex 29.65 -4 4.54457
      vertex 30 0 4.6
      vertex 30 -4 4.6
    endloop
  endfacet
  facet normal 0.156433 0 -0.987689
    outer loop
      vertex 30 0 4.6
      vertex 29.65 -4 4.54457
      vertex 29.65 0 4.54457
    endloop
  endfacet
  facet normal 0.156433 0 0.987689
    outer loop
      vertex 29.65 0 1.45543
      vertex 30 -4 1.4
      vertex 30 0 1.4
    endloop
  endfacet
  facet normal 0.156433 0 0.987689
    outer loop
      vertex 30 -4 1.4
      vertex 29.65 0 1.45543
      vertex 29.65 -4 1.45543
    endloop
  endfacet
  facet normal -0.156434 0 0.987688
    outer loop
      vertex 30 0 1.4
      vertex 30.4944 -4 1.47831
      vertex 30.4944 0 1.47831
    endloop
  endfacet
  facet normal -0.156434 0 0.987688
    outer loop
      vertex 30.4944 -4 1.47831
      vertex 30 0 1.4
      vertex 30 -4 1.4
    endloop
  endfacet
  facet normal 0.156434 0 -0.987688
    outer loop
      vertex 28.8056 -4 4.52169
      vertex 29.3 0 4.6
      vertex 29.3 -4 4.6
    endloop
  endfacet
  facet normal 0.156434 0 -0.987688
    outer loop
      vertex 29.3 0 4.6
      vertex 28.8056 -4 4.52169
      vertex 28.8056 0 4.52169
    endloop
  endfacet
  facet normal 0.707108 0 -0.707106
    outer loop
      vertex 28.3595 -4 4.29443
      vertex 28.0056 0 3.94046
      vertex 28.3595 0 4.29443
    endloop
  endfacet
  facet normal 0.707108 0 -0.707106
    outer loop
      vertex 28.0056 0 3.94046
      vertex 28.3595 -4 4.29443
      vertex 28.0056 -4 3.94046
    endloop
  endfacet
  facet normal 0.45399 0 -0.891007
    outer loop
      vertex 28.3595 -4 4.29443
      vertex 28.8056 0 4.52169
      vertex 28.8056 -4 4.52169
    endloop
  endfacet
  facet normal 0.45399 0 -0.891007
    outer loop
      vertex 28.8056 0 4.52169
      vertex 28.3595 -4 4.29443
      vertex 28.3595 0 4.29443
    endloop
  endfacet
  facet normal 0.891006 -0 0.453992
    outer loop
      vertex 27.7783 -4 2.50557
      vertex 28.0056 0 2.05954
      vertex 27.7783 0 2.50557
    endloop
  endfacet
  facet normal 0.891006 0 0.453992
    outer loop
      vertex 28.0056 0 2.05954
      vertex 27.7783 -4 2.50557
      vertex 28.0056 -4 2.05954
    endloop
  endfacet
  facet normal -0.156433 0 -0.987689
    outer loop
      vertex 29.3 -4 4.6
      vertex 29.65 0 4.54457
      vertex 29.65 -4 4.54457
    endloop
  endfacet
  facet normal -0.156433 0 -0.987689
    outer loop
      vertex 29.65 0 4.54457
      vertex 29.3 -4 4.6
      vertex 29.3 0 4.6
    endloop
  endfacet
  facet normal 0.891006 0 -0.453992
    outer loop
      vertex 28.0056 -4 3.94046
      vertex 27.7783 0 3.49443
      vertex 28.0056 0 3.94046
    endloop
  endfacet
  facet normal 0.891006 0 -0.453992
    outer loop
      vertex 27.7783 0 3.49443
      vertex 28.0056 -4 3.94046
      vertex 27.7783 -4 3.49443
    endloop
  endfacet
  facet normal 0.45399 0 0.891007
    outer loop
      vertex 28.3595 0 1.70557
      vertex 28.8056 -4 1.47831
      vertex 28.8056 0 1.47831
    endloop
  endfacet
  facet normal 0.45399 0 0.891007
    outer loop
      vertex 28.8056 -4 1.47831
      vertex 28.3595 0 1.70557
      vertex 28.3595 -4 1.70557
    endloop
  endfacet
  facet normal 0.707108 -0 0.707106
    outer loop
      vertex 28.0056 -4 2.05954
      vertex 28.3595 0 1.70557
      vertex 28.0056 0 2.05954
    endloop
  endfacet
  facet normal 0.707108 0 0.707106
    outer loop
      vertex 28.3595 0 1.70557
      vertex 28.0056 -4 2.05954
      vertex 28.3595 -4 1.70557
    endloop
  endfacet
  facet normal 0.987689 0 -0.156432
    outer loop
      vertex 27.7783 -4 3.49443
      vertex 27.7 0 3
      vertex 27.7783 0 3.49443
    endloop
  endfacet
  facet normal 0.987689 0 -0.156432
    outer loop
      vertex 27.7 0 3
      vertex 27.7783 -4 3.49443
      vertex 27.7 -4 3
    endloop
  endfacet
  facet normal 0.987689 -0 0.156431
    outer loop
      vertex 27.7 -4 3
      vertex 27.7783 0 2.50557
      vertex 27.7 0 3
    endloop
  endfacet
  facet normal 0.987689 0 0.156431
    outer loop
      vertex 27.7783 0 2.50557
      vertex 27.7 -4 3
      vertex 27.7783 -4 2.50557
    endloop
  endfacet
  facet normal 0.156434 0 0.987688
    outer loop
      vertex 28.8056 0 1.47831
      vertex 29.3 -4 1.4
      vertex 29.3 0 1.4
    endloop
  endfacet
  facet normal 0.156434 0 0.987688
    outer loop
      vertex 29.3 -4 1.4
      vertex 28.8056 0 1.47831
      vertex 28.8056 -4 1.47831
    endloop
  endfacet
  facet normal -0.156433 0 0.987689
    outer loop
      vertex 29.3 0 1.4
      vertex 29.65 -4 1.45543
      vertex 29.65 0 1.45543
    endloop
  endfacet
  facet normal -0.156433 0 0.987689
    outer loop
      vertex 29.65 -4 1.45543
      vertex 29.3 0 1.4
      vertex 29.3 -4 1.4
    endloop
  endfacet
  facet normal 0.707112 0 -0.707102
    outer loop
      vertex 103.56 -4 4.29443
      vertex 103.206 0 3.94046
      vertex 103.56 0 4.29443
    endloop
  endfacet
  facet normal 0.707112 0 -0.707102
    outer loop
      vertex 103.206 0 3.94046
      vertex 103.56 -4 4.29443
      vertex 103.206 -4 3.94046
    endloop
  endfacet
  facet normal 0.156432 0 -0.987689
    outer loop
      vertex 104.006 -4 4.52169
      vertex 104.5 0 4.6
      vertex 104.5 -4 4.6
    endloop
  endfacet
  facet normal 0.156432 0 -0.987689
    outer loop
      vertex 104.5 0 4.6
      vertex 104.006 -4 4.52169
      vertex 104.006 0 4.52169
    endloop
  endfacet
  facet normal 0.987689 -0 0.156431
    outer loop
      vertex 102.9 -4 3
      vertex 102.978 0 2.50557
      vertex 102.9 0 3
    endloop
  endfacet
  facet normal 0.987689 0 0.156431
    outer loop
      vertex 102.978 0 2.50557
      vertex 102.9 -4 3
      vertex 102.978 -4 2.50557
    endloop
  endfacet
  facet normal 0.891006 0 -0.453992
    outer loop
      vertex 103.206 -4 3.94046
      vertex 102.978 0 3.49443
      vertex 103.206 0 3.94046
    endloop
  endfacet
  facet normal 0.891006 0 -0.453992
    outer loop
      vertex 102.978 0 3.49443
      vertex 103.206 -4 3.94046
      vertex 102.978 -4 3.49443
    endloop
  endfacet
  facet normal 0.45399 0 -0.891007
    outer loop
      vertex 103.56 -4 4.29443
      vertex 104.006 0 4.52169
      vertex 104.006 -4 4.52169
    endloop
  endfacet
  facet normal 0.45399 0 -0.891007
    outer loop
      vertex 104.006 0 4.52169
      vertex 103.56 -4 4.29443
      vertex 103.56 0 4.29443
    endloop
  endfacet
  facet normal -0.156434 0 0.987688
    outer loop
      vertex 104.5 0 1.4
      vertex 104.85 -4 1.45543
      vertex 104.85 0 1.45543
    endloop
  endfacet
  facet normal -0.156434 0 0.987688
    outer loop
      vertex 104.85 -4 1.45543
      vertex 104.5 0 1.4
      vertex 104.5 -4 1.4
    endloop
  endfacet
  facet normal 0.45399 0 0.891007
    outer loop
      vertex 103.56 0 1.70557
      vertex 104.006 -4 1.47831
      vertex 104.006 0 1.47831
    endloop
  endfacet
  facet normal 0.45399 0 0.891007
    outer loop
      vertex 104.006 -4 1.47831
      vertex 103.56 0 1.70557
      vertex 103.56 -4 1.70557
    endloop
  endfacet
  facet normal 0.891006 -0 0.453992
    outer loop
      vertex 102.978 -4 2.50557
      vertex 103.206 0 2.05954
      vertex 102.978 0 2.50557
    endloop
  endfacet
  facet normal 0.891006 0 0.453992
    outer loop
      vertex 103.206 0 2.05954
      vertex 102.978 -4 2.50557
      vertex 103.206 -4 2.05954
    endloop
  endfacet
  facet normal 0.707112 -0 0.707102
    outer loop
      vertex 103.206 -4 2.05954
      vertex 103.56 0 1.70557
      vertex 103.206 0 2.05954
    endloop
  endfacet
  facet normal 0.707112 0 0.707102
    outer loop
      vertex 103.56 0 1.70557
      vertex 103.206 -4 2.05954
      vertex 103.56 -4 1.70557
    endloop
  endfacet
  facet normal -0.156434 0 -0.987688
    outer loop
      vertex 104.5 -4 4.6
      vertex 104.85 0 4.54457
      vertex 104.85 -4 4.54457
    endloop
  endfacet
  facet normal -0.156434 0 -0.987688
    outer loop
      vertex 104.85 0 4.54457
      vertex 104.5 -4 4.6
      vertex 104.5 0 4.6
    endloop
  endfacet
  facet normal 0.987689 0 -0.156432
    outer loop
      vertex 102.978 -4 3.49443
      vertex 102.9 0 3
      vertex 102.978 0 3.49443
    endloop
  endfacet
  facet normal 0.987689 0 -0.156432
    outer loop
      vertex 102.9 0 3
      vertex 102.978 -4 3.49443
      vertex 102.9 -4 3
    endloop
  endfacet
  facet normal 0.156432 0 0.987689
    outer loop
      vertex 104.006 0 1.47831
      vertex 104.5 -4 1.4
      vertex 104.5 0 1.4
    endloop
  endfacet
  facet normal 0.156432 0 0.987689
    outer loop
      vertex 104.5 -4 1.4
      vertex 104.006 0 1.47831
      vertex 104.006 -4 1.47831
    endloop
  endfacet
  facet normal -0.987686 0 -0.156447
    outer loop
      vertex 106.8 -4 3
      vertex 106.722 0 3.49443
      vertex 106.8 0 3
    endloop
  endfacet
  facet normal -0.987686 -0 -0.156447
    outer loop
      vertex 106.722 0 3.49443
      vertex 106.8 -4 3
      vertex 106.722 -4 3.49443
    endloop
  endfacet
  facet normal -0.891012 0 -0.45398
    outer loop
      vertex 106.722 -4 3.49443
      vertex 106.494 0 3.94046
      vertex 106.722 0 3.49443
    endloop
  endfacet
  facet normal -0.891012 -0 -0.45398
    outer loop
      vertex 106.494 0 3.94046
      vertex 106.722 -4 3.49443
      vertex 106.494 -4 3.94046
    endloop
  endfacet
  facet normal -0.45399 0 0.891007
    outer loop
      vertex 105.694 0 1.47831
      vertex 106.14 -4 1.70557
      vertex 106.14 0 1.70557
    endloop
  endfacet
  facet normal -0.45399 0 0.891007
    outer loop
      vertex 106.14 -4 1.70557
      vertex 105.694 0 1.47831
      vertex 105.694 -4 1.47831
    endloop
  endfacet
  facet normal -0.707104 0 -0.70711
    outer loop
      vertex 106.14 -4 4.29443
      vertex 106.494 0 3.94046
      vertex 106.494 -4 3.94046
    endloop
  endfacet
  facet normal -0.707104 0 -0.70711
    outer loop
      vertex 106.494 0 3.94046
      vertex 106.14 -4 4.29443
      vertex 106.14 0 4.29443
    endloop
  endfacet
  facet normal -0.707104 0 0.70711
    outer loop
      vertex 106.14 0 1.70557
      vertex 106.494 -4 2.05954
      vertex 106.494 0 2.05954
    endloop
  endfacet
  facet normal -0.707104 0 0.70711
    outer loop
      vertex 106.494 -4 2.05954
      vertex 106.14 0 1.70557
      vertex 106.14 -4 1.70557
    endloop
  endfacet
  facet normal -0.45399 0 -0.891007
    outer loop
      vertex 105.694 -4 4.52169
      vertex 106.14 0 4.29443
      vertex 106.14 -4 4.29443
    endloop
  endfacet
  facet normal -0.45399 0 -0.891007
    outer loop
      vertex 106.14 0 4.29443
      vertex 105.694 -4 4.52169
      vertex 105.694 0 4.52169
    endloop
  endfacet
  facet normal -0.156432 0 0.987689
    outer loop
      vertex 105.2 0 1.4
      vertex 105.694 -4 1.47831
      vertex 105.694 0 1.47831
    endloop
  endfacet
  facet normal -0.156432 0 0.987689
    outer loop
      vertex 105.694 -4 1.47831
      vertex 105.2 0 1.4
      vertex 105.2 -4 1.4
    endloop
  endfacet
  facet normal -0.156432 0 -0.987689
    outer loop
      vertex 105.2 -4 4.6
      vertex 105.694 0 4.52169
      vertex 105.694 -4 4.52169
    endloop
  endfacet
  facet normal -0.156432 0 -0.987689
    outer loop
      vertex 105.694 0 4.52169
      vertex 105.2 -4 4.6
      vertex 105.2 0 4.6
    endloop
  endfacet
  facet normal 0.156434 0 -0.987688
    outer loop
      vertex 104.85 -4 4.54457
      vertex 105.2 0 4.6
      vertex 105.2 -4 4.6
    endloop
  endfacet
  facet normal 0.156434 0 -0.987688
    outer loop
      vertex 105.2 0 4.6
      vertex 104.85 -4 4.54457
      vertex 104.85 0 4.54457
    endloop
  endfacet
  facet normal -0.891012 0 0.45398
    outer loop
      vertex 106.494 -4 2.05954
      vertex 106.722 0 2.50557
      vertex 106.494 0 2.05954
    endloop
  endfacet
  facet normal -0.891012 0 0.45398
    outer loop
      vertex 106.722 0 2.50557
      vertex 106.494 -4 2.05954
      vertex 106.722 -4 2.50557
    endloop
  endfacet
  facet normal -0.987686 0 0.156446
    outer loop
      vertex 106.722 -4 2.50557
      vertex 106.8 0 3
      vertex 106.722 0 2.50557
    endloop
  endfacet
  facet normal -0.987686 0 0.156446
    outer loop
      vertex 106.8 0 3
      vertex 106.722 -4 2.50557
      vertex 106.8 -4 3
    endloop
  endfacet
  facet normal 0.156434 0 0.987688
    outer loop
      vertex 104.85 0 1.45543
      vertex 105.2 -4 1.4
      vertex 105.2 0 1.4
    endloop
  endfacet
  facet normal 0.156434 0 0.987688
    outer loop
      vertex 105.2 -4 1.4
      vertex 104.85 0 1.45543
      vertex 104.85 -4 1.45543
    endloop
  endfacet
  facet normal 0 -0.707107 -0.707107
    outer loop
      vertex 0 -4 0.656854
      vertex 108.5 -3.34315 0
      vertex 108.5 -4 0.656854
    endloop
  endfacet
  facet normal -0 -0.707107 -0.707107
    outer loop
      vertex 108.5 -3.34315 0
      vertex 0 -4 0.656854
      vertex 0 -3.34315 0
    endloop
  endfacet
endsolid OpenSCAD_Model
