solid OpenSCAD_Model
  facet normal -1 0 0
    outer loop
      vertex 0 72 0
      vertex 0 62 1
      vertex 0 72 4
    endloop
  endfacet
  facet normal -1 0 0
    outer loop
      vertex 0 72 0
      vertex 0 10 1
      vertex 0 62 1
    endloop
  endfacet
  facet normal -1 0 0
    outer loop
      vertex 0 0 0
      vertex 0 10 1
      vertex 0 72 0
    endloop
  endfacet
  facet normal -1 0 0
    outer loop
      vertex 0 0 4
      vertex 0 10 1
      vertex 0 0 0
    endloop
  endfacet
  facet normal -1 0 0
    outer loop
      vertex 0 10 1
      vertex 0 0 4
      vertex 0 10 4
    endloop
  endfacet
  facet normal -1 -0 0
    outer loop
      vertex 0 72 4
      vertex 0 62 1
      vertex 0 62 4
    endloop
  endfacet
  facet normal -0 0 1
    outer loop
      vertex 0 62 1
      vertex 10 10 1
      vertex 10 62 1
    endloop
  endfacet
  facet normal 0 0 1
    outer loop
      vertex 10 10 1
      vertex 0 62 1
      vertex 0 10 1
    endloop
  endfacet
  facet normal 0 0 1
    outer loop
      vertex 10 62 1
      vertex 96 62 1
      vertex 96 72 1
    endloop
  endfacet
  facet normal 0 0 1
    outer loop
      vertex 96 62 1
      vertex 65 0 1
      vertex 96 10 1
    endloop
  endfacet
  facet normal 0 0 1
    outer loop
      vertex 96 10 1
      vertex 65 0 1
      vertex 96 0 1
    endloop
  endfacet
  facet normal 0 0 1
    outer loop
      vertex 96 62 1
      vertex 10 62 1
      vertex 65 0 1
    endloop
  endfacet
  facet normal 0 0 1
    outer loop
      vertex 10 62 1
      vertex 96 72 1
      vertex 10 72 1
    endloop
  endfacet
  facet normal 0 0 1
    outer loop
      vertex 65 0 1
      vertex 10 62 1
      vertex 35 0 1
    endloop
  endfacet
  facet normal -0 0 1
    outer loop
      vertex 10 10 1
      vertex 35 0 1
      vertex 10 62 1
    endloop
  endfacet
  facet normal 0 0 1
    outer loop
      vertex 35 0 1
      vertex 10 10 1
      vertex 10 0 1
    endloop
  endfacet
  facet normal -0 0 1
    outer loop
      vertex 96 62 1
      vertex 106 10 1
      vertex 106 62 1
    endloop
  endfacet
  facet normal 0 0 1
    outer loop
      vertex 106 10 1
      vertex 96 62 1
      vertex 96 10 1
    endloop
  endfacet
  facet normal 1 0 0
    outer loop
      vertex 106 10 4
      vertex 106 0 4
      vertex 106 10 1
    endloop
  endfacet
  facet normal 1 0 0
    outer loop
      vertex 106 62 1
      vertex 106 72 4
      vertex 106 62 4
    endloop
  endfacet
  facet normal 1 0 0
    outer loop
      vertex 106 72 4
      vertex 106 62 1
      vertex 106 72 0
    endloop
  endfacet
  facet normal 1 -0 0
    outer loop
      vertex 106 10 1
      vertex 106 72 0
      vertex 106 62 1
    endloop
  endfacet
  facet normal 1 0 0
    outer loop
      vertex 106 10 1
      vertex 106 0 0
      vertex 106 72 0
    endloop
  endfacet
  facet normal 1 0 0
    outer loop
      vertex 106 0 0
      vertex 106 10 1
      vertex 106 0 4
    endloop
  endfacet
  facet normal 0 1 0
    outer loop
      vertex 106 72 4
      vertex 96 72 1
      vertex 96 72 4
    endloop
  endfacet
  facet normal 0 1 0
    outer loop
      vertex 96 72 1
      vertex 106 72 0
      vertex 10 72 1
    endloop
  endfacet
  facet normal 0 1 -0
    outer loop
      vertex 106 72 0
      vertex 96 72 1
      vertex 106 72 4
    endloop
  endfacet
  facet normal 0 1 -0
    outer loop
      vertex 10 72 1
      vertex 0 72 4
      vertex 10 72 4
    endloop
  endfacet
  facet normal 0 1 0
    outer loop
      vertex 10 72 1
      vertex 0 72 0
      vertex 0 72 4
    endloop
  endfacet
  facet normal 0 1 0
    outer loop
      vertex 0 72 0
      vertex 10 72 1
      vertex 106 72 0
    endloop
  endfacet
  facet normal 0 0 -1
    outer loop
      vertex 6.74698 64.9363 0
      vertex 35 0 0
      vertex 6.74698 7.06366 0
    endloop
  endfacet
  facet normal 0 0 -1
    outer loop
      vertex 35 0 0
      vertex 6.74698 64.9363 0
      vertex 7.5 66.5 0
    endloop
  endfacet
  facet normal 0 0 -1
    outer loop
      vertex 5.05496 7.44986 0
      vertex 6.74698 64.9363 0
      vertex 6.74698 7.06366 0
    endloop
  endfacet
  facet normal 0 0 -1
    outer loop
      vertex 5.05496 7.44986 0
      vertex 5.05496 64.5501 0
      vertex 6.74698 64.9363 0
    endloop
  endfacet
  facet normal 0 0 -1
    outer loop
      vertex 3.69806 6.36777 0
      vertex 5.05496 64.5501 0
      vertex 5.05496 7.44986 0
    endloop
  endfacet
  facet normal -0 0 -1
    outer loop
      vertex 5.05496 64.5501 0
      vertex 3.69806 6.36777 0
      vertex 3.69806 65.6322 0
    endloop
  endfacet
  facet normal 0 0 -1
    outer loop
      vertex 35 -3.34315 0
      vertex 7.5 5.5 0
      vertex 35 0 0
    endloop
  endfacet
  facet normal 0 0 -1
    outer loop
      vertex 35 -3.34315 0
      vertex 6.74698 3.93634 0
      vertex 7.5 5.5 0
    endloop
  endfacet
  facet normal 0 0 -1
    outer loop
      vertex 0 0 0
      vertex 6.74698 3.93634 0
      vertex 35 -3.34315 0
    endloop
  endfacet
  facet normal 0 0 -1
    outer loop
      vertex 0 0 0
      vertex 3.69806 6.36777 0
      vertex 3.69806 4.63223 0
    endloop
  endfacet
  facet normal -0 0 -1
    outer loop
      vertex 3.69806 6.36777 0
      vertex 0 0 0
      vertex 3.69806 65.6322 0
    endloop
  endfacet
  facet normal 0 0 -1
    outer loop
      vertex 0 72 0
      vertex 3.69806 65.6322 0
      vertex 0 0 0
    endloop
  endfacet
  facet normal -0 0 -1
    outer loop
      vertex 5.05496 3.55014 0
      vertex 0 0 0
      vertex 3.69806 4.63223 0
    endloop
  endfacet
  facet normal 0 0 -1
    outer loop
      vertex 6.74698 3.93634 0
      vertex 0 0 0
      vertex 5.05496 3.55014 0
    endloop
  endfacet
  facet normal 0 0 -1
    outer loop
      vertex -8 -3.34315 0
      vertex 0 0 0
      vertex 35 -3.34315 0
    endloop
  endfacet
  facet normal -0 0 -1
    outer loop
      vertex 0 0 0
      vertex -8 -3.34315 0
      vertex -8 0 0
    endloop
  endfacet
  facet normal 0 0 -1
    outer loop
      vertex 101.747 64.9363 0
      vertex 106 72 0
      vertex 101.747 7.06366 0
    endloop
  endfacet
  facet normal 0 0 -1
    outer loop
      vertex 106 72 0
      vertex 101.747 64.9363 0
      vertex 102.5 66.5 0
    endloop
  endfacet
  facet normal 0 0 -1
    outer loop
      vertex 100.055 7.44986 0
      vertex 101.747 64.9363 0
      vertex 101.747 7.06366 0
    endloop
  endfacet
  facet normal 0 0 -1
    outer loop
      vertex 100.055 7.44986 0
      vertex 100.055 64.5501 0
      vertex 101.747 64.9363 0
    endloop
  endfacet
  facet normal 0 0 -1
    outer loop
      vertex 98.6981 6.36777 0
      vertex 100.055 64.5501 0
      vertex 100.055 7.44986 0
    endloop
  endfacet
  facet normal -0 0 -1
    outer loop
      vertex 100.055 64.5501 0
      vertex 98.6981 6.36777 0
      vertex 98.6981 65.6322 0
    endloop
  endfacet
  facet normal 0 0 -1
    outer loop
      vertex 114 -3.34315 0
      vertex 106 0 0
      vertex 114 0 0
    endloop
  endfacet
  facet normal 0 0 -1
    outer loop
      vertex 101.747 7.06366 0
      vertex 106 0 0
      vertex 102.5 5.5 0
    endloop
  endfacet
  facet normal 0 0 -1
    outer loop
      vertex 106 0 0
      vertex 101.747 3.93634 0
      vertex 102.5 5.5 0
    endloop
  endfacet
  facet normal 0 0 -1
    outer loop
      vertex 106 0 0
      vertex 100.055 3.55014 0
      vertex 101.747 3.93634 0
    endloop
  endfacet
  facet normal 0 0 -1
    outer loop
      vertex 65 0 0
      vertex 98.6981 6.36777 0
      vertex 98.6981 4.63223 0
    endloop
  endfacet
  facet normal -0 0 -1
    outer loop
      vertex 98.6981 6.36777 0
      vertex 65 0 0
      vertex 98.6981 65.6322 0
    endloop
  endfacet
  facet normal 0 0 -1
    outer loop
      vertex 65 0 0
      vertex 98.6981 4.63223 0
      vertex 65 -3.34315 0
    endloop
  endfacet
  facet normal -0 0 -1
    outer loop
      vertex 100.055 3.55014 0
      vertex 65 -3.34315 0
      vertex 98.6981 4.63223 0
    endloop
  endfacet
  facet normal -0 0 -1
    outer loop
      vertex 106 0 0
      vertex 65 -3.34315 0
      vertex 100.055 3.55014 0
    endloop
  endfacet
  facet normal 0 0 -1
    outer loop
      vertex 65 -3.34315 0
      vertex 106 0 0
      vertex 114 -3.34315 0
    endloop
  endfacet
  facet normal 0 0 -1
    outer loop
      vertex 106 0 0
      vertex 101.747 7.06366 0
      vertex 106 72 0
    endloop
  endfacet
  facet normal 0 0 -1
    outer loop
      vertex 101.747 68.0637 0
      vertex 106 72 0
      vertex 102.5 66.5 0
    endloop
  endfacet
  facet normal 0 0 -1
    outer loop
      vertex 100.055 68.4499 0
      vertex 106 72 0
      vertex 101.747 68.0637 0
    endloop
  endfacet
  facet normal 0 0 -1
    outer loop
      vertex 7.5 66.5 0
      vertex 98.6981 65.6322 0
      vertex 65 0 0
    endloop
  endfacet
  facet normal 0 0 -1
    outer loop
      vertex 7.5 66.5 0
      vertex 65 0 0
      vertex 35 0 0
    endloop
  endfacet
  facet normal 0 0 -1
    outer loop
      vertex 6.74698 7.06366 0
      vertex 35 0 0
      vertex 7.5 5.5 0
    endloop
  endfacet
  facet normal 0 0 -1
    outer loop
      vertex 98.6981 65.6322 0
      vertex 7.5 66.5 0
      vertex 98.6981 67.3678 0
    endloop
  endfacet
  facet normal 0 0 -1
    outer loop
      vertex 6.74698 68.0637 0
      vertex 98.6981 67.3678 0
      vertex 7.5 66.5 0
    endloop
  endfacet
  facet normal 0 0 -1
    outer loop
      vertex 98.6981 67.3678 0
      vertex 6.74698 68.0637 0
      vertex 100.055 68.4499 0
    endloop
  endfacet
  facet normal -0 0 -1
    outer loop
      vertex 100.055 68.4499 0
      vertex 6.74698 68.0637 0
      vertex 106 72 0
    endloop
  endfacet
  facet normal 0 0 -1
    outer loop
      vertex 0 72 0
      vertex 6.74698 68.0637 0
      vertex 5.05496 68.4499 0
    endloop
  endfacet
  facet normal 0 0 -1
    outer loop
      vertex 6.74698 68.0637 0
      vertex 0 72 0
      vertex 106 72 0
    endloop
  endfacet
  facet normal 0 0 -1
    outer loop
      vertex 3.69806 67.3678 0
      vertex 0 72 0
      vertex 5.05496 68.4499 0
    endloop
  endfacet
  facet normal 0 0 -1
    outer loop
      vertex 3.69806 65.6322 0
      vertex 0 72 0
      vertex 3.69806 67.3678 0
    endloop
  endfacet
  facet normal 0 1 0
    outer loop
      vertex 114 0 6
      vertex 110.433 0 4.33148
      vertex 106 0 6
    endloop
  endfacet
  facet normal 0 1 0
    outer loop
      vertex 114 0 6
      vertex 111.4 0 3
      vertex 110.433 0 4.33148
    endloop
  endfacet
  facet normal 0 1 -0
    outer loop
      vertex 114 0 0
      vertex 111.4 0 3
      vertex 114 0 6
    endloop
  endfacet
  facet normal 0 1 0
    outer loop
      vertex 111.4 0 3
      vertex 114 0 0
      vertex 110.433 0 1.66852
    endloop
  endfacet
  facet normal 0 1 -0
    outer loop
      vertex 108.867 0 3.8229
      vertex 106 0 6
      vertex 110.433 0 4.33148
    endloop
  endfacet
  facet normal 0 1 0
    outer loop
      vertex 106 0 6
      vertex 108.867 0 3.8229
      vertex 106 0 4
    endloop
  endfacet
  facet normal 0 1 -0
    outer loop
      vertex 108.867 0 2.1771
      vertex 106 0 4
      vertex 108.867 0 3.8229
    endloop
  endfacet
  facet normal 0 1 0
    outer loop
      vertex 106 0 0
      vertex 110.433 0 1.66852
      vertex 114 0 0
    endloop
  endfacet
  facet normal 0 1 0
    outer loop
      vertex 108.867 0 2.1771
      vertex 106 0 0
      vertex 106 0 4
    endloop
  endfacet
  facet normal 0 1 0
    outer loop
      vertex 110.433 0 1.66852
      vertex 106 0 0
      vertex 108.867 0 2.1771
    endloop
  endfacet
  facet normal 0 1 0
    outer loop
      vertex 0 0 6
      vertex -3.56738 0 4.33148
      vertex -8 0 6
    endloop
  endfacet
  facet normal 0 1 -0
    outer loop
      vertex 0 0 4
      vertex -3.56738 0 4.33148
      vertex 0 0 6
    endloop
  endfacet
  facet normal 0 1 0
    outer loop
      vertex 0 0 4
      vertex -2.6 0 3
      vertex -3.56738 0 4.33148
    endloop
  endfacet
  facet normal 0 1 -0
    outer loop
      vertex 0 0 0
      vertex -2.6 0 3
      vertex 0 0 4
    endloop
  endfacet
  facet normal 0 1 0
    outer loop
      vertex -2.6 0 3
      vertex 0 0 0
      vertex -3.56738 0 1.66852
    endloop
  endfacet
  facet normal 0 1 -0
    outer loop
      vertex -5.13262 0 3.8229
      vertex -8 0 6
      vertex -3.56738 0 4.33148
    endloop
  endfacet
  facet normal 0 1 -0
    outer loop
      vertex -5.13262 0 2.1771
      vertex -8 0 6
      vertex -5.13262 0 3.8229
    endloop
  endfacet
  facet normal 0 1 0
    outer loop
      vertex -8 0 0
      vertex -3.56738 0 1.66852
      vertex 0 0 0
    endloop
  endfacet
  facet normal 0 1 0
    outer loop
      vertex -5.13262 0 2.1771
      vertex -8 0 0
      vertex -8 0 6
    endloop
  endfacet
  facet normal 0 1 0
    outer loop
      vertex -3.56738 0 1.66852
      vertex -8 0 0
      vertex -5.13262 0 2.1771
    endloop
  endfacet
  facet normal 0 -1 0
    outer loop
      vertex 35 0 0
      vertex 65 0 1
      vertex 35 0 1
    endloop
  endfacet
  facet normal 0 -1 -0
    outer loop
      vertex 65 0 1
      vertex 35 0 0
      vertex 65 0 0
    endloop
  endfacet
  facet normal 0 1 -0
    outer loop
      vertex 35 0 1
      vertex 10 0 4
      vertex 35 0 4
    endloop
  endfacet
  facet normal 0 1 0
    outer loop
      vertex 10 0 4
      vertex 35 0 1
      vertex 10 0 1
    endloop
  endfacet
  facet normal 0 1 -0
    outer loop
      vertex 96 0 1
      vertex 65 0 4
      vertex 96 0 4
    endloop
  endfacet
  facet normal 0 1 0
    outer loop
      vertex 65 0 4
      vertex 96 0 1
      vertex 65 0 1
    endloop
  endfacet
  facet normal 0 0 1
    outer loop
      vertex 10 10 4
      vertex 7.5 5.5 4
      vertex 10 0 4
    endloop
  endfacet
  facet normal 0 0 1
    outer loop
      vertex 10 10 4
      vertex 6.74698 7.06366 4
      vertex 7.5 5.5 4
    endloop
  endfacet
  facet normal 0 0 1
    outer loop
      vertex 10 10 4
      vertex 5.05496 7.44986 4
      vertex 6.74698 7.06366 4
    endloop
  endfacet
  facet normal 0 0 1
    outer loop
      vertex 3.69806 6.36777 4
      vertex 0 10 4
      vertex 3.69806 4.63223 4
    endloop
  endfacet
  facet normal 0 0 1
    outer loop
      vertex 5.05496 7.44986 4
      vertex 0 10 4
      vertex 3.69806 6.36777 4
    endloop
  endfacet
  facet normal -0 0 1
    outer loop
      vertex 0 10 4
      vertex 5.05496 7.44986 4
      vertex 10 10 4
    endloop
  endfacet
  facet normal -0 0 1
    outer loop
      vertex 10 0 4
      vertex 35 -4 4
      vertex 35 0 4
    endloop
  endfacet
  facet normal -0 0 1
    outer loop
      vertex 6.74698 3.93634 4
      vertex 10 0 4
      vertex 7.5 5.5 4
    endloop
  endfacet
  facet normal -0 0 1
    outer loop
      vertex 5.05496 3.55014 4
      vertex 10 0 4
      vertex 6.74698 3.93634 4
    endloop
  endfacet
  facet normal 0 0 1
    outer loop
      vertex 0 0 4
      vertex 3.69806 4.63223 4
      vertex 0 10 4
    endloop
  endfacet
  facet normal 0 0 1
    outer loop
      vertex 0 0 4
      vertex 5.05496 3.55014 4
      vertex 3.69806 4.63223 4
    endloop
  endfacet
  facet normal 0 0 1
    outer loop
      vertex 0 0 4
      vertex 10 0 4
      vertex 5.05496 3.55014 4
    endloop
  endfacet
  facet normal 0 0 1
    outer loop
      vertex 0 -4 4
      vertex 10 0 4
      vertex 0 0 4
    endloop
  endfacet
  facet normal 0 0 1
    outer loop
      vertex 10 0 4
      vertex 0 -4 4
      vertex 35 -4 4
    endloop
  endfacet
  facet normal -0 0 1
    outer loop
      vertex 102.5 5.5 4
      vertex 106 0 4
      vertex 106 10 4
    endloop
  endfacet
  facet normal -0 0 1
    outer loop
      vertex 101.747 3.93634 4
      vertex 106 0 4
      vertex 102.5 5.5 4
    endloop
  endfacet
  facet normal 0 0 1
    outer loop
      vertex 106 10 4
      vertex 101.747 7.06366 4
      vertex 102.5 5.5 4
    endloop
  endfacet
  facet normal 0 0 1
    outer loop
      vertex 106 10 4
      vertex 100.055 7.44986 4
      vertex 101.747 7.06366 4
    endloop
  endfacet
  facet normal 0 0 1
    outer loop
      vertex 98.6981 6.36777 4
      vertex 96 10 4
      vertex 98.6981 4.63223 4
    endloop
  endfacet
  facet normal 0 0 1
    outer loop
      vertex 100.055 7.44986 4
      vertex 96 10 4
      vertex 98.6981 6.36777 4
    endloop
  endfacet
  facet normal -0 0 1
    outer loop
      vertex 96 10 4
      vertex 100.055 7.44986 4
      vertex 106 10 4
    endloop
  endfacet
  facet normal -0 0 1
    outer loop
      vertex 100.055 3.55014 4
      vertex 106 0 4
      vertex 101.747 3.93634 4
    endloop
  endfacet
  facet normal 0 0 1
    outer loop
      vertex 96 0 4
      vertex 106 0 4
      vertex 100.055 3.55014 4
    endloop
  endfacet
  facet normal 0 0 1
    outer loop
      vertex 96 0 4
      vertex 100.055 3.55014 4
      vertex 98.6981 4.63223 4
    endloop
  endfacet
  facet normal 0 0 1
    outer loop
      vertex 96 0 4
      vertex 98.6981 4.63223 4
      vertex 96 10 4
    endloop
  endfacet
  facet normal 0 0 1
    outer loop
      vertex 106 0 4
      vertex 96 0 4
      vertex 106 -4 4
    endloop
  endfacet
  facet normal 0 0 1
    outer loop
      vertex 65 -4 4
      vertex 96 0 4
      vertex 65 0 4
    endloop
  endfacet
  facet normal 0 0 1
    outer loop
      vertex 96 0 4
      vertex 65 -4 4
      vertex 106 -4 4
    endloop
  endfacet
  facet normal 1 -0 0
    outer loop
      vertex 10 0 4
      vertex 10 10 1
      vertex 10 10 4
    endloop
  endfacet
  facet normal 1 0 0
    outer loop
      vertex 10 10 1
      vertex 10 0 4
      vertex 10 0 1
    endloop
  endfacet
  facet normal 0 1 -0
    outer loop
      vertex 10 10 1
      vertex 0 10 4
      vertex 10 10 4
    endloop
  endfacet
  facet normal 0 1 0
    outer loop
      vertex 0 10 4
      vertex 10 10 1
      vertex 0 10 1
    endloop
  endfacet
  facet normal 0 0 1
    outer loop
      vertex 10 72 4
      vertex 7.5 66.5 4
      vertex 10 62 4
    endloop
  endfacet
  facet normal 0 0 1
    outer loop
      vertex 10 72 4
      vertex 6.74698 68.0637 4
      vertex 7.5 66.5 4
    endloop
  endfacet
  facet normal 0 0 1
    outer loop
      vertex 10 72 4
      vertex 5.05496 68.4499 4
      vertex 6.74698 68.0637 4
    endloop
  endfacet
  facet normal 0 0 1
    outer loop
      vertex 0 62 4
      vertex 3.69806 67.3678 4
      vertex 0 72 4
    endloop
  endfacet
  facet normal 0 0 1
    outer loop
      vertex 5.05496 68.4499 4
      vertex 0 72 4
      vertex 3.69806 67.3678 4
    endloop
  endfacet
  facet normal -0 0 1
    outer loop
      vertex 0 72 4
      vertex 5.05496 68.4499 4
      vertex 10 72 4
    endloop
  endfacet
  facet normal -0 0 1
    outer loop
      vertex 6.74698 64.9363 4
      vertex 10 62 4
      vertex 7.5 66.5 4
    endloop
  endfacet
  facet normal -0 0 1
    outer loop
      vertex 5.05496 64.5501 4
      vertex 10 62 4
      vertex 6.74698 64.9363 4
    endloop
  endfacet
  facet normal 0 0 1
    outer loop
      vertex 5.05496 64.5501 4
      vertex 0 62 4
      vertex 10 62 4
    endloop
  endfacet
  facet normal 0 0 1
    outer loop
      vertex 3.69806 65.6322 4
      vertex 0 62 4
      vertex 5.05496 64.5501 4
    endloop
  endfacet
  facet normal 0 0 1
    outer loop
      vertex 3.69806 67.3678 4
      vertex 0 62 4
      vertex 3.69806 65.6322 4
    endloop
  endfacet
  facet normal 1 -0 0
    outer loop
      vertex 10 62 4
      vertex 10 72 1
      vertex 10 72 4
    endloop
  endfacet
  facet normal 1 0 0
    outer loop
      vertex 10 72 1
      vertex 10 62 4
      vertex 10 62 1
    endloop
  endfacet
  facet normal 0 -1 0
    outer loop
      vertex 0 62 1
      vertex 10 62 4
      vertex 0 62 4
    endloop
  endfacet
  facet normal 0 -1 -0
    outer loop
      vertex 10 62 4
      vertex 0 62 1
      vertex 10 62 1
    endloop
  endfacet
  facet normal -1 0 0
    outer loop
      vertex 96 0 1
      vertex 96 10 4
      vertex 96 10 1
    endloop
  endfacet
  facet normal -1 -0 0
    outer loop
      vertex 96 10 4
      vertex 96 0 1
      vertex 96 0 4
    endloop
  endfacet
  facet normal 0 1 -0
    outer loop
      vertex 106 10 1
      vertex 96 10 4
      vertex 106 10 4
    endloop
  endfacet
  facet normal 0 1 0
    outer loop
      vertex 96 10 4
      vertex 106 10 1
      vertex 96 10 1
    endloop
  endfacet
  facet normal -1 0 0
    outer loop
      vertex 96 62 1
      vertex 96 72 4
      vertex 96 72 1
    endloop
  endfacet
  facet normal -1 -0 0
    outer loop
      vertex 96 72 4
      vertex 96 62 1
      vertex 96 62 4
    endloop
  endfacet
  facet normal 0 0 1
    outer loop
      vertex 106 72 4
      vertex 102.5 66.5 4
      vertex 106 62 4
    endloop
  endfacet
  facet normal 0 0 1
    outer loop
      vertex 106 72 4
      vertex 101.747 68.0637 4
      vertex 102.5 66.5 4
    endloop
  endfacet
  facet normal 0 0 1
    outer loop
      vertex 106 72 4
      vertex 100.055 68.4499 4
      vertex 101.747 68.0637 4
    endloop
  endfacet
  facet normal 0 0 1
    outer loop
      vertex 96 62 4
      vertex 98.6981 67.3678 4
      vertex 96 72 4
    endloop
  endfacet
  facet normal 0 0 1
    outer loop
      vertex 100.055 68.4499 4
      vertex 96 72 4
      vertex 98.6981 67.3678 4
    endloop
  endfacet
  facet normal -0 0 1
    outer loop
      vertex 96 72 4
      vertex 100.055 68.4499 4
      vertex 106 72 4
    endloop
  endfacet
  facet normal -0 0 1
    outer loop
      vertex 101.747 64.9363 4
      vertex 106 62 4
      vertex 102.5 66.5 4
    endloop
  endfacet
  facet normal -0 0 1
    outer loop
      vertex 100.055 64.5501 4
      vertex 106 62 4
      vertex 101.747 64.9363 4
    endloop
  endfacet
  facet normal 0 0 1
    outer loop
      vertex 100.055 64.5501 4
      vertex 96 62 4
      vertex 106 62 4
    endloop
  endfacet
  facet normal 0 0 1
    outer loop
      vertex 98.6981 65.6322 4
      vertex 96 62 4
      vertex 100.055 64.5501 4
    endloop
  endfacet
  facet normal 0 0 1
    outer loop
      vertex 98.6981 67.3678 4
      vertex 96 62 4
      vertex 98.6981 65.6322 4
    endloop
  endfacet
  facet normal 0 -1 0
    outer loop
      vertex 96 62 1
      vertex 106 62 4
      vertex 96 62 4
    endloop
  endfacet
  facet normal 0 -1 -0
    outer loop
      vertex 106 62 4
      vertex 96 62 1
      vertex 106 62 1
    endloop
  endfacet
  facet normal -0.900969 -0.433884 0
    outer loop
      vertex 7.5 5.5 0
      vertex 6.74698 7.06366 4
      vertex 6.74698 7.06366 0
    endloop
  endfacet
  facet normal -0.900969 -0.433884 0
    outer loop
      vertex 6.74698 7.06366 4
      vertex 7.5 5.5 0
      vertex 7.5 5.5 4
    endloop
  endfacet
  facet normal 1 -0 0
    outer loop
      vertex 3.69806 4.63223 4
      vertex 3.69806 6.36777 0
      vertex 3.69806 6.36777 4
    endloop
  endfacet
  facet normal 1 0 0
    outer loop
      vertex 3.69806 6.36777 0
      vertex 3.69806 4.63223 4
      vertex 3.69806 4.63223 0
    endloop
  endfacet
  facet normal -0.222521 -0.974928 0
    outer loop
      vertex 5.05496 7.44986 0
      vertex 6.74698 7.06366 4
      vertex 5.05496 7.44986 4
    endloop
  endfacet
  facet normal -0.222521 -0.974928 -0
    outer loop
      vertex 6.74698 7.06366 4
      vertex 5.05496 7.44986 0
      vertex 6.74698 7.06366 0
    endloop
  endfacet
  facet normal 0.62349 -0.781831 0
    outer loop
      vertex 3.69806 6.36777 0
      vertex 5.05496 7.44986 4
      vertex 3.69806 6.36777 4
    endloop
  endfacet
  facet normal 0.62349 -0.781831 0
    outer loop
      vertex 5.05496 7.44986 4
      vertex 3.69806 6.36777 0
      vertex 5.05496 7.44986 0
    endloop
  endfacet
  facet normal -0.900969 0.433884 0
    outer loop
      vertex 6.74698 3.93634 0
      vertex 7.5 5.5 4
      vertex 7.5 5.5 0
    endloop
  endfacet
  facet normal -0.900969 0.433884 0
    outer loop
      vertex 7.5 5.5 4
      vertex 6.74698 3.93634 0
      vertex 6.74698 3.93634 4
    endloop
  endfacet
  facet normal -0.222521 0.974928 0
    outer loop
      vertex 6.74698 3.93634 0
      vertex 5.05496 3.55014 4
      vertex 6.74698 3.93634 4
    endloop
  endfacet
  facet normal -0.222521 0.974928 0
    outer loop
      vertex 5.05496 3.55014 4
      vertex 6.74698 3.93634 0
      vertex 5.05496 3.55014 0
    endloop
  endfacet
  facet normal 0.62349 0.781831 -0
    outer loop
      vertex 5.05496 3.55014 0
      vertex 3.69806 4.63223 4
      vertex 5.05496 3.55014 4
    endloop
  endfacet
  facet normal 0.62349 0.781831 0
    outer loop
      vertex 3.69806 4.63223 4
      vertex 5.05496 3.55014 0
      vertex 3.69806 4.63223 0
    endloop
  endfacet
  facet normal -0.900968 -0.433885 0
    outer loop
      vertex 7.5 66.5 0
      vertex 6.74698 68.0637 4
      vertex 6.74698 68.0637 0
    endloop
  endfacet
  facet normal -0.900968 -0.433885 0
    outer loop
      vertex 6.74698 68.0637 4
      vertex 7.5 66.5 0
      vertex 7.5 66.5 4
    endloop
  endfacet
  facet normal 1 -0 0
    outer loop
      vertex 3.69806 65.6322 4
      vertex 3.69806 67.3678 0
      vertex 3.69806 67.3678 4
    endloop
  endfacet
  facet normal 1 0 0
    outer loop
      vertex 3.69806 67.3678 0
      vertex 3.69806 65.6322 4
      vertex 3.69806 65.6322 0
    endloop
  endfacet
  facet normal 0.623491 0.78183 -0
    outer loop
      vertex 5.05496 64.5501 0
      vertex 3.69806 65.6322 4
      vertex 5.05496 64.5501 4
    endloop
  endfacet
  facet normal 0.623491 0.78183 0
    outer loop
      vertex 3.69806 65.6322 4
      vertex 5.05496 64.5501 0
      vertex 3.69806 65.6322 0
    endloop
  endfacet
  facet normal 0.623491 -0.78183 0
    outer loop
      vertex 3.69806 67.3678 0
      vertex 5.05496 68.4499 4
      vertex 3.69806 67.3678 4
    endloop
  endfacet
  facet normal 0.623491 -0.78183 0
    outer loop
      vertex 5.05496 68.4499 4
      vertex 3.69806 67.3678 0
      vertex 5.05496 68.4499 0
    endloop
  endfacet
  facet normal -0.222525 -0.974927 0
    outer loop
      vertex 5.05496 68.4499 0
      vertex 6.74698 68.0637 4
      vertex 5.05496 68.4499 4
    endloop
  endfacet
  facet normal -0.222525 -0.974927 -0
    outer loop
      vertex 6.74698 68.0637 4
      vertex 5.05496 68.4499 0
      vertex 6.74698 68.0637 0
    endloop
  endfacet
  facet normal -0.222525 0.974927 0
    outer loop
      vertex 6.74698 64.9363 0
      vertex 5.05496 64.5501 4
      vertex 6.74698 64.9363 4
    endloop
  endfacet
  facet normal -0.222525 0.974927 0
    outer loop
      vertex 5.05496 64.5501 4
      vertex 6.74698 64.9363 0
      vertex 5.05496 64.5501 0
    endloop
  endfacet
  facet normal -0.900968 0.433885 0
    outer loop
      vertex 6.74698 64.9363 0
      vertex 7.5 66.5 4
      vertex 7.5 66.5 0
    endloop
  endfacet
  facet normal -0.900968 0.433885 0
    outer loop
      vertex 7.5 66.5 4
      vertex 6.74698 64.9363 0
      vertex 6.74698 64.9363 4
    endloop
  endfacet
  facet normal -0.900969 -0.433884 0
    outer loop
      vertex 102.5 5.5 0
      vertex 101.747 7.06366 4
      vertex 101.747 7.06366 0
    endloop
  endfacet
  facet normal -0.900969 -0.433884 0
    outer loop
      vertex 101.747 7.06366 4
      vertex 102.5 5.5 0
      vertex 102.5 5.5 4
    endloop
  endfacet
  facet normal 1 -0 0
    outer loop
      vertex 98.6981 4.63223 4
      vertex 98.6981 6.36777 0
      vertex 98.6981 6.36777 4
    endloop
  endfacet
  facet normal 1 0 0
    outer loop
      vertex 98.6981 6.36777 0
      vertex 98.6981 4.63223 4
      vertex 98.6981 4.63223 0
    endloop
  endfacet
  facet normal -0.222521 -0.974928 0
    outer loop
      vertex 100.055 7.44986 0
      vertex 101.747 7.06366 4
      vertex 100.055 7.44986 4
    endloop
  endfacet
  facet normal -0.222521 -0.974928 -0
    outer loop
      vertex 101.747 7.06366 4
      vertex 100.055 7.44986 0
      vertex 101.747 7.06366 0
    endloop
  endfacet
  facet normal 0.62349 0.781831 -0
    outer loop
      vertex 100.055 3.55014 0
      vertex 98.6981 4.63223 4
      vertex 100.055 3.55014 4
    endloop
  endfacet
  facet normal 0.62349 0.781831 0
    outer loop
      vertex 98.6981 4.63223 4
      vertex 100.055 3.55014 0
      vertex 98.6981 4.63223 0
    endloop
  endfacet
  facet normal 0.62349 -0.781831 0
    outer loop
      vertex 98.6981 6.36777 0
      vertex 100.055 7.44986 4
      vertex 98.6981 6.36777 4
    endloop
  endfacet
  facet normal 0.62349 -0.781831 0
    outer loop
      vertex 100.055 7.44986 4
      vertex 98.6981 6.36777 0
      vertex 100.055 7.44986 0
    endloop
  endfacet
  facet normal -0.900969 0.433884 0
    outer loop
      vertex 101.747 3.93634 0
      vertex 102.5 5.5 4
      vertex 102.5 5.5 0
    endloop
  endfacet
  facet normal -0.900969 0.433884 0
    outer loop
      vertex 102.5 5.5 4
      vertex 101.747 3.93634 0
      vertex 101.747 3.93634 4
    endloop
  endfacet
  facet normal -0.222521 0.974928 0
    outer loop
      vertex 101.747 3.93634 0
      vertex 100.055 3.55014 4
      vertex 101.747 3.93634 4
    endloop
  endfacet
  facet normal -0.222521 0.974928 0
    outer loop
      vertex 100.055 3.55014 4
      vertex 101.747 3.93634 0
      vertex 100.055 3.55014 0
    endloop
  endfacet
  facet normal -0.900968 -0.433885 0
    outer loop
      vertex 102.5 66.5 0
      vertex 101.747 68.0637 4
      vertex 101.747 68.0637 0
    endloop
  endfacet
  facet normal -0.900968 -0.433885 0
    outer loop
      vertex 101.747 68.0637 4
      vertex 102.5 66.5 0
      vertex 102.5 66.5 4
    endloop
  endfacet
  facet normal 1 -0 0
    outer loop
      vertex 98.6981 65.6322 4
      vertex 98.6981 67.3678 0
      vertex 98.6981 67.3678 4
    endloop
  endfacet
  facet normal 1 0 0
    outer loop
      vertex 98.6981 67.3678 0
      vertex 98.6981 65.6322 4
      vertex 98.6981 65.6322 0
    endloop
  endfacet
  facet normal -0.222524 -0.974927 0
    outer loop
      vertex 100.055 68.4499 0
      vertex 101.747 68.0637 4
      vertex 100.055 68.4499 4
    endloop
  endfacet
  facet normal -0.222524 -0.974927 -0
    outer loop
      vertex 101.747 68.0637 4
      vertex 100.055 68.4499 0
      vertex 101.747 68.0637 0
    endloop
  endfacet
  facet normal 0.623491 -0.78183 0
    outer loop
      vertex 98.6981 67.3678 0
      vertex 100.055 68.4499 4
      vertex 98.6981 67.3678 4
    endloop
  endfacet
  facet normal 0.623491 -0.78183 0
    outer loop
      vertex 100.055 68.4499 4
      vertex 98.6981 67.3678 0
      vertex 100.055 68.4499 0
    endloop
  endfacet
  facet normal -0.222524 0.974927 0
    outer loop
      vertex 101.747 64.9363 0
      vertex 100.055 64.5501 4
      vertex 101.747 64.9363 4
    endloop
  endfacet
  facet normal -0.222524 0.974927 0
    outer loop
      vertex 100.055 64.5501 4
      vertex 101.747 64.9363 0
      vertex 100.055 64.5501 0
    endloop
  endfacet
  facet normal 0.623491 0.78183 -0
    outer loop
      vertex 100.055 64.5501 0
      vertex 98.6981 65.6322 4
      vertex 100.055 64.5501 4
    endloop
  endfacet
  facet normal 0.623491 0.78183 0
    outer loop
      vertex 98.6981 65.6322 4
      vertex 100.055 64.5501 0
      vertex 98.6981 65.6322 0
    endloop
  endfacet
  facet normal -0.900968 0.433885 0
    outer loop
      vertex 101.747 64.9363 0
      vertex 102.5 66.5 4
      vertex 102.5 66.5 0
    endloop
  endfacet
  facet normal -0.900968 0.433885 0
    outer loop
      vertex 102.5 66.5 4
      vertex 101.747 64.9363 0
      vertex 101.747 64.9363 4
    endloop
  endfacet
  facet normal -1 0 0
    outer loop
      vertex -8 -4 0.656854
      vertex -8 0 0
      vertex -8 -3.34315 0
    endloop
  endfacet
  facet normal -1 0 0
    outer loop
      vertex -8 0 0
      vertex -8 -4 0.656854
      vertex -8 0 6
    endloop
  endfacet
  facet normal -1 -0 0
    outer loop
      vertex -8 0 6
      vertex -8 -4 0.656854
      vertex -8 -4 6
    endloop
  endfacet
  facet normal 1 -0 0
    outer loop
      vertex 114 -4 0.656854
      vertex 114 0 0
      vertex 114 0 6
    endloop
  endfacet
  facet normal 1 0 0
    outer loop
      vertex 114 -4 0.656854
      vertex 114 0 6
      vertex 114 -4 6
    endloop
  endfacet
  facet normal 1 0 0
    outer loop
      vertex 114 0 0
      vertex 114 -4 0.656854
      vertex 114 -3.34315 0
    endloop
  endfacet
  facet normal 0 -1 0
    outer loop
      vertex 65 -4 0.656854
      vertex 106 -4 4
      vertex 65 -4 4
    endloop
  endfacet
  facet normal 0 -1 0
    outer loop
      vertex 106 -4 4
      vertex 108.867 -4 2.1771
      vertex 108.867 -4 3.8229
    endloop
  endfacet
  facet normal 0 -1 -0
    outer loop
      vertex 106 -4 4
      vertex 65 -4 0.656854
      vertex 108.867 -4 2.1771
    endloop
  endfacet
  facet normal 0 -1 -0
    outer loop
      vertex 108.867 -4 2.1771
      vertex 65 -4 0.656854
      vertex 110.433 -4 1.66852
    endloop
  endfacet
  facet normal 0 -1 0
    outer loop
      vertex 106 -4 6
      vertex 110.433 -4 4.33148
      vertex 114 -4 6
    endloop
  endfacet
  facet normal 0 -1 0
    outer loop
      vertex 108.867 -4 3.8229
      vertex 106 -4 6
      vertex 106 -4 4
    endloop
  endfacet
  facet normal 0 -1 0
    outer loop
      vertex 106 -4 6
      vertex 108.867 -4 3.8229
      vertex 110.433 -4 4.33148
    endloop
  endfacet
  facet normal 0 -1 0
    outer loop
      vertex 111.4 -4 3
      vertex 114 -4 6
      vertex 110.433 -4 4.33148
    endloop
  endfacet
  facet normal 0 -1 0
    outer loop
      vertex 114 -4 0.656854
      vertex 111.4 -4 3
      vertex 110.433 -4 1.66852
    endloop
  endfacet
  facet normal 0 -1 0
    outer loop
      vertex 111.4 -4 3
      vertex 114 -4 0.656854
      vertex 114 -4 6
    endloop
  endfacet
  facet normal 0 -1 0
    outer loop
      vertex 114 -4 0.656854
      vertex 110.433 -4 1.66852
      vertex 65 -4 0.656854
    endloop
  endfacet
  facet normal 0 -1 0
    outer loop
      vertex -8 -4 6
      vertex -3.56738 -4 4.33148
      vertex 0 -4 6
    endloop
  endfacet
  facet normal 0 -1 0
    outer loop
      vertex -8 -4 6
      vertex -5.13262 -4 3.8229
      vertex -3.56738 -4 4.33148
    endloop
  endfacet
  facet normal 0 -1 0
    outer loop
      vertex -8 -4 0.656854
      vertex -5.13262 -4 3.8229
      vertex -8 -4 6
    endloop
  endfacet
  facet normal 0 -1 -0
    outer loop
      vertex -5.13262 -4 2.1771
      vertex -8 -4 0.656854
      vertex -3.56738 -4 1.66852
    endloop
  endfacet
  facet normal 0 -1 -0
    outer loop
      vertex -5.13262 -4 3.8229
      vertex -8 -4 0.656854
      vertex -5.13262 -4 2.1771
    endloop
  endfacet
  facet normal 0 -1 0
    outer loop
      vertex -3.56738 -4 4.33148
      vertex 0 -4 4
      vertex 0 -4 6
    endloop
  endfacet
  facet normal 0 -1 0
    outer loop
      vertex -2.6 -4 3
      vertex 0 -4 4
      vertex -3.56738 -4 4.33148
    endloop
  endfacet
  facet normal 0 -1 0
    outer loop
      vertex -3.56738 -4 1.66852
      vertex 0 -4 4
      vertex -2.6 -4 3
    endloop
  endfacet
  facet normal 0 -1 -0
    outer loop
      vertex 0 -4 4
      vertex -3.56738 -4 1.66852
      vertex 35 -4 0.656854
    endloop
  endfacet
  facet normal 0 -1 0
    outer loop
      vertex 35 -4 0.656854
      vertex -3.56738 -4 1.66852
      vertex -8 -4 0.656854
    endloop
  endfacet
  facet normal 0 -1 0
    outer loop
      vertex 0 -4 4
      vertex 35 -4 0.656854
      vertex 35 -4 4
    endloop
  endfacet
  facet normal -0 0 1
    outer loop
      vertex -8 0 6
      vertex 0 -4 6
      vertex 0 0 6
    endloop
  endfacet
  facet normal 0 0 1
    outer loop
      vertex 0 -4 6
      vertex -8 0 6
      vertex -8 -4 6
    endloop
  endfacet
  facet normal 1 -0 0
    outer loop
      vertex 0 -4 6
      vertex 0 0 4
      vertex 0 0 6
    endloop
  endfacet
  facet normal 1 0 0
    outer loop
      vertex 0 0 4
      vertex 0 -4 6
      vertex 0 -4 4
    endloop
  endfacet
  facet normal -1 0 0
    outer loop
      vertex 106 -4 4
      vertex 106 0 6
      vertex 106 0 4
    endloop
  endfacet
  facet normal -1 -0 0
    outer loop
      vertex 106 0 6
      vertex 106 -4 4
      vertex 106 -4 6
    endloop
  endfacet
  facet normal -0 0 1
    outer loop
      vertex 106 0 6
      vertex 114 -4 6
      vertex 114 0 6
    endloop
  endfacet
  facet normal 0 0 1
    outer loop
      vertex 114 -4 6
      vertex 106 0 6
      vertex 106 -4 6
    endloop
  endfacet
  facet normal -0.809017 0 -0.587785
    outer loop
      vertex -2.6 -4 3
      vertex -3.56738 0 4.33148
      vertex -2.6 0 3
    endloop
  endfacet
  facet normal -0.809017 -0 -0.587785
    outer loop
      vertex -3.56738 0 4.33148
      vertex -2.6 -4 3
      vertex -3.56738 -4 4.33148
    endloop
  endfacet
  facet normal 0.309017 0 -0.951056
    outer loop
      vertex -5.13262 -4 3.8229
      vertex -3.56738 0 4.33148
      vertex -3.56738 -4 4.33148
    endloop
  endfacet
  facet normal 0.309017 0 -0.951056
    outer loop
      vertex -3.56738 0 4.33148
      vertex -5.13262 -4 3.8229
      vertex -5.13262 0 3.8229
    endloop
  endfacet
  facet normal 1 -0 0
    outer loop
      vertex -5.13262 -4 3.8229
      vertex -5.13262 0 2.1771
      vertex -5.13262 0 3.8229
    endloop
  endfacet
  facet normal 1 0 0
    outer loop
      vertex -5.13262 0 2.1771
      vertex -5.13262 -4 3.8229
      vertex -5.13262 -4 2.1771
    endloop
  endfacet
  facet normal 0.309017 0 0.951056
    outer loop
      vertex -5.13262 0 2.1771
      vertex -3.56738 -4 1.66852
      vertex -3.56738 0 1.66852
    endloop
  endfacet
  facet normal 0.309017 0 0.951056
    outer loop
      vertex -3.56738 -4 1.66852
      vertex -5.13262 0 2.1771
      vertex -5.13262 -4 2.1771
    endloop
  endfacet
  facet normal -0.809017 0 0.587785
    outer loop
      vertex -3.56738 -4 1.66852
      vertex -2.6 0 3
      vertex -3.56738 0 1.66852
    endloop
  endfacet
  facet normal -0.809017 0 0.587785
    outer loop
      vertex -2.6 0 3
      vertex -3.56738 -4 1.66852
      vertex -2.6 -4 3
    endloop
  endfacet
  facet normal -0.809017 0 -0.587785
    outer loop
      vertex 111.4 -4 3
      vertex 110.433 0 4.33148
      vertex 111.4 0 3
    endloop
  endfacet
  facet normal -0.809017 -0 -0.587785
    outer loop
      vertex 110.433 0 4.33148
      vertex 111.4 -4 3
      vertex 110.433 -4 4.33148
    endloop
  endfacet
  facet normal 0.309017 0 -0.951056
    outer loop
      vertex 108.867 -4 3.8229
      vertex 110.433 0 4.33148
      vertex 110.433 -4 4.33148
    endloop
  endfacet
  facet normal 0.309017 0 -0.951056
    outer loop
      vertex 110.433 0 4.33148
      vertex 108.867 -4 3.8229
      vertex 108.867 0 3.8229
    endloop
  endfacet
  facet normal 1 -0 0
    outer loop
      vertex 108.867 -4 3.8229
      vertex 108.867 0 2.1771
      vertex 108.867 0 3.8229
    endloop
  endfacet
  facet normal 1 0 0
    outer loop
      vertex 108.867 0 2.1771
      vertex 108.867 -4 3.8229
      vertex 108.867 -4 2.1771
    endloop
  endfacet
  facet normal 0.309017 0 0.951056
    outer loop
      vertex 108.867 0 2.1771
      vertex 110.433 -4 1.66852
      vertex 110.433 0 1.66852
    endloop
  endfacet
  facet normal 0.309017 0 0.951056
    outer loop
      vertex 110.433 -4 1.66852
      vertex 108.867 0 2.1771
      vertex 108.867 -4 2.1771
    endloop
  endfacet
  facet normal -0.809017 0 0.587785
    outer loop
      vertex 110.433 -4 1.66852
      vertex 111.4 0 3
      vertex 110.433 0 1.66852
    endloop
  endfacet
  facet normal -0.809017 0 0.587785
    outer loop
      vertex 111.4 0 3
      vertex 110.433 -4 1.66852
      vertex 111.4 -4 3
    endloop
  endfacet
  facet normal 1 -0 0
    outer loop
      vertex 35 -4 4
      vertex 35 0 1
      vertex 35 0 4
    endloop
  endfacet
  facet normal 1 0 0
    outer loop
      vertex 35 0 1
      vertex 35 -3.34315 0
      vertex 35 0 0
    endloop
  endfacet
  facet normal 1 0 0
    outer loop
      vertex 35 0 1
      vertex 35 -4 4
      vertex 35 -4 0.656854
    endloop
  endfacet
  facet normal 1 0 0
    outer loop
      vertex 35 0 1
      vertex 35 -4 0.656854
      vertex 35 -3.34315 0
    endloop
  endfacet
  facet normal -1 0 0
    outer loop
      vertex 65 -3.34315 0
      vertex 65 0 1
      vertex 65 0 0
    endloop
  endfacet
  facet normal -1 0 0
    outer loop
      vertex 65 -4 0.656854
      vertex 65 0 1
      vertex 65 -3.34315 0
    endloop
  endfacet
  facet normal -1 0 0
    outer loop
      vertex 65 -4 4
      vertex 65 0 1
      vertex 65 -4 0.656854
    endloop
  endfacet
  facet normal -1 0 0
    outer loop
      vertex 65 0 1
      vertex 65 -4 4
      vertex 65 0 4
    endloop
  endfacet
  facet normal 0 -0.707107 -0.707107
    outer loop
      vertex 65 -4 0.656854
      vertex 114 -3.34315 0
      vertex 114 -4 0.656854
    endloop
  endfacet
  facet normal -0 -0.707107 -0.707107
    outer loop
      vertex 114 -3.34315 0
      vertex 65 -4 0.656854
      vertex 65 -3.34315 0
    endloop
  endfacet
  facet normal 0 -0.707107 -0.707107
    outer loop
      vertex -8 -4 0.656854
      vertex 35 -3.34315 0
      vertex 35 -4 0.656854
    endloop
  endfacet
  facet normal -0 -0.707107 -0.707107
    outer loop
      vertex 35 -3.34315 0
      vertex -8 -4 0.656854
      vertex -8 -3.34315 0
    endloop
  endfacet
endsolid OpenSCAD_Model
