solid OpenSCAD_Model
  facet normal -1 0 0
    outer loop
      vertex 0 55 0
      vertex 0 51.5 1
      vertex 0 55 1
    endloop
  endfacet
  facet normal -1 0 0
    outer loop
      vertex 0 51.5 1
      vertex 0 43 2
      vertex 0 51.5 9
    endloop
  endfacet
  facet normal -1 0 0
    outer loop
      vertex 0 55 0
      vertex 0 43 2
      vertex 0 51.5 1
    endloop
  endfacet
  facet normal -1 0 0
    outer loop
      vertex 0 55 0
      vertex 0 15 2
      vertex 0 43 2
    endloop
  endfacet
  facet normal -1 0 0
    outer loop
      vertex 0 5.5 9
      vertex 0 15 2
      vertex 0 5.5 1
    endloop
  endfacet
  facet normal -1 0 0
    outer loop
      vertex 0 0 0
      vertex 0 15 2
      vertex 0 55 0
    endloop
  endfacet
  facet normal -1 0 0
    outer loop
      vertex 0 15 2
      vertex 0 0 0
      vertex 0 5.5 1
    endloop
  endfacet
  facet normal -1 -0 0
    outer loop
      vertex 0 5.5 1
      vertex 0 0 0
      vertex 0 0 1
    endloop
  endfacet
  facet normal -1 -0 0
    outer loop
      vertex 0 51.5 9
      vertex 0 43 2
      vertex 0 43 9
    endloop
  endfacet
  facet normal -1 0 0
    outer loop
      vertex 0 15 2
      vertex 0 5.5 9
      vertex 0 15 9
    endloop
  endfacet
  facet normal 0 0 1
    outer loop
      vertex 106 55 1
      vertex 96 51.5 1
      vertex 106 51.5 1
    endloop
  endfacet
  facet normal 0 0 1
    outer loop
      vertex 96 51.5 1
      vertex 76 5.5 1
      vertex 96 5.5 1
    endloop
  endfacet
  facet normal 0 0 1
    outer loop
      vertex 10 5.5 1
      vertex 76 5.5 1
      vertex 10 51.5 1
    endloop
  endfacet
  facet normal 0 0 1
    outer loop
      vertex 96 51.5 1
      vertex 10 51.5 1
      vertex 76 5.5 1
    endloop
  endfacet
  facet normal 0 0 1
    outer loop
      vertex 106 55 1
      vertex 10 51.5 1
      vertex 96 51.5 1
    endloop
  endfacet
  facet normal -0 0 1
    outer loop
      vertex 0 55 1
      vertex 10 51.5 1
      vertex 106 55 1
    endloop
  endfacet
  facet normal 0 0 1
    outer loop
      vertex 10 51.5 1
      vertex 0 55 1
      vertex 0 51.5 1
    endloop
  endfacet
  facet normal 0 0 1
    outer loop
      vertex 76 5.5 1
      vertex 10 5.5 1
      vertex 76 0 1
    endloop
  endfacet
  facet normal 0 0 1
    outer loop
      vertex 0 0 1
      vertex 10 5.5 1
      vertex 0 5.5 1
    endloop
  endfacet
  facet normal 0 0 1
    outer loop
      vertex 10 5.5 1
      vertex 0 0 1
      vertex 76 0 1
    endloop
  endfacet
  facet normal 1 0 0
    outer loop
      vertex 106 15 9
      vertex 106 5.5 9
      vertex 106 15 2
    endloop
  endfacet
  facet normal 1 0 0
    outer loop
      vertex 106 43 2
      vertex 106 51.5 9
      vertex 106 43 9
    endloop
  endfacet
  facet normal 1 -0 0
    outer loop
      vertex 106 51.5 1
      vertex 106 55 0
      vertex 106 55 1
    endloop
  endfacet
  facet normal 1 0 0
    outer loop
      vertex 106 51.5 9
      vertex 106 43 2
      vertex 106 51.5 1
    endloop
  endfacet
  facet normal 1 0 0
    outer loop
      vertex 106 43 2
      vertex 106 55 0
      vertex 106 51.5 1
    endloop
  endfacet
  facet normal 1 0 0
    outer loop
      vertex 106 5.5 0
      vertex 106 43 2
      vertex 106 15 2
    endloop
  endfacet
  facet normal 1 0 0
    outer loop
      vertex 106 43 2
      vertex 106 5.5 0
      vertex 106 55 0
    endloop
  endfacet
  facet normal 1 0 0
    outer loop
      vertex 106 5.5 0
      vertex 106 15 2
      vertex 106 5.5 9
    endloop
  endfacet
  facet normal 0 0 -1
    outer loop
      vertex 76 0 0
      vertex 0 0 0
      vertex 76 5.5 0
    endloop
  endfacet
  facet normal 0 0 -1
    outer loop
      vertex 76 5.5 0
      vertex 106 55 0
      vertex 106 5.5 0
    endloop
  endfacet
  facet normal 0 0 -1
    outer loop
      vertex 0 55 0
      vertex 76 5.5 0
      vertex 0 0 0
    endloop
  endfacet
  facet normal 0 0 -1
    outer loop
      vertex 76 5.5 0
      vertex 0 55 0
      vertex 106 55 0
    endloop
  endfacet
  facet normal 0 -1 0
    outer loop
      vertex 0 0 0
      vertex 76 0 1
      vertex 0 0 1
    endloop
  endfacet
  facet normal 0 -1 -0
    outer loop
      vertex 76 0 1
      vertex 0 0 0
      vertex 76 0 0
    endloop
  endfacet
  facet normal 0 1 -0
    outer loop
      vertex 106 55 0
      vertex 0 55 1
      vertex 106 55 1
    endloop
  endfacet
  facet normal 0 1 0
    outer loop
      vertex 0 55 1
      vertex 106 55 0
      vertex 0 55 0
    endloop
  endfacet
  facet normal -0 0 1
    outer loop
      vertex 0 15 9
      vertex 10 5.5 9
      vertex 10 15 9
    endloop
  endfacet
  facet normal 0 0 1
    outer loop
      vertex 10 5.5 9
      vertex 0 15 9
      vertex 0 5.5 9
    endloop
  endfacet
  facet normal -0 0 1
    outer loop
      vertex 0 51.5 9
      vertex 10 43 9
      vertex 10 51.5 9
    endloop
  endfacet
  facet normal 0 0 1
    outer loop
      vertex 10 43 9
      vertex 0 51.5 9
      vertex 0 43 9
    endloop
  endfacet
  facet normal 1 0 0
    outer loop
      vertex 10 15 9
      vertex 10 5.5 9
      vertex 10 15 2
    endloop
  endfacet
  facet normal 1 0 0
    outer loop
      vertex 10 43 2
      vertex 10 51.5 9
      vertex 10 43 9
    endloop
  endfacet
  facet normal 1 0 0
    outer loop
      vertex 10 51.5 9
      vertex 10 43 2
      vertex 10 51.5 1
    endloop
  endfacet
  facet normal 1 -0 0
    outer loop
      vertex 10 15 2
      vertex 10 51.5 1
      vertex 10 43 2
    endloop
  endfacet
  facet normal 1 0 0
    outer loop
      vertex 10 15 2
      vertex 10 5.5 1
      vertex 10 51.5 1
    endloop
  endfacet
  facet normal 1 0 0
    outer loop
      vertex 10 5.5 1
      vertex 10 15 2
      vertex 10 5.5 9
    endloop
  endfacet
  facet normal 0 -1 0
    outer loop
      vertex 5.43262 5.5 7.83148
      vertex 5.5 5.5 7.78253
      vertex 5.56738 5.5 7.83148
    endloop
  endfacet
  facet normal 0 -1 0
    outer loop
      vertex 0 5.5 9
      vertex 4.56738 5.5 7.83148
      vertex 10 5.5 9
    endloop
  endfacet
  facet normal 0 -1 0
    outer loop
      vertex 0 5.5 9
      vertex 3.86738 5.5 7.3229
      vertex 4.56738 5.5 7.83148
    endloop
  endfacet
  facet normal 0 -1 0
    outer loop
      vertex 0 5.5 9
      vertex 3.6 5.5 6.5
      vertex 3.86738 5.5 7.3229
    endloop
  endfacet
  facet normal 0 -1 0
    outer loop
      vertex 0 5.5 1
      vertex 3.6 5.5 6.5
      vertex 0 5.5 9
    endloop
  endfacet
  facet normal 0 -1 0
    outer loop
      vertex 10 5.5 1
      vertex 5.43262 5.5 5.16852
      vertex 4.56738 5.5 5.16852
    endloop
  endfacet
  facet normal 0 -1 0
    outer loop
      vertex 5.43262 5.5 5.16852
      vertex 10 5.5 1
      vertex 5.56738 5.5 5.16852
    endloop
  endfacet
  facet normal 0 -1 0
    outer loop
      vertex 10 5.5 1
      vertex 4.56738 5.5 5.16852
      vertex 0 5.5 1
    endloop
  endfacet
  facet normal 0 -1 -0
    outer loop
      vertex 3.86738 5.5 5.6771
      vertex 0 5.5 1
      vertex 4.56738 5.5 5.16852
    endloop
  endfacet
  facet normal 0 -1 -0
    outer loop
      vertex 3.6 5.5 6.5
      vertex 0 5.5 1
      vertex 3.86738 5.5 5.6771
    endloop
  endfacet
  facet normal 0 -1 0
    outer loop
      vertex 5.43262 5.5 7.83148
      vertex 10 5.5 9
      vertex 4.56738 5.5 7.83148
    endloop
  endfacet
  facet normal 0 -1 0
    outer loop
      vertex 5.56738 5.5 7.83148
      vertex 10 5.5 9
      vertex 5.43262 5.5 7.83148
    endloop
  endfacet
  facet normal 0 -1 0
    outer loop
      vertex 6.43262 5.5 7.83148
      vertex 10 5.5 9
      vertex 5.56738 5.5 7.83148
    endloop
  endfacet
  facet normal 0 -1 0
    outer loop
      vertex 7.13262 5.5 7.3229
      vertex 10 5.5 9
      vertex 6.43262 5.5 7.83148
    endloop
  endfacet
  facet normal 0 -1 0
    outer loop
      vertex 7.4 5.5 6.5
      vertex 10 5.5 9
      vertex 7.13262 5.5 7.3229
    endloop
  endfacet
  facet normal 0 -1 0
    outer loop
      vertex 10 5.5 1
      vertex 7.4 5.5 6.5
      vertex 7.13262 5.5 5.6771
    endloop
  endfacet
  facet normal 0 -1 0
    outer loop
      vertex 7.4 5.5 6.5
      vertex 10 5.5 1
      vertex 10 5.5 9
    endloop
  endfacet
  facet normal 0 -1 0
    outer loop
      vertex 6.43262 5.5 5.16852
      vertex 10 5.5 1
      vertex 7.13262 5.5 5.6771
    endloop
  endfacet
  facet normal 0 -1 0
    outer loop
      vertex 5.56738 5.5 5.16852
      vertex 10 5.5 1
      vertex 6.43262 5.5 5.16852
    endloop
  endfacet
  facet normal 0 -1 -0
    outer loop
      vertex 5.5 5.5 5.21747
      vertex 5.43262 5.5 5.16852
      vertex 5.56738 5.5 5.16852
    endloop
  endfacet
  facet normal 0 1 0
    outer loop
      vertex 5.56738 51.5 7.83148
      vertex 5.5 51.5 7.78253
      vertex 5.43262 51.5 7.83148
    endloop
  endfacet
  facet normal 0 1 0
    outer loop
      vertex 5.56738 51.5 7.83148
      vertex 10 51.5 9
      vertex 6.43262 51.5 7.83148
    endloop
  endfacet
  facet normal 0 1 0
    outer loop
      vertex 10 51.5 9
      vertex 7.13262 51.5 7.3229
      vertex 6.43262 51.5 7.83148
    endloop
  endfacet
  facet normal 0 1 0
    outer loop
      vertex 10 51.5 9
      vertex 7.4 51.5 6.5
      vertex 7.13262 51.5 7.3229
    endloop
  endfacet
  facet normal 0 1 -0
    outer loop
      vertex 10 51.5 1
      vertex 7.4 51.5 6.5
      vertex 10 51.5 9
    endloop
  endfacet
  facet normal 0 1 0
    outer loop
      vertex 10 51.5 1
      vertex 5.56738 51.5 5.16852
      vertex 6.43262 51.5 5.16852
    endloop
  endfacet
  facet normal 0 1 0
    outer loop
      vertex 5.56738 51.5 5.16852
      vertex 10 51.5 1
      vertex 5.43262 51.5 5.16852
    endloop
  endfacet
  facet normal 0 1 0
    outer loop
      vertex 5.43262 51.5 5.16852
      vertex 10 51.5 1
      vertex 4.56738 51.5 5.16852
    endloop
  endfacet
  facet normal 0 1 0
    outer loop
      vertex 7.13262 51.5 5.6771
      vertex 10 51.5 1
      vertex 6.43262 51.5 5.16852
    endloop
  endfacet
  facet normal 0 1 0
    outer loop
      vertex 7.4 51.5 6.5
      vertex 10 51.5 1
      vertex 7.13262 51.5 5.6771
    endloop
  endfacet
  facet normal 0 1 0
    outer loop
      vertex 5.43262 51.5 7.83148
      vertex 10 51.5 9
      vertex 5.56738 51.5 7.83148
    endloop
  endfacet
  facet normal 0 1 0
    outer loop
      vertex 10 51.5 9
      vertex 5.43262 51.5 7.83148
      vertex 0 51.5 9
    endloop
  endfacet
  facet normal 0 1 -0
    outer loop
      vertex 4.56738 51.5 7.83148
      vertex 0 51.5 9
      vertex 5.43262 51.5 7.83148
    endloop
  endfacet
  facet normal 0 1 -0
    outer loop
      vertex 3.86738 51.5 7.3229
      vertex 0 51.5 9
      vertex 4.56738 51.5 7.83148
    endloop
  endfacet
  facet normal 0 1 -0
    outer loop
      vertex 3.6 51.5 6.5
      vertex 0 51.5 9
      vertex 3.86738 51.5 7.3229
    endloop
  endfacet
  facet normal 0 1 0
    outer loop
      vertex 0 51.5 1
      vertex 3.6 51.5 6.5
      vertex 3.86738 51.5 5.6771
    endloop
  endfacet
  facet normal 0 1 0
    outer loop
      vertex 0 51.5 1
      vertex 4.56738 51.5 5.16852
      vertex 10 51.5 1
    endloop
  endfacet
  facet normal 0 1 0
    outer loop
      vertex 3.6 51.5 6.5
      vertex 0 51.5 1
      vertex 0 51.5 9
    endloop
  endfacet
  facet normal 0 1 0
    outer loop
      vertex 4.56738 51.5 5.16852
      vertex 0 51.5 1
      vertex 3.86738 51.5 5.6771
    endloop
  endfacet
  facet normal 0 1 0
    outer loop
      vertex 5.5 51.5 5.21747
      vertex 5.56738 51.5 5.16852
      vertex 5.43262 51.5 5.16852
    endloop
  endfacet
  facet normal -1 0 0
    outer loop
      vertex 96 51.5 1
      vertex 96 43 2
      vertex 96 51.5 9
    endloop
  endfacet
  facet normal -1 0 0
    outer loop
      vertex 96 51.5 1
      vertex 96 15 2
      vertex 96 43 2
    endloop
  endfacet
  facet normal -1 0 0
    outer loop
      vertex 96 5.5 1
      vertex 96 15 2
      vertex 96 51.5 1
    endloop
  endfacet
  facet normal -1 0 0
    outer loop
      vertex 96 5.5 9
      vertex 96 15 2
      vertex 96 5.5 1
    endloop
  endfacet
  facet normal -1 0 0
    outer loop
      vertex 96 15 2
      vertex 96 5.5 9
      vertex 96 15 9
    endloop
  endfacet
  facet normal -1 -0 0
    outer loop
      vertex 96 51.5 9
      vertex 96 43 2
      vertex 96 43 9
    endloop
  endfacet
  facet normal -0 0 1
    outer loop
      vertex 96 15 9
      vertex 106 5.5 9
      vertex 106 15 9
    endloop
  endfacet
  facet normal 0 0 1
    outer loop
      vertex 106 5.5 9
      vertex 96 15 9
      vertex 96 5.5 9
    endloop
  endfacet
  facet normal -0 0 1
    outer loop
      vertex 96 51.5 9
      vertex 106 43 9
      vertex 106 51.5 9
    endloop
  endfacet
  facet normal 0 0 1
    outer loop
      vertex 106 43 9
      vertex 96 51.5 9
      vertex 96 43 9
    endloop
  endfacet
  facet normal 0 -1 0
    outer loop
      vertex 76 5.5 1
      vertex 76 5.5 0
      vertex 96 5.5 1
    endloop
  endfacet
  facet normal 0 -1 0
    outer loop
      vertex 101.433 5.5 7.83148
      vertex 101.5 5.5 7.78253
      vertex 101.567 5.5 7.83148
    endloop
  endfacet
  facet normal 0 -1 0
    outer loop
      vertex 96 5.5 9
      vertex 100.567 5.5 7.83148
      vertex 106 5.5 9
    endloop
  endfacet
  facet normal 0 -1 0
    outer loop
      vertex 96 5.5 9
      vertex 99.8674 5.5 7.3229
      vertex 100.567 5.5 7.83148
    endloop
  endfacet
  facet normal 0 -1 0
    outer loop
      vertex 96 5.5 9
      vertex 99.6 5.5 6.5
      vertex 99.8674 5.5 7.3229
    endloop
  endfacet
  facet normal 0 -1 0
    outer loop
      vertex 96 5.5 1
      vertex 99.6 5.5 6.5
      vertex 96 5.5 9
    endloop
  endfacet
  facet normal 0 -1 0
    outer loop
      vertex 106 5.5 0
      vertex 101.433 5.5 5.16852
      vertex 100.567 5.5 5.16852
    endloop
  endfacet
  facet normal 0 -1 0
    outer loop
      vertex 101.433 5.5 5.16852
      vertex 106 5.5 0
      vertex 101.567 5.5 5.16852
    endloop
  endfacet
  facet normal 0 -1 0
    outer loop
      vertex 106 5.5 0
      vertex 100.567 5.5 5.16852
      vertex 96 5.5 1
    endloop
  endfacet
  facet normal 0 -1 -0
    outer loop
      vertex 99.8674 5.5 5.6771
      vertex 96 5.5 1
      vertex 100.567 5.5 5.16852
    endloop
  endfacet
  facet normal 0 -1 -0
    outer loop
      vertex 99.6 5.5 6.5
      vertex 96 5.5 1
      vertex 99.8674 5.5 5.6771
    endloop
  endfacet
  facet normal 0 -1 0
    outer loop
      vertex 101.433 5.5 7.83148
      vertex 106 5.5 9
      vertex 100.567 5.5 7.83148
    endloop
  endfacet
  facet normal 0 -1 0
    outer loop
      vertex 101.567 5.5 7.83148
      vertex 106 5.5 9
      vertex 101.433 5.5 7.83148
    endloop
  endfacet
  facet normal 0 -1 0
    outer loop
      vertex 102.433 5.5 7.83148
      vertex 106 5.5 9
      vertex 101.567 5.5 7.83148
    endloop
  endfacet
  facet normal 0 -1 0
    outer loop
      vertex 103.133 5.5 7.3229
      vertex 106 5.5 9
      vertex 102.433 5.5 7.83148
    endloop
  endfacet
  facet normal 0 -1 0
    outer loop
      vertex 103.4 5.5 6.5
      vertex 106 5.5 9
      vertex 103.133 5.5 7.3229
    endloop
  endfacet
  facet normal 0 -1 0
    outer loop
      vertex 103.133 5.5 5.6771
      vertex 106 5.5 9
      vertex 103.4 5.5 6.5
    endloop
  endfacet
  facet normal 0 -1 0
    outer loop
      vertex 103.133 5.5 5.6771
      vertex 106 5.5 0
      vertex 106 5.5 9
    endloop
  endfacet
  facet normal 0 -1 0
    outer loop
      vertex 102.433 5.5 5.16852
      vertex 106 5.5 0
      vertex 103.133 5.5 5.6771
    endloop
  endfacet
  facet normal 0 -1 0
    outer loop
      vertex 101.567 5.5 5.16852
      vertex 106 5.5 0
      vertex 102.433 5.5 5.16852
    endloop
  endfacet
  facet normal 0 -1 0
    outer loop
      vertex 106 5.5 0
      vertex 96 5.5 1
      vertex 76 5.5 0
    endloop
  endfacet
  facet normal 0 -1 -0
    outer loop
      vertex 101.5 5.5 5.21747
      vertex 101.433 5.5 5.16852
      vertex 101.567 5.5 5.16852
    endloop
  endfacet
  facet normal 0 1 0
    outer loop
      vertex 101.567 51.5 7.83148
      vertex 101.5 51.5 7.78253
      vertex 101.433 51.5 7.83148
    endloop
  endfacet
  facet normal 0 1 0
    outer loop
      vertex 101.567 51.5 7.83148
      vertex 106 51.5 9
      vertex 102.433 51.5 7.83148
    endloop
  endfacet
  facet normal 0 1 0
    outer loop
      vertex 106 51.5 9
      vertex 103.133 51.5 7.3229
      vertex 102.433 51.5 7.83148
    endloop
  endfacet
  facet normal 0 1 0
    outer loop
      vertex 106 51.5 9
      vertex 103.4 51.5 6.5
      vertex 103.133 51.5 7.3229
    endloop
  endfacet
  facet normal 0 1 -0
    outer loop
      vertex 106 51.5 1
      vertex 103.4 51.5 6.5
      vertex 106 51.5 9
    endloop
  endfacet
  facet normal 0 1 0
    outer loop
      vertex 106 51.5 1
      vertex 101.567 51.5 5.16852
      vertex 102.433 51.5 5.16852
    endloop
  endfacet
  facet normal 0 1 0
    outer loop
      vertex 101.567 51.5 5.16852
      vertex 106 51.5 1
      vertex 101.433 51.5 5.16852
    endloop
  endfacet
  facet normal 0 1 0
    outer loop
      vertex 101.433 51.5 5.16852
      vertex 106 51.5 1
      vertex 100.567 51.5 5.16852
    endloop
  endfacet
  facet normal 0 1 0
    outer loop
      vertex 103.133 51.5 5.6771
      vertex 106 51.5 1
      vertex 102.433 51.5 5.16852
    endloop
  endfacet
  facet normal 0 1 0
    outer loop
      vertex 103.4 51.5 6.5
      vertex 106 51.5 1
      vertex 103.133 51.5 5.6771
    endloop
  endfacet
  facet normal 0 1 0
    outer loop
      vertex 101.433 51.5 7.83148
      vertex 106 51.5 9
      vertex 101.567 51.5 7.83148
    endloop
  endfacet
  facet normal 0 1 0
    outer loop
      vertex 106 51.5 9
      vertex 101.433 51.5 7.83148
      vertex 96 51.5 9
    endloop
  endfacet
  facet normal 0 1 -0
    outer loop
      vertex 100.567 51.5 7.83148
      vertex 96 51.5 9
      vertex 101.433 51.5 7.83148
    endloop
  endfacet
  facet normal 0 1 -0
    outer loop
      vertex 99.8674 51.5 7.3229
      vertex 96 51.5 9
      vertex 100.567 51.5 7.83148
    endloop
  endfacet
  facet normal 0 1 -0
    outer loop
      vertex 99.6 51.5 6.5
      vertex 96 51.5 9
      vertex 99.8674 51.5 7.3229
    endloop
  endfacet
  facet normal 0 1 0
    outer loop
      vertex 96 51.5 1
      vertex 99.6 51.5 6.5
      vertex 99.8674 51.5 5.6771
    endloop
  endfacet
  facet normal 0 1 0
    outer loop
      vertex 96 51.5 1
      vertex 100.567 51.5 5.16852
      vertex 106 51.5 1
    endloop
  endfacet
  facet normal 0 1 0
    outer loop
      vertex 99.6 51.5 6.5
      vertex 96 51.5 1
      vertex 96 51.5 9
    endloop
  endfacet
  facet normal 0 1 0
    outer loop
      vertex 100.567 51.5 5.16852
      vertex 96 51.5 1
      vertex 99.8674 51.5 5.6771
    endloop
  endfacet
  facet normal 0 1 0
    outer loop
      vertex 101.5 51.5 5.21747
      vertex 101.567 51.5 5.16852
      vertex 101.433 51.5 5.16852
    endloop
  endfacet
  facet normal 1 -0 0
    outer loop
      vertex 76 0 1
      vertex 76 5.5 0
      vertex 76 5.5 1
    endloop
  endfacet
  facet normal 1 0 0
    outer loop
      vertex 76 5.5 0
      vertex 76 0 1
      vertex 76 0 0
    endloop
  endfacet
  facet normal -0 0 1
    outer loop
      vertex 0 43 2
      vertex 10 15 2
      vertex 10 43 2
    endloop
  endfacet
  facet normal 0 0 1
    outer loop
      vertex 10 15 2
      vertex 0 43 2
      vertex 0 15 2
    endloop
  endfacet
  facet normal -0 0 1
    outer loop
      vertex 96 43 2
      vertex 106 15 2
      vertex 106 43 2
    endloop
  endfacet
  facet normal 0 0 1
    outer loop
      vertex 106 15 2
      vertex 96 43 2
      vertex 96 15 2
    endloop
  endfacet
  facet normal 0 1 0
    outer loop
      vertex 5.56738 15 7.83148
      vertex 5.5 15 7.78253
      vertex 5.43262 15 7.83148
    endloop
  endfacet
  facet normal 0 1 0
    outer loop
      vertex 5.56738 15 7.83148
      vertex 10 15 9
      vertex 6.43262 15 7.83148
    endloop
  endfacet
  facet normal 0 1 0
    outer loop
      vertex 10 15 9
      vertex 7.13262 15 7.3229
      vertex 6.43262 15 7.83148
    endloop
  endfacet
  facet normal 0 1 0
    outer loop
      vertex 10 15 9
      vertex 7.4 15 6.5
      vertex 7.13262 15 7.3229
    endloop
  endfacet
  facet normal 0 1 -0
    outer loop
      vertex 10 15 2
      vertex 7.4 15 6.5
      vertex 10 15 9
    endloop
  endfacet
  facet normal 0 1 0
    outer loop
      vertex 10 15 2
      vertex 5.56738 15 5.16852
      vertex 6.43262 15 5.16852
    endloop
  endfacet
  facet normal 0 1 0
    outer loop
      vertex 5.56738 15 5.16852
      vertex 10 15 2
      vertex 5.43262 15 5.16852
    endloop
  endfacet
  facet normal 0 1 0
    outer loop
      vertex 5.43262 15 5.16852
      vertex 10 15 2
      vertex 4.56738 15 5.16852
    endloop
  endfacet
  facet normal 0 1 0
    outer loop
      vertex 7.13262 15 5.6771
      vertex 10 15 2
      vertex 6.43262 15 5.16852
    endloop
  endfacet
  facet normal 0 1 0
    outer loop
      vertex 7.4 15 6.5
      vertex 10 15 2
      vertex 7.13262 15 5.6771
    endloop
  endfacet
  facet normal 0 1 0
    outer loop
      vertex 5.43262 15 7.83148
      vertex 10 15 9
      vertex 5.56738 15 7.83148
    endloop
  endfacet
  facet normal 0 1 0
    outer loop
      vertex 10 15 9
      vertex 5.43262 15 7.83148
      vertex 0 15 9
    endloop
  endfacet
  facet normal 0 1 -0
    outer loop
      vertex 4.56738 15 7.83148
      vertex 0 15 9
      vertex 5.43262 15 7.83148
    endloop
  endfacet
  facet normal 0 1 -0
    outer loop
      vertex 3.86738 15 7.3229
      vertex 0 15 9
      vertex 4.56738 15 7.83148
    endloop
  endfacet
  facet normal 0 1 -0
    outer loop
      vertex 3.6 15 6.5
      vertex 0 15 9
      vertex 3.86738 15 7.3229
    endloop
  endfacet
  facet normal 0 1 0
    outer loop
      vertex 0 15 2
      vertex 3.6 15 6.5
      vertex 3.86738 15 5.6771
    endloop
  endfacet
  facet normal 0 1 0
    outer loop
      vertex 3.6 15 6.5
      vertex 0 15 2
      vertex 0 15 9
    endloop
  endfacet
  facet normal 0 1 0
    outer loop
      vertex 4.56738 15 5.16852
      vertex 0 15 2
      vertex 3.86738 15 5.6771
    endloop
  endfacet
  facet normal 0 1 0
    outer loop
      vertex 0 15 2
      vertex 4.56738 15 5.16852
      vertex 10 15 2
    endloop
  endfacet
  facet normal 0 1 0
    outer loop
      vertex 5.5 15 5.21747
      vertex 5.56738 15 5.16852
      vertex 5.43262 15 5.16852
    endloop
  endfacet
  facet normal 0 1 0
    outer loop
      vertex 101.567 15 7.83148
      vertex 101.5 15 7.78253
      vertex 101.433 15 7.83148
    endloop
  endfacet
  facet normal 0 1 0
    outer loop
      vertex 101.567 15 7.83148
      vertex 106 15 9
      vertex 102.433 15 7.83148
    endloop
  endfacet
  facet normal 0 1 0
    outer loop
      vertex 106 15 9
      vertex 103.133 15 7.3229
      vertex 102.433 15 7.83148
    endloop
  endfacet
  facet normal 0 1 0
    outer loop
      vertex 106 15 9
      vertex 103.4 15 6.5
      vertex 103.133 15 7.3229
    endloop
  endfacet
  facet normal 0 1 -0
    outer loop
      vertex 106 15 2
      vertex 103.4 15 6.5
      vertex 106 15 9
    endloop
  endfacet
  facet normal 0 1 0
    outer loop
      vertex 106 15 2
      vertex 101.567 15 5.16852
      vertex 102.433 15 5.16852
    endloop
  endfacet
  facet normal 0 1 0
    outer loop
      vertex 101.567 15 5.16852
      vertex 106 15 2
      vertex 101.433 15 5.16852
    endloop
  endfacet
  facet normal 0 1 0
    outer loop
      vertex 101.433 15 5.16852
      vertex 106 15 2
      vertex 100.567 15 5.16852
    endloop
  endfacet
  facet normal 0 1 0
    outer loop
      vertex 103.133 15 5.6771
      vertex 106 15 2
      vertex 102.433 15 5.16852
    endloop
  endfacet
  facet normal 0 1 0
    outer loop
      vertex 103.4 15 6.5
      vertex 106 15 2
      vertex 103.133 15 5.6771
    endloop
  endfacet
  facet normal 0 1 0
    outer loop
      vertex 101.433 15 7.83148
      vertex 106 15 9
      vertex 101.567 15 7.83148
    endloop
  endfacet
  facet normal 0 1 0
    outer loop
      vertex 106 15 9
      vertex 101.433 15 7.83148
      vertex 96 15 9
    endloop
  endfacet
  facet normal 0 1 -0
    outer loop
      vertex 100.567 15 7.83148
      vertex 96 15 9
      vertex 101.433 15 7.83148
    endloop
  endfacet
  facet normal 0 1 -0
    outer loop
      vertex 99.8674 15 7.3229
      vertex 96 15 9
      vertex 100.567 15 7.83148
    endloop
  endfacet
  facet normal 0 1 -0
    outer loop
      vertex 99.6 15 6.5
      vertex 96 15 9
      vertex 99.8674 15 7.3229
    endloop
  endfacet
  facet normal 0 1 0
    outer loop
      vertex 96 15 2
      vertex 99.6 15 6.5
      vertex 99.8674 15 5.6771
    endloop
  endfacet
  facet normal 0 1 0
    outer loop
      vertex 99.6 15 6.5
      vertex 96 15 2
      vertex 96 15 9
    endloop
  endfacet
  facet normal 0 1 0
    outer loop
      vertex 100.567 15 5.16852
      vertex 96 15 2
      vertex 99.8674 15 5.6771
    endloop
  endfacet
  facet normal 0 1 0
    outer loop
      vertex 96 15 2
      vertex 100.567 15 5.16852
      vertex 106 15 2
    endloop
  endfacet
  facet normal 0 1 0
    outer loop
      vertex 101.5 15 5.21747
      vertex 101.567 15 5.16852
      vertex 101.433 15 5.16852
    endloop
  endfacet
  facet normal 0 -1 0
    outer loop
      vertex 5.43262 43 7.83148
      vertex 5.5 43 7.78253
      vertex 5.56738 43 7.83148
    endloop
  endfacet
  facet normal 0 -1 0
    outer loop
      vertex 0 43 9
      vertex 4.56738 43 7.83148
      vertex 10 43 9
    endloop
  endfacet
  facet normal 0 -1 0
    outer loop
      vertex 0 43 9
      vertex 3.86738 43 7.3229
      vertex 4.56738 43 7.83148
    endloop
  endfacet
  facet normal 0 -1 0
    outer loop
      vertex 0 43 9
      vertex 3.6 43 6.5
      vertex 3.86738 43 7.3229
    endloop
  endfacet
  facet normal 0 -1 0
    outer loop
      vertex 0 43 2
      vertex 3.6 43 6.5
      vertex 0 43 9
    endloop
  endfacet
  facet normal 0 -1 0
    outer loop
      vertex 10 43 2
      vertex 5.43262 43 5.16852
      vertex 4.56738 43 5.16852
    endloop
  endfacet
  facet normal 0 -1 0
    outer loop
      vertex 5.43262 43 5.16852
      vertex 10 43 2
      vertex 5.56738 43 5.16852
    endloop
  endfacet
  facet normal 0 -1 0
    outer loop
      vertex 10 43 2
      vertex 4.56738 43 5.16852
      vertex 0 43 2
    endloop
  endfacet
  facet normal 0 -1 -0
    outer loop
      vertex 3.86738 43 5.6771
      vertex 0 43 2
      vertex 4.56738 43 5.16852
    endloop
  endfacet
  facet normal 0 -1 -0
    outer loop
      vertex 3.6 43 6.5
      vertex 0 43 2
      vertex 3.86738 43 5.6771
    endloop
  endfacet
  facet normal 0 -1 0
    outer loop
      vertex 5.43262 43 7.83148
      vertex 10 43 9
      vertex 4.56738 43 7.83148
    endloop
  endfacet
  facet normal 0 -1 0
    outer loop
      vertex 5.56738 43 7.83148
      vertex 10 43 9
      vertex 5.43262 43 7.83148
    endloop
  endfacet
  facet normal 0 -1 0
    outer loop
      vertex 6.43262 43 7.83148
      vertex 10 43 9
      vertex 5.56738 43 7.83148
    endloop
  endfacet
  facet normal 0 -1 0
    outer loop
      vertex 7.13262 43 7.3229
      vertex 10 43 9
      vertex 6.43262 43 7.83148
    endloop
  endfacet
  facet normal 0 -1 0
    outer loop
      vertex 7.4 43 6.5
      vertex 10 43 9
      vertex 7.13262 43 7.3229
    endloop
  endfacet
  facet normal 0 -1 0
    outer loop
      vertex 10 43 2
      vertex 7.4 43 6.5
      vertex 7.13262 43 5.6771
    endloop
  endfacet
  facet normal 0 -1 0
    outer loop
      vertex 7.4 43 6.5
      vertex 10 43 2
      vertex 10 43 9
    endloop
  endfacet
  facet normal 0 -1 0
    outer loop
      vertex 6.43262 43 5.16852
      vertex 10 43 2
      vertex 7.13262 43 5.6771
    endloop
  endfacet
  facet normal 0 -1 0
    outer loop
      vertex 5.56738 43 5.16852
      vertex 10 43 2
      vertex 6.43262 43 5.16852
    endloop
  endfacet
  facet normal 0 -1 -0
    outer loop
      vertex 5.5 43 5.21747
      vertex 5.43262 43 5.16852
      vertex 5.56738 43 5.16852
    endloop
  endfacet
  facet normal 0 -1 0
    outer loop
      vertex 101.433 43 7.83148
      vertex 101.5 43 7.78253
      vertex 101.567 43 7.83148
    endloop
  endfacet
  facet normal 0 -1 0
    outer loop
      vertex 96 43 9
      vertex 100.567 43 7.83148
      vertex 106 43 9
    endloop
  endfacet
  facet normal 0 -1 0
    outer loop
      vertex 96 43 9
      vertex 99.8674 43 7.3229
      vertex 100.567 43 7.83148
    endloop
  endfacet
  facet normal 0 -1 0
    outer loop
      vertex 96 43 9
      vertex 99.6 43 6.5
      vertex 99.8674 43 7.3229
    endloop
  endfacet
  facet normal 0 -1 0
    outer loop
      vertex 96 43 2
      vertex 99.6 43 6.5
      vertex 96 43 9
    endloop
  endfacet
  facet normal 0 -1 0
    outer loop
      vertex 106 43 2
      vertex 101.433 43 5.16852
      vertex 100.567 43 5.16852
    endloop
  endfacet
  facet normal 0 -1 0
    outer loop
      vertex 101.433 43 5.16852
      vertex 106 43 2
      vertex 101.567 43 5.16852
    endloop
  endfacet
  facet normal 0 -1 0
    outer loop
      vertex 106 43 2
      vertex 100.567 43 5.16852
      vertex 96 43 2
    endloop
  endfacet
  facet normal 0 -1 -0
    outer loop
      vertex 99.8674 43 5.6771
      vertex 96 43 2
      vertex 100.567 43 5.16852
    endloop
  endfacet
  facet normal 0 -1 -0
    outer loop
      vertex 99.6 43 6.5
      vertex 96 43 2
      vertex 99.8674 43 5.6771
    endloop
  endfacet
  facet normal 0 -1 0
    outer loop
      vertex 101.433 43 7.83148
      vertex 106 43 9
      vertex 100.567 43 7.83148
    endloop
  endfacet
  facet normal 0 -1 0
    outer loop
      vertex 101.567 43 7.83148
      vertex 106 43 9
      vertex 101.433 43 7.83148
    endloop
  endfacet
  facet normal 0 -1 0
    outer loop
      vertex 102.433 43 7.83148
      vertex 106 43 9
      vertex 101.567 43 7.83148
    endloop
  endfacet
  facet normal 0 -1 0
    outer loop
      vertex 103.133 43 7.3229
      vertex 106 43 9
      vertex 102.433 43 7.83148
    endloop
  endfacet
  facet normal 0 -1 0
    outer loop
      vertex 103.4 43 6.5
      vertex 106 43 9
      vertex 103.133 43 7.3229
    endloop
  endfacet
  facet normal 0 -1 0
    outer loop
      vertex 106 43 2
      vertex 103.4 43 6.5
      vertex 103.133 43 5.6771
    endloop
  endfacet
  facet normal 0 -1 0
    outer loop
      vertex 103.4 43 6.5
      vertex 106 43 2
      vertex 106 43 9
    endloop
  endfacet
  facet normal 0 -1 0
    outer loop
      vertex 102.433 43 5.16852
      vertex 106 43 2
      vertex 103.133 43 5.6771
    endloop
  endfacet
  facet normal 0 -1 0
    outer loop
      vertex 101.567 43 5.16852
      vertex 106 43 2
      vertex 102.433 43 5.16852
    endloop
  endfacet
  facet normal 0 -1 -0
    outer loop
      vertex 101.5 43 5.21747
      vertex 101.433 43 5.16852
      vertex 101.567 43 5.16852
    endloop
  endfacet
  facet normal -0.587786 0 -0.809016
    outer loop
      vertex 5.43262 5.5 7.83148
      vertex 5.5 15 7.78253
      vertex 5.5 5.5 7.78253
    endloop
  endfacet
  facet normal -0.587786 0 -0.809016
    outer loop
      vertex 5.5 15 7.78253
      vertex 5.43262 5.5 7.83148
      vertex 5.43262 15 7.83148
    endloop
  endfacet
  facet normal -0.587786 0 -0.809016
    outer loop
      vertex 5.43262 43 7.83148
      vertex 5.5 51.5 7.78253
      vertex 5.5 43 7.78253
    endloop
  endfacet
  facet normal -0.587786 0 -0.809016
    outer loop
      vertex 5.5 51.5 7.78253
      vertex 5.43262 43 7.83148
      vertex 5.43262 51.5 7.83148
    endloop
  endfacet
  facet normal 0 0 -1
    outer loop
      vertex 4.56738 5.5 7.83148
      vertex 5.43262 15 7.83148
      vertex 5.43262 5.5 7.83148
    endloop
  endfacet
  facet normal -0 0 -1
    outer loop
      vertex 5.43262 15 7.83148
      vertex 4.56738 5.5 7.83148
      vertex 4.56738 15 7.83148
    endloop
  endfacet
  facet normal 0 0 -1
    outer loop
      vertex 4.56738 43 7.83148
      vertex 5.43262 51.5 7.83148
      vertex 5.43262 43 7.83148
    endloop
  endfacet
  facet normal -0 0 -1
    outer loop
      vertex 5.43262 51.5 7.83148
      vertex 4.56738 43 7.83148
      vertex 4.56738 51.5 7.83148
    endloop
  endfacet
  facet normal 0.587785 0 0.809017
    outer loop
      vertex 3.86738 15 5.6771
      vertex 4.56738 5.5 5.16852
      vertex 4.56738 15 5.16852
    endloop
  endfacet
  facet normal 0.587785 0 0.809017
    outer loop
      vertex 4.56738 5.5 5.16852
      vertex 3.86738 15 5.6771
      vertex 3.86738 5.5 5.6771
    endloop
  endfacet
  facet normal 0.587785 0 0.809017
    outer loop
      vertex 3.86738 51.5 5.6771
      vertex 4.56738 43 5.16852
      vertex 4.56738 51.5 5.16852
    endloop
  endfacet
  facet normal 0.587785 0 0.809017
    outer loop
      vertex 4.56738 43 5.16852
      vertex 3.86738 51.5 5.6771
      vertex 3.86738 43 5.6771
    endloop
  endfacet
  facet normal 0.587785 0 -0.809017
    outer loop
      vertex 3.86738 5.5 7.3229
      vertex 4.56738 15 7.83148
      vertex 4.56738 5.5 7.83148
    endloop
  endfacet
  facet normal 0.587785 0 -0.809017
    outer loop
      vertex 4.56738 15 7.83148
      vertex 3.86738 5.5 7.3229
      vertex 3.86738 15 7.3229
    endloop
  endfacet
  facet normal 0.587785 0 -0.809017
    outer loop
      vertex 3.86738 43 7.3229
      vertex 4.56738 51.5 7.83148
      vertex 4.56738 43 7.83148
    endloop
  endfacet
  facet normal 0.587785 0 -0.809017
    outer loop
      vertex 4.56738 51.5 7.83148
      vertex 3.86738 43 7.3229
      vertex 3.86738 51.5 7.3229
    endloop
  endfacet
  facet normal -0.587786 0 0.809016
    outer loop
      vertex 5.43262 15 5.16852
      vertex 5.5 5.5 5.21747
      vertex 5.5 15 5.21747
    endloop
  endfacet
  facet normal -0.587786 0 0.809016
    outer loop
      vertex 5.5 5.5 5.21747
      vertex 5.43262 15 5.16852
      vertex 5.43262 5.5 5.16852
    endloop
  endfacet
  facet normal -0.587786 0 0.809016
    outer loop
      vertex 5.43262 51.5 5.16852
      vertex 5.5 43 5.21747
      vertex 5.5 51.5 5.21747
    endloop
  endfacet
  facet normal -0.587786 0 0.809016
    outer loop
      vertex 5.5 43 5.21747
      vertex 5.43262 51.5 5.16852
      vertex 5.43262 43 5.16852
    endloop
  endfacet
  facet normal -0 0 1
    outer loop
      vertex 4.56738 15 5.16852
      vertex 5.43262 5.5 5.16852
      vertex 5.43262 15 5.16852
    endloop
  endfacet
  facet normal 0 0 1
    outer loop
      vertex 5.43262 5.5 5.16852
      vertex 4.56738 15 5.16852
      vertex 4.56738 5.5 5.16852
    endloop
  endfacet
  facet normal -0 0 1
    outer loop
      vertex 4.56738 51.5 5.16852
      vertex 5.43262 43 5.16852
      vertex 5.43262 51.5 5.16852
    endloop
  endfacet
  facet normal 0 0 1
    outer loop
      vertex 5.43262 43 5.16852
      vertex 4.56738 51.5 5.16852
      vertex 4.56738 43 5.16852
    endloop
  endfacet
  facet normal 0.951057 0 -0.309017
    outer loop
      vertex 3.86738 5.5 7.3229
      vertex 3.6 15 6.5
      vertex 3.86738 15 7.3229
    endloop
  endfacet
  facet normal 0.951057 0 -0.309017
    outer loop
      vertex 3.6 15 6.5
      vertex 3.86738 5.5 7.3229
      vertex 3.6 5.5 6.5
    endloop
  endfacet
  facet normal 0.951057 0 -0.309017
    outer loop
      vertex 3.86738 43 7.3229
      vertex 3.6 51.5 6.5
      vertex 3.86738 51.5 7.3229
    endloop
  endfacet
  facet normal 0.951057 0 -0.309017
    outer loop
      vertex 3.6 51.5 6.5
      vertex 3.86738 43 7.3229
      vertex 3.6 43 6.5
    endloop
  endfacet
  facet normal 0.951057 -0 0.309017
    outer loop
      vertex 3.6 5.5 6.5
      vertex 3.86738 15 5.6771
      vertex 3.6 15 6.5
    endloop
  endfacet
  facet normal 0.951057 0 0.309017
    outer loop
      vertex 3.86738 15 5.6771
      vertex 3.6 5.5 6.5
      vertex 3.86738 5.5 5.6771
    endloop
  endfacet
  facet normal 0.951057 -0 0.309017
    outer loop
      vertex 3.6 43 6.5
      vertex 3.86738 51.5 5.6771
      vertex 3.6 51.5 6.5
    endloop
  endfacet
  facet normal 0.951057 0 0.309017
    outer loop
      vertex 3.86738 51.5 5.6771
      vertex 3.6 43 6.5
      vertex 3.86738 43 5.6771
    endloop
  endfacet
  facet normal -0.951057 0 -0.309017
    outer loop
      vertex 7.4 5.5 6.5
      vertex 7.13262 15 7.3229
      vertex 7.4 15 6.5
    endloop
  endfacet
  facet normal -0.951057 -0 -0.309017
    outer loop
      vertex 7.13262 15 7.3229
      vertex 7.4 5.5 6.5
      vertex 7.13262 5.5 7.3229
    endloop
  endfacet
  facet normal -0.951057 0 -0.309017
    outer loop
      vertex 7.4 43 6.5
      vertex 7.13262 51.5 7.3229
      vertex 7.4 51.5 6.5
    endloop
  endfacet
  facet normal -0.951057 -0 -0.309017
    outer loop
      vertex 7.13262 51.5 7.3229
      vertex 7.4 43 6.5
      vertex 7.13262 43 7.3229
    endloop
  endfacet
  facet normal -0.587785 0 -0.809017
    outer loop
      vertex 6.43262 5.5 7.83148
      vertex 7.13262 15 7.3229
      vertex 7.13262 5.5 7.3229
    endloop
  endfacet
  facet normal -0.587785 0 -0.809017
    outer loop
      vertex 7.13262 15 7.3229
      vertex 6.43262 5.5 7.83148
      vertex 6.43262 15 7.83148
    endloop
  endfacet
  facet normal -0.587785 0 -0.809017
    outer loop
      vertex 6.43262 43 7.83148
      vertex 7.13262 51.5 7.3229
      vertex 7.13262 43 7.3229
    endloop
  endfacet
  facet normal -0.587785 0 -0.809017
    outer loop
      vertex 7.13262 51.5 7.3229
      vertex 6.43262 43 7.83148
      vertex 6.43262 51.5 7.83148
    endloop
  endfacet
  facet normal 0 0 -1
    outer loop
      vertex 5.56738 5.5 7.83148
      vertex 6.43262 15 7.83148
      vertex 6.43262 5.5 7.83148
    endloop
  endfacet
  facet normal -0 0 -1
    outer loop
      vertex 6.43262 15 7.83148
      vertex 5.56738 5.5 7.83148
      vertex 5.56738 15 7.83148
    endloop
  endfacet
  facet normal 0 0 -1
    outer loop
      vertex 5.56738 43 7.83148
      vertex 6.43262 51.5 7.83148
      vertex 6.43262 43 7.83148
    endloop
  endfacet
  facet normal -0 0 -1
    outer loop
      vertex 6.43262 51.5 7.83148
      vertex 5.56738 43 7.83148
      vertex 5.56738 51.5 7.83148
    endloop
  endfacet
  facet normal 0.587786 0 0.809016
    outer loop
      vertex 5.5 15 5.21747
      vertex 5.56738 5.5 5.16852
      vertex 5.56738 15 5.16852
    endloop
  endfacet
  facet normal 0.587786 0 0.809016
    outer loop
      vertex 5.56738 5.5 5.16852
      vertex 5.5 15 5.21747
      vertex 5.5 5.5 5.21747
    endloop
  endfacet
  facet normal 0.587786 0 0.809016
    outer loop
      vertex 5.5 51.5 5.21747
      vertex 5.56738 43 5.16852
      vertex 5.56738 51.5 5.16852
    endloop
  endfacet
  facet normal 0.587786 0 0.809016
    outer loop
      vertex 5.56738 43 5.16852
      vertex 5.5 51.5 5.21747
      vertex 5.5 43 5.21747
    endloop
  endfacet
  facet normal 0.587786 0 -0.809016
    outer loop
      vertex 5.5 5.5 7.78253
      vertex 5.56738 15 7.83148
      vertex 5.56738 5.5 7.83148
    endloop
  endfacet
  facet normal 0.587786 0 -0.809016
    outer loop
      vertex 5.56738 15 7.83148
      vertex 5.5 5.5 7.78253
      vertex 5.5 15 7.78253
    endloop
  endfacet
  facet normal 0.587786 0 -0.809016
    outer loop
      vertex 5.5 43 7.78253
      vertex 5.56738 51.5 7.83148
      vertex 5.56738 43 7.83148
    endloop
  endfacet
  facet normal 0.587786 0 -0.809016
    outer loop
      vertex 5.56738 51.5 7.83148
      vertex 5.5 43 7.78253
      vertex 5.5 51.5 7.78253
    endloop
  endfacet
  facet normal -0.587785 0 0.809017
    outer loop
      vertex 6.43262 15 5.16852
      vertex 7.13262 5.5 5.6771
      vertex 7.13262 15 5.6771
    endloop
  endfacet
  facet normal -0.587785 0 0.809017
    outer loop
      vertex 7.13262 5.5 5.6771
      vertex 6.43262 15 5.16852
      vertex 6.43262 5.5 5.16852
    endloop
  endfacet
  facet normal -0.587785 0 0.809017
    outer loop
      vertex 6.43262 51.5 5.16852
      vertex 7.13262 43 5.6771
      vertex 7.13262 51.5 5.6771
    endloop
  endfacet
  facet normal -0.587785 0 0.809017
    outer loop
      vertex 7.13262 43 5.6771
      vertex 6.43262 51.5 5.16852
      vertex 6.43262 43 5.16852
    endloop
  endfacet
  facet normal -0.951057 0 0.309017
    outer loop
      vertex 7.13262 5.5 5.6771
      vertex 7.4 15 6.5
      vertex 7.13262 15 5.6771
    endloop
  endfacet
  facet normal -0.951057 0 0.309017
    outer loop
      vertex 7.4 15 6.5
      vertex 7.13262 5.5 5.6771
      vertex 7.4 5.5 6.5
    endloop
  endfacet
  facet normal -0.951057 0 0.309017
    outer loop
      vertex 7.13262 43 5.6771
      vertex 7.4 51.5 6.5
      vertex 7.13262 51.5 5.6771
    endloop
  endfacet
  facet normal -0.951057 0 0.309017
    outer loop
      vertex 7.4 51.5 6.5
      vertex 7.13262 43 5.6771
      vertex 7.4 43 6.5
    endloop
  endfacet
  facet normal -0 0 1
    outer loop
      vertex 5.56738 15 5.16852
      vertex 6.43262 5.5 5.16852
      vertex 6.43262 15 5.16852
    endloop
  endfacet
  facet normal 0 0 1
    outer loop
      vertex 6.43262 5.5 5.16852
      vertex 5.56738 15 5.16852
      vertex 5.56738 5.5 5.16852
    endloop
  endfacet
  facet normal -0 0 1
    outer loop
      vertex 5.56738 51.5 5.16852
      vertex 6.43262 43 5.16852
      vertex 6.43262 51.5 5.16852
    endloop
  endfacet
  facet normal 0 0 1
    outer loop
      vertex 6.43262 43 5.16852
      vertex 5.56738 51.5 5.16852
      vertex 5.56738 43 5.16852
    endloop
  endfacet
  facet normal -0.951055 0 -0.309021
    outer loop
      vertex 103.4 5.5 6.5
      vertex 103.133 15 7.3229
      vertex 103.4 15 6.5
    endloop
  endfacet
  facet normal -0.951055 -0 -0.309021
    outer loop
      vertex 103.133 15 7.3229
      vertex 103.4 5.5 6.5
      vertex 103.133 5.5 7.3229
    endloop
  endfacet
  facet normal -0.951055 0 -0.309021
    outer loop
      vertex 103.4 43 6.5
      vertex 103.133 51.5 7.3229
      vertex 103.4 51.5 6.5
    endloop
  endfacet
  facet normal -0.951055 -0 -0.309021
    outer loop
      vertex 103.133 51.5 7.3229
      vertex 103.4 43 6.5
      vertex 103.133 43 7.3229
    endloop
  endfacet
  facet normal -0.587787 0 -0.809016
    outer loop
      vertex 102.433 5.5 7.83148
      vertex 103.133 15 7.3229
      vertex 103.133 5.5 7.3229
    endloop
  endfacet
  facet normal -0.587787 0 -0.809016
    outer loop
      vertex 103.133 15 7.3229
      vertex 102.433 5.5 7.83148
      vertex 102.433 15 7.83148
    endloop
  endfacet
  facet normal -0.587787 0 -0.809016
    outer loop
      vertex 102.433 43 7.83148
      vertex 103.133 51.5 7.3229
      vertex 103.133 43 7.3229
    endloop
  endfacet
  facet normal -0.587787 0 -0.809016
    outer loop
      vertex 103.133 51.5 7.3229
      vertex 102.433 43 7.83148
      vertex 102.433 51.5 7.83148
    endloop
  endfacet
  facet normal 0 0 -1
    outer loop
      vertex 101.567 5.5 7.83148
      vertex 102.433 15 7.83148
      vertex 102.433 5.5 7.83148
    endloop
  endfacet
  facet normal -0 0 -1
    outer loop
      vertex 102.433 15 7.83148
      vertex 101.567 5.5 7.83148
      vertex 101.567 15 7.83148
    endloop
  endfacet
  facet normal 0 0 -1
    outer loop
      vertex 101.567 43 7.83148
      vertex 102.433 51.5 7.83148
      vertex 102.433 43 7.83148
    endloop
  endfacet
  facet normal -0 0 -1
    outer loop
      vertex 102.433 51.5 7.83148
      vertex 101.567 43 7.83148
      vertex 101.567 51.5 7.83148
    endloop
  endfacet
  facet normal 0.587794 0 0.80901
    outer loop
      vertex 101.5 15 5.21747
      vertex 101.567 5.5 5.16852
      vertex 101.567 15 5.16852
    endloop
  endfacet
  facet normal 0.587794 0 0.80901
    outer loop
      vertex 101.567 5.5 5.16852
      vertex 101.5 15 5.21747
      vertex 101.5 5.5 5.21747
    endloop
  endfacet
  facet normal 0.587794 0 0.80901
    outer loop
      vertex 101.5 51.5 5.21747
      vertex 101.567 43 5.16852
      vertex 101.567 51.5 5.16852
    endloop
  endfacet
  facet normal 0.587794 0 0.80901
    outer loop
      vertex 101.567 43 5.16852
      vertex 101.5 51.5 5.21747
      vertex 101.5 43 5.21747
    endloop
  endfacet
  facet normal 0.587794 0 -0.80901
    outer loop
      vertex 101.5 5.5 7.78253
      vertex 101.567 15 7.83148
      vertex 101.567 5.5 7.83148
    endloop
  endfacet
  facet normal 0.587794 0 -0.80901
    outer loop
      vertex 101.567 15 7.83148
      vertex 101.5 5.5 7.78253
      vertex 101.5 15 7.78253
    endloop
  endfacet
  facet normal 0.587794 0 -0.80901
    outer loop
      vertex 101.5 43 7.78253
      vertex 101.567 51.5 7.83148
      vertex 101.567 43 7.83148
    endloop
  endfacet
  facet normal 0.587794 0 -0.80901
    outer loop
      vertex 101.567 51.5 7.83148
      vertex 101.5 43 7.78253
      vertex 101.5 51.5 7.78253
    endloop
  endfacet
  facet normal -0.587787 0 0.809016
    outer loop
      vertex 102.433 15 5.16852
      vertex 103.133 5.5 5.6771
      vertex 103.133 15 5.6771
    endloop
  endfacet
  facet normal -0.587787 0 0.809016
    outer loop
      vertex 103.133 5.5 5.6771
      vertex 102.433 15 5.16852
      vertex 102.433 5.5 5.16852
    endloop
  endfacet
  facet normal -0.587787 0 0.809016
    outer loop
      vertex 102.433 51.5 5.16852
      vertex 103.133 43 5.6771
      vertex 103.133 51.5 5.6771
    endloop
  endfacet
  facet normal -0.587787 0 0.809016
    outer loop
      vertex 103.133 43 5.6771
      vertex 102.433 51.5 5.16852
      vertex 102.433 43 5.16852
    endloop
  endfacet
  facet normal -0.951055 0 0.309021
    outer loop
      vertex 103.133 5.5 5.6771
      vertex 103.4 15 6.5
      vertex 103.133 15 5.6771
    endloop
  endfacet
  facet normal -0.951055 0 0.309021
    outer loop
      vertex 103.4 15 6.5
      vertex 103.133 5.5 5.6771
      vertex 103.4 5.5 6.5
    endloop
  endfacet
  facet normal -0.951055 0 0.309021
    outer loop
      vertex 103.133 43 5.6771
      vertex 103.4 51.5 6.5
      vertex 103.133 51.5 5.6771
    endloop
  endfacet
  facet normal -0.951055 0 0.309021
    outer loop
      vertex 103.4 51.5 6.5
      vertex 103.133 43 5.6771
      vertex 103.4 43 6.5
    endloop
  endfacet
  facet normal -0 0 1
    outer loop
      vertex 101.567 15 5.16852
      vertex 102.433 5.5 5.16852
      vertex 102.433 15 5.16852
    endloop
  endfacet
  facet normal 0 0 1
    outer loop
      vertex 102.433 5.5 5.16852
      vertex 101.567 15 5.16852
      vertex 101.567 5.5 5.16852
    endloop
  endfacet
  facet normal -0 0 1
    outer loop
      vertex 101.567 51.5 5.16852
      vertex 102.433 43 5.16852
      vertex 102.433 51.5 5.16852
    endloop
  endfacet
  facet normal 0 0 1
    outer loop
      vertex 102.433 43 5.16852
      vertex 101.567 51.5 5.16852
      vertex 101.567 43 5.16852
    endloop
  endfacet
  facet normal -0.587794 0 -0.80901
    outer loop
      vertex 101.433 5.5 7.83148
      vertex 101.5 15 7.78253
      vertex 101.5 5.5 7.78253
    endloop
  endfacet
  facet normal -0.587794 0 -0.80901
    outer loop
      vertex 101.5 15 7.78253
      vertex 101.433 5.5 7.83148
      vertex 101.433 15 7.83148
    endloop
  endfacet
  facet normal -0.587794 0 -0.80901
    outer loop
      vertex 101.433 43 7.83148
      vertex 101.5 51.5 7.78253
      vertex 101.5 43 7.78253
    endloop
  endfacet
  facet normal -0.587794 0 -0.80901
    outer loop
      vertex 101.5 51.5 7.78253
      vertex 101.433 43 7.83148
      vertex 101.433 51.5 7.83148
    endloop
  endfacet
  facet normal 0 0 -1
    outer loop
      vertex 100.567 5.5 7.83148
      vertex 101.433 15 7.83148
      vertex 101.433 5.5 7.83148
    endloop
  endfacet
  facet normal -0 0 -1
    outer loop
      vertex 101.433 15 7.83148
      vertex 100.567 5.5 7.83148
      vertex 100.567 15 7.83148
    endloop
  endfacet
  facet normal 0 0 -1
    outer loop
      vertex 100.567 43 7.83148
      vertex 101.433 51.5 7.83148
      vertex 101.433 43 7.83148
    endloop
  endfacet
  facet normal -0 0 -1
    outer loop
      vertex 101.433 51.5 7.83148
      vertex 100.567 43 7.83148
      vertex 100.567 51.5 7.83148
    endloop
  endfacet
  facet normal 0.587787 0 0.809016
    outer loop
      vertex 99.8674 15 5.6771
      vertex 100.567 5.5 5.16852
      vertex 100.567 15 5.16852
    endloop
  endfacet
  facet normal 0.587787 0 0.809016
    outer loop
      vertex 100.567 5.5 5.16852
      vertex 99.8674 15 5.6771
      vertex 99.8674 5.5 5.6771
    endloop
  endfacet
  facet normal 0.587787 0 0.809016
    outer loop
      vertex 99.8674 51.5 5.6771
      vertex 100.567 43 5.16852
      vertex 100.567 51.5 5.16852
    endloop
  endfacet
  facet normal 0.587787 0 0.809016
    outer loop
      vertex 100.567 43 5.16852
      vertex 99.8674 51.5 5.6771
      vertex 99.8674 43 5.6771
    endloop
  endfacet
  facet normal 0.587787 0 -0.809016
    outer loop
      vertex 99.8674 5.5 7.3229
      vertex 100.567 15 7.83148
      vertex 100.567 5.5 7.83148
    endloop
  endfacet
  facet normal 0.587787 0 -0.809016
    outer loop
      vertex 100.567 15 7.83148
      vertex 99.8674 5.5 7.3229
      vertex 99.8674 15 7.3229
    endloop
  endfacet
  facet normal 0.587787 0 -0.809016
    outer loop
      vertex 99.8674 43 7.3229
      vertex 100.567 51.5 7.83148
      vertex 100.567 43 7.83148
    endloop
  endfacet
  facet normal 0.587787 0 -0.809016
    outer loop
      vertex 100.567 51.5 7.83148
      vertex 99.8674 43 7.3229
      vertex 99.8674 51.5 7.3229
    endloop
  endfacet
  facet normal -0.587794 0 0.80901
    outer loop
      vertex 101.433 15 5.16852
      vertex 101.5 5.5 5.21747
      vertex 101.5 15 5.21747
    endloop
  endfacet
  facet normal -0.587794 0 0.80901
    outer loop
      vertex 101.5 5.5 5.21747
      vertex 101.433 15 5.16852
      vertex 101.433 5.5 5.16852
    endloop
  endfacet
  facet normal -0.587794 0 0.80901
    outer loop
      vertex 101.433 51.5 5.16852
      vertex 101.5 43 5.21747
      vertex 101.5 51.5 5.21747
    endloop
  endfacet
  facet normal -0.587794 0 0.80901
    outer loop
      vertex 101.5 43 5.21747
      vertex 101.433 51.5 5.16852
      vertex 101.433 43 5.16852
    endloop
  endfacet
  facet normal -0 0 1
    outer loop
      vertex 100.567 15 5.16852
      vertex 101.433 5.5 5.16852
      vertex 101.433 15 5.16852
    endloop
  endfacet
  facet normal 0 0 1
    outer loop
      vertex 101.433 5.5 5.16852
      vertex 100.567 15 5.16852
      vertex 100.567 5.5 5.16852
    endloop
  endfacet
  facet normal -0 0 1
    outer loop
      vertex 100.567 51.5 5.16852
      vertex 101.433 43 5.16852
      vertex 101.433 51.5 5.16852
    endloop
  endfacet
  facet normal 0 0 1
    outer loop
      vertex 101.433 43 5.16852
      vertex 100.567 51.5 5.16852
      vertex 100.567 43 5.16852
    endloop
  endfacet
  facet normal 0.951055 0 -0.309021
    outer loop
      vertex 99.8674 5.5 7.3229
      vertex 99.6 15 6.5
      vertex 99.8674 15 7.3229
    endloop
  endfacet
  facet normal 0.951055 0 -0.309021
    outer loop
      vertex 99.6 15 6.5
      vertex 99.8674 5.5 7.3229
      vertex 99.6 5.5 6.5
    endloop
  endfacet
  facet normal 0.951055 0 -0.309021
    outer loop
      vertex 99.8674 43 7.3229
      vertex 99.6 51.5 6.5
      vertex 99.8674 51.5 7.3229
    endloop
  endfacet
  facet normal 0.951055 0 -0.309021
    outer loop
      vertex 99.6 51.5 6.5
      vertex 99.8674 43 7.3229
      vertex 99.6 43 6.5
    endloop
  endfacet
  facet normal 0.951055 -0 0.309021
    outer loop
      vertex 99.6 5.5 6.5
      vertex 99.8674 15 5.6771
      vertex 99.6 15 6.5
    endloop
  endfacet
  facet normal 0.951055 0 0.309021
    outer loop
      vertex 99.8674 15 5.6771
      vertex 99.6 5.5 6.5
      vertex 99.8674 5.5 5.6771
    endloop
  endfacet
  facet normal 0.951055 -0 0.309021
    outer loop
      vertex 99.6 43 6.5
      vertex 99.8674 51.5 5.6771
      vertex 99.6 51.5 6.5
    endloop
  endfacet
  facet normal 0.951055 0 0.309021
    outer loop
      vertex 99.8674 51.5 5.6771
      vertex 99.6 43 6.5
      vertex 99.8674 43 5.6771
    endloop
  endfacet
endsolid OpenSCAD_Model
