solid OpenSCAD_Model
  facet normal 0 0 -1
    outer loop
      vertex -11.5996 -4.2998 -4
      vertex -6.2002 0 -4
      vertex -6.2002 -4.2998 -4
    endloop
  endfacet
  facet normal -0 0 -1
    outer loop
      vertex -6.2002 0 -4
      vertex -11.5996 -4.2998 -4
      vertex -11 5 -4
    endloop
  endfacet
  facet normal 0 0 -1
    outer loop
      vertex -8 -46 -4
      vertex 0 -40.0996 -4
      vertex 2 -46 -4
    endloop
  endfacet
  facet normal -0 0 -1
    outer loop
      vertex 0 -40.0996 -4
      vertex -8 -46 -4
      vertex -8 -40.0996 -4
    endloop
  endfacet
  facet normal 0 0 -1
    outer loop
      vertex 60.293 112.365 -4
      vertex 60.0576 117.414 -4
      vertex 60.4336 114.902 -4
    endloop
  endfacet
  facet normal 0 0 -1
    outer loop
      vertex 59.6426 109.91 -4
      vertex 60.0576 117.414 -4
      vertex 60.293 112.365 -4
    endloop
  endfacet
  facet normal 0 0 -1
    outer loop
      vertex 59.6426 109.91 -4
      vertex 59.1826 119.799 -4
      vertex 60.0576 117.414 -4
    endloop
  endfacet
  facet normal 0 0 -1
    outer loop
      vertex 58.5098 107.637 -4
      vertex 59.1826 119.799 -4
      vertex 59.6426 109.91 -4
    endloop
  endfacet
  facet normal 0 0 -1
    outer loop
      vertex 58.5098 107.637 -4
      vertex 57.8428 121.957 -4
      vertex 59.1826 119.799 -4
    endloop
  endfacet
  facet normal 0 0 -1
    outer loop
      vertex 56.9404 105.639 -4
      vertex 57.8428 121.957 -4
      vertex 58.5098 107.637 -4
    endloop
  endfacet
  facet normal 0 0 -1
    outer loop
      vertex 56.9404 105.639 -4
      vertex 56.0947 123.8 -4
      vertex 57.8428 121.957 -4
    endloop
  endfacet
  facet normal 0 0 -1
    outer loop
      vertex 55 104 -4
      vertex 56.0947 123.8 -4
      vertex 56.9404 105.639 -4
    endloop
  endfacet
  facet normal 0 0 -1
    outer loop
      vertex 55 104 -4
      vertex 54.0098 125.251 -4
      vertex 56.0947 123.8 -4
    endloop
  endfacet
  facet normal 0 0 -1
    outer loop
      vertex 55 104 -4
      vertex 51.6748 126.251 -4
      vertex 54.0098 125.251 -4
    endloop
  endfacet
  facet normal 0 0 -1
    outer loop
      vertex 55 104 -4
      vertex 49.1855 126.759 -4
      vertex 51.6748 126.251 -4
    endloop
  endfacet
  facet normal 0 0 -1
    outer loop
      vertex 55 104 -4
      vertex 46.6455 126.752 -4
      vertex 49.1855 126.759 -4
    endloop
  endfacet
  facet normal 0 0 -1
    outer loop
      vertex 55 104 -4
      vertex 44.1592 126.232 -4
      vertex 46.6455 126.752 -4
    endloop
  endfacet
  facet normal 0 0 -1
    outer loop
      vertex 55 104 -4
      vertex 41.8291 125.221 -4
      vertex 44.1592 126.232 -4
    endloop
  endfacet
  facet normal 0 0 -1
    outer loop
      vertex 55 104 -4
      vertex 39.752 123.759 -4
      vertex 41.8291 125.221 -4
    endloop
  endfacet
  facet normal 0 0 -1
    outer loop
      vertex 55 104 -4
      vertex 38.0127 121.907 -4
      vertex 39.752 123.759 -4
    endloop
  endfacet
  facet normal 0 0 -1
    outer loop
      vertex 55 104 -4
      vertex 36.6836 119.742 -4
      vertex 38.0127 121.907 -4
    endloop
  endfacet
  facet normal 0 0 -1
    outer loop
      vertex 55 104 -4
      vertex 35.8203 117.353 -4
      vertex 36.6836 119.742 -4
    endloop
  endfacet
  facet normal 0 0 -1
    outer loop
      vertex 55 104 -4
      vertex 35.6104 112.304 -4
      vertex 35.8203 117.353 -4
    endloop
  endfacet
  facet normal 0 0 -1
    outer loop
      vertex 17.8486 18.1387 -4
      vertex 35.6104 112.304 -4
      vertex 55 104 -4
    endloop
  endfacet
  facet normal 0 0 -1
    outer loop
      vertex 0 0 -4
      vertex 17.8486 18.1387 -4
      vertex 5 -41 -4
    endloop
  endfacet
  facet normal 0 0 -1
    outer loop
      vertex 0 -40.0996 -4
      vertex 5 -41 -4
      vertex 2 -46 -4
    endloop
  endfacet
  facet normal 0 0 -1
    outer loop
      vertex 5 -41 -4
      vertex 0 -40.0996 -4
      vertex 0 0 -4
    endloop
  endfacet
  facet normal 0 0 -1
    outer loop
      vertex -3.48145 18.1152 -4
      vertex 17.8486 18.1387 -4
      vertex 0 0 -4
    endloop
  endfacet
  facet normal -0 0 -1
    outer loop
      vertex 17.8486 18.1387 -4
      vertex -3.48145 18.1152 -4
      vertex 35.6104 112.304 -4
    endloop
  endfacet
  facet normal 0 0 -1
    outer loop
      vertex -11 5 -4
      vertex 0 0 -4
      vertex -6.2002 0 -4
    endloop
  endfacet
  facet normal 0 0 -1
    outer loop
      vertex 0 0 -4
      vertex -11 5 -4
      vertex -3.48145 18.1152 -4
    endloop
  endfacet
  facet normal 0 0 -1
    outer loop
      vertex 35.8203 117.353 -4
      vertex 35.6104 112.304 -4
      vertex 35.458 114.839 -4
    endloop
  endfacet
  facet normal 0 0 1
    outer loop
      vertex 40.03 114.5 4
      vertex 35.458 114.839 4
      vertex 35.6104 112.304 4
    endloop
  endfacet
  facet normal 0 0 1
    outer loop
      vertex 5 -41 4
      vertex 0 -40.0996 4
      vertex 2 -46 4
    endloop
  endfacet
  facet normal 0 0 1
    outer loop
      vertex -8 -46 4
      vertex 0 -40.0996 4
      vertex -8 -40.0996 4
    endloop
  endfacet
  facet normal 0 0 1
    outer loop
      vertex 0 -40.0996 4
      vertex -8 -46 4
      vertex 2 -46 4
    endloop
  endfacet
  facet normal 0 0 1
    outer loop
      vertex 60.4336 114.902 4
      vertex 55.7975 116.415 4
      vertex 56.03 114.5 4
    endloop
  endfacet
  facet normal 0 0 1
    outer loop
      vertex 57.8428 121.957 4
      vertex 55.1136 118.218 4
      vertex 55.7975 116.415 4
    endloop
  endfacet
  facet normal 0 0 1
    outer loop
      vertex 57.8428 121.957 4
      vertex 54.0181 119.805 4
      vertex 55.1136 118.218 4
    endloop
  endfacet
  facet normal 0 0 1
    outer loop
      vertex 52.5745 121.084 4
      vertex 56.0947 123.8 4
      vertex 54.0098 125.251 4
    endloop
  endfacet
  facet normal 0 0 1
    outer loop
      vertex 56.0947 123.8 4
      vertex 52.5745 121.084 4
      vertex 54.0181 119.805 4
    endloop
  endfacet
  facet normal 0 0 1
    outer loop
      vertex 50.8668 121.98 4
      vertex 54.0098 125.251 4
      vertex 51.6748 126.251 4
    endloop
  endfacet
  facet normal 0 0 1
    outer loop
      vertex 54.0098 125.251 4
      vertex 50.8668 121.98 4
      vertex 52.5745 121.084 4
    endloop
  endfacet
  facet normal 0 0 1
    outer loop
      vertex 48.9943 122.442 4
      vertex 51.6748 126.251 4
      vertex 49.1855 126.759 4
    endloop
  endfacet
  facet normal 0 0 1
    outer loop
      vertex 51.6748 126.251 4
      vertex 48.9943 122.442 4
      vertex 50.8668 121.98 4
    endloop
  endfacet
  facet normal 0 0 1
    outer loop
      vertex 49.1855 126.759 4
      vertex 47.0657 122.442 4
      vertex 48.9943 122.442 4
    endloop
  endfacet
  facet normal -0 0 1
    outer loop
      vertex 46.6455 126.752 4
      vertex 47.0657 122.442 4
      vertex 49.1855 126.759 4
    endloop
  endfacet
  facet normal -0 0 1
    outer loop
      vertex 44.1592 126.232 4
      vertex 47.0657 122.442 4
      vertex 46.6455 126.752 4
    endloop
  endfacet
  facet normal 0 0 1
    outer loop
      vertex 47.0657 122.442 4
      vertex 44.1592 126.232 4
      vertex 45.1932 121.98 4
    endloop
  endfacet
  facet normal -0 0 1
    outer loop
      vertex 41.8291 125.221 4
      vertex 45.1932 121.98 4
      vertex 44.1592 126.232 4
    endloop
  endfacet
  facet normal 0 0 1
    outer loop
      vertex 45.1932 121.98 4
      vertex 41.8291 125.221 4
      vertex 43.4855 121.084 4
    endloop
  endfacet
  facet normal -0 0 1
    outer loop
      vertex 39.752 123.759 4
      vertex 43.4855 121.084 4
      vertex 41.8291 125.221 4
    endloop
  endfacet
  facet normal 0 0 1
    outer loop
      vertex 43.4855 121.084 4
      vertex 39.752 123.759 4
      vertex 42.0419 119.805 4
    endloop
  endfacet
  facet normal -0 0 1
    outer loop
      vertex 38.0127 121.907 4
      vertex 42.0419 119.805 4
      vertex 39.752 123.759 4
    endloop
  endfacet
  facet normal -0 0 1
    outer loop
      vertex 36.6836 119.742 4
      vertex 40.9464 118.218 4
      vertex 38.0127 121.907 4
    endloop
  endfacet
  facet normal 0 0 1
    outer loop
      vertex 42.0419 119.805 4
      vertex 38.0127 121.907 4
      vertex 40.9464 118.218 4
    endloop
  endfacet
  facet normal -0 0 1
    outer loop
      vertex 55.7975 116.415 4
      vertex 60.4336 114.902 4
      vertex 60.0576 117.414 4
    endloop
  endfacet
  facet normal 0 0 1
    outer loop
      vertex 60.4336 114.902 4
      vertex 56.03 114.5 4
      vertex 60.293 112.365 4
    endloop
  endfacet
  facet normal 0 0 1
    outer loop
      vertex 55.7975 116.415 4
      vertex 60.0576 117.414 4
      vertex 59.1826 119.799 4
    endloop
  endfacet
  facet normal -0 0 1
    outer loop
      vertex 55.7975 112.585 4
      vertex 60.293 112.365 4
      vertex 56.03 114.5 4
    endloop
  endfacet
  facet normal 0 0 1
    outer loop
      vertex 55.7975 116.415 4
      vertex 59.1826 119.799 4
      vertex 57.8428 121.957 4
    endloop
  endfacet
  facet normal 0 0 1
    outer loop
      vertex 60.293 112.365 4
      vertex 55.7975 112.585 4
      vertex 59.6426 109.91 4
    endloop
  endfacet
  facet normal 0 0 1
    outer loop
      vertex 54.0181 119.805 4
      vertex 57.8428 121.957 4
      vertex 56.0947 123.8 4
    endloop
  endfacet
  facet normal -0 0 1
    outer loop
      vertex 55.1136 110.782 4
      vertex 59.6426 109.91 4
      vertex 55.7975 112.585 4
    endloop
  endfacet
  facet normal 0 0 1
    outer loop
      vertex 59.6426 109.91 4
      vertex 55.1136 110.782 4
      vertex 58.5098 107.637 4
    endloop
  endfacet
  facet normal -0 0 1
    outer loop
      vertex 54.0181 109.195 4
      vertex 58.5098 107.637 4
      vertex 55.1136 110.782 4
    endloop
  endfacet
  facet normal 0 0 1
    outer loop
      vertex 58.5098 107.637 4
      vertex 54.0181 109.195 4
      vertex 56.9404 105.639 4
    endloop
  endfacet
  facet normal -0 0 1
    outer loop
      vertex 52.5745 107.916 4
      vertex 56.9404 105.639 4
      vertex 54.0181 109.195 4
    endloop
  endfacet
  facet normal 0 0 1
    outer loop
      vertex 56.9404 105.639 4
      vertex 52.5745 107.916 4
      vertex 55 104 4
    endloop
  endfacet
  facet normal -0 0 1
    outer loop
      vertex 50.8668 107.02 4
      vertex 55 104 4
      vertex 52.5745 107.916 4
    endloop
  endfacet
  facet normal -0 0 1
    outer loop
      vertex 48.9943 106.558 4
      vertex 55 104 4
      vertex 50.8668 107.02 4
    endloop
  endfacet
  facet normal -0 0 1
    outer loop
      vertex 47.0657 106.558 4
      vertex 55 104 4
      vertex 48.9943 106.558 4
    endloop
  endfacet
  facet normal 0 0 1
    outer loop
      vertex 17.8486 18.1387 4
      vertex 47.0657 106.558 4
      vertex 45.1932 107.02 4
    endloop
  endfacet
  facet normal 0 0 1
    outer loop
      vertex 40.9464 118.218 4
      vertex 36.6836 119.742 4
      vertex 40.2625 116.415 4
    endloop
  endfacet
  facet normal -0 0 1
    outer loop
      vertex 35.8203 117.353 4
      vertex 40.2625 116.415 4
      vertex 36.6836 119.742 4
    endloop
  endfacet
  facet normal 0 0 1
    outer loop
      vertex 35.458 114.839 4
      vertex 40.2625 116.415 4
      vertex 35.8203 117.353 4
    endloop
  endfacet
  facet normal 0 0 1
    outer loop
      vertex 40.2625 116.415 4
      vertex 35.458 114.839 4
      vertex 40.03 114.5 4
    endloop
  endfacet
  facet normal 0 0 1
    outer loop
      vertex 40.03 114.5 4
      vertex 35.6104 112.304 4
      vertex 40.2625 112.585 4
    endloop
  endfacet
  facet normal 0 0 1
    outer loop
      vertex 40.2625 112.585 4
      vertex 35.6104 112.304 4
      vertex 40.9464 110.782 4
    endloop
  endfacet
  facet normal 0 0 1
    outer loop
      vertex 40.9464 110.782 4
      vertex 35.6104 112.304 4
      vertex 42.0419 109.195 4
    endloop
  endfacet
  facet normal 0 0 1
    outer loop
      vertex 35.6104 112.304 4
      vertex 43.4855 107.916 4
      vertex 42.0419 109.195 4
    endloop
  endfacet
  facet normal 0 0 1
    outer loop
      vertex 47.0657 106.558 4
      vertex 17.8486 18.1387 4
      vertex 55 104 4
    endloop
  endfacet
  facet normal 0 0 1
    outer loop
      vertex 43.4855 107.916 4
      vertex 17.8486 18.1387 4
      vertex 45.1932 107.02 4
    endloop
  endfacet
  facet normal 0 0 1
    outer loop
      vertex 35.6104 112.304 4
      vertex 17.8486 18.1387 4
      vertex 43.4855 107.916 4
    endloop
  endfacet
  facet normal 0 0 1
    outer loop
      vertex -3.48145 18.1152 4
      vertex 17.8486 18.1387 4
      vertex 35.6104 112.304 4
    endloop
  endfacet
  facet normal 0 0 1
    outer loop
      vertex 17.8486 18.1387 4
      vertex 0 0 4
      vertex 5 -41 4
    endloop
  endfacet
  facet normal -0 0 1
    outer loop
      vertex 0 -40.0996 4
      vertex 5 -41 4
      vertex 0 0 4
    endloop
  endfacet
  facet normal 0 0 1
    outer loop
      vertex 17.8486 18.1387 4
      vertex -3.48145 18.1152 4
      vertex 0 0 4
    endloop
  endfacet
  facet normal -0 0 1
    outer loop
      vertex -11 5 4
      vertex 0 0 4
      vertex -3.48145 18.1152 4
    endloop
  endfacet
  facet normal 0 0 1
    outer loop
      vertex 0 0 4
      vertex -11 5 4
      vertex -6.2002 0 4
    endloop
  endfacet
  facet normal 0 0 1
    outer loop
      vertex -11.5996 -4.2998 4
      vertex -6.2002 0 4
      vertex -11 5 4
    endloop
  endfacet
  facet normal 0 0 1
    outer loop
      vertex -6.2002 0 4
      vertex -11.5996 -4.2998 4
      vertex -6.2002 -4.2998 4
    endloop
  endfacet
  facet normal 0.977202 -0.21231 0
    outer loop
      vertex 5 -41 4
      vertex 17.8486 18.1387 -4
      vertex 17.8486 18.1387 4
    endloop
  endfacet
  facet normal 0.977202 -0.21231 0
    outer loop
      vertex 17.8486 18.1387 -4
      vertex 5 -41 4
      vertex 5 -41 -4
    endloop
  endfacet
  facet normal 0.917771 -0.397111 0
    outer loop
      vertex 17.8486 18.1387 4
      vertex 55 104 -4
      vertex 55 104 4
    endloop
  endfacet
  facet normal 0.917771 -0.397111 0
    outer loop
      vertex 55 104 -4
      vertex 17.8486 18.1387 4
      vertex 17.8486 18.1387 -4
    endloop
  endfacet
  facet normal 0.645201 -0.764013 0
    outer loop
      vertex 55 104 -4
      vertex 56.9404 105.639 4
      vertex 55 104 4
    endloop
  endfacet
  facet normal 0.645201 -0.764013 0
    outer loop
      vertex 56.9404 105.639 4
      vertex 55 104 -4
      vertex 56.9404 105.639 -4
    endloop
  endfacet
  facet normal 0.786425 -0.617686 0
    outer loop
      vertex 56.9404 105.639 4
      vertex 58.5098 107.637 -4
      vertex 58.5098 107.637 4
    endloop
  endfacet
  facet normal 0.786425 -0.617686 0
    outer loop
      vertex 58.5098 107.637 -4
      vertex 56.9404 105.639 4
      vertex 56.9404 105.639 -4
    endloop
  endfacet
  facet normal 0.895041 -0.445983 0
    outer loop
      vertex 58.5098 107.637 4
      vertex 59.6426 109.91 -4
      vertex 59.6426 109.91 4
    endloop
  endfacet
  facet normal 0.895041 -0.445983 0
    outer loop
      vertex 59.6426 109.91 -4
      vertex 58.5098 107.637 4
      vertex 58.5098 107.637 -4
    endloop
  endfacet
  facet normal 0.966655 -0.256083 0
    outer loop
      vertex 59.6426 109.91 4
      vertex 60.293 112.365 -4
      vertex 60.293 112.365 4
    endloop
  endfacet
  facet normal 0.966655 -0.256083 0
    outer loop
      vertex 60.293 112.365 -4
      vertex 59.6426 109.91 4
      vertex 59.6426 109.91 -4
    endloop
  endfacet
  facet normal 0.998467 -0.0553423 0
    outer loop
      vertex 60.293 112.365 4
      vertex 60.4336 114.902 -4
      vertex 60.4336 114.902 4
    endloop
  endfacet
  facet normal 0.998467 -0.0553423 0
    outer loop
      vertex 60.4336 114.902 -4
      vertex 60.293 112.365 4
      vertex 60.293 112.365 -4
    endloop
  endfacet
  facet normal 0.988981 0.14804 0
    outer loop
      vertex 60.4336 114.902 4
      vertex 60.0576 117.414 -4
      vertex 60.0576 117.414 4
    endloop
  endfacet
  facet normal 0.988981 0.14804 0
    outer loop
      vertex 60.0576 117.414 -4
      vertex 60.4336 114.902 4
      vertex 60.4336 114.902 -4
    endloop
  endfacet
  facet normal 0.938802 0.344458 0
    outer loop
      vertex 60.0576 117.414 4
      vertex 59.1826 119.799 -4
      vertex 59.1826 119.799 4
    endloop
  endfacet
  facet normal 0.938802 0.344458 0
    outer loop
      vertex 59.1826 119.799 -4
      vertex 60.0576 117.414 4
      vertex 60.0576 117.414 -4
    endloop
  endfacet
  facet normal 0.849593 0.527439 0
    outer loop
      vertex 59.1826 119.799 4
      vertex 57.8428 121.957 -4
      vertex 57.8428 121.957 4
    endloop
  endfacet
  facet normal 0.849593 0.527439 0
    outer loop
      vertex 57.8428 121.957 -4
      vertex 59.1826 119.799 4
      vertex 59.1826 119.799 -4
    endloop
  endfacet
  facet normal 0.725508 0.688214 0
    outer loop
      vertex 57.8428 121.957 4
      vertex 56.0947 123.8 -4
      vertex 56.0947 123.8 4
    endloop
  endfacet
  facet normal 0.725508 0.688214 0
    outer loop
      vertex 56.0947 123.8 -4
      vertex 57.8428 121.957 4
      vertex 57.8428 121.957 -4
    endloop
  endfacet
  facet normal 0.571267 0.820764 -0
    outer loop
      vertex 56.0947 123.8 -4
      vertex 54.0098 125.251 4
      vertex 56.0947 123.8 4
    endloop
  endfacet
  facet normal 0.571267 0.820764 0
    outer loop
      vertex 54.0098 125.251 4
      vertex 56.0947 123.8 -4
      vertex 54.0098 125.251 -4
    endloop
  endfacet
  facet normal 0.393687 0.919244 -0
    outer loop
      vertex 54.0098 125.251 -4
      vertex 51.6748 126.251 4
      vertex 54.0098 125.251 4
    endloop
  endfacet
  facet normal 0.393687 0.919244 0
    outer loop
      vertex 51.6748 126.251 4
      vertex 54.0098 125.251 -4
      vertex 51.6748 126.251 -4
    endloop
  endfacet
  facet normal 0.199885 0.979819 -0
    outer loop
      vertex 51.6748 126.251 -4
      vertex 49.1855 126.759 4
      vertex 51.6748 126.251 4
    endloop
  endfacet
  facet normal 0.199885 0.979819 0
    outer loop
      vertex 49.1855 126.759 4
      vertex 51.6748 126.251 -4
      vertex 49.1855 126.759 -4
    endloop
  endfacet
  facet normal -0.00269126 0.999996 0
    outer loop
      vertex 49.1855 126.759 -4
      vertex 46.6455 126.752 4
      vertex 49.1855 126.759 4
    endloop
  endfacet
  facet normal -0.00269126 0.999996 0
    outer loop
      vertex 46.6455 126.752 4
      vertex 49.1855 126.759 -4
      vertex 46.6455 126.752 -4
    endloop
  endfacet
  facet normal -0.204538 0.978859 0
    outer loop
      vertex 46.6455 126.752 -4
      vertex 44.1592 126.232 4
      vertex 46.6455 126.752 4
    endloop
  endfacet
  facet normal -0.204538 0.978859 0
    outer loop
      vertex 44.1592 126.232 4
      vertex 46.6455 126.752 -4
      vertex 44.1592 126.232 -4
    endloop
  endfacet
  facet normal -0.398276 0.917266 0
    outer loop
      vertex 44.1592 126.232 -4
      vertex 41.8291 125.221 4
      vertex 44.1592 126.232 4
    endloop
  endfacet
  facet normal -0.398276 0.917266 0
    outer loop
      vertex 41.8291 125.221 4
      vertex 44.1592 126.232 -4
      vertex 41.8291 125.221 -4
    endloop
  endfacet
  facet normal -0.575551 0.817766 0
    outer loop
      vertex 41.8291 125.221 -4
      vertex 39.752 123.759 4
      vertex 41.8291 125.221 4
    endloop
  endfacet
  facet normal -0.575551 0.817766 0
    outer loop
      vertex 39.752 123.759 4
      vertex 41.8291 125.221 -4
      vertex 39.752 123.759 -4
    endloop
  endfacet
  facet normal -0.728866 0.684657 0
    outer loop
      vertex 38.0127 121.907 -4
      vertex 39.752 123.759 4
      vertex 39.752 123.759 -4
    endloop
  endfacet
  facet normal -0.728866 0.684657 0
    outer loop
      vertex 39.752 123.759 4
      vertex 38.0127 121.907 -4
      vertex 38.0127 121.907 4
    endloop
  endfacet
  facet normal -0.852225 0.523175 0
    outer loop
      vertex 36.6836 119.742 -4
      vertex 38.0127 121.907 4
      vertex 38.0127 121.907 -4
    endloop
  endfacet
  facet normal -0.852225 0.523175 0
    outer loop
      vertex 38.0127 121.907 4
      vertex 36.6836 119.742 -4
      vertex 36.6836 119.742 4
    endloop
  endfacet
  facet normal -0.94051 0.339767 0
    outer loop
      vertex 35.8203 117.353 -4
      vertex 36.6836 119.742 4
      vertex 36.6836 119.742 -4
    endloop
  endfacet
  facet normal -0.94051 0.339767 0
    outer loop
      vertex 36.6836 119.742 4
      vertex 35.8203 117.353 -4
      vertex 35.8203 117.353 4
    endloop
  endfacet
  facet normal -0.989772 0.142659 0
    outer loop
      vertex 35.458 114.839 -4
      vertex 35.8203 117.353 4
      vertex 35.8203 117.353 -4
    endloop
  endfacet
  facet normal -0.989772 0.142659 0
    outer loop
      vertex 35.8203 117.353 4
      vertex 35.458 114.839 -4
      vertex 35.458 114.839 4
    endloop
  endfacet
  facet normal -0.998199 -0.0599842 0
    outer loop
      vertex 35.6104 112.304 -4
      vertex 35.458 114.839 4
      vertex 35.458 114.839 -4
    endloop
  endfacet
  facet normal -0.998199 -0.0599842 0
    outer loop
      vertex 35.458 114.839 4
      vertex 35.6104 112.304 -4
      vertex 35.6104 112.304 4
    endloop
  endfacet
  facet normal -0.92361 0.383333 0
    outer loop
      vertex -3.48145 18.1152 -4
      vertex 35.6104 112.304 4
      vertex 35.6104 112.304 -4
    endloop
  endfacet
  facet normal -0.92361 0.383333 0
    outer loop
      vertex 35.6104 112.304 4
      vertex -3.48145 18.1152 -4
      vertex -3.48145 18.1152 4
    endloop
  endfacet
  facet normal -0.867555 0.497342 0
    outer loop
      vertex -11 5 -4
      vertex -3.48145 18.1152 4
      vertex -3.48145 18.1152 -4
    endloop
  endfacet
  facet normal -0.867555 0.497342 0
    outer loop
      vertex -3.48145 18.1152 4
      vertex -11 5 -4
      vertex -11 5 4
    endloop
  endfacet
  facet normal -0.997928 0.0643419 0
    outer loop
      vertex -11.5996 -4.2998 -4
      vertex -11 5 4
      vertex -11 5 -4
    endloop
  endfacet
  facet normal -0.997928 0.0643419 0
    outer loop
      vertex -11 5 4
      vertex -11.5996 -4.2998 -4
      vertex -11.5996 -4.2998 4
    endloop
  endfacet
  facet normal 0 -1 0
    outer loop
      vertex -11.5996 -4.2998 -4
      vertex -6.2002 -4.2998 4
      vertex -11.5996 -4.2998 4
    endloop
  endfacet
  facet normal 0 -1 -0
    outer loop
      vertex -6.2002 -4.2998 4
      vertex -11.5996 -4.2998 -4
      vertex -6.2002 -4.2998 -4
    endloop
  endfacet
  facet normal 1 -0 0
    outer loop
      vertex -6.2002 -4.2998 4
      vertex -6.2002 0 -4
      vertex -6.2002 0 4
    endloop
  endfacet
  facet normal 1 0 0
    outer loop
      vertex -6.2002 0 -4
      vertex -6.2002 -4.2998 4
      vertex -6.2002 -4.2998 -4
    endloop
  endfacet
  facet normal 0 -1 0
    outer loop
      vertex -6.2002 0 -4
      vertex 0 0 4
      vertex -6.2002 0 4
    endloop
  endfacet
  facet normal 0 -1 -0
    outer loop
      vertex 0 0 4
      vertex -6.2002 0 -4
      vertex 0 0 -4
    endloop
  endfacet
  facet normal -1 0 0
    outer loop
      vertex 0 -40.0996 -4
      vertex 0 0 4
      vertex 0 0 -4
    endloop
  endfacet
  facet normal -1 -0 0
    outer loop
      vertex 0 0 4
      vertex 0 -40.0996 -4
      vertex 0 -40.0996 4
    endloop
  endfacet
  facet normal 0 1 -0
    outer loop
      vertex 0 -40.0996 -4
      vertex -8 -40.0996 4
      vertex 0 -40.0996 4
    endloop
  endfacet
  facet normal 0 1 0
    outer loop
      vertex -8 -40.0996 4
      vertex 0 -40.0996 -4
      vertex -8 -40.0996 -4
    endloop
  endfacet
  facet normal -1 0 0
    outer loop
      vertex -8 -46 -4
      vertex -8 -40.0996 4
      vertex -8 -40.0996 -4
    endloop
  endfacet
  facet normal -1 -0 0
    outer loop
      vertex -8 -40.0996 4
      vertex -8 -46 -4
      vertex -8 -46 4
    endloop
  endfacet
  facet normal 0 -1 0
    outer loop
      vertex -8 -46 -4
      vertex 2 -46 4
      vertex -8 -46 4
    endloop
  endfacet
  facet normal 0 -1 -0
    outer loop
      vertex 2 -46 4
      vertex -8 -46 -4
      vertex 2 -46 -4
    endloop
  endfacet
  facet normal 0.857493 -0.514496 0
    outer loop
      vertex 2 -46 4
      vertex 5 -41 -4
      vertex 5 -41 4
    endloop
  endfacet
  facet normal 0.857493 -0.514496 0
    outer loop
      vertex 5 -41 -4
      vertex 2 -46 4
      vertex 2 -46 -4
    endloop
  endfacet
  facet normal 0.992709 0.120536 0
    outer loop
      vertex 56.03 114.5 13.9
      vertex 55.7975 116.415 4
      vertex 55.7975 116.415 13.9
    endloop
  endfacet
  facet normal 0.992709 0.120536 0
    outer loop
      vertex 55.7975 116.415 4
      vertex 56.03 114.5 13.9
      vertex 56.03 114.5 4
    endloop
  endfacet
  facet normal -0.992709 -0.120538 0
    outer loop
      vertex 40.2625 112.585 4
      vertex 40.03 114.5 13.9
      vertex 40.03 114.5 4
    endloop
  endfacet
  facet normal -0.992709 -0.120538 0
    outer loop
      vertex 40.03 114.5 13.9
      vertex 40.2625 112.585 4
      vertex 40.2625 112.585 13.9
    endloop
  endfacet
  facet normal -0.239316 0.970942 0
    outer loop
      vertex 47.0657 122.442 4
      vertex 45.1932 121.98 13.9
      vertex 47.0657 122.442 13.9
    endloop
  endfacet
  facet normal -0.239316 0.970942 0
    outer loop
      vertex 45.1932 121.98 13.9
      vertex 47.0657 122.442 4
      vertex 45.1932 121.98 4
    endloop
  endfacet
  facet normal -0.663122 -0.748511 0
    outer loop
      vertex 42.0419 109.195 4
      vertex 43.4855 107.916 13.9
      vertex 42.0419 109.195 13.9
    endloop
  endfacet
  facet normal -0.663122 -0.748511 -0
    outer loop
      vertex 43.4855 107.916 13.9
      vertex 42.0419 109.195 4
      vertex 43.4855 107.916 4
    endloop
  endfacet
  facet normal 0.663123 0.74851 -0
    outer loop
      vertex 54.0181 119.805 4
      vertex 52.5745 121.084 13.9
      vertex 54.0181 119.805 13.9
    endloop
  endfacet
  facet normal 0.663123 0.74851 0
    outer loop
      vertex 52.5745 121.084 13.9
      vertex 54.0181 119.805 4
      vertex 52.5745 121.084 4
    endloop
  endfacet
  facet normal -0.822982 0.568068 0
    outer loop
      vertex 40.9464 118.218 4
      vertex 42.0419 119.805 13.9
      vertex 42.0419 119.805 4
    endloop
  endfacet
  facet normal -0.822982 0.568068 0
    outer loop
      vertex 42.0419 119.805 13.9
      vertex 40.9464 118.218 4
      vertex 40.9464 118.218 13.9
    endloop
  endfacet
  facet normal -0.935017 0.354604 0
    outer loop
      vertex 40.2625 116.415 4
      vertex 40.9464 118.218 13.9
      vertex 40.9464 118.218 4
    endloop
  endfacet
  facet normal -0.935017 0.354604 0
    outer loop
      vertex 40.9464 118.218 13.9
      vertex 40.2625 116.415 4
      vertex 40.2625 116.415 13.9
    endloop
  endfacet
  facet normal -0.464725 0.885455 0
    outer loop
      vertex 45.1932 121.98 4
      vertex 43.4855 121.084 13.9
      vertex 45.1932 121.98 13.9
    endloop
  endfacet
  facet normal -0.464725 0.885455 0
    outer loop
      vertex 43.4855 121.084 13.9
      vertex 45.1932 121.98 4
      vertex 43.4855 121.084 4
    endloop
  endfacet
  facet normal -0.935017 -0.354604 0
    outer loop
      vertex 40.9464 110.782 4
      vertex 40.2625 112.585 13.9
      vertex 40.2625 112.585 4
    endloop
  endfacet
  facet normal -0.935017 -0.354604 0
    outer loop
      vertex 40.2625 112.585 13.9
      vertex 40.9464 110.782 4
      vertex 40.9464 110.782 13.9
    endloop
  endfacet
  facet normal 0.822983 0.568066 0
    outer loop
      vertex 55.1136 118.218 13.9
      vertex 54.0181 119.805 4
      vertex 54.0181 119.805 13.9
    endloop
  endfacet
  facet normal 0.822983 0.568066 0
    outer loop
      vertex 54.0181 119.805 4
      vertex 55.1136 118.218 13.9
      vertex 55.1136 118.218 4
    endloop
  endfacet
  facet normal 0.935016 0.354605 0
    outer loop
      vertex 55.7975 116.415 13.9
      vertex 55.1136 118.218 4
      vertex 55.1136 118.218 13.9
    endloop
  endfacet
  facet normal 0.935016 0.354605 0
    outer loop
      vertex 55.1136 118.218 4
      vertex 55.7975 116.415 13.9
      vertex 55.7975 116.415 4
    endloop
  endfacet
  facet normal 0.239316 0.970942 -0
    outer loop
      vertex 50.8668 121.98 4
      vertex 48.9943 122.442 13.9
      vertex 50.8668 121.98 13.9
    endloop
  endfacet
  facet normal 0.239316 0.970942 0
    outer loop
      vertex 48.9943 122.442 13.9
      vertex 50.8668 121.98 4
      vertex 48.9943 122.442 4
    endloop
  endfacet
  facet normal 0 1 -0
    outer loop
      vertex 48.9943 122.442 4
      vertex 47.0657 122.442 13.9
      vertex 48.9943 122.442 13.9
    endloop
  endfacet
  facet normal 0 1 0
    outer loop
      vertex 47.0657 122.442 13.9
      vertex 48.9943 122.442 4
      vertex 47.0657 122.442 4
    endloop
  endfacet
  facet normal 0.464725 0.885455 -0
    outer loop
      vertex 52.5745 121.084 4
      vertex 50.8668 121.98 13.9
      vertex 52.5745 121.084 13.9
    endloop
  endfacet
  facet normal 0.464725 0.885455 0
    outer loop
      vertex 50.8668 121.98 13.9
      vertex 52.5745 121.084 4
      vertex 50.8668 121.98 4
    endloop
  endfacet
  facet normal -0.992709 0.120538 0
    outer loop
      vertex 40.03 114.5 4
      vertex 40.2625 116.415 13.9
      vertex 40.2625 116.415 4
    endloop
  endfacet
  facet normal -0.992709 0.120538 0
    outer loop
      vertex 40.2625 116.415 13.9
      vertex 40.03 114.5 4
      vertex 40.03 114.5 13.9
    endloop
  endfacet
  facet normal 0 0 1
    outer loop
      vertex 55.7975 116.415 13.9
      vertex 55.7975 112.585 13.9
      vertex 56.03 114.5 13.9
    endloop
  endfacet
  facet normal 0 0 1
    outer loop
      vertex 55.1136 118.218 13.9
      vertex 55.7975 112.585 13.9
      vertex 55.7975 116.415 13.9
    endloop
  endfacet
  facet normal 0 0 1
    outer loop
      vertex 55.1136 118.218 13.9
      vertex 55.1136 110.782 13.9
      vertex 55.7975 112.585 13.9
    endloop
  endfacet
  facet normal 0 0 1
    outer loop
      vertex 54.0181 119.805 13.9
      vertex 55.1136 110.782 13.9
      vertex 55.1136 118.218 13.9
    endloop
  endfacet
  facet normal 0 0 1
    outer loop
      vertex 54.0181 119.805 13.9
      vertex 54.0181 109.195 13.9
      vertex 55.1136 110.782 13.9
    endloop
  endfacet
  facet normal 0 0 1
    outer loop
      vertex 52.5745 121.084 13.9
      vertex 54.0181 109.195 13.9
      vertex 54.0181 119.805 13.9
    endloop
  endfacet
  facet normal 0 0 1
    outer loop
      vertex 52.5745 121.084 13.9
      vertex 52.5745 107.916 13.9
      vertex 54.0181 109.195 13.9
    endloop
  endfacet
  facet normal 0 0 1
    outer loop
      vertex 50.8668 121.98 13.9
      vertex 52.5745 107.916 13.9
      vertex 52.5745 121.084 13.9
    endloop
  endfacet
  facet normal 0 0 1
    outer loop
      vertex 50.8668 121.98 13.9
      vertex 50.8668 107.02 13.9
      vertex 52.5745 107.916 13.9
    endloop
  endfacet
  facet normal 0 0 1
    outer loop
      vertex 48.9943 122.442 13.9
      vertex 50.8668 107.02 13.9
      vertex 50.8668 121.98 13.9
    endloop
  endfacet
  facet normal 0 0 1
    outer loop
      vertex 48.9943 122.442 13.9
      vertex 48.9943 106.558 13.9
      vertex 50.8668 107.02 13.9
    endloop
  endfacet
  facet normal -0 0 1
    outer loop
      vertex 47.0657 122.442 13.9
      vertex 48.9943 106.558 13.9
      vertex 48.9943 122.442 13.9
    endloop
  endfacet
  facet normal 0 0 1
    outer loop
      vertex 47.0657 122.442 13.9
      vertex 47.0657 106.558 13.9
      vertex 48.9943 106.558 13.9
    endloop
  endfacet
  facet normal -0 0 1
    outer loop
      vertex 45.1932 121.98 13.9
      vertex 47.0657 106.558 13.9
      vertex 47.0657 122.442 13.9
    endloop
  endfacet
  facet normal 0 0 1
    outer loop
      vertex 45.1932 121.98 13.9
      vertex 45.1932 107.02 13.9
      vertex 47.0657 106.558 13.9
    endloop
  endfacet
  facet normal -0 0 1
    outer loop
      vertex 43.4855 121.084 13.9
      vertex 45.1932 107.02 13.9
      vertex 45.1932 121.98 13.9
    endloop
  endfacet
  facet normal 0 0 1
    outer loop
      vertex 43.4855 121.084 13.9
      vertex 43.4855 107.916 13.9
      vertex 45.1932 107.02 13.9
    endloop
  endfacet
  facet normal -0 0 1
    outer loop
      vertex 42.0419 119.805 13.9
      vertex 43.4855 107.916 13.9
      vertex 43.4855 121.084 13.9
    endloop
  endfacet
  facet normal 0 0 1
    outer loop
      vertex 42.0419 119.805 13.9
      vertex 42.0419 109.195 13.9
      vertex 43.4855 107.916 13.9
    endloop
  endfacet
  facet normal -0 0 1
    outer loop
      vertex 40.9464 118.218 13.9
      vertex 42.0419 109.195 13.9
      vertex 42.0419 119.805 13.9
    endloop
  endfacet
  facet normal 0 0 1
    outer loop
      vertex 40.9464 118.218 13.9
      vertex 40.9464 110.782 13.9
      vertex 42.0419 109.195 13.9
    endloop
  endfacet
  facet normal -0 0 1
    outer loop
      vertex 40.2625 116.415 13.9
      vertex 40.9464 110.782 13.9
      vertex 40.9464 118.218 13.9
    endloop
  endfacet
  facet normal 0 0 1
    outer loop
      vertex 40.2625 116.415 13.9
      vertex 40.2625 112.585 13.9
      vertex 40.9464 110.782 13.9
    endloop
  endfacet
  facet normal 0 -0 1
    outer loop
      vertex 40.2625 112.585 13.9
      vertex 40.2625 116.415 13.9
      vertex 40.03 114.5 13.9
    endloop
  endfacet
  facet normal -0.663124 0.748509 0
    outer loop
      vertex 43.4855 121.084 4
      vertex 42.0419 119.805 13.9
      vertex 43.4855 121.084 13.9
    endloop
  endfacet
  facet normal -0.663124 0.748509 0
    outer loop
      vertex 42.0419 119.805 13.9
      vertex 43.4855 121.084 4
      vertex 42.0419 119.805 4
    endloop
  endfacet
  facet normal 0.992709 -0.120536 0
    outer loop
      vertex 55.7975 112.585 13.9
      vertex 56.03 114.5 4
      vertex 56.03 114.5 13.9
    endloop
  endfacet
  facet normal 0.992709 -0.120536 0
    outer loop
      vertex 56.03 114.5 4
      vertex 55.7975 112.585 13.9
      vertex 55.7975 112.585 4
    endloop
  endfacet
  facet normal 0.239316 -0.970942 0
    outer loop
      vertex 48.9943 106.558 4
      vertex 50.8668 107.02 13.9
      vertex 48.9943 106.558 13.9
    endloop
  endfacet
  facet normal 0.239316 -0.970942 0
    outer loop
      vertex 50.8668 107.02 13.9
      vertex 48.9943 106.558 4
      vertex 50.8668 107.02 4
    endloop
  endfacet
  facet normal 0.663121 -0.748512 0
    outer loop
      vertex 52.5745 107.916 4
      vertex 54.0181 109.195 13.9
      vertex 52.5745 107.916 13.9
    endloop
  endfacet
  facet normal 0.663121 -0.748512 0
    outer loop
      vertex 54.0181 109.195 13.9
      vertex 52.5745 107.916 4
      vertex 54.0181 109.195 4
    endloop
  endfacet
  facet normal -0.464725 -0.885455 0
    outer loop
      vertex 43.4855 107.916 4
      vertex 45.1932 107.02 13.9
      vertex 43.4855 107.916 13.9
    endloop
  endfacet
  facet normal -0.464725 -0.885455 -0
    outer loop
      vertex 45.1932 107.02 13.9
      vertex 43.4855 107.916 4
      vertex 45.1932 107.02 4
    endloop
  endfacet
  facet normal 0 -1 0
    outer loop
      vertex 47.0657 106.558 4
      vertex 48.9943 106.558 13.9
      vertex 47.0657 106.558 13.9
    endloop
  endfacet
  facet normal 0 -1 -0
    outer loop
      vertex 48.9943 106.558 13.9
      vertex 47.0657 106.558 4
      vertex 48.9943 106.558 4
    endloop
  endfacet
  facet normal -0.822983 -0.568066 0
    outer loop
      vertex 42.0419 109.195 4
      vertex 40.9464 110.782 13.9
      vertex 40.9464 110.782 4
    endloop
  endfacet
  facet normal -0.822983 -0.568066 0
    outer loop
      vertex 40.9464 110.782 13.9
      vertex 42.0419 109.195 4
      vertex 42.0419 109.195 13.9
    endloop
  endfacet
  facet normal 0.464725 -0.885455 0
    outer loop
      vertex 50.8668 107.02 4
      vertex 52.5745 107.916 13.9
      vertex 50.8668 107.02 13.9
    endloop
  endfacet
  facet normal 0.464725 -0.885455 0
    outer loop
      vertex 52.5745 107.916 13.9
      vertex 50.8668 107.02 4
      vertex 52.5745 107.916 4
    endloop
  endfacet
  facet normal 0.935016 -0.354605 0
    outer loop
      vertex 55.1136 110.782 13.9
      vertex 55.7975 112.585 4
      vertex 55.7975 112.585 13.9
    endloop
  endfacet
  facet normal 0.935016 -0.354605 0
    outer loop
      vertex 55.7975 112.585 4
      vertex 55.1136 110.782 13.9
      vertex 55.1136 110.782 4
    endloop
  endfacet
  facet normal 0.822984 -0.568065 0
    outer loop
      vertex 54.0181 109.195 13.9
      vertex 55.1136 110.782 4
      vertex 55.1136 110.782 13.9
    endloop
  endfacet
  facet normal 0.822984 -0.568065 0
    outer loop
      vertex 55.1136 110.782 4
      vertex 54.0181 109.195 13.9
      vertex 54.0181 109.195 4
    endloop
  endfacet
  facet normal -0.239316 -0.970942 0
    outer loop
      vertex 45.1932 107.02 4
      vertex 47.0657 106.558 13.9
      vertex 45.1932 107.02 13.9
    endloop
  endfacet
  facet normal -0.239316 -0.970942 -0
    outer loop
      vertex 47.0657 106.558 13.9
      vertex 45.1932 107.02 4
      vertex 47.0657 106.558 4
    endloop
  endfacet
endsolid OpenSCAD_Model
