solid OpenSCAD_Model
  facet normal 0 0 -1
    outer loop
      vertex -11.5996 -4.2998 -4
      vertex -6.2002 0 -4
      vertex -6.2002 -4.2998 -4
    endloop
  endfacet
  facet normal -0 0 -1
    outer loop
      vertex -6.2002 0 -4
      vertex -11.5996 -4.2998 -4
      vertex -11 5 -4
    endloop
  endfacet
  facet normal 0 0 -1
    outer loop
      vertex -8 -46 -4
      vertex 0 -40.0996 -4
      vertex 2 -46 -4
    endloop
  endfacet
  facet normal -0 0 -1
    outer loop
      vertex 0 -40.0996 -4
      vertex -8 -46 -4
      vertex -8 -40.0996 -4
    endloop
  endfacet
  facet normal 0 0 -1
    outer loop
      vertex 60.293 112.365 -4
      vertex 60.0576 117.414 -4
      vertex 60.4336 114.902 -4
    endloop
  endfacet
  facet normal 0 0 -1
    outer loop
      vertex 59.6426 109.91 -4
      vertex 60.0576 117.414 -4
      vertex 60.293 112.365 -4
    endloop
  endfacet
  facet normal 0 0 -1
    outer loop
      vertex 59.6426 109.91 -4
      vertex 59.1826 119.799 -4
      vertex 60.0576 117.414 -4
    endloop
  endfacet
  facet normal 0 0 -1
    outer loop
      vertex 58.5098 107.637 -4
      vertex 59.1826 119.799 -4
      vertex 59.6426 109.91 -4
    endloop
  endfacet
  facet normal 0 0 -1
    outer loop
      vertex 58.5098 107.637 -4
      vertex 57.8428 121.957 -4
      vertex 59.1826 119.799 -4
    endloop
  endfacet
  facet normal 0 0 -1
    outer loop
      vertex 56.9404 105.639 -4
      vertex 57.8428 121.957 -4
      vertex 58.5098 107.637 -4
    endloop
  endfacet
  facet normal 0 0 -1
    outer loop
      vertex 56.9404 105.639 -4
      vertex 56.0947 123.8 -4
      vertex 57.8428 121.957 -4
    endloop
  endfacet
  facet normal 0 0 -1
    outer loop
      vertex 55 104 -4
      vertex 56.0947 123.8 -4
      vertex 56.9404 105.639 -4
    endloop
  endfacet
  facet normal 0 0 -1
    outer loop
      vertex 55 104 -4
      vertex 54.0098 125.251 -4
      vertex 56.0947 123.8 -4
    endloop
  endfacet
  facet normal 0 0 -1
    outer loop
      vertex 55 104 -4
      vertex 51.6748 126.251 -4
      vertex 54.0098 125.251 -4
    endloop
  endfacet
  facet normal 0 0 -1
    outer loop
      vertex 55 104 -4
      vertex 49.1855 126.759 -4
      vertex 51.6748 126.251 -4
    endloop
  endfacet
  facet normal 0 0 -1
    outer loop
      vertex 55 104 -4
      vertex 46.6455 126.752 -4
      vertex 49.1855 126.759 -4
    endloop
  endfacet
  facet normal 0 0 -1
    outer loop
      vertex 55 104 -4
      vertex 44.1592 126.232 -4
      vertex 46.6455 126.752 -4
    endloop
  endfacet
  facet normal 0 0 -1
    outer loop
      vertex 55 104 -4
      vertex 41.8291 125.221 -4
      vertex 44.1592 126.232 -4
    endloop
  endfacet
  facet normal 0 0 -1
    outer loop
      vertex 55 104 -4
      vertex 39.752 123.759 -4
      vertex 41.8291 125.221 -4
    endloop
  endfacet
  facet normal 0 0 -1
    outer loop
      vertex 55 104 -4
      vertex 38.0127 121.907 -4
      vertex 39.752 123.759 -4
    endloop
  endfacet
  facet normal 0 0 -1
    outer loop
      vertex 55 104 -4
      vertex 36.6836 119.742 -4
      vertex 38.0127 121.907 -4
    endloop
  endfacet
  facet normal 0 0 -1
    outer loop
      vertex 55 104 -4
      vertex 35.8203 117.353 -4
      vertex 36.6836 119.742 -4
    endloop
  endfacet
  facet normal 0 0 -1
    outer loop
      vertex 55 104 -4
      vertex 35.6104 112.304 -4
      vertex 35.8203 117.353 -4
    endloop
  endfacet
  facet normal 0 0 -1
    outer loop
      vertex 17.8486 18.1387 -4
      vertex 35.6104 112.304 -4
      vertex 55 104 -4
    endloop
  endfacet
  facet normal 0 0 -1
    outer loop
      vertex 0 0 -4
      vertex 17.8486 18.1387 -4
      vertex 5 -41 -4
    endloop
  endfacet
  facet normal 0 0 -1
    outer loop
      vertex 0 -40.0996 -4
      vertex 5 -41 -4
      vertex 2 -46 -4
    endloop
  endfacet
  facet normal 0 0 -1
    outer loop
      vertex 5 -41 -4
      vertex 0 -40.0996 -4
      vertex 0 0 -4
    endloop
  endfacet
  facet normal 0 0 -1
    outer loop
      vertex -3.48145 18.1152 -4
      vertex 17.8486 18.1387 -4
      vertex 0 0 -4
    endloop
  endfacet
  facet normal -0 0 -1
    outer loop
      vertex 17.8486 18.1387 -4
      vertex -3.48145 18.1152 -4
      vertex 35.6104 112.304 -4
    endloop
  endfacet
  facet normal 0 0 -1
    outer loop
      vertex -11 5 -4
      vertex 0 0 -4
      vertex -6.2002 0 -4
    endloop
  endfacet
  facet normal 0 0 -1
    outer loop
      vertex 0 0 -4
      vertex -11 5 -4
      vertex -3.48145 18.1152 -4
    endloop
  endfacet
  facet normal 0 0 -1
    outer loop
      vertex 35.8203 117.353 -4
      vertex 35.6104 112.304 -4
      vertex 35.458 114.839 -4
    endloop
  endfacet
  facet normal 0 0 1
    outer loop
      vertex 40.03 114.5 4
      vertex 35.458 114.839 4
      vertex 35.6104 112.304 4
    endloop
  endfacet
  facet normal 0 0 1
    outer loop
      vertex 5 -41 4
      vertex 0 -40.0996 4
      vertex 2 -46 4
    endloop
  endfacet
  facet normal 0 0 1
    outer loop
      vertex -8 -46 4
      vertex 0 -40.0996 4
      vertex -8 -40.0996 4
    endloop
  endfacet
  facet normal 0 0 1
    outer loop
      vertex 0 -40.0996 4
      vertex -8 -46 4
      vertex 2 -46 4
    endloop
  endfacet
  facet normal 0 0 1
    outer loop
      vertex 60.4336 114.902 4
      vertex 55.7975 116.415 4
      vertex 56.03 114.5 4
    endloop
  endfacet
  facet normal 0 0 1
    outer loop
      vertex 57.8428 121.957 4
      vertex 55.1136 118.218 4
      vertex 55.7975 116.415 4
    endloop
  endfacet
  facet normal 0 0 1
    outer loop
      vertex 57.8428 121.957 4
      vertex 54.0181 119.805 4
      vertex 55.1136 118.218 4
    endloop
  endfacet
  facet normal 0 0 1
    outer loop
      vertex 52.5745 121.084 4
      vertex 56.0947 123.8 4
      vertex 54.0098 125.251 4
    endloop
  endfacet
  facet normal 0 0 1
    outer loop
      vertex 56.0947 123.8 4
      vertex 52.5745 121.084 4
      vertex 54.0181 119.805 4
    endloop
  endfacet
  facet normal 0 0 1
    outer loop
      vertex 50.8668 121.98 4
      vertex 54.0098 125.251 4
      vertex 51.6748 126.251 4
    endloop
  endfacet
  facet normal 0 0 1
    outer loop
      vertex 54.0098 125.251 4
      vertex 50.8668 121.98 4
      vertex 52.5745 121.084 4
    endloop
  endfacet
  facet normal 0 0 1
    outer loop
      vertex 48.9943 122.442 4
      vertex 51.6748 126.251 4
      vertex 49.1855 126.759 4
    endloop
  endfacet
  facet normal 0 0 1
    outer loop
      vertex 51.6748 126.251 4
      vertex 48.9943 122.442 4
      vertex 50.8668 121.98 4
    endloop
  endfacet
  facet normal 0 0 1
    outer loop
      vertex 49.1855 126.759 4
      vertex 47.0657 122.442 4
      vertex 48.9943 122.442 4
    endloop
  endfacet
  facet normal -0 0 1
    outer loop
      vertex 46.6455 126.752 4
      vertex 47.0657 122.442 4
      vertex 49.1855 126.759 4
    endloop
  endfacet
  facet normal -0 0 1
    outer loop
      vertex 44.1592 126.232 4
      vertex 47.0657 122.442 4
      vertex 46.6455 126.752 4
    endloop
  endfacet
  facet normal 0 0 1
    outer loop
      vertex 47.0657 122.442 4
      vertex 44.1592 126.232 4
      vertex 45.1932 121.98 4
    endloop
  endfacet
  facet normal -0 0 1
    outer loop
      vertex 41.8291 125.221 4
      vertex 45.1932 121.98 4
      vertex 44.1592 126.232 4
    endloop
  endfacet
  facet normal 0 0 1
    outer loop
      vertex 45.1932 121.98 4
      vertex 41.8291 125.221 4
      vertex 43.4855 121.084 4
    endloop
  endfacet
  facet normal -0 0 1
    outer loop
      vertex 39.752 123.759 4
      vertex 43.4855 121.084 4
      vertex 41.8291 125.221 4
    endloop
  endfacet
  facet normal 0 0 1
    outer loop
      vertex 43.4855 121.084 4
      vertex 39.752 123.759 4
      vertex 42.0419 119.805 4
    endloop
  endfacet
  facet normal -0 0 1
    outer loop
      vertex 38.0127 121.907 4
      vertex 42.0419 119.805 4
      vertex 39.752 123.759 4
    endloop
  endfacet
  facet normal -0 0 1
    outer loop
      vertex 36.6836 119.742 4
      vertex 40.9464 118.218 4
      vertex 38.0127 121.907 4
    endloop
  endfacet
  facet normal 0 0 1
    outer loop
      vertex 42.0419 119.805 4
      vertex 38.0127 121.907 4
      vertex 40.9464 118.218 4
    endloop
  endfacet
  facet normal -0 0 1
    outer loop
      vertex 55.7975 116.415 4
      vertex 60.4336 114.902 4
      vertex 60.0576 117.414 4
    endloop
  endfacet
  facet normal 0 0 1
    outer loop
      vertex 60.4336 114.902 4
      vertex 56.03 114.5 4
      vertex 60.293 112.365 4
    endloop
  endfacet
  facet normal 0 0 1
    outer loop
      vertex 55.7975 116.415 4
      vertex 60.0576 117.414 4
      vertex 59.1826 119.799 4
    endloop
  endfacet
  facet normal -0 0 1
    outer loop
      vertex 55.7975 112.585 4
      vertex 60.293 112.365 4
      vertex 56.03 114.5 4
    endloop
  endfacet
  facet normal 0 0 1
    outer loop
      vertex 55.7975 116.415 4
      vertex 59.1826 119.799 4
      vertex 57.8428 121.957 4
    endloop
  endfacet
  facet normal 0 0 1
    outer loop
      vertex 60.293 112.365 4
      vertex 55.7975 112.585 4
      vertex 59.6426 109.91 4
    endloop
  endfacet
  facet normal 0 0 1
    outer loop
      vertex 54.0181 119.805 4
      vertex 57.8428 121.957 4
      vertex 56.0947 123.8 4
    endloop
  endfacet
  facet normal -0 0 1
    outer loop
      vertex 55.1136 110.782 4
      vertex 59.6426 109.91 4
      vertex 55.7975 112.585 4
    endloop
  endfacet
  facet normal 0 0 1
    outer loop
      vertex 59.6426 109.91 4
      vertex 55.1136 110.782 4
      vertex 58.5098 107.637 4
    endloop
  endfacet
  facet normal -0 0 1
    outer loop
      vertex 54.0181 109.195 4
      vertex 58.5098 107.637 4
      vertex 55.1136 110.782 4
    endloop
  endfacet
  facet normal 0 0 1
    outer loop
      vertex 58.5098 107.637 4
      vertex 54.0181 109.195 4
      vertex 56.9404 105.639 4
    endloop
  endfacet
  facet normal -0 0 1
    outer loop
      vertex 52.5745 107.916 4
      vertex 56.9404 105.639 4
      vertex 54.0181 109.195 4
    endloop
  endfacet
  facet normal 0 0 1
    outer loop
      vertex 56.9404 105.639 4
      vertex 52.5745 107.916 4
      vertex 55 104 4
    endloop
  endfacet
  facet normal -0 0 1
    outer loop
      vertex 50.8668 107.02 4
      vertex 55 104 4
      vertex 52.5745 107.916 4
    endloop
  endfacet
  facet normal -0 0 1
    outer loop
      vertex 48.9943 106.558 4
      vertex 55 104 4
      vertex 50.8668 107.02 4
    endloop
  endfacet
  facet normal -0 0 1
    outer loop
      vertex 47.0657 106.558 4
      vertex 55 104 4
      vertex 48.9943 106.558 4
    endloop
  endfacet
  facet normal 0 0 1
    outer loop
      vertex 17.8486 18.1387 4
      vertex 47.0657 106.558 4
      vertex 45.1932 107.02 4
    endloop
  endfacet
  facet normal 0 0 1
    outer loop
      vertex 40.9464 118.218 4
      vertex 36.6836 119.742 4
      vertex 40.2625 116.415 4
    endloop
  endfacet
  facet normal -0 0 1
    outer loop
      vertex 35.8203 117.353 4
      vertex 40.2625 116.415 4
      vertex 36.6836 119.742 4
    endloop
  endfacet
  facet normal 0 0 1
    outer loop
      vertex 35.458 114.839 4
      vertex 40.2625 116.415 4
      vertex 35.8203 117.353 4
    endloop
  endfacet
  facet normal 0 0 1
    outer loop
      vertex 40.2625 116.415 4
      vertex 35.458 114.839 4
      vertex 40.03 114.5 4
    endloop
  endfacet
  facet normal 0 0 1
    outer loop
      vertex 40.03 114.5 4
      vertex 35.6104 112.304 4
      vertex 40.2625 112.585 4
    endloop
  endfacet
  facet normal 0 0 1
    outer loop
      vertex 40.2625 112.585 4
      vertex 35.6104 112.304 4
      vertex 40.9464 110.782 4
    endloop
  endfacet
  facet normal 0 0 1
    outer loop
      vertex 40.9464 110.782 4
      vertex 35.6104 112.304 4
      vertex 42.0419 109.195 4
    endloop
  endfacet
  facet normal 0 0 1
    outer loop
      vertex 35.6104 112.304 4
      vertex 43.4855 107.916 4
      vertex 42.0419 109.195 4
    endloop
  endfacet
  facet normal 0 0 1
    outer loop
      vertex 47.0657 106.558 4
      vertex 17.8486 18.1387 4
      vertex 55 104 4
    endloop
  endfacet
  facet normal 0 0 1
    outer loop
      vertex 43.4855 107.916 4
      vertex 17.8486 18.1387 4
      vertex 45.1932 107.02 4
    endloop
  endfacet
  facet normal 0 0 1
    outer loop
      vertex 35.6104 112.304 4
      vertex 17.8486 18.1387 4
      vertex 43.4855 107.916 4
    endloop
  endfacet
  facet normal 0 0 1
    outer loop
      vertex -3.48145 18.1152 4
      vertex 17.8486 18.1387 4
      vertex 35.6104 112.304 4
    endloop
  endfacet
  facet normal 0 0 1
    outer loop
      vertex 17.8486 18.1387 4
      vertex 0 0 4
      vertex 5 -41 4
    endloop
  endfacet
  facet normal -0 0 1
    outer loop
      vertex 0 -40.0996 4
      vertex 5 -41 4
      vertex 0 0 4
    endloop
  endfacet
  facet normal 0 0 1
    outer loop
      vertex 17.8486 18.1387 4
      vertex -3.48145 18.1152 4
      vertex 0 0 4
    endloop
  endfacet
  facet normal -0 0 1
    outer loop
      vertex -11 5 4
      vertex 0 0 4
      vertex -3.48145 18.1152 4
    endloop
  endfacet
  facet normal 0 0 1
    outer loop
      vertex 0 0 4
      vertex -11 5 4
      vertex -6.2002 0 4
    endloop
  endfacet
  facet normal 0 0 1
    outer loop
      vertex -11.5996 -4.2998 4
      vertex -6.2002 0 4
      vertex -11 5 4
    endloop
  endfacet
  facet normal 0 0 1
    outer loop
      vertex -6.2002 0 4
      vertex -11.5996 -4.2998 4
      vertex -6.2002 -4.2998 4
    endloop
  endfacet
  facet normal 0.977202 -0.21231 0
    outer loop
      vertex 5 -41 4
      vertex 17.8486 18.1387 -4
      vertex 17.8486 18.1387 4
    endloop
  endfacet
  facet normal 0.977202 -0.21231 0
    outer loop
      vertex 17.8486 18.1387 -4
      vertex 5 -41 4
      vertex 5 -41 -4
    endloop
  endfacet
  facet normal 0.917771 -0.397111 0
    outer loop
      vertex 17.8486 18.1387 4
      vertex 55 104 -4
      vertex 55 104 4
    endloop
  endfacet
  facet normal 0.917771 -0.397111 0
    outer loop
      vertex 55 104 -4
      vertex 17.8486 18.1387 4
      vertex 17.8486 18.1387 -4
    endloop
  endfacet
  facet normal 0.645201 -0.764013 0
    outer loop
      vertex 55 104 -4
      vertex 56.9404 105.639 4
      vertex 55 104 4
    endloop
  endfacet
  facet normal 0.645201 -0.764013 0
    outer loop
      vertex 56.9404 105.639 4
      vertex 55 104 -4
      vertex 56.9404 105.639 -4
    endloop
  endfacet
  facet normal 0.786425 -0.617686 0
    outer loop
      vertex 56.9404 105.639 4
      vertex 58.5098 107.637 -4
      vertex 58.5098 107.637 4
    endloop
  endfacet
  facet normal 0.786425 -0.617686 0
    outer loop
      vertex 58.5098 107.637 -4
      vertex 56.9404 105.639 4
      vertex 56.9404 105.639 -4
    endloop
  endfacet
  facet normal 0.895041 -0.445983 0
    outer loop
      vertex 58.5098 107.637 4
      vertex 59.6426 109.91 -4
      vertex 59.6426 109.91 4
    endloop
  endfacet
  facet normal 0.895041 -0.445983 0
    outer loop
      vertex 59.6426 109.91 -4
      vertex 58.5098 107.637 4
      vertex 58.5098 107.637 -4
    endloop
  endfacet
  facet normal 0.966655 -0.256083 0
    outer loop
      vertex 59.6426 109.91 4
      vertex 60.293 112.365 -4
      vertex 60.293 112.365 4
    endloop
  endfacet
  facet normal 0.966655 -0.256083 0
    outer loop
      vertex 60.293 112.365 -4
      vertex 59.6426 109.91 4
      vertex 59.6426 109.91 -4
    endloop
  endfacet
  facet normal 0.998467 -0.0553423 0
    outer loop
      vertex 60.293 112.365 4
      vertex 60.4336 114.902 -4
      vertex 60.4336 114.902 4
    endloop
  endfacet
  facet normal 0.998467 -0.0553423 0
    outer loop
      vertex 60.4336 114.902 -4
      vertex 60.293 112.365 4
      vertex 60.293 112.365 -4
    endloop
  endfacet
  facet normal 0.988981 0.14804 0
    outer loop
      vertex 60.4336 114.902 4
      vertex 60.0576 117.414 -4
      vertex 60.0576 117.414 4
    endloop
  endfacet
  facet normal 0.988981 0.14804 0
    outer loop
      vertex 60.0576 117.414 -4
      vertex 60.4336 114.902 4
      vertex 60.4336 114.902 -4
    endloop
  endfacet
  facet normal 0.938802 0.344458 0
    outer loop
      vertex 60.0576 117.414 4
      vertex 59.1826 119.799 -4
      vertex 59.1826 119.799 4
    endloop
  endfacet
  facet normal 0.938802 0.344458 0
    outer loop
      vertex 59.1826 119.799 -4
      vertex 60.0576 117.414 4
      vertex 60.0576 117.414 -4
    endloop
  endfacet
  facet normal 0.849593 0.527439 0
    outer loop
      vertex 59.1826 119.799 4
      vertex 57.8428 121.957 -4
      vertex 57.8428 121.957 4
    endloop
  endfacet
  facet normal 0.849593 0.527439 0
    outer loop
      vertex 57.8428 121.957 -4
      vertex 59.1826 119.799 4
      vertex 59.1826 119.799 -4
    endloop
  endfacet
  facet normal 0.725508 0.688214 0
    outer loop
      vertex 57.8428 121.957 4
      vertex 56.0947 123.8 -4
      vertex 56.0947 123.8 4
    endloop
  endfacet
  facet normal 0.725508 0.688214 0
    outer loop
      vertex 56.0947 123.8 -4
      vertex 57.8428 121.957 4
      vertex 57.8428 121.957 -4
    endloop
  endfacet
  facet normal 0.571267 0.820764 -0
    outer loop
      vertex 56.0947 123.8 -4
      vertex 54.0098 125.251 4
      vertex 56.0947 123.8 4
    endloop
  endfacet
  facet normal 0.571267 0.820764 0
    outer loop
      vertex 54.0098 125.251 4
      vertex 56.0947 123.8 -4
      vertex 54.0098 125.251 -4
    endloop
  endfacet
  facet normal 0.393687 0.919244 -0
    outer loop
      vertex 54.0098 125.251 -4
      vertex 51.6748 126.251 4
      vertex 54.0098 125.251 4
    endloop
  endfacet
  facet normal 0.393687 0.919244 0
    outer loop
      vertex 51.6748 126.251 4
      vertex 54.0098 125.251 -4
      vertex 51.6748 126.251 -4
    endloop
  endfacet
  facet normal 0.199885 0.979819 -0
    outer loop
      vertex 51.6748 126.251 -4
      vertex 49.1855 126.759 4
      vertex 51.6748 126.251 4
    endloop
  endfacet
  facet normal 0.199885 0.979819 0
    outer loop
      vertex 49.1855 126.759 4
      vertex 51.6748 126.251 -4
      vertex 49.1855 126.759 -4
    endloop
  endfacet
  facet normal -0.00269126 0.999996 0
    outer loop
      vertex 49.1855 126.759 -4
      vertex 46.6455 126.752 4
      vertex 49.1855 126.759 4
    endloop
  endfacet
  facet normal -0.00269126 0.999996 0
    outer loop
      vertex 46.6455 126.752 4
      vertex 49.1855 126.759 -4
      vertex 46.6455 126.752 -4
    endloop
  endfacet
  facet normal -0.204538 0.978859 0
    outer loop
      vertex 46.6455 126.752 -4
      vertex 44.1592 126.232 4
      vertex 46.6455 126.752 4
    endloop
  endfacet
  facet normal -0.204538 0.978859 0
    outer loop
      vertex 44.1592 126.232 4
      vertex 46.6455 126.752 -4
      vertex 44.1592 126.232 -4
    endloop
  endfacet
  facet normal -0.398276 0.917266 0
    outer loop
      vertex 44.1592 126.232 -4
      vertex 41.8291 125.221 4
      vertex 44.1592 126.232 4
    endloop
  endfacet
  facet normal -0.398276 0.917266 0
    outer loop
      vertex 41.8291 125.221 4
      vertex 44.1592 126.232 -4
      vertex 41.8291 125.221 -4
    endloop
  endfacet
  facet normal -0.575551 0.817766 0
    outer loop
      vertex 41.8291 125.221 -4
      vertex 39.752 123.759 4
      vertex 41.8291 125.221 4
    endloop
  endfacet
  facet normal -0.575551 0.817766 0
    outer loop
      vertex 39.752 123.759 4
      vertex 41.8291 125.221 -4
      vertex 39.752 123.759 -4
    endloop
  endfacet
  facet normal -0.728866 0.684657 0
    outer loop
      vertex 38.0127 121.907 -4
      vertex 39.752 123.759 4
      vertex 39.752 123.759 -4
    endloop
  endfacet
  facet normal -0.728866 0.684657 0
    outer loop
      vertex 39.752 123.759 4
      vertex 38.0127 121.907 -4
      vertex 38.0127 121.907 4
    endloop
  endfacet
  facet normal -0.852225 0.523175 0
    outer loop
      vertex 36.6836 119.742 -4
      vertex 38.0127 121.907 4
      vertex 38.0127 121.907 -4
    endloop
  endfacet
  facet normal -0.852225 0.523175 0
    outer loop
      vertex 38.0127 121.907 4
      vertex 36.6836 119.742 -4
      vertex 36.6836 119.742 4
    endloop
  endfacet
  facet normal -0.94051 0.339767 0
    outer loop
      vertex 35.8203 117.353 -4
      vertex 36.6836 119.742 4
      vertex 36.6836 119.742 -4
    endloop
  endfacet
  facet normal -0.94051 0.339767 0
    outer loop
      vertex 36.6836 119.742 4
      vertex 35.8203 117.353 -4
      vertex 35.8203 117.353 4
    endloop
  endfacet
  facet normal -0.989772 0.142659 0
    outer loop
      vertex 35.458 114.839 -4
      vertex 35.8203 117.353 4
      vertex 35.8203 117.353 -4
    endloop
  endfacet
  facet normal -0.989772 0.142659 0
    outer loop
      vertex 35.8203 117.353 4
      vertex 35.458 114.839 -4
      vertex 35.458 114.839 4
    endloop
  endfacet
  facet normal -0.998199 -0.0599842 0
    outer loop
      vertex 35.6104 112.304 -4
      vertex 35.458 114.839 4
      vertex 35.458 114.839 -4
    endloop
  endfacet
  facet normal -0.998199 -0.0599842 0
    outer loop
      vertex 35.458 114.839 4
      vertex 35.6104 112.304 -4
      vertex 35.6104 112.304 4
    endloop
  endfacet
  facet normal -0.92361 0.383333 0
    outer loop
      vertex -3.48145 18.1152 -4
      vertex 35.6104 112.304 4
      vertex 35.6104 112.304 -4
    endloop
  endfacet
  facet normal -0.92361 0.383333 0
    outer loop
      vertex 35.6104 112.304 4
      vertex -3.48145 18.1152 -4
      vertex -3.48145 18.1152 4
    endloop
  endfacet
  facet normal -0.867555 0.497342 0
    outer loop
      vertex -11 5 -4
      vertex -3.48145 18.1152 4
      vertex -3.48145 18.1152 -4
    endloop
  endfacet
  facet normal -0.867555 0.497342 0
    outer loop
      vertex -3.48145 18.1152 4
      vertex -11 5 -4
      vertex -11 5 4
    endloop
  endfacet
  facet normal -0.997928 0.0643419 0
    outer loop
      vertex -11.5996 -4.2998 -4
      vertex -11 5 4
      vertex -11 5 -4
    endloop
  endfacet
  facet normal -0.997928 0.0643419 0
    outer loop
      vertex -11 5 4
      vertex -11.5996 -4.2998 -4
      vertex -11.5996 -4.2998 4
    endloop
  endfacet
  facet normal 0 -1 0
    outer loop
      vertex -11.5996 -4.2998 -4
      vertex -6.2002 -4.2998 4
      vertex -11.5996 -4.2998 4
    endloop
  endfacet
  facet normal 0 -1 -0
    outer loop
      vertex -6.2002 -4.2998 4
      vertex -11.5996 -4.2998 -4
      vertex -6.2002 -4.2998 -4
    endloop
  endfacet
  facet normal 1 -0 0
    outer loop
      vertex -6.2002 -4.2998 4
      vertex -6.2002 0 -4
      vertex -6.2002 0 4
    endloop
  endfacet
  facet normal 1 0 0
    outer loop
      vertex -6.2002 0 -4
      vertex -6.2002 -4.2998 4
      vertex -6.2002 -4.2998 -4
    endloop
  endfacet
  facet normal 0 -1 0
    outer loop
      vertex -6.2002 0 -4
      vertex 0 0 4
      vertex -6.2002 0 4
    endloop
  endfacet
  facet normal 0 -1 -0
    outer loop
      vertex 0 0 4
      vertex -6.2002 0 -4
      vertex 0 0 -4
    endloop
  endfacet
  facet normal -1 0 0
    outer loop
      vertex 0 -40.0996 -4
      vertex 0 0 4
      vertex 0 0 -4
    endloop
  endfacet
  facet normal -1 -0 0
    outer loop
      vertex 0 0 4
      vertex 0 -40.0996 -4
      vertex 0 -40.0996 4
    endloop
  endfacet
  facet normal 0 1 -0
    outer loop
      vertex 0 -40.0996 -4
      vertex -8 -40.0996 4
      vertex 0 -40.0996 4
    endloop
  endfacet
  facet normal 0 1 0
    outer loop
      vertex -8 -40.0996 4
      vertex 0 -40.0996 -4
      vertex -8 -40.0996 -4
    endloop
  endfacet
  facet normal -1 0 0
    outer loop
      vertex -8 -46 -4
      vertex -8 -40.0996 4
      vertex -8 -40.0996 -4
    endloop
  endfacet
  facet normal -1 -0 0
    outer loop
      vertex -8 -40.0996 4
      vertex -8 -46 -4
      vertex -8 -46 4
    endloop
  endfacet
  facet normal 0 -1 0
    outer loop
      vertex -8 -46 -4
      vertex 2 -46 4
      vertex -8 -46 4
    endloop
  endfacet
  facet normal 0 -1 -0
    outer loop
      vertex 2 -46 4
      vertex -8 -46 -4
      vertex 2 -46 -4
    endloop
  endfacet
  facet normal 0.857493 -0.514496 0
    outer loop
      vertex 2 -46 4
      vertex 5 -41 -4
      vertex 5 -41 4
    endloop
  endfacet
  facet normal 0.857493 -0.514496 0
    outer loop
      vertex 5 -41 -4
      vertex 2 -46 4
      vertex 2 -46 -4
    endloop
  endfacet
  facet normal 0.992709 0.120536 0
    outer loop
      vertex 56.03 114.5 13.9
      vertex 55.7975 116.415 4
      vertex 55.7975 116.415 13.9
    endloop
  endfacet
  facet normal 0.992709 0.120536 0
    outer loop
      vertex 55.7975 116.415 4
      vertex 56.03 114.5 13.9
      vertex 56.03 114.5 4
    endloop
  endfacet
  facet normal -0.239316 0.970942 0
    outer loop
      vertex 47.0657 122.442 4
      vertex 45.1932 121.98 13.9
      vertex 47.0657 122.442 13.9
    endloop
  endfacet
  facet normal -0.239316 0.970942 0
    outer loop
      vertex 45.1932 121.98 13.9
      vertex 47.0657 122.442 4
      vertex 45.1932 121.98 4
    endloop
  endfacet
  facet normal 0.663123 0.74851 -0
    outer loop
      vertex 54.0181 119.805 4
      vertex 52.5745 121.084 13.9
      vertex 54.0181 119.805 13.9
    endloop
  endfacet
  facet normal 0.663123 0.74851 0
    outer loop
      vertex 52.5745 121.084 13.9
      vertex 54.0181 119.805 4
      vertex 52.5745 121.084 4
    endloop
  endfacet
  facet normal -0.822982 0.568068 0
    outer loop
      vertex 40.9464 118.218 4
      vertex 42.0419 119.805 13.9
      vertex 42.0419 119.805 4
    endloop
  endfacet
  facet normal -0.822982 0.568068 0
    outer loop
      vertex 42.0419 119.805 13.9
      vertex 40.9464 118.218 4
      vertex 40.9464 118.218 13.9
    endloop
  endfacet
  facet normal -0.935017 0.354604 0
    outer loop
      vertex 40.2625 116.415 4
      vertex 40.9464 118.218 13.9
      vertex 40.9464 118.218 4
    endloop
  endfacet
  facet normal -0.935017 0.354604 0
    outer loop
      vertex 40.9464 118.218 13.9
      vertex 40.2625 116.415 4
      vertex 40.2625 116.415 13.9
    endloop
  endfacet
  facet normal -0.464725 0.885455 0
    outer loop
      vertex 45.1932 121.98 4
      vertex 43.4855 121.084 13.9
      vertex 45.1932 121.98 13.9
    endloop
  endfacet
  facet normal -0.464725 0.885455 0
    outer loop
      vertex 43.4855 121.084 13.9
      vertex 45.1932 121.98 4
      vertex 43.4855 121.084 4
    endloop
  endfacet
  facet normal -0.935017 -0.354604 0
    outer loop
      vertex 40.9464 110.782 4
      vertex 40.2625 112.585 13.9
      vertex 40.2625 112.585 4
    endloop
  endfacet
  facet normal -0.935017 -0.354604 0
    outer loop
      vertex 40.2625 112.585 13.9
      vertex 40.9464 110.782 4
      vertex 40.9464 110.782 13.9
    endloop
  endfacet
  facet normal 0.822983 0.568066 0
    outer loop
      vertex 55.1136 118.218 13.9
      vertex 54.0181 119.805 4
      vertex 54.0181 119.805 13.9
    endloop
  endfacet
  facet normal 0.822983 0.568066 0
    outer loop
      vertex 54.0181 119.805 4
      vertex 55.1136 118.218 13.9
      vertex 55.1136 118.218 4
    endloop
  endfacet
  facet normal 0.935016 0.354605 0
    outer loop
      vertex 55.7975 116.415 13.9
      vertex 55.1136 118.218 4
      vertex 55.1136 118.218 13.9
    endloop
  endfacet
  facet normal 0.935016 0.354605 0
    outer loop
      vertex 55.1136 118.218 4
      vertex 55.7975 116.415 13.9
      vertex 55.7975 116.415 4
    endloop
  endfacet
  facet normal 0.239316 0.970942 -0
    outer loop
      vertex 50.8668 121.98 4
      vertex 48.9943 122.442 13.9
      vertex 50.8668 121.98 13.9
    endloop
  endfacet
  facet normal 0.239316 0.970942 0
    outer loop
      vertex 48.9943 122.442 13.9
      vertex 50.8668 121.98 4
      vertex 48.9943 122.442 4
    endloop
  endfacet
  facet normal 0 1 -0
    outer loop
      vertex 48.9943 122.442 4
      vertex 47.0657 122.442 13.9
      vertex 48.9943 122.442 13.9
    endloop
  endfacet
  facet normal 0 1 0
    outer loop
      vertex 47.0657 122.442 13.9
      vertex 48.9943 122.442 4
      vertex 47.0657 122.442 4
    endloop
  endfacet
  facet normal 0.464725 0.885455 -0
    outer loop
      vertex 52.5745 121.084 4
      vertex 50.8668 121.98 13.9
      vertex 52.5745 121.084 13.9
    endloop
  endfacet
  facet normal 0.464725 0.885455 0
    outer loop
      vertex 50.8668 121.98 13.9
      vertex 52.5745 121.084 4
      vertex 50.8668 121.98 4
    endloop
  endfacet
  facet normal -0.992709 0.120538 0
    outer loop
      vertex 40.03 114.5 4
      vertex 40.2625 116.415 13.9
      vertex 40.2625 116.415 4
    endloop
  endfacet
  facet normal -0.992709 0.120538 0
    outer loop
      vertex 40.2625 116.415 13.9
      vertex 40.03 114.5 4
      vertex 40.03 114.5 13.9
    endloop
  endfacet
  facet normal 0 0 1
    outer loop
      vertex 55.7975 116.415 13.9
      vertex 55.7975 112.585 13.9
      vertex 56.03 114.5 13.9
    endloop
  endfacet
  facet normal 0 0 1
    outer loop
      vertex 55.1136 118.218 13.9
      vertex 55.7975 112.585 13.9
      vertex 55.7975 116.415 13.9
    endloop
  endfacet
  facet normal 0 0 1
    outer loop
      vertex 55.1136 118.218 13.9
      vertex 55.1136 110.782 13.9
      vertex 55.7975 112.585 13.9
    endloop
  endfacet
  facet normal 0 0 1
    outer loop
      vertex 54.0181 119.805 13.9
      vertex 55.1136 110.782 13.9
      vertex 55.1136 118.218 13.9
    endloop
  endfacet
  facet normal 0 0 1
    outer loop
      vertex 54.0181 119.805 13.9
      vertex 54.0181 109.195 13.9
      vertex 55.1136 110.782 13.9
    endloop
  endfacet
  facet normal 0 0 1
    outer loop
      vertex 52.5745 121.084 13.9
      vertex 54.0181 109.195 13.9
      vertex 54.0181 119.805 13.9
    endloop
  endfacet
  facet normal 0 0 1
    outer loop
      vertex 52.5745 121.084 13.9
      vertex 52.5745 107.916 13.9
      vertex 54.0181 109.195 13.9
    endloop
  endfacet
  facet normal 0 0 1
    outer loop
      vertex 50.8668 121.98 13.9
      vertex 52.5745 107.916 13.9
      vertex 52.5745 121.084 13.9
    endloop
  endfacet
  facet normal 0 0 1
    outer loop
      vertex 50.8668 121.98 13.9
      vertex 50.8668 107.02 13.9
      vertex 52.5745 107.916 13.9
    endloop
  endfacet
  facet normal 0 0 1
    outer loop
      vertex 48.9943 122.442 13.9
      vertex 50.8668 107.02 13.9
      vertex 50.8668 121.98 13.9
    endloop
  endfacet
  facet normal 0 0 1
    outer loop
      vertex 48.9943 122.442 13.9
      vertex 48.9943 106.558 13.9
      vertex 50.8668 107.02 13.9
    endloop
  endfacet
  facet normal -0 0 1
    outer loop
      vertex 47.0657 122.442 13.9
      vertex 48.9943 106.558 13.9
      vertex 48.9943 122.442 13.9
    endloop
  endfacet
  facet normal 0 0 1
    outer loop
      vertex 47.0657 122.442 13.9
      vertex 47.0657 106.558 13.9
      vertex 48.9943 106.558 13.9
    endloop
  endfacet
  facet normal -0 0 1
    outer loop
      vertex 45.1932 121.98 13.9
      vertex 47.0657 106.558 13.9
      vertex 47.0657 122.442 13.9
    endloop
  endfacet
  facet normal 0 0 1
    outer loop
      vertex 45.1932 121.98 13.9
      vertex 45.1932 107.02 13.9
      vertex 47.0657 106.558 13.9
    endloop
  endfacet
  facet normal -0 0 1
    outer loop
      vertex 43.4855 121.084 13.9
      vertex 45.1932 107.02 13.9
      vertex 45.1932 121.98 13.9
    endloop
  endfacet
  facet normal 0 0 1
    outer loop
      vertex 43.4855 121.084 13.9
      vertex 43.4855 107.916 13.9
      vertex 45.1932 107.02 13.9
    endloop
  endfacet
  facet normal -0 0 1
    outer loop
      vertex 42.0419 119.805 13.9
      vertex 43.4855 107.916 13.9
      vertex 43.4855 121.084 13.9
    endloop
  endfacet
  facet normal 0 0 1
    outer loop
      vertex 42.0419 119.805 13.9
      vertex 42.0419 109.195 13.9
      vertex 43.4855 107.916 13.9
    endloop
  endfacet
  facet normal -0 0 1
    outer loop
      vertex 40.9464 118.218 13.9
      vertex 42.0419 109.195 13.9
      vertex 42.0419 119.805 13.9
    endloop
  endfacet
  facet normal 0 0 1
    outer loop
      vertex 40.9464 118.218 13.9
      vertex 40.9464 110.782 13.9
      vertex 42.0419 109.195 13.9
    endloop
  endfacet
  facet normal -0 0 1
    outer loop
      vertex 40.2625 116.415 13.9
      vertex 40.9464 110.782 13.9
      vertex 40.9464 118.218 13.9
    endloop
  endfacet
  facet normal 0 0 1
    outer loop
      vertex 40.2625 116.415 13.9
      vertex 40.2625 112.585 13.9
      vertex 40.9464 110.782 13.9
    endloop
  endfacet
  facet normal 0 -0 1
    outer loop
      vertex 40.2625 112.585 13.9
      vertex 40.2625 116.415 13.9
      vertex 40.03 114.5 13.9
    endloop
  endfacet
  facet normal -0.663124 0.748509 0
    outer loop
      vertex 43.4855 121.084 4
      vertex 42.0419 119.805 13.9
      vertex 43.4855 121.084 13.9
    endloop
  endfacet
  facet normal -0.663124 0.748509 0
    outer loop
      vertex 42.0419 119.805 13.9
      vertex 43.4855 121.084 4
      vertex 42.0419 119.805 4
    endloop
  endfacet
  facet normal 0.992709 -0.120536 0
    outer loop
      vertex 55.7975 112.585 13.9
      vertex 56.03 114.5 4
      vertex 56.03 114.5 13.9
    endloop
  endfacet
  facet normal 0.992709 -0.120536 0
    outer loop
      vertex 56.03 114.5 4
      vertex 55.7975 112.585 13.9
      vertex 55.7975 112.585 4
    endloop
  endfacet
  facet normal 0.239316 -0.970942 0
    outer loop
      vertex 48.9943 106.558 4
      vertex 50.8668 107.02 13.9
      vertex 48.9943 106.558 13.9
    endloop
  endfacet
  facet normal 0.239316 -0.970942 0
    outer loop
      vertex 50.8668 107.02 13.9
      vertex 48.9943 106.558 4
      vertex 50.8668 107.02 4
    endloop
  endfacet
  facet normal 0.663121 -0.748512 0
    outer loop
      vertex 52.5745 107.916 4
      vertex 54.0181 109.195 13.9
      vertex 52.5745 107.916 13.9
    endloop
  endfacet
  facet normal 0.663121 -0.748512 0
    outer loop
      vertex 54.0181 109.195 13.9
      vertex 52.5745 107.916 4
      vertex 54.0181 109.195 4
    endloop
  endfacet
  facet normal -0.464725 -0.885455 0
    outer loop
      vertex 43.4855 107.916 4
      vertex 45.1932 107.02 13.9
      vertex 43.4855 107.916 13.9
    endloop
  endfacet
  facet normal -0.464725 -0.885455 -0
    outer loop
      vertex 45.1932 107.02 13.9
      vertex 43.4855 107.916 4
      vertex 45.1932 107.02 4
    endloop
  endfacet
  facet normal 0 -1 0
    outer loop
      vertex 47.0657 106.558 4
      vertex 48.9943 106.558 13.9
      vertex 47.0657 106.558 13.9
    endloop
  endfacet
  facet normal 0 -1 -0
    outer loop
      vertex 48.9943 106.558 13.9
      vertex 47.0657 106.558 4
      vertex 48.9943 106.558 4
    endloop
  endfacet
  facet normal -0.822983 -0.568066 0
    outer loop
      vertex 42.0419 109.195 4
      vertex 40.9464 110.782 13.9
      vertex 40.9464 110.782 4
    endloop
  endfacet
  facet normal -0.822983 -0.568066 0
    outer loop
      vertex 40.9464 110.782 13.9
      vertex 42.0419 109.195 4
      vertex 42.0419 109.195 13.9
    endloop
  endfacet
  facet normal -0.992709 -0.120538 0
    outer loop
      vertex 40.2625 112.585 4
      vertex 40.03 114.5 13.9
      vertex 40.03 114.5 4
    endloop
  endfacet
  facet normal -0.992709 -0.120538 0
    outer loop
      vertex 40.03 114.5 13.9
      vertex 40.2625 112.585 4
      vertex 40.2625 112.585 13.9
    endloop
  endfacet
  facet normal 0.464725 -0.885455 0
    outer loop
      vertex 50.8668 107.02 4
      vertex 52.5745 107.916 13.9
      vertex 50.8668 107.02 13.9
    endloop
  endfacet
  facet normal 0.464725 -0.885455 0
    outer loop
      vertex 52.5745 107.916 13.9
      vertex 50.8668 107.02 4
      vertex 52.5745 107.916 4
    endloop
  endfacet
  facet normal 0.935016 -0.354605 0
    outer loop
      vertex 55.1136 110.782 13.9
      vertex 55.7975 112.585 4
      vertex 55.7975 112.585 13.9
    endloop
  endfacet
  facet normal 0.935016 -0.354605 0
    outer loop
      vertex 55.7975 112.585 4
      vertex 55.1136 110.782 13.9
      vertex 55.1136 110.782 4
    endloop
  endfacet
  facet normal 0.822984 -0.568065 0
    outer loop
      vertex 54.0181 109.195 13.9
      vertex 55.1136 110.782 4
      vertex 55.1136 110.782 13.9
    endloop
  endfacet
  facet normal 0.822984 -0.568065 0
    outer loop
      vertex 55.1136 110.782 4
      vertex 54.0181 109.195 13.9
      vertex 54.0181 109.195 4
    endloop
  endfacet
  facet normal -0.239316 -0.970942 0
    outer loop
      vertex 45.1932 107.02 4
      vertex 47.0657 106.558 13.9
      vertex 45.1932 107.02 13.9
    endloop
  endfacet
  facet normal -0.239316 -0.970942 -0
    outer loop
      vertex 47.0657 106.558 13.9
      vertex 45.1932 107.02 4
      vertex 47.0657 106.558 4
    endloop
  endfacet
  facet normal -0.663122 -0.748511 0
    outer loop
      vertex 42.0419 109.195 4
      vertex 43.4855 107.916 13.9
      vertex 42.0419 109.195 13.9
    endloop
  endfacet
  facet normal -0.663122 -0.748511 -0
    outer loop
      vertex 43.4855 107.916 13.9
      vertex 42.0419 109.195 4
      vertex 43.4855 107.916 4
    endloop
  endfacet
  facet normal 0 0 -1
    outer loop
      vertex -18.4582 -19.6203 -4
      vertex -18.7211 -14.573 -4
      vertex -18.3317 -17.0828 -4
    endloop
  endfacet
  facet normal 0 -0 -1
    outer loop
      vertex -18.7211 -14.573 -4
      vertex -18.4582 -19.6203 -4
      vertex -19.0947 -22.0793 -4
    endloop
  endfacet
  facet normal 0 0 -1
    outer loop
      vertex 8 100 -4
      vertex 38.672 127.663 -4
      vertex 9.57049 74.6008 -4
    endloop
  endfacet
  facet normal -0 0 -1
    outer loop
      vertex 38.672 127.663 -4
      vertex 8 100 -4
      vertex 34.3077 130.264 -4
    endloop
  endfacet
  facet normal 0 0 -1
    outer loop
      vertex -6.51214 88.6123 -4
      vertex 8 100 -4
      vertex 9.57049 74.6008 -4
    endloop
  endfacet
  facet normal -0 0 -1
    outer loop
      vertex 3.32065 104.068 -4
      vertex -3.5821 103.443 -4
      vertex 2.06659 110.855 -4
    endloop
  endfacet
  facet normal 0 -0 -1
    outer loop
      vertex -3.5821 103.443 -4
      vertex 8 100 -4
      vertex -6.51214 88.6123 -4
    endloop
  endfacet
  facet normal 0 0 -1
    outer loop
      vertex 8 100 -4
      vertex -3.5821 103.443 -4
      vertex 3.32065 104.068 -4
    endloop
  endfacet
  facet normal 0 0 -1
    outer loop
      vertex -38.8024 -8.11918 -4
      vertex 9.57049 74.6008 -4
      vertex -18.7211 -14.573 -4
    endloop
  endfacet
  facet normal 0 0 -1
    outer loop
      vertex -20.2145 -24.3589 -4
      vertex -18.7211 -14.573 -4
      vertex -19.0947 -22.0793 -4
    endloop
  endfacet
  facet normal 0 0 -1
    outer loop
      vertex -38.8024 -8.11918 -4
      vertex -18.7211 -14.573 -4
      vertex -20.2145 -24.3589 -4
    endloop
  endfacet
  facet normal 0 0 -1
    outer loop
      vertex -38.8024 -8.11918 -4
      vertex -20.2145 -24.3589 -4
      vertex -21.7729 -26.3659 -4
    endloop
  endfacet
  facet normal 0 0 -1
    outer loop
      vertex -38.8024 -8.11918 -4
      vertex -21.7729 -26.3659 -4
      vertex -23.7045 -28.0149 -4
    endloop
  endfacet
  facet normal 0 0 -1
    outer loop
      vertex -38.8024 -8.11918 -4
      vertex -23.7045 -28.0149 -4
      vertex -25.9294 -29.2406 -4
    endloop
  endfacet
  facet normal 0 0 -1
    outer loop
      vertex -38.8024 -8.11918 -4
      vertex -25.9294 -29.2406 -4
      vertex -28.3565 -29.9904 -4
    endloop
  endfacet
  facet normal 0 0 -1
    outer loop
      vertex -38.8024 -8.11918 -4
      vertex -28.3565 -29.9904 -4
      vertex -30.8848 -30.2344 -4
    endloop
  endfacet
  facet normal 0 0 -1
    outer loop
      vertex -38.8024 -8.11918 -4
      vertex -30.8848 -30.2344 -4
      vertex -33.4103 -29.9617 -4
    endloop
  endfacet
  facet normal 0 0 -1
    outer loop
      vertex -38.8024 -8.11918 -4
      vertex -33.4103 -29.9617 -4
      vertex -35.8286 -29.1845 -4
    endloop
  endfacet
  facet normal 0 0 -1
    outer loop
      vertex -38.8024 -8.11918 -4
      vertex -35.8286 -29.1845 -4
      vertex -38.0404 -27.9347 -4
    endloop
  endfacet
  facet normal -0 0 -1
    outer loop
      vertex 9.57049 74.6008 -4
      vertex -38.8024 -8.11918 -4
      vertex -6.51214 88.6123 -4
    endloop
  endfacet
  facet normal 0 0 -1
    outer loop
      vertex -39.953 -26.2631 -4
      vertex -38.8024 -8.11918 -4
      vertex -38.0404 -27.9347 -4
    endloop
  endfacet
  facet normal 0 0 -1
    outer loop
      vertex -39.953 -26.2631 -4
      vertex -40.5806 -9.93254 -4
      vertex -38.8024 -8.11918 -4
    endloop
  endfacet
  facet normal 0 0 -1
    outer loop
      vertex -41.4886 -24.2398 -4
      vertex -40.5806 -9.93254 -4
      vertex -39.953 -26.2631 -4
    endloop
  endfacet
  facet normal 0 0 -1
    outer loop
      vertex -41.4886 -24.2398 -4
      vertex -41.9563 -12.0673 -4
      vertex -40.5806 -9.93254 -4
    endloop
  endfacet
  facet normal 0 0 -1
    outer loop
      vertex -42.5833 -21.9476 -4
      vertex -41.9563 -12.0673 -4
      vertex -41.4886 -24.2398 -4
    endloop
  endfacet
  facet normal 0 0 -1
    outer loop
      vertex -42.5833 -21.9476 -4
      vertex -42.8725 -14.4372 -4
      vertex -41.9563 -12.0673 -4
    endloop
  endfacet
  facet normal 0 0 -1
    outer loop
      vertex -43.1919 -19.4816 -4
      vertex -42.8725 -14.4372 -4
      vertex -42.5833 -21.9476 -4
    endloop
  endfacet
  facet normal 0 0 -1
    outer loop
      vertex -42.8725 -14.4372 -4
      vertex -43.1919 -19.4816 -4
      vertex -43.2898 -16.9431 -4
    endloop
  endfacet
  facet normal 0 0 -1
    outer loop
      vertex 34.3077 130.264 -4
      vertex 39.6881 133.405 -4
      vertex 38.672 127.663 -4
    endloop
  endfacet
  facet normal 0 0 -1
    outer loop
      vertex 34.3077 130.264 -4
      vertex 32.141 139.965 -4
      vertex 39.6881 133.405 -4
    endloop
  endfacet
  facet normal 0 -0 -1
    outer loop
      vertex 32.141 139.965 -4
      vertex 34.3077 130.264 -4
      vertex 28.27 135.512 -4
    endloop
  endfacet
  facet normal -0 0 -1
    outer loop
      vertex 6.14158 107.313 -4
      vertex 3.32065 104.068 -4
      vertex 2.06659 110.855 -4
    endloop
  endfacet
  facet normal 0 0 1
    outer loop
      vertex 6.14158 107.313 4
      vertex 2.06659 110.855 4
      vertex 3.32065 104.068 4
    endloop
  endfacet
  facet normal 0 0 1
    outer loop
      vertex 39.6881 133.405 4
      vertex 34.3077 130.264 4
      vertex 38.672 127.663 4
    endloop
  endfacet
  facet normal 0 0 1
    outer loop
      vertex 32.141 139.965 4
      vertex 34.3077 130.264 4
      vertex 39.6881 133.405 4
    endloop
  endfacet
  facet normal 0 0 1
    outer loop
      vertex 34.3077 130.264 4
      vertex 32.141 139.965 4
      vertex 28.27 135.512 4
    endloop
  endfacet
  facet normal 0 0 1
    outer loop
      vertex 8 100 4
      vertex 38.672 127.663 4
      vertex 34.3077 130.264 4
    endloop
  endfacet
  facet normal 0 0 1
    outer loop
      vertex 38.672 127.663 4
      vertex 8 100 4
      vertex 9.57049 74.6008 4
    endloop
  endfacet
  facet normal -0 0 1
    outer loop
      vertex -3.5821 103.443 4
      vertex 8 100 4
      vertex 3.32065 104.068 4
    endloop
  endfacet
  facet normal 0 0 1
    outer loop
      vertex -3.5821 103.443 4
      vertex 3.32065 104.068 4
      vertex 2.06659 110.855 4
    endloop
  endfacet
  facet normal 0 0 1
    outer loop
      vertex 8 100 4
      vertex -3.5821 103.443 4
      vertex -6.51214 88.6123 4
    endloop
  endfacet
  facet normal 0 0 1
    outer loop
      vertex 8 100 4
      vertex -6.51214 88.6123 4
      vertex 9.57049 74.6008 4
    endloop
  endfacet
  facet normal 0 0 1
    outer loop
      vertex -38.8024 -8.11918 4
      vertex 9.57049 74.6008 4
      vertex -6.51214 88.6123 4
    endloop
  endfacet
  facet normal 0 0 1
    outer loop
      vertex -23.0849 -19.7662 4
      vertex -18.4582 -19.6203 4
      vertex -22.8704 -17.8496 4
    endloop
  endfacet
  facet normal 0 0 1
    outer loop
      vertex 9.57049 74.6008 4
      vertex -26.3876 -11.2985 4
      vertex -18.7211 -14.573 4
    endloop
  endfacet
  facet normal 0 -0 1
    outer loop
      vertex -22.8704 -17.8496 4
      vertex -18.7211 -14.573 4
      vertex -23.1209 -15.9373 4
    endloop
  endfacet
  facet normal -0 0 1
    outer loop
      vertex -23.7518 -21.5758 4
      vertex -19.0947 -22.0793 4
      vertex -23.0849 -19.7662 4
    endloop
  endfacet
  facet normal 0 0 1
    outer loop
      vertex -18.4582 -19.6203 4
      vertex -23.0849 -19.7662 4
      vertex -19.0947 -22.0793 4
    endloop
  endfacet
  facet normal 0 0 1
    outer loop
      vertex -18.7211 -14.573 4
      vertex -23.8217 -14.1406 4
      vertex -23.1209 -15.9373 4
    endloop
  endfacet
  facet normal 0 0 1
    outer loop
      vertex -18.7211 -14.573 4
      vertex -24.9321 -12.5637 4
      vertex -23.8217 -14.1406 4
    endloop
  endfacet
  facet normal 0 0 1
    outer loop
      vertex -18.7211 -14.573 4
      vertex -26.3876 -11.2985 4
      vertex -24.9321 -12.5637 4
    endloop
  endfacet
  facet normal 0 0 1
    outer loop
      vertex 9.57049 74.6008 4
      vertex -28.1036 -10.4183 4
      vertex -26.3876 -11.2985 4
    endloop
  endfacet
  facet normal 0 0 1
    outer loop
      vertex 9.57049 74.6008 4
      vertex -29.9804 -9.97438 4
      vertex -28.1036 -10.4183 4
    endloop
  endfacet
  facet normal 0 0 1
    outer loop
      vertex 9.57049 74.6008 4
      vertex -38.8024 -8.11918 4
      vertex -29.9804 -9.97438 4
    endloop
  endfacet
  facet normal 0 0 1
    outer loop
      vertex -29.9804 -9.97438 4
      vertex -38.8024 -8.11918 4
      vertex -31.9089 -9.9925 4
    endloop
  endfacet
  facet normal 0 0 1
    outer loop
      vertex -31.9089 -9.9925 4
      vertex -38.8024 -8.11918 4
      vertex -33.7771 -10.4716 4
    endloop
  endfacet
  facet normal 0 0 1
    outer loop
      vertex -33.7771 -10.4716 4
      vertex -38.8024 -8.11918 4
      vertex -35.4762 -11.3839 4
    endloop
  endfacet
  facet normal 0 0 1
    outer loop
      vertex -35.4762 -11.3839 4
      vertex -38.8024 -8.11918 4
      vertex -36.9077 -12.6763 4
    endloop
  endfacet
  facet normal -0 0 1
    outer loop
      vertex -40.5806 -9.93254 4
      vertex -36.9077 -12.6763 4
      vertex -38.8024 -8.11918 4
    endloop
  endfacet
  facet normal 0 0 1
    outer loop
      vertex -36.9077 -12.6763 4
      vertex -40.5806 -9.93254 4
      vertex -37.9883 -14.2737 4
    endloop
  endfacet
  facet normal -0 0 1
    outer loop
      vertex -41.9563 -12.0673 4
      vertex -37.9883 -14.2737 4
      vertex -40.5806 -9.93254 4
    endloop
  endfacet
  facet normal 0 0 1
    outer loop
      vertex -42.8725 -14.4372 4
      vertex -37.9883 -14.2737 4
      vertex -41.9563 -12.0673 4
    endloop
  endfacet
  facet normal 0 0 1
    outer loop
      vertex -37.9883 -14.2737 4
      vertex -42.8725 -14.4372 4
      vertex -38.6552 -16.0833 4
    endloop
  endfacet
  facet normal 0 0 1
    outer loop
      vertex -38.8697 -17.9999 4
      vertex -41.4886 -24.2398 4
      vertex -39.953 -26.2631 4
    endloop
  endfacet
  facet normal 0 0 1
    outer loop
      vertex -43.2898 -16.9431 4
      vertex -38.6552 -16.0833 4
      vertex -42.8725 -14.4372 4
    endloop
  endfacet
  facet normal 0 0 1
    outer loop
      vertex -38.8697 -17.9999 4
      vertex -42.5833 -21.9476 4
      vertex -41.4886 -24.2398 4
    endloop
  endfacet
  facet normal 0 0 1
    outer loop
      vertex -38.6552 -16.0833 4
      vertex -43.2898 -16.9431 4
      vertex -38.8697 -17.9999 4
    endloop
  endfacet
  facet normal 0 0 1
    outer loop
      vertex -38.8697 -17.9999 4
      vertex -43.1919 -19.4816 4
      vertex -42.5833 -21.9476 4
    endloop
  endfacet
  facet normal 0 0 1
    outer loop
      vertex -38.8697 -17.9999 4
      vertex -43.2898 -16.9431 4
      vertex -43.1919 -19.4816 4
    endloop
  endfacet
  facet normal 0 0 1
    outer loop
      vertex -22.8704 -17.8496 4
      vertex -18.3317 -17.0828 4
      vertex -18.7211 -14.573 4
    endloop
  endfacet
  facet normal 0 0 1
    outer loop
      vertex -18.3317 -17.0828 4
      vertex -22.8704 -17.8496 4
      vertex -18.4582 -19.6203 4
    endloop
  endfacet
  facet normal 0 0 1
    outer loop
      vertex -19.0947 -22.0793 4
      vertex -23.7518 -21.5758 4
      vertex -20.2145 -24.3589 4
    endloop
  endfacet
  facet normal -0 0 1
    outer loop
      vertex -24.8324 -23.1732 4
      vertex -20.2145 -24.3589 4
      vertex -23.7518 -21.5758 4
    endloop
  endfacet
  facet normal 0 0 1
    outer loop
      vertex -20.2145 -24.3589 4
      vertex -24.8324 -23.1732 4
      vertex -21.7729 -26.3659 4
    endloop
  endfacet
  facet normal -0 0 1
    outer loop
      vertex -26.2639 -24.4656 4
      vertex -21.7729 -26.3659 4
      vertex -24.8324 -23.1732 4
    endloop
  endfacet
  facet normal 0 0 1
    outer loop
      vertex -21.7729 -26.3659 4
      vertex -26.2639 -24.4656 4
      vertex -23.7045 -28.0149 4
    endloop
  endfacet
  facet normal 0 0 1
    outer loop
      vertex -23.7045 -28.0149 4
      vertex -26.2639 -24.4656 4
      vertex -25.9294 -29.2406 4
    endloop
  endfacet
  facet normal -0 0 1
    outer loop
      vertex -27.963 -25.3779 4
      vertex -25.9294 -29.2406 4
      vertex -26.2639 -24.4656 4
    endloop
  endfacet
  facet normal 0 0 1
    outer loop
      vertex -27.963 -25.3779 4
      vertex -28.3565 -29.9904 4
      vertex -25.9294 -29.2406 4
    endloop
  endfacet
  facet normal -0 0 1
    outer loop
      vertex -29.8312 -25.857 4
      vertex -28.3565 -29.9904 4
      vertex -27.963 -25.3779 4
    endloop
  endfacet
  facet normal 0 0 1
    outer loop
      vertex -29.8312 -25.857 4
      vertex -30.8848 -30.2344 4
      vertex -28.3565 -29.9904 4
    endloop
  endfacet
  facet normal -0 0 1
    outer loop
      vertex -31.7597 -25.8751 4
      vertex -30.8848 -30.2344 4
      vertex -29.8312 -25.857 4
    endloop
  endfacet
  facet normal 0 0 1
    outer loop
      vertex -31.7597 -25.8751 4
      vertex -33.4103 -29.9617 4
      vertex -30.8848 -30.2344 4
    endloop
  endfacet
  facet normal 0 0 1
    outer loop
      vertex -33.6365 -25.4312 4
      vertex -33.4103 -29.9617 4
      vertex -31.7597 -25.8751 4
    endloop
  endfacet
  facet normal 0 0 1
    outer loop
      vertex -35.8286 -29.1845 4
      vertex -33.6365 -25.4312 4
      vertex -35.3525 -24.5511 4
    endloop
  endfacet
  facet normal 0 0 1
    outer loop
      vertex -33.6365 -25.4312 4
      vertex -35.8286 -29.1845 4
      vertex -33.4103 -29.9617 4
    endloop
  endfacet
  facet normal 0 0 1
    outer loop
      vertex -38.0404 -27.9347 4
      vertex -35.3525 -24.5511 4
      vertex -36.808 -23.2858 4
    endloop
  endfacet
  facet normal 0 0 1
    outer loop
      vertex -39.953 -26.2631 4
      vertex -36.808 -23.2858 4
      vertex -37.9185 -21.709 4
    endloop
  endfacet
  facet normal 0 0 1
    outer loop
      vertex -35.3525 -24.5511 4
      vertex -38.0404 -27.9347 4
      vertex -35.8286 -29.1845 4
    endloop
  endfacet
  facet normal 0 0 1
    outer loop
      vertex -39.953 -26.2631 4
      vertex -37.9185 -21.709 4
      vertex -38.6193 -19.9122 4
    endloop
  endfacet
  facet normal 0 0 1
    outer loop
      vertex -39.953 -26.2631 4
      vertex -38.6193 -19.9122 4
      vertex -38.8697 -17.9999 4
    endloop
  endfacet
  facet normal 0 0 1
    outer loop
      vertex -36.808 -23.2858 4
      vertex -39.953 -26.2631 4
      vertex -38.0404 -27.9347 4
    endloop
  endfacet
  facet normal 0.876792 -0.48087 0
    outer loop
      vertex 9.57049 74.6008 4
      vertex 38.672 127.663 -4
      vertex 38.672 127.663 4
    endloop
  endfacet
  facet normal 0.876792 -0.48087 0
    outer loop
      vertex 38.672 127.663 -4
      vertex 9.57049 74.6008 4
      vertex 9.57049 74.6008 -4
    endloop
  endfacet
  facet normal 0.953178 -0.302409 0
    outer loop
      vertex -18.7211 -14.573 4
      vertex 9.57049 74.6008 -4
      vertex 9.57049 74.6008 4
    endloop
  endfacet
  facet normal 0.953178 -0.302409 0
    outer loop
      vertex 9.57049 74.6008 -4
      vertex -18.7211 -14.573 4
      vertex -18.7211 -14.573 -4
    endloop
  endfacet
  facet normal 0.988177 0.153318 0
    outer loop
      vertex -18.3317 -17.0828 4
      vertex -18.7211 -14.573 -4
      vertex -18.7211 -14.573 4
    endloop
  endfacet
  facet normal 0.988177 0.153318 0
    outer loop
      vertex -18.7211 -14.573 -4
      vertex -18.3317 -17.0828 4
      vertex -18.3317 -17.0828 -4
    endloop
  endfacet
  facet normal 0.998761 -0.0497679 0
    outer loop
      vertex -18.4582 -19.6203 4
      vertex -18.3317 -17.0828 -4
      vertex -18.3317 -17.0828 4
    endloop
  endfacet
  facet normal 0.998761 -0.0497679 0
    outer loop
      vertex -18.3317 -17.0828 -4
      vertex -18.4582 -19.6203 4
      vertex -18.4582 -19.6203 -4
    endloop
  endfacet
  facet normal 0.968088 -0.250612 0
    outer loop
      vertex -19.0947 -22.0793 4
      vertex -18.4582 -19.6203 -4
      vertex -18.4582 -19.6203 4
    endloop
  endfacet
  facet normal 0.968088 -0.250612 0
    outer loop
      vertex -18.4582 -19.6203 -4
      vertex -19.0947 -22.0793 4
      vertex -19.0947 -22.0793 -4
    endloop
  endfacet
  facet normal 0.897549 -0.440915 0
    outer loop
      vertex -20.2145 -24.3589 4
      vertex -19.0947 -22.0793 -4
      vertex -19.0947 -22.0793 4
    endloop
  endfacet
  facet normal 0.897549 -0.440915 0
    outer loop
      vertex -19.0947 -22.0793 -4
      vertex -20.2145 -24.3589 4
      vertex -20.2145 -24.3589 -4
    endloop
  endfacet
  facet normal 0.789861 -0.613286 0
    outer loop
      vertex -21.7729 -26.3659 4
      vertex -20.2145 -24.3589 -4
      vertex -20.2145 -24.3589 4
    endloop
  endfacet
  facet normal 0.789861 -0.613286 0
    outer loop
      vertex -20.2145 -24.3589 -4
      vertex -21.7729 -26.3659 4
      vertex -21.7729 -26.3659 -4
    endloop
  endfacet
  facet normal 0.649271 -0.760557 0
    outer loop
      vertex -23.7045 -28.0149 -4
      vertex -21.7729 -26.3659 4
      vertex -23.7045 -28.0149 4
    endloop
  endfacet
  facet normal 0.649271 -0.760557 0
    outer loop
      vertex -21.7729 -26.3659 4
      vertex -23.7045 -28.0149 -4
      vertex -21.7729 -26.3659 -4
    endloop
  endfacet
  facet normal 0.482538 -0.875875 0
    outer loop
      vertex -25.9294 -29.2406 -4
      vertex -23.7045 -28.0149 4
      vertex -25.9294 -29.2406 4
    endloop
  endfacet
  facet normal 0.482538 -0.875875 0
    outer loop
      vertex -23.7045 -28.0149 4
      vertex -25.9294 -29.2406 -4
      vertex -23.7045 -28.0149 -4
    endloop
  endfacet
  facet normal 0.295164 -0.955447 0
    outer loop
      vertex -28.3565 -29.9904 -4
      vertex -25.9294 -29.2406 4
      vertex -28.3565 -29.9904 4
    endloop
  endfacet
  facet normal 0.295164 -0.955447 0
    outer loop
      vertex -25.9294 -29.2406 4
      vertex -28.3565 -29.9904 -4
      vertex -25.9294 -29.2406 -4
    endloop
  endfacet
  facet normal 0.0960389 -0.995378 0
    outer loop
      vertex -30.8848 -30.2344 -4
      vertex -28.3565 -29.9904 4
      vertex -30.8848 -30.2344 4
    endloop
  endfacet
  facet normal 0.0960389 -0.995378 0
    outer loop
      vertex -28.3565 -29.9904 4
      vertex -30.8848 -30.2344 -4
      vertex -28.3565 -29.9904 -4
    endloop
  endfacet
  facet normal -0.107329 -0.994224 0
    outer loop
      vertex -33.4103 -29.9617 -4
      vertex -30.8848 -30.2344 4
      vertex -33.4103 -29.9617 4
    endloop
  endfacet
  facet normal -0.107329 -0.994224 -0
    outer loop
      vertex -30.8848 -30.2344 4
      vertex -33.4103 -29.9617 -4
      vertex -30.8848 -30.2344 -4
    endloop
  endfacet
  facet normal -0.305959 -0.952045 0
    outer loop
      vertex -35.8286 -29.1845 -4
      vertex -33.4103 -29.9617 4
      vertex -35.8286 -29.1845 4
    endloop
  endfacet
  facet normal -0.305959 -0.952045 -0
    outer loop
      vertex -33.4103 -29.9617 4
      vertex -35.8286 -29.1845 -4
      vertex -33.4103 -29.9617 -4
    endloop
  endfacet
  facet normal -0.491965 -0.870615 0
    outer loop
      vertex -38.0404 -27.9347 -4
      vertex -35.8286 -29.1845 4
      vertex -38.0404 -27.9347 4
    endloop
  endfacet
  facet normal -0.491965 -0.870615 -0
    outer loop
      vertex -35.8286 -29.1845 4
      vertex -38.0404 -27.9347 -4
      vertex -35.8286 -29.1845 -4
    endloop
  endfacet
  facet normal -0.658087 -0.752942 0
    outer loop
      vertex -39.953 -26.2631 -4
      vertex -38.0404 -27.9347 4
      vertex -39.953 -26.2631 4
    endloop
  endfacet
  facet normal -0.658087 -0.752942 -0
    outer loop
      vertex -38.0404 -27.9347 4
      vertex -39.953 -26.2631 -4
      vertex -38.0404 -27.9347 -4
    endloop
  endfacet
  facet normal -0.796556 -0.604565 0
    outer loop
      vertex -39.953 -26.2631 -4
      vertex -41.4886 -24.2398 4
      vertex -41.4886 -24.2398 -4
    endloop
  endfacet
  facet normal -0.796556 -0.604565 0
    outer loop
      vertex -41.4886 -24.2398 4
      vertex -39.953 -26.2631 -4
      vertex -39.953 -26.2631 4
    endloop
  endfacet
  facet normal -0.902363 -0.430976 0
    outer loop
      vertex -41.4886 -24.2398 -4
      vertex -42.5833 -21.9476 4
      vertex -42.5833 -21.9476 -4
    endloop
  endfacet
  facet normal -0.902363 -0.430976 0
    outer loop
      vertex -42.5833 -21.9476 4
      vertex -41.4886 -24.2398 -4
      vertex -41.4886 -24.2398 4
    endloop
  endfacet
  facet normal -0.970876 -0.239581 0
    outer loop
      vertex -42.5833 -21.9476 -4
      vertex -43.1919 -19.4816 4
      vertex -43.1919 -19.4816 -4
    endloop
  endfacet
  facet normal -0.970876 -0.239581 0
    outer loop
      vertex -43.1919 -19.4816 4
      vertex -42.5833 -21.9476 -4
      vertex -42.5833 -21.9476 4
    endloop
  endfacet
  facet normal -0.999257 -0.0385384 0
    outer loop
      vertex -43.1919 -19.4816 -4
      vertex -43.2898 -16.9431 4
      vertex -43.2898 -16.9431 -4
    endloop
  endfacet
  facet normal -0.999257 -0.0385384 0
    outer loop
      vertex -43.2898 -16.9431 4
      vertex -43.1919 -19.4816 -4
      vertex -43.1919 -19.4816 4
    endloop
  endfacet
  facet normal -0.986416 0.164265 0
    outer loop
      vertex -43.2898 -16.9431 -4
      vertex -42.8725 -14.4372 4
      vertex -42.8725 -14.4372 -4
    endloop
  endfacet
  facet normal -0.986416 0.164265 0
    outer loop
      vertex -42.8725 -14.4372 4
      vertex -43.2898 -16.9431 -4
      vertex -43.2898 -16.9431 4
    endloop
  endfacet
  facet normal -0.932719 0.360603 0
    outer loop
      vertex -42.8725 -14.4372 -4
      vertex -41.9563 -12.0673 4
      vertex -41.9563 -12.0673 -4
    endloop
  endfacet
  facet normal -0.932719 0.360603 0
    outer loop
      vertex -41.9563 -12.0673 4
      vertex -42.8725 -14.4372 -4
      vertex -42.8725 -14.4372 4
    endloop
  endfacet
  facet normal -0.840583 0.541682 0
    outer loop
      vertex -41.9563 -12.0673 -4
      vertex -40.5806 -9.93254 4
      vertex -40.5806 -9.93254 -4
    endloop
  endfacet
  facet normal -0.840583 0.541682 0
    outer loop
      vertex -40.5806 -9.93254 4
      vertex -41.9563 -12.0673 -4
      vertex -41.9563 -12.0673 4
    endloop
  endfacet
  facet normal -0.713998 0.700148 0
    outer loop
      vertex -40.5806 -9.93254 -4
      vertex -38.8024 -8.11918 4
      vertex -38.8024 -8.11918 -4
    endloop
  endfacet
  facet normal -0.713998 0.700148 0
    outer loop
      vertex -38.8024 -8.11918 4
      vertex -40.5806 -9.93254 -4
      vertex -40.5806 -9.93254 4
    endloop
  endfacet
  facet normal -0.948547 0.316637 0
    outer loop
      vertex -38.8024 -8.11918 -4
      vertex -6.51214 88.6123 4
      vertex -6.51214 88.6123 -4
    endloop
  endfacet
  facet normal -0.948547 0.316637 0
    outer loop
      vertex -6.51214 88.6123 4
      vertex -38.8024 -8.11918 -4
      vertex -38.8024 -8.11918 4
    endloop
  endfacet
  facet normal -0.981037 0.193818 0
    outer loop
      vertex -6.51214 88.6123 -4
      vertex -3.5821 103.443 4
      vertex -3.5821 103.443 -4
    endloop
  endfacet
  facet normal -0.981037 0.193818 0
    outer loop
      vertex -3.5821 103.443 4
      vertex -6.51214 88.6123 -4
      vertex -6.51214 88.6123 4
    endloop
  endfacet
  facet normal -0.795358 0.60614 0
    outer loop
      vertex -3.5821 103.443 -4
      vertex 2.06659 110.855 4
      vertex 2.06659 110.855 -4
    endloop
  endfacet
  facet normal -0.795358 0.60614 0
    outer loop
      vertex 2.06659 110.855 4
      vertex -3.5821 103.443 -4
      vertex -3.5821 103.443 4
    endloop
  endfacet
  facet normal 0.656059 0.754709 -0
    outer loop
      vertex 6.14158 107.313 -4
      vertex 2.06659 110.855 4
      vertex 6.14158 107.313 4
    endloop
  endfacet
  facet normal 0.656059 0.754709 0
    outer loop
      vertex 2.06659 110.855 4
      vertex 6.14158 107.313 -4
      vertex 2.06659 110.855 -4
    endloop
  endfacet
  facet normal 0.754709 -0.656059 0
    outer loop
      vertex 3.32065 104.068 4
      vertex 6.14158 107.313 -4
      vertex 6.14158 107.313 4
    endloop
  endfacet
  facet normal 0.754709 -0.656059 0
    outer loop
      vertex 6.14158 107.313 -4
      vertex 3.32065 104.068 4
      vertex 3.32065 104.068 -4
    endloop
  endfacet
  facet normal 0.656059 0.754709 -0
    outer loop
      vertex 8 100 -4
      vertex 3.32065 104.068 4
      vertex 8 100 4
    endloop
  endfacet
  facet normal 0.656059 0.754709 0
    outer loop
      vertex 3.32065 104.068 4
      vertex 8 100 -4
      vertex 3.32065 104.068 -4
    endloop
  endfacet
  facet normal -0.75471 0.656059 0
    outer loop
      vertex 8 100 -4
      vertex 34.3077 130.264 4
      vertex 34.3077 130.264 -4
    endloop
  endfacet
  facet normal -0.75471 0.656059 0
    outer loop
      vertex 34.3077 130.264 4
      vertex 8 100 -4
      vertex 8 100 4
    endloop
  endfacet
  facet normal -0.656059 -0.75471 0
    outer loop
      vertex 28.27 135.512 -4
      vertex 34.3077 130.264 4
      vertex 28.27 135.512 4
    endloop
  endfacet
  facet normal -0.656059 -0.75471 -0
    outer loop
      vertex 34.3077 130.264 4
      vertex 28.27 135.512 -4
      vertex 34.3077 130.264 -4
    endloop
  endfacet
  facet normal -0.75471 0.656059 0
    outer loop
      vertex 28.27 135.512 -4
      vertex 32.141 139.965 4
      vertex 32.141 139.965 -4
    endloop
  endfacet
  facet normal -0.75471 0.656059 0
    outer loop
      vertex 32.141 139.965 4
      vertex 28.27 135.512 -4
      vertex 28.27 135.512 4
    endloop
  endfacet
  facet normal 0.656059 0.754709 -0
    outer loop
      vertex 39.6881 133.405 -4
      vertex 32.141 139.965 4
      vertex 39.6881 133.405 4
    endloop
  endfacet
  facet normal 0.656059 0.754709 0
    outer loop
      vertex 32.141 139.965 4
      vertex 39.6881 133.405 -4
      vertex 32.141 139.965 -4
    endloop
  endfacet
  facet normal 0.984698 -0.174271 0
    outer loop
      vertex 38.672 127.663 4
      vertex 39.6881 133.405 -4
      vertex 39.6881 133.405 4
    endloop
  endfacet
  facet normal 0.984698 -0.174271 0
    outer loop
      vertex 39.6881 133.405 -4
      vertex 38.672 127.663 4
      vertex 38.672 127.663 -4
    endloop
  endfacet
  facet normal 0.670127 -0.742246 0
    outer loop
      vertex -26.2639 -24.4656 4
      vertex -24.8324 -23.1732 13.9
      vertex -26.2639 -24.4656 13.9
    endloop
  endfacet
  facet normal 0.670127 -0.742246 0
    outer loop
      vertex -24.8324 -23.1732 13.9
      vertex -26.2639 -24.4656 4
      vertex -24.8324 -23.1732 4
    endloop
  endfacet
  facet normal -0.81761 -0.575773 0
    outer loop
      vertex -36.808 -23.2858 4
      vertex -37.9185 -21.709 13.9
      vertex -37.9185 -21.709 4
    endloop
  endfacet
  facet normal -0.81761 -0.575773 0
    outer loop
      vertex -37.9185 -21.709 13.9
      vertex -36.808 -23.2858 4
      vertex -36.808 -23.2858 13.9
    endloop
  endfacet
  facet normal 0.00939835 -0.999956 0
    outer loop
      vertex -31.7597 -25.8751 4
      vertex -29.8312 -25.857 13.9
      vertex -31.7597 -25.8751 13.9
    endloop
  endfacet
  facet normal 0.00939835 -0.999956 0
    outer loop
      vertex -29.8312 -25.857 13.9
      vertex -31.7597 -25.8751 4
      vertex -29.8312 -25.857 4
    endloop
  endfacet
  facet normal -0.993798 0.111202 0
    outer loop
      vertex -38.8697 -17.9999 4
      vertex -38.6552 -16.0833 13.9
      vertex -38.6552 -16.0833 4
    endloop
  endfacet
  facet normal -0.993798 0.111202 0
    outer loop
      vertex -38.6552 -16.0833 13.9
      vertex -38.8697 -17.9999 4
      vertex -38.8697 -17.9999 13.9
    endloop
  endfacet
  facet normal -0.938307 0.345803 0
    outer loop
      vertex -38.6552 -16.0833 4
      vertex -37.9883 -14.2737 13.9
      vertex -37.9883 -14.2737 4
    endloop
  endfacet
  facet normal -0.938307 0.345803 0
    outer loop
      vertex -37.9883 -14.2737 13.9
      vertex -38.6552 -16.0833 4
      vertex -38.6552 -16.0833 13.9
    endloop
  endfacet
  facet normal -0.931642 -0.363378 0
    outer loop
      vertex -37.9185 -21.709 4
      vertex -38.6193 -19.9122 13.9
      vertex -38.6193 -19.9122 4
    endloop
  endfacet
  facet normal -0.931642 -0.363378 0
    outer loop
      vertex -38.6193 -19.9122 13.9
      vertex -37.9185 -21.709 4
      vertex -37.9185 -21.709 13.9
    endloop
  endfacet
  facet normal -0.473024 0.88105 0
    outer loop
      vertex -33.7771 -10.4716 4
      vertex -35.4762 -11.3839 13.9
      vertex -33.7771 -10.4716 13.9
    endloop
  endfacet
  facet normal -0.473024 0.88105 0
    outer loop
      vertex -35.4762 -11.3839 13.9
      vertex -33.7771 -10.4716 4
      vertex -35.4762 -11.3839 4
    endloop
  endfacet
  facet normal 0.24843 -0.96865 0
    outer loop
      vertex -29.8312 -25.857 4
      vertex -27.963 -25.3779 13.9
      vertex -29.8312 -25.857 13.9
    endloop
  endfacet
  facet normal 0.24843 -0.96865 0
    outer loop
      vertex -27.963 -25.3779 13.9
      vertex -29.8312 -25.857 4
      vertex -27.963 -25.3779 4
    endloop
  endfacet
  facet normal 0.473024 -0.88105 0
    outer loop
      vertex -27.963 -25.3779 4
      vertex -26.2639 -24.4656 13.9
      vertex -27.963 -25.3779 13.9
    endloop
  endfacet
  facet normal 0.473024 -0.88105 0
    outer loop
      vertex -26.2639 -24.4656 13.9
      vertex -27.963 -25.3779 4
      vertex -26.2639 -24.4656 4
    endloop
  endfacet
  facet normal -0.456381 -0.889784 0
    outer loop
      vertex -35.3525 -24.5511 4
      vertex -33.6365 -25.4312 13.9
      vertex -35.3525 -24.5511 13.9
    endloop
  endfacet
  facet normal -0.456381 -0.889784 -0
    outer loop
      vertex -33.6365 -25.4312 13.9
      vertex -35.3525 -24.5511 4
      vertex -33.6365 -25.4312 4
    endloop
  endfacet
  facet normal -0.656059 -0.75471 0
    outer loop
      vertex -36.808 -23.2858 4
      vertex -35.3525 -24.5511 13.9
      vertex -36.808 -23.2858 13.9
    endloop
  endfacet
  facet normal -0.656059 -0.75471 -0
    outer loop
      vertex -35.3525 -24.5511 13.9
      vertex -36.808 -23.2858 4
      vertex -35.3525 -24.5511 4
    endloop
  endfacet
  facet normal -0.230181 -0.973148 0
    outer loop
      vertex -33.6365 -25.4312 4
      vertex -31.7597 -25.8751 13.9
      vertex -33.6365 -25.4312 13.9
    endloop
  endfacet
  facet normal -0.230181 -0.973148 -0
    outer loop
      vertex -31.7597 -25.8751 13.9
      vertex -33.6365 -25.4312 4
      vertex -31.7597 -25.8751 4
    endloop
  endfacet
  facet normal -0.828286 0.560305 0
    outer loop
      vertex -37.9883 -14.2737 4
      vertex -36.9077 -12.6763 13.9
      vertex -36.9077 -12.6763 4
    endloop
  endfacet
  facet normal -0.828286 0.560305 0
    outer loop
      vertex -36.9077 -12.6763 13.9
      vertex -37.9883 -14.2737 4
      vertex -37.9883 -14.2737 13.9
    endloop
  endfacet
  facet normal 0 0 1
    outer loop
      vertex -23.1209 -15.9373 13.9
      vertex -23.0849 -19.7662 13.9
      vertex -22.8704 -17.8496 13.9
    endloop
  endfacet
  facet normal 0 0 1
    outer loop
      vertex -23.1209 -15.9373 13.9
      vertex -23.7518 -21.5758 13.9
      vertex -23.0849 -19.7662 13.9
    endloop
  endfacet
  facet normal 0 0 1
    outer loop
      vertex -23.8217 -14.1406 13.9
      vertex -23.7518 -21.5758 13.9
      vertex -23.1209 -15.9373 13.9
    endloop
  endfacet
  facet normal 0 0 1
    outer loop
      vertex -23.8217 -14.1406 13.9
      vertex -24.8324 -23.1732 13.9
      vertex -23.7518 -21.5758 13.9
    endloop
  endfacet
  facet normal 0 0 1
    outer loop
      vertex -24.9321 -12.5637 13.9
      vertex -24.8324 -23.1732 13.9
      vertex -23.8217 -14.1406 13.9
    endloop
  endfacet
  facet normal 0 0 1
    outer loop
      vertex -24.9321 -12.5637 13.9
      vertex -26.2639 -24.4656 13.9
      vertex -24.8324 -23.1732 13.9
    endloop
  endfacet
  facet normal 0 0 1
    outer loop
      vertex -26.3876 -11.2985 13.9
      vertex -26.2639 -24.4656 13.9
      vertex -24.9321 -12.5637 13.9
    endloop
  endfacet
  facet normal 0 0 1
    outer loop
      vertex -26.3876 -11.2985 13.9
      vertex -27.963 -25.3779 13.9
      vertex -26.2639 -24.4656 13.9
    endloop
  endfacet
  facet normal 0 0 1
    outer loop
      vertex -28.1036 -10.4183 13.9
      vertex -27.963 -25.3779 13.9
      vertex -26.3876 -11.2985 13.9
    endloop
  endfacet
  facet normal 0 0 1
    outer loop
      vertex -28.1036 -10.4183 13.9
      vertex -29.8312 -25.857 13.9
      vertex -27.963 -25.3779 13.9
    endloop
  endfacet
  facet normal 0 0 1
    outer loop
      vertex -29.9804 -9.97438 13.9
      vertex -29.8312 -25.857 13.9
      vertex -28.1036 -10.4183 13.9
    endloop
  endfacet
  facet normal 0 0 1
    outer loop
      vertex -29.9804 -9.97438 13.9
      vertex -31.7597 -25.8751 13.9
      vertex -29.8312 -25.857 13.9
    endloop
  endfacet
  facet normal -0 0 1
    outer loop
      vertex -31.9089 -9.9925 13.9
      vertex -31.7597 -25.8751 13.9
      vertex -29.9804 -9.97438 13.9
    endloop
  endfacet
  facet normal 0 0 1
    outer loop
      vertex -31.9089 -9.9925 13.9
      vertex -33.6365 -25.4312 13.9
      vertex -31.7597 -25.8751 13.9
    endloop
  endfacet
  facet normal -0 0 1
    outer loop
      vertex -33.7771 -10.4716 13.9
      vertex -33.6365 -25.4312 13.9
      vertex -31.9089 -9.9925 13.9
    endloop
  endfacet
  facet normal 0 0 1
    outer loop
      vertex -33.7771 -10.4716 13.9
      vertex -35.3525 -24.5511 13.9
      vertex -33.6365 -25.4312 13.9
    endloop
  endfacet
  facet normal -0 0 1
    outer loop
      vertex -35.4762 -11.3839 13.9
      vertex -35.3525 -24.5511 13.9
      vertex -33.7771 -10.4716 13.9
    endloop
  endfacet
  facet normal 0 0 1
    outer loop
      vertex -35.4762 -11.3839 13.9
      vertex -36.808 -23.2858 13.9
      vertex -35.3525 -24.5511 13.9
    endloop
  endfacet
  facet normal -0 0 1
    outer loop
      vertex -36.9077 -12.6763 13.9
      vertex -36.808 -23.2858 13.9
      vertex -35.4762 -11.3839 13.9
    endloop
  endfacet
  facet normal 0 0 1
    outer loop
      vertex -36.9077 -12.6763 13.9
      vertex -37.9185 -21.709 13.9
      vertex -36.808 -23.2858 13.9
    endloop
  endfacet
  facet normal -0 0 1
    outer loop
      vertex -37.9883 -14.2737 13.9
      vertex -37.9185 -21.709 13.9
      vertex -36.9077 -12.6763 13.9
    endloop
  endfacet
  facet normal 0 0 1
    outer loop
      vertex -37.9883 -14.2737 13.9
      vertex -38.6193 -19.9122 13.9
      vertex -37.9185 -21.709 13.9
    endloop
  endfacet
  facet normal -0 0 1
    outer loop
      vertex -38.6552 -16.0833 13.9
      vertex -38.6193 -19.9122 13.9
      vertex -37.9883 -14.2737 13.9
    endloop
  endfacet
  facet normal 0 0 1
    outer loop
      vertex -38.6193 -19.9122 13.9
      vertex -38.6552 -16.0833 13.9
      vertex -38.8697 -17.9999 13.9
    endloop
  endfacet
  facet normal -0.991532 -0.12986 0
    outer loop
      vertex -38.6193 -19.9122 4
      vertex -38.8697 -17.9999 13.9
      vertex -38.8697 -17.9999 4
    endloop
  endfacet
  facet normal -0.991532 -0.12986 0
    outer loop
      vertex -38.8697 -17.9999 13.9
      vertex -38.6193 -19.9122 4
      vertex -38.6193 -19.9122 13.9
    endloop
  endfacet
  facet normal 0.828287 -0.560305 0
    outer loop
      vertex -24.8324 -23.1732 13.9
      vertex -23.7518 -21.5758 4
      vertex -23.7518 -21.5758 13.9
    endloop
  endfacet
  facet normal 0.828287 -0.560305 0
    outer loop
      vertex -23.7518 -21.5758 4
      vertex -24.8324 -23.1732 13.9
      vertex -24.8324 -23.1732 4
    endloop
  endfacet
  facet normal 0.817609 0.575774 0
    outer loop
      vertex -23.8217 -14.1406 13.9
      vertex -24.9321 -12.5637 4
      vertex -24.9321 -12.5637 13.9
    endloop
  endfacet
  facet normal 0.817609 0.575774 0
    outer loop
      vertex -24.9321 -12.5637 4
      vertex -23.8217 -14.1406 13.9
      vertex -23.8217 -14.1406 4
    endloop
  endfacet
  facet normal 0.991532 0.129861 0
    outer loop
      vertex -22.8704 -17.8496 13.9
      vertex -23.1209 -15.9373 4
      vertex -23.1209 -15.9373 13.9
    endloop
  endfacet
  facet normal 0.991532 0.129861 0
    outer loop
      vertex -23.1209 -15.9373 4
      vertex -22.8704 -17.8496 13.9
      vertex -22.8704 -17.8496 4
    endloop
  endfacet
  facet normal 0.230181 0.973148 -0
    outer loop
      vertex -28.1036 -10.4183 4
      vertex -29.9804 -9.97438 13.9
      vertex -28.1036 -10.4183 13.9
    endloop
  endfacet
  facet normal 0.230181 0.973148 0
    outer loop
      vertex -29.9804 -9.97438 13.9
      vertex -28.1036 -10.4183 4
      vertex -29.9804 -9.97438 4
    endloop
  endfacet
  facet normal 0.656059 0.75471 -0
    outer loop
      vertex -24.9321 -12.5637 4
      vertex -26.3876 -11.2985 13.9
      vertex -24.9321 -12.5637 13.9
    endloop
  endfacet
  facet normal 0.656059 0.75471 0
    outer loop
      vertex -26.3876 -11.2985 13.9
      vertex -24.9321 -12.5637 4
      vertex -26.3876 -11.2985 4
    endloop
  endfacet
  facet normal -0.248429 0.96865 0
    outer loop
      vertex -31.9089 -9.9925 4
      vertex -33.7771 -10.4716 13.9
      vertex -31.9089 -9.9925 13.9
    endloop
  endfacet
  facet normal -0.248429 0.96865 0
    outer loop
      vertex -33.7771 -10.4716 13.9
      vertex -31.9089 -9.9925 4
      vertex -33.7771 -10.4716 4
    endloop
  endfacet
  facet normal -0.670128 0.742245 0
    outer loop
      vertex -35.4762 -11.3839 4
      vertex -36.9077 -12.6763 13.9
      vertex -35.4762 -11.3839 13.9
    endloop
  endfacet
  facet normal -0.670128 0.742245 0
    outer loop
      vertex -36.9077 -12.6763 13.9
      vertex -35.4762 -11.3839 4
      vertex -36.9077 -12.6763 4
    endloop
  endfacet
  facet normal 0.931643 0.363376 0
    outer loop
      vertex -23.1209 -15.9373 13.9
      vertex -23.8217 -14.1406 4
      vertex -23.8217 -14.1406 13.9
    endloop
  endfacet
  facet normal 0.931643 0.363376 0
    outer loop
      vertex -23.8217 -14.1406 4
      vertex -23.1209 -15.9373 13.9
      vertex -23.1209 -15.9373 4
    endloop
  endfacet
  facet normal 0.938307 -0.345803 0
    outer loop
      vertex -23.7518 -21.5758 13.9
      vertex -23.0849 -19.7662 4
      vertex -23.0849 -19.7662 13.9
    endloop
  endfacet
  facet normal 0.938307 -0.345803 0
    outer loop
      vertex -23.0849 -19.7662 4
      vertex -23.7518 -21.5758 13.9
      vertex -23.7518 -21.5758 4
    endloop
  endfacet
  facet normal 0.993798 -0.111202 0
    outer loop
      vertex -23.0849 -19.7662 13.9
      vertex -22.8704 -17.8496 4
      vertex -22.8704 -17.8496 13.9
    endloop
  endfacet
  facet normal 0.993798 -0.111202 0
    outer loop
      vertex -22.8704 -17.8496 4
      vertex -23.0849 -19.7662 13.9
      vertex -23.0849 -19.7662 4
    endloop
  endfacet
  facet normal 0.456381 0.889784 -0
    outer loop
      vertex -26.3876 -11.2985 4
      vertex -28.1036 -10.4183 13.9
      vertex -26.3876 -11.2985 13.9
    endloop
  endfacet
  facet normal 0.456381 0.889784 0
    outer loop
      vertex -28.1036 -10.4183 13.9
      vertex -26.3876 -11.2985 4
      vertex -28.1036 -10.4183 4
    endloop
  endfacet
  facet normal -0.00939786 0.999956 0
    outer loop
      vertex -29.9804 -9.97438 4
      vertex -31.9089 -9.9925 13.9
      vertex -29.9804 -9.97438 13.9
    endloop
  endfacet
  facet normal -0.00939786 0.999956 0
    outer loop
      vertex -31.9089 -9.9925 13.9
      vertex -29.9804 -9.97438 4
      vertex -31.9089 -9.9925 4
    endloop
  endfacet
endsolid OpenSCAD_Model
