solid CATIA STL
  facet normal  6.661338e-016 -1.000000e+000  1.242660e-022
    outer loop
      vertex -1.800000e+001 -1.154632e-014  0.000000e+000
      vertex -2.000000e+000 -8.881784e-016  0.000000e+000
      vertex -1.247698e+001 -7.867246e-015  3.408144e+000
    endloop
  endfacet
  facet normal  6.661341e-016 -1.000000e+000 -3.402854e-022
    outer loop
      vertex -1.800000e+001 -1.154632e-014  0.000000e+000
      vertex -1.247698e+001 -7.867246e-015  3.408144e+000
      vertex -1.289601e+001 -8.146377e-015  3.677438e+000
    endloop
  endfacet
  facet normal  6.661338e-016 -1.000000e+000  2.213246e-023
    outer loop
      vertex -1.800000e+001 -1.154632e-014  0.000000e+000
      vertex -1.289601e+001 -8.146377e-015  3.677438e+000
      vertex -1.322219e+001 -8.363661e-015  4.053879e+000
    endloop
  endfacet
  facet normal  6.661345e-016 -1.000000e+000 -6.590976e-022
    outer loop
      vertex -1.800000e+001 -1.154632e-014  0.000000e+000
      vertex -1.322219e+001 -8.363661e-015  4.053879e+000
      vertex -1.342911e+001 -8.501497e-015  4.506968e+000
    endloop
  endfacet
  facet normal  1.799712e-016 -1.000000e+000  4.930574e-016
    outer loop
      vertex -1.800000e+001 -1.154632e-014  0.000000e+000
      vertex -1.342911e+001 -8.501497e-015  4.506968e+000
      vertex -1.350000e+001 -8.271162e-015  5.000000e+000
    endloop
  endfacet
  facet normal  1.483975e-015 -9.999999e-001 -6.805454e-016
    outer loop
      vertex -1.800000e+001 -1.154632e-014  0.000000e+000
      vertex -1.350000e+001 -8.271162e-015  5.000000e+000
      vertex -1.342911e+001 -8.501497e-015  5.493032e+000
    endloop
  endfacet
  facet normal  6.661312e-016 -9.999999e-001  2.118626e-021
    outer loop
      vertex -1.800000e+001 -1.154632e-014  0.000000e+000
      vertex -1.342911e+001 -8.501497e-015  5.493032e+000
      vertex -1.322219e+001 -8.363661e-015  5.946121e+000
    endloop
  endfacet
  facet normal  6.661339e-016 -9.999999e-001  0.000000e+000
    outer loop
      vertex -1.800000e+001 -1.154632e-014  1.000000e+001
      vertex -1.800000e+001 -1.154632e-014  0.000000e+000
      vertex -1.322219e+001 -8.363661e-015  5.946121e+000
    endloop
  endfacet
  facet normal  6.661338e-016 -1.000000e+000 -2.213246e-023
    outer loop
      vertex -1.800000e+001 -1.154632e-014  1.000000e+001
      vertex -1.322219e+001 -8.363661e-015  5.946121e+000
      vertex -1.289601e+001 -8.146377e-015  6.322562e+000
    endloop
  endfacet
  facet normal  6.661341e-016 -1.000000e+000  3.402854e-022
    outer loop
      vertex -1.800000e+001 -1.154632e-014  1.000000e+001
      vertex -1.289601e+001 -8.146377e-015  6.322562e+000
      vertex -1.247698e+001 -7.867246e-015  6.591856e+000
    endloop
  endfacet
  facet normal  6.661338e-016 -1.000000e+000 -1.242660e-022
    outer loop
      vertex -1.800000e+001 -1.154632e-014  1.000000e+001
      vertex -1.247698e+001 -7.867246e-015  6.591856e+000
      vertex -2.000000e+000 -8.881784e-016  1.000000e+001
    endloop
  endfacet
  facet normal  6.314393e-016 -1.000000e+000  0.000000e+000
    outer loop
      vertex -2.000000e+000 -8.881784e-016  0.000000e+000
      vertex -2.000000e+000 -8.881784e-016  1.000000e+001
      vertex -1.000000e+001 -5.939693e-015  5.000000e+000
    endloop
  endfacet
  facet normal  9.571371e-016 -1.000000e+000  5.211164e-016
    outer loop
      vertex -2.000000e+000 -8.881784e-016  0.000000e+000
      vertex -1.000000e+001 -5.939693e-015  5.000000e+000
      vertex -1.007089e+001 -6.264469e-015  4.506968e+000
    endloop
  endfacet
  facet normal  6.661342e-016 -1.000000e+000  7.543392e-022
    outer loop
      vertex -2.000000e+000 -8.881784e-016  0.000000e+000
      vertex -1.007089e+001 -6.264469e-015  4.506968e+000
      vertex -1.027781e+001 -6.402305e-015  4.053879e+000
    endloop
  endfacet
  facet normal  6.661338e-016 -1.000000e+000 -1.556246e-023
    outer loop
      vertex -2.000000e+000 -8.881784e-016  0.000000e+000
      vertex -1.027781e+001 -6.402305e-015  4.053879e+000
      vertex -1.060399e+001 -6.619590e-015  3.677438e+000
    endloop
  endfacet
  facet normal  6.661336e-016 -1.000000e+000 -4.952612e-022
    outer loop
      vertex -2.000000e+000 -8.881784e-016  0.000000e+000
      vertex -1.060399e+001 -6.619590e-015  3.677438e+000
      vertex -1.102302e+001 -6.898720e-015  3.408144e+000
    endloop
  endfacet
  facet normal  6.661336e-016 -1.000000e+000 -6.599879e-022
    outer loop
      vertex -2.000000e+000 -8.881784e-016  0.000000e+000
      vertex -1.102302e+001 -6.898720e-015  3.408144e+000
      vertex -1.150095e+001 -7.217082e-015  3.267812e+000
    endloop
  endfacet
  facet normal  6.661347e-016 -1.000000e+000  2.536877e-021
    outer loop
      vertex -2.000000e+000 -8.881784e-016  0.000000e+000
      vertex -1.150095e+001 -7.217082e-015  3.267812e+000
      vertex -1.199905e+001 -7.548885e-015  3.267812e+000
    endloop
  endfacet
  facet normal  6.661205e-016 -1.000000e+000 -4.069245e-020
    outer loop
      vertex -2.000000e+000 -8.881784e-016  0.000000e+000
      vertex -1.199905e+001 -7.548885e-015  3.267812e+000
      vertex -1.247698e+001 -7.867246e-015  3.408144e+000
    endloop
  endfacet
  facet normal  6.661205e-016 -1.000000e+000  4.069309e-020
    outer loop
      vertex -2.000000e+000 -8.881784e-016  1.000000e+001
      vertex -1.247698e+001 -7.867246e-015  6.591856e+000
      vertex -1.199905e+001 -7.548885e-015  6.732188e+000
    endloop
  endfacet
  facet normal  6.661347e-016 -1.000000e+000 -2.536877e-021
    outer loop
      vertex -2.000000e+000 -8.881784e-016  1.000000e+001
      vertex -1.199905e+001 -7.548885e-015  6.732188e+000
      vertex -1.150095e+001 -7.217082e-015  6.732188e+000
    endloop
  endfacet
  facet normal  6.661336e-016 -1.000000e+000  6.599873e-022
    outer loop
      vertex -2.000000e+000 -8.881784e-016  1.000000e+001
      vertex -1.150095e+001 -7.217082e-015  6.732188e+000
      vertex -1.102302e+001 -6.898720e-015  6.591856e+000
    endloop
  endfacet
  facet normal  6.661336e-016 -1.000000e+000  4.952612e-022
    outer loop
      vertex -2.000000e+000 -8.881784e-016  1.000000e+001
      vertex -1.102302e+001 -6.898720e-015  6.591856e+000
      vertex -1.060399e+001 -6.619590e-015  6.322562e+000
    endloop
  endfacet
  facet normal  6.661338e-016 -1.000000e+000  1.556246e-023
    outer loop
      vertex -2.000000e+000 -8.881784e-016  1.000000e+001
      vertex -1.060399e+001 -6.619590e-015  6.322562e+000
      vertex -1.027781e+001 -6.402305e-015  5.946121e+000
    endloop
  endfacet
  facet normal  6.661342e-016 -1.000000e+000 -7.543392e-022
    outer loop
      vertex -2.000000e+000 -8.881784e-016  1.000000e+001
      vertex -1.027781e+001 -6.402305e-015  5.946121e+000
      vertex -1.007089e+001 -6.264469e-015  5.493032e+000
    endloop
  endfacet
  facet normal  9.571371e-016 -1.000000e+000 -5.211164e-016
    outer loop
      vertex -2.000000e+000 -8.881784e-016  1.000000e+001
      vertex -1.007089e+001 -6.264469e-015  5.493032e+000
      vertex -1.000000e+001 -5.939693e-015  5.000000e+000
    endloop
  endfacet
  facet normal  0.000000e+000  0.000000e+000  1.000000e+000
    outer loop
      vertex  0.000000e+000  2.000000e+000  1.000000e+001
      vertex -1.800000e+001 -1.154632e-014  1.000000e+001
      vertex -2.000000e+000 -8.881784e-016  1.000000e+001
    endloop
  endfacet
  facet normal  -0.000000e+000  0.000000e+000  1.000000e+000
    outer loop
      vertex  0.000000e+000  1.800000e+001  1.000000e+001
      vertex -5.000000e+000  1.800000e+001  1.000000e+001
      vertex  0.000000e+000  2.000000e+000  1.000000e+001
    endloop
  endfacet
  facet normal  0.000000e+000  0.000000e+000  1.000000e+000
    outer loop
      vertex  0.000000e+000  2.000000e+000  1.000000e+001
      vertex -5.000000e+000  1.800000e+001  1.000000e+001
      vertex -5.000000e+000  5.000000e+000  1.000000e+001
    endloop
  endfacet
  facet normal  0.000000e+000  0.000000e+000  1.000000e+000
    outer loop
      vertex  0.000000e+000  2.000000e+000  1.000000e+001
      vertex -5.000000e+000  5.000000e+000  1.000000e+001
      vertex -1.800000e+001 -1.154632e-014  1.000000e+001
    endloop
  endfacet
  facet normal  0.000000e+000  0.000000e+000  1.000000e+000
    outer loop
      vertex -1.800000e+001 -1.154632e-014  1.000000e+001
      vertex -5.000000e+000  5.000000e+000  1.000000e+001
      vertex -1.800000e+001  5.000000e+000  1.000000e+001
    endloop
  endfacet
  facet normal  0.000000e+000  0.000000e+000 -1.000000e+000
    outer loop
      vertex -2.000000e+000 -8.881784e-016  0.000000e+000
      vertex -1.800000e+001 -1.154632e-014  0.000000e+000
      vertex  0.000000e+000  2.000000e+000  0.000000e+000
    endloop
  endfacet
  facet normal  0.000000e+000  0.000000e+000 -1.000000e+000
    outer loop
      vertex  0.000000e+000  1.800000e+001  0.000000e+000
      vertex  0.000000e+000  2.000000e+000  0.000000e+000
      vertex -5.000000e+000  1.800000e+001  0.000000e+000
    endloop
  endfacet
  facet normal  0.000000e+000  0.000000e+000 -1.000000e+000
    outer loop
      vertex -5.000000e+000  1.800000e+001  0.000000e+000
      vertex  0.000000e+000  2.000000e+000  0.000000e+000
      vertex -5.000000e+000  5.000000e+000  0.000000e+000
    endloop
  endfacet
  facet normal  0.000000e+000  0.000000e+000 -1.000000e+000
    outer loop
      vertex  0.000000e+000  2.000000e+000  0.000000e+000
      vertex -1.800000e+001 -1.154632e-014  0.000000e+000
      vertex -5.000000e+000  5.000000e+000  0.000000e+000
    endloop
  endfacet
  facet normal  -0.000000e+000  0.000000e+000 -1.000000e+000
    outer loop
      vertex -5.000000e+000  5.000000e+000  0.000000e+000
      vertex -1.800000e+001 -1.154632e-014  0.000000e+000
      vertex -1.800000e+001  5.000000e+000  0.000000e+000
    endloop
  endfacet
  facet normal  9.999999e-001  0.000000e+000  0.000000e+000
    outer loop
      vertex  0.000000e+000  1.800000e+001  0.000000e+000
      vertex  0.000000e+000  1.322219e+001  5.946121e+000
      vertex  0.000000e+000  1.342911e+001  5.493032e+000
    endloop
  endfacet
  facet normal  9.999999e-001  0.000000e+000  0.000000e+000
    outer loop
      vertex  0.000000e+000  1.800000e+001  0.000000e+000
      vertex  0.000000e+000  1.342911e+001  5.493032e+000
      vertex  0.000000e+000  1.350000e+001  5.000000e+000
    endloop
  endfacet
  facet normal  1.000000e+000  0.000000e+000  0.000000e+000
    outer loop
      vertex  0.000000e+000  1.800000e+001  0.000000e+000
      vertex  0.000000e+000  1.350000e+001  5.000000e+000
      vertex  0.000000e+000  1.342911e+001  4.506968e+000
    endloop
  endfacet
  facet normal  1.000000e+000  0.000000e+000  0.000000e+000
    outer loop
      vertex  0.000000e+000  1.800000e+001  0.000000e+000
      vertex  0.000000e+000  1.342911e+001  4.506968e+000
      vertex  0.000000e+000  1.322219e+001  4.053879e+000
    endloop
  endfacet
  facet normal  1.000000e+000  0.000000e+000  0.000000e+000
    outer loop
      vertex  0.000000e+000  1.800000e+001  0.000000e+000
      vertex  0.000000e+000  1.322219e+001  4.053879e+000
      vertex  0.000000e+000  1.289601e+001  3.677438e+000
    endloop
  endfacet
  facet normal  1.000000e+000  0.000000e+000  0.000000e+000
    outer loop
      vertex  0.000000e+000  1.800000e+001  0.000000e+000
      vertex  0.000000e+000  1.289601e+001  3.677438e+000
      vertex  0.000000e+000  1.247698e+001  3.408144e+000
    endloop
  endfacet
  facet normal  1.000000e+000  0.000000e+000  0.000000e+000
    outer loop
      vertex  0.000000e+000  1.800000e+001  0.000000e+000
      vertex  0.000000e+000  1.247698e+001  3.408144e+000
      vertex  0.000000e+000  2.000000e+000  0.000000e+000
    endloop
  endfacet
  facet normal  1.000000e+000  -0.000000e+000  0.000000e+000
    outer loop
      vertex  0.000000e+000  1.800000e+001  1.000000e+001
      vertex  0.000000e+000  2.000000e+000  1.000000e+001
      vertex  0.000000e+000  1.247698e+001  6.591856e+000
    endloop
  endfacet
  facet normal  1.000000e+000  -0.000000e+000  0.000000e+000
    outer loop
      vertex  0.000000e+000  1.800000e+001  1.000000e+001
      vertex  0.000000e+000  1.247698e+001  6.591856e+000
      vertex  0.000000e+000  1.289601e+001  6.322562e+000
    endloop
  endfacet
  facet normal  1.000000e+000  -0.000000e+000  0.000000e+000
    outer loop
      vertex  0.000000e+000  1.800000e+001  1.000000e+001
      vertex  0.000000e+000  1.289601e+001  6.322562e+000
      vertex  0.000000e+000  1.322219e+001  5.946121e+000
    endloop
  endfacet
  facet normal  9.999999e-001  -0.000000e+000  0.000000e+000
    outer loop
      vertex  0.000000e+000  1.800000e+001  1.000000e+001
      vertex  0.000000e+000  1.322219e+001  5.946121e+000
      vertex  0.000000e+000  1.800000e+001  0.000000e+000
    endloop
  endfacet
  facet normal  1.000000e+000  0.000000e+000  0.000000e+000
    outer loop
      vertex  0.000000e+000  2.000000e+000  0.000000e+000
      vertex  0.000000e+000  1.247698e+001  3.408144e+000
      vertex  0.000000e+000  1.199905e+001  3.267812e+000
    endloop
  endfacet
  facet normal  1.000000e+000  0.000000e+000  0.000000e+000
    outer loop
      vertex  0.000000e+000  2.000000e+000  0.000000e+000
      vertex  0.000000e+000  1.199905e+001  3.267812e+000
      vertex  0.000000e+000  1.150095e+001  3.267812e+000
    endloop
  endfacet
  facet normal  1.000000e+000  0.000000e+000  0.000000e+000
    outer loop
      vertex  0.000000e+000  2.000000e+000  0.000000e+000
      vertex  0.000000e+000  1.150095e+001  3.267812e+000
      vertex  0.000000e+000  1.102302e+001  3.408144e+000
    endloop
  endfacet
  facet normal  1.000000e+000  0.000000e+000  0.000000e+000
    outer loop
      vertex  0.000000e+000  2.000000e+000  0.000000e+000
      vertex  0.000000e+000  1.102302e+001  3.408144e+000
      vertex  0.000000e+000  1.060399e+001  3.677438e+000
    endloop
  endfacet
  facet normal  1.000000e+000  0.000000e+000  0.000000e+000
    outer loop
      vertex  0.000000e+000  2.000000e+000  0.000000e+000
      vertex  0.000000e+000  1.060399e+001  3.677438e+000
      vertex  0.000000e+000  1.027781e+001  4.053879e+000
    endloop
  endfacet
  facet normal  1.000000e+000  0.000000e+000  0.000000e+000
    outer loop
      vertex  0.000000e+000  2.000000e+000  0.000000e+000
      vertex  0.000000e+000  1.027781e+001  4.053879e+000
      vertex  0.000000e+000  1.007089e+001  4.506968e+000
    endloop
  endfacet
  facet normal  1.000000e+000  0.000000e+000  0.000000e+000
    outer loop
      vertex  0.000000e+000  2.000000e+000  0.000000e+000
      vertex  0.000000e+000  1.007089e+001  4.506968e+000
      vertex  0.000000e+000  1.000000e+001  5.000000e+000
    endloop
  endfacet
  facet normal  1.000000e+000  0.000000e+000  0.000000e+000
    outer loop
      vertex  0.000000e+000  2.000000e+000  0.000000e+000
      vertex  0.000000e+000  1.000000e+001  5.000000e+000
      vertex  0.000000e+000  2.000000e+000  1.000000e+001
    endloop
  endfacet
  facet normal  1.000000e+000  0.000000e+000  -0.000000e+000
    outer loop
      vertex  0.000000e+000  2.000000e+000  1.000000e+001
      vertex  0.000000e+000  1.000000e+001  5.000000e+000
      vertex  0.000000e+000  1.007089e+001  5.493032e+000
    endloop
  endfacet
  facet normal  1.000000e+000  0.000000e+000  -0.000000e+000
    outer loop
      vertex  0.000000e+000  2.000000e+000  1.000000e+001
      vertex  0.000000e+000  1.007089e+001  5.493032e+000
      vertex  0.000000e+000  1.027781e+001  5.946121e+000
    endloop
  endfacet
  facet normal  1.000000e+000  0.000000e+000  -0.000000e+000
    outer loop
      vertex  0.000000e+000  2.000000e+000  1.000000e+001
      vertex  0.000000e+000  1.027781e+001  5.946121e+000
      vertex  0.000000e+000  1.060399e+001  6.322562e+000
    endloop
  endfacet
  facet normal  1.000000e+000  0.000000e+000  -0.000000e+000
    outer loop
      vertex  0.000000e+000  2.000000e+000  1.000000e+001
      vertex  0.000000e+000  1.060399e+001  6.322562e+000
      vertex  0.000000e+000  1.102302e+001  6.591856e+000
    endloop
  endfacet
  facet normal  1.000000e+000  0.000000e+000  -0.000000e+000
    outer loop
      vertex  0.000000e+000  2.000000e+000  1.000000e+001
      vertex  0.000000e+000  1.102302e+001  6.591856e+000
      vertex  0.000000e+000  1.150095e+001  6.732188e+000
    endloop
  endfacet
  facet normal  1.000000e+000  0.000000e+000  -0.000000e+000
    outer loop
      vertex  0.000000e+000  2.000000e+000  1.000000e+001
      vertex  0.000000e+000  1.150095e+001  6.732188e+000
      vertex  0.000000e+000  1.199905e+001  6.732188e+000
    endloop
  endfacet
  facet normal  1.000000e+000  -0.000000e+000  -0.000000e+000
    outer loop
      vertex  0.000000e+000  2.000000e+000  1.000000e+001
      vertex  0.000000e+000  1.199905e+001  6.732188e+000
      vertex  0.000000e+000  1.247698e+001  6.591856e+000
    endloop
  endfacet
  facet normal  7.071068e-001 -7.071068e-001  0.000000e+000
    outer loop
      vertex -2.000000e+000 -8.881784e-016  0.000000e+000
      vertex  0.000000e+000  2.000000e+000  0.000000e+000
      vertex -2.000000e+000 -8.881784e-016  1.000000e+001
    endloop
  endfacet
  facet normal  7.071068e-001 -7.071068e-001  0.000000e+000
    outer loop
      vertex -2.000000e+000 -8.881784e-016  1.000000e+001
      vertex  0.000000e+000  2.000000e+000  0.000000e+000
      vertex  0.000000e+000  2.000000e+000  1.000000e+001
    endloop
  endfacet
  facet normal -1.000000e+000  0.000000e+000  0.000000e+000
    outer loop
      vertex -5.000000e+000  1.529303e+001  5.000000e+000
      vertex -5.000000e+000  1.352151e+001  8.068354e+000
      vertex -5.000000e+000  1.800000e+001  1.000000e+001
    endloop
  endfacet
  facet normal -9.999999e-001  0.000000e+000  0.000000e+000
    outer loop
      vertex -5.000000e+000  1.800000e+001  0.000000e+000
      vertex -5.000000e+000  5.000000e+000  0.000000e+000
      vertex -5.000000e+000  9.978485e+000  1.931646e+000
    endloop
  endfacet
  facet normal -1.000000e+000  0.000000e+000  0.000000e+000
    outer loop
      vertex -5.000000e+000  1.800000e+001  0.000000e+000
      vertex -5.000000e+000  9.978485e+000  1.931646e+000
      vertex -5.000000e+000  1.352151e+001  1.931646e+000
    endloop
  endfacet
  facet normal -1.000000e+000  0.000000e+000  0.000000e+000
    outer loop
      vertex -5.000000e+000  1.800000e+001  0.000000e+000
      vertex -5.000000e+000  1.352151e+001  1.931646e+000
      vertex -5.000000e+000  1.529303e+001  5.000000e+000
    endloop
  endfacet
  facet normal -1.000000e+000  0.000000e+000  0.000000e+000
    outer loop
      vertex -5.000000e+000  1.800000e+001  0.000000e+000
      vertex -5.000000e+000  1.529303e+001  5.000000e+000
      vertex -5.000000e+000  1.800000e+001  1.000000e+001
    endloop
  endfacet
  facet normal -9.999999e-001  0.000000e+000  0.000000e+000
    outer loop
      vertex -5.000000e+000  1.800000e+001  1.000000e+001
      vertex -5.000000e+000  1.352151e+001  8.068354e+000
      vertex -5.000000e+000  5.000000e+000  1.000000e+001
    endloop
  endfacet
  facet normal -1.000000e+000  0.000000e+000  0.000000e+000
    outer loop
      vertex -5.000000e+000  5.000000e+000  1.000000e+001
      vertex -5.000000e+000  1.352151e+001  8.068354e+000
      vertex -5.000000e+000  9.978485e+000  8.068354e+000
    endloop
  endfacet
  facet normal -1.000000e+000  -0.000000e+000  0.000000e+000
    outer loop
      vertex -5.000000e+000  5.000000e+000  1.000000e+001
      vertex -5.000000e+000  9.978485e+000  8.068354e+000
      vertex -5.000000e+000  5.000000e+000  0.000000e+000
    endloop
  endfacet
  facet normal -9.999999e-001  0.000000e+000  0.000000e+000
    outer loop
      vertex -5.000000e+000  5.000000e+000  0.000000e+000
      vertex -5.000000e+000  9.978485e+000  8.068354e+000
      vertex -5.000000e+000  8.206970e+000  5.000000e+000
    endloop
  endfacet
  facet normal -9.999999e-001  0.000000e+000  -0.000000e+000
    outer loop
      vertex -5.000000e+000  5.000000e+000  0.000000e+000
      vertex -5.000000e+000  8.206970e+000  5.000000e+000
      vertex -5.000000e+000  9.978485e+000  1.931646e+000
    endloop
  endfacet
  facet normal  0.000000e+000  1.000000e+000  0.000000e+000
    outer loop
      vertex -1.800000e+001  5.000000e+000  1.000000e+001
      vertex -1.352151e+001  5.000000e+000  8.068354e+000
      vertex -1.529303e+001  5.000000e+000  5.000000e+000
    endloop
  endfacet
  facet normal  0.000000e+000  1.000000e+000  0.000000e+000
    outer loop
      vertex -1.800000e+001  5.000000e+000  0.000000e+000
      vertex -1.800000e+001  5.000000e+000  1.000000e+001
      vertex -1.529303e+001  5.000000e+000  5.000000e+000
    endloop
  endfacet
  facet normal  0.000000e+000  1.000000e+000  0.000000e+000
    outer loop
      vertex -1.800000e+001  5.000000e+000  0.000000e+000
      vertex -1.529303e+001  5.000000e+000  5.000000e+000
      vertex -1.352151e+001  5.000000e+000  1.931646e+000
    endloop
  endfacet
  facet normal  -0.000000e+000  1.000000e+000  0.000000e+000
    outer loop
      vertex -1.800000e+001  5.000000e+000  0.000000e+000
      vertex -1.352151e+001  5.000000e+000  1.931646e+000
      vertex -9.978485e+000  5.000000e+000  1.931646e+000
    endloop
  endfacet
  facet normal  0.000000e+000  9.999999e-001  0.000000e+000
    outer loop
      vertex -1.800000e+001  5.000000e+000  0.000000e+000
      vertex -9.978485e+000  5.000000e+000  1.931646e+000
      vertex -5.000000e+000  5.000000e+000  0.000000e+000
    endloop
  endfacet
  facet normal  0.000000e+000  9.999999e-001  0.000000e+000
    outer loop
      vertex -9.978485e+000  5.000000e+000  1.931646e+000
      vertex -8.206970e+000  5.000000e+000  5.000000e+000
      vertex -5.000000e+000  5.000000e+000  0.000000e+000
    endloop
  endfacet
  facet normal  0.000000e+000  9.999999e-001  0.000000e+000
    outer loop
      vertex -5.000000e+000  5.000000e+000  0.000000e+000
      vertex -8.206970e+000  5.000000e+000  5.000000e+000
      vertex -9.978485e+000  5.000000e+000  8.068354e+000
    endloop
  endfacet
  facet normal  -0.000000e+000  1.000000e+000  0.000000e+000
    outer loop
      vertex -5.000000e+000  5.000000e+000  0.000000e+000
      vertex -9.978485e+000  5.000000e+000  8.068354e+000
      vertex -5.000000e+000  5.000000e+000  1.000000e+001
    endloop
  endfacet
  facet normal  0.000000e+000  1.000000e+000  0.000000e+000
    outer loop
      vertex -5.000000e+000  5.000000e+000  1.000000e+001
      vertex -9.978485e+000  5.000000e+000  8.068354e+000
      vertex -1.352151e+001  5.000000e+000  8.068354e+000
    endloop
  endfacet
  facet normal  0.000000e+000  9.999999e-001  -0.000000e+000
    outer loop
      vertex -5.000000e+000  5.000000e+000  1.000000e+001
      vertex -1.352151e+001  5.000000e+000  8.068354e+000
      vertex -1.800000e+001  5.000000e+000  1.000000e+001
    endloop
  endfacet
  facet normal  8.595701e-001  1.218695e-001  4.962730e-001
    outer loop
      vertex -1.486769e+001  2.000000e+000  5.000000e+000
      vertex -1.330885e+001  2.000000e+000  2.300000e+000
      vertex -1.529303e+001  5.000000e+000  5.000000e+000
    endloop
  endfacet
  facet normal  8.595701e-001  1.218694e-001  4.962731e-001
    outer loop
      vertex -1.529303e+001  5.000000e+000  5.000000e+000
      vertex -1.330885e+001  2.000000e+000  2.300000e+000
      vertex -1.352151e+001  5.000000e+000  1.931646e+000
    endloop
  endfacet
  facet normal  0.000000e+000  1.218693e-001  9.925461e-001
    outer loop
      vertex -1.330885e+001  2.000000e+000  2.300000e+000
      vertex -1.019115e+001  2.000000e+000  2.300000e+000
      vertex -1.352151e+001  5.000000e+000  1.931646e+000
    endloop
  endfacet
  facet normal  -0.000000e+000  1.218693e-001  9.925461e-001
    outer loop
      vertex -1.352151e+001  5.000000e+000  1.931646e+000
      vertex -1.019115e+001  2.000000e+000  2.300000e+000
      vertex -9.978485e+000  5.000000e+000  1.931646e+000
    endloop
  endfacet
  facet normal  8.595701e-001  1.218694e-001 -4.962730e-001
    outer loop
      vertex -1.330885e+001  2.000000e+000  7.700000e+000
      vertex -1.486769e+001  2.000000e+000  5.000000e+000
      vertex -1.352151e+001  5.000000e+000  8.068354e+000
    endloop
  endfacet
  facet normal  8.595701e-001  1.218695e-001 -4.962731e-001
    outer loop
      vertex -1.352151e+001  5.000000e+000  8.068354e+000
      vertex -1.486769e+001  2.000000e+000  5.000000e+000
      vertex -1.529303e+001  5.000000e+000  5.000000e+000
    endloop
  endfacet
  facet normal  0.000000e+000  1.218694e-001 -9.925461e-001
    outer loop
      vertex -1.019115e+001  2.000000e+000  7.700000e+000
      vertex -1.330885e+001  2.000000e+000  7.700000e+000
      vertex -9.978485e+000  5.000000e+000  8.068354e+000
    endloop
  endfacet
  facet normal  0.000000e+000  1.218694e-001 -9.925461e-001
    outer loop
      vertex -9.978485e+000  5.000000e+000  8.068354e+000
      vertex -1.330885e+001  2.000000e+000  7.700000e+000
      vertex -1.352151e+001  5.000000e+000  8.068354e+000
    endloop
  endfacet
  facet normal -8.595701e-001  1.218695e-001 -4.962730e-001
    outer loop
      vertex -8.632309e+000  2.000000e+000  5.000000e+000
      vertex -1.019115e+001  2.000000e+000  7.700000e+000
      vertex -8.206970e+000  5.000000e+000  5.000000e+000
    endloop
  endfacet
  facet normal -8.595701e-001  1.218694e-001 -4.962731e-001
    outer loop
      vertex -8.206970e+000  5.000000e+000  5.000000e+000
      vertex -1.019115e+001  2.000000e+000  7.700000e+000
      vertex -9.978485e+000  5.000000e+000  8.068354e+000
    endloop
  endfacet
  facet normal -8.595703e-001  1.218694e-001  4.962730e-001
    outer loop
      vertex -1.019115e+001  2.000000e+000  2.300000e+000
      vertex -8.632309e+000  2.000000e+000  5.000000e+000
      vertex -9.978485e+000  5.000000e+000  1.931646e+000
    endloop
  endfacet
  facet normal -8.595701e-001  1.218695e-001  4.962731e-001
    outer loop
      vertex -9.978485e+000  5.000000e+000  1.931646e+000
      vertex -8.632309e+000  2.000000e+000  5.000000e+000
      vertex -8.206970e+000  5.000000e+000  5.000000e+000
    endloop
  endfacet
  facet normal  0.000000e+000  1.000000e+000  0.000000e+000
    outer loop
      vertex -1.486769e+001  2.000000e+000  5.000000e+000
      vertex -1.289601e+001  2.000000e+000  6.322562e+000
      vertex -1.322219e+001  2.000000e+000  5.946121e+000
    endloop
  endfacet
  facet normal  0.000000e+000  1.000000e+000  0.000000e+000
    outer loop
      vertex -1.486769e+001  2.000000e+000  5.000000e+000
      vertex -1.322219e+001  2.000000e+000  5.946121e+000
      vertex -1.342911e+001  2.000000e+000  5.493032e+000
    endloop
  endfacet
  facet normal  0.000000e+000  1.000000e+000  0.000000e+000
    outer loop
      vertex -1.486769e+001  2.000000e+000  5.000000e+000
      vertex -1.342911e+001  2.000000e+000  5.493032e+000
      vertex -1.350000e+001  2.000000e+000  5.000000e+000
    endloop
  endfacet
  facet normal  0.000000e+000  1.000000e+000  0.000000e+000
    outer loop
      vertex -1.330885e+001  2.000000e+000  7.700000e+000
      vertex -1.019115e+001  2.000000e+000  7.700000e+000
      vertex -1.150095e+001  2.000000e+000  6.732188e+000
    endloop
  endfacet
  facet normal  0.000000e+000  9.999999e-001  0.000000e+000
    outer loop
      vertex -1.330885e+001  2.000000e+000  7.700000e+000
      vertex -1.150095e+001  2.000000e+000  6.732188e+000
      vertex -1.199905e+001  2.000000e+000  6.732188e+000
    endloop
  endfacet
  facet normal  0.000000e+000  1.000000e+000  0.000000e+000
    outer loop
      vertex -1.330885e+001  2.000000e+000  7.700000e+000
      vertex -1.199905e+001  2.000000e+000  6.732188e+000
      vertex -1.247698e+001  2.000000e+000  6.591856e+000
    endloop
  endfacet
  facet normal  0.000000e+000  1.000000e+000  0.000000e+000
    outer loop
      vertex -1.330885e+001  2.000000e+000  7.700000e+000
      vertex -1.247698e+001  2.000000e+000  6.591856e+000
      vertex -1.289601e+001  2.000000e+000  6.322562e+000
    endloop
  endfacet
  facet normal  0.000000e+000  1.000000e+000  0.000000e+000
    outer loop
      vertex -1.330885e+001  2.000000e+000  7.700000e+000
      vertex -1.289601e+001  2.000000e+000  6.322562e+000
      vertex -1.486769e+001  2.000000e+000  5.000000e+000
    endloop
  endfacet
  facet normal  -0.000000e+000  1.000000e+000  0.000000e+000
    outer loop
      vertex -1.330885e+001  2.000000e+000  2.300000e+000
      vertex -1.486769e+001  2.000000e+000  5.000000e+000
      vertex -1.350000e+001  2.000000e+000  5.000000e+000
    endloop
  endfacet
  facet normal  0.000000e+000  1.000000e+000  0.000000e+000
    outer loop
      vertex -1.330885e+001  2.000000e+000  2.300000e+000
      vertex -1.350000e+001  2.000000e+000  5.000000e+000
      vertex -1.342911e+001  2.000000e+000  4.506968e+000
    endloop
  endfacet
  facet normal  0.000000e+000  1.000000e+000  0.000000e+000
    outer loop
      vertex -1.330885e+001  2.000000e+000  2.300000e+000
      vertex -1.342911e+001  2.000000e+000  4.506968e+000
      vertex -1.322219e+001  2.000000e+000  4.053879e+000
    endloop
  endfacet
  facet normal  0.000000e+000  9.999999e-001  0.000000e+000
    outer loop
      vertex -1.330885e+001  2.000000e+000  2.300000e+000
      vertex -1.322219e+001  2.000000e+000  4.053879e+000
      vertex -1.289601e+001  2.000000e+000  3.677438e+000
    endloop
  endfacet
  facet normal  0.000000e+000  1.000000e+000  0.000000e+000
    outer loop
      vertex -1.330885e+001  2.000000e+000  2.300000e+000
      vertex -1.289601e+001  2.000000e+000  3.677438e+000
      vertex -1.247698e+001  2.000000e+000  3.408144e+000
    endloop
  endfacet
  facet normal  0.000000e+000  1.000000e+000  0.000000e+000
    outer loop
      vertex -1.330885e+001  2.000000e+000  2.300000e+000
      vertex -1.247698e+001  2.000000e+000  3.408144e+000
      vertex -1.199905e+001  2.000000e+000  3.267812e+000
    endloop
  endfacet
  facet normal  -0.000000e+000  1.000000e+000  0.000000e+000
    outer loop
      vertex -1.330885e+001  2.000000e+000  2.300000e+000
      vertex -1.199905e+001  2.000000e+000  3.267812e+000
      vertex -1.150095e+001  2.000000e+000  3.267812e+000
    endloop
  endfacet
  facet normal  0.000000e+000  9.999999e-001  0.000000e+000
    outer loop
      vertex -1.330885e+001  2.000000e+000  2.300000e+000
      vertex -1.150095e+001  2.000000e+000  3.267812e+000
      vertex -1.019115e+001  2.000000e+000  2.300000e+000
    endloop
  endfacet
  facet normal  0.000000e+000  1.000000e+000  0.000000e+000
    outer loop
      vertex -8.632309e+000  2.000000e+000  5.000000e+000
      vertex -1.019115e+001  2.000000e+000  2.300000e+000
      vertex -1.007089e+001  2.000000e+000  4.506968e+000
    endloop
  endfacet
  facet normal  0.000000e+000  1.000000e+000  0.000000e+000
    outer loop
      vertex -8.632309e+000  2.000000e+000  5.000000e+000
      vertex -1.007089e+001  2.000000e+000  4.506968e+000
      vertex -1.000000e+001  2.000000e+000  5.000000e+000
    endloop
  endfacet
  facet normal  0.000000e+000  1.000000e+000  -0.000000e+000
    outer loop
      vertex -8.632309e+000  2.000000e+000  5.000000e+000
      vertex -1.000000e+001  2.000000e+000  5.000000e+000
      vertex -1.007089e+001  2.000000e+000  5.493032e+000
    endloop
  endfacet
  facet normal  -0.000000e+000  1.000000e+000  -0.000000e+000
    outer loop
      vertex -8.632309e+000  2.000000e+000  5.000000e+000
      vertex -1.007089e+001  2.000000e+000  5.493032e+000
      vertex -1.027781e+001  2.000000e+000  5.946121e+000
    endloop
  endfacet
  facet normal  -0.000000e+000  1.000000e+000  -0.000000e+000
    outer loop
      vertex -8.632309e+000  2.000000e+000  5.000000e+000
      vertex -1.027781e+001  2.000000e+000  5.946121e+000
      vertex -1.060399e+001  2.000000e+000  6.322562e+000
    endloop
  endfacet
  facet normal  0.000000e+000  1.000000e+000  0.000000e+000
    outer loop
      vertex -1.019115e+001  2.000000e+000  7.700000e+000
      vertex -8.632309e+000  2.000000e+000  5.000000e+000
      vertex -1.060399e+001  2.000000e+000  6.322562e+000
    endloop
  endfacet
  facet normal  0.000000e+000  1.000000e+000  -0.000000e+000
    outer loop
      vertex -1.019115e+001  2.000000e+000  7.700000e+000
      vertex -1.060399e+001  2.000000e+000  6.322562e+000
      vertex -1.102302e+001  2.000000e+000  6.591856e+000
    endloop
  endfacet
  facet normal  0.000000e+000  1.000000e+000  -0.000000e+000
    outer loop
      vertex -1.019115e+001  2.000000e+000  7.700000e+000
      vertex -1.102302e+001  2.000000e+000  6.591856e+000
      vertex -1.150095e+001  2.000000e+000  6.732188e+000
    endloop
  endfacet
  facet normal  -0.000000e+000  1.000000e+000  0.000000e+000
    outer loop
      vertex -1.019115e+001  2.000000e+000  2.300000e+000
      vertex -1.150095e+001  2.000000e+000  3.267812e+000
      vertex -1.102302e+001  2.000000e+000  3.408144e+000
    endloop
  endfacet
  facet normal  -0.000000e+000  1.000000e+000  0.000000e+000
    outer loop
      vertex -1.019115e+001  2.000000e+000  2.300000e+000
      vertex -1.102302e+001  2.000000e+000  3.408144e+000
      vertex -1.060399e+001  2.000000e+000  3.677438e+000
    endloop
  endfacet
  facet normal  -0.000000e+000  9.999999e-001  0.000000e+000
    outer loop
      vertex -1.019115e+001  2.000000e+000  2.300000e+000
      vertex -1.060399e+001  2.000000e+000  3.677438e+000
      vertex -1.027781e+001  2.000000e+000  4.053879e+000
    endloop
  endfacet
  facet normal  -0.000000e+000  1.000000e+000  0.000000e+000
    outer loop
      vertex -1.019115e+001  2.000000e+000  2.300000e+000
      vertex -1.027781e+001  2.000000e+000  4.053879e+000
      vertex -1.007089e+001  2.000000e+000  4.506968e+000
    endloop
  endfacet
  facet normal  2.817325e-001  0.000000e+000  9.594930e-001
    outer loop
      vertex -1.199905e+001 -7.548885e-015  3.267812e+000
      vertex -1.247698e+001  2.000000e+000  3.408144e+000
      vertex -1.247698e+001 -7.867246e-015  3.408144e+000
    endloop
  endfacet
  facet normal  5.406407e-001  -0.000000e+000  8.412536e-001
    outer loop
      vertex -1.247698e+001 -7.867246e-015  3.408144e+000
      vertex -1.247698e+001  2.000000e+000  3.408144e+000
      vertex -1.289601e+001  2.000000e+000  3.677438e+000
    endloop
  endfacet
  facet normal  5.406407e-001  0.000000e+000  8.412536e-001
    outer loop
      vertex -1.247698e+001 -7.867246e-015  3.408144e+000
      vertex -1.289601e+001  2.000000e+000  3.677438e+000
      vertex -1.289601e+001 -8.146377e-015  3.677438e+000
    endloop
  endfacet
  facet normal  7.557500e-001  -0.000000e+000  6.548603e-001
    outer loop
      vertex -1.289601e+001 -8.146377e-015  3.677438e+000
      vertex -1.289601e+001  2.000000e+000  3.677438e+000
      vertex -1.322219e+001  2.000000e+000  4.053879e+000
    endloop
  endfacet
  facet normal  7.557500e-001  0.000000e+000  6.548603e-001
    outer loop
      vertex -1.289601e+001 -8.146377e-015  3.677438e+000
      vertex -1.322219e+001  2.000000e+000  4.053879e+000
      vertex -1.322219e+001 -8.363661e-015  4.053879e+000
    endloop
  endfacet
  facet normal  9.096321e-001  -0.000000e+000  4.154147e-001
    outer loop
      vertex -1.322219e+001 -8.363661e-015  4.053879e+000
      vertex -1.322219e+001  2.000000e+000  4.053879e+000
      vertex -1.342911e+001  2.000000e+000  4.506968e+000
    endloop
  endfacet
  facet normal  9.096321e-001  0.000000e+000  4.154147e-001
    outer loop
      vertex -1.322219e+001 -8.363661e-015  4.053879e+000
      vertex -1.342911e+001  2.000000e+000  4.506968e+000
      vertex -1.342911e+001 -8.501497e-015  4.506968e+000
    endloop
  endfacet
  facet normal  9.898214e-001  -0.000000e+000  1.423154e-001
    outer loop
      vertex -1.342911e+001 -8.501497e-015  4.506968e+000
      vertex -1.342911e+001  2.000000e+000  4.506968e+000
      vertex -1.350000e+001  2.000000e+000  5.000000e+000
    endloop
  endfacet
  facet normal  9.898214e-001  0.000000e+000  1.423154e-001
    outer loop
      vertex -1.342911e+001 -8.501497e-015  4.506968e+000
      vertex -1.350000e+001  2.000000e+000  5.000000e+000
      vertex -1.350000e+001 -8.271162e-015  5.000000e+000
    endloop
  endfacet
  facet normal  2.817325e-001  -0.000000e+000  9.594930e-001
    outer loop
      vertex -1.247698e+001  2.000000e+000  3.408144e+000
      vertex -1.199905e+001 -7.548885e-015  3.267812e+000
      vertex -1.199905e+001  2.000000e+000  3.267812e+000
    endloop
  endfacet
  facet normal  0.000000e+000  0.000000e+000  9.999999e-001
    outer loop
      vertex -1.199905e+001  2.000000e+000  3.267812e+000
      vertex -1.199905e+001 -7.548885e-015  3.267812e+000
      vertex -1.150095e+001 -7.217082e-015  3.267812e+000
    endloop
  endfacet
  facet normal  0.000000e+000  -0.000000e+000  9.999999e-001
    outer loop
      vertex -1.199905e+001  2.000000e+000  3.267812e+000
      vertex -1.150095e+001 -7.217082e-015  3.267812e+000
      vertex -1.150095e+001  2.000000e+000  3.267812e+000
    endloop
  endfacet
  facet normal -2.817325e-001  0.000000e+000  9.594930e-001
    outer loop
      vertex -1.150095e+001  2.000000e+000  3.267812e+000
      vertex -1.150095e+001 -7.217082e-015  3.267812e+000
      vertex -1.102302e+001 -6.898720e-015  3.408144e+000
    endloop
  endfacet
  facet normal -2.817325e-001  0.000000e+000  9.594930e-001
    outer loop
      vertex -1.150095e+001  2.000000e+000  3.267812e+000
      vertex -1.102302e+001 -6.898720e-015  3.408144e+000
      vertex -1.102302e+001  2.000000e+000  3.408144e+000
    endloop
  endfacet
  facet normal -5.406407e-001  0.000000e+000  8.412536e-001
    outer loop
      vertex -1.102302e+001  2.000000e+000  3.408144e+000
      vertex -1.102302e+001 -6.898720e-015  3.408144e+000
      vertex -1.060399e+001 -6.619590e-015  3.677438e+000
    endloop
  endfacet
  facet normal -5.406407e-001  0.000000e+000  8.412536e-001
    outer loop
      vertex -1.102302e+001  2.000000e+000  3.408144e+000
      vertex -1.060399e+001 -6.619590e-015  3.677438e+000
      vertex -1.060399e+001  2.000000e+000  3.677438e+000
    endloop
  endfacet
  facet normal -7.557500e-001  0.000000e+000  6.548603e-001
    outer loop
      vertex -1.060399e+001  2.000000e+000  3.677438e+000
      vertex -1.060399e+001 -6.619590e-015  3.677438e+000
      vertex -1.027781e+001 -6.402305e-015  4.053879e+000
    endloop
  endfacet
  facet normal -7.557500e-001  0.000000e+000  6.548603e-001
    outer loop
      vertex -1.060399e+001  2.000000e+000  3.677438e+000
      vertex -1.027781e+001 -6.402305e-015  4.053879e+000
      vertex -1.027781e+001  2.000000e+000  4.053879e+000
    endloop
  endfacet
  facet normal -9.096321e-001  0.000000e+000  4.154147e-001
    outer loop
      vertex -1.027781e+001  2.000000e+000  4.053879e+000
      vertex -1.027781e+001 -6.402305e-015  4.053879e+000
      vertex -1.007089e+001 -6.264469e-015  4.506968e+000
    endloop
  endfacet
  facet normal -9.096321e-001  0.000000e+000  4.154147e-001
    outer loop
      vertex -1.027781e+001  2.000000e+000  4.053879e+000
      vertex -1.007089e+001 -6.264469e-015  4.506968e+000
      vertex -1.007089e+001  2.000000e+000  4.506968e+000
    endloop
  endfacet
  facet normal -9.898214e-001  0.000000e+000  1.423154e-001
    outer loop
      vertex -1.007089e+001  2.000000e+000  4.506968e+000
      vertex -1.007089e+001 -6.264469e-015  4.506968e+000
      vertex -1.000000e+001 -5.939693e-015  5.000000e+000
    endloop
  endfacet
  facet normal -9.898214e-001  0.000000e+000  1.423154e-001
    outer loop
      vertex -1.007089e+001  2.000000e+000  4.506968e+000
      vertex -1.000000e+001 -5.939693e-015  5.000000e+000
      vertex -1.000000e+001  2.000000e+000  5.000000e+000
    endloop
  endfacet
  facet normal -2.817330e-001  -0.000000e+000 -9.594929e-001
    outer loop
      vertex -1.150095e+001 -7.217082e-015  6.732188e+000
      vertex -1.102302e+001  2.000000e+000  6.591856e+000
      vertex -1.102302e+001 -6.898720e-015  6.591856e+000
    endloop
  endfacet
  facet normal -5.406407e-001  0.000000e+000 -8.412536e-001
    outer loop
      vertex -1.102302e+001 -6.898720e-015  6.591856e+000
      vertex -1.102302e+001  2.000000e+000  6.591856e+000
      vertex -1.060399e+001  2.000000e+000  6.322562e+000
    endloop
  endfacet
  facet normal -5.406407e-001  -0.000000e+000 -8.412536e-001
    outer loop
      vertex -1.102302e+001 -6.898720e-015  6.591856e+000
      vertex -1.060399e+001  2.000000e+000  6.322562e+000
      vertex -1.060399e+001 -6.619590e-015  6.322562e+000
    endloop
  endfacet
  facet normal -7.557500e-001  0.000000e+000 -6.548603e-001
    outer loop
      vertex -1.060399e+001 -6.619590e-015  6.322562e+000
      vertex -1.060399e+001  2.000000e+000  6.322562e+000
      vertex -1.027781e+001  2.000000e+000  5.946121e+000
    endloop
  endfacet
  facet normal -7.557500e-001  -0.000000e+000 -6.548603e-001
    outer loop
      vertex -1.060399e+001 -6.619590e-015  6.322562e+000
      vertex -1.027781e+001  2.000000e+000  5.946121e+000
      vertex -1.027781e+001 -6.402305e-015  5.946121e+000
    endloop
  endfacet
  facet normal -9.096321e-001  0.000000e+000 -4.154147e-001
    outer loop
      vertex -1.027781e+001 -6.402305e-015  5.946121e+000
      vertex -1.027781e+001  2.000000e+000  5.946121e+000
      vertex -1.007089e+001  2.000000e+000  5.493032e+000
    endloop
  endfacet
  facet normal -9.096321e-001  -0.000000e+000 -4.154147e-001
    outer loop
      vertex -1.027781e+001 -6.402305e-015  5.946121e+000
      vertex -1.007089e+001  2.000000e+000  5.493032e+000
      vertex -1.007089e+001 -6.264469e-015  5.493032e+000
    endloop
  endfacet
  facet normal -9.898214e-001  0.000000e+000 -1.423154e-001
    outer loop
      vertex -1.007089e+001 -6.264469e-015  5.493032e+000
      vertex -1.007089e+001  2.000000e+000  5.493032e+000
      vertex -1.000000e+001  2.000000e+000  5.000000e+000
    endloop
  endfacet
  facet normal -9.898214e-001  -0.000000e+000 -1.423154e-001
    outer loop
      vertex -1.007089e+001 -6.264469e-015  5.493032e+000
      vertex -1.000000e+001  2.000000e+000  5.000000e+000
      vertex -1.000000e+001 -5.939693e-015  5.000000e+000
    endloop
  endfacet
  facet normal -2.817330e-001  0.000000e+000 -9.594929e-001
    outer loop
      vertex -1.102302e+001  2.000000e+000  6.591856e+000
      vertex -1.150095e+001 -7.217082e-015  6.732188e+000
      vertex -1.150095e+001  2.000000e+000  6.732188e+000
    endloop
  endfacet
  facet normal  0.000000e+000  -0.000000e+000 -9.999999e-001
    outer loop
      vertex -1.150095e+001  2.000000e+000  6.732188e+000
      vertex -1.150095e+001 -7.217082e-015  6.732188e+000
      vertex -1.199905e+001 -7.548885e-015  6.732188e+000
    endloop
  endfacet
  facet normal  0.000000e+000  0.000000e+000 -9.999999e-001
    outer loop
      vertex -1.150095e+001  2.000000e+000  6.732188e+000
      vertex -1.199905e+001 -7.548885e-015  6.732188e+000
      vertex -1.199905e+001  2.000000e+000  6.732188e+000
    endloop
  endfacet
  facet normal  2.817330e-001  0.000000e+000 -9.594929e-001
    outer loop
      vertex -1.199905e+001  2.000000e+000  6.732188e+000
      vertex -1.199905e+001 -7.548885e-015  6.732188e+000
      vertex -1.247698e+001 -7.867246e-015  6.591856e+000
    endloop
  endfacet
  facet normal  2.817330e-001  0.000000e+000 -9.594929e-001
    outer loop
      vertex -1.199905e+001  2.000000e+000  6.732188e+000
      vertex -1.247698e+001 -7.867246e-015  6.591856e+000
      vertex -1.247698e+001  2.000000e+000  6.591856e+000
    endloop
  endfacet
  facet normal  5.406407e-001  0.000000e+000 -8.412536e-001
    outer loop
      vertex -1.247698e+001  2.000000e+000  6.591856e+000
      vertex -1.247698e+001 -7.867246e-015  6.591856e+000
      vertex -1.289601e+001 -8.146377e-015  6.322562e+000
    endloop
  endfacet
  facet normal  5.406407e-001  0.000000e+000 -8.412536e-001
    outer loop
      vertex -1.247698e+001  2.000000e+000  6.591856e+000
      vertex -1.289601e+001 -8.146377e-015  6.322562e+000
      vertex -1.289601e+001  2.000000e+000  6.322562e+000
    endloop
  endfacet
  facet normal  7.557500e-001  0.000000e+000 -6.548603e-001
    outer loop
      vertex -1.289601e+001  2.000000e+000  6.322562e+000
      vertex -1.289601e+001 -8.146377e-015  6.322562e+000
      vertex -1.322219e+001 -8.363661e-015  5.946121e+000
    endloop
  endfacet
  facet normal  7.557500e-001  0.000000e+000 -6.548603e-001
    outer loop
      vertex -1.289601e+001  2.000000e+000  6.322562e+000
      vertex -1.322219e+001 -8.363661e-015  5.946121e+000
      vertex -1.322219e+001  2.000000e+000  5.946121e+000
    endloop
  endfacet
  facet normal  9.096321e-001  0.000000e+000 -4.154147e-001
    outer loop
      vertex -1.322219e+001  2.000000e+000  5.946121e+000
      vertex -1.322219e+001 -8.363661e-015  5.946121e+000
      vertex -1.342911e+001 -8.501497e-015  5.493032e+000
    endloop
  endfacet
  facet normal  9.096321e-001  0.000000e+000 -4.154147e-001
    outer loop
      vertex -1.322219e+001  2.000000e+000  5.946121e+000
      vertex -1.342911e+001 -8.501497e-015  5.493032e+000
      vertex -1.342911e+001  2.000000e+000  5.493032e+000
    endloop
  endfacet
  facet normal  9.898214e-001  0.000000e+000 -1.423154e-001
    outer loop
      vertex -1.342911e+001  2.000000e+000  5.493032e+000
      vertex -1.342911e+001 -8.501497e-015  5.493032e+000
      vertex -1.350000e+001 -8.271162e-015  5.000000e+000
    endloop
  endfacet
  facet normal  9.898214e-001  0.000000e+000 -1.423154e-001
    outer loop
      vertex -1.342911e+001  2.000000e+000  5.493032e+000
      vertex -1.350000e+001 -8.271162e-015  5.000000e+000
      vertex -1.350000e+001  2.000000e+000  5.000000e+000
    endloop
  endfacet
  facet normal -1.000000e+000  0.000000e+000  0.000000e+000
    outer loop
      vertex -1.800000e+001 -1.154632e-014  0.000000e+000
      vertex -1.800000e+001 -1.154632e-014  1.000000e+001
      vertex -1.800000e+001  5.000000e+000  0.000000e+000
    endloop
  endfacet
  facet normal -1.000000e+000  0.000000e+000  0.000000e+000
    outer loop
      vertex -1.800000e+001  5.000000e+000  0.000000e+000
      vertex -1.800000e+001 -1.154632e-014  1.000000e+001
      vertex -1.800000e+001  5.000000e+000  1.000000e+001
    endloop
  endfacet
  facet normal -1.218693e-001  0.000000e+000  9.925461e-001
    outer loop
      vertex -2.000000e+000  1.330885e+001  2.300000e+000
      vertex -5.000000e+000  1.352151e+001  1.931646e+000
      vertex -2.000000e+000  1.019115e+001  2.300000e+000
    endloop
  endfacet
  facet normal -1.218693e-001  0.000000e+000  9.925461e-001
    outer loop
      vertex -2.000000e+000  1.019115e+001  2.300000e+000
      vertex -5.000000e+000  1.352151e+001  1.931646e+000
      vertex -5.000000e+000  9.978485e+000  1.931646e+000
    endloop
  endfacet
  facet normal -1.218694e-001 -8.595701e-001 -4.962730e-001
    outer loop
      vertex -2.000000e+000  1.330885e+001  7.700000e+000
      vertex -5.000000e+000  1.352151e+001  8.068354e+000
      vertex -2.000000e+000  1.486769e+001  5.000000e+000
    endloop
  endfacet
  facet normal -1.218695e-001 -8.595701e-001 -4.962731e-001
    outer loop
      vertex -2.000000e+000  1.486769e+001  5.000000e+000
      vertex -5.000000e+000  1.352151e+001  8.068354e+000
      vertex -5.000000e+000  1.529303e+001  5.000000e+000
    endloop
  endfacet
  facet normal -1.218695e-001 -8.595701e-001  4.962730e-001
    outer loop
      vertex -2.000000e+000  1.486769e+001  5.000000e+000
      vertex -5.000000e+000  1.529303e+001  5.000000e+000
      vertex -2.000000e+000  1.330885e+001  2.300000e+000
    endloop
  endfacet
  facet normal -1.218694e-001 -8.595701e-001  4.962731e-001
    outer loop
      vertex -2.000000e+000  1.330885e+001  2.300000e+000
      vertex -5.000000e+000  1.529303e+001  5.000000e+000
      vertex -5.000000e+000  1.352151e+001  1.931646e+000
    endloop
  endfacet
  facet normal -1.218694e-001  0.000000e+000 -9.925461e-001
    outer loop
      vertex -2.000000e+000  1.019115e+001  7.700000e+000
      vertex -5.000000e+000  9.978485e+000  8.068354e+000
      vertex -2.000000e+000  1.330885e+001  7.700000e+000
    endloop
  endfacet
  facet normal -1.218694e-001  0.000000e+000 -9.925461e-001
    outer loop
      vertex -2.000000e+000  1.330885e+001  7.700000e+000
      vertex -5.000000e+000  9.978485e+000  8.068354e+000
      vertex -5.000000e+000  1.352151e+001  8.068354e+000
    endloop
  endfacet
  facet normal -1.218695e-001  8.595701e-001 -4.962730e-001
    outer loop
      vertex -2.000000e+000  8.632309e+000  5.000000e+000
      vertex -5.000000e+000  8.206970e+000  5.000000e+000
      vertex -2.000000e+000  1.019115e+001  7.700000e+000
    endloop
  endfacet
  facet normal -1.218694e-001  8.595701e-001 -4.962731e-001
    outer loop
      vertex -2.000000e+000  1.019115e+001  7.700000e+000
      vertex -5.000000e+000  8.206970e+000  5.000000e+000
      vertex -5.000000e+000  9.978485e+000  8.068354e+000
    endloop
  endfacet
  facet normal -1.218694e-001  8.595703e-001  4.962730e-001
    outer loop
      vertex -2.000000e+000  1.019115e+001  2.300000e+000
      vertex -5.000000e+000  9.978485e+000  1.931646e+000
      vertex -2.000000e+000  8.632309e+000  5.000000e+000
    endloop
  endfacet
  facet normal -1.218695e-001  8.595701e-001  4.962731e-001
    outer loop
      vertex -2.000000e+000  8.632309e+000  5.000000e+000
      vertex -5.000000e+000  9.978485e+000  1.931646e+000
      vertex -5.000000e+000  8.206970e+000  5.000000e+000
    endloop
  endfacet
  facet normal -1.000000e+000  0.000000e+000  0.000000e+000
    outer loop
      vertex -2.000000e+000  1.486769e+001  5.000000e+000
      vertex -2.000000e+000  1.350000e+001  5.000000e+000
      vertex -2.000000e+000  1.342911e+001  5.493032e+000
    endloop
  endfacet
  facet normal -1.000000e+000  0.000000e+000  0.000000e+000
    outer loop
      vertex -2.000000e+000  1.486769e+001  5.000000e+000
      vertex -2.000000e+000  1.342911e+001  5.493032e+000
      vertex -2.000000e+000  1.322219e+001  5.946121e+000
    endloop
  endfacet
  facet normal -1.000000e+000  0.000000e+000  0.000000e+000
    outer loop
      vertex -2.000000e+000  1.486769e+001  5.000000e+000
      vertex -2.000000e+000  1.322219e+001  5.946121e+000
      vertex -2.000000e+000  1.289601e+001  6.322562e+000
    endloop
  endfacet
  facet normal -1.000000e+000  0.000000e+000  0.000000e+000
    outer loop
      vertex -2.000000e+000  1.330885e+001  7.700000e+000
      vertex -2.000000e+000  1.486769e+001  5.000000e+000
      vertex -2.000000e+000  1.289601e+001  6.322562e+000
    endloop
  endfacet
  facet normal -1.000000e+000  0.000000e+000  0.000000e+000
    outer loop
      vertex -2.000000e+000  1.330885e+001  7.700000e+000
      vertex -2.000000e+000  1.289601e+001  6.322562e+000
      vertex -2.000000e+000  1.247698e+001  6.591856e+000
    endloop
  endfacet
  facet normal -1.000000e+000  0.000000e+000  0.000000e+000
    outer loop
      vertex -2.000000e+000  1.330885e+001  7.700000e+000
      vertex -2.000000e+000  1.247698e+001  6.591856e+000
      vertex -2.000000e+000  1.199905e+001  6.732188e+000
    endloop
  endfacet
  facet normal -9.999999e-001  0.000000e+000  0.000000e+000
    outer loop
      vertex -2.000000e+000  1.330885e+001  7.700000e+000
      vertex -2.000000e+000  1.199905e+001  6.732188e+000
      vertex -2.000000e+000  1.150095e+001  6.732188e+000
    endloop
  endfacet
  facet normal -1.000000e+000  0.000000e+000  0.000000e+000
    outer loop
      vertex -2.000000e+000  1.330885e+001  7.700000e+000
      vertex -2.000000e+000  1.150095e+001  6.732188e+000
      vertex -2.000000e+000  1.019115e+001  7.700000e+000
    endloop
  endfacet
  facet normal -9.999999e-001  0.000000e+000  0.000000e+000
    outer loop
      vertex -2.000000e+000  1.330885e+001  2.300000e+000
      vertex -2.000000e+000  1.019115e+001  2.300000e+000
      vertex -2.000000e+000  1.150095e+001  3.267812e+000
    endloop
  endfacet
  facet normal -1.000000e+000  0.000000e+000  0.000000e+000
    outer loop
      vertex -2.000000e+000  1.330885e+001  2.300000e+000
      vertex -2.000000e+000  1.150095e+001  3.267812e+000
      vertex -2.000000e+000  1.199905e+001  3.267812e+000
    endloop
  endfacet
  facet normal -1.000000e+000  0.000000e+000  0.000000e+000
    outer loop
      vertex -2.000000e+000  1.330885e+001  2.300000e+000
      vertex -2.000000e+000  1.199905e+001  3.267812e+000
      vertex -2.000000e+000  1.247698e+001  3.408144e+000
    endloop
  endfacet
  facet normal -1.000000e+000  0.000000e+000  0.000000e+000
    outer loop
      vertex -2.000000e+000  1.330885e+001  2.300000e+000
      vertex -2.000000e+000  1.247698e+001  3.408144e+000
      vertex -2.000000e+000  1.289601e+001  3.677438e+000
    endloop
  endfacet
  facet normal -9.999999e-001  0.000000e+000  0.000000e+000
    outer loop
      vertex -2.000000e+000  1.330885e+001  2.300000e+000
      vertex -2.000000e+000  1.289601e+001  3.677438e+000
      vertex -2.000000e+000  1.322219e+001  4.053879e+000
    endloop
  endfacet
  facet normal -1.000000e+000  0.000000e+000  0.000000e+000
    outer loop
      vertex -2.000000e+000  1.330885e+001  2.300000e+000
      vertex -2.000000e+000  1.322219e+001  4.053879e+000
      vertex -2.000000e+000  1.342911e+001  4.506968e+000
    endloop
  endfacet
  facet normal -1.000000e+000  0.000000e+000  -0.000000e+000
    outer loop
      vertex -2.000000e+000  1.330885e+001  2.300000e+000
      vertex -2.000000e+000  1.342911e+001  4.506968e+000
      vertex -2.000000e+000  1.350000e+001  5.000000e+000
    endloop
  endfacet
  facet normal -1.000000e+000  0.000000e+000  -0.000000e+000
    outer loop
      vertex -2.000000e+000  1.330885e+001  2.300000e+000
      vertex -2.000000e+000  1.350000e+001  5.000000e+000
      vertex -2.000000e+000  1.486769e+001  5.000000e+000
    endloop
  endfacet
  facet normal -1.000000e+000  0.000000e+000  0.000000e+000
    outer loop
      vertex -2.000000e+000  8.632309e+000  5.000000e+000
      vertex -2.000000e+000  1.060399e+001  6.322562e+000
      vertex -2.000000e+000  1.027781e+001  5.946121e+000
    endloop
  endfacet
  facet normal -1.000000e+000  0.000000e+000  0.000000e+000
    outer loop
      vertex -2.000000e+000  8.632309e+000  5.000000e+000
      vertex -2.000000e+000  1.027781e+001  5.946121e+000
      vertex -2.000000e+000  1.007089e+001  5.493032e+000
    endloop
  endfacet
  facet normal -1.000000e+000  0.000000e+000  0.000000e+000
    outer loop
      vertex -2.000000e+000  8.632309e+000  5.000000e+000
      vertex -2.000000e+000  1.007089e+001  5.493032e+000
      vertex -2.000000e+000  1.000000e+001  5.000000e+000
    endloop
  endfacet
  facet normal -1.000000e+000  -0.000000e+000  -0.000000e+000
    outer loop
      vertex -2.000000e+000  8.632309e+000  5.000000e+000
      vertex -2.000000e+000  1.000000e+001  5.000000e+000
      vertex -2.000000e+000  1.007089e+001  4.506968e+000
    endloop
  endfacet
  facet normal -1.000000e+000  -0.000000e+000  -0.000000e+000
    outer loop
      vertex -2.000000e+000  8.632309e+000  5.000000e+000
      vertex -2.000000e+000  1.007089e+001  4.506968e+000
      vertex -2.000000e+000  1.019115e+001  2.300000e+000
    endloop
  endfacet
  facet normal -1.000000e+000  -0.000000e+000  0.000000e+000
    outer loop
      vertex -2.000000e+000  1.019115e+001  7.700000e+000
      vertex -2.000000e+000  1.150095e+001  6.732188e+000
      vertex -2.000000e+000  1.102302e+001  6.591856e+000
    endloop
  endfacet
  facet normal -1.000000e+000  -0.000000e+000  0.000000e+000
    outer loop
      vertex -2.000000e+000  1.019115e+001  7.700000e+000
      vertex -2.000000e+000  1.102302e+001  6.591856e+000
      vertex -2.000000e+000  1.060399e+001  6.322562e+000
    endloop
  endfacet
  facet normal -1.000000e+000  -0.000000e+000  0.000000e+000
    outer loop
      vertex -2.000000e+000  1.019115e+001  7.700000e+000
      vertex -2.000000e+000  1.060399e+001  6.322562e+000
      vertex -2.000000e+000  8.632309e+000  5.000000e+000
    endloop
  endfacet
  facet normal -1.000000e+000  0.000000e+000  0.000000e+000
    outer loop
      vertex -2.000000e+000  1.019115e+001  2.300000e+000
      vertex -2.000000e+000  1.007089e+001  4.506968e+000
      vertex -2.000000e+000  1.027781e+001  4.053879e+000
    endloop
  endfacet
  facet normal -9.999999e-001  0.000000e+000  -0.000000e+000
    outer loop
      vertex -2.000000e+000  1.019115e+001  2.300000e+000
      vertex -2.000000e+000  1.027781e+001  4.053879e+000
      vertex -2.000000e+000  1.060399e+001  3.677438e+000
    endloop
  endfacet
  facet normal -1.000000e+000  0.000000e+000  -0.000000e+000
    outer loop
      vertex -2.000000e+000  1.019115e+001  2.300000e+000
      vertex -2.000000e+000  1.060399e+001  3.677438e+000
      vertex -2.000000e+000  1.102302e+001  3.408144e+000
    endloop
  endfacet
  facet normal -1.000000e+000  0.000000e+000  -0.000000e+000
    outer loop
      vertex -2.000000e+000  1.019115e+001  2.300000e+000
      vertex -2.000000e+000  1.102302e+001  3.408144e+000
      vertex -2.000000e+000  1.150095e+001  3.267812e+000
    endloop
  endfacet
  facet normal  0.000000e+000  2.817330e-001 -9.594929e-001
    outer loop
      vertex -2.000000e+000  1.150095e+001  6.732188e+000
      vertex  0.000000e+000  1.102302e+001  6.591856e+000
      vertex -2.000000e+000  1.102302e+001  6.591856e+000
    endloop
  endfacet
  facet normal  0.000000e+000  5.406407e-001 -8.412536e-001
    outer loop
      vertex -2.000000e+000  1.102302e+001  6.591856e+000
      vertex  0.000000e+000  1.102302e+001  6.591856e+000
      vertex  0.000000e+000  1.060399e+001  6.322562e+000
    endloop
  endfacet
  facet normal  0.000000e+000  5.406407e-001 -8.412536e-001
    outer loop
      vertex -2.000000e+000  1.102302e+001  6.591856e+000
      vertex  0.000000e+000  1.060399e+001  6.322562e+000
      vertex -2.000000e+000  1.060399e+001  6.322562e+000
    endloop
  endfacet
  facet normal  0.000000e+000  7.557500e-001 -6.548603e-001
    outer loop
      vertex -2.000000e+000  1.060399e+001  6.322562e+000
      vertex  0.000000e+000  1.060399e+001  6.322562e+000
      vertex  0.000000e+000  1.027781e+001  5.946121e+000
    endloop
  endfacet
  facet normal  0.000000e+000  7.557500e-001 -6.548603e-001
    outer loop
      vertex -2.000000e+000  1.060399e+001  6.322562e+000
      vertex  0.000000e+000  1.027781e+001  5.946121e+000
      vertex -2.000000e+000  1.027781e+001  5.946121e+000
    endloop
  endfacet
  facet normal  0.000000e+000  9.096321e-001 -4.154147e-001
    outer loop
      vertex -2.000000e+000  1.027781e+001  5.946121e+000
      vertex  0.000000e+000  1.027781e+001  5.946121e+000
      vertex  0.000000e+000  1.007089e+001  5.493032e+000
    endloop
  endfacet
  facet normal  0.000000e+000  9.096321e-001 -4.154147e-001
    outer loop
      vertex -2.000000e+000  1.027781e+001  5.946121e+000
      vertex  0.000000e+000  1.007089e+001  5.493032e+000
      vertex -2.000000e+000  1.007089e+001  5.493032e+000
    endloop
  endfacet
  facet normal  0.000000e+000  9.898214e-001 -1.423154e-001
    outer loop
      vertex -2.000000e+000  1.007089e+001  5.493032e+000
      vertex  0.000000e+000  1.007089e+001  5.493032e+000
      vertex  0.000000e+000  1.000000e+001  5.000000e+000
    endloop
  endfacet
  facet normal  0.000000e+000  9.898214e-001 -1.423154e-001
    outer loop
      vertex -2.000000e+000  1.007089e+001  5.493032e+000
      vertex  0.000000e+000  1.000000e+001  5.000000e+000
      vertex -2.000000e+000  1.000000e+001  5.000000e+000
    endloop
  endfacet
  facet normal  0.000000e+000  2.817330e-001 -9.594929e-001
    outer loop
      vertex  0.000000e+000  1.102302e+001  6.591856e+000
      vertex -2.000000e+000  1.150095e+001  6.732188e+000
      vertex  0.000000e+000  1.150095e+001  6.732188e+000
    endloop
  endfacet
  facet normal  0.000000e+000  0.000000e+000 -9.999999e-001
    outer loop
      vertex  0.000000e+000  1.150095e+001  6.732188e+000
      vertex -2.000000e+000  1.150095e+001  6.732188e+000
      vertex -2.000000e+000  1.199905e+001  6.732188e+000
    endloop
  endfacet
  facet normal  0.000000e+000  0.000000e+000 -9.999999e-001
    outer loop
      vertex  0.000000e+000  1.150095e+001  6.732188e+000
      vertex -2.000000e+000  1.199905e+001  6.732188e+000
      vertex  0.000000e+000  1.199905e+001  6.732188e+000
    endloop
  endfacet
  facet normal  -0.000000e+000 -2.817330e-001 -9.594929e-001
    outer loop
      vertex  0.000000e+000  1.199905e+001  6.732188e+000
      vertex -2.000000e+000  1.199905e+001  6.732188e+000
      vertex -2.000000e+000  1.247698e+001  6.591856e+000
    endloop
  endfacet
  facet normal  0.000000e+000 -2.817330e-001 -9.594929e-001
    outer loop
      vertex  0.000000e+000  1.199905e+001  6.732188e+000
      vertex -2.000000e+000  1.247698e+001  6.591856e+000
      vertex  0.000000e+000  1.247698e+001  6.591856e+000
    endloop
  endfacet
  facet normal  -0.000000e+000 -5.406407e-001 -8.412536e-001
    outer loop
      vertex  0.000000e+000  1.247698e+001  6.591856e+000
      vertex -2.000000e+000  1.247698e+001  6.591856e+000
      vertex -2.000000e+000  1.289601e+001  6.322562e+000
    endloop
  endfacet
  facet normal  0.000000e+000 -5.406407e-001 -8.412536e-001
    outer loop
      vertex  0.000000e+000  1.247698e+001  6.591856e+000
      vertex -2.000000e+000  1.289601e+001  6.322562e+000
      vertex  0.000000e+000  1.289601e+001  6.322562e+000
    endloop
  endfacet
  facet normal  -0.000000e+000 -7.557500e-001 -6.548603e-001
    outer loop
      vertex  0.000000e+000  1.289601e+001  6.322562e+000
      vertex -2.000000e+000  1.289601e+001  6.322562e+000
      vertex -2.000000e+000  1.322219e+001  5.946121e+000
    endloop
  endfacet
  facet normal  0.000000e+000 -7.557500e-001 -6.548603e-001
    outer loop
      vertex  0.000000e+000  1.289601e+001  6.322562e+000
      vertex -2.000000e+000  1.322219e+001  5.946121e+000
      vertex  0.000000e+000  1.322219e+001  5.946121e+000
    endloop
  endfacet
  facet normal  -0.000000e+000 -9.096321e-001 -4.154147e-001
    outer loop
      vertex  0.000000e+000  1.322219e+001  5.946121e+000
      vertex -2.000000e+000  1.322219e+001  5.946121e+000
      vertex -2.000000e+000  1.342911e+001  5.493032e+000
    endloop
  endfacet
  facet normal  0.000000e+000 -9.096321e-001 -4.154147e-001
    outer loop
      vertex  0.000000e+000  1.322219e+001  5.946121e+000
      vertex -2.000000e+000  1.342911e+001  5.493032e+000
      vertex  0.000000e+000  1.342911e+001  5.493032e+000
    endloop
  endfacet
  facet normal  -0.000000e+000 -9.898214e-001 -1.423154e-001
    outer loop
      vertex  0.000000e+000  1.342911e+001  5.493032e+000
      vertex -2.000000e+000  1.342911e+001  5.493032e+000
      vertex -2.000000e+000  1.350000e+001  5.000000e+000
    endloop
  endfacet
  facet normal  0.000000e+000 -9.898214e-001 -1.423154e-001
    outer loop
      vertex  0.000000e+000  1.342911e+001  5.493032e+000
      vertex -2.000000e+000  1.350000e+001  5.000000e+000
      vertex  0.000000e+000  1.350000e+001  5.000000e+000
    endloop
  endfacet
  facet normal  0.000000e+000 -2.817325e-001  9.594930e-001
    outer loop
      vertex -2.000000e+000  1.199905e+001  3.267812e+000
      vertex  0.000000e+000  1.247698e+001  3.408144e+000
      vertex -2.000000e+000  1.247698e+001  3.408144e+000
    endloop
  endfacet
  facet normal  0.000000e+000 -5.406407e-001  8.412536e-001
    outer loop
      vertex -2.000000e+000  1.247698e+001  3.408144e+000
      vertex  0.000000e+000  1.247698e+001  3.408144e+000
      vertex  0.000000e+000  1.289601e+001  3.677438e+000
    endloop
  endfacet
  facet normal  0.000000e+000 -5.406407e-001  8.412536e-001
    outer loop
      vertex -2.000000e+000  1.247698e+001  3.408144e+000
      vertex  0.000000e+000  1.289601e+001  3.677438e+000
      vertex -2.000000e+000  1.289601e+001  3.677438e+000
    endloop
  endfacet
  facet normal  0.000000e+000 -7.557500e-001  6.548603e-001
    outer loop
      vertex -2.000000e+000  1.289601e+001  3.677438e+000
      vertex  0.000000e+000  1.289601e+001  3.677438e+000
      vertex  0.000000e+000  1.322219e+001  4.053879e+000
    endloop
  endfacet
  facet normal  0.000000e+000 -7.557500e-001  6.548603e-001
    outer loop
      vertex -2.000000e+000  1.289601e+001  3.677438e+000
      vertex  0.000000e+000  1.322219e+001  4.053879e+000
      vertex -2.000000e+000  1.322219e+001  4.053879e+000
    endloop
  endfacet
  facet normal  0.000000e+000 -9.096321e-001  4.154147e-001
    outer loop
      vertex -2.000000e+000  1.322219e+001  4.053879e+000
      vertex  0.000000e+000  1.322219e+001  4.053879e+000
      vertex  0.000000e+000  1.342911e+001  4.506968e+000
    endloop
  endfacet
  facet normal  0.000000e+000 -9.096321e-001  4.154147e-001
    outer loop
      vertex -2.000000e+000  1.322219e+001  4.053879e+000
      vertex  0.000000e+000  1.342911e+001  4.506968e+000
      vertex -2.000000e+000  1.342911e+001  4.506968e+000
    endloop
  endfacet
  facet normal  0.000000e+000 -9.898214e-001  1.423154e-001
    outer loop
      vertex -2.000000e+000  1.342911e+001  4.506968e+000
      vertex  0.000000e+000  1.342911e+001  4.506968e+000
      vertex  0.000000e+000  1.350000e+001  5.000000e+000
    endloop
  endfacet
  facet normal  0.000000e+000 -9.898214e-001  1.423154e-001
    outer loop
      vertex -2.000000e+000  1.342911e+001  4.506968e+000
      vertex  0.000000e+000  1.350000e+001  5.000000e+000
      vertex -2.000000e+000  1.350000e+001  5.000000e+000
    endloop
  endfacet
  facet normal  0.000000e+000 -2.817325e-001  9.594930e-001
    outer loop
      vertex  0.000000e+000  1.247698e+001  3.408144e+000
      vertex -2.000000e+000  1.199905e+001  3.267812e+000
      vertex  0.000000e+000  1.199905e+001  3.267812e+000
    endloop
  endfacet
  facet normal  0.000000e+000  0.000000e+000  9.999999e-001
    outer loop
      vertex  0.000000e+000  1.199905e+001  3.267812e+000
      vertex -2.000000e+000  1.199905e+001  3.267812e+000
      vertex -2.000000e+000  1.150095e+001  3.267812e+000
    endloop
  endfacet
  facet normal  0.000000e+000  0.000000e+000  9.999999e-001
    outer loop
      vertex  0.000000e+000  1.199905e+001  3.267812e+000
      vertex -2.000000e+000  1.150095e+001  3.267812e+000
      vertex  0.000000e+000  1.150095e+001  3.267812e+000
    endloop
  endfacet
  facet normal  0.000000e+000  2.817325e-001  9.594930e-001
    outer loop
      vertex  0.000000e+000  1.150095e+001  3.267812e+000
      vertex -2.000000e+000  1.150095e+001  3.267812e+000
      vertex -2.000000e+000  1.102302e+001  3.408144e+000
    endloop
  endfacet
  facet normal  -0.000000e+000  2.817325e-001  9.594930e-001
    outer loop
      vertex  0.000000e+000  1.150095e+001  3.267812e+000
      vertex -2.000000e+000  1.102302e+001  3.408144e+000
      vertex  0.000000e+000  1.102302e+001  3.408144e+000
    endloop
  endfacet
  facet normal  0.000000e+000  5.406407e-001  8.412536e-001
    outer loop
      vertex  0.000000e+000  1.102302e+001  3.408144e+000
      vertex -2.000000e+000  1.102302e+001  3.408144e+000
      vertex -2.000000e+000  1.060399e+001  3.677438e+000
    endloop
  endfacet
  facet normal  -0.000000e+000  5.406407e-001  8.412536e-001
    outer loop
      vertex  0.000000e+000  1.102302e+001  3.408144e+000
      vertex -2.000000e+000  1.060399e+001  3.677438e+000
      vertex  0.000000e+000  1.060399e+001  3.677438e+000
    endloop
  endfacet
  facet normal  0.000000e+000  7.557500e-001  6.548603e-001
    outer loop
      vertex  0.000000e+000  1.060399e+001  3.677438e+000
      vertex -2.000000e+000  1.060399e+001  3.677438e+000
      vertex -2.000000e+000  1.027781e+001  4.053879e+000
    endloop
  endfacet
  facet normal  -0.000000e+000  7.557500e-001  6.548603e-001
    outer loop
      vertex  0.000000e+000  1.060399e+001  3.677438e+000
      vertex -2.000000e+000  1.027781e+001  4.053879e+000
      vertex  0.000000e+000  1.027781e+001  4.053879e+000
    endloop
  endfacet
  facet normal  0.000000e+000  9.096321e-001  4.154147e-001
    outer loop
      vertex  0.000000e+000  1.027781e+001  4.053879e+000
      vertex -2.000000e+000  1.027781e+001  4.053879e+000
      vertex -2.000000e+000  1.007089e+001  4.506968e+000
    endloop
  endfacet
  facet normal  -0.000000e+000  9.096321e-001  4.154147e-001
    outer loop
      vertex  0.000000e+000  1.027781e+001  4.053879e+000
      vertex -2.000000e+000  1.007089e+001  4.506968e+000
      vertex  0.000000e+000  1.007089e+001  4.506968e+000
    endloop
  endfacet
  facet normal  0.000000e+000  9.898214e-001  1.423154e-001
    outer loop
      vertex  0.000000e+000  1.007089e+001  4.506968e+000
      vertex -2.000000e+000  1.007089e+001  4.506968e+000
      vertex -2.000000e+000  1.000000e+001  5.000000e+000
    endloop
  endfacet
  facet normal  -0.000000e+000  9.898214e-001  1.423154e-001
    outer loop
      vertex  0.000000e+000  1.007089e+001  4.506968e+000
      vertex -2.000000e+000  1.000000e+001  5.000000e+000
      vertex  0.000000e+000  1.000000e+001  5.000000e+000
    endloop
  endfacet
  facet normal  0.000000e+000  1.000000e+000  0.000000e+000
    outer loop
      vertex  0.000000e+000  1.800000e+001  0.000000e+000
      vertex -5.000000e+000  1.800000e+001  0.000000e+000
      vertex  0.000000e+000  1.800000e+001  1.000000e+001
    endloop
  endfacet
  facet normal  0.000000e+000  1.000000e+000  0.000000e+000
    outer loop
      vertex  0.000000e+000  1.800000e+001  1.000000e+001
      vertex -5.000000e+000  1.800000e+001  0.000000e+000
      vertex -5.000000e+000  1.800000e+001  1.000000e+001
    endloop
  endfacet
endsolid CATIA STL
