solid OpenSCAD_Model
  facet normal -1 0 0
    outer loop
      vertex -41.5 10.05 3
      vertex -41.5 22 15
      vertex -41.5 22 -1
    endloop
  endfacet
  facet normal -1 -0 0
    outer loop
      vertex -41.5 22 15
      vertex -41.5 10.05 3
      vertex -41.5 12.5 15
    endloop
  endfacet
  facet normal -1 0 0
    outer loop
      vertex -41.5 0 -1
      vertex -41.5 10.05 3
      vertex -41.5 22 -1
    endloop
  endfacet
  facet normal -1 0 0
    outer loop
      vertex -41.5 0 15
      vertex -41.5 8 13.5
      vertex -41.5 8 3
    endloop
  endfacet
  facet normal -1 -0 0
    outer loop
      vertex -41.5 10.05 3
      vertex -41.5 0 -1
      vertex -41.5 8 3
    endloop
  endfacet
  facet normal -1 0 0
    outer loop
      vertex -41.5 0 15
      vertex -41.5 8 3
      vertex -41.5 0 -1
    endloop
  endfacet
  facet normal -1 0 0
    outer loop
      vertex -41.5 8 13.5
      vertex -41.5 0 15
      vertex -41.5 6.5 15
    endloop
  endfacet
  facet normal -1 0 0
    outer loop
      vertex -41.5 12.5 15
      vertex -41.5 10.05 3
      vertex -41.5 10.05 12.55
    endloop
  endfacet
  facet normal 0 0 1
    outer loop
      vertex 0 26 15
      vertex -8.5 22 15
      vertex 0 22 15
    endloop
  endfacet
  facet normal 0 0 1
    outer loop
      vertex -8.5 22 15
      vertex -41.5 22 15
      vertex -8.5 12.5 15
    endloop
  endfacet
  facet normal 0 0 1
    outer loop
      vertex 0 26 15
      vertex -41.5 22 15
      vertex -8.5 22 15
    endloop
  endfacet
  facet normal -0 0 1
    outer loop
      vertex -50 26 15
      vertex -41.5 22 15
      vertex 0 26 15
    endloop
  endfacet
  facet normal 0 0 1
    outer loop
      vertex -41.5 22 15
      vertex -50 26 15
      vertex -50 22 15
    endloop
  endfacet
  facet normal 0 0 1
    outer loop
      vertex -8.5 12.5 15
      vertex -41.5 22 15
      vertex -41.5 12.5 15
    endloop
  endfacet
  facet normal -0 0 1
    outer loop
      vertex -41.5 6.5 15
      vertex -27 0 15
      vertex -27 6.5 15
    endloop
  endfacet
  facet normal 0 0 1
    outer loop
      vertex -27 0 15
      vertex -41.5 6.5 15
      vertex -41.5 0 15
    endloop
  endfacet
  facet normal -0 0 1
    outer loop
      vertex -23 6.5 15
      vertex -8.5 0 15
      vertex -8.5 6.5 15
    endloop
  endfacet
  facet normal 0 0 1
    outer loop
      vertex -8.5 0 15
      vertex -23 6.5 15
      vertex -23 0 15
    endloop
  endfacet
  facet normal 1 -0 0
    outer loop
      vertex -8.5 0 15
      vertex -8.5 9.5 12
      vertex -8.5 6.5 15
    endloop
  endfacet
  facet normal 1 0 0
    outer loop
      vertex -8.5 10.05 3
      vertex -8.5 22 15
      vertex -8.5 12.5 15
    endloop
  endfacet
  facet normal 1 0 0
    outer loop
      vertex -8.5 10.05 3
      vertex -8.5 12.5 15
      vertex -8.5 10.05 12.55
    endloop
  endfacet
  facet normal 1 0 0
    outer loop
      vertex -8.5 22 15
      vertex -8.5 10.05 3
      vertex -8.5 22 -1
    endloop
  endfacet
  facet normal 1 0 0
    outer loop
      vertex -8.5 0 -1
      vertex -8.5 10.05 3
      vertex -8.5 9.5 3
    endloop
  endfacet
  facet normal 1 0 0
    outer loop
      vertex -8.5 9.5 12
      vertex -8.5 0 15
      vertex -8.5 9.5 3
    endloop
  endfacet
  facet normal 1 0 0
    outer loop
      vertex -8.5 10.05 3
      vertex -8.5 0 -1
      vertex -8.5 22 -1
    endloop
  endfacet
  facet normal 1 0 0
    outer loop
      vertex -8.5 0 -1
      vertex -8.5 9.5 3
      vertex -8.5 0 15
    endloop
  endfacet
  facet normal 0 0 -1
    outer loop
      vertex -8.5 0 -1
      vertex -41.5 0 -1
      vertex -8.5 22 -1
    endloop
  endfacet
  facet normal 0 0 -1
    outer loop
      vertex -8.5 22 -1
      vertex 0 26 -1
      vertex 0 22 -1
    endloop
  endfacet
  facet normal 0 0 -1
    outer loop
      vertex -41.5 22 -1
      vertex -8.5 22 -1
      vertex -41.5 0 -1
    endloop
  endfacet
  facet normal 0 0 -1
    outer loop
      vertex -41.5 22 -1
      vertex 0 26 -1
      vertex -8.5 22 -1
    endloop
  endfacet
  facet normal 0 0 -1
    outer loop
      vertex -50 26 -1
      vertex -41.5 22 -1
      vertex -50 22 -1
    endloop
  endfacet
  facet normal 0 0 -1
    outer loop
      vertex -41.5 22 -1
      vertex -50 26 -1
      vertex 0 26 -1
    endloop
  endfacet
  facet normal 0 -1 0
    outer loop
      vertex -41.5 0 15
      vertex -27 0 3
      vertex -27 0 15
    endloop
  endfacet
  facet normal 0 -1 -0
    outer loop
      vertex -27 0 3
      vertex -41.5 0 -1
      vertex -23 0 3
    endloop
  endfacet
  facet normal 0 -1 0
    outer loop
      vertex -41.5 0 -1
      vertex -27 0 3
      vertex -41.5 0 15
    endloop
  endfacet
  facet normal 0 -1 0
    outer loop
      vertex -23 0 3
      vertex -8.5 0 15
      vertex -23 0 15
    endloop
  endfacet
  facet normal 0 -1 0
    outer loop
      vertex -23 0 3
      vertex -8.5 0 -1
      vertex -8.5 0 15
    endloop
  endfacet
  facet normal 0 -1 0
    outer loop
      vertex -8.5 0 -1
      vertex -23 0 3
      vertex -41.5 0 -1
    endloop
  endfacet
  facet normal 0 1 -0
    outer loop
      vertex -44.1247 26 8.49923
      vertex -50 26 15
      vertex -5.87533 26 8.49923
    endloop
  endfacet
  facet normal 0 1 0
    outer loop
      vertex -50 26 15
      vertex -44.1247 26 8.49923
      vertex -44.9747 26 9.1168
    endloop
  endfacet
  facet normal 0 1 -0
    outer loop
      vertex -6.2 26 7.5
      vertex -44.1247 26 8.49923
      vertex -5.87533 26 8.49923
    endloop
  endfacet
  facet normal 0 1 0
    outer loop
      vertex -6.2 26 7.5
      vertex -43.8 26 7.5
      vertex -44.1247 26 8.49923
    endloop
  endfacet
  facet normal 0 1 0
    outer loop
      vertex -5.87533 26 6.50076
      vertex -43.8 26 7.5
      vertex -6.2 26 7.5
    endloop
  endfacet
  facet normal 0 1 0
    outer loop
      vertex -5.87533 26 6.50076
      vertex -44.1247 26 6.50076
      vertex -43.8 26 7.5
    endloop
  endfacet
  facet normal 0 1 0
    outer loop
      vertex 0 26 -1
      vertex -5.87533 26 6.50076
      vertex -5.02533 26 5.8832
    endloop
  endfacet
  facet normal 0 1 0
    outer loop
      vertex -5.87533 26 6.50076
      vertex 0 26 -1
      vertex -44.1247 26 6.50076
    endloop
  endfacet
  facet normal 0 1 0
    outer loop
      vertex -5.02533 26 9.1168
      vertex 0 26 15
      vertex -3.97467 26 9.1168
    endloop
  endfacet
  facet normal 0 1 0
    outer loop
      vertex 0 26 15
      vertex -3.12467 26 8.49923
      vertex -3.97467 26 9.1168
    endloop
  endfacet
  facet normal 0 1 0
    outer loop
      vertex 0 26 15
      vertex -2.8 26 7.5
      vertex -3.12467 26 8.49923
    endloop
  endfacet
  facet normal 0 1 -0
    outer loop
      vertex 0 26 -1
      vertex -2.8 26 7.5
      vertex 0 26 15
    endloop
  endfacet
  facet normal 0 1 0
    outer loop
      vertex 0 26 -1
      vertex -5.02533 26 5.8832
      vertex -3.97467 26 5.8832
    endloop
  endfacet
  facet normal 0 1 0
    outer loop
      vertex -50 26 -1
      vertex -44.1247 26 6.50076
      vertex 0 26 -1
    endloop
  endfacet
  facet normal 0 1 0
    outer loop
      vertex -44.1247 26 6.50076
      vertex -50 26 -1
      vertex -44.9747 26 5.8832
    endloop
  endfacet
  facet normal 0 1 0
    outer loop
      vertex -3.12467 26 6.50076
      vertex 0 26 -1
      vertex -3.97467 26 5.8832
    endloop
  endfacet
  facet normal 0 1 0
    outer loop
      vertex -2.8 26 7.5
      vertex 0 26 -1
      vertex -3.12467 26 6.50076
    endloop
  endfacet
  facet normal 0 1 0
    outer loop
      vertex -5.87533 26 8.49923
      vertex 0 26 15
      vertex -5.02533 26 9.1168
    endloop
  endfacet
  facet normal 0 1 0
    outer loop
      vertex 0 26 15
      vertex -5.87533 26 8.49923
      vertex -50 26 15
    endloop
  endfacet
  facet normal 0 1 -0
    outer loop
      vertex -46.0253 26 9.1168
      vertex -50 26 15
      vertex -44.9747 26 9.1168
    endloop
  endfacet
  facet normal 0 1 -0
    outer loop
      vertex -46.8753 26 8.49923
      vertex -50 26 15
      vertex -46.0253 26 9.1168
    endloop
  endfacet
  facet normal 0 1 -0
    outer loop
      vertex -47.2 26 7.5
      vertex -50 26 15
      vertex -46.8753 26 8.49923
    endloop
  endfacet
  facet normal 0 1 0
    outer loop
      vertex -50 26 -1
      vertex -47.2 26 7.5
      vertex -46.8753 26 6.50076
    endloop
  endfacet
  facet normal 0 1 0
    outer loop
      vertex -47.2 26 7.5
      vertex -50 26 -1
      vertex -50 26 15
    endloop
  endfacet
  facet normal 0 1 0
    outer loop
      vertex -46.0253 26 5.8832
      vertex -50 26 -1
      vertex -46.8753 26 6.50076
    endloop
  endfacet
  facet normal 0 1 0
    outer loop
      vertex -44.9747 26 5.8832
      vertex -50 26 -1
      vertex -46.0253 26 5.8832
    endloop
  endfacet
  facet normal -1 0 0
    outer loop
      vertex -50 22 -1
      vertex -50 26 15
      vertex -50 26 -1
    endloop
  endfacet
  facet normal -1 -0 0
    outer loop
      vertex -50 26 15
      vertex -50 22 -1
      vertex -50 22 15
    endloop
  endfacet
  facet normal 1 -0 0
    outer loop
      vertex 0 22 15
      vertex 0 26 -1
      vertex 0 26 15
    endloop
  endfacet
  facet normal 1 0 0
    outer loop
      vertex 0 26 -1
      vertex 0 22 15
      vertex 0 22 -1
    endloop
  endfacet
  facet normal 0 -1 0
    outer loop
      vertex -50 22 15
      vertex -46.0253 22 9.1168
      vertex -41.5 22 15
    endloop
  endfacet
  facet normal 0 -1 0
    outer loop
      vertex -50 22 15
      vertex -46.8753 22 8.49923
      vertex -46.0253 22 9.1168
    endloop
  endfacet
  facet normal 0 -1 0
    outer loop
      vertex -50 22 15
      vertex -47.2 22 7.5
      vertex -46.8753 22 8.49923
    endloop
  endfacet
  facet normal 0 -1 0
    outer loop
      vertex -50 22 -1
      vertex -47.2 22 7.5
      vertex -50 22 15
    endloop
  endfacet
  facet normal 0 -1 0
    outer loop
      vertex -41.5 22 -1
      vertex -46.0253 22 5.8832
      vertex -50 22 -1
    endloop
  endfacet
  facet normal 0 -1 -0
    outer loop
      vertex -46.8753 22 6.50076
      vertex -50 22 -1
      vertex -46.0253 22 5.8832
    endloop
  endfacet
  facet normal 0 -1 -0
    outer loop
      vertex -47.2 22 7.5
      vertex -50 22 -1
      vertex -46.8753 22 6.50076
    endloop
  endfacet
  facet normal 0 -1 0
    outer loop
      vertex -44.9747 22 9.1168
      vertex -41.5 22 15
      vertex -46.0253 22 9.1168
    endloop
  endfacet
  facet normal 0 -1 0
    outer loop
      vertex -44.1247 22 8.49923
      vertex -41.5 22 15
      vertex -44.9747 22 9.1168
    endloop
  endfacet
  facet normal 0 -1 0
    outer loop
      vertex -43.8 22 7.5
      vertex -41.5 22 15
      vertex -44.1247 22 8.49923
    endloop
  endfacet
  facet normal 0 -1 0
    outer loop
      vertex -46.0253 22 5.8832
      vertex -41.5 22 -1
      vertex -44.9747 22 5.8832
    endloop
  endfacet
  facet normal 0 -1 0
    outer loop
      vertex -43.8 22 7.5
      vertex -41.5 22 -1
      vertex -41.5 22 15
    endloop
  endfacet
  facet normal 0 -1 0
    outer loop
      vertex -44.1247 22 6.50076
      vertex -41.5 22 -1
      vertex -43.8 22 7.5
    endloop
  endfacet
  facet normal 0 -1 0
    outer loop
      vertex -44.9747 22 5.8832
      vertex -41.5 22 -1
      vertex -44.1247 22 6.50076
    endloop
  endfacet
  facet normal 0 -1 0
    outer loop
      vertex -3.97467 22 9.1168
      vertex -8.5 22 15
      vertex -5.02533 22 9.1168
    endloop
  endfacet
  facet normal 0 -1 0
    outer loop
      vertex -8.5 22 15
      vertex -5.87533 22 8.49923
      vertex -5.02533 22 9.1168
    endloop
  endfacet
  facet normal 0 -1 0
    outer loop
      vertex -8.5 22 15
      vertex -6.2 22 7.5
      vertex -5.87533 22 8.49923
    endloop
  endfacet
  facet normal 0 -1 -0
    outer loop
      vertex -5.02533 22 5.8832
      vertex -8.5 22 -1
      vertex -3.97467 22 5.8832
    endloop
  endfacet
  facet normal 0 -1 -0
    outer loop
      vertex -5.87533 22 6.50076
      vertex -8.5 22 -1
      vertex -5.02533 22 5.8832
    endloop
  endfacet
  facet normal 0 -1 -0
    outer loop
      vertex -6.2 22 7.5
      vertex -8.5 22 -1
      vertex -5.87533 22 6.50076
    endloop
  endfacet
  facet normal 0 -1 0
    outer loop
      vertex -8.5 22 -1
      vertex -6.2 22 7.5
      vertex -8.5 22 15
    endloop
  endfacet
  facet normal 0 -1 0
    outer loop
      vertex -8.5 22 15
      vertex -3.97467 22 9.1168
      vertex 0 22 15
    endloop
  endfacet
  facet normal 0 -1 0
    outer loop
      vertex -3.12467 22 8.49923
      vertex 0 22 15
      vertex -3.97467 22 9.1168
    endloop
  endfacet
  facet normal 0 -1 0
    outer loop
      vertex -2.8 22 7.5
      vertex 0 22 15
      vertex -3.12467 22 8.49923
    endloop
  endfacet
  facet normal 0 -1 0
    outer loop
      vertex 0 22 -1
      vertex -2.8 22 7.5
      vertex -3.12467 22 6.50076
    endloop
  endfacet
  facet normal 0 -1 0
    outer loop
      vertex 0 22 -1
      vertex -3.97467 22 5.8832
      vertex -8.5 22 -1
    endloop
  endfacet
  facet normal 0 -1 0
    outer loop
      vertex -2.8 22 7.5
      vertex 0 22 -1
      vertex 0 22 15
    endloop
  endfacet
  facet normal 0 -1 0
    outer loop
      vertex -3.97467 22 5.8832
      vertex 0 22 -1
      vertex -3.12467 22 6.50076
    endloop
  endfacet
  facet normal 0 0 1
    outer loop
      vertex -8.5 10.05 3
      vertex -9.1 9.5 3
      vertex -8.5 9.5 3
    endloop
  endfacet
  facet normal 0 0 1
    outer loop
      vertex -9.1 9.5 3
      vertex -10.2 9.5 3
      vertex -9.1 8 3
    endloop
  endfacet
  facet normal 0 0 1
    outer loop
      vertex -8.5 10.05 3
      vertex -10.2 9.5 3
      vertex -9.1 9.5 3
    endloop
  endfacet
  facet normal 0 0 1
    outer loop
      vertex -8.5 10.05 3
      vertex -11.1 9.5 3
      vertex -10.2 9.5 3
    endloop
  endfacet
  facet normal 0 0 1
    outer loop
      vertex -11.1 9.5 3
      vertex -12.2 9.5 3
      vertex -11.1 8 3
    endloop
  endfacet
  facet normal 0 0 1
    outer loop
      vertex -8.5 10.05 3
      vertex -12.2 9.5 3
      vertex -11.1 9.5 3
    endloop
  endfacet
  facet normal 0 0 1
    outer loop
      vertex -8.5 10.05 3
      vertex -13.1 9.5 3
      vertex -12.2 9.5 3
    endloop
  endfacet
  facet normal 0 0 1
    outer loop
      vertex -13.1 9.5 3
      vertex -14.2 9.5 3
      vertex -13.1 8 3
    endloop
  endfacet
  facet normal 0 0 1
    outer loop
      vertex -8.5 10.05 3
      vertex -14.2 9.5 3
      vertex -13.1 9.5 3
    endloop
  endfacet
  facet normal 0 0 1
    outer loop
      vertex -8.5 10.05 3
      vertex -15.1 9.5 3
      vertex -14.2 9.5 3
    endloop
  endfacet
  facet normal 0 0 1
    outer loop
      vertex -15.1 9.5 3
      vertex -16.2 9.5 3
      vertex -15.1 8 3
    endloop
  endfacet
  facet normal 0 0 1
    outer loop
      vertex -8.5 10.05 3
      vertex -16.2 9.5 3
      vertex -15.1 9.5 3
    endloop
  endfacet
  facet normal 0 0 1
    outer loop
      vertex -8.5 10.05 3
      vertex -17.1 9.5 3
      vertex -16.2 9.5 3
    endloop
  endfacet
  facet normal 0 0 1
    outer loop
      vertex -17.1 9.5 3
      vertex -18.2 9.5 3
      vertex -17.1 8 3
    endloop
  endfacet
  facet normal 0 0 1
    outer loop
      vertex -8.5 10.05 3
      vertex -18.2 9.5 3
      vertex -17.1 9.5 3
    endloop
  endfacet
  facet normal 0 0 1
    outer loop
      vertex -8.5 10.05 3
      vertex -19.1 9.5 3
      vertex -18.2 9.5 3
    endloop
  endfacet
  facet normal 0 0 1
    outer loop
      vertex -19.1 9.5 3
      vertex -20.2 9.5 3
      vertex -19.1 8 3
    endloop
  endfacet
  facet normal 0 0 1
    outer loop
      vertex -8.5 10.05 3
      vertex -20.2 9.5 3
      vertex -19.1 9.5 3
    endloop
  endfacet
  facet normal 0 0 1
    outer loop
      vertex -8.5 10.05 3
      vertex -21.1 9.5 3
      vertex -20.2 9.5 3
    endloop
  endfacet
  facet normal 0 0 1
    outer loop
      vertex -21.1 9.5 3
      vertex -22.2 9.5 3
      vertex -21.1 8 3
    endloop
  endfacet
  facet normal 0 0 1
    outer loop
      vertex -8.5 10.05 3
      vertex -22.2 9.5 3
      vertex -21.1 9.5 3
    endloop
  endfacet
  facet normal 0 0 1
    outer loop
      vertex -8.5 10.05 3
      vertex -23 9.5 3
      vertex -22.2 9.5 3
    endloop
  endfacet
  facet normal 0 0 1
    outer loop
      vertex -23 9.5 3
      vertex -27 9.5 3
      vertex -23 0 3
    endloop
  endfacet
  facet normal 0 0 1
    outer loop
      vertex -8.5 10.05 3
      vertex -27 9.5 3
      vertex -23 9.5 3
    endloop
  endfacet
  facet normal 0 0 1
    outer loop
      vertex -8.5 10.05 3
      vertex -27.1 9.5 3
      vertex -27 9.5 3
    endloop
  endfacet
  facet normal 0 0 1
    outer loop
      vertex -27.1 9.5 3
      vertex -28.2 9.5 3
      vertex -27.1 8 3
    endloop
  endfacet
  facet normal -0 0 1
    outer loop
      vertex -41.5 10.05 3
      vertex -27.1 9.5 3
      vertex -8.5 10.05 3
    endloop
  endfacet
  facet normal 0 0 1
    outer loop
      vertex -27.1 9.5 3
      vertex -41.5 10.05 3
      vertex -28.2 9.5 3
    endloop
  endfacet
  facet normal 0 0 1
    outer loop
      vertex -29.1 9.5 3
      vertex -30.2 9.5 3
      vertex -29.1 8 3
    endloop
  endfacet
  facet normal 0 0 1
    outer loop
      vertex -28.2 9.5 3
      vertex -41.5 10.05 3
      vertex -29.1 9.5 3
    endloop
  endfacet
  facet normal 0 0 1
    outer loop
      vertex -29.1 9.5 3
      vertex -41.5 10.05 3
      vertex -30.2 9.5 3
    endloop
  endfacet
  facet normal 0 0 1
    outer loop
      vertex -31.1 9.5 3
      vertex -32.2 9.5 3
      vertex -31.1 8 3
    endloop
  endfacet
  facet normal 0 0 1
    outer loop
      vertex -30.2 9.5 3
      vertex -41.5 10.05 3
      vertex -31.1 9.5 3
    endloop
  endfacet
  facet normal 0 0 1
    outer loop
      vertex -31.1 9.5 3
      vertex -41.5 10.05 3
      vertex -32.2 9.5 3
    endloop
  endfacet
  facet normal 0 0 1
    outer loop
      vertex -33.1 9.5 3
      vertex -34.2 9.5 3
      vertex -33.1 8 3
    endloop
  endfacet
  facet normal 0 0 1
    outer loop
      vertex -32.2 9.5 3
      vertex -41.5 10.05 3
      vertex -33.1 9.5 3
    endloop
  endfacet
  facet normal 0 0 1
    outer loop
      vertex -33.1 9.5 3
      vertex -41.5 10.05 3
      vertex -34.2 9.5 3
    endloop
  endfacet
  facet normal 0 0 1
    outer loop
      vertex -35.1 9.5 3
      vertex -36.2 9.5 3
      vertex -35.1 8 3
    endloop
  endfacet
  facet normal 0 0 1
    outer loop
      vertex -34.2 9.5 3
      vertex -41.5 10.05 3
      vertex -35.1 9.5 3
    endloop
  endfacet
  facet normal 0 0 1
    outer loop
      vertex -35.1 9.5 3
      vertex -41.5 10.05 3
      vertex -36.2 9.5 3
    endloop
  endfacet
  facet normal 0 0 1
    outer loop
      vertex -37.1 9.5 3
      vertex -38.2 9.5 3
      vertex -37.1 8 3
    endloop
  endfacet
  facet normal 0 0 1
    outer loop
      vertex -36.2 9.5 3
      vertex -41.5 10.05 3
      vertex -37.1 9.5 3
    endloop
  endfacet
  facet normal 0 0 1
    outer loop
      vertex -37.1 9.5 3
      vertex -41.5 10.05 3
      vertex -38.2 9.5 3
    endloop
  endfacet
  facet normal 0 0 1
    outer loop
      vertex -39.1 9.5 3
      vertex -40.2 9.5 3
      vertex -39.1 8 3
    endloop
  endfacet
  facet normal 0 0 1
    outer loop
      vertex -38.2 9.5 3
      vertex -41.5 10.05 3
      vertex -39.1 9.5 3
    endloop
  endfacet
  facet normal 0 0 1
    outer loop
      vertex -39.1 9.5 3
      vertex -41.5 10.05 3
      vertex -40.2 9.5 3
    endloop
  endfacet
  facet normal 0 0 1
    outer loop
      vertex -40.2 9.5 3
      vertex -41.5 10.05 3
      vertex -41.1 9.5 3
    endloop
  endfacet
  facet normal 0 0 1
    outer loop
      vertex -41.5 8 3
      vertex -41.1 9.5 3
      vertex -41.5 10.05 3
    endloop
  endfacet
  facet normal 0 0 1
    outer loop
      vertex -41.1 9.5 3
      vertex -41.5 8 3
      vertex -41.1 8 3
    endloop
  endfacet
  facet normal 0 0 1
    outer loop
      vertex -9.1 8 3
      vertex -10.2 9.5 3
      vertex -10.2 8 3
    endloop
  endfacet
  facet normal 0 0 1
    outer loop
      vertex -11.1 8 3
      vertex -12.2 9.5 3
      vertex -12.2 8 3
    endloop
  endfacet
  facet normal 0 0 1
    outer loop
      vertex -13.1 8 3
      vertex -14.2 9.5 3
      vertex -14.2 8 3
    endloop
  endfacet
  facet normal 0 0 1
    outer loop
      vertex -15.1 8 3
      vertex -16.2 9.5 3
      vertex -16.2 8 3
    endloop
  endfacet
  facet normal 0 0 1
    outer loop
      vertex -17.1 8 3
      vertex -18.2 9.5 3
      vertex -18.2 8 3
    endloop
  endfacet
  facet normal 0 0 1
    outer loop
      vertex -19.1 8 3
      vertex -20.2 9.5 3
      vertex -20.2 8 3
    endloop
  endfacet
  facet normal 0 0 1
    outer loop
      vertex -21.1 8 3
      vertex -22.2 9.5 3
      vertex -22.2 8 3
    endloop
  endfacet
  facet normal 0 0 1
    outer loop
      vertex -23 0 3
      vertex -27 9.5 3
      vertex -27 0 3
    endloop
  endfacet
  facet normal 0 0 1
    outer loop
      vertex -27.1 8 3
      vertex -28.2 9.5 3
      vertex -28.2 8 3
    endloop
  endfacet
  facet normal 0 0 1
    outer loop
      vertex -29.1 8 3
      vertex -30.2 9.5 3
      vertex -30.2 8 3
    endloop
  endfacet
  facet normal 0 0 1
    outer loop
      vertex -31.1 8 3
      vertex -32.2 9.5 3
      vertex -32.2 8 3
    endloop
  endfacet
  facet normal 0 0 1
    outer loop
      vertex -33.1 8 3
      vertex -34.2 9.5 3
      vertex -34.2 8 3
    endloop
  endfacet
  facet normal 0 0 1
    outer loop
      vertex -35.1 8 3
      vertex -36.2 9.5 3
      vertex -36.2 8 3
    endloop
  endfacet
  facet normal 0 0 1
    outer loop
      vertex -37.1 8 3
      vertex -38.2 9.5 3
      vertex -38.2 8 3
    endloop
  endfacet
  facet normal 0 0 1
    outer loop
      vertex -39.1 8 3
      vertex -40.2 9.5 3
      vertex -40.2 8 3
    endloop
  endfacet
  facet normal 1 0 0
    outer loop
      vertex -10.2 8 3
      vertex -10.2 9.5 12
      vertex -10.2 8 13.5
    endloop
  endfacet
  facet normal 1 0 0
    outer loop
      vertex -10.2 9.5 12
      vertex -10.2 8 3
      vertex -10.2 9.5 3
    endloop
  endfacet
  facet normal -1 0 0
    outer loop
      vertex -9.1 8 3
      vertex -9.1 9.5 12
      vertex -9.1 9.5 3
    endloop
  endfacet
  facet normal -1 -0 0
    outer loop
      vertex -9.1 9.5 12
      vertex -9.1 8 3
      vertex -9.1 8 13.5
    endloop
  endfacet
  facet normal 0 1 -0
    outer loop
      vertex -9.1 8 3
      vertex -10.2 8 13.5
      vertex -9.1 8 13.5
    endloop
  endfacet
  facet normal 0 1 0
    outer loop
      vertex -10.2 8 13.5
      vertex -9.1 8 3
      vertex -10.2 8 3
    endloop
  endfacet
  facet normal 1 0 0
    outer loop
      vertex -12.2 8 3
      vertex -12.2 9.5 12
      vertex -12.2 8 13.5
    endloop
  endfacet
  facet normal 1 0 0
    outer loop
      vertex -12.2 9.5 12
      vertex -12.2 8 3
      vertex -12.2 9.5 3
    endloop
  endfacet
  facet normal -1 0 0
    outer loop
      vertex -11.1 8 3
      vertex -11.1 9.5 12
      vertex -11.1 9.5 3
    endloop
  endfacet
  facet normal -1 -0 0
    outer loop
      vertex -11.1 9.5 12
      vertex -11.1 8 3
      vertex -11.1 8 13.5
    endloop
  endfacet
  facet normal 0 1 -0
    outer loop
      vertex -11.1 8 3
      vertex -12.2 8 13.5
      vertex -11.1 8 13.5
    endloop
  endfacet
  facet normal 0 1 0
    outer loop
      vertex -12.2 8 13.5
      vertex -11.1 8 3
      vertex -12.2 8 3
    endloop
  endfacet
  facet normal 1 0 0
    outer loop
      vertex -14.2 8 3
      vertex -14.2 9.5 12
      vertex -14.2 8 13.5
    endloop
  endfacet
  facet normal 1 0 0
    outer loop
      vertex -14.2 9.5 12
      vertex -14.2 8 3
      vertex -14.2 9.5 3
    endloop
  endfacet
  facet normal -1 0 0
    outer loop
      vertex -13.1 8 3
      vertex -13.1 9.5 12
      vertex -13.1 9.5 3
    endloop
  endfacet
  facet normal -1 -0 0
    outer loop
      vertex -13.1 9.5 12
      vertex -13.1 8 3
      vertex -13.1 8 13.5
    endloop
  endfacet
  facet normal 0 1 -0
    outer loop
      vertex -13.1 8 3
      vertex -14.2 8 13.5
      vertex -13.1 8 13.5
    endloop
  endfacet
  facet normal 0 1 0
    outer loop
      vertex -14.2 8 13.5
      vertex -13.1 8 3
      vertex -14.2 8 3
    endloop
  endfacet
  facet normal 1 0 0
    outer loop
      vertex -16.2 8 3
      vertex -16.2 9.5 12
      vertex -16.2 8 13.5
    endloop
  endfacet
  facet normal 1 0 0
    outer loop
      vertex -16.2 9.5 12
      vertex -16.2 8 3
      vertex -16.2 9.5 3
    endloop
  endfacet
  facet normal -1 0 0
    outer loop
      vertex -15.1 8 3
      vertex -15.1 9.5 12
      vertex -15.1 9.5 3
    endloop
  endfacet
  facet normal -1 -0 0
    outer loop
      vertex -15.1 9.5 12
      vertex -15.1 8 3
      vertex -15.1 8 13.5
    endloop
  endfacet
  facet normal 0 1 -0
    outer loop
      vertex -15.1 8 3
      vertex -16.2 8 13.5
      vertex -15.1 8 13.5
    endloop
  endfacet
  facet normal 0 1 0
    outer loop
      vertex -16.2 8 13.5
      vertex -15.1 8 3
      vertex -16.2 8 3
    endloop
  endfacet
  facet normal 1 0 0
    outer loop
      vertex -18.2 8 3
      vertex -18.2 9.5 12
      vertex -18.2 8 13.5
    endloop
  endfacet
  facet normal 1 0 0
    outer loop
      vertex -18.2 9.5 12
      vertex -18.2 8 3
      vertex -18.2 9.5 3
    endloop
  endfacet
  facet normal -1 0 0
    outer loop
      vertex -17.1 8 3
      vertex -17.1 9.5 12
      vertex -17.1 9.5 3
    endloop
  endfacet
  facet normal -1 -0 0
    outer loop
      vertex -17.1 9.5 12
      vertex -17.1 8 3
      vertex -17.1 8 13.5
    endloop
  endfacet
  facet normal 0 1 -0
    outer loop
      vertex -17.1 8 3
      vertex -18.2 8 13.5
      vertex -17.1 8 13.5
    endloop
  endfacet
  facet normal 0 1 0
    outer loop
      vertex -18.2 8 13.5
      vertex -17.1 8 3
      vertex -18.2 8 3
    endloop
  endfacet
  facet normal 1 0 0
    outer loop
      vertex -20.2 8 3
      vertex -20.2 9.5 12
      vertex -20.2 8 13.5
    endloop
  endfacet
  facet normal 1 0 0
    outer loop
      vertex -20.2 9.5 12
      vertex -20.2 8 3
      vertex -20.2 9.5 3
    endloop
  endfacet
  facet normal -1 0 0
    outer loop
      vertex -19.1 8 3
      vertex -19.1 9.5 12
      vertex -19.1 9.5 3
    endloop
  endfacet
  facet normal -1 -0 0
    outer loop
      vertex -19.1 9.5 12
      vertex -19.1 8 3
      vertex -19.1 8 13.5
    endloop
  endfacet
  facet normal 0 1 -0
    outer loop
      vertex -19.1 8 3
      vertex -20.2 8 13.5
      vertex -19.1 8 13.5
    endloop
  endfacet
  facet normal 0 1 0
    outer loop
      vertex -20.2 8 13.5
      vertex -19.1 8 3
      vertex -20.2 8 3
    endloop
  endfacet
  facet normal 1 0 0
    outer loop
      vertex -22.2 8 3
      vertex -22.2 9.5 12
      vertex -22.2 8 13.5
    endloop
  endfacet
  facet normal 1 0 0
    outer loop
      vertex -22.2 9.5 12
      vertex -22.2 8 3
      vertex -22.2 9.5 3
    endloop
  endfacet
  facet normal -1 0 0
    outer loop
      vertex -21.1 8 3
      vertex -21.1 9.5 12
      vertex -21.1 9.5 3
    endloop
  endfacet
  facet normal -1 -0 0
    outer loop
      vertex -21.1 9.5 12
      vertex -21.1 8 3
      vertex -21.1 8 13.5
    endloop
  endfacet
  facet normal 0 1 -0
    outer loop
      vertex -21.1 8 3
      vertex -22.2 8 13.5
      vertex -21.1 8 13.5
    endloop
  endfacet
  facet normal 0 1 0
    outer loop
      vertex -22.2 8 13.5
      vertex -21.1 8 3
      vertex -22.2 8 3
    endloop
  endfacet
  facet normal 1 0 0
    outer loop
      vertex -28.2 8 3
      vertex -28.2 9.5 12
      vertex -28.2 8 13.5
    endloop
  endfacet
  facet normal 1 0 0
    outer loop
      vertex -28.2 9.5 12
      vertex -28.2 8 3
      vertex -28.2 9.5 3
    endloop
  endfacet
  facet normal -1 0 0
    outer loop
      vertex -27.1 8 3
      vertex -27.1 9.5 12
      vertex -27.1 9.5 3
    endloop
  endfacet
  facet normal -1 -0 0
    outer loop
      vertex -27.1 9.5 12
      vertex -27.1 8 3
      vertex -27.1 8 13.5
    endloop
  endfacet
  facet normal 0 1 -0
    outer loop
      vertex -27.1 8 3
      vertex -28.2 8 13.5
      vertex -27.1 8 13.5
    endloop
  endfacet
  facet normal 0 1 0
    outer loop
      vertex -28.2 8 13.5
      vertex -27.1 8 3
      vertex -28.2 8 3
    endloop
  endfacet
  facet normal 1 0 0
    outer loop
      vertex -30.2 8 3
      vertex -30.2 9.5 12
      vertex -30.2 8 13.5
    endloop
  endfacet
  facet normal 1 0 0
    outer loop
      vertex -30.2 9.5 12
      vertex -30.2 8 3
      vertex -30.2 9.5 3
    endloop
  endfacet
  facet normal -1 0 0
    outer loop
      vertex -29.1 8 3
      vertex -29.1 9.5 12
      vertex -29.1 9.5 3
    endloop
  endfacet
  facet normal -1 -0 0
    outer loop
      vertex -29.1 9.5 12
      vertex -29.1 8 3
      vertex -29.1 8 13.5
    endloop
  endfacet
  facet normal 0 1 -0
    outer loop
      vertex -29.1 8 3
      vertex -30.2 8 13.5
      vertex -29.1 8 13.5
    endloop
  endfacet
  facet normal 0 1 0
    outer loop
      vertex -30.2 8 13.5
      vertex -29.1 8 3
      vertex -30.2 8 3
    endloop
  endfacet
  facet normal 1 0 0
    outer loop
      vertex -32.2 8 3
      vertex -32.2 9.5 12
      vertex -32.2 8 13.5
    endloop
  endfacet
  facet normal 1 0 0
    outer loop
      vertex -32.2 9.5 12
      vertex -32.2 8 3
      vertex -32.2 9.5 3
    endloop
  endfacet
  facet normal -1 0 0
    outer loop
      vertex -31.1 8 3
      vertex -31.1 9.5 12
      vertex -31.1 9.5 3
    endloop
  endfacet
  facet normal -1 -0 0
    outer loop
      vertex -31.1 9.5 12
      vertex -31.1 8 3
      vertex -31.1 8 13.5
    endloop
  endfacet
  facet normal 0 1 -0
    outer loop
      vertex -31.1 8 3
      vertex -32.2 8 13.5
      vertex -31.1 8 13.5
    endloop
  endfacet
  facet normal 0 1 0
    outer loop
      vertex -32.2 8 13.5
      vertex -31.1 8 3
      vertex -32.2 8 3
    endloop
  endfacet
  facet normal 1 0 0
    outer loop
      vertex -34.2 8 3
      vertex -34.2 9.5 12
      vertex -34.2 8 13.5
    endloop
  endfacet
  facet normal 1 0 0
    outer loop
      vertex -34.2 9.5 12
      vertex -34.2 8 3
      vertex -34.2 9.5 3
    endloop
  endfacet
  facet normal -1 0 0
    outer loop
      vertex -33.1 8 3
      vertex -33.1 9.5 12
      vertex -33.1 9.5 3
    endloop
  endfacet
  facet normal -1 -0 0
    outer loop
      vertex -33.1 9.5 12
      vertex -33.1 8 3
      vertex -33.1 8 13.5
    endloop
  endfacet
  facet normal 0 1 -0
    outer loop
      vertex -33.1 8 3
      vertex -34.2 8 13.5
      vertex -33.1 8 13.5
    endloop
  endfacet
  facet normal 0 1 0
    outer loop
      vertex -34.2 8 13.5
      vertex -33.1 8 3
      vertex -34.2 8 3
    endloop
  endfacet
  facet normal 1 0 0
    outer loop
      vertex -36.2 8 3
      vertex -36.2 9.5 12
      vertex -36.2 8 13.5
    endloop
  endfacet
  facet normal 1 0 0
    outer loop
      vertex -36.2 9.5 12
      vertex -36.2 8 3
      vertex -36.2 9.5 3
    endloop
  endfacet
  facet normal -1 0 0
    outer loop
      vertex -35.1 8 3
      vertex -35.1 9.5 12
      vertex -35.1 9.5 3
    endloop
  endfacet
  facet normal -1 -0 0
    outer loop
      vertex -35.1 9.5 12
      vertex -35.1 8 3
      vertex -35.1 8 13.5
    endloop
  endfacet
  facet normal 0 1 -0
    outer loop
      vertex -35.1 8 3
      vertex -36.2 8 13.5
      vertex -35.1 8 13.5
    endloop
  endfacet
  facet normal 0 1 0
    outer loop
      vertex -36.2 8 13.5
      vertex -35.1 8 3
      vertex -36.2 8 3
    endloop
  endfacet
  facet normal 1 0 0
    outer loop
      vertex -38.2 8 3
      vertex -38.2 9.5 12
      vertex -38.2 8 13.5
    endloop
  endfacet
  facet normal 1 0 0
    outer loop
      vertex -38.2 9.5 12
      vertex -38.2 8 3
      vertex -38.2 9.5 3
    endloop
  endfacet
  facet normal -1 0 0
    outer loop
      vertex -37.1 8 3
      vertex -37.1 9.5 12
      vertex -37.1 9.5 3
    endloop
  endfacet
  facet normal -1 -0 0
    outer loop
      vertex -37.1 9.5 12
      vertex -37.1 8 3
      vertex -37.1 8 13.5
    endloop
  endfacet
  facet normal 0 1 -0
    outer loop
      vertex -37.1 8 3
      vertex -38.2 8 13.5
      vertex -37.1 8 13.5
    endloop
  endfacet
  facet normal 0 1 0
    outer loop
      vertex -38.2 8 13.5
      vertex -37.1 8 3
      vertex -38.2 8 3
    endloop
  endfacet
  facet normal 1 0 0
    outer loop
      vertex -40.2 8 3
      vertex -40.2 9.5 12
      vertex -40.2 8 13.5
    endloop
  endfacet
  facet normal 1 0 0
    outer loop
      vertex -40.2 9.5 12
      vertex -40.2 8 3
      vertex -40.2 9.5 3
    endloop
  endfacet
  facet normal -1 0 0
    outer loop
      vertex -39.1 8 3
      vertex -39.1 9.5 12
      vertex -39.1 9.5 3
    endloop
  endfacet
  facet normal -1 -0 0
    outer loop
      vertex -39.1 9.5 12
      vertex -39.1 8 3
      vertex -39.1 8 13.5
    endloop
  endfacet
  facet normal 0 1 -0
    outer loop
      vertex -39.1 8 3
      vertex -40.2 8 13.5
      vertex -39.1 8 13.5
    endloop
  endfacet
  facet normal 0 1 0
    outer loop
      vertex -40.2 8 13.5
      vertex -39.1 8 3
      vertex -40.2 8 3
    endloop
  endfacet
  facet normal -1 0 0
    outer loop
      vertex -41.1 8 3
      vertex -41.1 9.5 12
      vertex -41.1 9.5 3
    endloop
  endfacet
  facet normal -1 -0 0
    outer loop
      vertex -41.1 9.5 12
      vertex -41.1 8 3
      vertex -41.1 8 13.5
    endloop
  endfacet
  facet normal 0 1 -0
    outer loop
      vertex -41.1 8 3
      vertex -41.5 8 13.5
      vertex -41.1 8 13.5
    endloop
  endfacet
  facet normal 0 1 0
    outer loop
      vertex -41.5 8 13.5
      vertex -41.1 8 3
      vertex -41.5 8 3
    endloop
  endfacet
  facet normal 0 -1 0
    outer loop
      vertex -41.5 10.05 3
      vertex -8.5 10.05 12.55
      vertex -41.5 10.05 12.55
    endloop
  endfacet
  facet normal 0 -1 -0
    outer loop
      vertex -8.5 10.05 12.55
      vertex -41.5 10.05 3
      vertex -8.5 10.05 3
    endloop
  endfacet
  facet normal 0 1 -0
    outer loop
      vertex -40.2 9.5 3
      vertex -41.1 9.5 12
      vertex -40.2 9.5 12
    endloop
  endfacet
  facet normal 0 1 0
    outer loop
      vertex -41.1 9.5 12
      vertex -40.2 9.5 3
      vertex -41.1 9.5 3
    endloop
  endfacet
  facet normal 0 1 -0
    outer loop
      vertex -38.2 9.5 3
      vertex -39.1 9.5 12
      vertex -38.2 9.5 12
    endloop
  endfacet
  facet normal 0 1 0
    outer loop
      vertex -39.1 9.5 12
      vertex -38.2 9.5 3
      vertex -39.1 9.5 3
    endloop
  endfacet
  facet normal 0 1 -0
    outer loop
      vertex -36.2 9.5 3
      vertex -37.1 9.5 12
      vertex -36.2 9.5 12
    endloop
  endfacet
  facet normal 0 1 0
    outer loop
      vertex -37.1 9.5 12
      vertex -36.2 9.5 3
      vertex -37.1 9.5 3
    endloop
  endfacet
  facet normal 0 1 -0
    outer loop
      vertex -34.2 9.5 3
      vertex -35.1 9.5 12
      vertex -34.2 9.5 12
    endloop
  endfacet
  facet normal 0 1 0
    outer loop
      vertex -35.1 9.5 12
      vertex -34.2 9.5 3
      vertex -35.1 9.5 3
    endloop
  endfacet
  facet normal 0 1 -0
    outer loop
      vertex -32.2 9.5 3
      vertex -33.1 9.5 12
      vertex -32.2 9.5 12
    endloop
  endfacet
  facet normal 0 1 0
    outer loop
      vertex -33.1 9.5 12
      vertex -32.2 9.5 3
      vertex -33.1 9.5 3
    endloop
  endfacet
  facet normal 0 1 -0
    outer loop
      vertex -30.2 9.5 3
      vertex -31.1 9.5 12
      vertex -30.2 9.5 12
    endloop
  endfacet
  facet normal 0 1 0
    outer loop
      vertex -31.1 9.5 12
      vertex -30.2 9.5 3
      vertex -31.1 9.5 3
    endloop
  endfacet
  facet normal 0 1 -0
    outer loop
      vertex -28.2 9.5 3
      vertex -29.1 9.5 12
      vertex -28.2 9.5 12
    endloop
  endfacet
  facet normal 0 1 0
    outer loop
      vertex -29.1 9.5 12
      vertex -28.2 9.5 3
      vertex -29.1 9.5 3
    endloop
  endfacet
  facet normal 0 1 -0
    outer loop
      vertex -27 9.5 3
      vertex -27.1 9.5 12
      vertex -27 9.5 12
    endloop
  endfacet
  facet normal 0 1 0
    outer loop
      vertex -27.1 9.5 12
      vertex -27 9.5 3
      vertex -27.1 9.5 3
    endloop
  endfacet
  facet normal 0 1 -0
    outer loop
      vertex -22.2 9.5 3
      vertex -23 9.5 12
      vertex -22.2 9.5 12
    endloop
  endfacet
  facet normal 0 1 0
    outer loop
      vertex -23 9.5 12
      vertex -22.2 9.5 3
      vertex -23 9.5 3
    endloop
  endfacet
  facet normal 0 1 -0
    outer loop
      vertex -20.2 9.5 3
      vertex -21.1 9.5 12
      vertex -20.2 9.5 12
    endloop
  endfacet
  facet normal 0 1 0
    outer loop
      vertex -21.1 9.5 12
      vertex -20.2 9.5 3
      vertex -21.1 9.5 3
    endloop
  endfacet
  facet normal 0 1 -0
    outer loop
      vertex -18.2 9.5 3
      vertex -19.1 9.5 12
      vertex -18.2 9.5 12
    endloop
  endfacet
  facet normal 0 1 0
    outer loop
      vertex -19.1 9.5 12
      vertex -18.2 9.5 3
      vertex -19.1 9.5 3
    endloop
  endfacet
  facet normal 0 1 -0
    outer loop
      vertex -16.2 9.5 3
      vertex -17.1 9.5 12
      vertex -16.2 9.5 12
    endloop
  endfacet
  facet normal 0 1 0
    outer loop
      vertex -17.1 9.5 12
      vertex -16.2 9.5 3
      vertex -17.1 9.5 3
    endloop
  endfacet
  facet normal 0 1 -0
    outer loop
      vertex -14.2 9.5 3
      vertex -15.1 9.5 12
      vertex -14.2 9.5 12
    endloop
  endfacet
  facet normal 0 1 0
    outer loop
      vertex -15.1 9.5 12
      vertex -14.2 9.5 3
      vertex -15.1 9.5 3
    endloop
  endfacet
  facet normal 0 1 -0
    outer loop
      vertex -12.2 9.5 3
      vertex -13.1 9.5 12
      vertex -12.2 9.5 12
    endloop
  endfacet
  facet normal 0 1 0
    outer loop
      vertex -13.1 9.5 12
      vertex -12.2 9.5 3
      vertex -13.1 9.5 3
    endloop
  endfacet
  facet normal 0 1 -0
    outer loop
      vertex -10.2 9.5 3
      vertex -11.1 9.5 12
      vertex -10.2 9.5 12
    endloop
  endfacet
  facet normal 0 1 0
    outer loop
      vertex -11.1 9.5 12
      vertex -10.2 9.5 3
      vertex -11.1 9.5 3
    endloop
  endfacet
  facet normal 0 1 -0
    outer loop
      vertex -8.5 9.5 3
      vertex -9.1 9.5 12
      vertex -8.5 9.5 12
    endloop
  endfacet
  facet normal 0 1 0
    outer loop
      vertex -9.1 9.5 12
      vertex -8.5 9.5 3
      vertex -9.1 9.5 3
    endloop
  endfacet
  facet normal 0 -0.707107 0.707107
    outer loop
      vertex -41.5 10.05 12.55
      vertex -8.5 12.5 15
      vertex -41.5 12.5 15
    endloop
  endfacet
  facet normal 0 -0.707107 0.707107
    outer loop
      vertex -8.5 12.5 15
      vertex -41.5 10.05 12.55
      vertex -8.5 10.05 12.55
    endloop
  endfacet
  facet normal 0 0.707107 0.707107
    outer loop
      vertex -40.2 9.5 12
      vertex -41.1 8 13.5
      vertex -40.2 8 13.5
    endloop
  endfacet
  facet normal 0 0.707107 0.707107
    outer loop
      vertex -41.1 8 13.5
      vertex -40.2 9.5 12
      vertex -41.1 9.5 12
    endloop
  endfacet
  facet normal 0 0.707107 0.707107
    outer loop
      vertex -38.2 9.5 12
      vertex -39.1 8 13.5
      vertex -38.2 8 13.5
    endloop
  endfacet
  facet normal 0 0.707107 0.707107
    outer loop
      vertex -39.1 8 13.5
      vertex -38.2 9.5 12
      vertex -39.1 9.5 12
    endloop
  endfacet
  facet normal 0 0.707107 0.707107
    outer loop
      vertex -36.2 9.5 12
      vertex -37.1 8 13.5
      vertex -36.2 8 13.5
    endloop
  endfacet
  facet normal 0 0.707107 0.707107
    outer loop
      vertex -37.1 8 13.5
      vertex -36.2 9.5 12
      vertex -37.1 9.5 12
    endloop
  endfacet
  facet normal 0 0.707107 0.707107
    outer loop
      vertex -34.2 9.5 12
      vertex -35.1 8 13.5
      vertex -34.2 8 13.5
    endloop
  endfacet
  facet normal 0 0.707107 0.707107
    outer loop
      vertex -35.1 8 13.5
      vertex -34.2 9.5 12
      vertex -35.1 9.5 12
    endloop
  endfacet
  facet normal 0 0.707107 0.707107
    outer loop
      vertex -32.2 9.5 12
      vertex -33.1 8 13.5
      vertex -32.2 8 13.5
    endloop
  endfacet
  facet normal 0 0.707107 0.707107
    outer loop
      vertex -33.1 8 13.5
      vertex -32.2 9.5 12
      vertex -33.1 9.5 12
    endloop
  endfacet
  facet normal 0 0.707107 0.707107
    outer loop
      vertex -30.2 9.5 12
      vertex -31.1 8 13.5
      vertex -30.2 8 13.5
    endloop
  endfacet
  facet normal 0 0.707107 0.707107
    outer loop
      vertex -31.1 8 13.5
      vertex -30.2 9.5 12
      vertex -31.1 9.5 12
    endloop
  endfacet
  facet normal 0 0.707107 0.707107
    outer loop
      vertex -28.2 9.5 12
      vertex -29.1 8 13.5
      vertex -28.2 8 13.5
    endloop
  endfacet
  facet normal 0 0.707107 0.707107
    outer loop
      vertex -29.1 8 13.5
      vertex -28.2 9.5 12
      vertex -29.1 9.5 12
    endloop
  endfacet
  facet normal -0 0.707107 0.707107
    outer loop
      vertex -28.2 8 13.5
      vertex -27 6.5 15
      vertex -27.1 8 13.5
    endloop
  endfacet
  facet normal 0 0.707107 0.707107
    outer loop
      vertex -27 9.5 12
      vertex -27.1 8 13.5
      vertex -27 6.5 15
    endloop
  endfacet
  facet normal 0 0.707107 0.707107
    outer loop
      vertex -27.1 8 13.5
      vertex -27 9.5 12
      vertex -27.1 9.5 12
    endloop
  endfacet
  facet normal -0 0.707107 0.707107
    outer loop
      vertex -29.1 8 13.5
      vertex -27 6.5 15
      vertex -28.2 8 13.5
    endloop
  endfacet
  facet normal -0 0.707107 0.707107
    outer loop
      vertex -30.2 8 13.5
      vertex -27 6.5 15
      vertex -29.1 8 13.5
    endloop
  endfacet
  facet normal -0 0.707107 0.707107
    outer loop
      vertex -31.1 8 13.5
      vertex -27 6.5 15
      vertex -30.2 8 13.5
    endloop
  endfacet
  facet normal -0 0.707107 0.707107
    outer loop
      vertex -32.2 8 13.5
      vertex -27 6.5 15
      vertex -31.1 8 13.5
    endloop
  endfacet
  facet normal -0 0.707107 0.707107
    outer loop
      vertex -33.1 8 13.5
      vertex -27 6.5 15
      vertex -32.2 8 13.5
    endloop
  endfacet
  facet normal -0 0.707107 0.707107
    outer loop
      vertex -34.2 8 13.5
      vertex -27 6.5 15
      vertex -33.1 8 13.5
    endloop
  endfacet
  facet normal 0 0.707107 0.707107
    outer loop
      vertex -27 6.5 15
      vertex -34.2 8 13.5
      vertex -41.5 6.5 15
    endloop
  endfacet
  facet normal -0 0.707107 0.707107
    outer loop
      vertex -35.1 8 13.5
      vertex -41.5 6.5 15
      vertex -34.2 8 13.5
    endloop
  endfacet
  facet normal -0 0.707107 0.707107
    outer loop
      vertex -36.2 8 13.5
      vertex -41.5 6.5 15
      vertex -35.1 8 13.5
    endloop
  endfacet
  facet normal -0 0.707107 0.707107
    outer loop
      vertex -37.1 8 13.5
      vertex -41.5 6.5 15
      vertex -36.2 8 13.5
    endloop
  endfacet
  facet normal -0 0.707107 0.707107
    outer loop
      vertex -38.2 8 13.5
      vertex -41.5 6.5 15
      vertex -37.1 8 13.5
    endloop
  endfacet
  facet normal -0 0.707107 0.707107
    outer loop
      vertex -39.1 8 13.5
      vertex -41.5 6.5 15
      vertex -38.2 8 13.5
    endloop
  endfacet
  facet normal -0 0.707107 0.707107
    outer loop
      vertex -40.2 8 13.5
      vertex -41.5 6.5 15
      vertex -39.1 8 13.5
    endloop
  endfacet
  facet normal -0 0.707107 0.707107
    outer loop
      vertex -41.1 8 13.5
      vertex -41.5 6.5 15
      vertex -40.2 8 13.5
    endloop
  endfacet
  facet normal 0 0.707107 0.707107
    outer loop
      vertex -41.5 6.5 15
      vertex -41.1 8 13.5
      vertex -41.5 8 13.5
    endloop
  endfacet
  facet normal 0 0.707107 0.707107
    outer loop
      vertex -20.2 9.5 12
      vertex -21.1 8 13.5
      vertex -20.2 8 13.5
    endloop
  endfacet
  facet normal 0 0.707107 0.707107
    outer loop
      vertex -21.1 8 13.5
      vertex -20.2 9.5 12
      vertex -21.1 9.5 12
    endloop
  endfacet
  facet normal 0 0.707107 0.707107
    outer loop
      vertex -18.2 9.5 12
      vertex -19.1 8 13.5
      vertex -18.2 8 13.5
    endloop
  endfacet
  facet normal 0 0.707107 0.707107
    outer loop
      vertex -19.1 8 13.5
      vertex -18.2 9.5 12
      vertex -19.1 9.5 12
    endloop
  endfacet
  facet normal 0 0.707107 0.707107
    outer loop
      vertex -16.2 9.5 12
      vertex -17.1 8 13.5
      vertex -16.2 8 13.5
    endloop
  endfacet
  facet normal 0 0.707107 0.707107
    outer loop
      vertex -17.1 8 13.5
      vertex -16.2 9.5 12
      vertex -17.1 9.5 12
    endloop
  endfacet
  facet normal 0 0.707107 0.707107
    outer loop
      vertex -14.2 9.5 12
      vertex -15.1 8 13.5
      vertex -14.2 8 13.5
    endloop
  endfacet
  facet normal 0 0.707107 0.707107
    outer loop
      vertex -15.1 8 13.5
      vertex -14.2 9.5 12
      vertex -15.1 9.5 12
    endloop
  endfacet
  facet normal 0 0.707107 0.707107
    outer loop
      vertex -12.2 9.5 12
      vertex -13.1 8 13.5
      vertex -12.2 8 13.5
    endloop
  endfacet
  facet normal 0 0.707107 0.707107
    outer loop
      vertex -13.1 8 13.5
      vertex -12.2 9.5 12
      vertex -13.1 9.5 12
    endloop
  endfacet
  facet normal 0 0.707107 0.707107
    outer loop
      vertex -10.2 9.5 12
      vertex -11.1 8 13.5
      vertex -10.2 8 13.5
    endloop
  endfacet
  facet normal 0 0.707107 0.707107
    outer loop
      vertex -11.1 8 13.5
      vertex -10.2 9.5 12
      vertex -11.1 9.5 12
    endloop
  endfacet
  facet normal -0 0.707107 0.707107
    outer loop
      vertex -10.2 8 13.5
      vertex -8.5 6.5 15
      vertex -9.1 8 13.5
    endloop
  endfacet
  facet normal 0 0.707107 0.707107
    outer loop
      vertex -8.5 9.5 12
      vertex -9.1 8 13.5
      vertex -8.5 6.5 15
    endloop
  endfacet
  facet normal 0 0.707107 0.707107
    outer loop
      vertex -9.1 8 13.5
      vertex -8.5 9.5 12
      vertex -9.1 9.5 12
    endloop
  endfacet
  facet normal -0 0.707107 0.707107
    outer loop
      vertex -11.1 8 13.5
      vertex -8.5 6.5 15
      vertex -10.2 8 13.5
    endloop
  endfacet
  facet normal -0 0.707107 0.707107
    outer loop
      vertex -12.2 8 13.5
      vertex -8.5 6.5 15
      vertex -11.1 8 13.5
    endloop
  endfacet
  facet normal -0 0.707107 0.707107
    outer loop
      vertex -13.1 8 13.5
      vertex -8.5 6.5 15
      vertex -12.2 8 13.5
    endloop
  endfacet
  facet normal -0 0.707107 0.707107
    outer loop
      vertex -14.2 8 13.5
      vertex -8.5 6.5 15
      vertex -13.1 8 13.5
    endloop
  endfacet
  facet normal -0 0.707107 0.707107
    outer loop
      vertex -15.1 8 13.5
      vertex -8.5 6.5 15
      vertex -14.2 8 13.5
    endloop
  endfacet
  facet normal 0 0.707107 0.707107
    outer loop
      vertex -8.5 6.5 15
      vertex -15.1 8 13.5
      vertex -23 6.5 15
    endloop
  endfacet
  facet normal -0 0.707107 0.707107
    outer loop
      vertex -16.2 8 13.5
      vertex -23 6.5 15
      vertex -15.1 8 13.5
    endloop
  endfacet
  facet normal -0 0.707107 0.707107
    outer loop
      vertex -17.1 8 13.5
      vertex -23 6.5 15
      vertex -16.2 8 13.5
    endloop
  endfacet
  facet normal -0 0.707107 0.707107
    outer loop
      vertex -18.2 8 13.5
      vertex -23 6.5 15
      vertex -17.1 8 13.5
    endloop
  endfacet
  facet normal -0 0.707107 0.707107
    outer loop
      vertex -19.1 8 13.5
      vertex -23 6.5 15
      vertex -18.2 8 13.5
    endloop
  endfacet
  facet normal -0 0.707107 0.707107
    outer loop
      vertex -20.2 8 13.5
      vertex -23 6.5 15
      vertex -19.1 8 13.5
    endloop
  endfacet
  facet normal -0 0.707107 0.707107
    outer loop
      vertex -21.1 8 13.5
      vertex -23 6.5 15
      vertex -20.2 8 13.5
    endloop
  endfacet
  facet normal -0 0.707107 0.707107
    outer loop
      vertex -22.2 8 13.5
      vertex -23 6.5 15
      vertex -21.1 8 13.5
    endloop
  endfacet
  facet normal -0 0.707107 0.707107
    outer loop
      vertex -23 9.5 12
      vertex -22.2 8 13.5
      vertex -22.2 9.5 12
    endloop
  endfacet
  facet normal 0 0.707107 0.707107
    outer loop
      vertex -22.2 8 13.5
      vertex -23 9.5 12
      vertex -23 6.5 15
    endloop
  endfacet
  facet normal 1 0 0
    outer loop
      vertex -27 0 3
      vertex -27 9.5 12
      vertex -27 6.5 15
    endloop
  endfacet
  facet normal 1 0 0
    outer loop
      vertex -27 0 3
      vertex -27 6.5 15
      vertex -27 0 15
    endloop
  endfacet
  facet normal 1 0 0
    outer loop
      vertex -27 9.5 12
      vertex -27 0 3
      vertex -27 9.5 3
    endloop
  endfacet
  facet normal -1 0 0
    outer loop
      vertex -23 0 3
      vertex -23 9.5 12
      vertex -23 9.5 3
    endloop
  endfacet
  facet normal -1 -0 0
    outer loop
      vertex -23 9.5 12
      vertex -23 0 3
      vertex -23 6.5 15
    endloop
  endfacet
  facet normal -1 -0 0
    outer loop
      vertex -23 6.5 15
      vertex -23 0 3
      vertex -23 0 15
    endloop
  endfacet
  facet normal -0.951056 0 0.309017
    outer loop
      vertex -3.12467 22 6.50076
      vertex -2.8 26 7.5
      vertex -3.12467 26 6.50076
    endloop
  endfacet
  facet normal -0.951056 0 0.309017
    outer loop
      vertex -2.8 26 7.5
      vertex -3.12467 22 6.50076
      vertex -2.8 22 7.5
    endloop
  endfacet
  facet normal 0.951056 -0 0.309017
    outer loop
      vertex -6.2 22 7.5
      vertex -5.87533 26 6.50076
      vertex -6.2 26 7.5
    endloop
  endfacet
  facet normal 0.951056 0 0.309017
    outer loop
      vertex -5.87533 26 6.50076
      vertex -6.2 22 7.5
      vertex -5.87533 22 6.50076
    endloop
  endfacet
  facet normal 0 0 -1
    outer loop
      vertex -5.02533 22 9.1168
      vertex -3.97467 26 9.1168
      vertex -3.97467 22 9.1168
    endloop
  endfacet
  facet normal -0 0 -1
    outer loop
      vertex -3.97467 26 9.1168
      vertex -5.02533 22 9.1168
      vertex -5.02533 26 9.1168
    endloop
  endfacet
  facet normal -0 0 1
    outer loop
      vertex -5.02533 26 5.8832
      vertex -3.97467 22 5.8832
      vertex -3.97467 26 5.8832
    endloop
  endfacet
  facet normal 0 0 1
    outer loop
      vertex -3.97467 22 5.8832
      vertex -5.02533 26 5.8832
      vertex -5.02533 22 5.8832
    endloop
  endfacet
  facet normal -0.587786 0 0.809017
    outer loop
      vertex -3.97467 26 5.8832
      vertex -3.12467 22 6.50076
      vertex -3.12467 26 6.50076
    endloop
  endfacet
  facet normal -0.587786 0 0.809017
    outer loop
      vertex -3.12467 22 6.50076
      vertex -3.97467 26 5.8832
      vertex -3.97467 22 5.8832
    endloop
  endfacet
  facet normal 0.587786 0 0.809017
    outer loop
      vertex -5.87533 26 6.50076
      vertex -5.02533 22 5.8832
      vertex -5.02533 26 5.8832
    endloop
  endfacet
  facet normal 0.587786 0 0.809017
    outer loop
      vertex -5.02533 22 5.8832
      vertex -5.87533 26 6.50076
      vertex -5.87533 22 6.50076
    endloop
  endfacet
  facet normal -0.951056 0 -0.309018
    outer loop
      vertex -2.8 22 7.5
      vertex -3.12467 26 8.49923
      vertex -2.8 26 7.5
    endloop
  endfacet
  facet normal -0.951056 -0 -0.309018
    outer loop
      vertex -3.12467 26 8.49923
      vertex -2.8 22 7.5
      vertex -3.12467 22 8.49923
    endloop
  endfacet
  facet normal -0.587786 0 -0.809017
    outer loop
      vertex -3.97467 22 9.1168
      vertex -3.12467 26 8.49923
      vertex -3.12467 22 8.49923
    endloop
  endfacet
  facet normal -0.587786 0 -0.809017
    outer loop
      vertex -3.12467 26 8.49923
      vertex -3.97467 22 9.1168
      vertex -3.97467 26 9.1168
    endloop
  endfacet
  facet normal 0.587786 0 -0.809017
    outer loop
      vertex -5.87533 22 8.49923
      vertex -5.02533 26 9.1168
      vertex -5.02533 22 9.1168
    endloop
  endfacet
  facet normal 0.587786 0 -0.809017
    outer loop
      vertex -5.02533 26 9.1168
      vertex -5.87533 22 8.49923
      vertex -5.87533 26 8.49923
    endloop
  endfacet
  facet normal 0.951056 0 -0.309018
    outer loop
      vertex -5.87533 22 8.49923
      vertex -6.2 26 7.5
      vertex -5.87533 26 8.49923
    endloop
  endfacet
  facet normal 0.951056 0 -0.309018
    outer loop
      vertex -6.2 26 7.5
      vertex -5.87533 22 8.49923
      vertex -6.2 22 7.5
    endloop
  endfacet
  facet normal -0.951056 0 0.309018
    outer loop
      vertex -44.1247 22 6.50076
      vertex -43.8 26 7.5
      vertex -44.1247 26 6.50076
    endloop
  endfacet
  facet normal -0.951056 0 0.309018
    outer loop
      vertex -43.8 26 7.5
      vertex -44.1247 22 6.50076
      vertex -43.8 22 7.5
    endloop
  endfacet
  facet normal 0.951056 -0 0.309018
    outer loop
      vertex -47.2 22 7.5
      vertex -46.8753 26 6.50076
      vertex -47.2 26 7.5
    endloop
  endfacet
  facet normal 0.951056 0 0.309018
    outer loop
      vertex -46.8753 26 6.50076
      vertex -47.2 22 7.5
      vertex -46.8753 22 6.50076
    endloop
  endfacet
  facet normal 0 0 -1
    outer loop
      vertex -46.0253 22 9.1168
      vertex -44.9747 26 9.1168
      vertex -44.9747 22 9.1168
    endloop
  endfacet
  facet normal -0 0 -1
    outer loop
      vertex -44.9747 26 9.1168
      vertex -46.0253 22 9.1168
      vertex -46.0253 26 9.1168
    endloop
  endfacet
  facet normal -0 0 1
    outer loop
      vertex -46.0253 26 5.8832
      vertex -44.9747 22 5.8832
      vertex -44.9747 26 5.8832
    endloop
  endfacet
  facet normal 0 0 1
    outer loop
      vertex -44.9747 22 5.8832
      vertex -46.0253 26 5.8832
      vertex -46.0253 22 5.8832
    endloop
  endfacet
  facet normal -0.587786 0 0.809016
    outer loop
      vertex -44.9747 26 5.8832
      vertex -44.1247 22 6.50076
      vertex -44.1247 26 6.50076
    endloop
  endfacet
  facet normal -0.587786 0 0.809016
    outer loop
      vertex -44.1247 22 6.50076
      vertex -44.9747 26 5.8832
      vertex -44.9747 22 5.8832
    endloop
  endfacet
  facet normal 0.587786 0 0.809016
    outer loop
      vertex -46.8753 26 6.50076
      vertex -46.0253 22 5.8832
      vertex -46.0253 26 5.8832
    endloop
  endfacet
  facet normal 0.587786 0 0.809016
    outer loop
      vertex -46.0253 22 5.8832
      vertex -46.8753 26 6.50076
      vertex -46.8753 22 6.50076
    endloop
  endfacet
  facet normal -0.951056 0 -0.309019
    outer loop
      vertex -43.8 22 7.5
      vertex -44.1247 26 8.49923
      vertex -43.8 26 7.5
    endloop
  endfacet
  facet normal -0.951056 -0 -0.309019
    outer loop
      vertex -44.1247 26 8.49923
      vertex -43.8 22 7.5
      vertex -44.1247 22 8.49923
    endloop
  endfacet
  facet normal -0.587786 0 -0.809016
    outer loop
      vertex -44.9747 22 9.1168
      vertex -44.1247 26 8.49923
      vertex -44.1247 22 8.49923
    endloop
  endfacet
  facet normal -0.587786 0 -0.809016
    outer loop
      vertex -44.1247 26 8.49923
      vertex -44.9747 22 9.1168
      vertex -44.9747 26 9.1168
    endloop
  endfacet
  facet normal 0.587786 0 -0.809016
    outer loop
      vertex -46.8753 22 8.49923
      vertex -46.0253 26 9.1168
      vertex -46.0253 22 9.1168
    endloop
  endfacet
  facet normal 0.587786 0 -0.809016
    outer loop
      vertex -46.0253 26 9.1168
      vertex -46.8753 22 8.49923
      vertex -46.8753 26 8.49923
    endloop
  endfacet
  facet normal 0.951056 0 -0.309019
    outer loop
      vertex -46.8753 22 8.49923
      vertex -47.2 26 7.5
      vertex -46.8753 26 8.49923
    endloop
  endfacet
  facet normal 0.951056 0 -0.309019
    outer loop
      vertex -47.2 26 7.5
      vertex -46.8753 22 8.49923
      vertex -47.2 22 7.5
    endloop
  endfacet
endsolid OpenSCAD_Model
